<?xml version="1.0" encoding="utf-8"?>
<!-- Generator: Adobe Illustrator 16.0.0, SVG Export Plug-In . SVG Version: 6.00 Build 0)  -->
<!DOCTYPE svg PUBLIC "-//W3C//DTD SVG 1.1//EN" "http://www.w3.org/Graphics/SVG/1.1/DTD/svg11.dtd">
<svg version="1.1" id="Layer_1" xmlns="http://www.w3.org/2000/svg" xmlns:xlink="http://www.w3.org/1999/xlink" x="0px" y="0px"
	 width="1058px" height="400px" viewBox="0 0 1058 400" enable-background="new 0 0 1058 400" xml:space="preserve">
<g>
	<g>
		<rect x="225.465" y="252.632" fill="#F4F4F4" width="642.636" height="46.382"/>
		<rect x="225.465" y="100.986" fill="#F4F4F4" width="642.636" height="150.432"/>
	</g>
	<g>
		<g>
			<path fill="#FFFFFF" d="M478.654,186.612H320.896c-1.837,0-3.33,1.484-3.33,3.323v45.026c0,1.846,1.493,3.334,3.33,3.334h157.757
				c1.839,0,3.328-1.488,3.328-3.334v-45.026C481.982,188.096,480.493,186.612,478.654,186.612z"/>
		</g>
	</g>
	<g>
		<g>
			<path fill="none" d="M641.803,186.612H500.306c-1.837,0-3.331,1.484-3.331,3.323v45.026c0,1.846,1.494,3.334,3.331,3.334h141.497
				c1.84,0,3.326-1.488,3.326-3.334v-45.026C645.129,188.096,643.643,186.612,641.803,186.612z"/>
		</g>
	</g>
	<path opacity="0.5" fill="#515252" d="M834.371,118.068l14.287,14.284c0.235,0.244,0.356,0.56,0.356,0.879
		c0.002,0.31-0.112,0.635-0.356,0.885l-14.287,14.27c-0.475,0.497-1.26,0.497-1.748,0l-3.631-3.628
		c-0.479-0.484-0.474-1.257,0-1.749l5.986-5.963h-21.367c-0.674,0-1.229-0.565-1.229-1.243v-5.145c0-0.674,0.556-1.238,1.229-1.238
		h21.367l-5.986-5.97c-0.479-0.482-0.479-1.267,0-1.743l3.631-3.64C833.115,117.588,833.896,117.588,834.371,118.068z"/>
	<g>
		<rect x="316.817" y="122.599" fill="none" width="424.339" height="95.167"/>
		<text transform="matrix(1 0 0 1 316.8174 142.6807)" fill="#515252" font-family="'Roboto-Bold'" font-size="29">Lizzie has started your job</text>
	</g>
	<path fill="#515252" d="M292.139,162.149c0,28.231-22.886,51.108-51.119,51.108s-51.121-22.877-51.121-51.108
		c0-28.234,22.888-51.119,51.121-51.119C269.252,111.031,292.139,133.915,292.139,162.149z"/>
	
		<text transform="matrix(1 0 0 1 338.1377 221.2871)" fill="#515252" font-family="'RobotoCondensed-Regular'" font-size="24.5807" letter-spacing="1">A</text>
	
		<text transform="matrix(1 0 0 1 352.8169 221.2871)" fill="#515252" font-family="'RobotoCondensed-Regular'" font-size="24.5807" letter-spacing="1">D</text>
	
		<text transform="matrix(1 0 0 1 366.3345 221.2871)" fill="#515252" font-family="'RobotoCondensed-Regular'" font-size="24.5807" letter-spacing="1">JUST TIP</text>
	<text transform="matrix(1 0 0 1 521.2759 221.0098)" fill="#515252" font-family="'RobotoCondensed-Bold'" font-size="24.5807">VIEW JOB</text>
	<g opacity="0.6">
		<path fill="#515252" d="M318.967,282.938v-17.322h9.021v1.865h-6.841v5.937h5.855v1.869h-5.855v7.651H318.967z"/>
		<path fill="#515252" d="M330.126,282.938v-12.875h2.047l0.037,1.31c0.561-1.03,1.359-1.546,2.39-1.546
			c0.333,0,0.61,0.056,0.834,0.166l0.012,2.043c-0.294-0.053-0.612-0.08-0.954-0.08c-1.078,0-1.83,0.59-2.258,1.773v9.209H330.126z"
			/>
		<path fill="#515252" d="M337.17,277.309v-1.404c0-1.87,0.455-3.353,1.363-4.442c0.908-1.093,2.108-1.636,3.6-1.636
			c1.49,0,2.691,0.531,3.598,1.593c0.909,1.062,1.375,2.513,1.399,4.345v1.354c0,1.866-0.453,3.342-1.355,4.425
			c-0.906,1.088-2.113,1.633-3.619,1.633c-1.49,0-2.688-0.527-3.586-1.585C337.668,280.537,337.202,279.109,337.17,277.309z
			 M339.276,277.113c0,1.324,0.259,2.369,0.78,3.128c0.518,0.759,1.22,1.136,2.1,1.136c1.856,0,2.812-1.343,2.868-4.025V275.9
			c0-1.319-0.26-2.363-0.786-3.131c-0.523-0.766-1.226-1.15-2.105-1.15c-0.865,0-1.559,0.386-2.077,1.15
			c-0.521,0.768-0.78,1.808-0.78,3.116V277.113z"/>
		<path fill="#515252" d="M349.072,282.938v-1.621l5.903-9.457h-5.855v-1.797h8.331v1.537l-5.974,9.541h6.211v1.797H349.072z"/>
		<path fill="#515252" d="M359.695,277.534v-1.56c0-1.918,0.42-3.424,1.258-4.515c0.836-1.093,2.006-1.636,3.509-1.636
			c1.504,0,2.627,0.48,3.373,1.439c0.745,0.957,1.124,2.453,1.141,4.484v1.38h-7.173v0.297c0,1.382,0.258,2.386,0.778,3.011
			c0.515,0.627,1.262,0.939,2.236,0.939c0.619,0,1.162-0.114,1.634-0.35c0.471-0.234,0.912-0.605,1.324-1.112l1.092,1.33
			c-0.908,1.286-2.3,1.93-4.168,1.93c-1.606,0-2.836-0.479-3.694-1.435C360.147,280.784,359.711,279.384,359.695,277.534z
			 M361.814,275.334h5.057v-0.289c-0.055-1.229-0.276-2.107-0.658-2.635c-0.385-0.523-0.97-0.792-1.75-0.792
			c-0.875,0-1.518,0.303-1.938,0.905C362.106,273.128,361.87,274.064,361.814,275.334z"/>
		<path fill="#515252" d="M371.728,282.938v-12.875h1.988l0.059,1.394c0.816-1.087,1.857-1.63,3.129-1.63
			c2.284,0,3.44,1.52,3.473,4.557v8.557h-2.105v-8.461c0-1.008-0.169-1.724-0.505-2.146c-0.337-0.425-0.843-0.639-1.519-0.639
			c-0.523,0-0.991,0.174-1.409,0.522c-0.417,0.349-0.75,0.808-1.004,1.369v9.354h-2.107V282.938z"/>
		<path fill="#515252" d="M388.187,270.062h2.299l2.379,9.383l2.344-9.383h2.236l-4.212,14.693
			c-0.318,1.102-0.766,1.942-1.343,2.516c-0.581,0.576-1.237,0.863-1.975,0.863c-0.286,0-0.651-0.062-1.096-0.189v-1.774l0.464,0.05
			c0.612,0,1.088-0.146,1.434-0.434c0.344-0.29,0.625-0.794,0.838-1.512l0.415-1.438L388.187,270.062z"/>
		<path fill="#515252" d="M398.933,277.309v-1.404c0-1.87,0.457-3.353,1.364-4.442c0.907-1.093,2.108-1.636,3.598-1.636
			c1.493,0,2.692,0.531,3.602,1.593s1.373,2.513,1.398,4.345v1.354c0,1.866-0.454,3.342-1.357,4.425
			c-0.902,1.088-2.109,1.633-3.617,1.633c-1.491,0-2.687-0.527-3.587-1.585C399.433,280.537,398.964,279.109,398.933,277.309z
			 M401.041,277.113c0,1.324,0.258,2.369,0.778,3.128s1.22,1.136,2.1,1.136c1.857,0,2.812-1.343,2.868-4.025V275.9
			c0-1.319-0.26-2.363-0.784-3.131c-0.522-0.766-1.227-1.15-2.108-1.15c-0.862,0-1.555,0.386-2.075,1.15
			c-0.521,0.768-0.778,1.808-0.778,3.116V277.113z"/>
		<path fill="#515252" d="M411.344,277.343v-1.426c0-2.008,0.364-3.522,1.094-4.551s1.798-1.541,3.201-1.541
			c1.309,0,2.305,0.559,2.987,1.677l0.108-1.439h1.902v12.992c0,1.598-0.408,2.819-1.225,3.674c-0.817,0.85-1.956,1.276-3.416,1.276
			c-0.633,0-1.348-0.155-2.134-0.47c-0.791-0.314-1.384-0.7-1.781-1.161l0.856-1.451c0.872,0.856,1.838,1.284,2.893,1.284
			c1.751,0,2.653-0.957,2.7-2.875v-1.678c-0.683,1.013-1.65,1.521-2.904,1.521c-1.331,0-2.371-0.502-3.117-1.504
			C411.764,280.667,411.375,279.225,411.344,277.343z M413.449,277.111c0,1.441,0.213,2.502,0.638,3.18
			c0.421,0.676,1.12,1.014,2.087,1.014c1.046,0,1.832-0.531,2.355-1.604v-6.428c-0.547-1.056-1.325-1.582-2.332-1.582
			c-0.965,0-1.665,0.341-2.094,1.015c-0.43,0.68-0.647,1.72-0.655,3.12L413.449,277.111L413.449,277.111z"/>
		<path fill="#515252" d="M423.89,282.938v-18.275h2.104v6.721c0.802-1.035,1.826-1.557,3.071-1.557c2.283,0,3.441,1.52,3.475,4.557
			v8.557h-2.108v-8.461c0-1.008-0.167-1.724-0.503-2.146c-0.338-0.425-0.843-0.639-1.516-0.639c-0.525,0-0.996,0.174-1.412,0.522
			c-0.417,0.349-0.751,0.808-1.006,1.369v9.354h-2.104V282.938z"/>
		<path fill="#515252" d="M435.7,278.45v-8.388h2.106v8.232c0,2.006,0.601,3.01,1.804,3.01c1.272,0,2.151-0.57,2.635-1.712v-9.53
			h2.104v12.875h-1.997l-0.049-1.133c-0.695,0.911-1.713,1.369-3.048,1.369c-1.171,0-2.052-0.402-2.646-1.207
			C436.01,281.162,435.708,279.99,435.7,278.45z"/>
		<path fill="#515252" d="M447.618,282.938v-12.875h2.048l0.036,1.31c0.562-1.03,1.36-1.546,2.389-1.546
			c0.334,0,0.612,0.056,0.835,0.166l0.012,2.043c-0.295-0.053-0.612-0.08-0.954-0.08c-1.078,0-1.828,0.59-2.26,1.773v9.209H447.618z
			"/>
		<path fill="#515252" d="M454.596,271.764v-1.701h1.954v-3.119h2.104v3.119h1.929v1.701h-1.929v7.992
			c0,0.51,0.084,0.895,0.25,1.157c0.166,0.261,0.45,0.392,0.852,0.392c0.277,0,0.556-0.048,0.839-0.143l-0.021,1.775
			c-0.479,0.156-0.965,0.236-1.467,0.236c-0.831,0-1.467-0.298-1.9-0.895c-0.438-0.596-0.655-1.434-0.655-2.521v-7.997h-1.954
			V271.764z"/>
		<path fill="#515252" d="M468.155,271.764v-1.701h1.679v-1.483c0.023-1.306,0.354-2.325,0.994-3.058
			c0.637-0.733,1.542-1.099,2.707-1.099c0.418,0,0.844,0.067,1.271,0.2l-0.105,1.775c-0.302-0.073-0.625-0.109-0.964-0.109
			c-1.198,0-1.798,0.854-1.798,2.561v1.213h2.201v1.701h-2.201v11.174h-2.105v-11.174H468.155L468.155,271.764z"/>
		<path fill="#515252" d="M476.633,282.938v-12.875h2.047l0.034,1.31c0.565-1.03,1.362-1.546,2.392-1.546
			c0.334,0,0.61,0.056,0.832,0.166l0.012,2.043c-0.294-0.053-0.609-0.08-0.95-0.08c-1.078,0-1.833,0.59-2.261,1.773v9.209H476.633z"
			/>
		<path fill="#515252" d="M483.677,277.309v-1.404c0-1.87,0.453-3.353,1.361-4.442c0.909-1.093,2.106-1.636,3.6-1.636
			c1.491,0,2.692,0.531,3.599,1.593s1.377,2.513,1.398,4.345v1.354c0,1.866-0.45,3.342-1.355,4.425
			c-0.906,1.088-2.111,1.633-3.616,1.633c-1.493,0-2.688-0.527-3.589-1.585C484.173,280.537,483.708,279.109,483.677,277.309z
			 M485.781,277.113c0,1.324,0.262,2.369,0.781,3.128s1.22,1.136,2.101,1.136c1.854,0,2.811-1.343,2.867-4.025V275.9
			c0-1.319-0.264-2.363-0.786-3.131c-0.523-0.766-1.227-1.15-2.105-1.15c-0.864,0-1.557,0.386-2.076,1.15
			c-0.521,0.768-0.781,1.808-0.781,3.116V277.113z"/>
		<path fill="#515252" d="M496.498,282.938v-12.875h1.986l0.047,1.19c0.783-0.951,1.817-1.428,3.098-1.428
			c1.43,0,2.429,0.624,2.999,1.866c0.81-1.242,1.938-1.866,3.381-1.866c2.382,0,3.604,1.479,3.658,4.438v8.674h-2.105v-8.473
			c0-0.938-0.167-1.63-0.5-2.087c-0.336-0.457-0.901-0.687-1.694-0.687c-0.639,0-1.156,0.246-1.553,0.736
			c-0.396,0.493-0.628,1.119-0.689,1.883v8.627h-2.108v-8.567c-0.024-1.787-0.747-2.679-2.173-2.679
			c-1.06,0-1.806,0.531-2.242,1.596v9.65H496.498L496.498,282.938z"/>
		<path fill="#515252" d="M520.085,277.915h2.177c0,1.071,0.299,1.905,0.897,2.499c0.597,0.596,1.411,0.891,2.44,0.891
			c0.961,0,1.686-0.244,2.169-0.738c0.483-0.49,0.727-1.162,0.727-2.012c0-0.865-0.234-1.527-0.701-1.99
			c-0.469-0.459-1.313-0.907-2.542-1.344c-1.222-0.437-2.155-0.894-2.799-1.373c-0.638-0.48-1.118-1.029-1.438-1.646
			c-0.319-0.614-0.478-1.321-0.478-2.116c0-1.368,0.457-2.496,1.368-3.381c0.915-0.889,2.107-1.331,3.585-1.331
			c1.013,0,1.913,0.228,2.705,0.685c0.791,0.457,1.399,1.088,1.826,1.897c0.428,0.81,0.643,1.698,0.643,2.664h-2.168
			c0-1.073-0.258-1.906-0.773-2.494c-0.517-0.589-1.259-0.885-2.23-0.885c-0.881,0-1.563,0.245-2.047,0.739
			c-0.488,0.49-0.729,1.182-0.729,2.07c0,0.73,0.261,1.344,0.787,1.834c0.522,0.492,1.334,0.934,2.431,1.32
			c1.71,0.564,2.929,1.259,3.652,2.084c0.727,0.827,1.088,1.906,1.088,3.24c0,1.404-0.455,2.533-1.364,3.377
			c-0.908,0.845-2.145,1.268-3.709,1.268c-1.008,0-1.932-0.222-2.779-0.662c-0.853-0.437-1.521-1.058-2.007-1.854
			C520.327,279.857,520.085,278.947,520.085,277.915z"/>
		<path fill="#515252" d="M532.758,271.764v-1.701h1.949v-3.119h2.109v3.119h1.928v1.701h-1.928v7.992
			c0,0.51,0.084,0.895,0.248,1.157c0.163,0.261,0.448,0.392,0.85,0.392c0.277,0,0.557-0.048,0.842-0.143l-0.025,1.775
			c-0.477,0.156-0.961,0.236-1.463,0.236c-0.832,0-1.467-0.298-1.903-0.895c-0.438-0.596-0.656-1.434-0.656-2.521v-7.997h-1.95
			V271.764z"/>
		<path fill="#515252" d="M541.057,279.43c0-1.312,0.443-2.353,1.332-3.119c0.892-0.771,2.107-1.162,3.654-1.177h1.547v-1.374
			c0-0.773-0.172-1.322-0.512-1.648c-0.342-0.326-0.861-0.492-1.56-0.492c-0.635,0-1.149,0.191-1.547,0.572
			c-0.396,0.377-0.594,0.856-0.594,1.44h-2.107c0-0.657,0.191-1.286,0.582-1.885c0.39-0.601,0.912-1.07,1.572-1.409
			c0.658-0.342,1.394-0.513,2.199-0.513c1.322,0,2.326,0.323,3.016,0.979c0.687,0.652,1.041,1.604,1.058,2.857v6.5
			c0.006,0.992,0.133,1.854,0.379,2.582v0.191h-2.178c-0.128-0.278-0.22-0.748-0.273-1.406c-0.746,1.096-1.697,1.645-2.854,1.645
			c-1.168,0-2.077-0.328-2.731-0.98C541.385,281.539,541.057,280.616,541.057,279.43z M543.164,279.177
			c0,0.73,0.145,1.259,0.439,1.589c0.294,0.33,0.791,0.491,1.485,0.491c0.517,0,1.008-0.141,1.476-0.427
			c0.469-0.284,0.811-0.643,1.024-1.068v-3.072h-1.19c-0.998,0.017-1.787,0.242-2.365,0.675
			C543.455,277.794,543.164,278.398,543.164,279.177z"/>
		<path fill="#515252" d="M553.021,282.938v-12.875h2.045l0.036,1.31c0.562-1.03,1.361-1.546,2.394-1.546
			c0.332,0,0.606,0.056,0.832,0.166l0.01,2.043c-0.293-0.053-0.609-0.08-0.951-0.08c-1.078,0-1.83,0.59-2.26,1.773v9.209H553.021z"
			/>
		<path fill="#515252" d="M560.65,282.938v-18.275h2.104v6.818c0.689-1.104,1.678-1.654,2.967-1.654c1.416,0,2.478,0.5,3.185,1.498
			s1.063,2.507,1.072,4.521v1.272c0,2.008-0.363,3.519-1.087,4.533c-0.723,1.017-1.77,1.523-3.145,1.523
			c-1.365,0-2.391-0.592-3.072-1.771l-0.121,1.535H560.65L560.65,282.938z M562.756,279.57c0.523,1.158,1.338,1.734,2.445,1.734
			c0.949,0,1.633-0.332,2.043-0.996c0.41-0.668,0.621-1.699,0.629-3.104v-1.296c0-1.521-0.213-2.603-0.635-3.251
			c-0.424-0.643-1.111-0.969-2.06-0.969c-1.086,0-1.893,0.588-2.424,1.761L562.756,279.57L562.756,279.57z"/>
		<path fill="#515252" d="M572.828,278.45v-8.388h2.104v8.232c0,2.006,0.603,3.01,1.806,3.01c1.272,0,2.151-0.57,2.631-1.712v-9.53
			h2.106v12.875h-2l-0.045-1.133c-0.696,0.911-1.713,1.369-3.049,1.369c-1.17,0-2.053-0.402-2.647-1.207
			C573.137,281.162,572.836,279.99,572.828,278.45z"/>
		<path fill="#515252" d="M584.359,277.188v-1.416c0-1.94,0.416-3.418,1.25-4.43c0.832-1.012,2.047-1.517,3.643-1.517
			c1.311,0,2.355,0.418,3.125,1.249c0.771,0.83,1.18,1.971,1.227,3.415h-1.975c-0.047-0.956-0.275-1.673-0.682-2.151
			c-0.408-0.479-0.978-0.72-1.695-0.72c-0.936,0-1.631,0.312-2.084,0.926c-0.453,0.616-0.688,1.628-0.701,3.034v1.643
			c0,1.518,0.224,2.588,0.672,3.215c0.447,0.629,1.156,0.941,2.123,0.941c0.697,0,1.258-0.215,1.681-0.646
			c0.418-0.434,0.647-1.047,0.688-1.851h1.976c-0.048,1.235-0.482,2.263-1.312,3.075c-0.826,0.812-1.834,1.22-3.031,1.22
			c-1.592,0-2.811-0.502-3.645-1.504C584.779,280.667,584.359,279.174,584.359,277.188z"/>
		<path fill="#515252" d="M596.26,282.938v-18.275h2.105v10.936l4.01-5.533h2.521l-4.093,5.377l4.627,7.498h-2.448l-3.498-5.893
			l-1.119,1.285v4.605H596.26z"/>
		<path fill="#515252" d="M606.729,279.093h2.107c0.023,0.716,0.24,1.272,0.652,1.679c0.414,0.402,0.987,0.605,1.731,0.605
			c0.699,0,1.229-0.156,1.59-0.47c0.365-0.313,0.548-0.737,0.548-1.269c0-0.455-0.168-0.844-0.511-1.169
			c-0.34-0.325-0.996-0.706-1.969-1.144c-1.133-0.469-1.93-0.868-2.397-1.202c-0.468-0.335-0.816-0.715-1.048-1.14
			c-0.231-0.426-0.348-0.93-0.348-1.52c0-1.044,0.385-1.911,1.152-2.605c0.768-0.69,1.743-1.035,2.938-1.035
			c1.25,0,2.256,0.365,3.019,1.092c0.76,0.732,1.141,1.666,1.141,2.811h-2.096c0-0.584-0.193-1.08-0.582-1.488
			c-0.388-0.414-0.881-0.62-1.482-0.62c-0.617,0-1.102,0.163-1.451,0.485c-0.354,0.322-0.528,0.752-0.528,1.291
			c0,0.428,0.127,0.776,0.385,1.039c0.256,0.262,0.875,0.606,1.856,1.034c1.56,0.612,2.621,1.21,3.183,1.794
			c0.563,0.584,0.846,1.323,0.846,2.221c0,1.119-0.385,2.015-1.149,2.686c-0.771,0.67-1.8,1.007-3.093,1.007
			c-1.334,0-2.416-0.385-3.246-1.153C607.146,281.252,606.729,280.273,606.729,279.093z"/>
		<path fill="#515252" d="M618.375,281.83c0-0.367,0.115-0.676,0.342-0.917c0.226-0.246,0.564-0.367,1.019-0.367
			s0.795,0.121,1.026,0.367c0.234,0.241,0.353,0.55,0.353,0.917c0,0.352-0.117,0.646-0.353,0.882
			c-0.231,0.235-0.574,0.354-1.026,0.354c-0.453,0-0.793-0.119-1.019-0.354C618.49,282.477,618.375,282.182,618.375,281.83z"/>
		<path fill="#515252" d="M624.564,281.83c0-0.367,0.11-0.676,0.338-0.917c0.227-0.246,0.567-0.367,1.018-0.367
			c0.453,0,0.797,0.121,1.031,0.367c0.231,0.241,0.348,0.55,0.348,0.917c0,0.352-0.115,0.646-0.348,0.882
			c-0.234,0.235-0.578,0.354-1.031,0.354c-0.449,0-0.791-0.119-1.018-0.354S624.564,282.182,624.564,281.83z"/>
		<path fill="#515252" d="M630.75,281.83c0-0.367,0.113-0.676,0.34-0.917c0.228-0.246,0.564-0.367,1.017-0.367
			s0.799,0.121,1.03,0.367c0.232,0.241,0.351,0.55,0.351,0.917c0,0.352-0.117,0.646-0.351,0.882
			c-0.231,0.235-0.578,0.354-1.03,0.354c-0.451,0-0.789-0.119-1.017-0.354C630.863,282.477,630.75,282.182,630.75,281.83z"/>
	</g>
</g>
<g>
	<g>
		<rect x="225.465" y="-80.368" fill="#FFC70F" width="642.636" height="46.382"/>
		<rect x="225.465" y="-232.014" fill="#FFC70F" width="642.636" height="150.432"/>
	</g>
	<g>
		<g>
			<path fill="#FFFFFF" stroke="#515252" stroke-width="2.0607" stroke-miterlimit="10" d="M478.654-146.388H320.896
				c-1.837,0-3.33,1.484-3.33,3.323v45.026c0,1.846,1.493,3.334,3.33,3.334h157.757c1.839,0,3.328-1.488,3.328-3.334v-45.026
				C481.982-144.904,480.493-146.388,478.654-146.388z"/>
		</g>
	</g>
	<g>
		<g>
			<path fill="none" stroke="#515252" stroke-width="2.0607" stroke-miterlimit="10" d="M641.803-146.388H500.306
				c-1.837,0-3.331,1.484-3.331,3.323v45.026c0,1.846,1.494,3.334,3.331,3.334h141.497c1.84,0,3.326-1.488,3.326-3.334v-45.026
				C645.129-144.904,643.643-146.388,641.803-146.388z"/>
		</g>
	</g>
	<path fill="#515252" d="M834.371-214.932l14.287,14.284c0.235,0.244,0.356,0.56,0.356,0.879c0.002,0.31-0.112,0.635-0.356,0.885
		l-14.287,14.27c-0.475,0.497-1.26,0.497-1.748,0l-3.631-3.628c-0.479-0.484-0.474-1.257,0-1.749l5.986-5.963h-21.367
		c-0.674,0-1.229-0.565-1.229-1.243v-5.145c0-0.674,0.556-1.238,1.229-1.238h21.367l-5.986-5.97c-0.479-0.482-0.479-1.267,0-1.743
		l3.631-3.64C833.115-215.412,833.896-215.412,834.371-214.932z"/>
	<rect x="316.817" y="-210.401" fill="none" width="424.339" height="95.167"/>
	<text transform="matrix(1 0 0 1 316.8174 -190.3193)" fill="#515252" font-family="'Roboto-Bold'" font-size="26.7767">Your Job has not been claimed.</text>
	<path fill="#515252" d="M292.139-170.851c0,28.231-22.886,51.108-51.119,51.108s-51.121-22.877-51.121-51.108
		c0-28.234,22.888-51.119,51.121-51.119C269.252-221.969,292.139-199.085,292.139-170.851z"/>
	<text transform="matrix(1 0 0 1 338.1377 -111.7129)" fill="#515252" font-family="'RobotoCondensed-Bold'" font-size="24.5807">A</text>
	<text transform="matrix(1 0 0 1 352.8169 -111.7129)" fill="#515252" font-family="'RobotoCondensed-Bold'" font-size="24.5807">D</text>
	<text transform="matrix(1 0 0 1 366.3345 -111.7129)" fill="#515252" font-family="'RobotoCondensed-Bold'" font-size="24.5807">JUST TIP</text>
	<text transform="matrix(1 0 0 1 521.2759 -111.9902)" fill="#515252" font-family="'RobotoCondensed-Bold'" font-size="24.5807">VIEW JOB</text>
	<g opacity="0.6">
		<path fill="#515252" d="M318.967-50.062v-17.323h9.021v1.865h-6.841v5.937h5.855v1.869h-5.855v7.652H318.967z"/>
		<path fill="#515252" d="M330.126-50.062v-12.875h2.047l0.037,1.309c0.561-1.03,1.359-1.546,2.39-1.546
			c0.333,0,0.61,0.056,0.834,0.166l0.012,2.043c-0.294-0.053-0.612-0.08-0.954-0.08c-1.078,0-1.83,0.59-2.258,1.773v9.21H330.126z"
			/>
		<path fill="#515252" d="M337.17-55.691v-1.405c0-1.87,0.455-3.352,1.363-4.442c0.908-1.093,2.108-1.636,3.6-1.636
			c1.49,0,2.691,0.531,3.598,1.593c0.909,1.062,1.375,2.512,1.399,4.344v1.355c0,1.867-0.453,3.342-1.355,4.425
			c-0.906,1.088-2.113,1.633-3.619,1.633c-1.49,0-2.688-0.528-3.586-1.585C337.668-52.463,337.202-53.891,337.17-55.691z
			 M339.276-55.887c0,1.325,0.259,2.369,0.78,3.128c0.518,0.759,1.22,1.136,2.1,1.136c1.856,0,2.812-1.343,2.868-4.026V-57.1
			c0-1.319-0.26-2.363-0.786-3.13c-0.523-0.766-1.226-1.151-2.105-1.151c-0.865,0-1.559,0.386-2.077,1.151
			c-0.521,0.767-0.78,1.807-0.78,3.116V-55.887z"/>
		<path fill="#515252" d="M349.072-50.062v-1.621l5.903-9.458h-5.855v-1.796h8.331v1.536l-5.974,9.542h6.211v1.797H349.072z"/>
		<path fill="#515252" d="M359.695-55.466v-1.559c0-1.919,0.42-3.424,1.258-4.515c0.836-1.093,2.006-1.636,3.509-1.636
			c1.504,0,2.627,0.481,3.373,1.439c0.745,0.958,1.124,2.454,1.141,4.485v1.38h-7.173v0.297c0,1.382,0.258,2.386,0.778,3.01
			c0.515,0.628,1.262,0.94,2.236,0.94c0.619,0,1.162-0.114,1.634-0.35c0.471-0.234,0.912-0.605,1.324-1.112l1.092,1.33
			c-0.908,1.286-2.3,1.93-4.168,1.93c-1.606,0-2.836-0.479-3.694-1.434C360.147-52.216,359.711-53.616,359.695-55.466z
			 M361.814-57.666h5.057v-0.289c-0.055-1.229-0.276-2.107-0.658-2.635c-0.385-0.524-0.97-0.792-1.75-0.792
			c-0.875,0-1.518,0.303-1.938,0.905C362.106-59.872,361.87-58.936,361.814-57.666z"/>
		<path fill="#515252" d="M371.728-50.062v-12.875h1.988l0.059,1.393c0.816-1.087,1.857-1.63,3.129-1.63
			c2.284,0,3.44,1.519,3.473,4.557v8.556h-2.105v-8.461c0-1.008-0.169-1.723-0.505-2.146c-0.337-0.425-0.843-0.639-1.519-0.639
			c-0.523,0-0.991,0.174-1.409,0.523c-0.417,0.349-0.75,0.807-1.004,1.369v9.354L371.728-50.062L371.728-50.062z"/>
		<path fill="#515252" d="M388.187-62.938h2.299l2.379,9.384l2.344-9.384h2.236l-4.212,14.694c-0.318,1.101-0.766,1.942-1.343,2.516
			c-0.581,0.576-1.237,0.863-1.975,0.863c-0.286,0-0.651-0.062-1.096-0.19v-1.774l0.464,0.049c0.612,0,1.088-0.145,1.434-0.433
			c0.344-0.29,0.625-0.794,0.838-1.511l0.415-1.438L388.187-62.938z"/>
		<path fill="#515252" d="M398.933-55.691v-1.405c0-1.87,0.457-3.352,1.364-4.442c0.907-1.093,2.108-1.636,3.598-1.636
			c1.493,0,2.692,0.531,3.602,1.593s1.373,2.512,1.398,4.344v1.355c0,1.867-0.454,3.342-1.357,4.425
			c-0.902,1.088-2.109,1.633-3.617,1.633c-1.491,0-2.687-0.528-3.587-1.585C399.433-52.463,398.964-53.891,398.933-55.691z
			 M401.041-55.887c0,1.325,0.258,2.369,0.778,3.128c0.521,0.759,1.22,1.136,2.1,1.136c1.857,0,2.812-1.343,2.868-4.026V-57.1
			c0-1.319-0.26-2.363-0.784-3.13c-0.522-0.766-1.227-1.151-2.108-1.151c-0.862,0-1.555,0.386-2.075,1.151
			c-0.521,0.767-0.778,1.807-0.778,3.116V-55.887z"/>
		<path fill="#515252" d="M411.344-55.657v-1.426c0-2.008,0.364-3.523,1.094-4.551c0.729-1.028,1.798-1.541,3.201-1.541
			c1.309,0,2.305,0.559,2.987,1.677l0.108-1.439h1.902v12.992c0,1.597-0.408,2.819-1.225,3.673c-0.817,0.85-1.956,1.277-3.416,1.277
			c-0.633,0-1.348-0.156-2.134-0.47c-0.791-0.315-1.384-0.7-1.781-1.161l0.856-1.451c0.872,0.856,1.838,1.284,2.893,1.284
			c1.751,0,2.653-0.957,2.7-2.875v-1.678c-0.683,1.013-1.65,1.521-2.904,1.521c-1.331,0-2.371-0.502-3.117-1.504
			C411.764-52.333,411.375-53.775,411.344-55.657z M413.449-55.889c0,1.442,0.213,2.502,0.638,3.18
			c0.421,0.676,1.12,1.014,2.087,1.014c1.046,0,1.832-0.531,2.355-1.604v-6.428c-0.547-1.055-1.325-1.582-2.332-1.582
			c-0.965,0-1.665,0.341-2.094,1.015c-0.43,0.68-0.647,1.72-0.655,3.12L413.449-55.889L413.449-55.889z"/>
		<path fill="#515252" d="M423.89-50.062v-18.276h2.104v6.721c0.802-1.036,1.826-1.557,3.071-1.557c2.283,0,3.441,1.519,3.475,4.557
			v8.556h-2.108v-8.461c0-1.008-0.167-1.723-0.503-2.146c-0.338-0.425-0.843-0.639-1.516-0.639c-0.525,0-0.996,0.174-1.412,0.523
			c-0.417,0.349-0.751,0.807-1.006,1.369v9.354L423.89-50.062L423.89-50.062z"/>
		<path fill="#515252" d="M435.7-54.55v-8.388h2.106v8.233c0,2.006,0.601,3.009,1.804,3.009c1.272,0,2.151-0.569,2.635-1.711v-9.531
			h2.104v12.875h-1.997l-0.049-1.133c-0.695,0.912-1.713,1.37-3.048,1.37c-1.171,0-2.052-0.403-2.646-1.207
			C436.01-51.838,435.708-53.01,435.7-54.55z"/>
		<path fill="#515252" d="M447.618-50.062v-12.875h2.048l0.036,1.309c0.562-1.03,1.36-1.546,2.389-1.546
			c0.334,0,0.612,0.056,0.835,0.166l0.012,2.043c-0.295-0.053-0.612-0.08-0.954-0.08c-1.078,0-1.828,0.59-2.26,1.773v9.21H447.618z"
			/>
		<path fill="#515252" d="M454.596-61.237v-1.7h1.954v-3.12h2.104v3.12h1.929v1.7h-1.929v7.993c0,0.509,0.084,0.895,0.25,1.157
			c0.166,0.261,0.45,0.392,0.852,0.392c0.277,0,0.556-0.048,0.839-0.143l-0.021,1.775c-0.479,0.157-0.965,0.237-1.467,0.237
			c-0.831,0-1.467-0.298-1.9-0.894c-0.438-0.597-0.655-1.436-0.655-2.521v-7.998h-1.954V-61.237z"/>
		<path fill="#515252" d="M468.155-61.237v-1.7h1.679v-1.484c0.023-1.305,0.354-2.325,0.994-3.058
			c0.637-0.733,1.542-1.098,2.707-1.098c0.418,0,0.844,0.067,1.271,0.2l-0.105,1.775c-0.302-0.073-0.625-0.109-0.964-0.109
			c-1.198,0-1.798,0.853-1.798,2.56v1.214h2.201v1.7h-2.201v11.175h-2.105v-11.175H468.155z"/>
		<path fill="#515252" d="M476.633-50.062v-12.875h2.047l0.034,1.309c0.565-1.03,1.362-1.546,2.392-1.546
			c0.334,0,0.61,0.056,0.832,0.166l0.012,2.043c-0.294-0.053-0.609-0.08-0.95-0.08c-1.078,0-1.833,0.59-2.261,1.773v9.21H476.633z"
			/>
		<path fill="#515252" d="M483.677-55.691v-1.405c0-1.87,0.453-3.352,1.361-4.442c0.909-1.093,2.106-1.636,3.6-1.636
			c1.491,0,2.692,0.531,3.599,1.593s1.377,2.512,1.398,4.344v1.355c0,1.867-0.45,3.342-1.355,4.425
			c-0.906,1.088-2.111,1.633-3.616,1.633c-1.493,0-2.688-0.528-3.589-1.585C484.173-52.463,483.708-53.891,483.677-55.691z
			 M485.781-55.887c0,1.325,0.262,2.369,0.781,3.128c0.52,0.759,1.22,1.136,2.101,1.136c1.854,0,2.811-1.343,2.867-4.026V-57.1
			c0-1.319-0.264-2.363-0.786-3.13c-0.523-0.766-1.227-1.151-2.105-1.151c-0.864,0-1.557,0.386-2.076,1.151
			c-0.521,0.767-0.781,1.807-0.781,3.116V-55.887z"/>
		<path fill="#515252" d="M496.498-50.062v-12.875h1.986l0.047,1.19c0.783-0.951,1.817-1.428,3.098-1.428
			c1.43,0,2.429,0.624,2.999,1.866c0.81-1.242,1.938-1.866,3.381-1.866c2.382,0,3.604,1.479,3.658,4.438v8.675h-2.105v-8.473
			c0-0.937-0.167-1.63-0.5-2.087c-0.336-0.457-0.901-0.687-1.694-0.687c-0.639,0-1.156,0.246-1.553,0.737
			c-0.396,0.493-0.628,1.119-0.689,1.883v8.626h-2.108v-8.567c-0.024-1.787-0.747-2.679-2.173-2.679
			c-1.06,0-1.806,0.531-2.242,1.596v9.65L496.498-50.062L496.498-50.062z"/>
		<path fill="#515252" d="M520.085-55.085h2.177c0,1.071,0.299,1.905,0.897,2.499c0.597,0.596,1.411,0.891,2.44,0.891
			c0.961,0,1.686-0.244,2.169-0.739c0.483-0.49,0.727-1.162,0.727-2.012c0-0.864-0.234-1.527-0.701-1.989
			c-0.469-0.459-1.313-0.908-2.542-1.344c-1.222-0.437-2.155-0.894-2.799-1.374c-0.638-0.48-1.118-1.028-1.438-1.645
			c-0.319-0.614-0.478-1.321-0.478-2.116c0-1.368,0.457-2.496,1.368-3.381c0.915-0.888,2.107-1.331,3.585-1.331
			c1.013,0,1.913,0.227,2.705,0.685c0.791,0.456,1.399,1.087,1.826,1.897c0.428,0.81,0.643,1.699,0.643,2.664h-2.168
			c0-1.073-0.258-1.906-0.773-2.494c-0.517-0.589-1.259-0.885-2.23-0.885c-0.881,0-1.563,0.246-2.047,0.739
			c-0.488,0.491-0.729,1.182-0.729,2.071c0,0.73,0.261,1.343,0.787,1.834c0.522,0.492,1.334,0.933,2.431,1.32
			c1.71,0.564,2.929,1.259,3.652,2.084c0.727,0.827,1.088,1.906,1.088,3.24c0,1.405-0.455,2.533-1.364,3.377
			c-0.908,0.845-2.145,1.268-3.709,1.268c-1.008,0-1.932-0.222-2.779-0.662c-0.853-0.437-1.521-1.058-2.007-1.854
			C520.327-53.142,520.085-54.053,520.085-55.085z"/>
		<path fill="#515252" d="M532.758-61.237v-1.7h1.949v-3.12h2.109v3.12h1.928v1.7h-1.928v7.993c0,0.509,0.084,0.895,0.248,1.157
			c0.163,0.261,0.448,0.392,0.85,0.392c0.277,0,0.557-0.048,0.842-0.143l-0.025,1.775c-0.477,0.157-0.961,0.237-1.463,0.237
			c-0.832,0-1.467-0.298-1.903-0.894c-0.438-0.597-0.656-1.436-0.656-2.521v-7.998h-1.95V-61.237z"/>
		<path fill="#515252" d="M541.057-53.571c0-1.312,0.443-2.352,1.332-3.119c0.892-0.771,2.107-1.162,3.654-1.176h1.547v-1.374
			c0-0.774-0.172-1.323-0.512-1.648c-0.342-0.327-0.861-0.493-1.56-0.493c-0.635,0-1.149,0.192-1.547,0.572
			c-0.396,0.378-0.594,0.857-0.594,1.441h-2.107c0-0.658,0.191-1.286,0.582-1.885c0.39-0.6,0.912-1.07,1.572-1.409
			c0.658-0.342,1.394-0.513,2.199-0.513c1.322,0,2.326,0.324,3.016,0.979c0.687,0.653,1.041,1.605,1.058,2.858v6.5
			c0.006,0.992,0.133,1.853,0.379,2.582v0.192h-2.178c-0.128-0.279-0.22-0.748-0.273-1.406c-0.746,1.095-1.697,1.644-2.854,1.644
			c-1.168,0-2.077-0.328-2.731-0.98C541.385-51.461,541.057-52.384,541.057-53.571z M543.164-53.823c0,0.73,0.145,1.258,0.439,1.588
			c0.294,0.33,0.791,0.492,1.485,0.492c0.517,0,1.008-0.141,1.476-0.427c0.469-0.284,0.811-0.643,1.024-1.069v-3.072h-1.19
			c-0.998,0.017-1.787,0.243-2.365,0.675C543.455-55.206,543.164-54.601,543.164-53.823z"/>
		<path fill="#515252" d="M553.021-50.062v-12.875h2.045l0.036,1.309c0.562-1.03,1.361-1.546,2.394-1.546
			c0.332,0,0.606,0.056,0.832,0.166l0.01,2.043c-0.293-0.053-0.609-0.08-0.951-0.08c-1.078,0-1.83,0.59-2.26,1.773v9.21H553.021z"/>
		<path fill="#515252" d="M560.65-50.062v-18.276h2.104v6.818c0.689-1.104,1.678-1.654,2.967-1.654c1.416,0,2.478,0.5,3.185,1.498
			c0.707,0.999,1.063,2.507,1.072,4.521v1.272c0,2.008-0.363,3.519-1.087,4.533c-0.723,1.017-1.77,1.524-3.145,1.524
			c-1.365,0-2.391-0.592-3.072-1.772l-0.121,1.535L560.65-50.062L560.65-50.062z M562.756-53.43
			c0.523,1.159,1.338,1.734,2.445,1.734c0.949,0,1.633-0.331,2.043-0.995c0.41-0.669,0.621-1.7,0.629-3.104v-1.296
			c0-1.521-0.213-2.603-0.635-3.251c-0.424-0.643-1.111-0.968-2.06-0.968c-1.086,0-1.893,0.587-2.424,1.76L562.756-53.43
			L562.756-53.43z"/>
		<path fill="#515252" d="M572.828-54.55v-8.388h2.104v8.233c0,2.006,0.603,3.009,1.806,3.009c1.272,0,2.151-0.569,2.631-1.711
			v-9.531h2.106v12.875h-2l-0.045-1.133c-0.696,0.912-1.713,1.37-3.049,1.37c-1.17,0-2.053-0.403-2.647-1.207
			C573.137-51.838,572.836-53.01,572.828-54.55z"/>
		<path fill="#515252" d="M584.359-55.812v-1.416c0-1.941,0.416-3.418,1.25-4.43c0.832-1.012,2.047-1.517,3.643-1.517
			c1.311,0,2.355,0.418,3.125,1.249c0.771,0.831,1.18,1.971,1.227,3.415h-1.975c-0.047-0.956-0.275-1.673-0.682-2.151
			c-0.408-0.479-0.978-0.72-1.695-0.72c-0.936,0-1.631,0.311-2.084,0.926c-0.453,0.616-0.688,1.628-0.701,3.034v1.643
			c0,1.517,0.224,2.588,0.672,3.214c0.447,0.629,1.156,0.942,2.123,0.942c0.697,0,1.258-0.215,1.681-0.647
			c0.418-0.433,0.647-1.047,0.688-1.85h1.976c-0.048,1.235-0.482,2.263-1.312,3.075c-0.826,0.812-1.834,1.22-3.031,1.22
			c-1.592,0-2.811-0.502-3.645-1.504C584.779-52.333,584.359-53.826,584.359-55.812z"/>
		<path fill="#515252" d="M596.26-50.062v-18.276h2.105v10.935l4.01-5.533h2.521l-4.093,5.377l4.627,7.498h-2.448l-3.498-5.892
			l-1.119,1.285v4.606H596.26z"/>
		<path fill="#515252" d="M606.729-53.907h2.107c0.023,0.716,0.24,1.272,0.652,1.679c0.414,0.402,0.987,0.605,1.731,0.605
			c0.699,0,1.229-0.156,1.59-0.47c0.365-0.313,0.548-0.737,0.548-1.269c0-0.454-0.168-0.843-0.511-1.168
			c-0.34-0.325-0.996-0.707-1.969-1.144c-1.133-0.469-1.93-0.868-2.397-1.202c-0.468-0.335-0.816-0.715-1.048-1.14
			c-0.231-0.426-0.348-0.929-0.348-1.519c0-1.044,0.385-1.911,1.152-2.605c0.768-0.691,1.743-1.036,2.938-1.036
			c1.25,0,2.256,0.365,3.019,1.092c0.76,0.732,1.141,1.666,1.141,2.811h-2.096c0-0.584-0.193-1.081-0.582-1.489
			c-0.388-0.413-0.881-0.62-1.482-0.62c-0.617,0-1.102,0.164-1.451,0.486c-0.354,0.322-0.528,0.751-0.528,1.291
			c0,0.428,0.127,0.776,0.385,1.039c0.256,0.262,0.875,0.606,1.856,1.034c1.56,0.612,2.621,1.21,3.183,1.794
			c0.563,0.584,0.846,1.323,0.846,2.22c0,1.119-0.385,2.015-1.149,2.686c-0.771,0.67-1.8,1.007-3.093,1.007
			c-1.334,0-2.416-0.385-3.246-1.154C607.146-51.748,606.729-52.726,606.729-53.907z"/>
		<path fill="#515252" d="M618.375-51.17c0-0.367,0.115-0.675,0.342-0.917c0.226-0.246,0.564-0.367,1.019-0.367
			s0.795,0.121,1.026,0.367c0.234,0.242,0.353,0.55,0.353,0.917c0,0.351-0.117,0.646-0.353,0.882
			c-0.231,0.236-0.574,0.354-1.026,0.354c-0.453,0-0.793-0.118-1.019-0.354C618.49-50.523,618.375-50.819,618.375-51.17z"/>
		<path fill="#515252" d="M624.564-51.17c0-0.367,0.11-0.675,0.338-0.917c0.227-0.246,0.567-0.367,1.018-0.367
			c0.453,0,0.797,0.121,1.031,0.367c0.231,0.242,0.348,0.55,0.348,0.917c0,0.351-0.115,0.646-0.348,0.882
			c-0.234,0.236-0.578,0.354-1.031,0.354c-0.449,0-0.791-0.118-1.018-0.354C624.676-50.523,624.564-50.819,624.564-51.17z"/>
		<path fill="#515252" d="M630.75-51.17c0-0.367,0.113-0.675,0.34-0.917c0.228-0.246,0.564-0.367,1.017-0.367
			s0.799,0.121,1.03,0.367c0.232,0.242,0.351,0.55,0.351,0.917c0,0.351-0.117,0.646-0.351,0.882
			c-0.231,0.236-0.578,0.354-1.03,0.354c-0.451,0-0.789-0.118-1.017-0.354C630.863-50.523,630.75-50.819,630.75-51.17z"/>
	</g>
</g>
</svg>
