<?xml version="1.0" encoding="utf-8"?>
<!-- Generator: Adobe Illustrator 16.0.0, SVG Export Plug-In . SVG Version: 6.00 Build 0)  -->
<!DOCTYPE svg PUBLIC "-//W3C//DTD SVG 1.1//EN" "http://www.w3.org/Graphics/SVG/1.1/DTD/svg11.dtd">
<svg version="1.1" id="Layer_1" xmlns="http://www.w3.org/2000/svg" xmlns:xlink="http://www.w3.org/1999/xlink" x="0px" y="0px"
	 width="40px" height="40px" viewBox="10 4 40 40" enable-background="new 10 4 40 40" xml:space="preserve">
<g opacity="0.6">
	<path fill="#2D2225" d="M30,8.5c-8.546,0-15.5,6.954-15.5,15.5c0,8.547,6.954,15.5,15.5,15.5c8.547,0,15.5-6.953,15.5-15.5
		C45.5,15.454,38.547,8.5,30,8.5z M37.104,24.027l-7.319,6.604l-0.015-0.017l-0.008,0.005l-0.344-0.423l-0.535-0.632l0.013-0.012
		l-0.013-0.013l5.465-4.835H22.896v-1.502h11.312l-5.324-4.688l0.04-0.05l-0.04-0.034l0.902-1.061l7.318,6.634V24.027z"/>
</g>
</svg>
