<?xml version="1.0" encoding="utf-8"?>
<!-- Generator: Adobe Illustrator 16.0.0, SVG Export Plug-In . SVG Version: 6.00 Build 0)  -->
<!DOCTYPE svg PUBLIC "-//W3C//DTD SVG 1.1//EN" "http://www.w3.org/Graphics/SVG/1.1/DTD/svg11.dtd">
<svg version="1.1" id="Layer_1" xmlns="http://www.w3.org/2000/svg" xmlns:xlink="http://www.w3.org/1999/xlink" x="0px" y="0px"
	 width="40px" height="40px" viewBox="0 0 40 40" enable-background="new 0 0 40 40" xml:space="preserve">
<g opacity="0.6">
	<path fill="#2D2225" d="M20,35.5c8.546,0,15.5-6.954,15.5-15.5c0-8.547-6.954-15.5-15.5-15.5C11.453,4.5,4.5,11.453,4.5,20
		C4.5,28.546,11.453,35.5,20,35.5z M12.896,19.973l7.318-6.604l0.016,0.017l0.008-0.005l0.344,0.424l0.535,0.631l-0.014,0.013
		l0.014,0.013l-5.465,4.835h11.451v1.502H15.792l5.324,4.688l-0.04,0.05l0.04,0.034l-0.902,1.061l-7.317-6.634V19.973z"/>
</g>
</svg>
