<svg xmlns="http://www.w3.org/2000/svg" width="650" height="650" viewBox="-924.5 475.5 650 650"><path d="M-437.495 562.71l-1.278-.642-1.92-.64-3.2-3.2c-2.562-1.92-4.48-3.2-7.04-4.48h-1.282l-2.562-1.92-.64-.64c-58.88-34.562-128.64-48-195.84-36.48-60.8 10.88-117.76 42.24-160 87.68-.64.642-.64 1.28-1.28 1.28l.64-.643 4.48-3.84h1.28v1.28l.64-.64v.64l-.64.64 1.92-1.277 1.28-1.28 1.92-1.92 1.92-2.562 3.2-3.2 1.278-.64 1.28-.64.644.64 1.28-.64h1.28l-1.92 1.92-1.28.64-1.92 1.28-.64 1.278-1.28 1.28.64-.642-3.2 1.92-1.92 1.92-1.28 1.28-.64 1.92-1.28 1.28 1.28.64 1.28-.64-.64 2.56-1.28 1.28 1.28-.64h4.478v1.278l-.64 1.28.64 1.28 1.92-1.28h2.56l3.2-3.2 2.56-2.56 2.56-1.92 2.563-.643-1.92 3.2 1.28.64c1.92-1.278 3.2-3.198 4.48-3.84h-.64l.64-1.92 1.92-1.92h1.28l1.92.642.64 1.274 1.28.643 3.2-1.28.64-2.56-2.56-1.282h-3.2l-1.92-1.28 1.28-1.92.64-1.92 3.2-3.2 3.198-3.2 2.56-1.276 3.2-1.28 5.76-1.92h1.28l1.92-1.28.64-2.56-2.56-.644-3.2 1.28-2.56 1.92c-3.2.64-5.76 1.92-8.96 2.56l-6.4 5.118-2.56 3.2-1.28 2.562-4.48 3.2h-1.92l-9.6 7.68-.64-1.28-1.92 1.28-.64-1.28c4.48-4.478 8.96-9.6 14.08-14.72l-3.84.64h-1.28l1.92-3.2c3.84-3.196 8.32-7.038 12.8-9.6l2.56-1.28h3.2l3.84-1.277c4.48-1.923 9.6-3.2 14.72-5.763 3.2-.64 7.04-1.276 10.24-2.56h3.2l1.28 1.28 4.48-1.28 1.28 1.28 2.56.64v3.2h-3.2l-1.28 2.56 2.56-.64-.64 3.2 2.563 2.56 1.28 5.12-1.28 1.28-2.562 2.56-3.2 1.92h-3.2c-1.28-1.28-2.56-3.2-3.2-5.12h-1.28l-.64 3.2-4.48 3.84.643 1.92v1.28l1.92-1.28.64-1.92 2.56-.64 1.92 3.2h2.56l1.28-3.2 7.04-1.92 1.28.64.64 1.92 3.2-1.92.64-2.56 3.2-1.92.64-2.56 3.2 2.56-.64 1.92h-2.56l-1.92 1.92.64 1.92h3.2l2.56-1.92c4.48-.642 8.96-1.28 14.08-1.28l1.28.64-3.2 1.923 2.56 1.28 3.2.642 3.84-.642.64 2.563 3.84-1.92-1.278-3.2 1.92-.64 5.12 2.56 2.56 1.92 5.76 5.12 2.56-1.92-1.28-2.562.64-.64-1.92-.64 1.92-1.28.64-3.2.64-1.28 5.76-2.56 3.2-2.56 1.92-.64 5.12 1.92-1.28 2.56-3.2 1.92.64 1.28-.64 2.56-3.2 4.48 1.92 2.56-2.56 2.56-7.68 3.84h3.2l1.92-1.276 3.2-.643 1.28-1.92 3.2-1.276-.64-2.562 2.56-2.56h-2.56l.64-1.92 3.2-3.2-1.92-3.2 5.12-1.92.64-2.56h1.28l.64 1.92-2.56 3.2 2.56.642v-2.56l3.84-1.278h4.48l3.2 2.56-.64-.64 1.28-3.2 3.84-.642 5.12.64h5.12l-1.28-1.92 3.2-1.92h2.56l4.48-1.278h5.76l.64-.64h5.76l1.92.64 4.48-1.92h3.84l.64-1.28 1.92-1.28 4.48-1.92 3.2.643-2.56 1.276h4.477l1.28 1.28 1.92-.64 5.76-.643 5.12 1.28 2.56 1.28v1.92l-3.2 1.92-4.478 2.56h-1.28c2.56 0 3.84.64 6.4.64l1.92-.64 1.92 1.92.64-1.28 3.2-.64h7.04l1.28 1.28 8.96-.64-1.28-2.56h4.48l3.2-.643 3.84 1.28 2.56 1.92v1.92l3.84 1.92 3.84.64-.64-3.2 3.84.642 2.56-1.28h3.84l.643-1.28h3.2l-4.48-2.56 1.28-1.92c5.76-.64 5.76-.64 15.36-2.562l3.196 1.28 6.4.642 4.48-3.2 3.197-.643 2.562.642 2.56 2.56h2.56l.64-1.28 1.92-1.277 2.56-.643 1.28-1.92 4.48 1.28-.642-1.92-3.198-1.28-1.28-1.277 3.2-1.28 1.278-1.92 3.2-.642h2.562c3.198 1.92 5.12 3.2 8.317 5.12-2.56-1.92-5.12-3.197-8.317-5.12h3.198l3.84.643 2.562 1.92-3.2-1.92.64-1.92 3.202.64 1.92 1.92.64 1.92 5.12 3.2.64.64v1.92h-2.557l-1.92-1.276-.643 1.277v1.28l-1.278-.64-1.28-1.28.64 1.92 1.92 1.28 1.28 1.28c-2.56-1.28-3.84-3.2-6.398-3.843 2.56 1.28 3.84 3.2 6.398 4.48l1.28 1.92-.642.64 2.562.643 3.2 1.92 1.277.64 1.92 1.28 1.28 1.28h-1.92l1.28 4.48v1.28l1.278 3.198 1.278 3.2 1.28 1.92-3.84-2.56v4.48h-2.563l.642 2.56-2.562.64 1.92 2.562 1.92 3.84 1.28 1.28h2.562l4.48 5.12-1.28 1.278 1.92 3.2 1.92 1.28-1.278 1.92 3.2 4.48-1.92 2.56 2.56 3.84v4.48l-2.56-2.56c-3.843-3.84-8.32-8.96-12.16-12.8l-3.2-5.12-.64-3.2-1.28-1.92 1.92-1.92c-.64-3.2-1.92-7.04-2.562-10.24l-1.277-3.84-3.2-4.48-1.28 1.28 2.562 3.2v5.12l-5.12-3.2-3.2 3.2 1.28 7.68 3.2 1.92-3.2 2.562-2.563 1.28-1.92-2.563-3.2.64-1.278 2.56-7.04-.64-6.4 3.198-3.2 8.96-3.84 11.522 4.48-.643 3.196 2.563h3.2l.64-2.564 3.2-.64 6.4 3.2 2.56 3.2v4.477l2.562 4.48 2.56 7.04-1.28 7.04.64 3.197c-1.92 4.48-3.2 9.604-4.477 14.724l-4.48 3.198-2.56.642-3.2-1.92-3.2 3.84v1.28h-1.28l-2.56 1.28v1.92l1.28 3.197-1.92 1.28.64.64-1.28 1.92-1.92 1.28-1.28 1.28.643 1.92v.64l1.922.644 1.92 1.92 4.48 4.48 1.92 3.2 1.92 5.12-1.28 1.28-3.2 1.277-2.56 2.56-3.2 1.28-1.28-2.562v-3.197l-3.2-4.48 2.563-1.28-3.198-3.2-2.56-.64v1.28h-.643l-.643-.64h-1.28l-.64-1.28.64-2.562.642-.64-.64-.64v-2.56h-3.205l-2.56-1.28-4.48 1.92-2.56 2.56-3.84 1.28 1.92-2.56-1.28-1.92 2.56-3.2-2.56-2.56-3.2 1.92-3.2 3.197-1.92 3.2-3.84.642-1.92 2.56 3.2 3.2 3.2.64.64 1.92 3.2 1.28 3.2-3.2 3.84 1.28h2.56l1.28 2.56-4.48.642-1.277 3.2-3.2 3.2-1.92 2.56 4.48 2.562 2.562 3.84 3.2 3.84 3.84 3.2.64 3.2-1.92 1.92 1.28 2.56 3.2 1.28v3.84l-.643 3.84-2.56.64c-1.92 3.84-3.2 8.32-5.12 12.16l-3.2 6.4c-3.2 3.2-7.68 6.4-11.52 9.6l-4.48.643-3.2 2.56-1.92-1.278-2.56 2.562-6.4 3.198-5.12 1.28-1.28 5.12-3.198.64-1.92-3.2 1.28-1.92-6.4-1.278-2.563 1.28-4.48 2.56-3.84 4.48-1.28 3.198c3.2 3.2 5.763 7.682 8.96 10.88l4.48 3.2 3.2 3.84 2.563 8.96-.64 8.96-3.84 3.2-6.4 3.2-3.84 3.84-6.4 4.48-1.92-3.2 1.277-3.2-3.84-3.2-4.48.642-2.56-2.562-3.2-5.12-3.2-1.278h-3.84l.64-3.84h-4.48l-.64 5.118c-1.92 3.842-3.2 7.682-4.478 11.52l.64 3.2h3.2l2.56 4.48 1.28 3.84 3.2 3.2 3.2 1.28 3.2 2.56 1.28.642 3.2 3.198 2.56 3.2v3.2l-.64 2.56.64 1.92.64 3.2 1.92 1.28 1.92 3.84v1.92l-5.12-.64-4.48-3.2-5.76-3.2-.64-2.56-3.2-3.2-1.92-5.76-1.92-3.2.64-3.2-1.28-2.56-2.56-1.92-1.28-2.563c-1.92-1.92-3.2-3.198-5.12-5.12v4.48l-1.28-3.2.64-3.2 1.92-4.48-.64-3.2 1.92-3.198-1.92-3.2.64-5.12-2.56-2.562-1.92-5.76-1.28-6.4-1.92-4.478-3.2 2.56-5.12 3.84-3.2-.64-3.2-1.28 1.92-5.76-1.28-4.48-3.84-5.762.64-1.92-3.2-.64-3.2-3.84-1.28-2.563v-2.56l-1.277-2.563-2.56-3.198-4.48-.644.64 1.92-1.92 3.2-2.56-1.28-.64.643h-3.202l-.64 1.92h-3.2l-6.4.64v3.2l-3.2 3.2-7.68 3.2-5.76 5.12-3.84 3.197-5.12 3.2v2.56l-2.56 1.278-3.84-.64h-2.56l-1.92 3.2.64 6.4v3.84l-2.56 4.48v8.32H-689l-2.562 3.84 1.92 1.92-5.12.64-.64 3.84-1.92 1.28-4.48-5.12c-1.28-3.84-2.56-8.318-3.2-12.16l-1.92-2.56-2.56-5.12c-.64-3.2-.64-6.4-1.92-8.96l-3.84-7.04c-.64-5.12-1.28-10.24-1.92-16l.64-5.76-.64-4.48-6.4 1.92-3.2-1.278-5.12-6.4 2.56-1.92-.64-1.92-3.84-5.12-3.2-1.92-.64-2.56-3.2-4.48h-7.04l-6.4-1.277-5.76-.642-7.04-3.198-3.84-1.28-3.84-1.92v-5.76l-1.92-1.28h-3.2l-3.84 1.28-3.84-2.562-2.56-3.2-3.2-2.56-1.28-5.12-.64-7.04h-1.92l-1.92-2.56-1.92 1.278h-.64V745.1l1.28 1.92v1.92l1.92 2.56-.64 1.92-.642 1.92v1.92l.64 1.92v3.2l.64-3.2 1.92-2.56h1.28l.64 1.92-.64 3.2-1.92-.64v1.92h.64v1.28h3.2c1.92.64 3.2 1.277 4.48 1.92l3.2-3.2c2.56-1.92 3.84-3.2 6.4-4.48l1.28-1.28.64.643-.64 1.92h-.64l-.64 3.84 1.28 3.2 1.92 2.56 2.56 1.28 2.56 1.28c.64 1.92 1.28 3.2 1.92 4.48l1.28 1.28v1.278c-1.28 1.28-1.92 2.56-3.2 3.84l-1.92 1.28-3.2 1.92-1.92-.64-.64 1.28-1.28 2.56v3.2l-.64.64c-.64 0-1.28 0-1.92-.64l-2.56 1.28-.642 2.56-1.28.642-2.56-.642-1.92 1.28v1.92h-.64l-1.92-1.28-2.56 1.28h-1.92l-3.2.642-1.28 1.92-.64 1.92-3.2 1.92h-4.48l-3.2 2.562h-1.92l-1.28-.64-2.56 1.278-2.56.64-3.2-.64h-.64l-.64 1.28v1.278l-1.92-.64-1.28.64-2.56-1.28v-3.2l.64-3.197-.64-1.92v-3.842l-.642-2.56h.64v-2.56l.64-.64v-5.124l-.64-1.28v-1.92l-.64-.64v-8.32l-1.92-3.84-1.28-1.28-.64-5.12.64-3.2.64-3.2v-5.76l-.64-2.56-1.28-1.28v-3.2l.64-1.278v-2.56l-.64-1.28v-3.842c0-3.2 0-5.12-.64-8.318l-1.28-.64 1.92-1.92.64-1.92 1.28-1.922v-.64l-1.28 1.92-1.92 3.198-.64 2.56-.64.643c0-1.28-.64-3.2-.64-3.84l1.28-7.04-.64.64-1.28 5.12c0 4.48-.64 8.96-1.28 13.44v5.76l.64 5.76-.64.643-.64 3.198 1.92 5.12v1.28l-.64 5.12-.64.64-.64 3.84v5.76c0 1.923.64 3.2 1.278 3.843l.64 6.4v4.48l1.28 3.2 3.2 5.76c1.28 3.2 2.56 5.76 3.2 8.96l1.28 1.92 1.28 2.56v1.92l-1.92-.64c.64 1.28 1.28 2.56 2.56 3.2l.64 2.56 1.28 2.563 1.92.64h3.2l3.2.64 3.2-.64h1.92l1.28-.64c1.28 0 1.92.64 3.2.64l1.92-.64h1.92l1.92-1.28 1.28.64v1.28l-.64 3.2v2.56l-1.92 1.92-1.28 5.12c-2.56 5.76-4.48 11.52-7.04 16.64-2.56 3.2-3.84 7.04-6.4 9.602l-5.76 1.28-4.48 3.198-1.92 3.2-3.2 4.48-.64 2.56-.64.642-1.92 1.278v1.28h-1.28v3.2l-.64 1.92v3.2l-.64 1.277-.64 5.12.64 3.2 1.92 2.56.64 1.28v.64l.64 1.28v2.563c1.28 2.56 2.562 5.118 3.2 8.317l1.28 1.28 1.28 2.56 1.28 3.842c1.28 3.198 2.56 7.04 3.2 10.238l1.28 2.56v5.76l-.642 1.92c-1.28.642-2.56 1.28-3.2 1.28l-1.92 1.28v.64l-.64 2.56-.64.642 1.28 3.2c1.28 1.92 3.2 3.84 3.84 5.76l.64 1.28h.64l1.92 3.198.64 1.92.64 1.28.642 1.28v1.28l-1.92-1.922-1.92.64v1.28l1.28 1.92.64.642c.64 1.28 1.28 3.2 2.56 3.84l1.92 3.2.64 1.28v1.277l.64 1.28.64 1.92.64 1.92c.642 1.28.642 2.562 1.28 3.84 56.96 65.922 142.72 102.4 229.76 99.2h1.92c108.803-5.12 207.36-73.6 250.88-173.438 47.36-108.8 20.48-240-65.278-321.925-12.17-11.497-23.687-21.738-36.49-30.057zm-219.52 5.76c-4.48 0-8.96.64-14.08.64l-7.68 1.922c-3.2 1.92-7.04 3.2-10.24 4.48l-1.92 2.56 1.28 3.2h-1.28l-5.76-1.92.64-1.28-2.56-1.92 1.28-1.92h2.56l1.92-1.92 5.76-1.92-1.28-.64 6.4-1.92.64-1.28c3.84-.64 8.32-1.28 12.16-1.28l5.76.642 3.84-.643h3.2l.64 1.28-1.28 1.92zm-139.52 410.24l-1.92.64c-1.92-1.28-3.2-2.56-4.48-3.2l-1.92-2.56-1.92-3.2-3.2-3.2-1.92-3.197-.64-2.562h1.28l-.64-1.28v-2.56l-.64-3.2v-1.28l-1.92-3.194-1.92-3.2v-1.92l-.64-2.562 1.278.643 1.28-.643 1.28-.64 1.28.64 1.28-1.92 1.92-1.92.64-1.92-1.28-1.92 1.92 1.28 1.28-2.562-.64-2.56.64-1.92c1.28 1.28 1.92 3.2 3.2 3.84l1.92 3.2 1.92 5.12 1.28 2.56v4.48l-1.92-3.2v1.28l1.92 3.2v1.92l-.64.64 1.28 3.2 1.92 15.358c.64 3.2 1.28 5.76 1.92 8.96l-3.198-.637zm119.04-112l-2.56 1.92-4.48.64-1.92-3.84-.64-7.04 2.56-7.68 3.2 3.2 2.56 3.197 2.56 5.12-1.28 4.483zm245.76-194.56l3.2.642 2.56.64 1.282-2.56 3.198 4.478-4.48 2.562-.64 4.48-5.76-1.92.64 5.12-3.198 1.278-2.562-3.84v-3.2l3.2-1.28-1.92-5.76-.642-3.84 5.123 3.2zm-19.84-28.16l-3.198-5.12 1.278-2.563-2.56-1.92.64-.64c1.92 1.92 3.2 3.84 5.12 5.76l2.56 3.84c3.2 3.2 6.4 7.04 9.603 9.602h-4.48l1.92 6.395 4.48 3.2 1.28 3.2-3.2-1.92v3.198l-2.56-3.198-1.923-3.84-1.92-5.12-1.28-2.563-3.197-5.12-2.563-3.194zm-3.84 84.48l1.28-3.2 3.2-3.197 1.92-3.2 6.397-3.2h3.84l1.28-8.96 3.2 1.92c1.92-2.56 3.2-5.12 3.84-7.68v-5.763l-2.56-4.48v-3.2l3.198-1.92 3.84 5.76 1.28 3.2-1.28 5.12 1.922 4.48v3.842l1.28 2.56-1.28 4.48-3.2 3.198-5.76 1.92-3.2 6.4-3.2-1.28-1.28-3.2-5.76 2.562-3.2 3.2-3.84.64 4.48 3.2-.642 8.32-1.92 2.56-2.56-1.92v-3.84l-3.2-1.28-1.92-3.2 3.845-3.842zm7.68 165.12l-1.277.64-1.28-2.56-1.28-5.76 1.28-3.842 1.92-1.92v2.56h2.562l.64 1.92-.64 3.84h-2.562l-.64 3.2 1.278 1.922zm-1.92 9.6l5.12-1.278 4.48.64 1.278 3.2-3.198-1.28h-3.2l-2.562.64-3.2.643 1.283-2.566zm-24.96 15.36l-1.92-1.28 2.56-3.84-4.478 2.562-.64-1.28.64-1.92-3.2-2.562.643-4.48-3.2 1.92c0 3.84 0 7.68-.64 11.52l-2.563 1.28-.64-1.28 1.92-3.84-.64-3.84h-1.92l-1.282-3.2 2.562-3.2.64-3.196 3.2-7.683 1.28-2.56 3.84-3.84 3.2 1.28h5.76l5.12-.64 4.48-3.84.64 1.278-3.2 5.12-4.478.642-3.844-.644-7.68 1.28-3.84 1.28-1.28 3.84 3.84 3.2 2.56-2.562 8.32-2.56-.642 2.56-1.92-.64-2.562 3.2-3.84 2.56 3.84 5.12-1.278 1.92 3.2 4.48-.64 3.198-1.92.65zm0 10.88l-.64 2.562-6.4 1.92h-5.76v-1.92l3.2-1.28 3.2 1.28 3.197-.643 3.203-1.92zm2.56 7.04l2.56-3.2 4.48-2.56.64-1.28 3.84-1.92 3.2-.64 1.28-.643 1.92.643-1.92 1.277c-3.2 1.92-5.12 3.2-8.32 3.842l-3.2 3.195-3.84 1.28-.64.003zm16-75.52l-1.92-4.48-1.92 3.2 1.278 3.2-1.28 2.56-5.12-2.56-1.278-3.2 1.28-2.562-3.2-1.92-.642 2.562h-2.56l-3.2 3.2-.64-1.28 1.92-4.48 3.2-1.92 2.56-2.56 1.92 1.92 3.2-1.92.64-2.562 3.2-.64-1.278-3.2 3.198 1.92c.642 3.2 1.28 7.04 1.92 9.603l-1.278 5.12zm-9.6-22.4v4.48l-1.92 1.92-1.278 3.84-1.28 1.92-3.2-3.2c.642-1.28 1.28-1.92 1.92-3.2l.642-3.198 2.56-.64-.64 3.84 3.194-5.762zm4.48-7.68l1.28 1.92 1.92 5.12-3.2-.643v1.92l1.28 3.2-2.562 1.28v-3.2h-1.28l-.64-3.2h1.92v-1.92l-2.56-3.84 3.842-.637zm-23.04-13.44v-7.68l1.28-4.48 3.197-.64 3.2 1.28 1.28-1.28v1.28l-.642 2.56 1.92 3.2-.64 3.84-3.2 1.28-.64 3.84 1.28 3.84h2.56l1.92-.64 5.76 1.92v3.2l1.92 1.277-.64 2.562-3.2-1.92-1.92-2.565-1.278 1.92-3.2-2.56-3.84.64-2.562-.64v-2.56l1.28-1.28-1.28-.64-.64 1.92-2.563-2.563-.64-2.56-.64-4.48 1.928 1.926zm-10.24 35.2l3.2-3.2 3.2-3.2 2.56-5.12 1.28 3.843-3.2 3.197-2.56 2.562-6.4 5.12 1.92-3.202zm-41.6 40.32l3.2-3.843 3.198 1.28 3.84-1.28 1.28-3.84 2.562-1.278 5.76-1.925 3.2-3.84 2.56-3.2 1.92-1.92 3.842-3.197 3.198-3.2 2.562-3.84h1.92l2.56 2.56v2.56c2.562.642 4.48 1.922 7.04 2.562l-.64 1.92-3.2.64.64 2.562-3.84.64-3.2 4.48 3.2 3.84v2.56l5.12 3.84-5.76 1.28-1.92 3.2v3.84l-3.2 3.2-.64 5.12-1.92 7.04-.643-1.92-5.12 2.56-1.92-2.56h-3.2l-2.56-1.28-5.76 2.56-1.92-2.56-2.563.64h-3.84l-.64-6.397-2.56-1.28-2.56-3.84-.64-3.2.647-4.488zm44.8 41.6l-5.12 1.28-3.2 1.277h-2.56l1.92-3.197h2.56l1.28-1.92 1.92 1.277 3.2-.64v1.923zm-71.04-10.88l-6.4-3.2-2.56-3.2-3.84-3.2-2.562-3.84-3.84-6.397-4.48-3.84-1.92-4.48-1.92-3.2-4.48-3.2-1.92-3.84-3.84-2.56-5.12-5.12-.64-2.562c3.84 0 7.68.646 11.52 1.28l4.48 4.48 3.84 3.2 3.2 1.92 4.48 5.12h5.12l3.84 3.2 3.198 3.84 3.844 1.923-2.56 3.84 3.198 1.92h1.92l.643 3.2 1.92 2.56h3.2l2.56 3.2-1.28 5.76v7.04l-5.76-.64-3.837-3.2zm26.88 10.24h-3.2l-2.56.64-8.96-1.92-.64-1.92h-4.48l3.2-3.84h6.398l3.84 1.92h1.922l.64 1.92h8.96l1.28-1.92 8.96 1.92 1.92 3.2h7.04l5.12 2.56-5.12 2.562-5.12-1.28-3.84-1.28h-4.48l-4.48-.64-6.4-1.922zm95.36 97.28l-1.92 1.28-2.562 2.56v-.64l-3.2 1.92h-.64l-1.28.642.642-1.92 1.278-1.92.643-1.923 1.277-1.28h2.56c1.278-.643 2.56-1.28 3.84-1.92h1.28l-1.918 3.2zm48-54.4l-1.28 2.56-1.278 2.562-1.28 2.56-1.92 3.2c-1.28 1.92-3.2 3.2-3.84 5.12l-1.28 1.92c-1.92 2.56-3.2 3.84-5.12 5.76l-3.2 2.562c-2.56 2.56-4.48 5.118-7.68 7.68h-1.28c-1.92 1.92-3.2 3.2-4.478 4.48l-.644 1.278-1.92 1.92-3.2 1.28-3.2 1.92c-1.92 1.28-3.2 2.56-4.48 3.2l-.64-1.28h-1.28l1.92-1.92-1.92 1.28-3.84 3.198h-5.757v-1.92l1.28-2.56.64-1.28-.64-.64h-2.564l1.922-1.92.64-2.563-3.2 2.562-3.2 1.275 3.2-1.92 1.92-1.92 2.56-1.92 1.28-2.56-3.84 3.198-2.56 1.278-3.2 3.2-3.2-.64 1.28-1.92-.643-1.92-1.28-.642 1.28-.64-3.2-1.28h-2.56l-2.56-1.28-6.4 1.28c-3.2 1.28-6.398 2.56-8.96 3.2l-3.2.64-4.48 2.56-3.2 1.28-1.278 1.92-1.92 1.28-1.92 1.28-2.56.64h-3.2c-1.92.64-3.2.64-5.12 1.28l-3.2 1.92h-1.28c-1.28.64-3.2 1.28-3.84 2.56-1.92 0-3.2 0-5.12.64l-3.2-1.92-1.28-.64.64-1.92 1.92-.643.643-.64v-1.28l1.28-2.56v-1.922l-1.28-3.198v-1.92l.64-1.922-1.277-1.92v.642l-2.562-1.28v-6.402l1.92 1.28-1.92-3.2 1.92.643 1.28 1.278.64-1.92-1.92-2.56v-.642l-.64-1.28.64-2.56 1.28-1.28 1.28-1.92v-2.56l2.56-3.2v3.2l2.56-3.2 3.2-1.92 2.563-1.92 3.2-1.92 1.92-.64 1.28.64 3.198-1.92 3.2-.64.64-1.28 1.28-.642h2.56l4.48-1.92 3.2-1.92 1.92-2.562 3.2-2.56c.64-1.28.64-2.563 1.277-3.2l3.202-3.2 1.28 3.2 1.92-1.28-1.28-1.92 1.92-2.562 1.92.642 1.28-3.2 3.2-2.56 1.28-1.922 2.56-1.278v-1.28h1.92v-1.28c1.28-.64 3.2-1.278 3.84-1.92l3.2 1.28 1.92 2.56 2.56-.64h2.56l-.64-2.56 2.56-3.2 1.922-1.28-.642-1.28 2.562-3.198 3.2-1.92h1.92l3.198-1.28.64-2.56-2.56-.642 2.56-1.28 2.563.642 1.92 1.278 3.2.642 1.28 2.56 2.56.643 2.56-1.92h1.28l1.28-1.28 1.278 1.92-1.92 2.56-8.317 5.763-1.28.64v1.92c-1.28 1.92-2.56 3.2-3.2 4.48v1.278l2.563 1.92 2.56.642 1.28 1.278 1.92 1.92h1.28l1.92.642v1.28l3.2.64 3.196-1.92c.642-1.28 1.92-3.2 2.562-3.84l1.278-2.562 1.92-3.2v-1.92l.64-1.278v-2.562l1.28-3.2.64-1.278v-1.28c1.28-1.92 1.92-3.2 2.562-4.478l.642-1.28 2.56-2.562.643 1.92-.643 3.2h.643l-.642 1.92.643 1.92-.64 2.562v5.12l2.562-2.562.64 1.28 1.28 1.28-.64 2.56c0 1.92-.643 3.2-.643 5.12h.64l-.64 3.2h-5.12v2.56l2.562 1.28 2.56 2.56v1.28l.642 1.92-1.28 3.84 1.92-1.278.64 1.278 1.28-.64-1.92 3.84c.64 1.28.64 1.92 1.28 2.562l.64 2.56-1.942 1.29zm17.282-58.88l-2.562 1.277-.64-1.277c-1.92.64-3.2.64-5.12.64l-1.92-1.92-.643-1.28-.64-3.2-3.84-.64-3.2 2.56-2.562 1.923v3.197l-3.2 2.562h-1.92l-3.198-.643-2.56-3.2h-3.202l-1.278 1.92-4.48 1.277 2.562-3.84 2.562-1.92v-4.48l-1.28-3.2-7.04-2.562h-3.2l-5.12-3.197-1.92 3.197-1.28.643-.64-1.92v-1.92l-3.2-1.92 4.48-2.56 3.2-.64v-1.28c-1.92.64-3.84.64-5.76 1.28l-1.28-2.563h-3.2l-1.92-1.92 5.76-2.56 2.562-.643 6.4.643.64 1.92.64 7.04 3.2 1.92 3.2-5.76 4.48-3.2c1.278 0 2.56-.643 3.2-.643l3.198 1.28 2.562 1.28h3.2l5.76 1.92 5.76 1.28 1.92 1.92 1.92 1.92v2.56l4.48 1.28.642 2.56-3.2 1.28v3.2l2.562 2.56 1.28 3.842 1.92-.642-.642 1.92h2.56-1.92l3.2.643-1.283-1.917zm8.318-23.04l-1.92.64-.64 1.28c-1.28 1.28-2.563 2.56-3.2 3.2-.642 0-1.28.64-1.92.64l-2.562-.64-1.92-.643.642-1.92h3.198l1.92-1.28.642-2.56h.64v2.56l1.92-1.277 1.28-1.92 1.92-2.562v-1.28l1.92-.64.64.64-.64 2.562-1.92 3.2zm-415.36-202.88l-.64 1.277-1.92.643-.64 2.56-.64 3.2 2.56 1.92 1.28 3.2 3.84 1.92h5.12l.64-1.28.64-3.2 1.92-5.12-1.92-1.277 1.92-3.2-1.92-.64 2.56-3.2 2.56 1.92 3.2-.64-1.28-3.2v-2.563l-3.2.642-1.92 3.2v-3.2l.642-1.28 1.92-1.92v-1.92l-2.56-1.92.64-3.84-.64-1.28.64-1.28 2.56 1.28 1.92-3.2h3.2l2.56 1.28 2.56-3.842.64-3.197-3.198-.643-1.92-1.92-3.844 1.28h-3.2l-2.56 2.56h-3.2l-4.48 3.2.64 4.48-1.92 3.2c0 3.197.64 5.76 1.28 8.96v3.198l1.28.642.64 1.278-2.56-.64-3.203 2.562zm-60.8 16.64l1.92.64 1.28 1.28-.64 2.56 1.28-1.277 1.28 1.92 1.92 1.28 1.92-.643 1.28-1.28v-.64l1.28-1.92 1.92-3.2.64-1.278 2.56-3.2c.64-1.28 1.92-1.92 2.56-3.2l1.28-3.2 1.28-1.92v-2.56l1.92-1.28h-1.92l-1.28-1.92-5.12 3.2-3.2-1.28-.64-3.2-1.92-1.278-.64 1.92h-1.92l-.64-3.2-1.92-1.278 1.28-4.48V676l2.56-3.202v-2.562l3.84-3.198 2.56 1.278 2.56-3.198 3.2 2.56 3.2-1.92h3.2l3.2 1.92 1.92 4.48 2.56 3.2 3.2.642 1.92 1.277 3.84-1.277 1.28-1.92 1.28-3.2-.64-1.92-1.28-1.28v-1.92l-.64-4.48-1.92-2.56-.642-3.2h1.92l3.84-2.56v-2.563l3.84-.64.64-1.28h-2.56l-1.92-.64-2.56.64-1.92-.64-2.56.64-1.92 2.562.64 1.275 2.56.642-1.28 1.278-.64 1.28-3.84 3.2-.64-1.28 1.92-1.92-1.28-2.562.64-.642 2.56-.64v-1.28l-2.56-2.56 1.28-1.92-1.92-.642-1.92 2.562-3.2 2.56-.64 1.92-1.28.642v-.642l-3.2 4.48-1.92 1.28-2.56 2.56-1.28 2.56-.64 1.92.64 2.562h-1.92l-1.92-1.28c-1.28.642-3.2 1.92-3.84 2.562l.64-2.562.64-.64-.64-.643-.64-1.277h-2.56v2.56h-1.28l-.64-.64.64-3.2-.64.64-1.28 3.2-.64 2.562-1.28.64v3.84l-1.28 2.563v-2.563l-.64 2.562h-1.28l-1.92 4.48-1.28-.64v-3.2l1.28-3.2 1.28-3.2c.64-1.92 1.28-3.2 1.92-5.12l.64-1.28v-.642l.64-1.278V660l1.28-1.922 1.92-2.56 1.28-1.28v-1.282l.64-1.922c0-1.277 0-2.56.64-3.197l.64-1.92v-2.563l1.92-3.2h.64l1.28-2.56 1.28-1.28v-1.28l-1.28 1.28.64-1.92 1.28-1.28h.64v-1.277l-1.278.64-1.28 1.92h-1.92l-2.56 4.48-1.28 3.2-1.92 3.197-1.92 3.84.64.643-.64 1.92-.64.64c0 1.28-.64 3.2-.64 3.84l.64 2.563-.64.64-.64 1.92.64-2.56-.64-1.92-1.922 2.56v1.92l-1.28 1.92h-.64l-1.92 2.562h-.64c0-.642.64-.642.64-1.28l1.92-1.92.64-.64c.64-1.92 1.28-3.2 2.56-5.12v-1.28l1.28-1.92v-1.28l.64-2.56v-1.28c1.28-3.2 2.562-5.76 3.2-8.96l3.2-3.84v-1.28l-.64-1.28-1.28 1.28-3.2 1.92.64-1.92c-5.76 8.32-10.88 16.64-15.358 25.602v.64l-.64 1.28v.64l1.28-.64v1.278l-1.28 1.92 1.28-.64-.64-.64-1.28 1.278-1.28 3.2v1.28l-2.56 3.2-1.28 1.278-1.28 2.562v.64l-1.28 2.562v4.478h.64v5.12l-1.28 3.84c.64 1.92.64 3.2.64 5.12v3.84l1.28-.64 1.28-1.28 1.28-3.84 1.28-1.92 1.92-1.28h1.28l1.92 3.2-.64 2.56.64.642v1.278l1.28 1.92v.642l2.56 1.28c1.28 1.92 1.92 3.84 3.2 5.76l1.92-.64v-1.295zm-6.4-41.6l-.64 1.278-1.28 1.92.64-2.56v-1.28l.64-3.2.64-1.92.64 1.92c.64.643 1.28.643 1.92 1.28l-2.56 2.562z"/></svg>