<svg xmlns="http://www.w3.org/2000/svg" width="137" height="131.215" viewBox="-143.5 784.5 137 131.215"><path d="M-48.032 808.115l-.222-.11-.332-.11c-.222-.222-.443-.443-.554-.556-.443-.333-.775-.555-1.22-.775h-.22l-.442-.33-.112-.113c-10.192-5.982-22.268-8.31-33.902-6.314-10.524 1.882-20.385 7.31-27.697 15.177-.11.11-.11.222-.22.222l.11-.11.775-.663h.222v.22l.11-.11v.11l-.11.11.333-.22.22-.222.334-.334.333-.442.554-.553.222-.11.22-.112.11.112.222-.11h.223l-.333.332-.22.11-.334.22-.11.223-.22.22.11-.11-.555.334-.33.335-.224.22-.112.332-.22.222.22.11.222-.11-.11.444-.222.22.22-.11h.776v.222l-.11.222.11.22.333-.22h.443l.553-.553.443-.445.443-.332.44-.11-.33.553.22.112c.333-.222.555-.554.776-.664h-.11l.11-.33.333-.335h.22l.333.11.11.224.22.11.555-.222.11-.445-.442-.22h-.554l-.333-.223.22-.33.112-.334.554-.555.553-.552.443-.224.554-.223.996-.332h.223l.332-.222.11-.442-.442-.11-.554.223-.444.33c-.554.11-.997.33-1.55.443l-1.11.887-.44.552-.223.445-.775.553h-.332c-.554.442-1.108.888-1.663 1.33l-.11-.222-.333.22-.11-.22c.775-.777 1.55-1.66 2.437-2.55l-.667.11h-.22l.33-.55c.666-.557 1.44-1.22 2.216-1.665l.443-.222h.554l.665-.22c.775-.332 1.66-.553 2.548-1 .553-.11 1.218-.22 1.772-.44h.554l.222.22.776-.22.22.22.444.11v.558h-.553l-.222.44.443-.11-.11.554.443.446.22.883-.22.222-.444.443-.554.332h-.554c-.22-.22-.442-.552-.554-.887h-.222l-.11.555-.775.663.11.335v.222l.333-.222.11-.335.444-.11.333.557h.442l.22-.556 1.22-.333.22.11.11.33.555-.33.11-.44.555-.335.11-.444.555.444-.11.334h-.445l-.332.33.11.333h.555l.443-.333c.775-.11 1.552-.222 2.438-.222l.22.11-.553.333.445.22.554.11.664-.11.11.446.666-.335-.222-.554.333-.11.887.442.443.333.997.887.443-.332-.22-.442.11-.11-.334-.113.333-.22.11-.555.11-.22.998-.446.554-.442.332-.11.887.33-.22.444-.555.334.11.22-.11.443-.554.776.334.44-.444.444-1.33.665h.555l.333-.22.554-.11.222-.335.554-.223-.11-.442.442-.44h-.443l.11-.336.555-.554-.333-.553.885-.335.11-.44h.223l.11.33-.444.557.444.11v-.445l.665-.22h.774l.555.443-.11-.112.22-.553.666-.11.886.11h.887l-.22-.332.552-.332h.444l.775-.223h.998l.11-.11h.998l.333.11.775-.333h.665l.11-.22.333-.222.776-.332.553.11-.443.222h.776l.22.22.334-.11.997-.11.887.222.443.22v.334l-.554.336-.775.44h-.22c.442 0 .664.11 1.107.11l.332-.11.333.333.11-.223.555-.11h1.22l.22.22 1.552-.11-.222-.44h.776l.554-.11.665.22.443.332v.33l.665.335.665.11-.11-.555.664.11.443-.223h.665l.11-.22h.555l-.775-.44.222-.336c.997-.11.997-.11 2.66-.44l.553.22 1.107.11.776-.553.554-.11.444.11.443.44h.443l.11-.22.334-.22.443-.11.222-.333.775.222-.11-.333-.554-.224-.222-.222.554-.22.222-.333.553-.11h.444c.553.332.886.553 1.44.884-.443-.332-.887-.553-1.44-.885h.553l.666.11.443.332-.556-.332.11-.332.554.11.333.333.11.33.888.556.11.11v.333h-.45l-.333-.22-.11.22v.22l-.222-.11-.222-.22.11.33.334.222.22.222c-.442-.223-.664-.554-1.107-.664.443.22.665.552 1.108.774l.222.335-.11.11.442.11.553.33.222.11.332.222.222.223h-.333l.222.775v.222l.22.556.222.553.222.33-.665-.44v.775h-.444l.11.444-.443.11.333.442.332.666.222.222h.443l.775.887-.222.222.333.553.33.22-.22.336.554.775-.333.443.445.665v.776l-.444-.446c-.664-.662-1.44-1.55-2.103-2.214l-.554-.887-.11-.554-.222-.335.333-.33c-.11-.554-.332-1.22-.443-1.772l-.222-.667-.554-.773-.222.222.443.552v.888l-.886-.555-.555.555.222 1.33.553.33-.553.443-.443.224-.333-.445-.553.11-.22.445-1.22-.11-1.108.553-.555 1.55-.665 1.996.775-.11.554.443h.554l.11-.442.554-.11 1.107.554.444.553v.776l.442.775.443 1.218-.222 1.22.11.555c-.332.774-.553 1.662-.774 2.55l-.777.553-.443.11-.554-.332-.554.664v.224h-.22l-.444.222v.333l.22.55-.332.225.11.11-.22.334-.333.22-.222.222.112.332v.11l.332.112.333.333.776.774.332.556.333.886-.222.223-.554.222-.443.44-.555.22-.22-.44v-.554l-.555-.775.443-.222-.554-.555-.444-.11v.222h-.11l-.11-.11h-.223l-.11-.222.11-.442.11-.11-.11-.11v-.445h-.554l-.444-.222-.775.333-.442.443-.665.222.332-.442-.222-.335.443-.553-.443-.443-.554.333-.554.553-.333.556-.665.11-.333.44.554.557.553.112.11.332.554.22.555-.552.665.22h.443l.222.443-.776.11-.222.556-.554.554-.33.435.775.444.444.662.553.667.665.553.11.555-.332.334.222.442.554.22v.668l-.11.662-.444.11c-.333.667-.554 1.44-.887 2.107L-58 845.34c-.554.554-1.33 1.107-1.995 1.662l-.775.11-.554.442-.332-.222-.443.443-1.108.555-.887.22-.222.89-.554.11-.333-.557.222-.33-1.11-.223-.442.222-.776.443-.665.775-.222.554c.554.555.998 1.33 1.55 1.885l.777.55.554.668.443 1.55-.11 1.55-.666.556-1.108.554-.664.664-1.108.776-.333-.554.223-.555-.665-.554-.775.11-.443-.443-.554-.887-.554-.22h-.665l.11-.667h-.775l-.11.886c-.332.664-.554 1.33-.775 1.993l.11.556h.555l.443.773.222.665.554.553.554.222.554.444.222.11.554.553.443.556v.553l-.11.443.11.33.11.556.333.22.332.667v.332l-.886-.11-.775-.556-.996-.554-.11-.442-.555-.557-.333-.995-.333-.555.11-.553-.22-.444-.443-.332-.22-.442-.887-.888v.777l-.222-.556.112-.554.332-.777-.11-.554.332-.554-.333-.555.11-.887-.442-.442-.332-.998-.22-1.106-.334-.775-.554.44-.887.667-.553-.11-.554-.223.333-.997-.223-.777-.665-.996.11-.333-.554-.11-.554-.663-.22-.444v-.442l-.225-.44-.444-.555-.775-.11.11.33-.332.557-.442-.222-.112.11h-.553l-.11.332h-.554l-1.108.11v.555l-.554.555-1.33.552-.996.888-.665.553-.887.556v.443l-.442.22-.665-.11h-.445l-.332.556.11 1.106v.665l-.443.776v1.44h-.443l-.443.664.333.332-.887.11-.11.667-.333.22-.776-.887c-.22-.664-.44-1.44-.552-2.104l-.333-.444-.443-.886c-.11-.555-.11-1.108-.332-1.55l-.665-1.22c-.11-.888-.222-1.773-.333-2.77l.11-.998-.11-.776-1.107.334-.554-.223-.885-1.106.442-.333-.11-.333-.666-.885-.553-.335-.11-.44-.554-.778h-1.22l-1.106-.22-.998-.11-1.22-.554-.664-.223-.665-.333v-.996l-.33-.222h-.556l-.665.223-.666-.443-.442-.552-.554-.444-.222-.885-.11-1.22h-.333l-.333-.442-.332.223h-.11v2.323l.22.333v.33l.333.443-.11.334-.11.333v.33l.11.333v.555l.11-.556.334-.442h.22l.112.33-.11.558-.333-.112v.333h.11v.222h.555c.33.11.554.22.775.33l.554-.552c.442-.333.665-.556 1.107-.777l.223-.22.11.11-.11.33h-.11l-.112.667.223.553.33.445.445.222.443.222c.11.33.222.552.332.775l.22.22v.223c-.22.222-.33.44-.552.663l-.333.223-.555.333-.33-.11-.112.22-.222.442v.556l-.11.11c-.11 0-.222 0-.332-.11l-.443.223-.112.44-.222.112-.442-.11-.333.22v.334h-.11l-.33-.224-.444.223h-.333l-.553.11-.223.333-.11.33-.555.332h-.775l-.554.445h-.332l-.22-.11-.444.222-.444.11-.554-.11h-.11l-.11.22v.223l-.333-.11-.222.11-.442-.222v-.555l.112-.554-.11-.33v-.668l-.112-.442h.11V848l.112-.11v-.886l-.11-.22v-.335l-.112-.112v-1.441l-.332-.662-.22-.222-.113-.888.112-.552.11-.557v-.996l-.11-.443-.222-.222v-.553l.11-.224v-.442l-.11-.22v-.667c0-.554 0-.885-.11-1.44l-.222-.112.332-.33.11-.33.223-.335v-.11l-.223.332-.332.554-.11.44-.11.112c0-.223-.112-.554-.112-.665l.224-1.22-.11.11-.223.89c0 .773-.11 1.55-.22 2.326v.995l.11.998-.11.11-.11.555.332.886v.222l-.11.887-.11.11-.11.667v.994c0 .335.11.557.22.667l.11 1.108v.775l.223.555.553.995c.223.557.443.998.554 1.553l.222.333.22.442v.332l-.332-.11c.11.222.222.444.443.556l.11.442.222.442.332.11h.554l.554.112.553-.11h.334l.22-.112c.224 0 .334.11.555.11l.332-.11h.332l.333-.222.22.11v.223l-.11.555v.44l-.332.334-.22.887c-.445.998-.776 1.996-1.22 2.88-.443.556-.665 1.22-1.107 1.663l-.998.223-.775.553-.333.553-.553.776-.113.44-.11.112-.332.223v.222h-.223v.552l-.11.332v.555l-.112.222-.11.886.11.553.333.442.11.222v.11l.11.224v.44c.222.444.444.89.555 1.44l.22.223.223.445.223.663c.22.555.442 1.22.554 1.773l.222.444v.996l-.11.333c-.224.11-.445.222-.556.222l-.333.22v.112l-.11.443-.11.11.22.554c.223.332.555.666.666 1l.11.22h.112l.33.554.112.332.11.223.112.222v.22l-.333-.33-.332.11v.22l.22.333.11.11c.112.223.223.556.445.666l.33.553.113.223v.222l.11.222.11.332.11.33c.112.224.112.446.223.667 9.86 11.41 24.706 17.727 39.773 17.172h.333c18.834-.886 35.896-12.74 43.43-30.024 8.198-18.834 3.544-41.545-11.3-55.726-2.108-1.997-4.102-3.768-6.318-5.21zm-38 .998c-.777 0-1.552.11-2.44.11l-1.328.332c-.554.33-1.22.554-1.772.777l-.332.44.222.554h-.222l-.997-.333.11-.22-.444-.33.222-.335h.443l.334-.334.997-.33-.22-.11 1.107-.332.11-.223c.666-.112 1.442-.225 2.106-.225l.996.112.664-.112h.555l.11.224-.223.333zm-24.153 71.016l-.333.11c-.332-.223-.553-.444-.775-.556l-.332-.44-.333-.557-.553-.554-.334-.554-.11-.445h.22l-.11-.22v-.442l-.11-.556v-.222l-.334-.553-.332-.555v-.333l-.11-.442.22.11.222-.11.223-.11.22.11.222-.333.334-.333.11-.332-.22-.332.332.222.222-.443-.11-.444.11-.33c.222.22.333.553.554.663l.333.556.333.887.223.442v.774l-.333-.554v.222l.333.556v.33l-.112.11.222.556c.11.886.22 1.773.332 2.658.11.556.223.997.333 1.552l-.555-.11zm20.607-19.39l-.443.332-.777.11-.333-.663-.11-1.22.443-1.33.554.554.443.555.444.885-.222.775zm42.543-33.68l.554.11.442.11.222-.44.554.774-.775.443-.11.774-.998-.332.11.888-.553.222-.443-.665v-.554l.553-.223-.332-.998-.11-.664.885.555zm-3.434-4.874l-.553-.886.22-.444-.442-.333.11-.11c.333.332.554.666.887.998l.443.664c.554.557 1.108 1.22 1.662 1.664h-.776l.334 1.106.775.556.22.552-.553-.33v.553l-.443-.554-.333-.664-.33-.886-.222-.443-.554-.887-.443-.554zm-.665 14.623l.222-.554.554-.554.334-.555 1.107-.553h.666l.222-1.552.554.333c.333-.444.554-.888.665-1.33v-.998l-.443-.774v-.555l.554-.332.665.998.222.553-.222.887.333.774v.667l.222.442-.222.776-.554.553-.997.33-.554 1.11-.553-.222-.222-.554-.998.443-.554.552-.665.11.776.558-.11 1.44-.333.44-.443-.33v-.667l-.554-.222-.332-.553.665-.66zm1.33 28.585l-.22.11-.223-.444-.22-.996.22-.664.333-.332v.44h.443l.11.334-.11.665h-.443l-.11.554.22.335zm-.333 1.662l.887-.223.774.11.222.554-.554-.222h-.554l-.443.11-.554.11.222-.44zm-4.32 2.658l-.333-.222.443-.666-.776.444-.11-.222.11-.33-.554-.443.11-.777-.553.333c0 .666 0 1.33-.11 1.995l-.444.222-.11-.222.332-.665-.11-.664h-.334l-.22-.555.442-.553.11-.554.555-1.33.223-.443.665-.664.554.222h.997l.886-.11.775-.666.112.222-.554.887-.775.11-.666-.11-1.33.222-.664.224-.222.663.666.554.443-.443 1.44-.442-.112.443-.332-.11-.442.555-.666.444.666.884-.222.334.554.773-.11.557-.334.108zm0 1.882l-.11.444-1.11.335h-.996v-.334l.554-.222.554.223.554-.11.554-.333zm.443 1.22l.442-.555.776-.444.11-.222.666-.33.553-.11.222-.112.332.11-.332.222c-.554.332-.886.555-1.44.665l-.555.555-.665.222h-.11zm2.77-13.074l-.333-.774-.332.55.222.557-.222.443-.887-.443-.22-.556.22-.44-.554-.333-.112.443h-.443l-.554.554-.11-.223.333-.773.554-.333.442-.443.332.333.554-.332.11-.44.555-.11-.22-.556.553.333c.11.554.22 1.218.333 1.663l-.22.883zm-1.662-3.878v.775l-.333.332-.22.667-.222.33-.554-.554c.11-.222.222-.334.332-.555l.11-.553.444-.11-.11.664.553-.995zm.776-1.33l.22.335.333.884-.554-.11v.333l.22.554-.442.222v-.552h-.222l-.11-.556h.332v-.332l-.443-.664.664-.112zm-3.99-2.325v-1.33l.222-.776.554-.11.554.22.222-.22v.22l-.11.446.332.554-.11.664-.555.223-.112.664.22.666h.444l.333-.11.998.332v.552l.332.223-.11.445-.554-.334-.332-.444-.22.333-.555-.442-.665.11-.443-.11v-.442l.22-.223-.22-.11-.11.333-.444-.444-.11-.444-.11-.775.33.33zm-1.773 6.092l.554-.553.555-.555.443-.887.22.664-.553.556-.443.44-1.108.89.333-.556zm-7.2 6.98l.553-.664.553.22.665-.22.222-.665.443-.222.997-.33.554-.665.443-.556.332-.332.664-.554.554-.555.443-.665h.333l.443.443v.44c.443.112.776.335 1.22.445l-.112.333-.554.11.11.44-.664.112-.553.776.553.664v.445l.887.663-.997.22-.333.556v.664l-.554.556-.11.886-.333 1.218-.11-.33-.888.44-.333-.44h-.554l-.443-.223-.997.44-.333-.44-.443.11h-.665l-.11-1.108-.444-.222-.443-.664-.11-.556.11-.772zm7.755 7.202l-.887.222-.554.22h-.442l.332-.55h.444l.22-.335.334.223.554-.11v.33zm-12.298-1.884l-1.108-.553-.443-.554-.665-.556-.444-.662-.665-1.108-.776-.666-.333-.774-.332-.555-.775-.552-.333-.665-.665-.444-.887-.886-.11-.444c.665 0 1.33.11 1.994.222l.775.776.665.554.554.332.775.887h.888l.665.556.554.664.665.332-.443.666.552.33h.333l.11.555.333.444h.554l.443.553-.22.998v1.22l-1-.11-.66-.558zm4.653 1.775h-.554l-.443.11-1.55-.334-.112-.332h-.775l.554-.663h1.107l.665.332h.332l.11.33h1.55l.223-.33 1.55.33.334.558h1.218l.886.44-.886.444-.886-.224-.665-.22h-.777l-.775-.11-1.108-.33zm16.507 16.838l-.332.223-.443.443v-.112l-.555.332h-.11l-.222.11.11-.33.222-.334.11-.333.223-.222h.443l.666-.33h.22l-.332.553zm8.31-9.417l-.222.443-.22.442-.222.442-.333.556c-.22.33-.554.553-.665.885l-.22.334c-.334.44-.555.662-.887.994l-.554.444c-.442.442-.774.885-1.33 1.33h-.22l-.776.773-.11.224-.334.333-.554.222-.554.33c-.332.222-.554.443-.775.555l-.11-.222h-.223l.333-.332-.333.222-.665.555h-.999v-.333l.223-.442.11-.222-.11-.11h-.443l.333-.333.11-.444-.553.444-.554.223.554-.334.332-.333.444-.33.222-.444-.666.553-.443.22-.555.557-.553-.11.22-.334-.11-.332-.22-.11.22-.11-.554-.22h-.443l-.443-.224-1.108.223c-.554.22-1.108.44-1.55.552l-.555.11-.776.444-.554.222-.22.332-.334.22-.332.223-.444.11h-.553c-.333.11-.554.11-.887.223l-.554.332h-.222c-.222.11-.554.222-.665.442-.334 0-.555 0-.887.11l-.554-.33-.223-.11.11-.334.334-.11.112-.11v-.223l.222-.442v-.332l-.222-.556v-.33l.11-.333-.22-.333v.11l-.444-.22v-1.108l.333.223-.332-.556.333.11.223.222.11-.333-.332-.444v-.11l-.11-.222.11-.443.223-.22.222-.333v-.442l.443-.556v.555l.443-.556.555-.332.443-.332.554-.333.333-.11.222.11.554-.333.555-.11.11-.222.222-.11h.444l.776-.332.554-.333.332-.444.554-.442c.11-.22.11-.443.222-.555l.554-.554.222.553.333-.223-.222-.33.333-.443.332.11.22-.555.556-.443.22-.332.444-.222v-.223h.333v-.222c.222-.11.554-.22.665-.33l.554.22.333.444.443-.11h.443l-.11-.444.444-.552.333-.224-.11-.22.443-.555.554-.332h.333l.554-.224.112-.443-.443-.11.442-.22.443.11.332.22.554.11.223.445.443.112.443-.334h.22l.223-.223.222.333-.333.443-1.44.998-.222.11v.332c-.222.332-.443.554-.554.775v.224l.443.33.442.11.222.223.332.333h.222l.332.11v.223l.555.11.553-.332c.11-.222.333-.554.444-.665l.222-.44.332-.557v-.332l.11-.22v-.445l.223-.554.11-.22v-.222c.22-.333.332-.554.442-.776l.11-.22.444-.444.11.332-.11.555h.11l-.11.333.11.332-.11.442V873.925l.444-.444.11.225.222.22-.11.443c0 .332-.112.555-.112.887h.112l-.112.553h-.886v.444l.443.223c.11.11.333.33.442.44v.222l.11.334-.22.665.33-.22.112.22.222-.11-.333.664c.112.222.112.333.223.443l.11.442-.34.22zm2.99-10.192l-.442.22-.11-.22c-.334.11-.555.11-.887.11l-.333-.333-.11-.22-.11-.555-.666-.11-.555.44-.44.335v.554l-.555.442h-.333l-.554-.11-.443-.553h-.554l-.22.332-.776.22.443-.663.443-.333v-.775l-.22-.555-1.22-.443h-.554l-.887-.554-.333.554-.222.11-.11-.33v-.334l-.555-.333.775-.443.554-.11v-.222c-.334.11-.666.11-.998.222l-.222-.442h-.554l-.333-.334.997-.44.443-.11 1.108.11.112.33.11 1.22.555.333.554-.996.776-.556c.22 0 .443-.11.554-.11l.554.222.443.224h.554l1 .33.996.223.333.33.332.334v.444l.775.22.11.442-.553.223v.555l.443.44.222.668.33-.11-.11.33h.444-.333l.555.112-.22-.334zm1.44-3.988l-.33.11-.11.22-.555.555c-.112 0-.223.112-.334.112l-.443-.11-.332-.112.11-.332h.555l.333-.22.11-.443h.112v.442l.332-.22.222-.335.332-.443v-.222l.333-.11.11.11-.11.442-.335.556zm-71.9-35.12l-.11.22-.334.112-.11.44-.11.556.44.333.223.553.666.333h.885l.11-.223.11-.553.334-.89-.334-.22.333-.552-.334-.11.443-.556.442.332.554-.112-.222-.553v-.442l-.554.11-.33.553v-.552l.11-.222.332-.335v-.332l-.443-.332.11-.666-.11-.222.11-.22.442.22.332-.552h.555l.443.22.442-.664.11-.554-.552-.11-.333-.332-.665.222h-.554l-.44.44h-.555l-.775.557.11.773-.333.556c0 .554.11.995.223 1.552v.552l.22.11.11.222-.44-.11-.557.445zm-10.527 2.88l.333.11.222.222-.11.44.22-.22.222.332.333.224.332-.11.22-.225v-.11l.222-.332.333-.553.11-.224.443-.553c.11-.22.333-.33.443-.554l.222-.555.223-.332v-.442l.332-.222h-.332l-.223-.333-.886.554-.554-.222-.11-.555-.332-.22-.11.33h-.333l-.11-.552-.333-.222.222-.776v-.554l.442-.556v-.44l.665-.556.444.224.443-.556.553.444.555-.334h.554l.554.334.332.775.444.554.555.112.332.222.664-.222.223-.334.22-.553-.11-.332-.222-.222v-.333l-.11-.773-.333-.445-.11-.553h.33l.666-.443v-.445l.665-.11.11-.222h-.442l-.332-.11-.443.11-.332-.11-.444.11-.333.442.11.223.444.11-.222.223-.11.222-.666.552-.11-.222.332-.33-.222-.443.11-.11.444-.112v-.223l-.444-.442.223-.33-.333-.112-.332.442-.555.442-.11.334-.223.11v-.11l-.553.774-.334.222-.443.445-.22.442-.11.33.11.445h-.333l-.333-.224c-.22.112-.554.335-.665.445l.11-.445.11-.11-.11-.11-.11-.22h-.443v.44h-.223l-.11-.11.11-.552-.11.11-.22.552-.113.445-.22.11v.662l-.222.446v-.444l-.11.445h-.223l-.333.774-.222-.11v-.552l.222-.557.22-.552c.112-.332.223-.555.334-.888l.112-.22v-.11l.11-.223v-.333l.22-.334.334-.44.22-.223v-.22l.112-.335c0-.222 0-.442.11-.554l.112-.33v-.446l.332-.553h.11l.222-.442.222-.223v-.223l-.222.223.11-.333.222-.22h.11v-.222l-.22.11-.223.33h-.333l-.443.778-.222.553-.332.555-.333.665.11.11-.11.333-.11.11c0 .224-.11.556-.11.666l.11.44-.11.112-.11.334.11-.445-.11-.332-.334.443v.334l-.22.332h-.112l-.333.44h-.11c0-.11.11-.11.11-.22l.334-.33.11-.112c.11-.333.222-.556.443-.888v-.22l.223-.332v-.223l.11-.444v-.22c.22-.555.443-1 .554-1.552l.554-.665v-.222l-.11-.22-.223.22-.554.333.11-.333c-.996 1.44-1.88 2.88-2.658 4.433v.112l-.11.22v.112l.222-.11v.22l-.223.332.224-.11-.112-.11-.222.22-.22.557v.22l-.445.553-.22.222-.223.445v.11l-.222.442v.777h.11v.883l-.22.667c.11.33.11.553.11.886v.664l.222-.11.222-.22.22-.667.223-.332.333-.22h.22l.334.553-.11.444.11.11v.223l.22.33v.11l.445.223c.22.333.33.666.553.998l.332-.11v-.214zm-1.108-7.202l-.112.223-.22.332.11-.444v-.224l.11-.552.11-.332.113.332c.11.11.222.11.333.22l-.444.444z"/></svg>