<svg xmlns="http://www.w3.org/2000/svg" width="11" height="11" viewBox="-936.5 460.607 11 11"><path d="M-928.273 461.802l-.023-.01-.034-.013-.06-.06c-.046-.036-.08-.06-.127-.082h-.023l-.046-.035-.012-.012c-1.07-.627-2.34-.87-3.56-.662-1.106.198-2.143.77-2.91 1.595-.012.012-.012.023-.024.023l.012-.012.082-.07h.023v.023l.012-.012v.012l-.012.012.035-.024.023-.022.035-.035.035-.048.06-.06.022-.01.023-.012.012.012.023-.012h.023l-.034.035-.023.012-.037.022-.01.022-.024.023.01-.012-.058.035-.035.035-.023.023-.012.035-.023.023.022.01.024-.01-.012.047-.023.022.024-.01h.082v.022l-.012.023.012.022.035-.023h.047l.058-.06.046-.046.047-.033.047-.013-.035.058.022.013c.035-.023.058-.058.082-.07h-.012l.012-.033.035-.036h.022l.035.01.012.025.02.012.06-.02.01-.05-.045-.02h-.058l-.035-.024.023-.035.012-.034.058-.06.058-.058.047-.024.058-.023.105-.034h.023l.035-.023.013-.046-.047-.013-.058.025-.046.034c-.058.013-.105.035-.163.047l-.118.094-.046.058-.023.046-.082.06h-.034l-.175.14-.01-.022-.035.022-.012-.022c.08-.082.163-.176.256-.27l-.07.013h-.024l.035-.057c.07-.06.152-.128.234-.175l.046-.023h.058l.07-.023c.082-.034.174-.06.268-.105.058-.012.128-.022.186-.045h.058l.023.022.082-.022.023.022.046.01v.06h-.058l-.024.047.047-.01-.013.058.046.047.024.093-.024.023-.046.047-.058.035h-.06c-.022-.022-.046-.058-.058-.094h-.023l-.012.06-.082.07.01.034v.023l.036-.023.012-.035.046-.014.035.06h.046l.024-.058.127-.035.024.012.012.035.058-.035.012-.046.058-.035.012-.046.06.047-.013.036h-.047l-.035.034.012.033h.06l.045-.033c.082-.012.163-.023.256-.023l.023.012-.058.034.046.023.06.012.07-.013.01.046.07-.034-.023-.06.036-.012.093.045.045.037.105.092.046-.034-.023-.046.012-.012-.035-.012.035-.025.012-.057.01-.022.106-.047.058-.048.036-.012.093.035-.024.047-.058.035.012.022-.012.045-.058.082.035.047-.047.048-.14.068h.06l.034-.02.058-.012.023-.036.058-.022-.01-.047.046-.048h-.046l.01-.035.06-.058-.036-.06.093-.035.012-.047h.022l.012.036-.047.06.047.01v-.047l.07-.022h.08l.06.047-.012-.013.023-.06.07-.012.093.012h.093l-.022-.034.058-.035h.047l.08-.02h.106l.01-.013h.106l.035.012.083-.036h.07l.01-.023.036-.022.08-.035.06.012-.047.023h.082l.023.023.035-.012.104-.01.093.022.046.023V462l-.058.035-.08.045h-.024c.046 0 .07.012.116.012l.035-.012.035.036.012-.024.058-.012h.128l.023.024.164-.013-.023-.045h.083l.06-.01.07.02.045.035v.035l.07.036.07.013-.012-.06.07.012.047-.022h.07l.01-.024h.06l-.083-.046.024-.035c.104-.013.104-.013.28-.05l.057.025.118.012.082-.06.058-.01.046.01.047.047h.047l.012-.023.034-.022.046-.01.023-.036.08.023-.01-.034-.06-.024-.02-.02.057-.024.024-.036.057-.01h.048c.06.034.093.058.15.09-.046-.032-.092-.056-.15-.09h.06l.068.01.047.036-.06-.036.013-.034.058.012.035.034.01.035.093.06.012.01v.036h-.047l-.035-.024-.01.023v.022l-.024-.013-.024-.023.012.035.035.023.023.022c-.046-.023-.07-.06-.116-.07.046.024.07.06.116.082l.023.034-.012.012.046.012.058.033.023.014.035.023.023.023h-.035l.023.08v.023l.024.06.023.06.023.033-.07-.046v.08h-.046l.012.048-.047.01.034.048.035.07.022.023h.046l.082.092-.023.023.035.06.035.02-.023.036.058.083-.035.046.047.07v.08l-.046-.047c-.07-.07-.15-.162-.22-.233l-.06-.092-.01-.06-.024-.035.035-.033c-.013-.06-.036-.128-.048-.187l-.023-.07-.06-.08-.022.02.046.06v.094l-.093-.06-.057.06.023.14.058.035-.058.046-.047.023-.036-.047-.058.013-.023.045-.128-.01-.116.06-.06.163-.07.21.082-.013.06.047h.057l.01-.046.058-.01.117.057.046.06v.08l.048.08.046.13-.023.128.012.06c-.034.08-.058.173-.08.267l-.083.058-.048.012-.058-.035-.058.07v.023h-.023l-.047.023v.035l.023.058-.036.023.012.01-.023.035-.035.023-.023.023.012.036v.012l.035.012.035.034.082.082.034.06.034.09-.023.025-.058.023-.046.047-.057.022-.023-.046v-.056l-.058-.082.046-.023-.058-.058-.047-.012v.023h-.01l-.013-.012h-.023l-.012-.023.012-.046.012-.012-.013-.013v-.046h-.058l-.048-.023-.08.035-.047.047-.07.023.035-.047-.023-.034.047-.058-.047-.047-.058.036-.06.057-.034.06-.07.012-.034.045.058.06.058.01.012.037.058.022.058-.06.07.024h.047l.023.047-.082.012-.023.06-.058.058-.035.045.082.047.045.07.058.07.07.057.012.057-.035.036.023.047.06.022v.07l-.012.07-.046.01c-.034.07-.058.152-.093.222l-.055.117c-.058.06-.14.117-.21.176l-.08.01-.06.048-.035-.022-.046.045-.116.06-.094.023-.023.093-.057.012-.035-.06.023-.033-.116-.025-.046.025-.082.046-.07.082-.023.058c.058.06.105.14.163.197l.082.06.058.068.046.164-.01.162-.07.058-.117.06-.07.068-.116.082-.037-.06.023-.058-.07-.06-.082.013-.046-.046-.058-.094-.058-.022h-.07l.012-.07h-.082l-.012.094c-.035.07-.058.14-.08.21l.01.058h.058l.047.082.023.07.058.058.058.022.06.047.022.012.06.06.045.058v.06l-.01.046.01.034.013.06.035.022.035.07v.034l-.093-.013-.082-.06-.104-.056-.01-.047-.06-.06-.035-.103-.036-.058.012-.06-.023-.048-.046-.033-.023-.048-.093-.093v.08l-.022-.06.012-.057.035-.082-.01-.058.034-.058-.036-.06.01-.092-.045-.047-.036-.104-.023-.115-.034-.082-.058.047-.093.07-.058-.012-.058-.023.034-.104-.023-.08-.07-.105.013-.036-.058-.013-.058-.068-.023-.048v-.047l-.023-.045-.046-.06-.08-.01.01.034-.035.058-.047-.022-.012.01h-.057l-.012.035h-.057l-.116.013v.06l-.06.057-.14.058-.103.094-.07.06-.093.057v.047l-.045.024-.07-.012h-.047l-.035.06.012.115v.07l-.047.08v.152h-.046l-.046.068.035.034-.092.012-.01.07-.037.022-.08-.093c-.023-.07-.047-.15-.06-.22l-.034-.048-.047-.093c-.012-.06-.012-.116-.036-.162l-.07-.13c-.01-.092-.023-.185-.035-.29l.01-.105-.01-.08-.117.034-.058-.024-.093-.116.046-.034-.012-.036-.07-.092-.058-.036-.012-.047-.058-.08h-.128l-.116-.023-.105-.012-.13-.06-.07-.022-.07-.035v-.104l-.033-.025h-.06l-.07.024-.07-.048-.045-.058-.058-.048-.024-.092-.012-.13h-.034l-.036-.045-.034.02h-.012v.245l.023.036v.035l.035.046-.012.037-.01.034v.036l.01.035v.06l.012-.06.035-.046h.023l.012.034-.012.06-.034-.012v.034h.01v.023h.06c.035.01.058.023.082.035l.058-.06c.046-.033.07-.056.116-.08l.023-.023.01.012-.01.034h-.01l-.013.07.023.06.035.047.047.022.046.02c.012.037.024.06.036.084l.023.023v.022c-.024.022-.036.045-.06.07l-.035.022-.058.034-.035-.01-.012.02-.023.048v.06l-.01.01c-.013 0-.025 0-.036-.01l-.045.022-.012.046-.023.012-.046-.012-.035.023v.035h-.013l-.034-.024-.047.024h-.035l-.057.01-.023.035-.012.036-.058.035h-.08l-.06.047h-.034l-.023-.01-.047.02-.046.013-.06-.012h-.01l-.012.023v.022l-.035-.01-.023.01-.046-.022v-.058l.012-.06-.012-.035v-.07l-.012-.046h.012v-.045l.012-.01v-.095l-.012-.023v-.034l-.012-.012v-.152l-.035-.07-.023-.02-.012-.096.012-.057.012-.06v-.103l-.012-.047-.023-.023v-.058l.013-.024v-.047l-.012-.02v-.07c0-.06 0-.095-.01-.152l-.024-.012.035-.034.013-.035.023-.035v-.012l-.023.036-.035.058-.01.046-.013.012c0-.024-.012-.058-.012-.07l.023-.127-.01.01-.024.094c0 .08-.012.163-.023.243v.105l.01.105-.01.012-.013.058.035.093v.024l-.012.092-.01.013-.013.07v.103c0 .036.012.06.023.07l.012.117v.08l.023.06.058.104c.023.058.046.103.058.162l.024.035.023.047v.034l-.035-.01c.012.02.023.045.046.06l.01.044.025.046.035.012h.058l.058.012.058-.012h.035l.023-.012c.023 0 .035.012.058.012l.035-.012h.035l.035-.022.023.01v.024l-.01.06v.045l-.036.035-.023.094c-.046.104-.082.21-.128.302-.048.058-.07.13-.117.176l-.105.022-.082.06-.035.057-.058.083-.012.046-.01.01-.036.023v.024h-.023v.058l-.01.035v.06l-.013.022-.012.093.012.06.035.045.012.023v.01l.01.025v.046c.024.046.048.094.06.15l.022.023.024.048.023.07c.023.057.046.127.058.185l.024.048v.104l-.012.034c-.023.012-.046.023-.058.023l-.035.022v.01l-.012.05-.012.01.023.06c.022.034.057.07.07.104l.01.023h.012l.035.056.012.036.01.022.013.024v.023l-.035-.034-.035.012v.023l.023.035.012.012c.01.022.023.06.047.07l.035.058.01.022v.024l.013.024.01.035.013.032c.012.024.012.048.023.07 1.035 1.2 2.594 1.862 4.177 1.805h.035c1.978-.093 3.77-1.338 4.562-3.154.86-1.978.373-4.364-1.187-5.854-.227-.2-.437-.388-.67-.538zm-3.992.105c-.082 0-.163.01-.256.01l-.14.035c-.058.036-.128.058-.186.083l-.035.045.022.06h-.023l-.105-.035.01-.024-.045-.032.023-.037h.047l.035-.032.105-.035-.023-.013.116-.034.012-.022c.07-.012.15-.025.22-.025l.105.013.07-.014h.058l.012.024-.025.033zm-2.536 7.458l-.036.013c-.035-.023-.058-.046-.082-.06l-.035-.045-.035-.06-.058-.058-.036-.058-.012-.047h.023l-.013-.023v-.046l-.012-.057v-.023l-.035-.06-.036-.057v-.035l-.01-.048.022.013.023-.013.022-.01.023.01.023-.033.035-.036.01-.033-.02-.035.034.023.023-.046-.01-.048.01-.035c.023.023.035.058.058.07l.035.058.035.095.024.045v.082l-.035-.06v.024l.035.06v.034l-.012.01.023.06c.01.094.023.187.034.28.01.06.024.104.036.163l-.054-.012zm2.163-2.035l-.046.033-.082.013-.035-.07-.01-.128.045-.14.058.06.047.057.046.094-.023.08zm4.47-3.538l.057.012.046.012.023-.047.057.08-.082.046-.012.082-.105-.034.012.093-.06.023-.045-.07v-.058l.058-.023-.034-.105-.013-.07.095.057zm-.362-.512l-.057-.094.023-.046-.046-.036.01-.01c.036.033.06.068.094.103l.047.07c.06.06.117.128.175.175h-.082l.036.116.08.06.023.057-.058-.035v.06l-.046-.06-.037-.07-.035-.093-.023-.046-.06-.093-.044-.057zm-.07 1.535l.024-.058.058-.06.035-.057.116-.06h.07l.024-.162.058.035c.035-.047.058-.093.07-.14v-.104l-.047-.083v-.058l.058-.036.07.104.023.058-.024.094.035.082v.068l.024.048-.023.08-.057.06-.104.034-.06.117-.058-.024-.023-.06-.106.047-.058.06-.07.01.082.06-.01.15-.036.047-.046-.034v-.07l-.06-.023-.034-.06.07-.068zm.14 3.003l-.022.012-.023-.048-.023-.104.023-.07.035-.034v.046h.046l.012.035-.012.07h-.046l-.012.057.023.036zm-.034.175l.093-.024.08.01.023.06-.058-.023h-.058l-.047.01-.06.014.026-.047zm-.454.278l-.035-.02.046-.07-.08.046-.013-.023.012-.034-.06-.048.013-.082-.058.035c0 .07 0 .14-.01.21l-.048.023-.013-.023.035-.07-.012-.07h-.035l-.023-.06.046-.057.012-.06.058-.138.023-.048.07-.068.06.023h.104l.093-.012.082-.07.01.023-.057.094-.082.01-.07-.01-.14.022-.07.024-.022.07.07.058.046-.048.15-.046-.01.046-.036-.01-.046.058-.07.046.07.093-.023.036.057.08-.01.06-.035.01zm0 .2l-.012.046-.117.036h-.104v-.036l.057-.022.058.022.06-.01.057-.036zm.047.128l.045-.058.082-.047.012-.023.07-.033.057-.013.023-.012.035.012-.035.022c-.06.035-.093.06-.15.07l-.06.058-.07.025h-.01v-.002zm.29-1.373l-.035-.08-.035.057.024.06-.024.046-.093-.047-.023-.058.023-.047-.058-.035-.013.048h-.046l-.057.058-.012-.023.036-.082.06-.033.045-.046.036.036.058-.035.012-.045.058-.012-.023-.06.06.036c.01.057.022.127.034.174l-.024.09zm-.175-.41v.083l-.035.034-.023.07-.023.035-.058-.058c.01-.024.023-.036.035-.06l.013-.058.046-.012-.013.07.058-.104zm.082-.137l.023.035.035.093-.058-.012v.035l.023.058-.046.022v-.058h-.023l-.01-.06h.035v-.033l-.046-.072.067-.01zm-.42-.244v-.14l.023-.082.058-.012.058.023.023-.023v.023l-.013.046.035.058-.01.07-.06.023-.01.07.022.07h.047l.036-.01.105.033v.058l.036.024-.012.047-.058-.033-.035-.048-.02.034-.06-.046-.07.01-.046-.01v-.048l.023-.02-.023-.013-.012.033-.046-.045-.012-.047-.012-.082.035.038zm-.186.64l.06-.06.057-.058.046-.093.023.068-.058.06-.046.047-.117.094.036-.056zm-.755.733l.058-.07.058.023.07-.023.024-.07.046-.022.104-.034.06-.07.045-.057.034-.035.07-.06.058-.058.046-.07h.035l.046.047v.047c.046.01.08.035.127.047l-.012.035-.058.012.01.046-.07.013-.057.08.058.07v.047l.094.07-.105.02-.035.06v.07l-.058.06-.012.093-.034.128-.012-.035-.093.045-.035-.046h-.058l-.046-.024-.105.047-.036-.047-.046.01h-.07l-.012-.114-.046-.023-.047-.07-.012-.06.015-.083zm.815.756l-.093.022-.058.023h-.047l.035-.058h.047l.023-.036.035.024.058-.012v.037zm-1.292-.198l-.116-.058-.046-.06-.07-.058-.047-.07-.07-.116-.083-.07-.035-.08-.035-.06-.08-.058-.036-.07-.07-.046-.092-.094-.012-.046c.07 0 .14.01.21.022l.08.082.07.058.06.035.08.093h.094l.07.06.058.068.07.035-.046.07.058.034h.035l.01.06.036.045h.06l.046.06-.023.104v.13l-.105-.014-.07-.057zm.49.187h-.06l-.046.012-.163-.035-.013-.036h-.08l.057-.07h.116l.07.035h.035l.01.034h.164l.022-.035.163.034.035.06h.128l.093.045-.092.046-.093-.023-.07-.023h-.082l-.08-.012-.116-.036zm1.732 1.768l-.035.023-.046.046v-.012l-.06.034h-.01l-.024.012.01-.035.024-.035.012-.035.023-.023h.046l.07-.034h.024l-.034.057zm.874-.988l-.024.046-.023.046-.023.047-.035.06c-.024.034-.06.058-.07.093l-.024.035c-.035.046-.058.068-.093.104l-.06.048c-.045.045-.08.093-.14.14h-.022l-.08.08-.013.024-.035.034-.06.023-.057.036c-.035.023-.058.047-.082.06l-.012-.024h-.022l.035-.035-.035.023-.07.06h-.104v-.036l.023-.047.01-.023-.01-.012h-.047l.035-.034.012-.048-.058.048-.06.023.06-.034.034-.036.046-.034.023-.046-.07.058-.046.022-.058.06-.058-.012.022-.035-.012-.035-.023-.012.022-.012-.058-.022h-.047l-.046-.023-.116.022c-.058.022-.116.046-.163.058l-.057.01-.082.05-.058.022-.023.034-.036.022-.035.024-.047.012h-.058c-.035.012-.058.012-.093.022l-.058.036h-.023c-.023.01-.058.022-.07.046-.034 0-.057 0-.092.012l-.058-.035-.023-.01.01-.036.036-.014.012-.01v-.024l.023-.046v-.036l-.023-.06v-.033l.01-.036-.022-.033v.012l-.046-.024v-.116l.035.023-.035-.06.035.012.023.024.01-.036-.034-.047v-.012l-.01-.023.01-.046.024-.023.023-.035v-.047l.046-.058v.06l.046-.06.058-.034.046-.034.058-.035.035-.014.023.013.06-.036.057-.01.012-.026.022-.01h.047l.08-.035.06-.035.034-.047.06-.046c.01-.022.01-.045.022-.058l.06-.06.02.06.036-.023-.023-.035.034-.047.035.013.022-.057.06-.05.022-.033.046-.023v-.022h.035v-.024c.023-.012.058-.022.07-.034l.058.022.035.048.046-.012h.047l-.01-.047.046-.058.035-.023-.01-.023.046-.06.058-.034h.035l.058-.023.01-.046-.045-.012.046-.023.045.01.035.024.058.012.023.046.047.012.046-.035h.023l.023-.023.022.034-.035.047-.15.105-.024.012v.035c-.023.033-.046.057-.058.08v.023l.046.035.048.01.022.025.035.034h.023l.035.01v.025l.058.012.06-.036c.01-.022.034-.057.046-.07l.023-.045.034-.06v-.033l.012-.023v-.047l.023-.058.01-.023v-.024c.024-.035.036-.058.047-.08l.012-.025.046-.045.01.035-.01.06h.01l-.01.034.01.034-.01.047v.094l.046-.048.012.023.023.023-.01.047c0 .034-.013.057-.013.093h.012l-.012.058h-.093v.047l.047.023c.012.01.035.035.047.047v.022l.01.036-.022.07.035-.023.012.023.022-.012-.035.07c.012.022.012.034.023.046l.01.047-.026.022zm.313-1.07l-.046.02-.01-.02c-.035.01-.06.01-.093.01l-.036-.034-.01-.024-.012-.058-.07-.012-.058.047-.046.036v.058l-.058.047h-.034l-.06-.01-.045-.06h-.058l-.024.035-.082.023.046-.07.046-.035v-.08l-.023-.06-.128-.046h-.058l-.093-.06-.036.06-.023.012-.012-.035v-.036l-.058-.035.082-.047.058-.012v-.023c-.035.012-.07.012-.105.023l-.023-.046h-.058l-.036-.035.105-.046.045-.013.116.012.013.032.012.128.058.036.058-.105.083-.058c.023 0 .046-.01.058-.01l.06.022.046.024h.058l.105.034.103.023.035.033.035.036v.047l.082.024.012.046-.06.022v.06l.048.048.023.068.035-.012-.012.035h.047-.035l.058.013-.023-.032zm.152-.42l-.036.012-.012.022-.058.06c-.012 0-.023.01-.035.01l-.048-.01-.035-.013.01-.034h.06l.034-.024.013-.047h.012v.046l.035-.024.023-.034.035-.046v-.024l.035-.01.012.01-.012.046-.034.057zm-7.554-3.69l-.01.023-.036.012-.01.046-.013.06.047.033.023.06.07.035h.093l.012-.023.012-.058.035-.095-.036-.022.035-.06-.036-.01.047-.06.047.035.058-.012-.023-.058v-.047l-.06.01-.033.06v-.06l.01-.02.036-.036v-.034l-.046-.035.012-.07-.012-.022.012-.024.046.023.035-.058h.06l.045.022.046-.07.012-.057-.058-.012-.035-.036-.07.023h-.06l-.045.046h-.058l-.082.06.012.082-.035.058c0 .06.012.104.023.162v.06l.022.012.012.023-.046-.013-.06.048zm-1.105.303l.036.012.023.023-.012.046.022-.022.024.034.035.023.034-.01.023-.024v-.012l.023-.034.035-.06.012-.022.046-.058c.012-.024.036-.035.047-.06l.023-.058.023-.035v-.046l.035-.022h-.034l-.023-.035-.093.06-.058-.024-.01-.06-.036-.022-.01.034h-.036l-.012-.06-.035-.02.023-.082v-.06l.047-.058v-.046l.07-.06.046.023.045-.06.06.048.058-.035h.058l.06.035.035.08.046.06.06.01.035.025.07-.024.023-.035.023-.058-.01-.035-.024-.023v-.036l-.012-.082-.035-.046-.012-.058h.034l.07-.047v-.046l.07-.01.01-.024h-.045l-.035-.013-.046.013-.035-.013-.045.013-.035.046.012.023.046.01-.023.024-.012.023-.07.058-.01-.023.034-.034-.023-.047.01-.01.048-.013v-.023l-.047-.047.023-.034-.035-.012-.035.047-.06.047-.01.035-.023.01v-.01l-.058.08-.035.022-.046.048-.023.047-.012.034.013.048h-.036l-.035-.023c-.023.01-.058.034-.07.047l.012-.047.01-.012-.01-.012-.012-.02h-.046v.045h-.023l-.01-.012.01-.06-.01.014-.024.058-.013.047-.024.012v.07l-.022.045v-.047l-.01.046h-.024l-.035.08-.022-.01v-.06l.023-.058.024-.058c.012-.036.023-.06.035-.094l.01-.022v-.012l.012-.023v-.035l.023-.036.035-.045.023-.023v-.023l.01-.034c0-.023 0-.047.013-.06l.012-.033v-.047l.035-.06h.012l.023-.045.023-.022v-.024l-.022.024.01-.035.024-.022h.012v-.022l-.023.012-.022.034h-.035l-.047.08-.023.06-.035.06-.035.068.012.012-.012.034-.01.013c0 .023-.013.06-.013.07l.012.047-.012.012-.01.033.01-.046-.01-.035-.036.047v.033l-.023.035h-.01l-.036.047h-.012c0-.013.012-.013.012-.023l.035-.035.01-.012c.012-.034.024-.058.048-.093v-.023l.023-.036v-.022l.013-.047v-.024c.023-.056.046-.103.058-.16l.06-.07v-.023l-.012-.023-.023.023-.058.035.012-.035c-.106.15-.2.303-.28.466v.012l-.012.022v.012l.022-.012v.022l-.022.034.023-.01-.01-.012-.023.02-.023.06v.024l-.047.058-.023.023-.023.047v.012l-.022.046v.082h.01v.092l-.02.07c.01.034.01.06.01.092v.07l.023-.01.024-.023.023-.07.023-.035.035-.022h.023l.035.058-.012.047.013.012v.023l.023.033v.014l.046.022c.023.036.035.07.058.105l.035-.01-.004-.025zm-.116-.756l-.012.02-.023.036.01-.047v-.024l.012-.058.012-.035.012.035c.01.012.023.012.035.022l-.045.046v.003z"/></svg>