<svg xmlns="http://www.w3.org/2000/svg" width="232.896" height="626.816" viewBox="0 0 232.896 626.816"><path d="M221.44 0H11.52C5.186 0 0 5.12 0 11.456c0 2.048.576 3.968 1.536 5.632h-.064l2.625 4.544c9.28 16.32 22.08 38.72 22.08 62.592V541.44c0 55.937 46.4 85.312 92.287 85.376h.192c43.975 0 88.52-26.88 88.704-78.336V84.224c0-24.704 12.992-47.552 22.4-64.192l1.67-2.944c.896-1.664 1.466-3.584 1.466-5.632C232.896 5.12 227.776 0 221.44 0zm-37.056 84.224v56.256c-.512-.128-1.023-.32-1.535-.32h-69.12c-4.035 0-7.3 3.264-7.3 7.296s3.265 7.296 7.297 7.296h69.12c.51 0 1.022-.192 1.534-.32v87.552c-.51-.128-1.022-.32-1.534-.32h-69.12c-4.033 0-7.297 3.264-7.297 7.296s3.263 7.296 7.295 7.296h69.12c.51 0 1.022-.192 1.534-.32v83.776c-.513-.128-1.024-.32-1.536-.32h-69.12c-4.033 0-7.297 3.264-7.297 7.303 0 4.03 3.264 7.296 7.296 7.296h69.12c.51 0 1.022-.19 1.534-.32v84.41c-.576-.125-1.15-.382-1.792-.382H113.53c-4.032 0-7.296 3.265-7.296 7.296 0 4.032 3.264 7.303 7.296 7.303h69.056c.646 0 1.216-.19 1.792-.326v96.384c-.128 38.145-34.11 55.488-65.728 55.488h-.128c-33.408-.062-69.376-19.646-69.376-62.4V84.226c0-23.488-9.216-44.736-18.048-61.248H201.92c-8.64 16.64-17.536 37.824-17.536 61.248z"/><path d="M113.73 234.752h63.742V211.61H56.064v329.83c0 38.042 32.384 55.43 62.464 55.488h.128c28.256 0 58.707-15.206 58.815-48.576V459.2h-63.933c-7.834 0-14.208-6.374-14.208-14.214 0-7.834 6.373-14.208 14.207-14.208h63.936v-69.882H113.73c-7.834 0-14.208-6.374-14.208-14.208 0-7.84 6.374-14.214 14.208-14.214h63.743v-69.306H113.73c-7.834 0-14.208-6.374-14.208-14.208 0-7.834 6.375-14.208 14.21-14.208z"/></svg>