<?xml version="1.0" encoding="utf-8"?>
<!-- Generator: Adobe Illustrator 16.0.0, SVG Export Plug-In . SVG Version: 6.00 Build 0)  -->
<!DOCTYPE svg PUBLIC "-//W3C//DTD SVG 1.1//EN" "http://www.w3.org/Graphics/SVG/1.1/DTD/svg11.dtd">
<svg version="1.1" id="Layer_1" xmlns="http://www.w3.org/2000/svg" xmlns:xlink="http://www.w3.org/1999/xlink" x="0px" y="0px"
	 width="650px" height="650px" viewBox="-924.5 475.5 650 650" enable-background="new -924.5 475.5 650 650" xml:space="preserve">
<path d="M-437.495,562.71l-1.278-0.642l-1.92-0.641c-1.281-1.279-2.562-2.561-3.201-3.199c-2.561-1.921-4.479-3.201-7.039-4.479
	h-0.642h-0.64l-2.562-1.921l-0.641-0.641c-58.88-34.561-128.64-48-195.84-36.479c-60.8,10.88-117.76,42.239-160,87.68
	c-0.64,0.642-0.64,1.28-1.28,1.28l0.641-0.643l4.479-3.84h1.28v1.28l0.64-0.64v0.64l-0.64,0.64l1.92-1.277l1.28-1.28l1.92-1.92
	l1.92-2.562l3.2-3.199l1.279-0.642l1.28-0.64l0.641,0.64l1.279-0.64h1.28l-1.92,1.92l-1.28,0.641l-1.92,1.279l-0.64,1.279
	l-1.28,1.281l0.64-0.643l-3.2,1.92l-1.92,1.92l-1.279,1.28l-0.641,1.92l-1.279,1.28l1.279,0.64l1.28-0.64l-0.64,2.56l-1.28,1.28
	l1.28-0.641c1.92,0,3.199,0,4.479,0v1.279l-0.64,1.279l0.64,1.28l1.92-1.28h2.561l3.2-3.199l2.56-2.561l2.56-1.92l2.561-0.642
	l-1.92,3.199l1.279,0.641c1.92-1.278,3.2-3.198,4.48-3.84h-0.64l0.64-1.921l1.92-1.92h1.28l1.92,0.643l0.64,1.277l1.28,0.643
	l3.2-1.28l0.64-2.56l-2.56-1.281h-3.2l-1.92-1.279l1.28-1.92l0.64-1.92l3.2-3.2l3.199-3.2l2.561-1.277l3.2-1.281l5.76-1.92h1.28
	l1.92-1.279l0.64-2.561l-2.56-0.642l-3.2,1.28l-2.56,1.92c-3.2,0.641-5.761,1.92-8.961,2.562l-6.399,5.117l-2.561,3.2l-1.279,2.562
	l-4.48,3.199h-1.92c-3.2,2.562-6.399,5.119-9.6,7.682l-0.641-1.28l-1.92,1.28l-0.64-1.28c4.479-4.479,8.96-9.601,14.08-14.72
	l-3.84,0.64h-1.28l1.92-3.2c3.84-3.197,8.32-7.039,12.8-9.6l2.561-1.28h3.199l3.84-1.278c4.48-1.922,9.601-3.199,14.721-5.762
	c3.2-0.64,7.04-1.277,10.24-2.561h3.199l1.28,1.281l4.48-1.281l1.279,1.281l2.561,0.64v3.2h-3.2l-1.28,2.56l2.561-0.64l-0.641,3.199
	l2.562,2.561l1.28,5.12l-1.28,1.28l-2.562,2.56l-3.2,1.92h-3.199c-1.28-1.28-2.561-3.2-3.2-5.12h-1.28l-0.64,3.2l-4.48,3.84
	l0.641,1.92v1.28l1.92-1.28l0.64-1.92l2.561-0.64l1.92,3.199h2.56l1.28-3.199l7.04-1.92l1.28,0.64l0.64,1.92l3.2-1.92l0.64-2.56
	l3.2-1.92l0.64-2.562l3.2,2.562l-0.64,1.92h-2.561l-1.92,1.92l0.64,1.92h3.2l2.561-1.92c4.479-0.643,8.96-1.28,14.08-1.28
	l1.279,0.64l-3.199,1.922l2.56,1.278l0,0l3.2,0.642l3.84-0.642l0.64,2.562l3.84-1.92l-1.279-3.199l1.92-0.641l5.12,2.561l2.56,1.92
	l5.76,5.12l2.561-1.921l-1.28-2.562l0.64-0.64l-1.92-0.641l1.92-1.279l0.641-3.2l0.64-1.28l5.761-2.56l3.199-2.562l1.92-0.641
	l5.12,1.92l-1.28,2.562l-3.199,1.92l0.64,1.277l-0.64,2.562l-3.2,4.479l1.92,2.562l-2.56,2.56l-7.681,3.84h3.2l1.92-1.277l3.2-0.643
	l1.28-1.92l3.199-1.277l-0.64-2.562l2.56-2.561h-2.56l0.64-1.92l3.2-3.199l-1.92-3.2l5.12-1.92l0.64-2.562h1.28l0.641,1.922
	l-2.561,3.197l2.561,0.643v-2.562l3.84-1.277h4.479l3.2,2.56l-0.641-0.64l1.28-3.201l3.841-0.641l5.119,0.641h5.12l-1.28-1.92
	l3.2-1.92h2.561l4.479-1.279h5.76l0.641-0.641h5.76l1.92,0.641l4.48-1.92h3.84l0.64-1.28l1.92-1.28l4.48-1.92l3.2,0.643
	l-2.562,1.277h4.479l1.279,1.28l1.92-0.64l5.762-0.643l5.119,1.28l2.561,1.28v1.92l-3.2,1.92l-4.479,2.561h-1.279
	c2.561,0,3.84,0.641,6.4,0.641l1.92-0.641l1.92,1.92l0.64-1.279l3.2-0.641h7.04l1.28,1.279l8.959-0.641l-1.279-2.561h4.48
	l3.198-0.641l3.84,1.279l2.562,1.92v1.92l3.84,1.921l3.84,0.64l-0.64-3.199l3.84,0.641l2.561-1.279h3.841l0.641-1.279h3.199
	l-4.479-2.561l1.28-1.92c5.76-0.641,5.76-0.641,15.359-2.562l3.198,1.28l6.4,0.642l4.479-3.199l3.199-0.643l2.562,0.643l2.56,2.56
	h2.562l0.64-1.28l1.92-1.277l2.561-0.643l1.279-1.92l4.479,1.28l-0.642-1.921l-3.198-1.279l-1.279-1.277l3.199-1.281l1.278-1.92
	l3.2-0.641h2.562c3.198,1.92,5.119,3.199,8.317,5.119c-2.56-1.92-5.119-3.198-8.317-5.119h3.198l3.841,0.641l2.561,1.92l0,0
	l-3.2-1.92l0.641-1.92l3.201,0.641l1.92,1.92l0.641,1.92l5.119,3.2l0.641,0.64v1.92h-1.279h-1.278l-1.92-1.277l-0.643,1.277v1.28
	l-1.277-0.64l-1.28-1.28l0.64,1.92l1.92,1.28l1.28,1.279c-2.56-1.279-3.84-3.199-6.398-3.842c2.561,1.28,3.84,3.2,6.398,4.48l0,0
	l1.28,1.92l-0.642,0.641l2.562,0.641l3.199,1.92l1.278,0.641l1.92,1.28l1.28,1.28h-1.92l1.28,4.479v1.279l1.279,3.199l1.278,3.201
	l1.28,1.92l-3.841-2.562v4.479h-2.562l0.642,2.561l-2.562,0.64l1.92,2.562l1.92,3.84l1.28,1.28h2.562l4.479,5.119l-1.28,1.278
	l1.92,3.2l1.922,1.28l-1.279,1.92l3.199,4.479l-1.92,2.562l2.561,3.84v4.479l-2.561-2.561c-3.842-3.84-8.32-8.96-12.16-12.8
	l-3.199-5.12l-0.641-3.2l-1.279-1.92l1.92-1.92c-0.641-3.199-1.92-7.04-2.562-10.24l-1.277-3.84l-3.2-4.479l-1.28,1.28l2.562,3.199
	v5.12l-5.119-3.2l-3.2,3.2l1.278,7.681l3.2,1.92l-3.2,2.562l-2.561,1.279l-1.92-2.562l-3.2,0.642l-1.278,2.561l-7.041-0.641
	l-6.398,3.198l-3.2,8.961l-3.84,11.521l4.479-0.642l3.198,2.562h3.2l0.641-2.562l3.2-0.641l6.399,3.2l2.56,3.2v4.479l2.562,4.48
	l2.561,7.04l-1.279,7.04l0.641,3.197c-1.92,4.48-3.2,9.603-4.479,14.723l-4.479,3.198l-2.561,0.642l-3.199-1.92l-3.2,3.84v1.28
	h-1.28l-2.561,1.279v1.92l1.279,3.198l-1.92,1.28l0.641,0.64l-1.279,1.921l-1.92,1.28l-1.28,1.279l0.641,1.92v0.641l1.922,0.642
	l1.92,1.92l4.479,4.479l1.92,3.2l1.92,5.12l-1.279,1.28l-3.199,1.279l-2.561,2.561l-3.199,1.279l-1.28-2.562v-3.198l-3.2-4.479
	l2.562-1.28l-3.199-3.2l-2.561-0.64v1.28h-0.642l-0.641-0.642h-1.279l-0.641-1.279l0.641-2.562l0.641-0.64l-0.641-0.641v-2.562
	h-0.641h-2.562l-2.561-1.279l-4.479,1.921l-2.562,2.561l-3.84,1.279l1.92-2.562l-1.278-1.92l2.561-3.199l-2.561-2.562l-3.2,1.921
	l-3.2,3.198l-1.92,3.201l-3.84,0.641l-1.92,2.56l3.2,3.2l3.199,0.641l0.641,1.92l3.199,1.28l3.199-3.2l3.84,1.279h2.562l1.28,2.561
	l-4.479,0.642l-1.279,3.199l-3.199,3.2l-1.92,2.561l4.479,2.561l2.562,3.84l3.199,3.842l3.842,3.199l0.64,3.199l-1.92,1.92
	l1.28,2.562l3.199,1.278v3.842l-0.642,3.84l-2.561,0.641c-1.92,3.84-3.199,8.319-5.119,12.159l-3.2,6.399
	c-3.2,3.199-7.681,6.4-11.521,9.601l-4.479,0.642l-3.2,2.561l-1.92-1.279l-2.561,2.562l-6.399,3.198l-5.12,1.279l-1.279,5.12
	l-3.199,0.641l-1.921-3.199l1.28-1.92l-6.4-1.279l-2.561,1.279l-4.479,2.561l-3.84,4.479l-1.28,3.199
	c3.2,3.199,5.761,7.682,8.96,10.88l4.479,3.2l3.201,3.84l2.561,8.96l-0.641,8.96l-3.84,3.2l-6.4,3.199l-3.84,3.841l-6.399,4.479
	l-1.92-3.2l1.278-3.199l-3.84-3.2l-4.479,0.642l-2.561-2.562l-3.2-5.12l-3.2-1.278h-3.84l0.641-3.841h-4.48l-0.64,5.119
	c-1.92,3.842-3.2,7.682-4.479,11.521l0.641,3.2h3.2l2.56,4.479l1.28,3.84l3.199,3.2l3.2,1.279l3.199,2.561l1.28,0.642l3.2,3.198
	l2.561,3.2v3.2l-0.641,2.561l0.641,1.92l0.64,3.199l1.92,1.279l1.92,3.841v1.92l-5.119-0.641l-4.479-3.199l-5.76-3.2l-0.641-2.561
	l-3.2-3.199l-1.92-5.761l-1.92-3.2l0.64-3.199l-1.279-2.561l-2.561-1.92l-1.279-2.562c-1.92-1.92-3.201-3.198-5.121-5.12v4.479
	l-1.28-3.199l0.641-3.2l1.92-4.479l-0.641-3.2l1.921-3.199l-1.921-3.2l0.641-5.118l-2.561-2.562l-1.92-5.76l-1.279-6.399
	l-1.92-4.479l-3.2,2.56l-5.12,3.841l-3.2-0.641l-3.2-1.279l1.92-5.761l-1.279-4.479l-3.84-5.762l0.64-1.921l-3.2-0.64l-3.2-3.84
	l-1.28-2.562v-2.56l-1.279-2.562l-2.561-3.198l-4.479-0.643l0.64,1.921l-1.92,3.199l-2.56-1.279l-0.641,0.642h-0.64h-2.561
	l-0.64,1.92h-3.2l-6.399,0.64v3.2l-3.2,3.2l-7.68,3.2l-5.76,5.119l-3.841,3.199l-5.12,3.199c0,0.641,0,1.92,0,2.562l-2.56,1.277
	l-3.84-0.64h-2.561l-1.92,3.2l0.641,6.397v3.841l-2.561,4.479v8.32h-2.56l-2.561,3.84l1.92,1.92l-5.119,0.641l-0.641,3.84
	l-1.92,1.279l-4.48-5.119c-1.279-3.841-2.56-8.318-3.199-12.16l-1.92-2.561l-2.561-5.12c-0.64-3.199-0.64-6.398-1.92-8.96
	l-3.84-7.04c-0.64-5.119-1.28-10.239-1.92-16l0.64-5.76l-0.64-4.479l-6.4,1.92l-3.199-1.278l-5.12-6.4l2.56-1.92l-0.64-1.92
	l-3.841-5.12l-3.199-1.92l-0.641-2.56l-3.199-4.48h-7.04l-6.4-1.278l-5.76-0.642l-7.04-3.199l-3.84-1.28l-3.84-1.92v-5.761
	l-1.92-1.278h-3.2l-3.841,1.278l-3.84-2.561l-2.56-3.199l-3.2-2.562l-1.28-5.118l-0.64-7.041h-1.92l-1.92-2.561l-1.92,1.279h-0.641
	v2.562v2.561c0,3.2,0,5.12,0,8.318l1.28,1.921v1.92l1.92,2.561l-0.64,1.92l-0.641,1.921v1.92l0.641,1.92v1.921v1.279l0.64-3.2
	l1.92-2.561h1.28l0.64,1.92l-0.64,3.2l-1.92-0.641v1.92h0.64v1.279h3.2c1.92,0.641,3.2,1.279,4.48,1.921l3.199-3.2
	c2.561-1.92,3.841-3.199,6.4-4.479l1.28-1.279l0.64,0.642l-0.64,1.92h-0.641l-0.64,3.84l1.28,3.199l1.92,2.561l2.56,1.28l2.561,1.28
	c0.64,1.92,1.279,3.199,1.92,4.479l1.279,1.28c0,0.641,0,0.641,0,1.279c-1.279,1.279-1.92,2.561-3.199,3.84l-1.92,1.281l-3.2,1.919
	l-1.92-0.641l-0.641,1.279l-1.279,2.561v3.199l-0.641,0.642c-0.64,0-1.28,0-1.92-0.642l-2.56,1.28l-0.641,2.561l-1.279,0.642
	l-2.561-0.642l-1.92,1.279v1.921h-0.64l-1.92-1.28l-2.561,1.28h-1.92l-3.2,0.641l-1.279,1.92l-0.641,1.921l-3.199,1.92h-4.48
	l-3.2,2.561h-1.92l-1.28-0.641l-2.56,1.279l-2.56,0.641l-3.2-0.641h-0.641l-0.64,1.279l0,0v1.279l-1.92-0.64l-1.28,0.64l-2.56-1.279
	v-3.2l0.64-3.198l-0.64-1.921v-3.841l-0.641-2.561h0.641v-2.561l0.64-0.641v-2.561v-2.562l-0.64-1.279v-1.92l-0.641-0.642v-4.479
	v-3.841l-1.92-3.84l-1.279-1.278l-0.641-5.121l0.641-3.199l0.64-3.2v-5.761l-0.64-2.56l-1.28-1.28v-3.199l0.64-1.279v-2.561
	l-0.64-1.28v-3.841c0-3.199,0-5.119-0.64-8.318l-1.28-0.641l1.92-1.92l0.64-1.92l1.28-1.921v-0.641l-1.28,1.92l-1.92,3.199
	l-0.64,2.561l-0.64,0.642c0-1.279-0.641-3.2-0.641-3.84l1.28-7.041l-0.641,0.641l-1.279,5.12c0,4.479-0.641,8.96-1.28,13.44
	c0,1.92,0,3.84,0,5.76l0.64,5.76l-0.64,0.642l-0.64,3.198l1.92,5.12v1.28l-0.641,5.119l-0.64,0.641l-0.64,3.841v5.76
	c0,1.921,0.64,3.2,1.279,3.841l0.641,6.399v4.479l1.279,3.198l3.2,5.762c1.28,3.199,2.561,5.76,3.2,8.96l1.28,1.92l1.279,2.561v1.92
	l-1.92-0.641c0.641,1.28,1.28,2.561,2.562,3.2l0.64,2.561l1.28,2.562l1.92,0.64h3.2l3.2,0.641l3.199-0.641h1.92l1.28-0.64
	c1.28,0,1.92,0.64,3.2,0.64l1.92-0.64h1.92l1.92-1.28l1.28,0.641v1.279l-0.64,3.2v2.561l-1.92,1.92l-1.28,5.12
	c-2.561,5.76-4.48,11.521-7.04,16.641c-2.561,3.199-3.84,7.039-6.4,9.601l-5.76,1.28l-4.48,3.198l-1.92,3.2l-3.199,4.479
	l-0.641,2.561l-0.64,0.642l-1.92,1.278v1.279h-1.28v3.2l-0.64,1.92v3.2l-0.641,1.278l-0.64,5.12l0.64,3.199l1.921,2.562l0.64,1.279
	v0.641l0.64,1.279v2.562c1.28,2.561,2.562,5.119,3.2,8.318l1.28,1.279l1.279,2.562l1.28,3.841c1.28,3.199,2.56,7.04,3.2,10.239
	l1.28,2.561v3.2v2.561l-0.641,1.92c-1.28,0.642-2.56,1.279-3.2,1.279l-1.92,1.28v0.641l-0.64,2.561l-0.64,0.641l1.279,3.2
	c1.28,1.92,3.2,3.84,3.84,5.76l0.641,1.28h0.64l1.92,3.198l0.641,1.921l0.64,1.279l0.641,1.279v1.28l-1.921-1.921l-1.92,0.641v1.28
	l1.28,1.92l0.64,0.641c0.641,1.279,1.28,3.2,2.561,3.84l1.92,3.2l0.64,1.279c0,0.641,0,1.278,0,1.278l0.641,1.28l0.64,1.92
	l0.64,1.92c0.641,1.28,0.641,2.562,1.28,3.84l0,0c56.96,65.922,142.72,102.4,229.76,99.2h0.641h1.278
	c108.803-5.12,207.36-73.6,250.881-173.438c47.359-108.8,20.479-240-65.279-321.922C-413.175,581.27-424.693,571.029-437.495,562.71
	z M-657.015,568.47c-4.48,0-8.96,0.64-14.08,0.64l-7.68,1.922c-3.2,1.92-7.041,3.199-10.24,4.479l-1.92,2.561l1.279,3.199h-1.279
	l-5.761-1.92l0.641-1.279l-2.561-1.92l1.28-1.92h2.561l1.92-1.92l5.76-1.921l-1.28-0.64l6.4-1.92l0.64-1.28
	c3.84-0.64,8.32-1.28,12.16-1.28l5.76,0.643l3.84-0.643h3.2l0.64,1.28L-657.015,568.47z M-796.535,978.71l-1.92,0.64
	c-1.92-1.279-3.2-2.56-4.479-3.2l-1.92-2.56l-1.92-3.2l-3.2-3.2l-1.92-3.197l-0.641-2.562h1.28l-0.64-1.28v-2.56l-0.641-3.2v-1.28
	l-1.92-3.197l-1.92-3.2v-1.92l-0.64-2.562l1.279,0.643l1.28-0.643l1.28-0.64l1.28,0.64l1.279-1.92l1.921-1.92l0.64-1.92l-1.28-1.92
	l1.92,1.28l1.28-2.562l-0.64-2.56l0.64-1.92c1.28,1.278,1.92,3.198,3.2,3.84l1.92,3.2l1.92,5.119l1.28,2.561v3.2l0,0v1.28
	l-1.921-3.2v1.278l1.921,3.199v1.921l-0.641,0.642l1.28,3.199c0.64,5.118,1.28,10.238,1.92,15.358c0.64,3.2,1.28,5.76,1.92,8.96
	L-796.535,978.71z M-677.495,866.71l-2.56,1.92l-4.48,0.64l-1.92-3.84l-0.64-7.04l2.56-7.68l3.2,3.2l2.561,3.197l2.56,5.12
	L-677.495,866.71z M-431.734,672.15l3.199,0.642l2.561,0.64l1.281-2.561l3.198,4.479l-4.479,2.562l0,0l-0.641,4.479l-5.76-1.92
	l0.641,5.12l-3.199,1.279l-2.562-3.841v-3.198l3.2-1.28l-1.92-5.76l-0.642-3.841L-431.734,672.15z M-451.575,643.99l-3.198-5.121
	l1.278-2.562l-2.56-1.92l0.64-0.64c1.92,1.92,3.2,3.84,5.12,5.76l2.561,3.84c3.199,3.2,6.399,7.04,9.602,9.602h-4.479l1.92,6.398
	l4.479,3.2l1.28,3.2l-3.2-1.92v3.198l-2.561-3.198l-1.922-3.84l-1.92-5.121l-1.279-2.562l-3.198-5.12L-451.575,643.99z
	 M-455.415,728.47l1.28-3.2l3.199-3.197l1.92-3.201l6.398-3.199h3.841l1.279-8.96l3.2,1.92c1.92-2.56,3.2-5.12,3.84-7.681v-5.762
	l-2.561-4.479v-3.2l3.199-1.92l3.84,5.76l1.279,3.2l-1.279,5.12l1.922,4.479v3.842l1.279,2.56l-1.279,4.479l-3.2,3.199l-5.761,1.921
	l-3.199,6.398l-3.2-1.28l-1.279-3.198l-5.761,2.561l-3.2,3.2l-3.84,0.64l4.479,3.2l-0.641,8.32l-1.921,2.56l-2.56-1.92v-3.841
	l-3.2-1.279l-1.92-3.2L-455.415,728.47z M-447.734,893.59l-1.278,0.64l-1.28-2.56l-1.28-5.76l1.28-3.842l1.92-1.921v2.562h2.562
	l0.64,1.92l-0.64,3.84h-2.562l-0.64,3.2L-447.734,893.59z M-449.654,903.189l5.119-1.277l4.48,0.64l1.278,3.2l-3.198-1.28h-3.2
	l-2.562,0.64l-3.199,0.643L-449.654,903.189z M-474.615,918.55l-1.92-1.28l2.561-3.84l-4.479,2.562l-0.64-1.28l0.64-1.92l-3.2-2.562
	l0.643-4.479l-3.2,1.92c0,3.84,0,7.68-0.641,11.52l-2.562,1.28l-0.64-1.28l1.92-3.84l-0.641-3.84h-1.92l-1.281-3.2l2.562-3.2
	l0.641-3.197l3.199-7.683l1.28-2.56l3.84-3.84l3.2,1.277h5.76l5.12-0.64l4.479-3.84l0.642,1.278l-3.2,5.119l-4.479,0.643
	l-3.841-0.643l-7.681,1.28l-3.84,1.28l-1.28,3.84l3.84,3.2l2.562-2.562l8.318-2.56l-0.641,2.56l-1.92-0.64l-2.562,3.2l-3.84,2.56
	l3.84,5.12l-1.278,1.92l3.2,4.48l-0.641,3.198L-474.615,918.55z M-474.615,929.43l-0.64,2.562l-6.399,1.92h-5.761
	c0-0.643,0-1.28,0-1.92l3.2-1.28l3.199,1.28l3.198-0.643L-474.615,929.43z M-472.055,936.47l2.56-3.2l4.479-2.56l0.641-1.28
	l3.84-1.92l3.2-0.64l1.28-0.643l1.92,0.643l-1.92,1.277c-3.2,1.92-5.12,3.2-8.32,3.842l-3.2,3.198l-3.84,1.28l0,0L-472.055,936.47
	L-472.055,936.47z M-456.055,860.95L-456.055,860.95l-1.92-4.48l-1.921,3.2l1.279,3.2l-1.279,2.56l-5.12-2.56l-1.279-3.2
	l1.279-2.562l-3.199-1.92l-0.642,2.562h-2.561l-3.199,3.2l-0.641-1.28l1.92-4.48l3.2-1.92l2.56-2.56l1.92,1.92l3.2-1.92l0.642-2.562
	l3.198-0.64l-1.277-3.2l3.198,1.92c0.642,3.2,1.279,7.04,1.92,9.603L-456.055,860.95z M-465.654,838.55v4.479l0,0l-1.921,1.922
	l-1.278,3.84l-1.279,1.92l-3.2-3.2c0.641-1.28,1.28-1.92,1.92-3.2l0.641-3.199l2.562-0.641l-0.641,3.84L-465.654,838.55z
	 M-461.175,830.87l1.28,1.92l1.92,5.12l-3.2-0.643v1.92l1.28,3.2l-2.562,1.28v-3.2h-1.28l-0.64-3.2h1.92v-1.92l-2.561-3.84
	L-461.175,830.87z M-484.215,817.43v-7.68l1.279-4.48l3.198-0.64l3.2,1.28l1.28-1.28v1.28l-0.642,2.56l1.92,3.2l-0.641,3.84
	l-3.199,1.28l-0.641,3.84l1.28,3.84h2.56l1.922-0.64l5.76,1.92v3.2l1.92,1.277l-0.641,2.562l-3.199-1.92l-1.92-2.562l-1.279,1.92
	l-3.2-2.56l-3.84,0.64l-2.562-0.64v-2.561l1.279-1.279l-1.279-0.641l-0.641,1.92l-2.562-2.562l-0.641-2.56l-0.64-4.48
	L-484.215,817.43z M-494.455,852.63l3.2-3.2l3.2-3.2l2.56-5.12l1.28,3.843l-3.2,3.197l-2.56,2.562l-6.4,5.12L-494.455,852.63z
	 M-536.055,892.95l3.199-3.843l3.199,1.28l3.84-1.28l1.28-3.84l2.562-1.278l5.76-1.922l3.199-3.84l2.561-3.2l1.92-1.92l3.842-3.197
	l3.198-3.2l2.562-3.84h1.92l2.56,2.56v2.561c2.562,0.642,4.479,1.922,7.04,2.562l-0.64,1.92l0,0l-3.2,0.64l0.641,2.562l-3.841,0.64
	l-3.2,4.48l3.2,3.84v2.56l5.12,3.841l-5.76,1.279l-1.92,3.2v3.84l-3.2,3.2l-0.64,5.12l-1.921,7.04l-0.642-1.92l-5.12,2.56
	l-1.92-2.56h-3.199l-2.561-1.28l-5.761,2.561l-1.92-2.561l-2.562,0.641h-3.84l-0.64-6.398l-2.562-1.28l-2.56-3.84l-0.641-3.2
	L-536.055,892.95z M-491.255,934.55l-5.12,1.28l0,0l-3.2,1.277h-2.56l1.92-3.197h2.561l1.279-1.921l1.92,1.278l3.2-0.64V934.55
	L-491.255,934.55z M-562.295,923.67l-6.399-3.2l-2.561-3.2l-3.841-3.199l-2.561-3.841l-3.84-6.397l-4.479-3.84l-1.92-4.48l-1.92-3.2
	l-4.48-3.2l-1.92-3.84l-3.84-2.56l-5.12-5.12l-0.64-2.562c3.84,0,7.68,0.643,11.52,1.28l4.48,4.48l3.84,3.198l3.199,1.922
	l4.479,5.117h5.12l3.84,3.2l3.199,3.84l3.841,1.923l-2.56,3.84l3.198,1.92h1.92l0.642,3.2l1.92,2.56h3.199l2.561,3.2l-1.28,5.76
	v7.04l-5.76-0.64L-562.295,923.67z M-535.415,933.91h-3.2l-2.56,0.64l-8.96-1.92l-0.641-1.92h-4.479l3.2-3.84h6.398l3.84,1.92h1.922
	l0.64,1.92h8.96l1.279-1.92l8.961,1.92l1.92,3.2h7.04l5.12,2.56l-5.12,2.562l-5.12-1.279l-3.84-1.28h-4.48l-4.479-0.64
	L-535.415,933.91z M-440.055,1031.189l-1.92,1.28l0,0l-2.562,2.562v-0.642l-3.2,1.92h-0.64l-1.28,0.643l0.642-1.921l1.278-1.92
	l0.643-1.922l1.277-1.277h1.28h1.28c1.278-0.643,2.561-1.28,3.84-1.922h1.28L-440.055,1031.189z M-392.055,976.79l-1.28,2.56
	l-1.278,2.562l-1.281,2.56l-1.92,3.2c-1.278,1.92-3.198,3.2-3.84,5.12l-1.279,1.92c-1.92,2.56-3.199,3.84-5.119,5.76l-3.2,2.562
	c-2.562,2.56-4.48,5.118-7.681,7.68h-1.279c-1.92,1.92-3.2,3.2-4.479,4.479l-0.641,1.279l-1.92,1.92l-3.2,1.28l-3.2,1.92
	c-1.92,1.28-3.199,2.561-4.479,3.2l-0.642-1.28h-1.278l1.92-1.92l-1.92,1.28l-3.841,3.198c-1.279,0-1.922,0-3.199,0h-1.28h-1.279
	v-1.92l1.279-2.561l0.641-1.28l-0.641-0.64h-2.562l1.922-1.92l0.64-2.562l-3.199,2.562l-3.199,1.278l3.199-1.92l1.92-1.92
	l2.562-1.921l1.278-2.56l-3.84,3.199l-2.561,1.278l-3.2,3.2l-3.2-0.64l1.28-1.92l-0.641-1.921l-1.279-0.642l1.279-0.64l-3.199-1.28
	h-2.562l-2.56-1.28l-6.399,1.28c-3.199,1.28-6.398,2.562-8.961,3.2l-3.199,0.64l-4.479,2.562l-3.2,1.278l-1.279,1.92l-1.92,1.279
	l-1.92,1.28l-2.561,0.64h-3.2c-1.92,0.643-3.2,0.643-5.12,1.28l-3.199,1.92h-1.278c-1.28,0.642-3.2,1.28-3.841,2.562
	c-1.92,0-3.199,0-5.12,0.64l-3.199-1.92l-1.28-0.641l0.64-1.921l1.921-0.641l0.641-0.64v-1.28l1.28-2.561v-1.921l-1.28-3.198v-1.92
	l0.64-1.922l-1.277-1.92v0.642l-2.562-1.28v-2.561v-2.562v-1.279l1.919,1.279l-1.919-3.199l1.919,0.642l1.28,1.278l0.64-1.92
	l-1.92-2.561v-0.641l-0.64-1.279l0.64-2.562l1.28-1.278l1.28-1.92v-2.562l2.56-3.199v3.199l2.562-3.199l3.199-1.92l2.562-1.921
	l3.2-1.92l1.92-0.64l1.279,0.64l3.199-1.92l3.199-0.64l0.641-1.28l1.279-0.641h2.561l4.479-1.921l3.2-1.92l1.92-2.561l3.2-2.561
	c0.64-1.279,0.64-2.562,1.277-3.199l3.201-3.2l1.279,3.2l1.92-1.28l-1.279-1.92l1.92-2.562l1.921,0.642l1.278-3.2l3.2-2.561
	l1.28-1.921l2.56-1.278v-1.28h1.921v-1.279c1.279-0.641,3.199-1.279,3.84-1.921l3.199,1.28l1.92,2.561l2.562-0.641h2.56l-0.64-2.56
	l2.56-3.2l1.922-1.28l-0.642-1.279l2.562-3.199l3.199-1.92h1.92l3.199-1.279l0.641-2.562l-2.561-0.641l2.561-1.28l2.562,0.642
	l1.92,1.278l3.2,0.642l1.279,2.561l2.561,0.642l2.561-1.921h1.279l1.28-1.278l1.278,1.92l-1.92,2.56l-8.318,5.762l-1.28,0.641v1.92
	c-1.279,1.92-2.561,3.199-3.199,4.479v1.278l2.562,1.92l2.56,0.642l1.28,1.278l1.92,1.92c0.641,0,0.641,0,1.28,0l1.92,0.642v1.279
	l3.2,0.642l3.198-1.921c0.642-1.279,1.921-3.199,2.562-3.84l1.279-2.562l1.92-3.2v-1.92l0.641-1.278v-2.562l1.28-3.2l0.64-1.278
	v-1.279c1.28-1.921,1.92-3.2,2.561-4.479l0.642-1.28l2.561-2.562l0.642,1.92l-0.642,3.2h0.642l-0.642,1.92l0.642,1.92l-0.642,2.562
	v1.92v3.2l2.562-2.562l0.64,1.28l1.28,1.279l-0.641,2.561c0,1.92-0.642,3.199-0.642,5.12h0.642l-0.642,3.199h-5.119v2.561
	l2.562,1.28c0.64,0.64,1.92,1.92,2.56,2.56v1.28l0.642,1.92l-1.279,3.84l1.92-1.278l0.64,1.278l1.28-0.64l-1.92,3.84
	c0.64,1.28,0.64,1.92,1.28,2.562l0.64,2.561L-392.055,976.79z M-374.773,917.91l-2.562,1.277l-0.64-1.277
	c-1.92,0.64-3.2,0.64-5.12,0.64l-1.921-1.92l-0.642-1.28l-0.64-3.2l-3.84-0.64l-3.2,2.561l-2.562,1.922v3.197l-3.199,2.562h-1.92
	l-3.199-0.643l-2.561-3.197h-3.201l-1.278,1.92l-4.48,1.277l2.562-3.84l2.562-1.92v-4.479l-1.281-3.2l-7.039-2.562h-3.199
	l-5.12-3.197l-1.92,3.197l-1.28,0.643l-0.64-1.92v-1.92l-3.2-1.92l4.479-2.562l3.199-0.64v-1.28c-1.92,0.64-3.84,0.64-5.76,1.28
	l-1.279-2.562h-3.199l-1.92-1.92l5.76-2.56l2.561-0.643l6.4,0.643l0.64,1.92l0.641,7.04l3.199,1.92l3.2-5.76l4.479-3.2
	c1.279,0,2.562-0.643,3.201-0.643l3.198,1.28l2.562,1.28h3.199l5.762,1.92l5.76,1.28l1.92,1.92l1.92,1.92v2.56l4.479,1.28
	l0.642,2.561l-3.2,1.279v3.2l2.562,2.56l1.279,3.842l1.92-0.642l-0.641,1.92h2.561h-1.92l3.199,0.643L-374.773,917.91z
	 M-366.455,894.87l-1.92,0.64l-0.641,1.28c-1.279,1.279-2.562,2.56-3.199,3.2c-0.642,0-1.28,0.64-1.92,0.64l-2.562-0.64l-1.92-0.643
	l0.642-1.92h3.198l1.92-1.28l0.642-2.56h0.64v2.56l1.921-1.277l1.279-1.92l1.92-2.562v-1.28l1.92-0.64l0.641,0.64l-0.641,2.562
	L-366.455,894.87z M-781.815,691.99l-0.64,1.277l-1.92,0.643l-0.64,2.56l-0.641,3.2l2.561,1.92l1.279,3.2l3.841,1.92h5.12l0.64-1.28
	l0.64-3.199l1.92-5.12l-1.92-1.278l1.92-3.2l-1.92-0.64l2.561-3.2l2.56,1.92l0,0l3.2-0.641l-1.28-3.2v-2.562l-3.2,0.642l-1.92,3.199
	v-3.199l0.641-1.279l1.92-1.92v-1.92l-2.561-1.92l0.641-3.84l-0.641-1.28l0.641-1.28l2.56,1.28l1.92-3.2h3.2l2.561,1.279l2.56-3.842
	l0.64-3.197l-3.199-0.643l-1.92-1.92l-3.841,1.28h-3.2l-2.56,2.56h-3.2l-4.479,3.2l0.64,4.48l-1.92,3.2
	c0,3.197,0.64,5.76,1.28,8.959v3.199l1.28,0.642l0.64,1.278l-2.561-0.641L-781.815,691.99z M-842.615,708.63l1.921,0.64l1.279,1.28
	l-0.64,2.56l1.28-1.277l1.279,1.92l1.92,1.279l1.92-0.642l1.28-1.28v-0.64l1.28-1.92l1.92-3.2l0.64-1.278l0,0l2.561-3.2
	c0.64-1.279,1.92-1.92,2.56-3.199l1.28-3.2l1.28-1.92v-2.56l1.92-1.28h-1.92l-1.28-1.92l-5.12,3.2l-3.2-1.28l-0.64-3.2l-1.92-1.279
	l-0.641,1.92h-1.92l-0.64-3.199l-1.92-1.279l1.28-4.48v-3.197l2.56-3.201v-2.562l3.84-3.198l2.561,1.278l2.56-3.198l3.2,2.561
	l3.2-1.92h3.199l3.2,1.92l1.92,4.479l2.561,3.199l3.2,0.643l1.92,1.277l3.84-1.277l1.279-1.92l1.28-3.201l-0.64-1.92l-1.28-1.279
	v-1.92l-0.64-4.48l-1.92-2.56l-0.641-3.2h1.92l3.841-2.561v-2.562l3.84-0.64l0.64-1.28h-2.56l-1.92-0.64l-2.561,0.64l-1.92-0.64
	l-2.56,0.64l-1.92,2.562l0.64,1.278l2.56,0.642l-1.279,1.279l-0.641,1.279l-3.84,3.2l-0.64-1.28l1.92-1.92l-1.28-2.561l0.641-0.642
	l2.56-0.64v-1.28l-2.56-2.56l1.279-1.92l-1.92-0.643l-1.92,2.562l-3.2,2.56l-0.64,1.92l-1.28,0.642v-0.642l-3.2,4.48l-1.92,1.279
	l-2.56,2.561l-1.28,2.56l-0.64,1.92l0.64,2.562h-1.92l-1.92-1.28c-1.28,0.642-3.2,1.92-3.84,2.562l0.64-2.562l0.641-0.64
	l-0.641-0.643l-0.64-1.277h-2.561v2.56h-1.279l-0.641-0.64l0.641-3.2l-0.641,0.64l-1.279,3.2l-0.641,2.562l-1.279,0.641v1.92v1.92
	l-1.28,2.562v-2.562l-0.64,2.562h-1.28l-1.92,4.479l-1.28-0.64v-3.2l1.28-3.2l1.279-3.2c0.641-1.92,1.28-3.199,1.921-5.12
	l0.64-1.277v-0.643l0.64-1.277v-1.921l1.28-1.921l1.92-2.561l1.28-1.28v-0.64v-0.641l0.64-1.922c0-1.277,0-2.56,0.64-3.197
	l0.641-1.92v-2.562l1.92-3.199h0.64l1.28-2.561l1.28-1.28v-1.279l-1.28,1.279l0.64-1.92l1.28-1.28l0,0h0.64v-1.277l-1.279,0.64
	l-1.28,1.92h-1.92l-2.561,4.479l-1.279,3.2l-1.92,3.198l-1.92,3.84l0.64,0.643l-0.64,1.92l-0.641,0.64c0,1.28-0.64,3.2-0.64,3.841
	l0.64,2.562l-0.64,0.64l-0.64,1.92l0.64-2.56l-0.64-1.92l-1.921,2.56v1.92l-1.279,1.92h-0.641l-1.92,2.562h-0.64
	c0-0.642,0.64-0.642,0.64-1.28l1.92-1.92l0.641-0.64c0.64-1.92,1.279-3.2,2.56-5.12v-1.28l1.28-1.92v-1.28l0.64-2.56v-1.28
	c1.28-3.2,2.561-5.76,3.2-8.96l3.2-3.84v-1.28l-0.641-1.279l0,0l-1.279,1.279l0,0l-3.2,1.92l0.64-1.92
	c-5.76,8.32-10.88,16.641-15.359,25.602v0.641l-0.641,1.28v0.64l1.28-0.64v1.277l-1.28,1.921l1.28-0.641l-0.64-0.64l-1.28,1.278
	l-1.28,3.199v1.28l-2.56,3.2l-1.28,1.279l-1.28,2.561v0.64l-1.279,2.562v1.278v3.199h0.64v1.921v3.199l-1.28,3.84
	c0.641,1.921,0.641,3.2,0.641,5.12v3.84l1.279-0.64l1.28-1.28l1.28-3.84l1.28-1.92l1.92-1.28h1.279l1.92,3.2l-0.64,2.561l0.64,0.642
	v1.278l1.28,1.921v0.641l2.56,1.28c1.28,1.92,1.921,3.84,3.2,5.76l1.92-0.64v-1.285h0.001V708.63z M-849.015,667.03L-849.015,667.03
	l-0.641,1.278l-1.279,1.92l0.64-2.56v-1.28l0.64-3.2l0.641-1.92l0.64,1.92c0.64,0.643,1.28,0.643,1.92,1.28L-849.015,667.03z"/>
</svg>
