<?xml version="1.0" encoding="utf-8"?>
<!-- Generator: Adobe Illustrator 16.0.0, SVG Export Plug-In . SVG Version: 6.00 Build 0)  -->
<!DOCTYPE svg PUBLIC "-//W3C//DTD SVG 1.1//EN" "http://www.w3.org/Graphics/SVG/1.1/DTD/svg11.dtd">
<svg version="1.1" id="Layer_1" xmlns="http://www.w3.org/2000/svg" xmlns:xlink="http://www.w3.org/1999/xlink" x="0px" y="0px"
	 width="11px" height="11px" viewBox="-936.5 460.607 11 11" enable-background="new -936.5 460.607 11 11" xml:space="preserve">
<path d="M-928.273,461.802l-0.023-0.011l-0.034-0.012c-0.024-0.023-0.047-0.047-0.059-0.059c-0.047-0.036-0.082-0.059-0.128-0.082
	h-0.023l-0.046-0.035l-0.012-0.012c-1.07-0.628-2.339-0.872-3.561-0.663c-1.105,0.198-2.142,0.769-2.91,1.595
	c-0.011,0.012-0.011,0.023-0.023,0.023l0.012-0.012l0.082-0.069h0.023v0.022l0.012-0.012v0.012l-0.012,0.012l0.035-0.023
	l0.023-0.022l0.035-0.035l0.035-0.047l0.059-0.059l0.023-0.011l0.023-0.012l0.012,0.012l0.023-0.012h0.023l-0.034,0.035
	l-0.023,0.012l-0.036,0.022l-0.011,0.023l-0.023,0.023l0.011-0.012l-0.058,0.035l-0.035,0.035l-0.023,0.023l-0.012,0.035
	l-0.023,0.022l0.023,0.011l0.024-0.011l-0.012,0.047l-0.023,0.022l0.023-0.011h0.082v0.023l-0.012,0.023l0.012,0.022l0.035-0.022
	h0.046l0.058-0.059l0.046-0.047l0.046-0.034l0.047-0.013l-0.035,0.058l0.023,0.013c0.035-0.023,0.058-0.058,0.082-0.07h-0.012
	l0.012-0.033l0.035-0.036h0.023l0.035,0.011l0.012,0.024l0.022,0.011l0.059-0.021l0.011-0.048l-0.046-0.022h-0.058l-0.035-0.023
	l0.023-0.035l0.012-0.034l0.058-0.06l0.058-0.057l0.047-0.024l0.058-0.023l0.105-0.034h0.023l0.035-0.024l0.012-0.046l-0.047-0.014
	l-0.058,0.025l-0.046,0.034c-0.058,0.013-0.105,0.035-0.163,0.047l-0.117,0.094l-0.046,0.058l-0.023,0.046l-0.082,0.059h-0.035
	c-0.058,0.047-0.116,0.094-0.175,0.141l-0.011-0.023l-0.035,0.022l-0.012-0.022c0.081-0.082,0.163-0.176,0.256-0.269l-0.07,0.012
	h-0.023l0.035-0.058c0.07-0.059,0.151-0.128,0.233-0.175l0.046-0.023h0.058l0.07-0.023c0.082-0.034,0.174-0.059,0.268-0.105
	c0.058-0.012,0.128-0.022,0.186-0.045h0.058l0.023,0.022l0.082-0.022l0.023,0.022l0.046,0.011v0.059h-0.058l-0.024,0.047
	l0.047-0.011l-0.012,0.058l0.046,0.047l0.024,0.093l-0.024,0.023l-0.046,0.046l-0.058,0.035h-0.059
	c-0.022-0.022-0.046-0.058-0.058-0.094h-0.023l-0.011,0.059l-0.082,0.07l0.011,0.035v0.023l0.035-0.023l0.012-0.035l0.046-0.014
	l0.035,0.06h0.046l0.023-0.058l0.127-0.035l0.023,0.012l0.012,0.035l0.058-0.035l0.012-0.046l0.058-0.035l0.012-0.047l0.059,0.047
	l-0.012,0.035h-0.047l-0.035,0.034l0.011,0.033h0.059l0.046-0.033c0.082-0.012,0.163-0.023,0.256-0.023l0.023,0.012l-0.058,0.035
	l0.046,0.023l0.059,0.012l0.07-0.012l0.012,0.046l0.07-0.034l-0.024-0.059l0.035-0.012l0.093,0.045l0.046,0.037l0.105,0.092
	l0.046-0.034l-0.023-0.046l0.012-0.012l-0.035-0.012l0.035-0.025l0.012-0.057l0.011-0.022l0.105-0.047l0.058-0.048l0.035-0.011
	l0.093,0.035l-0.023,0.047l-0.058,0.035l0.012,0.022l-0.012,0.045l-0.058,0.082l0.035,0.047l-0.047,0.047l-0.14,0.068h0.059
	l0.035-0.021l0.058-0.011l0.023-0.036l0.058-0.022l-0.011-0.047l0.046-0.047h-0.046l0.011-0.035l0.058-0.058l-0.035-0.058
	l0.093-0.036l0.012-0.047h0.023l0.012,0.036l-0.047,0.059l0.047,0.011v-0.047l0.07-0.022h0.081l0.058,0.047l-0.011-0.013
	l0.023-0.059l0.07-0.012l0.093,0.012h0.093l-0.023-0.034l0.058-0.035h0.047l0.081-0.022h0.105l0.012-0.012h0.105l0.035,0.012
	l0.082-0.035h0.07l0.011-0.023l0.035-0.023l0.082-0.035l0.058,0.012l-0.046,0.023h0.082l0.023,0.023l0.035-0.013l0.104-0.011
	l0.093,0.023l0.046,0.023V462l-0.058,0.035l-0.081,0.045h-0.023c0.046,0,0.07,0.012,0.116,0.012l0.035-0.012l0.035,0.036
	l0.012-0.024l0.058-0.012h0.128l0.023,0.024l0.163-0.013l-0.023-0.046h0.082l0.059-0.011l0.07,0.022l0.046,0.034v0.035l0.07,0.036
	l0.07,0.012l-0.012-0.059l0.07,0.011l0.047-0.022h0.07l0.011-0.024h0.058l-0.082-0.045l0.024-0.035
	c0.104-0.012,0.104-0.012,0.279-0.048l0.058,0.024l0.117,0.012l0.082-0.06l0.058-0.011l0.046,0.011l0.047,0.047h0.046l0.012-0.023
	l0.035-0.023l0.046-0.011l0.023-0.035l0.081,0.023l-0.011-0.034l-0.059-0.025l-0.022-0.021l0.058-0.023l0.024-0.036l0.057-0.01
	h0.047c0.059,0.034,0.093,0.058,0.151,0.091c-0.047-0.033-0.093-0.057-0.151-0.092h0.059l0.069,0.011l0.047,0.036l-0.059-0.036
	l0.012-0.034l0.058,0.012l0.035,0.034l0.011,0.035l0.093,0.059l0.012,0.012v0.035h-0.047l-0.035-0.023l-0.011,0.023v0.023
	l-0.023-0.013l-0.023-0.022l0.012,0.035l0.035,0.023l0.023,0.022c-0.046-0.023-0.07-0.059-0.116-0.069
	c0.046,0.023,0.07,0.058,0.116,0.081l0.023,0.035l-0.011,0.012l0.046,0.012l0.058,0.033l0.023,0.013l0.035,0.023l0.023,0.023h-0.035
	l0.023,0.081v0.022l0.023,0.06l0.023,0.059l0.023,0.034l-0.07-0.046v0.08h-0.046l0.012,0.048l-0.047,0.01l0.035,0.048l0.035,0.07
	l0.023,0.023h0.046l0.082,0.093l-0.023,0.023l0.035,0.059l0.035,0.022l-0.023,0.035l0.058,0.082l-0.035,0.046l0.047,0.07v0.081
	l-0.046-0.047c-0.07-0.069-0.151-0.162-0.221-0.233l-0.058-0.092l-0.012-0.059l-0.023-0.036l0.035-0.033
	c-0.012-0.059-0.035-0.128-0.047-0.187l-0.023-0.07l-0.058-0.081l-0.023,0.022l0.046,0.059v0.094l-0.093-0.059l-0.058,0.059
	l0.023,0.139l0.058,0.036l-0.058,0.046l-0.047,0.023l-0.035-0.048l-0.058,0.013l-0.023,0.045l-0.128-0.01l-0.116,0.059l-0.058,0.163
	l-0.071,0.209l0.082-0.012l0.059,0.047h0.058l0.011-0.046l0.058-0.012l0.117,0.058l0.046,0.059v0.081l0.047,0.081l0.046,0.128
	l-0.023,0.129l0.011,0.059c-0.034,0.081-0.058,0.174-0.081,0.268l-0.082,0.058l-0.047,0.012l-0.058-0.035l-0.058,0.07v0.023h-0.023
	l-0.047,0.023v0.035l0.023,0.058l-0.035,0.023l0.012,0.012l-0.023,0.034l-0.035,0.023l-0.023,0.023l0.012,0.035v0.012l0.035,0.012
	l0.035,0.034l0.082,0.082l0.035,0.059l0.034,0.092l-0.023,0.024l-0.058,0.022l-0.046,0.047l-0.058,0.022l-0.023-0.046V464.7
	l-0.058-0.082l0.046-0.023l-0.058-0.058l-0.047-0.012v0.023h-0.011l-0.012-0.012h-0.023l-0.012-0.023l0.012-0.046l0.012-0.012
	l-0.012-0.013v-0.046h-0.058l-0.047-0.023l-0.081,0.035l-0.046,0.047l-0.069,0.023l0.034-0.047l-0.023-0.035l0.047-0.058
	l-0.047-0.047l-0.058,0.035l-0.058,0.057l-0.035,0.059l-0.069,0.013l-0.035,0.045l0.058,0.059l0.058,0.012l0.012,0.036l0.058,0.022
	l0.058-0.059l0.07,0.024h0.047l0.023,0.047l-0.082,0.011l-0.023,0.059l-0.059,0.059l-0.035,0.045l0.082,0.047l0.046,0.069
	l0.058,0.07l0.07,0.058l0.012,0.058l-0.035,0.036l0.023,0.047l0.059,0.022v0.07l-0.011,0.07l-0.047,0.011
	c-0.034,0.07-0.058,0.151-0.093,0.221l-0.056,0.117c-0.058,0.059-0.14,0.116-0.209,0.175l-0.082,0.011l-0.059,0.047l-0.035-0.022
	l-0.046,0.045l-0.116,0.059l-0.094,0.024l-0.023,0.093l-0.058,0.012l-0.035-0.059l0.023-0.034l-0.117-0.025l-0.046,0.025
	l-0.082,0.046l-0.07,0.082l-0.023,0.058c0.058,0.059,0.105,0.139,0.163,0.197l0.082,0.059l0.058,0.069l0.046,0.164l-0.011,0.162
	l-0.07,0.059l-0.116,0.059l-0.07,0.069l-0.116,0.082l-0.036-0.059l0.023-0.059l-0.07-0.059l-0.082,0.012l-0.046-0.046l-0.058-0.094
	l-0.058-0.022h-0.07l0.012-0.07h-0.082l-0.012,0.093c-0.035,0.069-0.058,0.14-0.081,0.211l0.011,0.057h0.058l0.047,0.082
	l0.023,0.069l0.058,0.059l0.058,0.022l0.059,0.047l0.023,0.011l0.059,0.059l0.046,0.059v0.059l-0.012,0.047l0.012,0.034l0.012,0.059
	l0.035,0.023l0.035,0.069v0.035l-0.093-0.013l-0.082-0.059l-0.104-0.057l-0.011-0.047l-0.059-0.059l-0.035-0.104l-0.035-0.058
	l0.012-0.059l-0.023-0.048l-0.046-0.033l-0.023-0.047l-0.093-0.093v0.081l-0.023-0.059l0.012-0.058l0.035-0.082l-0.011-0.059
	l0.035-0.058l-0.035-0.059l0.011-0.093l-0.046-0.047l-0.035-0.104l-0.023-0.116l-0.035-0.082l-0.058,0.047l-0.093,0.069
	l-0.058-0.011l-0.058-0.023l0.035-0.104l-0.023-0.082l-0.07-0.104l0.012-0.036l-0.058-0.012l-0.058-0.068l-0.023-0.047v-0.047
	l-0.023-0.045l-0.047-0.059l-0.081-0.012l0.011,0.035l-0.035,0.058l-0.046-0.022l-0.012,0.011h-0.058l-0.012,0.034h-0.058
	l-0.116,0.013v0.059l-0.059,0.058l-0.14,0.058l-0.104,0.094l-0.07,0.059l-0.093,0.058v0.047l-0.046,0.023l-0.07-0.012h-0.047
	l-0.035,0.059l0.012,0.116v0.069l-0.047,0.081v0.152h-0.046l-0.046,0.069l0.035,0.034l-0.093,0.012l-0.011,0.07l-0.036,0.022
	l-0.082-0.093c-0.022-0.069-0.046-0.151-0.058-0.221l-0.035-0.047l-0.047-0.093c-0.011-0.059-0.011-0.116-0.035-0.162l-0.07-0.129
	c-0.011-0.093-0.023-0.186-0.035-0.291l0.012-0.105l-0.012-0.08l-0.116,0.034l-0.058-0.023l-0.093-0.116l0.046-0.034l-0.012-0.036
	l-0.07-0.092l-0.058-0.036l-0.012-0.047l-0.058-0.08h-0.128l-0.116-0.023l-0.105-0.012l-0.128-0.059l-0.07-0.023l-0.07-0.035v-0.104
	l-0.034-0.024h-0.059l-0.07,0.024l-0.07-0.047l-0.046-0.058l-0.058-0.048l-0.024-0.092l-0.012-0.129h-0.034l-0.036-0.046
	l-0.034,0.022h-0.012v0.244l0.023,0.036v0.034l0.035,0.046l-0.012,0.036l-0.011,0.034v0.035l0.011,0.035v0.058l0.012-0.059
	l0.035-0.046h0.023l0.012,0.034l-0.012,0.059l-0.034-0.011v0.034h0.011v0.023h0.059c0.035,0.011,0.058,0.023,0.082,0.035
	l0.058-0.059c0.046-0.034,0.069-0.057,0.116-0.082l0.023-0.022l0.011,0.012l-0.011,0.034h-0.011l-0.012,0.07l0.023,0.059
	l0.035,0.047l0.047,0.022l0.046,0.022c0.011,0.036,0.023,0.059,0.035,0.083l0.023,0.023v0.022c-0.023,0.023-0.035,0.046-0.058,0.07
	l-0.036,0.023l-0.058,0.034l-0.035-0.011l-0.012,0.021l-0.023,0.048v0.059l-0.011,0.012c-0.012,0-0.024,0-0.035-0.012l-0.046,0.023
	l-0.012,0.046l-0.023,0.012l-0.046-0.012l-0.035,0.023v0.035h-0.012l-0.034-0.024l-0.047,0.024h-0.035l-0.058,0.01l-0.023,0.035
	l-0.012,0.036l-0.058,0.034h-0.081l-0.058,0.047h-0.035l-0.023-0.011l-0.047,0.022l-0.046,0.012l-0.059-0.012h-0.011l-0.012,0.023
	v0.022l-0.035-0.011l-0.023,0.011l-0.046-0.022v-0.058l0.012-0.059l-0.012-0.036v-0.069l-0.012-0.047h0.012v-0.045l0.012-0.011
	v-0.094l-0.012-0.023v-0.034l-0.012-0.012v-0.152l-0.035-0.07l-0.023-0.021l-0.012-0.095l0.012-0.057l0.012-0.059v-0.104
	l-0.012-0.047l-0.023-0.023v-0.058l0.012-0.024v-0.047l-0.012-0.022v-0.069c0-0.059,0-0.095-0.012-0.152l-0.023-0.012l0.035-0.034
	l0.012-0.035l0.023-0.035v-0.012l-0.023,0.036l-0.035,0.058l-0.011,0.046l-0.012,0.012c0-0.024-0.012-0.058-0.012-0.069l0.023-0.128
	l-0.011,0.011l-0.023,0.093c0,0.082-0.012,0.164-0.023,0.244v0.105l0.012,0.105l-0.012,0.012l-0.012,0.058l0.035,0.093v0.024
	l-0.012,0.092l-0.011,0.013l-0.012,0.069v0.104c0,0.036,0.012,0.059,0.023,0.071l0.012,0.116v0.081l0.023,0.059l0.058,0.104
	c0.023,0.059,0.046,0.104,0.058,0.163l0.023,0.035l0.023,0.047v0.034l-0.035-0.011c0.012,0.022,0.023,0.046,0.046,0.06l0.011,0.045
	l0.024,0.046l0.035,0.012h0.058l0.058,0.012l0.058-0.012h0.035l0.023-0.012c0.023,0,0.035,0.012,0.058,0.012l0.035-0.012h0.035
	l0.035-0.022l0.023,0.011v0.023l-0.011,0.059v0.046l-0.035,0.035l-0.023,0.094c-0.046,0.104-0.082,0.21-0.128,0.302
	c-0.047,0.058-0.07,0.129-0.116,0.176l-0.105,0.022l-0.082,0.059l-0.035,0.058l-0.059,0.082l-0.012,0.046l-0.011,0.012l-0.035,0.022
	v0.024h-0.023v0.058l-0.012,0.035v0.059l-0.012,0.023l-0.012,0.093l0.012,0.059l0.035,0.046l0.012,0.023v0.011l0.011,0.024v0.046
	c0.023,0.046,0.047,0.094,0.059,0.151l0.022,0.022l0.024,0.048l0.023,0.069c0.023,0.058,0.046,0.128,0.058,0.186l0.023,0.048v0.104
	l-0.012,0.034c-0.023,0.012-0.046,0.023-0.058,0.023l-0.035,0.023v0.011l-0.011,0.048l-0.012,0.011l0.023,0.059
	c0.023,0.035,0.058,0.07,0.07,0.105l0.011,0.023h0.012l0.035,0.057l0.012,0.036l0.012,0.022l0.012,0.024v0.023l-0.035-0.035
	l-0.035,0.012v0.023l0.023,0.034l0.012,0.012c0.011,0.022,0.023,0.059,0.047,0.07l0.035,0.058l0.011,0.022v0.024l0.012,0.023
	l0.011,0.035l0.012,0.033c0.012,0.024,0.012,0.048,0.023,0.07c1.036,1.199,2.595,1.862,4.178,1.805h0.035
	c1.978-0.093,3.771-1.338,4.562-3.154c0.861-1.978,0.373-4.364-1.187-5.854C-927.83,462.139-928.04,461.952-928.273,461.802
	L-928.273,461.802z M-932.265,461.907c-0.082,0-0.163,0.011-0.256,0.011l-0.139,0.034c-0.058,0.036-0.128,0.058-0.186,0.083
	l-0.035,0.045l0.023,0.059h-0.023l-0.104-0.034l0.011-0.024l-0.046-0.033l0.023-0.037h0.047l0.035-0.033l0.105-0.035l-0.023-0.013
	l0.116-0.034l0.012-0.022c0.07-0.012,0.151-0.025,0.221-0.025l0.104,0.014l0.07-0.014h0.058l0.012,0.025L-932.265,461.907
	L-932.265,461.907z M-934.801,469.365l-0.035,0.013c-0.035-0.023-0.058-0.046-0.082-0.059l-0.035-0.046l-0.035-0.059l-0.058-0.059
	l-0.036-0.058l-0.012-0.047h0.023l-0.012-0.023v-0.046l-0.012-0.058V468.9l-0.035-0.059l-0.036-0.058v-0.035l-0.011-0.048
	l0.023,0.013l0.023-0.013l0.023-0.011l0.023,0.011l0.023-0.033l0.035-0.036l0.011-0.034l-0.022-0.035l0.035,0.023l0.023-0.046
	l-0.011-0.047l0.011-0.035c0.023,0.023,0.035,0.058,0.058,0.07l0.035,0.058l0.035,0.095l0.024,0.045v0.082l-0.035-0.059v0.023
	l0.035,0.059v0.034l-0.012,0.011l0.023,0.059c0.011,0.094,0.023,0.187,0.034,0.28c0.011,0.059,0.024,0.104,0.036,0.163
	L-934.801,469.365L-934.801,469.365z M-932.637,467.33l-0.046,0.033l-0.082,0.013l-0.035-0.069l-0.011-0.129l0.046-0.139
	l0.058,0.058l0.047,0.058l0.046,0.094L-932.637,467.33L-932.637,467.33z M-928.168,463.792l0.058,0.012l0.046,0.012l0.023-0.047
	l0.058,0.081l-0.082,0.046l-0.012,0.082l-0.105-0.034l0.012,0.093l-0.059,0.023l-0.046-0.069v-0.059l0.058-0.023l-0.034-0.104
	l-0.012-0.07L-928.168,463.792L-928.168,463.792z M-928.529,463.28l-0.058-0.094l0.023-0.046l-0.046-0.036l0.011-0.011
	c0.035,0.034,0.058,0.069,0.093,0.104l0.047,0.07c0.058,0.059,0.116,0.128,0.174,0.175h-0.082l0.036,0.116l0.082,0.059l0.022,0.058
	l-0.058-0.035v0.059l-0.046-0.059l-0.036-0.069l-0.035-0.094l-0.023-0.046l-0.059-0.094L-928.529,463.28L-928.529,463.28z
	 M-928.599,464.815l0.023-0.058l0.058-0.059l0.035-0.058l0.116-0.059h0.07l0.024-0.163l0.058,0.035
	c0.035-0.047,0.058-0.093,0.069-0.14v-0.104l-0.046-0.082v-0.058l0.058-0.035l0.07,0.104l0.023,0.058l-0.023,0.094l0.035,0.082
	v0.068l0.023,0.048l-0.023,0.08l-0.058,0.059l-0.104,0.035l-0.058,0.117l-0.059-0.023l-0.023-0.059l-0.105,0.046l-0.058,0.059
	l-0.07,0.011l0.082,0.059l-0.011,0.152l-0.035,0.046l-0.046-0.034v-0.07l-0.059-0.023l-0.035-0.059L-928.599,464.815
	L-928.599,464.815z M-928.459,467.818l-0.023,0.012l-0.023-0.048l-0.023-0.104l0.023-0.069l0.035-0.035v0.046h0.046l0.012,0.035
	l-0.012,0.07h-0.046l-0.012,0.057L-928.459,467.818L-928.459,467.818z M-928.494,467.993l0.093-0.024l0.081,0.012l0.023,0.059
	l-0.058-0.023h-0.058l-0.047,0.011l-0.059,0.013L-928.494,467.993L-928.494,467.993z M-928.948,468.271l-0.035-0.022l0.046-0.07
	l-0.081,0.047l-0.012-0.023l0.012-0.034l-0.059-0.047l0.012-0.082l-0.058,0.035c0,0.069,0,0.139-0.011,0.21l-0.047,0.023
	l-0.012-0.023l0.035-0.071l-0.012-0.069h-0.035l-0.023-0.059l0.046-0.058l0.012-0.059l0.058-0.139l0.023-0.048l0.07-0.068
	l0.058,0.023h0.105l0.093-0.012l0.082-0.07l0.012,0.023l-0.058,0.094l-0.082,0.011l-0.07-0.011l-0.14,0.022l-0.07,0.024
	l-0.023,0.069l0.07,0.059l0.046-0.048l0.151-0.046l-0.012,0.046l-0.035-0.011l-0.046,0.059l-0.07,0.046l0.07,0.093l-0.023,0.036
	l0.058,0.08l-0.011,0.059L-928.948,468.271L-928.948,468.271z M-928.948,468.47l-0.012,0.046l-0.117,0.036h-0.104v-0.036
	l0.058-0.022l0.058,0.022l0.059-0.011L-928.948,468.47L-928.948,468.47z M-928.901,468.598l0.046-0.058l0.082-0.047l0.012-0.023
	l0.07-0.033l0.058-0.013l0.023-0.012l0.035,0.012l-0.035,0.022c-0.059,0.035-0.093,0.059-0.151,0.069l-0.059,0.059l-0.069,0.025
	h-0.012V468.598z M-928.61,467.225l-0.035-0.081l-0.035,0.058l0.024,0.059l-0.024,0.047l-0.093-0.047l-0.023-0.059l0.023-0.047
	l-0.058-0.035l-0.012,0.048h-0.046l-0.058,0.058l-0.012-0.023l0.035-0.082l0.059-0.034l0.046-0.046l0.035,0.035l0.058-0.035
	l0.012-0.046l0.058-0.012l-0.023-0.059l0.058,0.035c0.012,0.058,0.023,0.128,0.035,0.175L-928.61,467.225L-928.61,467.225z
	 M-928.785,466.816v0.082l-0.035,0.034l-0.023,0.071l-0.023,0.034l-0.058-0.058c0.011-0.023,0.023-0.035,0.035-0.059l0.012-0.058
	l0.046-0.012l-0.012,0.069L-928.785,466.816L-928.785,466.816z M-928.703,466.678l0.023,0.035l0.035,0.093l-0.058-0.012v0.035
	l0.023,0.059l-0.046,0.022v-0.058h-0.023l-0.011-0.059h0.035v-0.034l-0.046-0.071L-928.703,466.678L-928.703,466.678z
	 M-929.123,466.434v-0.14l0.023-0.082l0.058-0.012l0.058,0.023l0.023-0.023v0.023l-0.012,0.046l0.035,0.059l-0.011,0.07
	l-0.058,0.023l-0.012,0.07l0.023,0.069h0.047l0.035-0.011l0.105,0.034v0.058l0.035,0.023l-0.012,0.047l-0.058-0.034l-0.035-0.048
	l-0.022,0.035l-0.059-0.046l-0.07,0.011l-0.046-0.011v-0.048l0.023-0.021l-0.023-0.012l-0.012,0.033l-0.046-0.045l-0.012-0.047
	l-0.012-0.082L-929.123,466.434L-929.123,466.434z M-929.309,467.074l0.058-0.059l0.058-0.059l0.046-0.093l0.023,0.068l-0.058,0.059
	l-0.046,0.047l-0.117,0.094L-929.309,467.074L-929.309,467.074z M-930.065,467.807l0.058-0.07l0.058,0.023l0.07-0.023l0.023-0.07
	l0.046-0.022l0.104-0.034l0.059-0.071l0.046-0.057l0.035-0.035l0.07-0.059l0.058-0.059l0.046-0.069h0.035l0.046,0.046v0.047
	c0.047,0.011,0.082,0.035,0.128,0.047l-0.012,0.034l-0.058,0.012l0.011,0.046l-0.07,0.013l-0.058,0.081l0.058,0.07v0.046l0.094,0.07
	l-0.105,0.021l-0.035,0.059v0.07l-0.058,0.059l-0.012,0.094l-0.034,0.128l-0.012-0.035l-0.093,0.046l-0.035-0.046h-0.058
	l-0.046-0.023l-0.105,0.047l-0.035-0.047l-0.046,0.011h-0.07l-0.012-0.115l-0.046-0.023l-0.047-0.069l-0.012-0.059L-930.065,467.807
	L-930.065,467.807z M-929.25,468.563l-0.093,0.022l-0.058,0.023h-0.046l0.035-0.058h0.047l0.023-0.036l0.035,0.024l0.058-0.012
	V468.563L-929.25,468.563z M-930.542,468.365l-0.116-0.058l-0.046-0.059l-0.07-0.059l-0.047-0.069l-0.07-0.116l-0.082-0.07
	l-0.035-0.081l-0.035-0.059l-0.081-0.058l-0.035-0.071l-0.07-0.045l-0.093-0.094l-0.012-0.046c0.07,0,0.14,0.011,0.209,0.022
	l0.082,0.082l0.07,0.058l0.058,0.035l0.082,0.093h0.093l0.07,0.059l0.058,0.069l0.07,0.035l-0.046,0.07l0.058,0.034h0.035
	l0.011,0.059l0.035,0.046h0.059l0.046,0.059l-0.023,0.105v0.129l-0.105-0.013L-930.542,468.365L-930.542,468.365z M-930.053,468.552
	h-0.059l-0.046,0.012l-0.163-0.035l-0.012-0.035h-0.081l0.058-0.069h0.116l0.07,0.034h0.035l0.011,0.035h0.163l0.023-0.035
	l0.163,0.035l0.035,0.059h0.128l0.093,0.046l-0.093,0.047l-0.093-0.023l-0.07-0.023h-0.082l-0.081-0.012L-930.053,468.552
	L-930.053,468.552z M-928.32,470.32l-0.035,0.023l-0.046,0.046v-0.011l-0.059,0.034h-0.011l-0.023,0.012l0.011-0.035l0.023-0.034
	l0.012-0.035l0.023-0.023h0.046l0.07-0.034h0.023L-928.32,470.32L-928.32,470.32z M-927.446,469.332l-0.024,0.046l-0.023,0.046
	l-0.023,0.047l-0.035,0.059c-0.023,0.034-0.058,0.058-0.07,0.093l-0.023,0.035c-0.035,0.046-0.058,0.068-0.093,0.104l-0.059,0.048
	c-0.046,0.045-0.081,0.093-0.14,0.14h-0.023l-0.082,0.08l-0.012,0.024l-0.035,0.034l-0.059,0.023l-0.058,0.035
	c-0.035,0.023-0.058,0.047-0.082,0.059l-0.012-0.023h-0.023l0.035-0.035l-0.035,0.023l-0.07,0.059h-0.104v-0.035l0.023-0.047
	l0.011-0.023l-0.011-0.012h-0.047l0.035-0.034l0.012-0.048l-0.058,0.048l-0.058,0.023l0.058-0.035l0.035-0.036l0.046-0.034
	l0.023-0.046l-0.069,0.058l-0.047,0.022l-0.058,0.059l-0.057-0.011l0.022-0.035l-0.012-0.035l-0.023-0.012l0.023-0.012l-0.058-0.022
	h-0.047l-0.046-0.023l-0.117,0.023c-0.058,0.022-0.116,0.046-0.163,0.058l-0.058,0.011l-0.082,0.048l-0.059,0.023l-0.023,0.034
	l-0.035,0.022l-0.035,0.024l-0.046,0.012h-0.058c-0.035,0.012-0.058,0.012-0.093,0.022l-0.058,0.036h-0.023
	c-0.024,0.011-0.059,0.022-0.07,0.046c-0.035,0-0.058,0-0.093,0.012l-0.058-0.035l-0.023-0.011l0.011-0.035l0.035-0.013l0.012-0.011
	v-0.023l0.023-0.046V470.1l-0.023-0.059v-0.034l0.011-0.036l-0.023-0.034v0.012l-0.046-0.023v-0.116l0.035,0.023l-0.035-0.059
	l0.035,0.011l0.023,0.024l0.011-0.035l-0.035-0.047v-0.012l-0.012-0.023l0.012-0.046l0.023-0.023l0.023-0.035v-0.047l0.046-0.059
	v0.059l0.046-0.059l0.059-0.034l0.046-0.034l0.058-0.035l0.035-0.013l0.023,0.013l0.059-0.035l0.058-0.011l0.012-0.025l0.023-0.011
	h0.047l0.082-0.034l0.058-0.035l0.035-0.047l0.059-0.047c0.011-0.022,0.011-0.045,0.023-0.058l0.059-0.059l0.022,0.059l0.035-0.023
	l-0.023-0.035l0.035-0.047l0.035,0.012l0.023-0.057l0.059-0.049l0.023-0.034l0.046-0.023v-0.022h0.035v-0.024
	c0.023-0.012,0.058-0.022,0.07-0.034l0.058,0.022l0.035,0.048l0.046-0.012h0.047l-0.012-0.047l0.047-0.059l0.035-0.023l-0.011-0.022
	l0.046-0.059l0.058-0.035h0.035l0.059-0.023l0.011-0.046l-0.046-0.012l0.046-0.023l0.046,0.011l0.035,0.024l0.058,0.012l0.023,0.046
	l0.046,0.012l0.046-0.035h0.023l0.023-0.022l0.023,0.034l-0.035,0.046l-0.151,0.105l-0.023,0.012v0.035
	c-0.023,0.034-0.046,0.058-0.058,0.081v0.023l0.046,0.035l0.047,0.011l0.022,0.024l0.035,0.034h0.023l0.035,0.011v0.024l0.058,0.012
	l0.058-0.036c0.012-0.022,0.035-0.057,0.047-0.069l0.023-0.046l0.035-0.059v-0.034l0.012-0.023v-0.047l0.023-0.058l0.012-0.023
	v-0.023c0.023-0.035,0.035-0.058,0.046-0.081l0.012-0.024l0.047-0.046l0.011,0.035l-0.011,0.059h0.011l-0.011,0.035l0.011,0.034
	l-0.011,0.047v0.094l0.046-0.047l0.012,0.023l0.023,0.023l-0.011,0.047c0,0.034-0.012,0.057-0.012,0.093h0.012l-0.012,0.058h-0.093
	v0.047l0.046,0.023c0.012,0.011,0.035,0.035,0.047,0.047v0.022l0.011,0.036l-0.023,0.069l0.035-0.023l0.012,0.023l0.023-0.012
	l-0.035,0.07c0.012,0.022,0.012,0.034,0.023,0.046l0.011,0.047L-927.446,469.332L-927.446,469.332z M-927.133,468.261l-0.046,0.022
	l-0.011-0.022c-0.035,0.011-0.059,0.011-0.093,0.011l-0.036-0.034l-0.012-0.024l-0.011-0.058l-0.07-0.012l-0.058,0.047l-0.046,0.035
	v0.058l-0.058,0.047h-0.034l-0.059-0.012l-0.046-0.058h-0.058l-0.023,0.034l-0.082,0.023l0.046-0.069l0.046-0.036v-0.08
	l-0.023-0.059l-0.128-0.047h-0.058l-0.093-0.059l-0.036,0.059l-0.023,0.012l-0.012-0.034v-0.036l-0.058-0.034l0.082-0.047
	l0.058-0.012v-0.023c-0.035,0.012-0.07,0.012-0.105,0.023l-0.023-0.046h-0.058l-0.035-0.035l0.105-0.046l0.046-0.012l0.116,0.012
	l0.012,0.033l0.012,0.128l0.058,0.036l0.058-0.105l0.082-0.059c0.023,0,0.046-0.011,0.058-0.011l0.058,0.023l0.047,0.024h0.058
	l0.105,0.034l0.104,0.023l0.035,0.033l0.035,0.036v0.047l0.082,0.023l0.012,0.046l-0.059,0.022v0.059l0.047,0.049l0.023,0.068
	l0.035-0.012l-0.012,0.035h0.046h-0.035l0.058,0.012L-927.133,468.261L-927.133,468.261z M-926.981,467.841l-0.035,0.013
	l-0.012,0.022l-0.058,0.059c-0.012,0-0.023,0.012-0.035,0.012l-0.047-0.012l-0.035-0.012l0.011-0.034h0.058l0.035-0.023l0.012-0.047
	h0.012v0.047l0.035-0.024l0.023-0.034l0.035-0.046v-0.024l0.035-0.011l0.012,0.011l-0.012,0.046L-926.981,467.841L-926.981,467.841z
	 M-934.534,464.152l-0.011,0.023l-0.035,0.012l-0.011,0.046l-0.012,0.059l0.047,0.034l0.023,0.059l0.07,0.036h0.093l0.012-0.024
	l0.012-0.058l0.035-0.094l-0.035-0.022l0.035-0.059l-0.035-0.012l0.047-0.059l0.046,0.035l0.058-0.012l-0.023-0.058v-0.047
	l-0.059,0.01l-0.034,0.06v-0.06l0.012-0.021l0.035-0.036v-0.034l-0.046-0.035l0.012-0.069l-0.012-0.023l0.012-0.024l0.046,0.024
	l0.035-0.058h0.059l0.046,0.022l0.046-0.07l0.012-0.057l-0.058-0.012l-0.035-0.036l-0.07,0.023h-0.059l-0.046,0.046h-0.058
	l-0.082,0.059l0.012,0.082l-0.035,0.058c0,0.06,0.012,0.104,0.023,0.162v0.06l0.022,0.012l0.012,0.023l-0.046-0.013
	L-934.534,464.152L-934.534,464.152z M-935.639,464.455l0.035,0.012l0.023,0.023l-0.011,0.046l0.022-0.022l0.024,0.034l0.035,0.023
	l0.035-0.012l0.023-0.023v-0.012l0.023-0.034l0.035-0.059l0.012-0.023l0.046-0.058c0.012-0.024,0.036-0.035,0.047-0.059l0.023-0.059
	l0.023-0.035v-0.046l0.035-0.023h-0.035l-0.023-0.035l-0.093,0.059l-0.058-0.023l-0.011-0.058l-0.035-0.023l-0.011,0.034h-0.035
	l-0.012-0.06l-0.035-0.021l0.023-0.081v-0.06l0.047-0.058v-0.046l0.069-0.06l0.047,0.023l0.046-0.058l0.059,0.047l0.059-0.035h0.058
	l0.058,0.035l0.036,0.081l0.046,0.059l0.059,0.011l0.035,0.024l0.069-0.024l0.024-0.034l0.023-0.058l-0.012-0.035l-0.023-0.023
	v-0.035l-0.012-0.082l-0.035-0.046l-0.011-0.058h0.034l0.07-0.047v-0.047l0.07-0.011l0.011-0.023h-0.046l-0.035-0.013l-0.046,0.013
	l-0.035-0.013l-0.046,0.013l-0.035,0.046l0.012,0.023l0.046,0.012l-0.023,0.023l-0.012,0.023l-0.069,0.058l-0.012-0.023l0.035-0.034
	l-0.023-0.047l0.011-0.012l0.047-0.012v-0.023l-0.047-0.047l0.023-0.034l-0.035-0.012l-0.035,0.046l-0.059,0.047l-0.011,0.035
	l-0.023,0.012v-0.012l-0.058,0.082l-0.035,0.021l-0.046,0.048l-0.023,0.047l-0.012,0.034l0.012,0.047h-0.036l-0.035-0.023
	c-0.023,0.011-0.058,0.034-0.07,0.047l0.012-0.047l0.011-0.012l-0.011-0.012l-0.012-0.022h-0.046v0.046h-0.023l-0.011-0.012
	l0.011-0.059l-0.011,0.013l-0.023,0.058l-0.012,0.047l-0.024,0.012v0.069l-0.022,0.046v-0.046l-0.012,0.046h-0.023l-0.035,0.081
	l-0.023-0.01v-0.059l0.023-0.059l0.023-0.058c0.012-0.036,0.023-0.06,0.035-0.094l0.012-0.022v-0.012l0.011-0.023v-0.035
	l0.023-0.036l0.035-0.045l0.023-0.023v-0.023l0.011-0.035c0-0.023,0-0.047,0.012-0.059l0.012-0.034v-0.047l0.035-0.059h0.012
	l0.023-0.046l0.023-0.023v-0.024l-0.023,0.024l0.011-0.035l0.023-0.022h0.012v-0.023l-0.023,0.012l-0.023,0.034h-0.035l-0.047,0.081
	l-0.023,0.059l-0.035,0.059l-0.035,0.069l0.012,0.012l-0.012,0.034l-0.011,0.013c0,0.022-0.012,0.058-0.012,0.07l0.012,0.046
	l-0.012,0.012l-0.011,0.034l0.011-0.046l-0.011-0.035l-0.035,0.047v0.034l-0.023,0.035h-0.012l-0.035,0.047h-0.012
	c0-0.013,0.012-0.013,0.012-0.023l0.035-0.035l0.012-0.012c0.011-0.034,0.023-0.058,0.047-0.093v-0.023l0.023-0.035v-0.022
	l0.012-0.047v-0.024c0.023-0.057,0.046-0.104,0.058-0.162l0.058-0.069v-0.023l-0.011-0.023l-0.023,0.023l-0.058,0.035l0.012-0.035
	c-0.105,0.151-0.198,0.303-0.279,0.466v0.012l-0.012,0.022v0.012l0.022-0.011v0.022l-0.022,0.034l0.023-0.011l-0.011-0.011
	l-0.023,0.021l-0.023,0.059v0.024l-0.047,0.058l-0.023,0.023l-0.023,0.047v0.012l-0.023,0.046v0.082h0.011v0.092l-0.022,0.07
	c0.011,0.034,0.011,0.059,0.011,0.092v0.071l0.023-0.012l0.023-0.022l0.023-0.07l0.023-0.035l0.035-0.022h0.023l0.035,0.058
	l-0.012,0.047l0.012,0.012v0.023l0.023,0.033v0.013l0.046,0.022c0.023,0.036,0.035,0.07,0.058,0.105l0.035-0.011L-935.639,464.455
	L-935.639,464.455z M-935.756,463.699l-0.012,0.022l-0.023,0.035l0.011-0.047v-0.023l0.012-0.058l0.012-0.035l0.012,0.035
	c0.011,0.012,0.023,0.012,0.035,0.022l-0.046,0.046V463.699z"/>
</svg>
