<?xml version="1.0" encoding="utf-8"?>
<!-- Generator: Adobe Illustrator 16.0.0, SVG Export Plug-In . SVG Version: 6.00 Build 0)  -->
<!DOCTYPE svg PUBLIC "-//W3C//DTD SVG 1.1//EN" "http://www.w3.org/Graphics/SVG/1.1/DTD/svg11.dtd">
<svg version="1.1" id="Layer_1" xmlns="http://www.w3.org/2000/svg" xmlns:xlink="http://www.w3.org/1999/xlink" x="0px" y="0px"
	 width="650px" height="650px" viewBox="-1036.694 363.562 650 650" enable-background="new -1036.694 363.562 650 650"
	 xml:space="preserve">
<path d="M-566.329,677.546l-1.92-2.561l-0.64-1.279v-2.561l-1.28-1.28h-4.48l-2.56-2.56l-2.561-0.641l0.641-0.641l3.2-0.639
	l-1.28-3.201l2.56-1.92l3.2-0.64l-1.28-4.479l-1.279-1.921l-3.84,1.28h-3.199l-3.2,3.84l-2.562,2.561l-0.64,2.56l-3.2,1.92
	l-2.56,5.761l4.479,2.561l0.642,2.561c2.56,1.92,5.119,3.84,8.319,5.76l2.561,2.561l1.92-0.641l1.92,0.641l-2.56,1.279v3.199v1.92
	l-1.28,1.92l0.64,2.562l1.92,2.559l3.841-0.639l2.561,1.279l5.12-1.279l5.12-3.201v-1.279l-1.921-2.561l-1.279-5.119h-1.92v-3.201
	l-1.92,0.643L-566.329,677.546l3.84,0.641l0,0l2.562-2.561l-2.562-1.279l-1.92-2.562l-2.56,2.562L-566.329,677.546z
	 M-815.929,416.426c-1.28,0.64-2.562,0.64-3.2,1.28l-2.562,2.56l2.562-1.92L-815.929,416.426z M-822.969,419.626L-822.969,419.626
	c-0.642,0-1.92,0.64-2.562,1.28c-0.64,0-1.92,1.279-3.84,1.92l-1.92,1.279C-828.089,422.827-825.529,420.907-822.969,419.626z
	 M-424.889,689.066c-0.642-2.559-1.28-5.76-1.921-8.32l-1.279-2.559c0,3.199-0.642,7.039-1.28,9.6l-0.64,1.279l-0.642,1.92v-5.76
	l-1.278-2.559l-1.921-2.562v-1.92v0.641l-2.561-1.279l-0.64-0.641l-0.641-1.92l-0.641-1.279l-1.28-1.279l-1.279,2.559l0.641,1.281
	v2.559l-0.641,0.643v1.277l-0.641,0.643l-0.64,0.639v1.92l-0.642,1.281l-1.92,3.84l0.641,2.561l-0.641,3.84l-2.56,6.398
	l-0.641,8.961l-1.28,4.48l-1.92,5.119c0,0.641,0,1.281,0,1.92c-0.64,2.561-1.92,3.84-2.56,6.398l-1.28,1.281l-0.64,3.84l1.278,4.48
	l0.642,3.199l-0.642,5.121l0.642,7.039l-1.28,1.92l-1.28,3.84l0.641,0.641l-2.561,3.199l-0.641,3.201l-1.279,2.559l-2.561-1.92
	c-0.641-2.559-1.921-5.119-2.561-8.32l-1.28-1.277l-0.64-1.92l-1.28-4.48l-0.64-2.561l-3.2-3.199c-1.28-3.84-2.562-8.32-3.84-11.521
	l-1.28-5.121l-1.28-3.197l-3.84,5.76l-2.56,1.279l-5.12-2.561l1.28-2.561l-1.28-1.279l-4.48-1.281l-2.56,0.643l-1.92-2.562
	l-3.2-1.92l-5.76,4.48c-3.2,2.561-7.04,3.84-10.24,6.398l-7.04,2.562l-2.561,1.92l-3.84,1.279l-2.561-4.48h-1.914l-3.2,1.92
	l-3.2,3.201l-5.118,0.639l-4.48-1.92h-3.84l-3.2-3.199l-3.84-4.479l-1.92,1.92l-2.561-0.641l-1.279,2.561l-2.562,0.639l1.28,1.92
	v0.643c1.28,2.559,2.561,3.84,3.84,6.398l2.562,0.641l1.278,1.279l2.562,1.279l0.64,1.92v1.279l0.641,1.281l1.279,0.639l0.641,1.281
	l0.641,0.639l-0.641-2.559l0.641-2.562l1.279-1.277l1.28,1.277l0.64,2.562l-0.64,2.559l1.279,1.281l0.641-0.641l0.64,1.279
	l2.562-1.92c1.92-0.641,3.84-1.281,5.76-1.92c2.561-3.84,4.479-7.68,6.399-11.52l0.641-1.922h0.64v1.922l-0.64,1.277l1.28,3.201
	l2.56,2.561l2.562,0.641l2.56-0.641l0,0c1.28,1.279,2.562,1.92,3.2,2.561h1.28c0,0.639,0,0.639,0,1.279
	c-0.642,1.92-1.28,2.561-1.28,4.479l-1.28,2.562l-1.279,3.199l-1.92,0.641l-0.641,1.279l-0.641,2.561l0.641,2.561l-0.641,0.641
	c-0.64,0-1.279,0.639-1.92,0.639l-2.56,2.562v2.559l0.64-0.639l-1.279,0.639l-1.28,1.92v1.92l-1.92,1.92l-2.561,0.643l-2.561,2.559
	l-1.921,1.281l-2.56,2.559l-0.64,2.562v1.92l-3.842,2.559l-6.398,4.48l-3.2,3.84l-1.92,0.641h-1.28l-2.56,2.561l-2.562,1.92
	l-3.199,1.279l-1.921,1.922l-1.278,1.277l-1.28,0.643l-0.64,1.279l-2.562,0.641l-1.279,1.279l-2.562,0.637v-4.48v-2.561l-1.28-0.641
	l-0.64-2.561l-1.28-1.279l1.28-0.641l-0.641-1.92l0.641-1.279l-0.641-1.92l-0.64-1.92l-1.28-1.279l-0.64-1.92h-1.92l-2.56-2.561
	l-1.921-3.84l-3.199-2.561h-2.562l-3.2-3.201l-0.64-2.559v-2.562l-2.561-4.479l-2.561-1.279l-2.561-0.641l-1.92-2.561v-1.279
	l-1.921-2.561l-1.278-0.641l-2.562-2.561c-1.92-1.92-3.84-3.84-5.76-5.76l-2.561,0.641l0.641-2.561v-1.92l0.64-1.92l0,0
	l-1.279,2.559v3.201l-1.279,2.561l-1.28,1.279c-1.279-1.279-2.561-1.92-3.84-2.561l-3.841-5.76l-0.64,0.641l2.561,4.479l3.199,3.842
	l3.841,6.398l1.92,2.561l1.92,2.561l4.479,3.84h-0.641l0.641,2.561l5.761,2.561l1.279,0.641l1.92,3.84l-1.279,1.279l1.279,4.48
	l1.92,4.479c1.921,0.641,2.561,1.279,4.479,1.92l2.562,4.48l1.92,3.199l2.56,1.92l6.4,2.561c2.56,1.92,4.479,2.561,6.399,4.48
	l2.561,0.639l1.28,1.281v1.92l-2.562,2.561c1.28,0.641,2.562,0.641,3.2,1.279l1.28,1.92l2.56,1.279l2.562-0.639l3.84-2.562
	l4.479-1.92l3.841-2.559l2.561-1.281l1.92-1.279c1.28-0.641,2.56-1.279,3.84-1.92l1.92-1.279l2.562-1.279l1.92-2.562l1.92-0.639
	v1.279l-0.64,2.561v3.199l-0.642,1.92l-1.92,4.48c-1.92,3.84-2.56,7.68-4.479,11.52l-3.842,7.041c-2.56,3.84-5.76,8.32-8.959,12.799
	l-4.479,4.48c-3.84,2.561-7.68,6.398-10.88,8.961l-7.682,5.119l-1.278,2.561l-1.28,1.279l-3.84,1.279l-1.28,1.92l-1.919,0.645
	l-1.28,2.561l-1.92,1.922l-1.28,2.559l-1.92,1.92l-2.56,4.48v1.92l2.56,0.641v0.639l-1.92,2.562v1.279l-0.64,1.92l1.28,1.92
	l1.278,2.561h1.92l1.28-1.281l-0.64,2.562v2.559l-1.28,4.48l0.64,1.279l-1.92,2.561l-2.56,2.561l-2.561,2.561
	c-2.561,1.281-6.399,2.561-8.961,3.84l-5.76,3.201h-1.92l-3.2,2.559l-1.92,0.643l-0.64,1.92l1.92,1.277l0.64,1.281v0.639h0.641
	l-0.641,2.562l-1.279,1.279h0.641l-1.28,0.641l-1.92,1.279c-2.561,1.279-5.76,2.561-8.96,2.561l-2.561,1.279v0.641h1.28
	l-0.641,1.279l-1.92,1.92l-1.28,1.281l-1.28,1.279c-1.279,0.641-2.561,1.279-3.84,1.92l-2.561,1.279l-1.92,1.279l-2.56,1.281
	c-2.562,1.279-5.121,2.559-8.32,3.199l-3.2,0.641l-3.84,1.279h-1.92l-0.641,0.641h-2.561l-1.92,0.639h-2.561l-2.561,0.643h-1.92
	l-3.84,0.639l-3.2,0.641l-2.561,0.641h-1.92l-1.921-0.641h-1.278l-1.92-0.641l0,0l-0.642-0.639v-0.643l-1.278-1.279h1.278v-1.279
	l-1.278-1.92c-1.921-1.279-3.2-2.561-5.12-3.199l-2.561-1.281l-1.921-1.277l-1.279-1.922l-1.279-1.279l-1.92-2.561v-2.561
	l-0.642-1.279l-1.92-1.279l-3.199-3.199l-2.561-2.562l-1.279-1.92l-3.841-2.559l-0.64-1.281l-0.641-1.92l0.641-2.561l1.92-2.561
	v-1.279l1.92-2.561l1.279-1.279l2.561-1.92l1.92-1.281l0.641-2.559v-1.92l-1.92-1.281c-1.28-1.279-1.92-2.559-2.561-3.199v1.275
	l1.92-1.279c-1.28-1.92-1.92-3.201-2.561-5.121l-2.561-2.559l0.641-0.641l-0.641-1.279l-1.92-1.92l-3.84-3.84l-5.12-3.842
	l-3.2-2.561l-2.56-3.84v-1.279l1.278-1.279l1.28-2.561l1.28-2.561l-1.28-0.641l1.92-3.84l0.641-2.561l-1.92-2.561l-2.561-0.641
	l-1.28-1.92l-1.278-0.641v-1.279l-5.12,1.279l-1.92-0.641l-1.921,0.641l-3.833-0.637l-5.119-3.199l-1.92-2.561l-3.199-2.561
	c-2.562-1.279-5.762-1.279-8.32-1.92h-3.84h-3.84l-8.32,1.279l-2.561,0.641h-4.48l-4.48-2.561h-2.56l-3.2-1.92l-2.56-0.641
	l-5.761-0.641c-2.561,0-5.119,0.641-8.319,0.641l-1.28-0.641l-1.28-0.639l-4.479-3.201l-4.48-3.84l-3.84-3.199l-3.198-3.84
	l-1.28-0.643l-3.841-2.559l-2.561-3.201l-0.64-1.92l-0.642-3.199l-1.92-2.561l-1.279-2.561l-1.279-1.279l-1.28-1.279l-0.64-1.92
	l-0.642-1.281l-1.278-1.279l-1.92-1.92l-1.922-0.641l-1.278-1.92v-0.641l-1.28-1.279c-0.64-1.92-0.64-2.561-0.64-4.48l0.64-1.92
	l-1.28-3.84l-1.92-2.561h1.92l2.562-2.561l1.278-1.92v-2.561l1.28-1.92l1.28-3.84v-4.479v-2.562l0.64-1.92l-0.641-2.555l-1.92-2.561
	c0.64-1.279,0.64-2.561,1.28-3.199l1.92-0.641l1.92-1.92v-1.92l1.92-2.561l2.56-1.92h1.92l1.92-2.561l0.642-2.561l1.92-2.561
	l2.56-0.641l3.2-3.199l2.562-1.281l3.84,0.643l3.84-1.92l2.56-0.643l3.841-2.559v-3.201l2.561-3.199l1.28-2.561l3.198-2.561
	l4.48-0.641l3.2-1.279l3.84-3.84l1.92-2.561l3.2,0.641l2.56,2.561l3.841,0.641l4.479,2.559l1.92,0.643l4.479-1.92h5.119l3.2-1.281
	l4.48-0.641c5.12,0,10.239,0.641,15.358,1.279l2.562,1.92l4.479-1.277l5.12,0.639l1.92,1.281h2.562l5.12-1.281l3.199,0.641v2.561
	l3.84-1.279v1.279l-2.561,2.561v2.561l1.92,1.279l-0.64,3.842l-3.2,2.559l0.641,2.561h2.561l1.279,2.561l1.921,0.641l5.76,1.92
	l1.92-0.641l3.84,1.281l6.4,2.559l2.56,3.84c3.2,0.643,7.682,1.92,10.88,2.562l5.12,2.559l2.562-1.277l2.56-2.562l-1.28-3.199
	l1.28-2.561l3.2-2.561l3.2-0.641l6.398,0.641l1.92,1.92h1.922l1.92,0.641h4.479l1.28,1.281l6.399-0.643
	c3.841,0.643,7.681,1.281,11.521,2.562l3.2-1.92l1.92-1.922l3.84-1.279h3.2l1.278,2.561l1.28-1.92l3.2,0.639l3.2-0.639l2.56-1.92
	l1.28-1.92h-0.64l1.278-2.561l0.642-3.199l0.64-1.281l0,0l1.28-3.84l1.92-3.199l0,0l-1.28-3.201l0.641-2.559l-2.561-3.201
	l1.28-2.561l-2.562,1.279l-3.198-0.639l-5.762,4.479l-6.398,1.92l-3.84-1.92h-3.842l-0.64,2.561l-2.561,1.279l-4.479-1.92
	l-4.479,0.641l-2.562-3.84l-3.2-2.561l1.92-3.84l-2.56-1.92l4.479-4.48l6.399-0.641l1.28-3.199l8.318-0.641l4.48-3.199l4.479-2.561
	l7.041-1.279l7.681,1.92l6.399,0.639l4.479-1.92l3.2-0.639l3.84-3.201v-2.559l-3.2-3.201l-2.56-1.279h-2.562l-1.92-1.279
	l-5.76-2.561l-4.48-0.641l-3.84-1.92l2.562-1.279l2.56-4.48l-2.56-1.28l5.119-2.56v-1.28l-3.199,0.64l-3.2,0.641l-2.562,1.92
	l-3.84,1.279l-2.56,2.561l0.64,2.561l2.561,0.641l3.841-1.279l-0.642,2.561l-3.84,1.279l-5.119,3.199l-2.561-0.641l0.64-2.559
	l-4.479-0.643l0.64-1.277l3.2-2.562l-1.28-0.639h-6.399l-0.641-1.92l-3.2,1.92l-1.278,2.559l-2.562,3.84v1.281l-1.92,1.279
	l-1.279-0.641l-0.641,5.762l-1.92,2.559l-1.28,3.201l1.92,2.561l0.642,1.92l3.84,1.279l-0.641,1.279l-5.119,0.641l-1.922,1.92
	l-3.198,2.561l-1.921-2.561v-1.279h-2.561h-2.561l-4.479,1.92l2.562,2.561l-2.562,1.279c-0.64,0-1.92,0-2.56,0l-2.562-2.561v0.641
	l1.28,2.561l2.561,2.561l-1.921,1.279l2.562,1.922l2.56,1.277v2.562l-3.199-1.281l1.279,2.561l-2.56,0.641l1.92,3.84h-2.562
	l-3.198-1.92l-1.92-3.199l-1.28-2.561c-1.28-1.92-2.561-2.561-3.841-4.48l-0.641-1.279l-0.64-0.641v-1.279l-3.2-2.561l-0.641-1.92
	l0.641-2.561l0.64-1.92l-0.64-0.641l-1.28-0.641l-1.278-1.92c-1.92-1.279-3.841-1.92-5.761-2.561l-2.561-1.92l-3.84-0.641
	l-3.841-2.561l1.279-0.639l-1.92-1.922v-1.92l-2.56-0.641l-1.28,1.92l-1.279-1.92v-1.92l0,0l1.279-0.639l-3.199-0.641l-3.2,1.92
	v2.561l-0.641,1.281l1.28,2.559l3.84,2.562l2.561,3.84l4.479,3.84h3.2l1.279,1.279l-1.279,1.279c2.56,1.279,4.479,2.561,7.039,2.561
	l3.841,2.561l0.64,1.279l-0.64,1.92l-2.561-3.199l-3.84-0.641l-1.921,2.561l3.2,1.92l-0.64,2.561h-1.921l-1.92,3.84l-1.92,0.641
	c0-0.641,0-1.279,0-1.279l1.279-2.561l1.28-1.279c-1.28-1.922-2.561-3.199-2.561-5.119l-1.921-0.643l-1.278-2.559h-3.2l-4.479-1.92
	l-3.2-0.643l-3.2-2.559l-3.84-3.201l-2.561-2.559l-1.279-4.48l-2.561-0.641l-3.2-1.92l-0.64,0.641l-2.562,1.92h-1.92l-4.479,2.561
	l-8.319-2.561l-6.399,0.641l-1.279,2.561v2.559l-5.113,2.559h-5.76l-0.642,1.92l-2.56,1.92l-2.561,3.201l1.279,2.559l-2.56,1.281
	l-1.28,2.559h-3.2l-4.479,3.201c-3.2-0.641-6.4-1.279-9.602-2.561l-2.56,1.279l-1.92,1.279l-2.562-1.279l-1.278-1.92l-0.642-2.561
	l-4.479-1.279l-1.92,0.641l-2.562-1.279h-1.92l1.28-3.201v-2.559l-1.28-1.281l-0.64-1.92l1.278-2.561l1.922-1.279l0.64-1.92
	l1.92-2.561l0.64-1.92l-1.276-1.92v-1.92l1.28-2.561l-1.28-2.561l6.398-1.92l4.48,2.561l5.12,1.279l3.84,1.92l3.2,0.643l7.04,1.92
	l2.56-2.562l2.562-8.318l-3.2-5.762l-2.562-2.559l-5.76-2.561l0.64-3.2h5.12l6.4,2.56v-5.119l3.2,2.56l9.6-1.92l1.92-3.2
	c2.562,0,4.48-0.64,7.04-0.64l2.561-1.28l4.479-6.4l5.76-1.28l3.2,0.641l0.641-1.28h4.48l0.64,1.28l2.562-1.92l-0.641-1.92v-2.561
	l-1.279-2.56l0.64-4.48l0.642-1.279l1.278-1.28h3.2l1.28-1.28l2.56-1.28l-0.64,2.561l-1.28,1.28l0.64,1.279l1.921,0.641l-1.279,1.92
	l-1.28-0.641l-2.56,1.92l0.64,2.561v1.92l3.2,1.28v1.92l3.84-0.641l2.56-1.279l3.841,1.92l1.921,1.92l2.56-1.28
	c3.2-1.28,7.04-2.56,10.24-3.2l3.2,0.641l0.64,1.279h3.2l0.64-1.92l5.12-1.92v-5.12v-3.199l1.92-2.561l3.2-1.92l2.56,3.2h2.562
	c0-2.561,0.64-3.84,0.64-6.4l-1.28,0.641l-2.56-1.92l-0.64-2.561l3.84-1.92l3.84-1.28l3.2,0.641l3.2-0.641l3.198-2.56l-3.84-1.92
	l-3.84,1.92l-5.76,2.56l-5.12,1.28l-1.92-3.2l-3.2-1.279l0.64-4.48l-1.92-3.84l1.28-2.561l2.562-2.56l7.038-5.12l1.921-1.28
	l-0.641-1.92l-3.2-1.279l-5.118,1.92l-2.562,2.56l0.64,2.561l-4.479,3.199l-5.76,3.84l-2.562,6.4l2.562,2.561l3.198,2.56
	l-3.202,5.761l-3.2,1.28l-3.2,7.68l-2.561,3.84l-4.479-0.64l-2.56,3.2h-3.84l-1.28-4.48l-1.92-4.479l-2.561-6.4l-2.56-2.56
	l-7.68,4.479l-4.48,0.641l-4.48-2.561v-5.76l0.641-10.24l3.199-2.56l8.961-2.561l7.039-3.84c4.479-4.479,8.961-8.96,14.08-14.08
	c4.479-2.56,8.319-5.76,12.801-8.319l5.76-2.561h4.48l3.84-3.84h4.479l4.48-1.28l8.318,2.561l-2.56,1.279l3.2,2.561l2.56-1.92
	l5.12,1.92l7.68-0.64l11.521,2.56l3.199,1.92l1.279,2.56l-2.56,2.561l-3.84,2.56c-3.841,0-8.96-0.64-13.44-1.279l-1.92,1.279
	l5.12,2.561l1.92,6.399l3.84,0.641l2.562,0.64v-2.56l-2.562-1.92l1.92-1.92l7.682,1.279l2.56-1.92l-2.56-1.92l5.118-5.76
	l2.562-0.641l2.56,0.641l0.642-3.2l-2.562-1.92v-2.56l-3.84-1.921l7.682-0.64l2.56,1.92l-2.56,1.92l1.278,2.561l2.562,0.64
	l3.199-2.56l-0.641-2.561l3.84-3.2l6.4-6.399l1.92-0.641l-1.92,2.561l2.561-0.641l0.641-1.92l3.84-1.92l2.561-2.56l3.84,1.28
	l0.641-3.2l-3.2-1.28v-1.92l7.04-2.56l3.2-0.641h9.6l-0.64-2.56l-3.2-0.641v-1.92l-2.561,1.28l-0.641-2.56l-3.199-2.561l-1.279-1.28
	l0.64-5.119l-1.92-3.841l0.641-1.92l4.479-2.56l2.56,1.92l1.28,3.84h1.92l2.562,1.92l3.84,5.12l3.199,0.64l1.279,2.561l1.28,7.68
	l2.561-1.28l-0.641-1.92l1.28-2.56l-1.28-2.56v-2.561l-2.561,0.64l-1.279-2.56l-1.92,1.28l-1.92-2.561l-1.92-4.479l-4.48-1.28
	l0.641-4.479h-2.561l0.64-0.641l2.562,1.28l2.56,3.2l2.562-0.641l-2.562-1.92l1.28-3.2l2.561-2.56l3.84-0.64l-3.84-1.28l-3.84-2.56
	l1.279-2.561l2.561-2.56l1.92-3.2l-2.56-0.641l-1.921-3.199l1.28-1.92l-0.641-3.841l1.279-3.84l-1.279-1.279l1.279-3.2l1.28-0.641
	l-1.28-3.84l-0.64-3.84l-1.92-1.28l-1.921-2.56l-1.279-3.84l1.92-1.92l1.28,2.56l0.64-2.56l2.561,0.64l-1.279-1.92v-3.84l1.92-2.561
	l1.279-0.64l2.561,1.28l1.921,1.92l2.56,4.479l1.28,1.92l0.641-1.92l0.641-1.92l-1.28-1.92l2.561,0.641l-1.279-1.28l-1.28-2.561
	l-0.64-3.84l1.92,0.641l-3.2-5.12l-3.2-0.641l-1.28-2.56l-1.278-1.92l0.64-1.92h1.92l2.562,1.92l1.92-0.64v-1.921l-4.48-2.56v-1.92
	l-2.56-2.561l-2.562-2.56l-1.92-1.28l-1.92-1.92h-2.561l-3.199-1.92c-3.2-3.2-3.2-3.2-12.16-9.6l0,0l-2.561-2.561
	c-62.721-26.88-134.399-30.08-199.681-8.96l0,0l3.84-1.279c-2.56,1.92-5.76,2.56-8.96,3.84l-5.12,2.56
	c-1.92,0.641-3.198,1.92-5.76,2.561l1.92-1.28l0,0l2.562-2.561l0.64-0.64c-0.64,0.64-1.92,0.64-2.56,1.28l0.64,0.64v0.641
	l-2.561,2.56l-2.561,1.28h-1.279l-3.2,1.92l-3.84,1.92v1.28l-2.561,1.279l-4.479,1.28h0.641l4.479-1.92l-0.64,1.28
	c-1.92,1.279-3.2,1.92-5.12,2.56c-2.56,0.64-4.479,1.92-7.04,2.561c-2.561,1.92-5.76,3.199-8.319,5.76l-1.279,0.64l2.56-2.56
	l-2.56,1.279h-0.641c2.561-1.92,4.479-3.199,7.039-5.119l0.642-1.28l2.56-2.561c1.92-1.279,3.2-2.56,5.761-3.84
	c-1.92,0.641-3.199,1.92-5.12,2.561h-0.641l-0.646,1.279l-3.2,1.92l-1.28,0.641l2.562-1.92v0.64l-1.92,1.92l-0.642,1.28
	c-1.92,1.279-3.198,2.56-5.119,3.2l-1.279,0.64l-3.84,2.56l-1.922,2.561l-2.56,2.56l2.56-1.28l-0.64,1.28l-3.2,3.2l-3.198,0.64h1.92
	l-1.28,1.28l2.56-0.64c2.562-1.92,3.841-2.561,6.4-4.48l3.84-1.28l1.92,1.28l-1.92,2.561l-2.56,1.92l-5.12,3.2l-1.28-0.641
	l-2.56,3.2l-3.2,1.92l1.92,1.28l-3.2,2.56h-2.56l-3.2,2.561l1.919,0.64h2.561l3.841-1.92c-0.642,1.92-1.921,3.2-2.562,5.12
	l-2.56,2.56l-1.28,1.92h-1.92l-2.561,2.561l-1.92,0.64l-2.561-2.56l0.64-2.561l1.921-2.56l-1.921,0.64h-2.56h-1.28l-0.64-0.64
	l1.279-2.561l-0.641-0.64l-2.56,1.28l0.64-1.92l-1.28-0.641h-2.56l-2.561,0.641l-3.199,1.92l-1.92,3.2
	c-2.562,1.92-4.48,3.199-6.4,5.119l-1.28,2.561c-2.56,3.2-5.12,7.04-8.318,9.6c-1.28,2.561-2.562,3.84-3.841,6.4
	c-0.641,2.56-1.921,3.84-2.561,6.399l-2.561,1.921l-2.561,2.56l-3.84,4.479l-3.2,5.761l0.642,0.64l2.56-1.92l5.12-5.12l1.92-2.56
	l0.64,2.56l1.92,0.64l2.562-0.64l2.56-1.92l2.562-3.2l2.56-3.84h3.2l3.2-2.56l5.76-3.841l0.64,0.641l-1.278,2.56v2.561l1.278,1.279
	c-1.278,2.561-2.56,3.841-3.199,6.4l-2.561,0.64v3.2l-2.56,2.561l-3.841,3.84l-0.641,2.56l-1.92,2.561l2.561,1.279l3.841-1.279h1.92
	c-3.2,5.12-6.4,10.239-8.96,16l-3.2,1.279l-0.64,4.48l-1.28,3.2l0.64,3.84l-0.64,2.56l-2.562,3.2l0.642,1.92l-0.642,2.561
	l-2.56,3.84h-1.92l0,0l-1.28-1.28l-2.56-2.56h-3.2l-1.919-2.56l-1.28-5.12l-0.64-3.199l-0.642-2.561l-2.56,0.64l-1.92-1.92
	l-3.84,0.641h-2.562l0.641,1.92l3.841-0.641l3.198,2.561l1.28,2.56l-1.28,3.2h-2.56c-1.92,2.561-3.2,4.48-4.479,7.68l-0.641,4.48
	l1.92,3.2l3.84-1.92l-1.92,3.84l-0.64,2.56l-2.56-0.64l-3.2-2.561l-1.92-1.279h-2.562v-2.561l2.562-2.56l2.56,1.28l-0.64-3.841
	l-0.641-2.56l-0.641,1.92l-1.92-1.28l-1.92-1.279l-1.28-1.92l-1.92,0.64h-0.64l-1.28,1.92l-0.641,3.2v1.28l1.279-1.921l-0.64,1.921
	l-0.64,0.64l-0.642-1.28v-1.28l-0.64-1.279c0-0.641,0-1.92-0.641-2.561v-0.64l0.641,2.56l-0.641,1.92l-0.641-2.56v-1.92l0,0h-0.64
	v1.28l-1.921,1.92l-1.92,0.64l0.641-1.28v-0.64l0.641-1.92l-1.279,2.56l-0.642,1.28l-0.634,1.28v0.64l-1.92,1.28v-0.64l1.28-1.921
	l1.278-2.56l1.922-2.56l-1.28,1.279l-1.92,2.561l0.64-2.561l-1.28,2.561l-2.56,3.2v1.279c-1.28,1.92-1.92,3.2-2.561,5.12
	l-1.279,0.64v-1.92h-1.28l0,0c-11.521,25.601-19.2,53.761-21.76,82.561v0.64l0,0c-1.28,16.641-1.92,32-1.28,46.721
	c0.64,1.279,0.64,2.561,1.28,3.84l-0.642-1.92v2.561l0.642,2.561l0.64,3.84v3.199l0.641,1.281c0.641,3.199,1.279,6.4,1.92,9.6v2.561
	l1.279,2.561c0.642,1.92,0.642,3.84,1.28,5.76l1.92,3.842v-0.643l1.28,1.92c1.279,2.562,2.56,5.762,3.199,8.32l1.921,6.4l0.64,2.561
	l0.641,0.639c1.279,3.842,1.92,7.682,2.561,11.521l1.28,1.92l0.64,2.561l-1.92,0.641l0.64,1.92l3.2,5.121l0.641,3.84l1.279-0.641
	c2.561,3.199,4.479,7.68,7.04,10.881l1.92,3.199v1.92l2.562,1.92l5.119,7.041l3.841,3.197c2.56,4.48,6.398,8.32,8.318,13.441
	l2.562,2.559l2.56,2.562l1.28,1.92c1.279,2.559,1.92,5.119,2.561,7.68l0.641,4.48l-0.641,1.279l-2.561,1.279l-0.641,2.561v1.279
	l-0.641-1.279v1.92c1.92,3.84,3.2,8.32,5.12,11.52v0.643l0.64,1.92c38.4,47.357,91.521,81.92,150.4,96.639
	c56.32,14.721,117.12,12.16,171.521-8.32c101.12-37.119,175.359-129.92,187.521-237.438
	C-424.889,708.906-424.889,699.306-424.889,689.066L-424.889,689.066z M-730.81,716.587l5.121,0.639c2.56,0,5.118-0.639,8.318-0.639
	l-1.92,3.197l0.641,1.281l-1.279,2.561l-3.2-1.92l-2.562-0.641l-6.398-2.561L-730.81,716.587z M-624.569,546.986l2.562-4.479
	l-2.562,0.64l1.92-5.12l-1.92-1.92c2.562-2.56,4.48-5.76,7.04-8.319l4.48-3.2l1.92-2.561l2.56-2.56l2.562,0.64v1.92
	c-2.562,3.2-5.12,6.4-7.68,9.601l-2.562,6.399l-0.64,4.48l-0.642,5.12l2.562,2.56l5.12,0.641l-1.28,1.279l-7.68,2.561l-1.921-1.92
	l-3.841,0.64l-1.92-1.92l1.92-1.92L-624.569,546.986L-624.569,546.986z M-924.089,566.186c-1.92,0.641-3.2,1.92-5.76,2.561h1.92
	v2.56l-1.28,0.641l0.64,2.56h1.28l0.64,3.2l-2.56,1.92l1.28,1.28l-1.28,1.92l-1.28,2.56l-2.56,1.92l-0.641-0.64l-0.641-2.561
	l2.562-2.56v-1.28l-3.2,0.641l-1.28-0.641h2.561l-0.641-2.56l-1.28-2.561l-1.92-4.479l0.642-1.28h1.92l0.64-1.92h2.561l5.761-2.56
	l2.56-0.641l1.92,0.641l0.642,1.279H-924.089z M-816.569,580.266h-2.56c-2.562-2.56-6.4-3.84-8.96-6.399l3.2-0.641l-3.841-4.479
	l4.479,1.279l0.64-1.279l-3.84-3.2l2.561-1.92l3.841,1.28l2.56,4.479l5.12-0.64l2.56,2.56l5.12-0.64l3.841,1.92l-2.561,2.56
	l1.92,3.84l-5.12,1.921C-810.81,580.907-813.369,580.907-816.569,580.266z M-808.889,641.066l-4.48-2.56l3.84-3.2l-0.64-5.12
	c2.56-1.279,5.76-2.56,8.96-3.2l2.56,0.641l2.562,3.2l-2.562,2.56l-0.64,3.2l-2.56,3.84L-808.889,641.066z M-770.489,648.106
	l-2.56,1.28l1.28,2.561l-3.841,1.279l-5.12-1.279h-7.039l-1.92-1.28l-2.561,1.92l-3.2-1.92l-2.56,1.279l-1.92-1.279l7.04-3.2h3.198
	l-5.76-2.56l-0.64-2.561l3.84-0.64l-1.28-2.561l1.92-2.56l5.12,1.92l1.28-2.561l-1.92-3.199l-3.84-1.92l-0.642-1.28l1.921-1.92
	l-0.641-1.92l-3.2,1.92l1.28-3.84l-1.28-2.561l2.562-3.84l3.199-2.56l2.561,1.279l3.84,0.641l-5.12,3.84h3.84l3.841,0.64l-1.92,3.2
	l-3.841,3.2l3.2,1.28l2.561,6.399l2.561,1.28l1.28,5.76l0.64,1.92l4.48,1.92L-770.489,648.106z M-825.529,428.586L-825.529,428.586
	l3.841-3.2l2.561-2.56l2.56-1.92h1.28l-2.56,1.92c1.92-1.28,4.479-2.561,7.038-4.48l2.561-1.28l0.64,1.28l-0.64,0.64
	c-3.2,1.921-6.4,3.2-9.6,4.48l-2.562,1.92l5.12-1.92v0.64l-1.92,1.28c-1.28,0.64-2.561,0.64-3.84,1.28l-0.641,1.279l-1.919,1.28
	L-825.529,428.586L-825.529,428.586L-825.529,428.586L-825.529,428.586z M-814.649,447.146l-0.64,1.28l-1.92,1.28h2.56l0.642,1.279
	v1.921l-0.642,1.92l-0.64,0.64l0.64,2.56c0,1.92,0,2.561,0,4.48s0,3.2,0,5.12l-0.64,3.84l-1.28,0.64l-2.56-1.92l-1.92-1.279
	l-0.641-0.641l0.641,2.561l-2.562-1.92l-1.92-1.28l-3.199-0.641l-0.641-2.56l-0.64-0.64v-3.2l-0.642,1.92l-0.64-0.64l-2.56,1.92
	l-1.28-0.641l-0.638-1.92h-1.92l-1.28-1.28l-1.92,0.641v2.56l-1.28,0.641l-1.92-2.561l2.56-3.84l0.642-3.2
	c1.278-1.92,1.92-2.56,2.56-4.479l1.92-0.641l-0.64,2.561l3.199-1.92v0.64l-3.199,3.84l3.199-2.56l1.921-2.561l1.278,0.641v1.92
	h1.28l2.562-2.561l2.56-1.279l-1.92,3.199l-0.64,1.28l1.278,1.28l1.28-2.561l1.28-3.84l2.56-2.56l2.561-1.28l2.561-0.64l1.92-0.641
	v1.921h-1.28l-1.278,1.92L-814.649,447.146z M-825.529,440.747h1.28l0.64,0.64l1.921-2.56l2.561-1.28l2.56-1.28l1.28,0.641
	l0.641,0.64l-0.641,1.28l1.28-0.641l-1.92,2.561l-2.562,1.92c-1.278,1.279-2.56,2.56-3.199,3.84l-4.479,1.92l-1.92,1.92l-0.641-1.28
	l-1.921-1.92l1.28-2.56l2.562-2.561L-825.529,440.747z M-826.81,438.827l0.641-1.92l1.92-1.28l1.92-0.641l1.92-0.64l-1.28,1.92
	l-0.64,0.641l-2.561,1.92H-826.81L-826.81,438.827z M-831.289,441.386l-2.56,1.92l-1.92,2.561l-1.92,1.92h-1.28l-1.28,1.279
	l-1.28,1.28c-0.64,1.28-1.92,2.561-2.56,3.84v1.92l-1.28,2.561l-1.28,2.56l-1.92,2.561l-1.92,1.279l-1.279-0.64v-3.2l1.279-1.92
	l1.28-3.84l1.28-2.56l1.92-2.561l3.199-3.84l2.561-1.28l2.561-0.64l2.561-1.92l2.56-2.561l2.562-1.92h1.279L-831.289,441.386z
	 M-818.489,433.066l-2.56,0.641l-1.92,0.64l2.56-1.92l2.562-1.92l2.56-2.561v1.28l2.561-1.28h1.921
	C-814.009,429.867-816.569,431.787-818.489,433.066z M-834.489,436.907l1.92-1.28l2.562-0.641l1.92-1.92l2.56-1.279l-1.92,1.92
	l-0.64,1.92l-1.92,1.92h0.64l-2.56,0.64l-1.92,0.641c-0.642,0-1.921,0-2.562,0L-834.489,436.907z M-848.569,442.026l1.92-1.279
	c2.562-1.92,5.12-3.2,8.32-5.12h1.28l-2.562,2.56l3.2-1.92v1.28l-2.56,1.92l-1.92,2.56l-1.28,0.641l-0.642-0.641l-3.84,1.92
	l-2.56-0.64L-848.569,442.026z M-849.209,444.586l3.84-1.92l1.92-0.641l1.28,0.641v1.279l-2.561,2.561l-1.92,3.2l-2.561-1.28
	l0.64-1.92l-1.92-0.64L-849.209,444.586z M-890.81,479.146l1.921-1.92l-1.28-0.64l-0.641-2.561l2.561-1.92l0.64-2.56l1.28,0.64
	l2.561-1.279l2.561-1.28l-0.64,1.28l-1.921,1.279v0.641l-1.279,3.199c-1.28,1.92-2.562,3.2-3.2,5.12l-1.92,1.28v1.28l-1.92,1.92
	l-0.642-1.28L-890.81,479.146z M-883.129,498.986l-1.92,1.28l-1.92,3.2l-1.92,3.2l-0.642,1.279l-3.199,3.2l-2.561,1.28l0.641-2.56
	l2.561-6.4c-1.92,2.56-2.561,5.12-4.48,8.32l-1.278,0.64l0.64-5.76l1.92-5.12l1.92-3.2h1.28c1.279-2.56,2.56-5.12,3.2-7.68
	l-1.28,0.64v-4.479l1.92-2.561l2.56-0.64l-0.64,3.2v3.199l1.28-1.279l1.92-0.641h3.2l1.92-1.279l1.278-1.28l1.92-3.2l1.922-3.84
	l0.64,0.64l2.56-2.56l0.642-1.92l1.92-1.92l0.64-1.28v-2.56l2.562-6.4c1.92-2.56,2.56-4.48,3.84-6.4l1.92-1.92l1.28,1.28l1.279-2.56
	l3.841-1.921h2.56l0.641,1.28l-0.641,3.2h-3.84l-2.561,2.56h2.561l0.64,2.561l-4.479,3.84l-2.562,0.64l0.641,2.561l1.279,0.64
	l-2.56,3.84l-1.92,2.561l-1.92,1.92l1.278,2.56l-2.56,2.561l-1.28,4.479l-1.278,2.561l-3.2,3.199l-2.561-1.92l-1.921,5.12v2.561
	l-2.56,4.479l0.64,2.561l-2.56,1.279l0,0h-5.12l1.28-3.199l2.56-5.12L-883.129,498.986z M-883.129,557.226v-5.12l-2.56-3.199
	l0.64-3.2l2.56-3.84l2.562-7.04l1.92-2.561l2.56-2.56l1.92-5.12l2.562-1.92l0.64-2.561l5.12-1.92l2.56,1.28l1.92-0.64l2.562-1.92
	l-2.562-0.641l-1.278-0.64l-1.28-1.28v-2.56l2.561-1.92l2.561-1.28l1.28,1.28l1.278,3.199c0.642-2.56,0.642-3.84,1.28-6.399
	l-1.28-1.28v-1.92l4.48-1.28l1.279-1.92c1.921-2.56,3.199-4.479,5.119-7.04l0.642-2.56l1.92-1.28l1.28-4.479l-0.642-2.561
	c-0.64-2.56-1.28-3.84-1.92-6.399l1.28-2.561l2.56-3.2l1.921,2.561l0.641,2.56l0.64-5.76l1.92-3.2l1.92-0.64l2.562,3.84l2.56,3.2
	l0,0l1.28-3.84l1.92,0.64l3.84,2.56l1.28,1.28l1.92-1.28l2.56,1.92l2.562,2.561l1.92,2.56l-0.64,1.92l3.84,1.28l0.64,3.2l0.64,1.92
	l0.642,2.56v-3.199l1.92-1.28l5.12,1.92l2.56,3.2h2.562c4.479,2.56,8.318,6.399,12.8,8.96c1.92,2.56,3.84,4.479,6.399,7.04h-3.199
	c-3.842-2.561-8.32-3.84-12.801-6.4v1.28l4.479,2.56l2.56,3.2l3.2,0.641v1.92l-3.2,1.279l4.48,0.641c2.56,0.64,5.76,1.279,8.32,1.92
	l4.479,2.56v1.92h-8.319l0,0l-1.921,0.641l-5.76-1.92l3.2,1.92l-3.84,1.92l-2.562,1.92l-2.56,3.84l0.64,3.2l-2.56-1.28h-3.841
	l1.92,3.2l-1.92,3.2l-2.561-0.641l0.641,3.84l-4.479-1.92l1.28,2.561l-1.92,1.279l-2.562-0.64l-2.56-1.28l0.64,3.2l-1.28,1.92
	l-2.56-3.2l-1.92,0.641l1.92,2.56l1.28,3.2l-1.28,2.561l-3.84-1.28c-0.642-1.92-1.28-3.2-1.92-5.76l-1.28,2.56l-3.2,0.64
	c2.562,1.92,5.12,2.561,8.32,4.48l-8.32,0.64h-7.68l-7.04-2.56l-2.561-1.28h-4.482l-5.76,1.92l-5.76-0.64l-1.28-0.641
	c-2.562-0.64-3.841-1.92-6.4-2.56l-2.56,1.28l-2.562,2.56l-2.56,1.92h-5.119l-1.92,3.2c-2.561,1.92-4.48,2.56-7.04,4.48
	L-883.129,557.226z M-566.329,904.746l-1.28,1.281l-0.64-1.281l-1.28,1.281v1.92v1.279l-1.278,1.281l-1.28,2.559
	c-4.48,5.76-8.96,10.881-14.08,16l-2.562,2.562c-2.56,1.277-4.479,2.559-7.039,3.197c-1.92,0-2.561,0-4.479,0l-0.64-0.639l0.64-1.92
	l-0.64-1.281l0.64-1.92l1.28-1.92l1.92-1.279l0.64-0.641l2.562-2.561l1.279-1.92l-1.279-1.279v-1.279l0.64-2.561l1.92-1.92
	l1.28-1.922l2.561-0.639c1.279-0.641,2.561-1.281,3.841-2.561l1.92-0.641c2.56-1.92,4.479-3.201,7.039-5.121l1.921-1.92v1.92h1.92
	l2.56-2.559l0.642-1.92l1.92-1.92l1.279,0.639l0.641,0.641l0.64,1.922l-1.92,2.559l0.641,1.281L-566.329,904.746z M-449.849,764.587
	l-1.28,2.559l-2.561,3.201l-0.641-1.92l-0.64-5.121l1.279-8.32l1.92,0.643l1.279,1.92l1.28,2.559v4.48H-449.849L-449.849,764.587z"
	/>
</svg>
