<?xml version="1.0" encoding="utf-8"?>
<!-- Generator: Adobe Illustrator 16.0.0, SVG Export Plug-In . SVG Version: 6.00 Build 0)  -->
<!DOCTYPE svg PUBLIC "-//W3C//DTD SVG 1.1//EN" "http://www.w3.org/Graphics/SVG/1.1/DTD/svg11.dtd">
<svg version="1.1" id="Layer_1" xmlns="http://www.w3.org/2000/svg" xmlns:xlink="http://www.w3.org/1999/xlink" x="0px" y="0px"
	 width="519.136px" height="519.125px" viewBox="60.347 60.438 519.136 519.125"
	 enable-background="new 60.347 60.438 519.136 519.125" xml:space="preserve">
<g opacity="0.7">
	<g>
		<path d="M319.918,60.438c-20.735,0-40.799,2.691-60.13,7.285l9.14,5.981l35.998,5.081l16.619-3.693l31.113,3.799l6.241,8.317
			l-21.669-2.887l-22.154,9.229l6.361,16.545l22.889,10.4l3.051-20.942l21.699-1.388l30.92,29.53l8.762,11.55l4.158,7.38
			l-24.004,9.467l-36.26,16.434l-2.972,16.089l-23.994,22.622l0.933,21.7l-7.263-0.069l-2.897-18.399l-13.752-4.493l-39.539,2.082
			l-15.937,29.17l13.854,16.619l22.887-12.487l1.562,20.333l8.773,6.924l15.676,18.002l-0.773,22.734l28.943,6.796l21.221-15.231
			l9.697,3.227l35.596,14.209l49.959,18.729l10.398,24.969l35.576,17.324l8.119,30.536l-24.273,27.152l-28.617,29.995
			l-30.342,15.697l-31.222,20.8l-41.614,27.057l-23.045,23.447l-8.175-8.89l18.489-46.854l4.668-54.312l-39.803-36.169l0.26-30.431
			l10.41-12.487l12.222-36.152l-24.698-13.796l-16.662-27.045l-26.033-10.007l-40.81-21.986l-16.651-45.789l-8.318,22.887
			l-12.486-37.445l4.158-56.184l20.811-18.728l-6.241-12.487l14.558-22.887l-28.37,8.111C111.21,142.729,60.347,225.322,60.347,320
			c0,143.339,116.207,259.562,259.573,259.562c143.338,0,259.562-116.225,259.562-259.562
			C579.481,176.646,463.256,60.438,319.918,60.438z"/>
	</g>
</g>
</svg>
