<?xml version="1.0" encoding="utf-8"?>
<!-- Generator: Adobe Illustrator 16.0.0, SVG Export Plug-In . SVG Version: 6.00 Build 0)  -->
<!DOCTYPE svg PUBLIC "-//W3C//DTD SVG 1.1//EN" "http://www.w3.org/Graphics/SVG/1.1/DTD/svg11.dtd">
<svg version="1.1" id="Layer_1" xmlns="http://www.w3.org/2000/svg" xmlns:xlink="http://www.w3.org/1999/xlink" x="0px" y="0px"
	 width="232.896px" height="626.816px" viewBox="0 0 232.896 626.816" enable-background="new 0 0 232.896 626.816"
	 xml:space="preserve">
<path stroke="#231F20" stroke-width="0.6625" stroke-linecap="round" stroke-miterlimit="10" d="M147.22,490.497"/>
<path d="M221.44,0H11.521C5.185,0,0,5.12,0,11.456c0,2.048,0.576,3.968,1.536,5.632H1.472l2.625,4.544
	c9.279,16.32,22.079,38.72,22.079,62.592V541.44c0,55.937,46.4,85.312,92.288,85.376h0.192c43.975,0,88.519-26.88,88.704-78.336
	V84.224c0-24.704,12.992-47.552,22.399-64.192l1.671-2.944c0.896-1.664,1.466-3.584,1.466-5.632C232.896,5.12,227.776,0,221.44,0z
	 M184.384,84.224v56.256c-0.512-0.128-1.023-0.32-1.535-0.32h-69.12c-4.032,0-7.296,3.264-7.296,7.296
	c0,4.032,3.264,7.296,7.296,7.296h69.12c0.512,0,1.023-0.192,1.535-0.32v87.552c-0.512-0.128-1.023-0.32-1.535-0.32h-69.12
	c-4.032,0-7.296,3.264-7.296,7.296c0,4.032,3.264,7.296,7.296,7.296h69.12c0.512,0,1.023-0.192,1.535-0.32v83.776
	c-0.512-0.128-1.023-0.32-1.535-0.32h-69.12c-4.032,0-7.296,3.264-7.296,7.303c0,4.031,3.264,7.296,7.296,7.296h69.12
	c0.512,0,1.023-0.192,1.535-0.32v84.41c-0.576-0.128-1.151-0.385-1.792-0.385h-69.056c-4.032,0-7.296,3.265-7.296,7.296
	c0,4.032,3.264,7.303,7.296,7.303h69.056c0.646,0,1.216-0.191,1.792-0.326v96.384c-0.128,38.145-34.111,55.488-65.728,55.488
	c-0.064,0-0.064,0-0.128,0c-33.408-0.064-69.376-19.648-69.376-62.4V84.224c0-23.488-9.216-44.736-18.048-61.248H201.92
	C193.28,39.616,184.384,60.8,184.384,84.224z"/>
<g>
	<path d="M113.729,234.752h63.743V211.61H56.064v329.83c0,38.042,32.384,55.431,62.464,55.488h0.128
		c28.256,0,58.707-15.206,58.815-48.576V459.2h-63.936c-7.834,0-14.208-6.374-14.208-14.214c0-7.834,6.374-14.208,14.208-14.208
		h63.936v-69.882h-63.743c-7.834,0-14.208-6.374-14.208-14.208c0-7.84,6.374-14.214,14.208-14.214h63.743v-69.306h-63.743
		c-7.834,0-14.208-6.374-14.208-14.208C99.521,241.126,105.895,234.752,113.729,234.752z"/>
</g>
</svg>
