<?xml version="1.0" standalone="no"?>
<!DOCTYPE svg PUBLIC "-//W3C//DTD SVG 1.1//EN" "http://www.w3.org/Graphics/SVG/1.1/DTD/svg11.dtd" >
<svg xmlns="http://www.w3.org/2000/svg">
<metadata>
Created by FontPrep 20130207 at Tue Dec 13 14:45:55 2016
 By Chris Droom
(c) 2011 Klim Type Foundry. All rights reserved.
</metadata>
<defs>
<font id="25dc652d1ac2f0b6c05727b08da51f67" horiz-adv-x='1024' >
  <font-face 
    font-family="Calibre-Semibold"
    font-weight="600"
    font-stretch="normal"
    units-per-em="2048"
    panose-1="2 0 7 3 0 0 0 0 0 0"
    ascent="1331"
    descent="-717"
    x-height="915"
    cap-height="1257"
    bbox="-53 -358 1602 1430"
    underline-thickness="61"
    underline-position="-82"
    unicode-range="U+0020-007E"
  />
<missing-glyph horiz-adv-x="1024" 
 />
    <glyph glyph-name=".notdef" horiz-adv-x="1024" 
 />
    <glyph glyph-name=".null" horiz-adv-x="0" 
 />
    <glyph glyph-name="nonmarkingreturn" horiz-adv-x="681" 
 />
    <glyph glyph-name="space" unicode=" " horiz-adv-x="434" 
 />
    <glyph glyph-name="exclam" unicode="!" horiz-adv-x="444" 
d="M129 406l-61 851h309l-62 -851h-186zM222 -14q-69 0 -115 46t-46 110t45 116q51 45 116 45t114 -45q47 -51 47 -117t-47 -108q-45 -47 -114 -47z" />
    <glyph glyph-name="quotedbl" unicode="&#x22;" horiz-adv-x="669" 
d="M385 750v507h207v-507h-207zM78 750v507h207v-507h-207z" />
    <glyph glyph-name="numbersign" unicode="#" horiz-adv-x="1261" 
d="M539 756l-62 -254h242l61 254h-241zM1130 502l-36 -176h-213l-78 -326h-203l78 326h-242l-78 -326h-198l78 326h-197l39 176h199l61 254h-209l37 176h213l78 325h200l-79 -325h241l80 325h201l-78 -325h197l-39 -176h-199l-61 -254h208z" />
    <glyph glyph-name="dollar" unicode="$" horiz-adv-x="1028" 
d="M420 -182v198q-152 25 -248 115t-125 238h254q53 -152 234 -152q88 0 139 39t51 101q0 63 -34 95t-116 50l-200 49q-299 72 -299 334q0 145 94 241q96 96 250 117v187h217v-195q264 -61 321 -330h-243q-45 137 -217 137q-84 0 -129 -38q-49 -37 -50 -101q0 -98 132 -131
l213 -51q307 -78 307 -344q0 -141 -90 -242q-94 -94 -244 -119v-198h-217z" />
    <glyph glyph-name="percent" unicode="%" horiz-adv-x="1372" 
d="M1147 272q0 49 -35 84t-85 35t-87 -35t-37 -84t35 -88q39 -34 89 -34t85 34q35 39 35 88zM637 984q0 -120 -86 -204t-205 -84t-207 84q-84 84 -84 204t84 208q86 86 207 86t207 -86q84 -88 84 -208zM1026 561q119 0 205 -84t86 -204t-84 -207q-86 -86 -207 -86t-207 86
q-84 88 -84 208t84 203q88 84 207 84zM225 985q0 -49 35 -84t85 -35t86 34t36 85t-36 87t-86 36t-85 -37t-35 -86zM211 0l778 1257h172l-778 -1257h-172z" />
    <glyph glyph-name="ampersand" unicode="&#x26;" horiz-adv-x="1243" 
d="M512 182q102 0 184 64l-282 307q-106 -55 -107 -180q0 -86 53 -137q50 -54 152 -54zM707 952q0 53 -34 89t-93 36q-60 0 -100 -39t-40 -100t54 -123q18 -20 55 -61l282 -314q33 100 37 209h230q-4 -207 -111 -381l242 -268h-307l-88 96q-150 -116 -337 -116t-309 108
q-117 109 -116 285q0 104 55 192q57 88 152 140q-82 113 -82 249t106 230q109 94 278 94t271 -92t104 -234h-249z" />
    <glyph glyph-name="quotesingle" unicode="'" horiz-adv-x="372" 
d="M78 750v507h217v-507h-217z" />
    <glyph glyph-name="parenleft" unicode="(" horiz-adv-x="665" 
d="M61 580q0 286 151 486t413 265v-256q-145 -41 -234 -170q-88 -131 -88 -325t88 -325q88 -130 234 -171v-256q-262 66 -413 266t-151 486z" />
    <glyph glyph-name="parenright" unicode=")" horiz-adv-x="665" 
d="M604 580q0 -285 -150 -486t-413 -266v256q145 41 233 171t88 325q0 194 -88 324t-233 171v256q263 -66 413 -266t150 -485z" />
    <glyph glyph-name="asterisk" unicode="*" horiz-adv-x="708" 
d="M289 1331h131v-194l168 98l65 -115l-170 -96l170 -96l-65 -115l-168 98v-194h-131v194l-168 -98l-66 115l168 96l-168 96l66 115l168 -98v194z" />
    <glyph glyph-name="plus" unicode="+" horiz-adv-x="1146" 
d="M477 1055h195v-344h344v-197h-344v-342h-195v342h-346v197h346v344z" />
    <glyph glyph-name="comma" unicode="," 
d="M55 159q0 63 45 107t115 43q70 0 115 -45t45 -129t-66 -184l-116 -174h-164l149 229q-55 10 -89 50t-34 103z" />
    <glyph glyph-name="hyphen" unicode="-" horiz-adv-x="649" 
d="M78 426v221h493v-221h-493z" />
    <glyph glyph-name="period" unicode="." 
d="M55 149q0 71 46 117t114 45q68 0 114 -46q46 -47 46 -117t-47 -115q-43 -47 -113 -47t-113 47q-47 45 -47 116z" />
    <glyph glyph-name="slash" unicode="/" horiz-adv-x="763" 
d="M10 -172l508 1503h236l-508 -1503h-236z" />
    <glyph glyph-name="zero" unicode="0" horiz-adv-x="1122" 
d="M561 1044q-121 0 -180 -114t-59 -301q0 -186 59 -301t180 -115t180 115t60 301q1 187 -59 301t-181 114zM561 -20q-221 0 -358 180t-137 469t137 469t358 180t359 -180t137 -469q1 -289 -137 -469t-359 -180z" />
    <glyph glyph-name="one" unicode="1" horiz-adv-x="706" 
d="M584 1257v-1257h-256v958l-293 -145v256l383 188h166z" />
    <glyph glyph-name="two" unicode="2" horiz-adv-x="980" 
d="M647 906q0 56 -43 98q-45 40 -119 40t-116 -49q-45 -45 -50 -125h-270q18 182 135 295q116 113 308 113t303 -102q113 -98 112 -273q0 -73 -40 -151t-87 -132t-123 -133l-241 -260h506v-227h-871v170l400 420q135 144 165 202t31 114z" />
    <glyph glyph-name="three" unicode="3" horiz-adv-x="970" 
d="M387 539v202h72q84 0 136 40t52 113t-44 117t-122 44t-129 -47q-47 -51 -53 -125h-254q18 172 137 284q121 111 307 111t295 -102q111 -98 111 -265q0 -88 -43 -166q-43 -72 -111 -106q82 -37 128 -110t46 -164q1 -168 -117 -277q-118 -108 -317 -108t-325 114t-136 295
h259q8 -82 61 -134t139 -52t135 47q52 43 52 121t-56 121q-53 47 -143 47h-80z" />
    <glyph glyph-name="four" unicode="4" horiz-adv-x="1064" 
d="M602 465v260h234v-260h190v-215h-190v-250h-234v250h-559v188l434 819h256l-409 -792h278z" />
    <glyph glyph-name="five" unicode="5" horiz-adv-x="995" 
d="M497 614q-97 0 -171 -84h-205v727h737v-227h-524v-256q82 57 203 57q180 0 294 -116q111 -117 111 -305t-119 -312q-121 -118 -315 -118t-318 112q-123 112 -137 297h254q7 -82 61 -134t140 -52t137 57q51 56 51 148t-51 149t-148 57z" />
    <glyph glyph-name="six" unicode="6" horiz-adv-x="1044" 
d="M330 408q0 -98 57 -156t149 -57q92 0 151 58q58 57 58 155t-58 156t-149 58q-92 0 -150 -58t-58 -156zM559 1063q-117 0 -185 -108t-67 -244v-19q31 59 102 96t162 37q184 0 297 -120q113 -115 113 -297t-119 -306t-325 -122q-254 0 -381 227q-88 152 -88 395
q0 299 129 488q133 188 352 188q173 0 281 -89t141 -249h-254q-41 123 -158 123z" />
    <glyph glyph-name="seven" unicode="7" horiz-adv-x="935" 
d="M33 1028v229h850v-186l-412 -1071h-264l403 1028h-577z" />
    <glyph glyph-name="eight" unicode="8" horiz-adv-x="1021" 
d="M511 -20q-194 0 -323 98t-129 266q0 117 64 195q61 80 156 106q-81 33 -131 108t-50 171q0 164 119 260q121 94 295 94t293 -94t119 -260q0 -96 -50 -171t-131 -108q94 -27 158 -106q61 -80 62 -195q0 -168 -129 -266t-323 -98zM682 914q0 72 -49 117q-49 44 -122 44
t-122 -44t-49 -117q0 -74 49 -116t122 -42t122 43t49 115zM511 543q-85 0 -142 -48t-57 -130q0 -83 56 -131q58 -48 143 -48t144 47q55 49 55 131t-55 132q-59 47 -144 47z" />
    <glyph glyph-name="nine" unicode="9" horiz-adv-x="1044" 
d="M715 850q1 98 -57 156t-150 57q-92 0 -150 -58q-58 -57 -59 -155q0 -98 58 -156q57 -58 149 -59q92 1 150 59t59 156zM473 432q-184 0 -297 121q-113 115 -113 297t121 305q117 123 324 123q254 0 381 -227q88 -152 88 -396q0 -299 -131 -487t-350 -188q-174 0 -282 88
t-140 249h254q41 -123 158 -123q116 0 184 108t67 245v18q-31 -59 -101 -96t-163 -37z" />
    <glyph glyph-name="colon" unicode=":" 
d="M55 734q0 73 47 114q41 47 113 47t113 -47q47 -41 47 -114t-47 -118q-43 -47 -113 -47t-113 47q-47 45 -47 118zM55 149q0 71 46 117t114 45q68 0 114 -46q46 -47 46 -117t-47 -115q-43 -47 -113 -47t-113 47q-47 45 -47 116z" />
    <glyph glyph-name="semicolon" unicode=";" 
d="M55 734q0 73 47 114q41 47 113 47t113 -47q47 -41 47 -114t-47 -118q-43 -47 -113 -47t-113 47q-47 45 -47 118zM55 159q0 63 45 107t115 43q70 0 115 -45t45 -129t-66 -184l-116 -174h-164l149 229q-55 10 -89 50t-34 103z" />
    <glyph glyph-name="less" unicode="&#x3c;" horiz-adv-x="903" 
d="M113 483v252l671 312v-222l-491 -217l491 -215v-223z" />
    <glyph glyph-name="equal" unicode="=" horiz-adv-x="1179" 
d="M150 692v180h882v-180h-882zM150 358v179h882v-179h-882z" />
    <glyph glyph-name="greater" unicode="&#x3e;" horiz-adv-x="903" 
d="M791 735v-252l-674 -313v223l491 215l-491 217v222z" />
    <glyph glyph-name="question" unicode="?" horiz-adv-x="933" 
d="M893 907q-1 -73 -23 -116q-22 -42 -28 -57t-35 -49t-41 -51t-41 -40q-20 -25 -39 -43q-74 -76 -74 -145h-252q2 72 29 122q28 68 115 155q12 13 36 41t40 45t32 54t16 87t-41 93q-42 41 -117 41t-119 -50t-46 -124h-270q18 184 137 293q118 115 308 115t302 -100
q111 -101 111 -271zM317 140q0 66 48 118q49 45 115 45t114 -45q47 -51 47 -117t-47 -108q-45 -47 -115 -47t-114 47q-48 41 -48 107z" />
    <glyph glyph-name="at" unicode="@" horiz-adv-x="1572" 
d="M801 621q-76 0 -127 -68q-51 -69 -51 -145q0 -152 118 -152q87 0 140 84l37 205q-10 35 -41 53q-31 23 -76 23zM1153 211q94 0 152 94q57 94 57 256q0 213 -148 336t-380 123q-274 0 -445 -176q-172 -172 -172 -455q0 -125 39 -224q75 -190 244 -259q134 -74 354 -74
t440 98v-149q-197 -96 -458 -96q-152 0 -291 42q-312 94 -430 345q-66 141 -66 317q0 330 219 555t566 225q304 0 496 -173t192 -423q0 -249 -120 -379t-286 -130t-239 108q-29 -49 -85 -78t-114 -28q-127 0 -203 88t-76 221q0 178 109 305q104 129 270 129q61 0 107 -23
q45 -18 67 -53l13 58h211l-84 -484q-16 -96 61 -96z" />
    <glyph glyph-name="A" unicode="A" horiz-adv-x="1284" 
d="M639 942l-154 -418h308zM512 1257h260l481 -1257h-266l-113 303h-471l-110 -303h-262z" />
    <glyph glyph-name="B" unicode="B" horiz-adv-x="1132" 
d="M373 537v-316h248q88 0 139 41q49 43 49 117t-47 117q-51 41 -141 41h-248zM373 741h213q190 0 190 150q0 145 -190 145h-213v-295zM1065 356q0 -172 -113 -264t-309 -92h-522v1257h481q204 0 314 -88t110 -254q0 -94 -47 -170q-47 -67 -119 -96q88 -27 148 -108
q57 -82 57 -185z" />
    <glyph glyph-name="C" unicode="C" horiz-adv-x="1226" 
d="M59 629q0 285 166 469q168 180 420 180q215 0 354 -115q135 -117 172 -311h-260q-70 193 -266 192q-147 0 -233 -116t-86 -298q0 -183 86 -300t233 -117q195 0 266 195h260q-37 -197 -172 -314q-139 -115 -354 -114q-252 0 -420 180q-166 184 -166 469z" />
    <glyph glyph-name="D" unicode="D" horiz-adv-x="1247" 
d="M121 0v1257h444q283 0 452 -169q169 -170 169 -460t-169 -459t-452 -169h-444zM381 231h174q180 0 275 108q96 108 96 291q0 182 -96 290t-275 108h-174v-797z" />
    <glyph glyph-name="E" unicode="E" horiz-adv-x="1056" 
d="M121 1257h854v-229h-596v-274h541v-224h-541v-299h596v-231h-854v1257z" />
    <glyph glyph-name="F" unicode="F" horiz-adv-x="1026" 
d="M381 0h-260v1257h837v-229h-577v-319h534v-228h-534v-481z" />
    <glyph glyph-name="G" unicode="G" horiz-adv-x="1271" 
d="M717 451v208h495v-110q0 -256 -151 -414q-153 -155 -405 -155t-427 180q-170 186 -170 469t170 469q174 180 430 180q219 0 357 -115t176 -311h-264q-74 193 -269 192q-153 0 -243 -116t-90 -301q0 -184 92 -300t248 -116q115 0 194 63q76 71 96 177h-239z" />
    <glyph glyph-name="H" unicode="H" horiz-adv-x="1335" 
d="M952 1257h262v-1257h-262v528h-569v-528h-262v1257h262v-499h569v499z" />
    <glyph glyph-name="I" unicode="I" horiz-adv-x="501" 
d="M383 1257v-1257h-262v1257h262z" />
    <glyph glyph-name="J" unicode="J" horiz-adv-x="1042" 
d="M485 217q195 0 195 240v800h262v-802q0 -233 -123 -355q-125 -120 -331 -120t-326 113t-131 306h270q16 -182 184 -182z" />
    <glyph glyph-name="K" unicode="K" horiz-adv-x="1214" 
d="M383 1257v-565l473 565h318l-480 -563l498 -694h-318l-372 514l-119 -141v-373h-262v1257h262z" />
    <glyph glyph-name="L" unicode="L" horiz-adv-x="1038" 
d="M121 0v1257h262v-1026h586v-231h-848z" />
    <glyph glyph-name="M" unicode="M" horiz-adv-x="1529" 
d="M367 0h-246v1257h311l336 -886l334 886h307v-1257h-248v821l-305 -821h-178l-311 821v-821z" />
    <glyph glyph-name="N" unicode="N" horiz-adv-x="1294" 
d="M1174 1257v-1257h-207l-594 838v-838h-252v1257h246l555 -794v794h252z" />
    <glyph glyph-name="O" unicode="O" horiz-adv-x="1310" 
d="M985 629q0 186 -91 301q-92 114 -240 114t-238 -114t-90 -301q0 -186 90 -301t238 -115t240 115q91 115 91 301zM1249 629q0 -285 -168 -465q-166 -184 -428 -184t-428 182t-166 467t166 467t428 182t428 -184q168 -180 168 -465z" />
    <glyph glyph-name="P" unicode="P" horiz-adv-x="1130" 
d="M616 659q98 -1 150 51t51 138q0 86 -51 136t-150 50h-235v-375h235zM633 436h-252v-436h-260v1257h512q203 1 323 -107t119 -304q0 -196 -121 -303q-114 -107 -321 -107z" />
    <glyph glyph-name="Q" unicode="Q" horiz-adv-x="1308" 
d="M985 637q0 178 -91 293q-92 114 -240 114t-238 -114t-90 -300q0 -185 89 -304t238 -119q66 0 109 14l-103 129l168 129l99 -123q59 103 59 281zM653 -20q-262 0 -428 182t-166 467t166 467t428 182t428 -184q168 -180 168 -460t-170 -468l101 -123l-168 -131l-103 127
q-115 -59 -256 -59z" />
    <glyph glyph-name="R" unicode="R" horiz-adv-x="1153" 
d="M381 1034v-350h242q94 0 146 46t52 129t-52 129t-146 46h-242zM381 469v-469h-260v1257h518q201 0 321 -104t119 -295q0 -147 -75 -244q-78 -94 -211 -127l331 -487h-295l-311 469h-137z" />
    <glyph glyph-name="S" unicode="S" horiz-adv-x="1085" 
d="M766 345q0 64 -35 98t-119 53l-225 51q-319 72 -319 344q0 171 127 279t329 108t332 -98q125 -102 158 -267h-260q-51 150 -232 150q-88 0 -145 -39q-53 -43 -53 -109q0 -104 141 -137l229 -53q330 -78 330 -354q0 -179 -131 -285t-340 -106t-347 101t-171 277h270
q51 -162 250 -161q94 0 154 41q57 43 57 107z" />
    <glyph glyph-name="T" unicode="T" horiz-adv-x="1177" 
d="M53 1028v229h1073v-229h-405v-1028h-264v1028h-404z" />
    <glyph glyph-name="U" unicode="U" horiz-adv-x="1249" 
d="M626 -20q-241 0 -382 137t-142 389v751h263v-725q0 -317 260 -317t260 317v725h262v-751q0 -252 -139 -391q-141 -135 -382 -135z" />
    <glyph glyph-name="V" unicode="V" horiz-adv-x="1257" 
d="M756 0h-254l-471 1257h276l326 -909l325 909h271z" />
    <glyph glyph-name="W" unicode="W" horiz-adv-x="1626" 
d="M715 1257h205l217 -845l206 845h259l-328 -1257h-240l-221 829l-221 -829h-240l-327 1257h264l205 -845z" />
    <glyph glyph-name="X" unicode="X" horiz-adv-x="1200" 
d="M1165 1257l-415 -612l436 -645h-295l-295 436l-293 -436h-289l437 641l-416 616h297l270 -407l277 407h286z" />
    <glyph glyph-name="Y" unicode="Y" horiz-adv-x="1214" 
d="M735 0h-260v477l-452 780h284l305 -532l303 532h277l-457 -780v-477z" />
    <glyph glyph-name="Z" unicode="Z" horiz-adv-x="1134" 
d="M1053 231v-231h-971v190l631 838h-621v229h952v-188l-626 -838h635z" />
    <glyph glyph-name="bracketleft" unicode="[" horiz-adv-x="659" 
d="M358 1112v-1065h260v-219h-497v1503h497v-219h-260z" />
    <glyph glyph-name="backslash" unicode="\" horiz-adv-x="763" 
d="M246 1331l508 -1503h-236l-508 1503h236z" />
    <glyph glyph-name="bracketright" unicode="]" horiz-adv-x="659" 
d="M301 47v1065h-260v219h498v-1503h-498v219h260z" />
    <glyph glyph-name="asciicircum" unicode="^" horiz-adv-x="837" 
d="M303 1257h232l282 -450h-237l-160 258l-162 -258h-238z" />
    <glyph glyph-name="underscore" unicode="_" horiz-adv-x="780" 
d="M41 -293v207h698v-207h-698z" />
    <glyph glyph-name="grave" unicode="`" horiz-adv-x="1024" 
d="M719 1040h-232l-182 291h252z" />
    <glyph glyph-name="a" unicode="a" horiz-adv-x="958" 
d="M291 284q0 -56 47 -85q46 -29 110 -29t109 22t61 58v65q-16 37 -61 59t-107 22t-111 -28q-48 -28 -48 -84zM862 0h-244v49q-25 -25 -87 -45t-136 -20q-145 0 -243 79q-96 81 -96 213t100 216q102 82 254 81q53 0 117 -16t91 -37v68q0 63 -38 102t-111 39q-100 0 -135 -86
h-242q23 131 125 209q104 84 272 84t273 -92q100 -96 100 -260v-584z" />
    <glyph glyph-name="b" unicode="b" horiz-adv-x="1062" 
d="M537 715q-57 0 -103 -30t-69 -77v-301q23 -49 69 -78t103 -28q100 -1 159 71q60 72 60 184t-60 186t-159 73zM365 0h-256v1331h256v-491q35 40 99 68t130 28q192 0 304 -137t112 -342t-112 -341t-304 -136q-66 0 -130 28t-99 68v-76z" />
    <glyph glyph-name="c" unicode="c" horiz-adv-x="940" 
d="M53 459q0 213 123 345q124 132 304 132t286 -89t129 -241h-250q-10 55 -51 82q-36 31 -110 31t-126 -71q-52 -70 -53 -190q0 -120 52 -191t125 -71q142 1 163 113h250q-23 -153 -129 -241t-286 -88q-181 0 -304 133t-123 346z" />
    <glyph glyph-name="d" unicode="d" horiz-adv-x="1062" 
d="M526 715q-100 0 -159 -74q-59 -73 -59 -185t58 -184q60 -72 160 -71q53 0 105 28q47 33 67 78v301q-24 47 -70 77t-102 30zM698 0v76q-36 -41 -100 -69t-129 -27q-190 0 -305 135q-111 139 -111 342t111 342q113 137 305 137q66 0 130 -28t99 -68v491h256v-1331h-256z
" />
    <glyph glyph-name="e" unicode="e" horiz-adv-x="960" 
d="M496 729q-156 0 -191 -172h354q-3 78 -45 125t-118 47zM484 -20q-184 0 -308 131q-123 135 -123 344t124 345t320 136t302 -125q111 -123 110 -330v-78h-610q6 -98 59 -161q53 -57 140 -58q139 0 170 115h235q-25 -152 -129 -233q-106 -86 -290 -86z" />
    <glyph glyph-name="f" unicode="f" horiz-adv-x="667" 
d="M557 1135q-125 0 -125 -127v-93h191v-204h-191v-711h-250v711h-149v204h149v109q0 154 88 240t236 86q86 0 141 -25v-215q-35 25 -90 25z" />
    <glyph glyph-name="g" unicode="g" horiz-adv-x="1056" 
d="M530 723q-108 0 -165 -67q-57 -68 -57 -178t57 -175q57 -70 157 -70q59 0 101 29q42 23 71 68v299q-56 94 -164 94zM694 61v54q-76 -94 -225 -95q-188 0 -302 132t-114 326t114 326t302 132q145 0 225 -92v71h252v-815q0 -229 -123 -344q-123 -114 -312 -114t-306 86
q-113 86 -133 239h245q31 -129 181 -129q196 0 196 223z" />
    <glyph glyph-name="h" unicode="h" horiz-adv-x="1034" 
d="M111 0v1331h254v-500q89 105 245 105t240 -92t84 -246v-598h-254v545q0 72 -37 119q-39 43 -107 43t-110 -35q-45 -29 -61 -92v-580h-254z" />
    <glyph glyph-name="i" unicode="i" horiz-adv-x="475" 
d="M387 1178q0 -64 -45 -104t-105 -40q-59 0 -105 40t-46 104t46 106q46 41 106 41t105 -42q44 -41 44 -105zM365 915v-915h-254v915h254z" />
    <glyph glyph-name="j" unicode="j" horiz-adv-x="471" 
d="M387 1178q0 -64 -45 -104t-105 -40q-59 0 -105 40t-46 104t46 106q46 41 106 41t105 -42q44 -41 44 -105zM365 915v-952q0 -157 -83 -239t-237 -82q-63 0 -98 10v203q43 -6 55 -7q109 0 109 117v950h254z" />
    <glyph glyph-name="k" unicode="k" horiz-adv-x="1021" 
d="M365 0h-254v1331h254v-756l313 340h315l-370 -389l385 -526h-301l-269 369l-73 -80v-289z" />
    <glyph glyph-name="l" unicode="l" horiz-adv-x="475" 
d="M365 1331v-1331h-254v1331h254z" />
    <glyph glyph-name="m" unicode="m" horiz-adv-x="1519" 
d="M1105 936q154 0 234 -91t80 -247v-598h-254v545q0 78 -35 119q-31 45 -89 45t-97 -31t-51 -88v-590h-256v545q0 164 -129 164q-55 0 -90 -33q-41 -29 -53 -86v-590h-254v915h254v-75q77 96 233 96t244 -117q109 117 263 117z" />
    <glyph glyph-name="n" unicode="n" horiz-adv-x="1034" 
d="M111 0v915h254v-84q89 105 245 105t240 -92t84 -246v-598h-254v545q0 72 -37 119q-39 43 -107 43t-110 -35q-45 -29 -61 -92v-580h-254z" />
    <glyph glyph-name="o" unicode="o" horiz-adv-x="1001" 
d="M698 459q0 115 -53 189t-143 73q-90 0 -146 -74q-51 -75 -51 -189t51 -192q56 -72 146 -72t145 72q51 78 51 193zM502 936q196 0 322 -132t126 -346t-126 -346t-322 -132t-323 132q-126 132 -126 346t126 346t323 132z" />
    <glyph glyph-name="p" unicode="p" horiz-adv-x="1062" 
d="M537 715q-53 0 -100 -30t-72 -77v-301q20 -45 68 -76t104 -30q100 -1 159 71q60 72 60 184t-60 186t-159 73zM365 -338h-254v1253h254v-75q35 40 99 68t130 28q190 0 305 -137q113 -139 113 -342t-113 -340t-305 -137q-66 0 -130 28t-99 68v-414z" />
    <glyph glyph-name="q" unicode="q" horiz-adv-x="1062" 
d="M526 715q-100 0 -159 -74q-59 -73 -59 -185t58 -184q60 -72 160 -71q55 0 103 28q49 33 69 78v301q-27 51 -71 76q-43 31 -101 31zM698 -338v414q-36 -41 -100 -69t-129 -27q-193 0 -305 137t-113 340q0 203 113 342q115 137 305 137q66 0 130 -28t99 -68v75h254v-1253
h-254z" />
    <glyph glyph-name="r" unicode="r" horiz-adv-x="718" 
d="M365 0h-254v915h254v-90q66 111 204 111q68 0 97 -16v-254q-50 30 -120 30t-120 -32q-47 -37 -61 -97v-567z" />
    <glyph glyph-name="s" unicode="s" horiz-adv-x="894" 
d="M460 172q126 0 126 90q0 29 -21 49q-29 18 -71 29l-185 41q-238 55 -237 258q0 133 104 213q102 84 267 84t261 -75t121 -208h-241q-29 90 -144 90q-49 0 -85 -21t-36 -65q0 -51 82 -71l189 -43q244 -59 244 -267q0 -137 -106 -217q-106 -79 -274 -79t-274 76t-129 216
h252q31 -100 157 -100z" />
    <glyph glyph-name="t" unicode="t" horiz-adv-x="706" 
d="M166 276v435h-139v204h139v248h252v-248h200v-204h-200v-402q0 -104 104 -104q63 0 111 31v-226q-53 -28 -180 -28t-207 74t-80 220z" />
    <glyph glyph-name="u" unicode="u" horiz-adv-x="1030" 
d="M922 915v-915h-254v84q-94 -104 -246 -104t-238 92q-84 94 -84 245v598h254v-546q0 -76 37 -119t105 -43t110 35q43 29 60 92v581h256z" />
    <glyph glyph-name="v" unicode="v" horiz-adv-x="993" 
d="M618 0h-245l-346 915h266l211 -608l207 608h256z" />
    <glyph glyph-name="w" unicode="w" horiz-adv-x="1376" 
d="M788 915l152 -583l164 583h246l-279 -915h-233l-150 561l-149 -561h-234l-278 915h254l163 -583l150 583h194z" />
    <glyph glyph-name="x" unicode="x" horiz-adv-x="976" 
d="M940 915l-313 -442l334 -473h-281l-197 287l-198 -287h-267l330 467l-311 448h280l177 -260l180 260h266z" />
    <glyph glyph-name="y" unicode="y" horiz-adv-x="997" 
d="M494 -338h-250l133 334l-350 919h268l211 -608l209 608h256z" />
    <glyph glyph-name="z" unicode="z" horiz-adv-x="927" 
d="M844 205v-205h-766v164l440 547h-424v204h742v-163l-433 -547h441z" />
    <glyph glyph-name="braceleft" unicode="{" horiz-adv-x="722" 
d="M436 410v-304q0 -59 60 -59h186v-219h-221q-117 0 -191 74t-73 192v316q0 59 -60 59h-96v221h96q59 0 60 60v315q-1 119 73 193t191 73h221v-219h-186q-59 0 -60 -59v-303q0 -111 -96 -170q96 -59 96 -170z" />
    <glyph glyph-name="bar" unicode="|" horiz-adv-x="466" 
d="M121 -172v1503h225v-1503h-225z" />
    <glyph glyph-name="braceright" unicode="}" horiz-adv-x="722" 
d="M287 106v304q0 111 96 170q-96 59 -96 170v303q0 59 -60 59h-186v219h221q117 0 191 -74t73 -192v-315q0 -59 60 -60h96v-221h-96q-59 0 -60 -59v-316q0 -118 -74 -192t-190 -74h-221v219h186q60 0 60 59z" />
    <glyph glyph-name="asciitilde" unicode="~" horiz-adv-x="876" 
d="M623 711h180q1 -147 -57 -229t-160 -83q-57 0 -103 31q-45 26 -86 58t-69 32q-74 0 -74 -112h-180q0 147 57 229t160 82q69 -1 147 -61t111 -60q74 0 74 113z" />
  </font>
</defs>
</svg>
