<?xml version="1.0" standalone="no"?>
<!DOCTYPE svg PUBLIC "-//W3C//DTD SVG 1.1//EN" "http://www.w3.org/Graphics/SVG/1.1/DTD/svg11.dtd" >
<svg>
<metadata>
Created by FontForge 20090622 at Mon Aug  8 10:09:32 2016
 By deploy user
&#194;&#169; 2014 Apple Inc. All rights reserved.
</metadata>
<defs>
<font id=".HelveticaNeueDeskInterface-MediumP4" horiz-adv-x="610" >
  <font-face 
    font-family=".System San Francisco Text"
    font-weight="500"
    font-stretch="normal"
    units-per-em="984"
    panose-1="0 0 0 0 0 0 0 0 0 0"
    ascent="787"
    descent="-197"
    x-height="552"
    cap-height="714"
    bbox="-305 -257.364 1079 1041"
    underline-thickness="102"
    underline-position="-59"
    unicode-range="U+0020-U+FB02"
  />
<missing-glyph horiz-adv-x="676" 
d="M63 0v714h551v-714h-551zM262 164q0 -17 8 -29.5t22 -19.5t33 -7q29 0 46.5 15.5t17.5 40.5q0 12 -4.5 22.5t-13 18t-20.5 11.5t-26 4q-28 0 -45.5 -15.5t-17.5 -40.5zM177 464h89q0 32 17.5 50t47.5 18q19 0 33 -7t22 -20t8 -30q0 -20 -10.5 -34.5t-43.5 -37.5
q-36 -26 -50 -53t-12 -63l1 -9h87v8q0 25 10 39.5t46 40.5q38 27 53.5 53t15.5 61q0 59 -42 94.5t-113 35.5q-49 0 -85.5 -17.5t-55.5 -50.5t-18 -78z" />
    <glyph glyph-name=".notdef" horiz-adv-x="676" 
d="M63 0v714h551v-714h-551zM262 164q0 -17 8 -29.5t22 -19.5t33 -7q29 0 46.5 15.5t17.5 40.5q0 12 -4.5 22.5t-13 18t-20.5 11.5t-26 4q-28 0 -45.5 -15.5t-17.5 -40.5zM177 464h89q0 32 17.5 50t47.5 18q19 0 33 -7t22 -20t8 -30q0 -20 -10.5 -34.5t-43.5 -37.5
q-36 -26 -50 -53t-12 -63l1 -9h87v8q0 25 10 39.5t46 40.5q38 27 53.5 53t15.5 61q0 59 -42 94.5t-113 35.5q-49 0 -85.5 -17.5t-55.5 -50.5t-18 -78z" />
    <glyph glyph-name=".null" horiz-adv-x="0" 
 />
    <glyph glyph-name="nonmarkingreturn" horiz-adv-x="0" 
 />
    <glyph glyph-name="space" unicode=" " horiz-adv-x="241" 
 />
    <glyph glyph-name="exclam" unicode="!" horiz-adv-x="304" 
d="M72 66q0 34 22.5 55.5t56.5 21.5q36 0 58.5 -21.5t22.5 -55.5q0 -33 -22.5 -54t-58.5 -21q-34 0 -56.5 21t-22.5 54zM95 714h117l-12 -464h-93z" />
    <glyph glyph-name="quotedbl" unicode="&#x22;" horiz-adv-x="474" 
d="M70 714h116l-15 -275h-86zM289 714h116l-15 -275h-86z" />
    <glyph glyph-name="numbersign" unicode="#" horiz-adv-x="656" 
d="M615 436h-113l-32 -151h106l-16 -87h-106l-41 -198h-82l40 198h-141l-40 -198h-83l40 198h-106l17 87h106l32 151h-101l16 86h102l39 192h83l-39 -192h140l39 192h83l-39 -192h112zM276 442l-34 -163h148l34 163h-148z" />
    <glyph glyph-name="dollar" unicode="$" 
d="M160 532q0 -66 84 -97q21 -6 27 -8v209q-32 -4 -57 -16.5t-39.5 -35t-14.5 -52.5zM468 197q0 40 -25 66t-85 44q-3 0 -8.5 1.5t-7.5 2.5v-226q57 5 91.5 34.5t34.5 77.5zM343 -67h-73l1 65q-109 9 -166.5 66t-57.5 136h96q3 -45 36 -76t92 -38v240l-40 11
q-73 18 -120.5 63.5t-47.5 124.5q0 87 58 138t150 60v68h72v-68q44 -4 81.5 -19.5t65.5 -40.5t44.5 -60t17.5 -76h-95q-1 42 -32 72t-83 37v-226l42 -10q88 -22 134 -67t46 -127q0 -92 -61 -145t-160 -62v-66z" />
    <glyph glyph-name="percent" unicode="%" horiz-adv-x="756" 
d="M95 542v-4q0 -52 19.5 -82.5t54.5 -30.5q23 0 40 14t26 39t9 59v4q0 34 -8.5 59t-25.5 38.5t-41 13.5q-36 0 -55 -30t-19 -80zM21 532v16q0 74 40 123.5t108 49.5q46 0 80 -23.5t51.5 -62.5t17.5 -89v-15q0 -74 -40.5 -124.5t-109.5 -50.5q-68 0 -107.5 50t-39.5 126z
M514 180v-5q0 -52 19.5 -82t54.5 -30t55 30t20 81v4q0 52 -19.5 82t-54.5 30q-36 0 -55.5 -30t-19.5 -80zM440 170v15q0 74 40.5 123.5t107.5 49.5q69 0 108.5 -49.5t39.5 -124.5v-16q0 -73 -40 -123.5t-109 -50.5q-68 0 -107.5 50t-39.5 126zM148 0h-87l278 365l268 349h87
l-278 -362z" />
    <glyph glyph-name="ampersand" unicode="&#x26;" horiz-adv-x="716" 
d="M583 0l-63 65q-92 -79 -224 -79q-105 0 -173 54.5t-68 146.5q0 66 36 112t101 82q16 9 28 15q-43 46 -65.5 82.5t-22.5 80.5q0 69 52.5 115t133.5 46q79 0 132.5 -44t53.5 -117q0 -61 -39.5 -103t-110.5 -79l163 -172q31 55 31 172v28h93v-32q0 -153 -58 -239l125 -134
h-125zM251 322q-46 -24 -70.5 -54t-24.5 -73q0 -58 43.5 -90t105.5 -32q43 0 86 14.5t71 44.5l-188 201q-11 -4 -23 -11zM301 434q54 27 81.5 53.5t27.5 66.5q0 39 -26 62.5t-65 23.5q-41 0 -66 -24.5t-25 -62.5q0 -18 7 -35t22.5 -37t43.5 -47z" />
    <glyph glyph-name="quotesingle" unicode="'" horiz-adv-x="255" 
d="M70 714h116l-15 -275h-86z" />
    <glyph glyph-name="parenleft" unicode="(" horiz-adv-x="353" 
d="M215 713h91q-18 -21 -37 -54.5t-39.5 -84.5t-33.5 -124t-13 -153q0 -65 9 -126t20 -101.5t31 -86.5t31 -66l31 -54h-95q-133 164 -133 433q0 82 11.5 149t34.5 118t42.5 81.5t49.5 68.5z" />
    <glyph glyph-name="parenright" unicode=")" horiz-adv-x="353" 
d="M47 713h90q24 -30 39.5 -52.5t36.5 -62t33 -79.5t21 -98.5t9 -124.5q0 -267 -134 -433h-94q20 35 30 54t30.5 65.5t31.5 87t20 101.5t9 126q0 80 -13 153t-33.5 124t-39 84.5t-36.5 54.5z" />
    <glyph glyph-name="asterisk" unicode="*" horiz-adv-x="514" 
d="M296 303h-79l13 166l-140 -95l-39 72l152 71l-152 71l39 72l140 -96l-13 167h79l-13 -167l139 96l39 -72l-152 -71l152 -71l-39 -72l-139 95z" />
    <glyph glyph-name="plus" unicode="+" 
d="M349 239v-229h-88v229h-211v94h211v217h88v-217h212v-94h-212z" />
    <glyph glyph-name="comma" unicode="," horiz-adv-x="266" 
d="M104 -190h-83l67 305h115z" />
    <glyph glyph-name="hyphen" unicode="-" horiz-adv-x="439" 
d="M384 243h-329v100h329v-100z" />
    <glyph glyph-name="period" unicode="." horiz-adv-x="316" 
d="M78 70q0 36 23 59t56 23q35 0 58 -23t23 -59q0 -35 -23 -57t-58 -22q-33 0 -56 22t-23 57z" />
    <glyph glyph-name="slash" unicode="/" horiz-adv-x="388" 
d="M114 -156h-94l256 908h94z" />
    <glyph glyph-name="zero" unicode="0" horiz-adv-x="658" 
d="M177 370v-27q0 -123 41 -191.5t111 -68.5q46 0 80.5 30t53 89.5t18.5 140.5v27q0 82 -18.5 141t-53 89.5t-80.5 30.5t-80 -30.5t-53 -89.5t-19 -141zM70 342v29q0 163 68.5 260t191.5 97q122 0 190 -97t68 -260v-29q0 -161 -68 -259t-192 -98q-122 0 -190 97t-68 260z
" />
    <glyph glyph-name="one" unicode="1" horiz-adv-x="493" 
d="M356 0h-106v597h-5l-165 -118v111l170 124h106v-714z" />
    <glyph glyph-name="two" unicode="2" horiz-adv-x="607" 
d="M178 509h-104v5q0 56 25 104t79 79t127 31q103 0 166 -56t63 -141q0 -27 -7.5 -53.5t-16 -44.5t-29 -45t-31.5 -40l-39 -44l-182 -200v-7h318v-97h-470v72l267 296q25 27 39.5 45.5t28 48.5t13.5 59q0 50 -34.5 80.5t-87.5 30.5q-57 0 -91 -34t-34 -83v-6z" />
    <glyph glyph-name="three" unicode="3" horiz-adv-x="619" 
d="M224 321v94h75q54 0 89.5 31.5t34.5 80.5q0 48 -35 78t-90 30q-35 0 -63.5 -13.5t-44 -35t-17.5 -46.5h-101q2 79 62.5 133.5t165.5 54.5q102 1 165 -51t65 -132q2 -70 -40.5 -115t-90.5 -53v-7q24 -2 49.5 -13.5t49.5 -31t39.5 -53t16.5 -73.5q1 -96 -72 -155t-185 -59
q-108 0 -173 54.5t-69 136.5h100q3 -27 22 -49t50.5 -34.5t70.5 -12.5q67 -1 107.5 33.5t40.5 88.5q-1 53 -40.5 86t-103.5 33h-78z" />
    <glyph glyph-name="four" unicode="4" horiz-adv-x="637" 
d="M344 714h158v-477h91v-97h-91v-140h-102v140h-347v99l70.5 122l68.5 112.5l79.5 125zM156 237h244v384h-6q-145 -217 -238 -379v-5z" />
    <glyph glyph-name="five" unicode="5" horiz-adv-x="632" 
d="M78 174h101q10 -46 50 -69.5t92 -23.5q58 0 101.5 41t43.5 111q0 63 -43 102t-103 39q-34 0 -63 -12t-45.5 -27.5t-26.5 -33.5h-92l31 414h412v-97h-322l-18 -212h5q6 9 18 19t29.5 19.5t43 16t53.5 6.5q62 0 113.5 -27t83 -80t31.5 -124q0 -74 -32.5 -131t-90.5 -88.5
t-134 -31.5q-101 0 -167 53.5t-71 135.5z" />
    <glyph glyph-name="six" unicode="6" horiz-adv-x="648" 
d="M569 559h-107q-7 28 -38 50.5t-83 22.5q-75 0 -121 -72t-46 -202h6q18 43 63.5 73.5t115.5 30.5q58 0 108 -25t83 -78.5t33 -124.5q0 -116 -70 -182t-180 -66q-142 0 -211 111q-52 88 -52 236q0 196 73.5 295t200.5 99q98 0 159 -51t66 -117zM188 229q0 -46 20 -80
t53 -51t73 -17q63 0 103.5 38t40.5 109q0 68 -42 105t-102 37q-64 0 -105 -39.5t-41 -101.5z" />
    <glyph glyph-name="seven" unicode="7" horiz-adv-x="580" 
d="M60 714h466v-100l-292 -614h-113l296 610v7h-357v97z" />
    <glyph glyph-name="eight" unicode="8" horiz-adv-x="649" 
d="M325 75q66 0 110 35.5t44 91.5t-44 92t-110 36t-110 -36t-44 -92t44 -91.5t110 -35.5zM325 415q56 0 92 31.5t36 81.5q0 49 -36 79.5t-92 30.5q-37 0 -66 -13.5t-45.5 -39t-16.5 -57.5q0 -50 36 -81.5t92 -31.5zM323 -15q-115 0 -186.5 58.5t-71.5 151.5q0 40 14 73
t36.5 54t46.5 33.5t49 18.5v6q-48 15 -83 55t-35 103q0 41 17.5 76t47.5 60.5t73.5 39.5t93.5 14q102 0 167 -53.5t65 -136.5q0 -64 -35.5 -103.5t-82.5 -54.5v-6q25 -6 49 -18.5t46.5 -33.5t36 -53.5t13.5 -72.5q0 -93 -73 -152t-188 -59z" />
    <glyph glyph-name="nine" unicode="9" horiz-adv-x="648" 
d="M84 146h106q5 -16 19 -30.5t39.5 -24.5t56.5 -10q61 0 101 37.5t55.5 97t13.5 138.5h-6q-18 -46 -62.5 -76t-112.5 -30q-98 0 -163.5 64t-65.5 174q0 112 71.5 177.5t181.5 65.5q41 0 77 -10t70.5 -35.5t58.5 -65t39 -102.5t15 -145q0 -384 -275 -384q-97 0 -154.5 47
t-64.5 112zM458 484q0 70 -41 110.5t-105 40.5q-60 0 -100.5 -40.5t-40.5 -108.5q0 -70 41 -108t102 -38q60 0 102 37.5t42 106.5z" />
    <glyph glyph-name="colon" unicode=":" horiz-adv-x="333" 
d="M87 421q0 17 6 32.5t16.5 26t25 16.5t30.5 6q17 0 32 -6t26 -16.5t17 -26t6 -32.5q0 -35 -23 -57.5t-58 -22.5q-32 0 -55 22.5t-23 57.5zM87 70q0 36 22.5 59t55.5 23q23 0 41.5 -10.5t29 -29t10.5 -42.5q0 -35 -23 -57t-58 -22q-33 0 -55.5 22t-22.5 57z" />
    <glyph glyph-name="semicolon" unicode=";" horiz-adv-x="332" 
d="M87 423q0 35 23 58t56 23q35 0 58 -23t23 -58q0 -36 -23 -58t-58 -22q-33 0 -56 22.5t-23 57.5zM119 -215h-90l74 323h127z" />
    <glyph glyph-name="less" unicode="&#x3c;" 
d="M76 230v82l458 269v-117l-343 -187v-6l343 -178v-116z" />
    <glyph glyph-name="equal" unicode="=" 
d="M532 139h-453v90h453v-90zM532 344h-453v91h453v-91z" />
    <glyph glyph-name="greater" unicode="&#x3e;" 
d="M535 312v-82l-459 -253v116l344 178v6l-344 187v117z" />
    <glyph glyph-name="question" unicode="?" horiz-adv-x="528" 
d="M174 66q0 22 10 40t28 27.5t41 9.5t41.5 -9.5t29 -27.5t10.5 -40q0 -33 -23 -54t-58 -21q-34 0 -56.5 21t-22.5 54zM44 522q0 55 19.5 97t53 65t71 34.5t79.5 11.5q91 0 153.5 -48t62.5 -136q0 -26 -6 -48.5t-14.5 -38.5t-24 -32.5t-27 -26t-30.5 -23.5
q-36 -28 -49.5 -41t-23 -33t-9.5 -49v-30h-100l-1 39q-1 36 13.5 67.5t34 52t50.5 43.5q30 23 43.5 35.5t25 32.5t11.5 45q0 49 -33 73.5t-81 24.5q-57 0 -87.5 -32.5t-30.5 -82.5h-100z" />
    <glyph glyph-name="at" unicode="@" horiz-adv-x="907" 
d="M670 70q-35 0 -62 10t-42 26.5t-19 36.5h-5q-8 -30 -40 -51.5t-76 -21.5q-66 0 -102.5 46.5t-36.5 124.5v52q0 77 37.5 123t104.5 46q43 0 70 -21t36 -48h4v62h81v-257q0 -29 17 -44t44 -15q40 0 67 44.5t27 129.5v18q0 46 -13 88t-38.5 78t-62 62.5t-86 41.5t-106.5 15
h-4q-93 0 -166 -40t-115.5 -117t-42.5 -178v-23q0 -80 25.5 -143.5t70 -103t101.5 -59.5t123 -20h5q107 0 164 25v-73q-51 -24 -167 -24h-4q-83 0 -154.5 25.5t-126 74t-85.5 124.5t-31 171v30q0 120 52.5 212.5t143.5 141.5t207 49h4q90 0 164 -29t121 -79t72.5 -113
t25.5 -133v-26q0 -107 -50.5 -172.5t-131.5 -65.5zM371 253q0 -37 11 -62t29 -35.5t43 -10.5q81 0 81 103v43q0 48 -23 74t-60 26q-13 0 -25.5 -4t-22.5 -12.5t-17 -20.5t-11.5 -30t-4.5 -39v-32z" />
    <glyph glyph-name="A" unicode="A" horiz-adv-x="665" 
d="M134 0h-108l249 714h116l249 -714h-115l-67 199h-257zM332 592h-4l-100 -304h205z" />
    <glyph glyph-name="B" unicode="B" horiz-adv-x="673" 
d="M96 0v714h278q92 0 147 -47t55 -129q0 -63 -31.5 -102.5t-84.5 -54.5v-5q72 -8 114 -54.5t42 -120.5q0 -96 -69 -148.5t-180 -52.5h-271zM203 621v-209h105q81 0 121 26t40 80q0 51 -32 77t-83 26h-151zM203 323v-230h118q89 0 137 24.5t48 87.5q0 57 -38.5 87.5
t-104.5 30.5h-160z" />
    <glyph glyph-name="C" unicode="C" horiz-adv-x="686" 
d="M176 403v-95q0 -111 48 -166.5t133 -55.5q76 0 118.5 41t42.5 102h105v-8q0 -43 -17 -84.5t-49 -75.5t-85 -55t-119 -21q-133 0 -209 84t-76 238v97q0 152 77 238t209 86q64 0 116 -20.5t85 -55t50.5 -78.5t17.5 -91v-8h-105q0 62 -44 107.5t-119 45.5q-54 0 -93.5 -25
t-62.5 -76t-23 -124z" />
    <glyph glyph-name="D" unicode="D" horiz-adv-x="709" 
d="M96 714h240q84 0 146 -26t98.5 -74t53.5 -111.5t17 -144.5q0 -80 -16.5 -143.5t-53 -112.5t-98.5 -75.5t-147 -26.5h-240v714zM204 616v-518h122q109 0 161.5 63t52.5 195q0 260 -214 260h-122z" />
    <glyph glyph-name="E" unicode="E" horiz-adv-x="607" 
d="M535 98v-98h-439v714h439v-98h-332v-206h313v-94h-313v-218h332z" />
    <glyph glyph-name="F" unicode="F" horiz-adv-x="573" 
d="M204 0h-108v714h433v-99h-325v-221h298v-97h-298v-297z" />
    <glyph glyph-name="G" unicode="G" horiz-adv-x="699" 
d="M629 491h-105q-9 67 -55 102t-111 35q-81 0 -131.5 -55.5t-50.5 -167.5v-93q0 -106 46 -166t135 -60q75 0 122.5 40.5t47.5 102.5v57h-172v92h276v-145q0 -32 -8.5 -65t-29 -66.5t-51 -59t-78.5 -41.5t-107 -16q-142 0 -215.5 88t-73.5 239v94q0 150 79 236t213 86
q63 0 113.5 -19.5t83 -53t51 -75.5t21.5 -89z" />
    <glyph glyph-name="H" unicode="H" horiz-adv-x="748" 
d="M652 0h-108v318h-340v-318h-108v714h108v-297h340v297h108v-714z" />
    <glyph glyph-name="I" unicode="I" horiz-adv-x="300" 
d="M204 0h-108v714h108v-714z" />
    <glyph glyph-name="J" unicode="J" horiz-adv-x="549" 
d="M27 184h104q2 -44 32 -69.5t72 -25.5q53 0 83 30t30 92v503h108v-497q0 -114 -59.5 -173t-160.5 -59q-96 0 -152.5 56t-56.5 143z" />
    <glyph glyph-name="K" unicode="K" horiz-adv-x="660" 
d="M629 714l-262 -305l275 -409h-133l-222 330l-83 -89v-241h-108v714h108v-333h5l297 333h123z" />
    <glyph glyph-name="L" unicode="L" horiz-adv-x="550" 
d="M525 101v-101h-429v714h108v-613h321z" />
    <glyph glyph-name="M" unicode="M" horiz-adv-x="864" 
d="M196 0h-98v714h108l224 -511h5l224 511h107v-714h-98v500h-5l-190 -426h-82l-190 426h-5v-500z" />
    <glyph glyph-name="N" unicode="N" horiz-adv-x="743" 
d="M201 0h-105v714h98l343 -517h5v517h105v-714h-98l-343 518h-5v-518z" />
    <glyph glyph-name="O" unicode="O" horiz-adv-x="720" 
d="M177 404v-100q0 -107 50.5 -163t132.5 -56q83 0 133.5 56t50.5 163v100q0 108 -51 166.5t-133 58.5t-132.5 -58.5t-50.5 -166.5zM68 305v98q0 152 79 238.5t214 86.5t213.5 -86.5t78.5 -238.5v-98q0 -150 -79 -235t-215 -85q-135 0 -213 84.5t-78 235.5z" />
    <glyph glyph-name="P" unicode="P" horiz-adv-x="637" 
d="M96 714h269q69 0 122.5 -29.5t81.5 -82t28 -118.5q0 -102 -63.5 -165.5t-169.5 -63.5h-160v-255h-108v714zM204 618v-268h100q93 0 137.5 29t44.5 105q0 64 -35 99t-99 35h-148z" />
    <glyph glyph-name="Q" unicode="Q" horiz-adv-x="721" 
d="M69 308v97q0 151 78.5 237t212.5 86t213.5 -86.5t79.5 -236.5v-97q0 -163 -93 -249l95 -135h-114l-62 83q-56 -22 -119 -22q-134 0 -212.5 86.5t-78.5 236.5zM175 405v-97q0 -110 51 -168.5t133 -58.5q36 0 65 11l-76 105h112l38 -48q49 58 49 159v97q0 109 -52 166.5
t-135 57.5q-53 0 -94.5 -24t-66 -75.5t-24.5 -124.5z" />
    <glyph glyph-name="R" unicode="R" horiz-adv-x="670" 
d="M364 714q115 0 175 -62t60 -157q0 -81 -39 -130.5t-92 -69.5l145 -295h-122l-130 275h-158v-275h-107v714h268zM203 368h142q70 0 107 31.5t37 91.5q0 41 -18 70t-49 43.5t-73 14.5h-146v-251z" />
    <glyph glyph-name="S" unicode="S" horiz-adv-x="640" 
d="M46 198h106q3 -33 22 -58.5t56.5 -41.5t88.5 -16q71 0 112 30.5t41 81.5q0 41 -27.5 65t-86.5 39l-121 29q-35 9 -64.5 23.5t-54.5 37t-39 56t-14 75.5q0 66 36 114.5t93 72.5t125 24t124 -23.5t92 -71.5t37 -113h-104q-5 49 -43.5 80.5t-106.5 31.5q-43 0 -75 -12.5
t-50.5 -36.5t-18.5 -57q0 -73 100 -96l119 -30q43 -10 75.5 -25t58.5 -38t40 -56.5t14 -77.5q0 -103 -75.5 -161.5t-196.5 -58.5q-70 0 -122.5 19.5t-82 51.5t-43.5 67.5t-15 74.5z" />
    <glyph glyph-name="T" unicode="T" horiz-adv-x="579" 
d="M343 0h-108v615h-211v99h532v-99h-213v-615z" />
    <glyph glyph-name="U" unicode="U" horiz-adv-x="729" 
d="M196 714v-459q0 -39 12 -70.5t33.5 -53t53 -33.5t70.5 -12q77 0 123 45.5t46 123.5v459h107v-466q0 -118 -76 -190.5t-200.5 -72.5t-200.5 73t-76 192v464h108z" />
    <glyph glyph-name="V" unicode="V" horiz-adv-x="663" 
d="M391 0h-119l-251 714h124l186 -583h5l184 583h122z" />
    <glyph glyph-name="W" unicode="W" horiz-adv-x="915" 
d="M311 0h-98l-193 714h121l124 -547h5l136 547h104l135 -547h6l124 547h121l-194 -714h-98l-144 532h-5z" />
    <glyph glyph-name="X" unicode="X" horiz-adv-x="626" 
d="M613 714l-234 -359l229 -355h-127l-170 268h-5l-171 -268h-119l229 360l-227 354h129l169 -270h6l168 270h123z" />
    <glyph glyph-name="Y" unicode="Y" horiz-adv-x="607" 
d="M357 0h-107v290l-238 424h121l168 -310h6l170 310h119l-239 -423v-291z" />
    <glyph glyph-name="Z" unicode="Z" horiz-adv-x="632" 
d="M58 0v78l369 531v7h-357v98h490v-77l-368 -532v-7h377v-98h-511z" />
    <glyph glyph-name="bracketleft" unicode="[" horiz-adv-x="370" 
d="M77 714h242v-84h-141v-665h148v-84h-249v833z" />
    <glyph glyph-name="backslash" unicode="\" horiz-adv-x="388" 
d="M370 -156h-94l-256 908h94z" />
    <glyph glyph-name="bracketright" unicode="]" horiz-adv-x="370" 
d="M51 714h242v-833h-248v84h148v665h-142v84z" />
    <glyph glyph-name="asciicircum" unicode="^" horiz-adv-x="443" 
d="M406 416h-90l-93 207h-3l-93 -207h-90l137 298h97z" />
    <glyph glyph-name="underscore" unicode="_" horiz-adv-x="470" 
d="M471 -142h-472v88h472v-88z" />
    <glyph glyph-name="grave" unicode="`" horiz-adv-x="523" 
d="M353 641h-79l-146 185h100z" />
    <glyph glyph-name="a" unicode="a" horiz-adv-x="588" 
d="M240 -9q-53 0 -94 21t-63.5 59.5t-22.5 89.5q0 74 50.5 118.5t143.5 44.5h142v52q0 32 -13.5 53t-37.5 30.5t-58 9.5q-89 0 -105 -62h-101q5 71 59 112.5t150 41.5q45 0 82 -10t67 -31.5t46.5 -58.5t16.5 -86v-375h-101v72h-5q-49 -81 -156 -81zM271 79q53 0 89 30.5
t36 76.5v61h-129q-50 0 -75.5 -22t-25.5 -59q0 -41 30.5 -64t74.5 -23z" />
    <glyph glyph-name="b" unicode="b" horiz-adv-x="637" 
d="M361 -8q-63 0 -104.5 26t-57.5 65h-5v-83h-103v752h106v-287h5q8 25 27.5 46t54.5 35t80 14q96 0 152.5 -63.5t56.5 -176.5v-87q0 -113 -57.5 -177t-154.5 -64zM335 86q60 0 95.5 41t35.5 121v54q0 40 -9 71t-26.5 52t-42 31.5t-55.5 10.5q-63 0 -99.5 -41.5
t-36.5 -112.5v-82q0 -64 38.5 -104.5t99.5 -40.5z" />
    <glyph glyph-name="c" unicode="c" horiz-adv-x="571" 
d="M64 237v81q0 111 63 177.5t171 66.5q100 0 157 -52.5t59 -126.5h-101q-5 33 -31.5 59.5t-81.5 26.5q-42 0 -72 -19t-44.5 -53.5t-14.5 -81.5v-78q0 -70 35 -110t96 -40q100 0 116 77h101q-2 -76 -59 -124.5t-160 -48.5q-108 0 -171 65.5t-63 180.5z" />
    <glyph glyph-name="d" unicode="d" horiz-adv-x="638" 
d="M277 561q62 0 103 -26t56 -65h5v282h106v-752h-102v88h-6q-11 -39 -55 -67t-109 -28q-96 0 -153.5 63t-57.5 172v97q0 108 57.5 172t155.5 64zM302 467q-40 0 -69.5 -18.5t-45.5 -54.5t-16 -86v-63q0 -76 36 -117.5t98 -41.5t99 40.5t37 111.5v85q0 64 -39 104t-100 40z
" />
    <glyph glyph-name="e" unicode="e" horiz-adv-x="590" 
d="M304 -9q-112 0 -176 65.5t-64 182.5v75q0 115 65 181.5t168 66.5t167.5 -67.5t64.5 -180.5v-65h-361v-27q0 -61 36 -100t99 -39q45 0 76 18t38 44h106q-4 -25 -18.5 -51t-40 -49.5t-67.5 -38.5t-93 -15zM168 324h257v8q0 41 -15.5 73t-45 49.5t-67.5 17.5
q-58 0 -93.5 -38.5t-35.5 -101.5v-8z" />
    <glyph glyph-name="f" unicode="f" horiz-adv-x="424" 
d="M138 0v459h-92v90h92v55q0 82 41.5 119t135.5 37q33 0 66 -4v-86q-19 3 -49 3q-49 0 -69.5 -17t-20.5 -61v-46h127v-90h-126v-459h-105z" />
    <glyph glyph-name="g" unicode="g" horiz-adv-x="620" 
d="M296 -117q68 0 103 34.5t35 97.5v82h-6q-16 -38 -57.5 -62.5t-96.5 -24.5q-94 0 -155 64t-61 173v75q0 110 60.5 174t154.5 64q58 0 101.5 -27t58.5 -64h4v83h102v-542q0 -110 -67 -163t-181 -53q-104 0 -159.5 44t-61.5 111h106q6 -29 37.5 -47.5t82.5 -18.5zM303 467
q-63 0 -100.5 -43.5t-37.5 -116.5v-48q0 -72 39 -115.5t100 -43.5t95.5 42t34.5 103v75q0 62 -35.5 104.5t-95.5 42.5z" />
    <glyph glyph-name="h" unicode="h" horiz-adv-x="643" 
d="M92 0v752h105v-298h6q5 16 16 33t30 34.5t51 28.5t72 11q83 0 134 -48.5t51 -139.5v-373h-106v341q0 61 -31.5 93t-85.5 32q-43 0 -74.5 -21t-47 -56t-15.5 -81v-308h-105z" />
    <glyph glyph-name="i" unicode="i" horiz-adv-x="310" 
d="M103 0v552h105v-552h-105zM83 719q0 15 5.5 28t15 22.5t22.5 14.5t29 5q32 0 52.5 -19.5t20.5 -50.5q0 -30 -20.5 -49.5t-52.5 -19.5q-31 0 -51.5 19.5t-20.5 49.5z" />
    <glyph glyph-name="j" unicode="j" horiz-adv-x="310" 
d="M83 719q0 15 5.5 28t15 22.5t22.5 14.5t29 5q32 0 52.5 -19.5t20.5 -50.5q0 -30 -20.5 -49.5t-52.5 -19.5q-31 0 -51.5 19.5t-20.5 49.5zM208 552v-564q0 -93 -42 -137.5t-118 -44.5q-30 0 -54 5v85q14 -3 34 -3q40 0 57.5 23t17.5 73v563h105z" />
    <glyph glyph-name="k" unicode="k" horiz-adv-x="572" 
d="M197 198v-198h-105v752h105v-440h4l213 240h121l-212 -239l226 -313h-125l-180 246z" />
    <glyph glyph-name="l" unicode="l" horiz-adv-x="292" 
d="M94 0v752h105v-752h-105z" />
    <glyph glyph-name="m" unicode="m" horiz-adv-x="943" 
d="M90 0v552h105v-89h5q5 17 14.5 32.5t26.5 31t45 25t63 9.5q41 0 73 -14t51.5 -37t28.5 -53h5q18 45 60 74.5t108 29.5q84 0 132 -46t48 -128v-387h-105v355q0 53 -28.5 82.5t-81.5 29.5q-50 0 -82.5 -34t-32.5 -88v-345h-104v352q0 53 -30 84t-81 31t-82.5 -33t-31.5 -88
v-346h-106z" />
    <glyph glyph-name="n" unicode="n" horiz-adv-x="640" 
d="M90 0v552h105v-98h5q35 107 166 107q86 0 136.5 -47.5t50.5 -139.5v-374h-106v342q0 62 -30 93t-84 31q-66 0 -101.5 -43.5t-35.5 -114.5v-308h-106z" />
    <glyph glyph-name="o" unicode="o" horiz-adv-x="611" 
d="M306 562q107 0 174.5 -67t67.5 -182v-72q0 -118 -67 -184t-175 -66q-109 0 -175.5 66t-66.5 184v72q0 112 67.5 180.5t174.5 68.5zM306 470q-63 0 -100 -45.5t-37 -116.5v-63q0 -72 36 -117t101 -45q64 0 99.5 45t35.5 117v63q0 71 -36 116.5t-99 45.5z" />
    <glyph glyph-name="p" unicode="p" horiz-adv-x="636" 
d="M359 -8q-62 0 -101 25.5t-57 65.5h-5v-271h-106v741h103v-88h5q8 20 22 36.5t34 30t48 21t60 7.5q96 0 153 -64t57 -176v-87q0 -113 -57.5 -177t-155.5 -64zM333 86q61 0 96.5 41t35.5 122v54q0 80 -35.5 122t-98.5 42t-99 -40.5t-36 -112.5v-85q0 -64 38 -103.5
t99 -39.5z" />
    <glyph glyph-name="q" unicode="q" horiz-adv-x="636" 
d="M274 560q62 0 104.5 -26t59.5 -68h5v86h103v-741h-106v273h-5q-17 -40 -58.5 -66t-103.5 -26q-97 0 -153 64.5t-56 175.5v89q0 109 57 174t153 65zM303 466q-41 0 -71 -19.5t-45.5 -55t-15.5 -84.5v-62q0 -76 35 -118t98 -42t99.5 41t36.5 111v86q0 42 -17.5 74.5
t-48.5 50.5t-71 18z" />
    <glyph glyph-name="r" unicode="r" horiz-adv-x="425" 
d="M98 0v552h105v-85h6q13 36 48.5 65t99.5 29q15 0 36 -3v-101q-13 4 -47 4q-68 0 -104.5 -36t-36.5 -94v-331h-107z" />
    <glyph glyph-name="s" unicode="s" horiz-adv-x="549" 
d="M65 392q0 57 30.5 96.5t76.5 56.5t103 17q91 0 146 -43t55 -115h-96q-2 19 -14 35.5t-36.5 28t-57.5 11.5q-47 0 -76 -20.5t-29 -56.5q0 -16 8 -29t18 -20.5t29.5 -13.5t32 -8.5t36.5 -6.5q3 -1 5 -1t4.5 -0.5t4.5 -1.5q43 -7 73.5 -17t57.5 -27.5t41 -45t14 -65.5
q0 -82 -61 -128.5t-164 -46.5q-96 0 -153.5 42t-57.5 115h103q11 -74 113 -74q59 0 88 22t29 57q0 16 -7.5 28.5t-17 20t-29.5 14t-33.5 9.5l-41.5 9q-6 1 -9 1q-35 7 -59 14t-49.5 19t-41 28t-25.5 40.5t-10 55.5z" />
    <glyph glyph-name="t" unicode="t" horiz-adv-x="411" 
d="M124 549v138h104v-138h124v-90h-124v-295q0 -45 18.5 -61.5t67.5 -16.5q27 0 45 2v-87q-21 -5 -71 -5q-96 0 -130.5 36.5t-34.5 122.5v304h-84v90h85z" />
    <glyph glyph-name="u" unicode="u" horiz-adv-x="637" 
d="M547 552v-552h-104v92h-6q-8 -25 -27 -46.5t-55 -38t-81 -16.5q-87 0 -137.5 44.5t-50.5 137.5v379h106v-350q0 -115 115 -115q57 0 95.5 35.5t38.5 87.5v342h106z" />
    <glyph glyph-name="v" unicode="v" horiz-adv-x="552" 
d="M217 0l-191 552h116l128 -441h5l140 441h112l-198 -552h-112z" />
    <glyph glyph-name="w" unicode="w" horiz-adv-x="808" 
d="M780 552l-146 -552h-106l-119 410h-4l-116 -410h-107l-153 552h115l93 -422h4l116 422h100l118 -422h5l95 422h105z" />
    <glyph glyph-name="x" unicode="x" horiz-adv-x="568" 
d="M407 0l-123 197h-4l-124 -197h-116l180 274l-183 278h125l120 -196h5l124 196h118l-185 -271l186 -281h-123z" />
    <glyph glyph-name="y" unicode="y" horiz-adv-x="578" 
d="M541 552l-191 -546l-14 -38q-14 -39 -28 -65t-36.5 -51.5t-56 -38t-78.5 -12.5q-34 0 -63 5v86q14 -3 43 -3q47 0 70.5 20t34.5 62l8 24l-200 557h117l139 -448h4l139 448h112z" />
    <glyph glyph-name="z" unicode="z" horiz-adv-x="538" 
d="M62 0v70l285 384v5h-285v93h415v-73l-282 -380v-5h285v-94h-418z" />
    <glyph glyph-name="braceleft" unicode="{" horiz-adv-x="406" 
d="M146 312v-13q94 -9 94 -120v-150q0 -58 24.5 -82.5t87.5 -24.5h21v-86h-36q-97 0 -146.5 43t-49.5 138v128q0 57 -18 81t-69 24v111q50 0 68.5 24t18.5 80v112q0 95 49 136t147 41h36v-86h-21q-63 0 -87.5 -24t-24.5 -82v-135q0 -37 -11 -61.5t-31 -37.5t-52 -16z" />
    <glyph glyph-name="bar" unicode="|" horiz-adv-x="381" 
d="M236 -159h-91v911h91v-911z" />
    <glyph glyph-name="braceright" unicode="}" horiz-adv-x="406" 
d="M260 299v13q-93 9 -93 115v135q0 39 -10.5 61.5t-35 33.5t-67.5 11h-21v86h36q98 0 147.5 -41t49.5 -136v-112q0 -56 18 -80t69 -24v-111q-51 0 -69 -24t-18 -81v-128q0 -95 -49.5 -138t-147.5 -43h-36v86h21q63 0 88 24.5t25 82.5v150q0 111 93 120z" />
    <glyph glyph-name="asciitilde" unicode="~" 
d="M406 254q-58 0 -120 57q-2 2 -6 5q-16 15 -25 22.5t-23 15t-27 7.5q-23 0 -38.5 -13t-21.5 -31t-7 -42h-88q0 81 37.5 132.5t116.5 51.5q59 0 120 -56l27 -25t25 -17t28 -8q63 0 69 86h87q0 -52 -15 -92t-50.5 -66.5t-88.5 -26.5z" />
    <glyph glyph-name="nonbreakingspace" unicode="&#xa0;" horiz-adv-x="241" 
 />
    <glyph glyph-name="exclamdown" unicode="&#xa1;" horiz-adv-x="304" 
d="M210 -145h-118l13 465h92zM232 503q0 -34 -22.5 -55.5t-56.5 -21.5q-35 0 -58 21.5t-23 55.5q0 33 23 54.5t58 21.5q22 0 40 -10t28.5 -27t10.5 -39z" />
    <glyph glyph-name="cent" unicode="&#xa2;" 
d="M529 243q-2 -66 -49.5 -113.5t-130.5 -56.5v-118h-83v118q-88 10 -141 73.5t-53 167.5v86q0 67 25 119t68.5 82t100.5 36v124h83v-124q80 -9 127.5 -59.5t49.5 -115.5h-101q-5 33 -33 60.5t-84 27.5q-64 0 -99.5 -41.5t-35.5 -110.5v-85q0 -46 16.5 -79.5t47 -51.5
t71.5 -18q55 0 84 22t37 57h100z" />
    <glyph glyph-name="sterling" unicode="&#xa3;" 
d="M563 94v-94h-500v98q26 1 40 5t26.5 16.5t17.5 37.5t5 66v97h-99v82h99v143q0 86 57.5 134.5t148.5 48.5q92 0 145 -47.5t56 -130.5h-100q-2 36 -29 60t-72 24q-52 0 -77.5 -28.5t-25.5 -72.5v-131h155v-82h-155v-101q-1 -97 -38 -119v-6h346z" />
    <glyph glyph-name="currency" unicode="&#xa4;" 
d="M502 80l-90 88q-49 -31 -107 -31q-60 0 -109 32l-91 -89l-57 60l90 90q-34 50 -34 112q0 59 32 109l-88 87l57 61l88 -87q50 35 112 35q61 0 110 -33l86 85l58 -61l-86 -86q33 -51 33 -110q0 -62 -36 -114l89 -88zM180 341.5q0 -50.5 36.5 -86t88.5 -35.5q34 0 62.5 16
t45.5 44t17 62q0 50 -37 86t-88 36t-88 -36t-37 -86.5z" />
    <glyph glyph-name="yen" unicode="&#xa5;" 
d="M510 130h-151v-130h-107v130h-150v75h150v71h-150v76h119l-208 362h121l169 -310h6l170 310h119l-207 -362h119v-76h-151v-71h151v-75z" />
    <glyph glyph-name="brokenbar" unicode="&#xa6;" horiz-adv-x="270" 
d="M181 409h-92v343h92v-343zM181 -159h-92v357h92v-357z" />
    <glyph glyph-name="section" unicode="&#xa7;" horiz-adv-x="514" 
d="M364 38q0 16 -7.5 29t-16.5 21t-28 16t-32 11.5l-40 10.5q-9 3 -13 4q-21 5 -38.5 10.5t-35.5 13.5t-32 17t-26.5 21t-20.5 26t-12.5 31.5t-4.5 38.5q0 84 88 129v4q-85 48 -85 135q0 81 58 127t142 46q88 0 142 -47t54 -119h-93q-2 30 -30 54.5t-75 24.5
q-44 0 -71 -22.5t-27 -58.5q0 -15 4 -27t16 -21l20 -15t29 -12.5l29.5 -9t33.5 -8.5q31 -7 52.5 -13.5t46.5 -19t40.5 -28.5t26 -40.5t10.5 -55.5q0 -45 -23 -79.5t-57 -55.5v-4q35 -22 55.5 -50.5t20.5 -73.5q0 -81 -58.5 -130.5t-151.5 -49.5q-88 0 -146.5 45t-59.5 120
h96q6 -36 34.5 -56.5t76.5 -20.5q55 0 82 23t27 59zM310 201q25 10 42 36t17 55q0 38 -28 59.5t-82 32.5q-12 2 -39 8q-24 -8 -45 -33.5t-21 -56.5q0 -38 27.5 -57.5t81.5 -32.5z" />
    <glyph glyph-name="dieresis" unicode="&#xa8;" horiz-adv-x="523" 
d="M99 712q0 17 7.5 31t21.5 21.5t31 7.5q26 0 43.5 -17t17.5 -43q0 -25 -17.5 -41.5t-43.5 -16.5t-43 16.5t-17 41.5zM296 712q0 17 7.5 31t21 21.5t29.5 7.5q27 0 44.5 -17t17.5 -43q0 -25 -17.5 -41.5t-44.5 -16.5q-24 0 -41 17t-17 41z" />
    <glyph glyph-name="copyright" unicode="&#xa9;" horiz-adv-x="885" 
d="M276 331v51q0 82 47 128t126 46q72 0 115 -40t44 -94h-73q-3 25 -23.5 45.5t-62.5 20.5q-100 0 -100 -109v-49q0 -51 26.5 -77t73.5 -26q77 0 89 56h72q-2 -53 -43.5 -90.5t-117.5 -37.5q-80 0 -126.5 46t-46.5 130zM135 335q0 -87 38.5 -156t109.5 -108.5t163 -39.5
q139 0 225.5 85.5t86.5 218.5v56q0 80 -39 147t-111 106.5t-162 39.5q-137 0 -224 -84.5t-87 -208.5v-56zM446 -33q-166 0 -271.5 104.5t-105.5 265.5v54q0 99 48 181t134.5 129.5t194.5 47.5q81 0 151.5 -28.5t119.5 -76.5t77 -114t28 -139v-54q0 -161 -105 -265.5
t-271 -104.5z" />
    <glyph glyph-name="ordfeminine" unicode="&#xaa;" horiz-adv-x="363" 
d="M152 403q-48 0 -76 24.5t-28 68.5q0 43 28.5 67t84.5 24h76v27q0 44 -55 44q-47 0 -53 -31h-69q3 40 33.5 65t90.5 25q58 0 92.5 -25t34.5 -79v-206h-70v39h-4q-25 -43 -85 -43zM175 459q26 0 44 14.5t18 36.5v29h-62q-55 0 -55 -38q0 -20 15.5 -31t39.5 -11z" />
    <glyph glyph-name="guillemotleft" unicode="&#xab;" horiz-adv-x="694" 
d="M322 296l180 211h111l-177 -211v-3l177 -212h-116l-175 210v5zM69 296l180 211h111l-177 -211v-3l177 -212h-116l-175 210v5z" />
    <glyph glyph-name="logicalnot" unicode="&#xac;" 
d="M560 49h-92v190h-418v91h510v-281z" />
    <glyph glyph-name="registered" unicode="&#xae;" horiz-adv-x="633" 
d="M318 217q-112 0 -184.5 70.5t-72.5 176.5v37q0 100 73.5 169.5t183.5 69.5q108 0 182 -69.5t74 -169.5v-37q0 -107 -72.5 -177t-183.5 -70zM317.5 269q88.5 0 146.5 55.5t58 139.5v36q0 79 -58.5 133.5t-146 54.5t-145.5 -54.5t-58 -133.5v-36q0 -84 57.5 -139.5
t146 -55.5zM277 568v-76h41q51 0 51 38q0 18 -12.5 28t-32.5 10h-47zM277 359h-53v250h118q36 0 58.5 -22t22.5 -55q0 -14 -3.5 -26.5t-10.5 -22t-16 -16t-19 -9.5l57 -99h-61l-49 92h-44v-92z" />
    <glyph glyph-name="macron" unicode="&#xaf;" horiz-adv-x="523" 
d="M411 659h-304v65h304v-65z" />
    <glyph glyph-name="degree" unicode="&#xb0;" horiz-adv-x="378" 
d="M190 422q-63 0 -107 44t-44 107q0 64 43.5 107.5t107.5 43.5q41 0 75.5 -20t54 -54.5t19.5 -76.5q0 -63 -43.5 -107t-105.5 -44zM190 496q32 0 55 23t23 54q0 21 -10.5 39t-28.5 28t-39 10q-32 0 -55.5 -22.5t-23.5 -54.5q0 -31 23.5 -54t55.5 -23z" />
    <glyph glyph-name="plusminus" unicode="&#xb1;" 
d="M348 341v-142h-89v142h-205v88h205v134h89v-134h206v-88h-206zM556 51h-500v90h500v-90z" />
    <glyph glyph-name="twosuperior" unicode="&#xb2;" horiz-adv-x="362" 
d="M125 604h-72v5q0 46 32.5 79t91.5 33q55 0 89 -29t34 -73q0 -18 -5.5 -34.5t-16.5 -31.5t-19 -24.5t-22 -22.5l-82 -76v-2h150v-66h-245v51l127 132q38 39 38 67q0 20 -14 32t-36 12q-15 0 -26.5 -6.5t-17.5 -17t-6 -22.5v-6z" />
    <glyph glyph-name="threesuperior" unicode="&#xb3;" horiz-adv-x="367" 
d="M138 512v62h39q12 0 21.5 3t16 9t10 14t3.5 17q0 19 -14 30.5t-36 11.5q-23 0 -37 -12t-15 -30h-70q2 46 34 75t89 29q36 0 63.5 -11.5t42.5 -32.5t15 -49q0 -30 -18 -51.5t-47 -28.5v-2q34 -5 55.5 -26t21.5 -57q0 -33 -18 -57.5t-47.5 -37t-67.5 -12.5q-40 0 -70 15.5
t-44.5 39t-15.5 51.5h70q2 -18 17.5 -30t40.5 -12q14 0 25 3.5t19 9.5t12 14.5t4 18.5q0 20 -15.5 33t-42.5 13h-41z" />
    <glyph glyph-name="acute" unicode="&#xb4;" horiz-adv-x="523" 
d="M160 641l125 185h101l-146 -185h-80z" />
    <glyph glyph-name="paragraph" unicode="&#xb6;" horiz-adv-x="703" 
d="M412 -110h-103v366h-10q-29 0 -59.5 8t-62 25.5t-56.5 43t-40.5 65t-15.5 87.5q0 43 11 79t29.5 60.5t42 42.5t50.5 28t52 14.5t49 4.5h113v-824zM495 -110v824h103v-824h-103z" />
    <glyph glyph-name="periodcentered" unicode="&#xb7;" horiz-adv-x="345" 
d="M93 395q0 36 22.5 59t56.5 23q22 0 40.5 -10.5t29 -29t10.5 -42.5q0 -35 -23 -57.5t-57 -22.5t-56.5 22.5t-22.5 57.5z" />
    <glyph glyph-name="cedilla" unicode="&#xb8;" horiz-adv-x="523" 
d="M201 -123v47l31 80h69l-27 -71q49 0 78 -22.5t29 -63.5q0 -49 -33 -74t-86 -27q-45 -1 -78 9v59q24 -8 60 -8q60 0 60 38q0 21 -19 27t-56 6h-28z" />
    <glyph glyph-name="onesuperior" unicode="&#xb9;" horiz-adv-x="334" 
d="M234 362h-75v275h-4l-80 -58v73l84 62h75v-352z" />
    <glyph glyph-name="ordmasculine" unicode="&#xba;" horiz-adv-x="361" 
d="M182 656q-33 0 -51.5 -22.5t-18.5 -58.5v-32q0 -36 17.5 -58.5t52.5 -22.5q22 0 37.5 11t23 29t7.5 41v32q0 36 -18 58.5t-50 22.5zM181.5 717q63.5 0 102.5 -38t39 -103v-34q0 -66 -38.5 -103.5t-102.5 -37.5q-66 0 -104.5 37.5t-38.5 103.5v34q0 63 39.5 102t103 39z
" />
    <glyph glyph-name="guillemotright" unicode="&#xbb;" horiz-adv-x="694" 
d="M613 296v-5l-175 -210h-116l178 212v3l-178 211h111zM360 296v-5l-175 -210h-116l177 212v3l-177 211h111z" />
    <glyph glyph-name="onequarter" unicode="&#xbc;" horiz-adv-x="740" 
d="M492 121h104v169h-3q-40 -60 -101 -167v-2zM562 352h101v-231h43v-60h-43v-61h-67v61h-174v59q38 70 140 232zM191 362h-75v275h-4l-80 -58v73l84 62h75v-352zM134 0h-87l278 365l268 349h86l-277 -362z" />
    <glyph glyph-name="onehalf" unicode="&#xbd;" horiz-adv-x="748" 
d="M545 236h-74v6q0 46 33 79.5t93 33.5q38 0 66.5 -13.5t43.5 -37t15 -53.5q0 -23 -11.5 -47t-22 -36t-29.5 -31l-84 -77v-2h153v-67h-250v51l129 134q39 40 39 68q0 20 -14.5 32.5t-35.5 12.5q-16 0 -27.5 -6.5t-17.5 -17t-6 -23.5v-6zM191 362h-75v275h-4l-80 -58v73
l84 62h75v-352zM133 0h-87l278 365l268 349h86l-277 -362z" />
    <glyph glyph-name="threequarters" unicode="&#xbe;" horiz-adv-x="761" 
d="M515 122h104v168h-3q-45 -67 -101 -167v-1zM584 352h103v-230h42v-61h-42v-61h-68v61h-175v59q33 60 140 232zM115 503v62h40q23 0 37 12t14 32q0 19 -14 30.5t-36 11.5q-24 0 -38 -12.5t-15 -30.5h-71q2 47 34.5 76.5t90.5 29.5q54 0 88 -26t34 -68q0 -21 -8.5 -37.5
t-23 -27.5t-33.5 -16v-2q16 -3 29.5 -9t24.5 -16t17 -25t6 -34q0 -50 -38 -79t-96 -29q-61 0 -95.5 31.5t-36.5 75.5h71q1 -12 8.5 -21.5t20.5 -15.5t30 -6q27 0 44 13.5t17 33.5t-16 33.5t-44 13.5h-41zM156 0h-87l279 365l267 349h87l-277 -362z" />
    <glyph glyph-name="questiondown" unicode="&#xbf;" horiz-adv-x="527" 
d="M354 496q0 -34 -22.5 -56t-56.5 -22q-36 0 -58.5 22t-22.5 56q0 33 23 54t58 21q22 0 40.5 -9.5t28.5 -27t10 -38.5zM483 40q1 -55 -18.5 -97t-53 -65.5t-71.5 -34.5t-80 -11q-90 0 -153 48t-63 136q0 32 8.5 58t25.5 47t31 33.5t37 30.5q51 39 67 60.5t16 62.5v30h100
l1 -39q1 -52 -25 -89.5t-73 -74.5q-30 -22 -43.5 -34.5t-25 -33t-11.5 -45.5q0 -48 33 -72.5t81 -24.5q38 0 65 15.5t39.5 41t12.5 58.5h100z" />
    <glyph glyph-name="Agrave" unicode="&#xc0;" horiz-adv-x="665" 
d="M134 0h-108l249 714h116l249 -714h-115l-67 199h-257zM332 592h-4l-100 -304h205zM403 789h-105l-147 110h117z" />
    <glyph glyph-name="Aacute" unicode="&#xc1;" horiz-adv-x="665" 
d="M134 0h-108l249 714h116l249 -714h-115l-67 199h-257zM332 592h-4l-100 -304h205zM257 789l136 111h120l-146 -111h-110z" />
    <glyph glyph-name="Acircumflex" unicode="&#xc2;" horiz-adv-x="665" 
d="M134 0h-108l249 714h116l249 -714h-115l-67 199h-257zM332 592h-4l-100 -304h205zM158 783l145 129h71l139 -129h-97l-77 71h-4l-82 -71h-95z" />
    <glyph glyph-name="Atilde" unicode="&#xc3;" horiz-adv-x="665" 
d="M134 0h-108l249 714h116l249 -714h-115l-67 199h-257zM332 592h-4l-100 -304h205zM319 796q-2 1 -5.5 4.5l-5 5l-4.5 4.5t-5.5 4.5t-5.5 3.5t-6 3t-6.5 2t-6.5 1q-33 0 -37 -51h-65q0 29 9.5 54t32 42.5t54.5 17.5q42 0 82 -37l7 -7l7 -7t6.5 -5.5t7.5 -5t7.5 -3
t8.5 -1.5q12 0 21 10t12.5 22t4.5 25h65q0 -45 -27 -80.5t-70 -35.5q-29 0 -46.5 8.5t-34.5 25.5z" />
    <glyph glyph-name="Adieresis" unicode="&#xc4;" horiz-adv-x="665" 
d="M134 0h-108l249 714h116l249 -714h-115l-67 199h-257zM332 592h-4l-100 -304h205zM179 826q0 25 16.5 41t41.5 16q17 0 30.5 -7t21 -20t7.5 -30q0 -24 -16.5 -40t-42.5 -16q-25 0 -41.5 16t-16.5 40zM369 826q0 17 7.5 30t20.5 20t30 7q26 0 42.5 -16t16.5 -41
q0 -16 -7.5 -28.5t-21 -20t-30.5 -7.5q-16 0 -29.5 7.5t-21 20t-7.5 28.5z" />
    <glyph glyph-name="Aring" unicode="&#xc5;" horiz-adv-x="665" 
d="M275 783q0 -24 16.5 -40.5t39.5 -16.5q24 0 40.5 16.5t16.5 40.5q0 23 -16.5 39t-40.5 16q-23 0 -39.5 -16t-16.5 -39zM433 288l-101 304h-4l-100 -304h205zM134 0h-108l242 692q-23 14 -36.5 38.5t-13.5 52.5q0 49 33 83t80 34t80 -34t33 -83q0 -57 -48 -88l244 -695
h-115l-67 199h-257z" />
    <glyph glyph-name="AE" unicode="&#xc6;" horiz-adv-x="1002" 
d="M459 616l-166 -319l203 1v318h-37zM496 205h-245l-110 -205h-121l376 714h535v-98h-328v-206h309v-94h-309v-218h328v-98h-435v205z" />
    <glyph glyph-name="Ccedilla" unicode="&#xc7;" horiz-adv-x="686" 
d="M348 -254q-44 -1 -78 9v59q25 -8 60 -8q61 0 61 38q0 21 -19 27t-56 6h-28v47l25 64q-116 12 -180.5 94.5t-64.5 224.5v97q0 152 77 238t209 86q64 0 116 -20.5t85 -55t50.5 -78.5t17.5 -91v-8h-105q0 62 -44 107.5t-119 45.5q-54 0 -93.5 -25t-62.5 -76t-23 -124v-95
q0 -111 48 -166.5t133 -55.5q76 0 118.5 41t42.5 102h105v-8q0 -27 -6.5 -53t-19.5 -51.5t-33.5 -47.5t-46.5 -39.5t-61 -28.5t-75 -14l-21 -54q50 0 79 -22.5t29 -63.5q0 -33 -16.5 -56t-42.5 -33t-61 -12z" />
    <glyph glyph-name="Egrave" unicode="&#xc8;" horiz-adv-x="607" 
d="M383 789h-105l-146 110h117zM535 98v-98h-439v714h439v-98h-332v-206h313v-94h-313v-218h332z" />
    <glyph glyph-name="Eacute" unicode="&#xc9;" horiz-adv-x="607" 
d="M238 789l136 111h119l-146 -111h-109zM535 98v-98h-439v714h439v-98h-332v-206h313v-94h-313v-218h332z" />
    <glyph glyph-name="Ecircumflex" unicode="&#xca;" horiz-adv-x="607" 
d="M139 783l145 129h71l139 -129h-97l-77 71h-5l-81 -71h-95zM535 98v-98h-439v714h439v-98h-332v-206h313v-94h-313v-218h332z" />
    <glyph glyph-name="Edieresis" unicode="&#xcb;" horiz-adv-x="607" 
d="M160 826q0 25 16 41t41 16q17 0 30.5 -7t21 -20t7.5 -30q0 -24 -16.5 -40t-42.5 -16q-25 0 -41 16t-16 40zM349 826q0 25 16.5 41t41.5 16q26 0 42.5 -16t16.5 -41q0 -16 -7.5 -28.5t-21 -20t-30.5 -7.5q-25 0 -41.5 16t-16.5 40zM535 98v-98h-439v714h439v-98h-332v-206
h313v-94h-313v-218h332z" />
    <glyph glyph-name="Igrave" unicode="&#xcc;" horiz-adv-x="300" 
d="M204 0h-108v714h108v-714zM221 789h-105l-147 110h117z" />
    <glyph glyph-name="Iacute" unicode="&#xcd;" horiz-adv-x="300" 
d="M204 0h-108v714h108v-714zM75 789l136 111h120l-146 -111h-110z" />
    <glyph glyph-name="Icircumflex" unicode="&#xce;" horiz-adv-x="300" 
d="M204 0h-108v714h108v-714zM-24 783l145 129h71l139 -129h-97l-77 71h-4l-82 -71h-95z" />
    <glyph glyph-name="Idieresis" unicode="&#xcf;" horiz-adv-x="300" 
d="M204 0h-108v714h108v-714zM-3 826q0 25 16 41t41 16q17 0 30.5 -7t21 -20t7.5 -30q0 -24 -16.5 -40t-42.5 -16q-24 0 -40.5 16t-16.5 40zM187 826q0 25 16 41t41 16q26 0 42.5 -16t16.5 -41q0 -16 -7 -28.5t-20.5 -20t-31.5 -7.5q-12 0 -22.5 4.5t-18 12t-12 17.5
t-4.5 22z" />
    <glyph glyph-name="Eth" unicode="&#xd0;" horiz-adv-x="752" 
d="M378 0h-239v313h-85v101h85v300h239q84 0 146 -26t98.5 -74t54 -111.5t17.5 -144.5q0 -80 -17 -143.5t-53 -112.5t-98.5 -75.5t-147.5 -26.5zM246 99h122q109 0 161.5 63t52.5 196q0 260 -214 260h-122v-204h150v-101h-150v-214z" />
    <glyph glyph-name="Ntilde" unicode="&#xd1;" horiz-adv-x="743" 
d="M357 796l-4.5 4.5l-5 5t-5 4.5t-5.5 4.5t-5.5 3.5t-6 3t-6 2t-7.5 1q-32 0 -36 -51h-66q0 29 10 54t32.5 42.5t54.5 17.5q42 0 82 -37l8 -8l8.5 -8.5t7.5 -6t10 -5t10 -1.5q17 0 26.5 17.5t11.5 39.5h65q0 -21 -7 -42t-19 -37.5t-30.5 -26.5t-40.5 -10q-29 0 -47 8.5
t-35 25.5zM201 0h-105v714h98l343 -517h5v517h105v-714h-98l-343 518h-5v-518z" />
    <glyph glyph-name="Ograve" unicode="&#xd2;" horiz-adv-x="720" 
d="M430 789h-105l-146 110h117zM177 404v-100q0 -107 50.5 -163t132.5 -56q83 0 133.5 56t50.5 163v100q0 108 -51 166.5t-133 58.5t-132.5 -58.5t-50.5 -166.5zM68 305v98q0 152 79 238.5t214 86.5t213.5 -86.5t78.5 -238.5v-98q0 -150 -79 -235t-215 -85q-135 0 -213 84.5
t-78 235.5z" />
    <glyph glyph-name="Oacute" unicode="&#xd3;" horiz-adv-x="720" 
d="M285 789l136 111h119l-146 -111h-109zM177 404v-100q0 -107 50.5 -163t132.5 -56q83 0 133.5 56t50.5 163v100q0 108 -51 166.5t-133 58.5t-132.5 -58.5t-50.5 -166.5zM68 305v98q0 152 79 238.5t214 86.5t213.5 -86.5t78.5 -238.5v-98q0 -150 -79 -235t-215 -85
q-135 0 -213 84.5t-78 235.5z" />
    <glyph glyph-name="Ocircumflex" unicode="&#xd4;" horiz-adv-x="720" 
d="M186 783l145 129h71l139 -129h-97l-77 71h-5l-81 -71h-95zM177 404v-100q0 -107 50.5 -163t132.5 -56q83 0 133.5 56t50.5 163v100q0 108 -51 166.5t-133 58.5t-132.5 -58.5t-50.5 -166.5zM68 305v98q0 152 79 238.5t214 86.5t213.5 -86.5t78.5 -238.5v-98
q0 -150 -79 -235t-215 -85q-135 0 -213 84.5t-78 235.5z" />
    <glyph glyph-name="Otilde" unicode="&#xd5;" horiz-adv-x="720" 
d="M177 404v-100q0 -107 50.5 -163t132.5 -56q83 0 133.5 56t50.5 163v100q0 108 -51 166.5t-133 58.5t-132.5 -58.5t-50.5 -166.5zM68 305v98q0 152 79 238.5t214 86.5t213.5 -86.5t78.5 -238.5v-98q0 -150 -79 -235t-215 -85q-135 0 -213 84.5t-78 235.5zM346 796
q-1 0 -5 5t-5.5 6t-5.5 4.5t-7 5t-6.5 3.5t-7.5 3t-8 1q-32 0 -36 -51h-66q0 46 25 80t72 34q42 0 82 -37l8 -8l8.5 -8.5t7.5 -6t10 -5t10 -1.5q12 0 20.5 10t12.5 22t5 25h65q0 -45 -27 -80.5t-70 -35.5q-29 0 -47 8.5t-35 25.5z" />
    <glyph glyph-name="Odieresis" unicode="&#xd6;" horiz-adv-x="720" 
d="M207 826q0 25 16 41t41 16q17 0 30.5 -7t21 -20t7.5 -30q0 -24 -16.5 -40t-42.5 -16q-12 0 -22.5 4.5t-18.5 12t-12 17.5t-4 22zM396 826q0 25 16.5 41t41.5 16q26 0 42.5 -16t16.5 -41q0 -16 -7.5 -28.5t-21 -20t-30.5 -7.5q-25 0 -41.5 16t-16.5 40zM177 404v-100
q0 -107 50.5 -163t132.5 -56q83 0 133.5 56t50.5 163v100q0 108 -51 166.5t-133 58.5t-132.5 -58.5t-50.5 -166.5zM68 305v98q0 152 79 238.5t214 86.5t213.5 -86.5t78.5 -238.5v-98q0 -150 -79 -235t-215 -85q-135 0 -213 84.5t-78 235.5z" />
    <glyph glyph-name="multiply" unicode="&#xd7;" 
d="M467 36l-162 162l-162 -162l-63 69l162 161l-162 162l63 68l162 -162l162 162l63 -68l-162 -162l162 -161z" />
    <glyph glyph-name="Oslash" unicode="&#xd8;" horiz-adv-x="720" 
d="M359 -15q-123 0 -198 70l-53 -65l-55 47l61 75q-46 78 -46 193v98q0 152 79 238.5t214 86.5q119 0 195 -67l49 60l58 -43l-61 -73q51 -82 51 -202v-98q0 -150 -79 -235t-215 -85zM175 304q0 -52 14 -92l302 364q-50 54 -131 54q-54 0 -95 -24.5t-65.5 -76.5t-24.5 -125
v-100zM360 83q83 0 134 56.5t51 164.5v100q0 58 -18 101l-302 -366q49 -56 135 -56z" />
    <glyph glyph-name="Ugrave" unicode="&#xd9;" horiz-adv-x="729" 
d="M435 789h-105l-147 110h117zM196 714v-459q0 -39 12 -70.5t33.5 -53t53 -33.5t70.5 -12q77 0 123 45.5t46 123.5v459h107v-466q0 -118 -76 -190.5t-200.5 -72.5t-200.5 73t-76 192v464h108z" />
    <glyph glyph-name="Uacute" unicode="&#xda;" horiz-adv-x="729" 
d="M289 789l136 111h120l-146 -111h-110zM196 714v-459q0 -39 12 -70.5t33.5 -53t53 -33.5t70.5 -12q77 0 123 45.5t46 123.5v459h107v-466q0 -118 -76 -190.5t-200.5 -72.5t-200.5 73t-76 192v464h108z" />
    <glyph glyph-name="Ucircumflex" unicode="&#xdb;" horiz-adv-x="729" 
d="M190 783l145 129h71l139 -129h-97l-77 71h-4l-82 -71h-95zM196 714v-459q0 -39 12 -70.5t33.5 -53t53 -33.5t70.5 -12q77 0 123 45.5t46 123.5v459h107v-466q0 -118 -76 -190.5t-200.5 -72.5t-200.5 73t-76 192v464h108z" />
    <glyph glyph-name="Udieresis" unicode="&#xdc;" horiz-adv-x="729" 
d="M211 826q0 25 16 41t41 16q17 0 30.5 -7t21 -20t7.5 -30q0 -24 -16.5 -40t-42.5 -16q-12 0 -22.5 4.5t-18 12t-12 17.5t-4.5 22zM401 826q0 17 7.5 30t20.5 20t29 7q26 0 42.5 -16t16.5 -41q0 -16 -7 -28.5t-21 -20t-31 -7.5q-25 0 -41 16t-16 40zM196 714v-459
q0 -39 12 -70.5t33.5 -53t53 -33.5t70.5 -12q77 0 123 45.5t46 123.5v459h107v-466q0 -118 -76 -190.5t-200.5 -72.5t-200.5 73t-76 192v464h108z" />
    <glyph glyph-name="Yacute" unicode="&#xdd;" horiz-adv-x="607" 
d="M357 0h-107v290l-238 424h121l168 -310h6l170 310h119l-239 -423v-291zM229 789l136 111h119l-146 -111h-109z" />
    <glyph glyph-name="Thorn" unicode="&#xde;" horiz-adv-x="635" 
d="M96 714h107v-129h153q107 0 169.5 -57.5t62.5 -156.5q0 -100 -62.5 -156.5t-169.5 -56.5h-152v-158h-108v714zM204 489v-236h120q36 0 61 4t47.5 16t34 36.5t11.5 61.5q0 118 -135 118h-139z" />
    <glyph glyph-name="germandbls" unicode="&#xdf;" horiz-adv-x="682" 
d="M202 0h-107v547q0 98 63.5 152.5t167.5 54.5t167.5 -51.5t63.5 -134.5q-1 -38 -14.5 -70.5t-34 -52.5t-42.5 -31.5t-42 -14.5v-7q50 0 94 -20.5t75 -65t31 -104.5q0 -68 -37 -117t-93 -71.5t-123 -22.5q-48 0 -81 10v92q27 -11 74 -11q39 0 72 11.5t56.5 40t23.5 71.5
q0 39 -21.5 67.5t-60 43.5t-90.5 15h-40v103h24q47 0 85.5 33.5t38.5 85.5q0 48 -33 78t-90 30q-127 0 -127 -133v-528z" />
    <glyph glyph-name="agrave" unicode="&#xe0;" horiz-adv-x="588" 
d="M240 -9q-53 0 -94 21t-63.5 59.5t-22.5 89.5q0 74 50.5 118.5t143.5 44.5h142v52q0 32 -13.5 53t-37.5 30.5t-58 9.5q-89 0 -105 -62h-101q5 71 59 112.5t150 41.5q45 0 82 -10t67 -31.5t46.5 -58.5t16.5 -86v-375h-101v72h-5q-49 -81 -156 -81zM271 79q53 0 89 30.5
t36 76.5v61h-129q-50 0 -75.5 -22t-25.5 -59q0 -41 30.5 -64t74.5 -23zM347 642h-79l-146 186h101z" />
    <glyph glyph-name="aacute" unicode="&#xe1;" horiz-adv-x="588" 
d="M240 -9q-53 0 -94 21t-63.5 59.5t-22.5 89.5q0 74 50.5 118.5t143.5 44.5h142v52q0 32 -13.5 53t-37.5 30.5t-58 9.5q-89 0 -105 -62h-101q5 71 59 112.5t150 41.5q45 0 82 -10t67 -31.5t46.5 -58.5t16.5 -86v-375h-101v72h-5q-49 -81 -156 -81zM271 79q53 0 89 30.5
t36 76.5v61h-129q-50 0 -75.5 -22t-25.5 -59q0 -41 30.5 -64t74.5 -23zM267 642l125 186h101l-146 -186h-80z" />
    <glyph glyph-name="acircumflex" unicode="&#xe2;" horiz-adv-x="588" 
d="M240 -9q-53 0 -94 21t-63.5 59.5t-22.5 89.5q0 74 50.5 118.5t143.5 44.5h142v52q0 32 -13.5 53t-37.5 30.5t-58 9.5q-89 0 -105 -62h-101q5 71 59 112.5t150 41.5q45 0 82 -10t67 -31.5t46.5 -58.5t16.5 -86v-375h-101v72h-5q-49 -81 -156 -81zM271 79q53 0 89 30.5
t36 76.5v61h-129q-50 0 -75.5 -22t-25.5 -59q0 -41 30.5 -64t74.5 -23zM127 641l131 192h72l126 -192h-88l-74 124h-2l-79 -124h-86z" />
    <glyph glyph-name="atilde" unicode="&#xe3;" horiz-adv-x="588" 
d="M240 -9q-53 0 -94 21t-63.5 59.5t-22.5 89.5q0 74 50.5 118.5t143.5 44.5h142v52q0 32 -13.5 53t-37.5 30.5t-58 9.5q-89 0 -105 -62h-101q5 71 59 112.5t150 41.5q45 0 82 -10t67 -31.5t46.5 -58.5t16.5 -86v-375h-101v72h-5q-49 -81 -156 -81zM271 79q53 0 89 30.5
t36 76.5v61h-129q-50 0 -75.5 -22t-25.5 -59q0 -41 30.5 -64t74.5 -23zM281 648q-7 10 -11.5 15t-13.5 10.5t-20 5.5q-33 0 -37 -62h-66q0 58 26.5 97.5t72.5 39.5q13 0 24 -2t20.5 -7t18.5 -13t17 -20q2 -2 7 -10t7.5 -10.5l7.5 -7.5t10.5 -6.5t12.5 -1.5q17 0 26 21t11 48
h66q0 -54 -28.5 -96t-70.5 -42q-52 0 -80 41z" />
    <glyph glyph-name="adieresis" unicode="&#xe4;" horiz-adv-x="588" 
d="M240 -9q-53 0 -94 21t-63.5 59.5t-22.5 89.5q0 74 50.5 118.5t143.5 44.5h142v52q0 32 -13.5 53t-37.5 30.5t-58 9.5q-89 0 -105 -62h-101q5 71 59 112.5t150 41.5q45 0 82 -10t67 -31.5t46.5 -58.5t16.5 -86v-375h-101v72h-5q-49 -81 -156 -81zM271 79q53 0 89 30.5
t36 76.5v61h-129q-50 0 -75.5 -22t-25.5 -59q0 -41 30.5 -64t74.5 -23zM138 685q0 25 17 42t43 17q8 0 16 -2t14.5 -5.5t12.5 -9t9.5 -12t5.5 -14.5t2 -16q0 -25 -17 -42t-43 -17q-17 0 -31 7.5t-21.5 21t-7.5 30.5zM334 685q0 25 17 42t42 17q27 0 44.5 -16.5t17.5 -42.5
q0 -25 -17.5 -42t-44.5 -17q-25 0 -42 17t-17 42z" />
    <glyph glyph-name="aring" unicode="&#xe5;" horiz-adv-x="588" 
d="M240 -9q-53 0 -94 21t-63.5 59.5t-22.5 89.5q0 74 50.5 118.5t143.5 44.5h142v52q0 32 -13.5 53t-37.5 30.5t-58 9.5q-89 0 -105 -62h-101q5 71 59 112.5t150 41.5q45 0 82 -10t67 -31.5t46.5 -58.5t16.5 -86v-375h-101v72h-5q-49 -81 -156 -81zM271 79q53 0 89 30.5
t36 76.5v61h-129q-50 0 -75.5 -22t-25.5 -59q0 -41 30.5 -64t74.5 -23zM294 622q-43 0 -73 29.5t-30 73.5t30 73.5t73 29.5q44 0 74 -29t30 -73.5t-30 -74t-74 -29.5zM243 725q0 -22 15 -37t36 -15q9 0 17 2.5t14.5 7.5t11 11.5t7 14t2.5 16.5q0 14 -6.5 26t-18.5 19t-27 7
q-21 0 -36 -15t-15 -37z" />
    <glyph glyph-name="ae" unicode="&#xe6;" horiz-adv-x="924" 
d="M640 -9q-78 0 -129.5 29.5t-70.5 75.5h-7q-23 -45 -70 -75t-117 -30q-55 0 -97.5 20t-66 58t-23.5 90q0 76 51.5 120.5t146.5 44.5h140v52q0 47 -28.5 70t-80.5 23q-91 0 -108 -62h-101q6 71 61 112.5t151 41.5q56 0 101 -18t68 -52h7q24 33 68.5 51.5t97.5 18.5
q103 0 166 -67t63 -180v-65h-356v-39q0 -56 36.5 -91.5t97.5 -35.5q45 0 74 18t36 44h105q-3 -25 -17 -51t-38.5 -49.5t-66 -38.5t-93.5 -15zM634 472q-27 0 -51 -10t-41 -27t-26.5 -42t-9.5 -54v-15h252v11q0 63 -33.5 100t-90.5 37zM272 79q53 0 89 31t36 76v61h-127
q-52 0 -79 -22t-27 -59q0 -28 16 -48.5t39.5 -29.5t52.5 -9z" />
    <glyph glyph-name="ccedilla" unicode="&#xe7;" horiz-adv-x="571" 
d="M302 -254q-44 -1 -78 9v59q25 -8 60 -8q60 0 60 38q0 11 -5.5 18t-17.5 10t-22.5 4t-28.5 1h-28v47l26 68q-63 6 -109 37t-70.5 84.5t-24.5 123.5v81q0 111 63 177.5t171 66.5q100 0 157 -52.5t59 -126.5h-101q-5 33 -31.5 59.5t-81.5 26.5q-42 0 -72 -19t-44.5 -53.5
t-14.5 -81.5v-78q0 -70 35 -110t96 -40q100 0 116 77h101q-2 -68 -48.5 -115t-131.5 -56l-23 -60q50 0 79 -22.5t29 -63.5q0 -49 -33 -74t-87 -27z" />
    <glyph glyph-name="egrave" unicode="&#xe8;" horiz-adv-x="590" 
d="M348 642h-79l-146 186h100zM304 -9q-112 0 -176 65.5t-64 182.5v75q0 115 65 181.5t168 66.5t167.5 -67.5t64.5 -180.5v-65h-361v-27q0 -61 36 -100t99 -39q45 0 76 18t38 44h106q-4 -25 -18.5 -51t-40 -49.5t-67.5 -38.5t-93 -15zM168 324h257v8q0 41 -15.5 73t-45 49.5
t-67.5 17.5q-58 0 -93.5 -38.5t-35.5 -101.5v-8z" />
    <glyph glyph-name="eacute" unicode="&#xe9;" horiz-adv-x="590" 
d="M268 642l125 186h100l-146 -186h-79zM304 -9q-112 0 -176 65.5t-64 182.5v75q0 115 65 181.5t168 66.5t167.5 -67.5t64.5 -180.5v-65h-361v-27q0 -61 36 -100t99 -39q45 0 76 18t38 44h106q-4 -25 -18.5 -51t-40 -49.5t-67.5 -38.5t-93 -15zM168 324h257v8q0 41 -15.5 73
t-45 49.5t-67.5 17.5q-58 0 -93.5 -38.5t-35.5 -101.5v-8z" />
    <glyph glyph-name="ecircumflex" unicode="&#xea;" horiz-adv-x="590" 
d="M127 641l131 192h73l125 -192h-87l-74 124h-3l-78 -124h-87zM304 -9q-112 0 -176 65.5t-64 182.5v75q0 115 65 181.5t168 66.5t167.5 -67.5t64.5 -180.5v-65h-361v-27q0 -61 36 -100t99 -39q45 0 76 18t38 44h106q-4 -25 -18.5 -51t-40 -49.5t-67.5 -38.5t-93 -15z
M168 324h257v8q0 41 -15.5 73t-45 49.5t-67.5 17.5q-58 0 -93.5 -38.5t-35.5 -101.5v-8z" />
    <glyph glyph-name="edieresis" unicode="&#xeb;" horiz-adv-x="590" 
d="M304 -9q-112 0 -176 65.5t-64 182.5v75q0 115 65 181.5t168 66.5t167.5 -67.5t64.5 -180.5v-65h-361v-27q0 -61 36 -100t99 -39q45 0 76 18t38 44h106q-4 -25 -18.5 -51t-40 -49.5t-67.5 -38.5t-93 -15zM168 324h257v8q0 41 -15.5 73t-45 49.5t-67.5 17.5
q-58 0 -93.5 -38.5t-35.5 -101.5v-8zM138 685q0 25 17 42t43 17t43.5 -17t17.5 -42q0 -17 -8 -30.5t-22 -21t-31 -7.5t-30.5 7.5t-21.5 21t-8 30.5zM335 685q0 25 17 42t41 17q27 0 45 -16.5t18 -42.5q0 -17 -8 -30.5t-22.5 -21t-32.5 -7.5q-24 0 -41 17t-17 42z" />
    <glyph glyph-name="igrave" unicode="&#xec;" horiz-adv-x="310" 
d="M209 642h-79l-146 186h101zM103 0v552h105v-552h-105z" />
    <glyph glyph-name="iacute" unicode="&#xed;" horiz-adv-x="310" 
d="M129 642l125 186h101l-146 -186h-80zM103 0v552h105v-552h-105z" />
    <glyph glyph-name="icircumflex" unicode="&#xee;" horiz-adv-x="310" 
d="M-12 641l132 192h72l126 -192h-88l-74 124h-2l-79 -124h-87zM103 0v552h105v-552h-105z" />
    <glyph glyph-name="idieresis" unicode="&#xef;" horiz-adv-x="310" 
d="M103 0v552h105v-552h-105zM-1 685q0 25 17.5 42t43.5 17t43 -17t17 -42q0 -17 -8 -30.5t-21.5 -21t-30.5 -7.5q-26 0 -43.5 17t-17.5 42zM196 685q0 25 17 42t42 17q27 0 44.5 -16.5t17.5 -42.5q0 -17 -8 -30.5t-22 -21t-32 -7.5q-25 0 -42 17t-17 42z" />
    <glyph glyph-name="eth" unicode="&#xf0;" horiz-adv-x="611" 
d="M305 -9q-108 0 -174.5 66t-66.5 184v44q0 112 64 180t166 68q89 0 136 -57h6q-1 1 -3.5 15.5t-2.5 15.5q-12 64 -69 131l-147 -55l-20 58l122 45q-42 39 -103 80l84 39q63 -30 114 -81l127 46l22 -56l-106 -38q94 -121 94 -288v-145q0 -118 -67 -185t-176 -67zM306 442
q-62 0 -100 -43.5t-38 -117.5v-36q0 -75 37 -118t101 -43t100.5 43t36.5 118v42q0 75 -36.5 115t-100.5 40z" />
    <glyph glyph-name="ntilde" unicode="&#xf1;" horiz-adv-x="640" 
d="M307 648q-7 10 -11.5 15t-14 10.5t-19.5 5.5q-34 0 -37 -62h-67q0 58 27 97.5t73 39.5q26 0 44.5 -9.5t35.5 -32.5q2 -2 7 -10t7.5 -10.5l7.5 -7.5t10.5 -6.5t11.5 -1.5q17 0 26.5 21t11.5 48h66q0 -54 -29 -96t-70 -42q-52 0 -80 41zM90 0v552h105v-98h5q35 107 166 107
q86 0 136.5 -47.5t50.5 -139.5v-374h-106v342q0 62 -30 93t-84 31q-66 0 -101.5 -43.5t-35.5 -114.5v-308h-106z" />
    <glyph glyph-name="ograve" unicode="&#xf2;" horiz-adv-x="611" 
d="M358 642h-79l-146 186h101zM306 562q107 0 174.5 -67t67.5 -182v-72q0 -118 -67 -184t-175 -66q-109 0 -175.5 66t-66.5 184v72q0 112 67.5 180.5t174.5 68.5zM306 470q-63 0 -100 -45.5t-37 -116.5v-63q0 -72 36 -117t101 -45q64 0 99.5 45t35.5 117v63q0 71 -36 116.5
t-99 45.5z" />
    <glyph glyph-name="oacute" unicode="&#xf3;" horiz-adv-x="611" 
d="M278 642l125 186h101l-146 -186h-80zM306 562q107 0 174.5 -67t67.5 -182v-72q0 -118 -67 -184t-175 -66q-109 0 -175.5 66t-66.5 184v72q0 112 67.5 180.5t174.5 68.5zM306 470q-63 0 -100 -45.5t-37 -116.5v-63q0 -72 36 -117t101 -45q64 0 99.5 45t35.5 117v63
q0 71 -36 116.5t-99 45.5z" />
    <glyph glyph-name="ocircumflex" unicode="&#xf4;" horiz-adv-x="611" 
d="M138 641l131 192h72l126 -192h-88l-74 124h-2l-79 -124h-86zM306 562q107 0 174.5 -67t67.5 -182v-72q0 -118 -67 -184t-175 -66q-109 0 -175.5 66t-66.5 184v72q0 112 67.5 180.5t174.5 68.5zM306 470q-63 0 -100 -45.5t-37 -116.5v-63q0 -72 36 -117t101 -45
q64 0 99.5 45t35.5 117v63q0 71 -36 116.5t-99 45.5z" />
    <glyph glyph-name="otilde" unicode="&#xf5;" horiz-adv-x="611" 
d="M292 648q-5 7 -8.5 11t-9 9.5t-12.5 8t-15 2.5q-33 0 -37 -62h-66q0 58 26.5 97.5t72.5 39.5q13 0 23.5 -2t20.5 -7t19 -13t17 -20q2 -2 7 -10t7.5 -10.5l7.5 -7.5t10.5 -6.5t12.5 -1.5q17 0 26 21t11 48h66q0 -54 -28.5 -96t-70.5 -42q-52 0 -80 41zM306 562
q107 0 174.5 -67t67.5 -182v-72q0 -118 -67 -184t-175 -66q-109 0 -175.5 66t-66.5 184v72q0 112 67.5 180.5t174.5 68.5zM306 470q-63 0 -100 -45.5t-37 -116.5v-63q0 -72 36 -117t101 -45q64 0 99.5 45t35.5 117v63q0 71 -36 116.5t-99 45.5z" />
    <glyph glyph-name="odieresis" unicode="&#xf6;" horiz-adv-x="611" 
d="M149 685q0 25 17 42t43 17t43 -17t17 -42t-17 -42t-43 -17t-43 17t-17 42zM345 685q0 25 17 42t42 17q27 0 44.5 -16.5t17.5 -42.5q0 -25 -17.5 -42t-44.5 -17q-16 0 -29.5 7.5t-21.5 21t-8 30.5zM306 562q107 0 174.5 -67t67.5 -182v-72q0 -118 -67 -184t-175 -66
q-109 0 -175.5 66t-66.5 184v72q0 112 67.5 180.5t174.5 68.5zM306 470q-63 0 -100 -45.5t-37 -116.5v-63q0 -72 36 -117t101 -45q64 0 99.5 45t35.5 117v63q0 71 -36 116.5t-99 45.5z" />
    <glyph glyph-name="divide" unicode="&#xf7;" 
d="M556 250h-501v86h501v-86zM232 502q0 32 21 53t51 21q21 0 38 -9.5t26.5 -26.5t9.5 -38q0 -32 -21 -52.5t-53 -20.5q-30 0 -51 20.5t-21 52.5zM235 87q0 32 20.5 53.5t51.5 21.5q20 0 37 -10t27 -27t10 -38q0 -32 -21.5 -52.5t-52.5 -20.5t-51.5 20.5t-20.5 52.5z" />
    <glyph glyph-name="oslash" unicode="&#xf8;" horiz-adv-x="611" 
d="M218 111q35 -30 88 -30q65 0 101.5 45.5t36.5 118.5v75q0 39 -16 68zM167 233q0 -39 15 -69l211 279q-34 30 -87 30q-63 0 -101 -46.5t-38 -117.5v-76zM306 -9q-81 0 -142 41l-54 -70l-51 41l57 75q-52 66 -52 163v72q0 112 67.5 180.5t174.5 68.5q80 0 141 -43l52 70
l52 -41l-56 -75q53 -66 53 -160v-72q0 -118 -67 -184t-175 -66z" />
    <glyph glyph-name="ugrave" unicode="&#xf9;" horiz-adv-x="637" 
d="M371 642h-79l-146 186h101zM547 552v-552h-104v92h-6q-8 -25 -27 -46.5t-55 -38t-81 -16.5q-87 0 -137.5 44.5t-50.5 137.5v379h106v-350q0 -115 115 -115q57 0 95.5 35.5t38.5 87.5v342h106z" />
    <glyph glyph-name="uacute" unicode="&#xfa;" horiz-adv-x="637" 
d="M291 642l125 186h101l-146 -186h-80zM547 552v-552h-104v92h-6q-8 -25 -27 -46.5t-55 -38t-81 -16.5q-87 0 -137.5 44.5t-50.5 137.5v379h106v-350q0 -115 115 -115q57 0 95.5 35.5t38.5 87.5v342h106z" />
    <glyph glyph-name="ucircumflex" unicode="&#xfb;" horiz-adv-x="637" 
d="M151 641l131 192h72l126 -192h-88l-73 124h-3l-79 -124h-86zM547 552v-552h-104v92h-6q-8 -25 -27 -46.5t-55 -38t-81 -16.5q-87 0 -137.5 44.5t-50.5 137.5v379h106v-350q0 -115 115 -115q57 0 95.5 35.5t38.5 87.5v342h106z" />
    <glyph glyph-name="udieresis" unicode="&#xfc;" horiz-adv-x="637" 
d="M547 552v-552h-104v92h-6q-8 -25 -27 -46.5t-55 -38t-81 -16.5q-87 0 -137.5 44.5t-50.5 137.5v379h106v-350q0 -115 115 -115q57 0 95.5 35.5t38.5 87.5v342h106zM162 685q0 25 17 42t43 17q13 0 24 -4.5t19 -12t12.5 -19t4.5 -23.5q0 -25 -17 -42t-43 -17
q-17 0 -31 7.5t-21.5 21t-7.5 30.5zM358 685q0 25 17 42t42 17q27 0 44.5 -16.5t17.5 -42.5q0 -25 -17.5 -42t-44.5 -17q-16 0 -29.5 7.5t-21.5 21t-8 30.5z" />
    <glyph glyph-name="yacute" unicode="&#xfd;" horiz-adv-x="578" 
d="M541 552l-191 -546l-14 -38q-14 -39 -28 -65t-36.5 -51.5t-56 -38t-78.5 -12.5q-34 0 -63 5v86q14 -3 43 -3q47 0 70.5 20t34.5 62l8 24l-200 557h117l139 -448h4l139 448h112zM262 642l125 186h101l-146 -186h-80z" />
    <glyph glyph-name="thorn" unicode="&#xfe;" horiz-adv-x="636" 
d="M359 -8q-62 0 -101 25.5t-57 65.5h-5v-271h-106v940h102l1 -287h5q8 20 22 36.5t34 30t48 21t60 7.5q96 0 153 -64t57 -176v-87q0 -113 -57.5 -177t-155.5 -64zM333 86q61 0 96.5 41t35.5 122v54q0 80 -35.5 122t-98.5 42t-99 -40.5t-36 -112.5v-85q0 -64 38 -103.5
t99 -39.5z" />
    <glyph glyph-name="ydieresis" unicode="&#xff;" horiz-adv-x="578" 
d="M541 552l-191 -546l-14 -38q-14 -39 -28 -65t-36.5 -51.5t-56 -38t-78.5 -12.5q-34 0 -63 5v86q14 -3 43 -3q47 0 70.5 20t34.5 62l8 24l-200 557h117l139 -448h4l139 448h112zM132 685q0 25 17 42t43.5 17t43.5 -17t17 -42q0 -17 -8 -30.5t-21.5 -21t-31.5 -7.5
q-16 0 -30 7.5t-22 21t-8 30.5zM329 685q0 25 17 42t42 17q27 0 44.5 -16.5t17.5 -42.5q0 -25 -17.5 -42t-44.5 -17q-25 0 -42 17t-17 42z" />
    <glyph glyph-name="Amacron" unicode="&#x100;" horiz-adv-x="665" 
d="M134 0h-108l249 714h116l249 -714h-115l-67 199h-257zM332 592h-4l-100 -304h205zM487 787h-309v65h309v-65z" />
    <glyph glyph-name="amacron" unicode="&#x101;" horiz-adv-x="588" 
d="M240 -9q-53 0 -94 21t-63.5 59.5t-22.5 89.5q0 74 50.5 118.5t143.5 44.5h142v52q0 32 -13.5 53t-37.5 30.5t-58 9.5q-89 0 -105 -62h-101q5 71 59 112.5t150 41.5q45 0 82 -10t67 -31.5t46.5 -58.5t16.5 -86v-375h-101v72h-5q-49 -81 -156 -81zM271 79q53 0 89 30.5
t36 76.5v61h-129q-50 0 -75.5 -22t-25.5 -59q0 -41 30.5 -64t74.5 -23zM448 644h-304v66h304v-66z" />
    <glyph glyph-name="Abreve" unicode="&#x102;" horiz-adv-x="665" 
d="M134 0h-108l249 714h116l249 -714h-115l-67 199h-257zM332 592h-4l-100 -304h205zM162 918h70q0 -38 25.5 -60t75.5 -22t75.5 22t25.5 60h69q0 -41 -18.5 -73.5t-57.5 -51.5t-94 -19q-83 0 -127 40t-44 104z" />
    <glyph glyph-name="abreve" unicode="&#x103;" horiz-adv-x="588" 
d="M240 -9q-53 0 -94 21t-63.5 59.5t-22.5 89.5q0 74 50.5 118.5t143.5 44.5h142v52q0 32 -13.5 53t-37.5 30.5t-58 9.5q-89 0 -105 -62h-101q5 71 59 112.5t150 41.5q45 0 82 -10t67 -31.5t46.5 -58.5t16.5 -86v-375h-101v72h-5q-49 -81 -156 -81zM271 79q53 0 89 30.5
t36 76.5v61h-129q-50 0 -75.5 -22t-25.5 -59q0 -41 30.5 -64t74.5 -23zM154 775h69q0 -17 5.5 -32t15.5 -27t27 -19.5t39 -7.5q43 0 65.5 25t22.5 61h68q-1 -60 -40.5 -105.5t-115 -45.5t-116 45.5t-40.5 105.5z" />
    <glyph glyph-name="Aogonek" unicode="&#x104;" horiz-adv-x="665" 
d="M134 0h-108l249 714h116l245 -701q-39 -13 -66.5 -35.5t-27.5 -54.5q0 -24 17 -37.5t44 -13.5q23 0 41 4v-68q-20 -10 -65 -10q-53 0 -89 26t-36 77q0 66 75 114v2h-11l-60 182h-257zM332 592l-3 1l-101 -304h206z" />
    <glyph glyph-name="aogonek" unicode="&#x105;" horiz-adv-x="588" 
d="M508 -191q-27 -11 -67 -11q-49 0 -83 25.5t-34 76.5q0 39 21 66t58 51v55h-5q-48 -81 -157 -81q-53 0 -94 21t-64 59.5t-23 89.5q0 74 50.5 118.5t143.5 44.5h142v52q0 47 -29 70t-81 23q-87 0 -104 -62h-101q3 48 28 82t71.5 53t109.5 19q26 0 48.5 -3t44 -10t39.5 -17
t33 -25t25 -34t16 -43.5t6 -53.5v-366q-15 -5 -30 -12.5t-30 -18.5t-24.5 -25.5t-9.5 -30.5q0 -23 16.5 -35.5t42.5 -12.5q23 0 41 4v-69zM271 79q53 0 89 31t36 77v60h-128q-51 0 -76.5 -22t-25.5 -59q0 -41 30.5 -64t74.5 -23z" />
    <glyph glyph-name="Cacute" unicode="&#x106;" horiz-adv-x="686" 
d="M277 789l136 111h119l-146 -111h-109zM176 403v-95q0 -111 48 -166.5t133 -55.5q76 0 118.5 41t42.5 102h105v-8q0 -43 -17 -84.5t-49 -75.5t-85 -55t-119 -21q-133 0 -209 84t-76 238v97q0 152 77 238t209 86q64 0 116 -20.5t85 -55t50.5 -78.5t17.5 -91v-8h-105
q0 62 -44 107.5t-119 45.5q-54 0 -93.5 -25t-62.5 -76t-23 -124z" />
    <glyph glyph-name="cacute" unicode="&#x107;" horiz-adv-x="571" 
d="M64 237v81q0 111 63 177.5t171 66.5q100 0 157 -52.5t59 -126.5h-101q-5 33 -31.5 59.5t-81.5 26.5q-42 0 -72 -19t-44.5 -53.5t-14.5 -81.5v-78q0 -70 35 -110t96 -40q100 0 116 77h101q-2 -76 -59 -124.5t-160 -48.5q-108 0 -171 65.5t-63 180.5zM259 642l125 186h100
l-146 -186h-79z" />
    <glyph glyph-name="Ccircumflex" unicode="&#x108;" horiz-adv-x="686" 
d="M176 403v-95q0 -111 48 -166.5t133 -55.5q76 0 118.5 41t42.5 102h105v-8q0 -43 -17 -84.5t-49 -75.5t-85 -55t-119 -21q-133 0 -209 84t-76 238v97q0 152 77 238t209 86q64 0 116 -20.5t85 -55t50.5 -78.5t17.5 -91v-8h-105q0 62 -44 107.5t-119 45.5q-54 0 -93.5 -25
t-62.5 -76t-23 -124zM177 783l146 129h70l139 -129h-96l-78 71h-4l-81 -71h-96z" />
    <glyph glyph-name="ccircumflex" unicode="&#x109;" horiz-adv-x="571" 
d="M118 641l132 192h72l125 -192h-87l-74 124h-2l-79 -124h-87zM64 237v81q0 111 63 177.5t171 66.5q100 0 157 -52.5t59 -126.5h-101q-5 33 -31.5 59.5t-81.5 26.5q-42 0 -72 -19t-44.5 -53.5t-14.5 -81.5v-78q0 -70 35 -110t96 -40q100 0 116 77h101q-2 -76 -59 -124.5
t-160 -48.5q-108 0 -171 65.5t-63 180.5z" />
    <glyph glyph-name="Cdotaccent" unicode="&#x10a;" horiz-adv-x="686" 
d="M176 403v-95q0 -111 48 -166.5t133 -55.5q76 0 118.5 41t42.5 102h105v-8q0 -43 -17 -84.5t-49 -75.5t-85 -55t-119 -21q-133 0 -209 84t-76 238v97q0 152 77 238t209 86q64 0 116 -20.5t85 -55t50.5 -78.5t17.5 -91v-8h-105q0 62 -44 107.5t-119 45.5q-54 0 -93.5 -25
t-62.5 -76t-23 -124zM296 838q0 17 7 30.5t20 21.5t29 8q25 0 42 -17t17 -43t-17 -42.5t-42 -16.5q-17 0 -29.5 7.5t-19.5 21t-7 30.5z" />
    <glyph glyph-name="cdotaccent" unicode="&#x10b;" horiz-adv-x="571" 
d="M64 237v81q0 111 63 177.5t171 66.5q100 0 157 -52.5t59 -126.5h-101q-5 33 -31.5 59.5t-81.5 26.5q-42 0 -72 -19t-44.5 -53.5t-14.5 -81.5v-78q0 -70 35 -110t96 -40q100 0 116 77h101q-2 -76 -59 -124.5t-160 -48.5q-108 0 -171 65.5t-63 180.5zM230 676q0 26 15.5 43
t40.5 17t42 -17t17 -43q0 -17 -8 -30.5t-21 -20.5t-30 -7q-25 0 -40.5 16t-15.5 42z" />
    <glyph glyph-name="Ccaron" unicode="&#x10c;" horiz-adv-x="686" 
d="M176 403v-95q0 -111 48 -166.5t133 -55.5q76 0 118.5 41t42.5 102h105v-8q0 -43 -17 -84.5t-49 -75.5t-85 -55t-119 -21q-133 0 -209 84t-76 238v97q0 152 77 238t209 86q64 0 116 -20.5t85 -55t50.5 -78.5t17.5 -91v-8h-105q0 62 -44 107.5t-119 45.5q-54 0 -93.5 -25
t-62.5 -76t-23 -124zM173 898h99l79 -63h5l72 63h102l-124 -112h-102z" />
    <glyph glyph-name="ccaron" unicode="&#x10d;" horiz-adv-x="571" 
d="M120 815h87l78 -128h3l74 128h87l-125 -192h-72zM64 237v81q0 111 63 177.5t171 66.5q100 0 157 -52.5t59 -126.5h-101q-5 33 -31.5 59.5t-81.5 26.5q-42 0 -72 -19t-44.5 -53.5t-14.5 -81.5v-78q0 -70 35 -110t96 -40q100 0 116 77h101q-2 -76 -59 -124.5t-160 -48.5
q-108 0 -171 65.5t-63 180.5z" />
    <glyph glyph-name="Dcaron" unicode="&#x10e;" horiz-adv-x="709" 
d="M148 898h99l79 -63h5l73 63h101l-124 -112h-101zM96 714h240q84 0 146 -26t98.5 -74t53.5 -111.5t17 -144.5q0 -80 -16.5 -143.5t-53 -112.5t-98.5 -75.5t-147 -26.5h-240v714zM204 616v-518h122q109 0 161.5 63t52.5 195q0 260 -214 260h-122z" />
    <glyph glyph-name="dcaron" unicode="&#x10f;" horiz-adv-x="737" 
d="M646 751h92l-24 -255h-68v255zM277 561q62 0 103 -26t56 -65h5v282h106v-752h-102v88h-6q-11 -39 -55 -67t-109 -28q-96 0 -153.5 63t-57.5 172v97q0 108 57.5 172t155.5 64zM302 467q-40 0 -69.5 -18.5t-45.5 -54.5t-16 -86v-63q0 -76 36 -117.5t98 -41.5t99 40.5
t37 111.5v85q0 64 -39 104t-100 40z" />
    <glyph glyph-name="Dcroat" unicode="&#x110;" horiz-adv-x="752" 
d="M378 0h-239v313h-85v101h85v300h239q84 0 146 -26t98.5 -74t54 -111.5t17.5 -144.5q0 -80 -17 -143.5t-53 -112.5t-98.5 -75.5t-147.5 -26.5zM246 99h122q109 0 161.5 63t52.5 196q0 260 -214 260h-122v-204h150v-101h-150v-214z" />
    <glyph glyph-name="dcroat" unicode="&#x111;" horiz-adv-x="638" 
d="M303 467q-61 0 -96 -42t-35 -117v-63q0 -76 35.5 -117.5t97.5 -41.5q63 0 99.5 40.5t36.5 111.5v85q0 64 -38.5 104t-99.5 40zM439 88q-11 -39 -54.5 -67t-109.5 -28q-96 0 -153.5 63t-57.5 172v97q0 108 58 172t155 64q63 0 103.5 -26t55.5 -65h5v138h-132v74h135v90
h101v-90h69v-74h-67v-608h-102v88h-6z" />
    <glyph glyph-name="Emacron" unicode="&#x112;" horiz-adv-x="607" 
d="M535 98v-98h-439v714h439v-98h-332v-206h313v-94h-313v-218h332zM468 787h-309v65h309v-65z" />
    <glyph glyph-name="emacron" unicode="&#x113;" horiz-adv-x="590" 
d="M304 -9q-112 0 -176 65.5t-64 182.5v75q0 115 65 181.5t168 66.5t167.5 -67.5t64.5 -180.5v-65h-361v-27q0 -61 36 -100t99 -39q45 0 76 18t38 44h106q-4 -25 -18.5 -51t-40 -49.5t-67.5 -38.5t-93 -15zM168 324h257v8q0 41 -15.5 73t-45 49.5t-67.5 17.5
q-58 0 -93.5 -38.5t-35.5 -101.5v-8zM448 644h-304v66h304v-66z" />
    <glyph glyph-name="Ebreve" unicode="&#x114;" horiz-adv-x="607" 
d="M535 98v-98h-439v714h439v-98h-332v-206h313v-94h-313v-218h332zM142 918h70q0 -38 25.5 -60t75.5 -22t75.5 22t25.5 60h70q0 -64 -44 -104t-126.5 -40t-127 40t-44.5 104z" />
    <glyph glyph-name="ebreve" unicode="&#x115;" horiz-adv-x="590" 
d="M304 -9q-112 0 -176 65.5t-64 182.5v75q0 115 65 181.5t168 66.5t167.5 -67.5t64.5 -180.5v-65h-361v-27q0 -61 36 -100t99 -39q45 0 76 18t38 44h106q-4 -25 -18.5 -51t-40 -49.5t-67.5 -38.5t-93 -15zM168 324h257v8q0 41 -15.5 73t-45 49.5t-67.5 17.5
q-58 0 -93.5 -38.5t-35.5 -101.5v-8zM155 775h69q0 -36 22 -61t65 -25t65 25t22 61h68q0 -60 -40 -105.5t-115.5 -45.5t-115.5 45.5t-40 105.5z" />
    <glyph glyph-name="Edotaccent" unicode="&#x116;" horiz-adv-x="607" 
d="M257 838q0 26 15.5 43t40.5 17q26 0 42.5 -17t16.5 -43t-16.5 -42.5t-42.5 -16.5q-16 0 -29 7.5t-20 21t-7 30.5zM535 98v-98h-439v714h439v-98h-332v-206h313v-94h-313v-218h332z" />
    <glyph glyph-name="edotaccent" unicode="&#x117;" horiz-adv-x="590" 
d="M239 676q0 26 15.5 43t40.5 17t42 -17t17 -43q0 -17 -8 -30.5t-21 -20.5t-30 -7q-12 0 -22.5 4t-18 11.5t-11.5 18.5t-4 24zM304 -9q-112 0 -176 65.5t-64 182.5v75q0 115 65 181.5t168 66.5t167.5 -67.5t64.5 -180.5v-65h-361v-27q0 -61 36 -100t99 -39q45 0 76 18
t38 44h106q-4 -25 -18.5 -51t-40 -49.5t-67.5 -38.5t-93 -15zM168 324h257v8q0 41 -15.5 73t-45 49.5t-67.5 17.5q-58 0 -93.5 -38.5t-35.5 -101.5v-8z" />
    <glyph glyph-name="Eogonek" unicode="&#x118;" horiz-adv-x="607" 
d="M536 -192q-31 -10 -65 -10q-52 0 -86.5 25.5t-34.5 76.5q0 30 15.5 56t37.5 41v3h-307v714h439v-98h-332v-206h313v-94h-313v-218h332v-83q-24 -5 -45.5 -15.5t-38.5 -31t-17 -44.5q0 -25 16.5 -38.5t45.5 -13.5q20 0 40 4v-68z" />
    <glyph glyph-name="eogonek" unicode="&#x119;" horiz-adv-x="590" 
d="M491 -121v-71q-22 -10 -65 -10q-50 0 -84.5 27t-34.5 75q0 60 54 104l-3 5q-28 -17 -71 -17q-98 0 -160.5 66t-62.5 180v76q0 115 65 181.5t168 66.5t167.5 -67.5t64.5 -180.5v-65h-361v-27q0 -62 36 -100.5t100 -38.5q45 0 75.5 18t37.5 44h105q-6 -24 -19.5 -47.5
t-24.5 -36t-31 -33.5q-15 -16 -22 -24.5t-17 -22t-14 -26t-4 -26.5q0 -26 18 -40.5t44 -14.5q20 0 39 5zM168 324h257v8q0 63 -35 101.5t-93 38.5t-93.5 -38.5t-35.5 -101.5v-8z" />
    <glyph glyph-name="Ecaron" unicode="&#x11a;" horiz-adv-x="607" 
d="M134 898h99l79 -63h5l73 63h101l-124 -112h-101zM535 98v-98h-439v714h439v-98h-332v-206h313v-94h-313v-218h332z" />
    <glyph glyph-name="ecaron" unicode="&#x11b;" horiz-adv-x="590" 
d="M129 815h87l78 -128h3l74 128h87l-125 -192h-73zM304 -9q-112 0 -176 65.5t-64 182.5v75q0 115 65 181.5t168 66.5t167.5 -67.5t64.5 -180.5v-65h-361v-27q0 -61 36 -100t99 -39q45 0 76 18t38 44h106q-4 -25 -18.5 -51t-40 -49.5t-67.5 -38.5t-93 -15zM168 324h257v8
q0 41 -15.5 73t-45 49.5t-67.5 17.5q-58 0 -93.5 -38.5t-35.5 -101.5v-8z" />
    <glyph glyph-name="Gcircumflex" unicode="&#x11c;" horiz-adv-x="699" 
d="M184 783l145 129h71l139 -129h-97l-77 71h-5l-81 -71h-95zM629 491h-105q-9 67 -55 102t-111 35q-81 0 -131.5 -55.5t-50.5 -167.5v-93q0 -106 46 -166t135 -60q75 0 122.5 40.5t47.5 102.5v57h-172v92h276v-145q0 -32 -8.5 -65t-29 -66.5t-51 -59t-78.5 -41.5t-107 -16
q-142 0 -215.5 88t-73.5 239v94q0 150 79 236t213 86q63 0 113.5 -19.5t83 -53t51 -75.5t21.5 -89z" />
    <glyph glyph-name="gcircumflex" unicode="&#x11d;" horiz-adv-x="620" 
d="M143 641l131 192h72l126 -192h-88l-73 124h-3l-78 -124h-87zM296 -117q68 0 103 34.5t35 97.5v82h-6q-16 -38 -57.5 -62.5t-96.5 -24.5q-94 0 -155 64t-61 173v75q0 110 60.5 174t154.5 64q58 0 101.5 -27t58.5 -64h4v83h102v-542q0 -110 -67 -163t-181 -53
q-104 0 -159.5 44t-61.5 111h106q6 -29 37.5 -47.5t82.5 -18.5zM303 467q-63 0 -100.5 -43.5t-37.5 -116.5v-48q0 -72 39 -115.5t100 -43.5t95.5 42t34.5 103v75q0 62 -35.5 104.5t-95.5 42.5z" />
    <glyph glyph-name="Gbreve" unicode="&#x11e;" horiz-adv-x="699" 
d="M629 491h-105q-9 67 -55 102t-111 35q-81 0 -131.5 -55.5t-50.5 -167.5v-93q0 -106 46 -166t135 -60q75 0 122.5 40.5t47.5 102.5v57h-172v92h276v-145q0 -32 -8.5 -65t-29 -66.5t-51 -59t-78.5 -41.5t-107 -16q-142 0 -215.5 88t-73.5 239v94q0 150 79 236t213 86
q63 0 113.5 -19.5t83 -53t51 -75.5t21.5 -89zM187 918h70q0 -38 25.5 -60t75.5 -22t75.5 22t25.5 60h70q0 -41 -18.5 -73.5t-57.5 -51.5t-95 -19q-82 0 -126.5 40t-44.5 104z" />
    <glyph glyph-name="gbreve" unicode="&#x11f;" horiz-adv-x="620" 
d="M171 775h69q0 -36 22 -61t64.5 -25t65 25t22.5 61h68q-1 -60 -40.5 -105.5t-115 -45.5t-115.5 45.5t-40 105.5zM296 -117q68 0 103 34.5t35 97.5v82h-6q-16 -38 -57.5 -62.5t-96.5 -24.5q-94 0 -155 64t-61 173v75q0 110 60.5 174t154.5 64q58 0 101.5 -27t58.5 -64h4v83
h102v-542q0 -110 -67 -163t-181 -53q-104 0 -159.5 44t-61.5 111h106q6 -29 37.5 -47.5t82.5 -18.5zM303 467q-63 0 -100.5 -43.5t-37.5 -116.5v-48q0 -72 39 -115.5t100 -43.5t95.5 42t34.5 103v75q0 62 -35.5 104.5t-95.5 42.5z" />
    <glyph glyph-name="Gdotaccent" unicode="&#x120;" horiz-adv-x="699" 
d="M302 838q0 26 15.5 43t40.5 17t42 -17t17 -43q0 -17 -7.5 -30.5t-21 -21t-30 -7.5t-29.5 7.5t-20 21t-7 30.5zM629 491h-105q-9 67 -55 102t-111 35q-81 0 -131.5 -55.5t-50.5 -167.5v-93q0 -106 46 -166t135 -60q75 0 122.5 40.5t47.5 102.5v57h-172v92h276v-145
q0 -32 -8.5 -65t-29 -66.5t-51 -59t-78.5 -41.5t-107 -16q-142 0 -215.5 88t-73.5 239v94q0 150 79 236t213 86q63 0 113.5 -19.5t83 -53t51 -75.5t21.5 -89z" />
    <glyph glyph-name="gdotaccent" unicode="&#x121;" horiz-adv-x="620" 
d="M254 676q0 26 16 43t41 17t41.5 -17t16.5 -43q0 -17 -7.5 -30.5t-21 -20.5t-29.5 -7q-25 0 -41 16t-16 42zM296 -117q68 0 103 34.5t35 97.5v82h-6q-16 -38 -57.5 -62.5t-96.5 -24.5q-94 0 -155 64t-61 173v75q0 110 60.5 174t154.5 64q58 0 101.5 -27t58.5 -64h4v83h102
v-542q0 -110 -67 -163t-181 -53q-104 0 -159.5 44t-61.5 111h106q6 -29 37.5 -47.5t82.5 -18.5zM303 467q-63 0 -100.5 -43.5t-37.5 -116.5v-48q0 -72 39 -115.5t100 -43.5t95.5 42t34.5 103v75q0 62 -35.5 104.5t-95.5 42.5z" />
    <glyph glyph-name="Gcommaaccent" unicode="&#x122;" horiz-adv-x="699" 
d="M353 -247h-75l43 165h88zM629 491h-105q-9 67 -55 102t-111 35q-81 0 -131.5 -55.5t-50.5 -167.5v-93q0 -106 46 -166t135 -60q75 0 122.5 40.5t47.5 102.5v57h-172v92h276v-145q0 -32 -8.5 -65t-29 -66.5t-51 -59t-78.5 -41.5t-107 -16q-142 0 -215.5 88t-73.5 239v94
q0 150 79 236t213 86q63 0 113.5 -19.5t83 -53t51 -75.5t21.5 -89z" />
    <glyph glyph-name="gcommaaccent" unicode="&#x123;" horiz-adv-x="620" 
d="M301 831h78l-44 -175h-94zM296 -117q68 0 103 34.5t35 97.5v82h-6q-16 -38 -57.5 -62.5t-96.5 -24.5q-94 0 -155 64t-61 173v75q0 110 60.5 174t154.5 64q58 0 101.5 -27t58.5 -64h4v83h102v-542q0 -110 -67 -163t-181 -53q-104 0 -159.5 44t-61.5 111h106
q6 -29 37.5 -47.5t82.5 -18.5zM303 467q-63 0 -100.5 -43.5t-37.5 -116.5v-48q0 -72 39 -115.5t100 -43.5t95.5 42t34.5 103v75q0 62 -35.5 104.5t-95.5 42.5z" />
    <glyph glyph-name="Hcircumflex" unicode="&#x124;" horiz-adv-x="748" 
d="M652 0h-108v318h-340v-318h-108v714h108v-297h340v297h108v-714zM199 783l146 129h70l139 -129h-96l-78 71h-4l-82 -71h-95z" />
    <glyph glyph-name="hcircumflex" unicode="&#x125;" horiz-adv-x="643" 
d="M92 0v752h105v-298h6q5 16 16 33t30 34.5t51 28.5t72 11q83 0 134 -48.5t51 -139.5v-373h-106v341q0 61 -31.5 93t-85.5 32q-43 0 -74.5 -21t-47 -56t-15.5 -81v-308h-105zM-25 840l132 193h72l125 -193h-87l-74 125h-2l-79 -125h-87z" />
    <glyph glyph-name="Hbar" unicode="&#x126;" horiz-adv-x="748" 
d="M204 405h340v118h-340v-118zM204 306v-306h-108v523h-55v78h55v113h108v-113h340v113h108v-113h55v-78h-55v-523h-108v306h-340z" />
    <glyph glyph-name="hbar" unicode="&#x127;" horiz-adv-x="643" 
d="M197 308v-308h-105v610h-62v75h64v67h102v-67h137v-75h-136v-156h6q5 16 16 33t30 34.5t51 28.5t72 11q83 0 134 -48.5t51 -139.5v-373h-106v341q0 61 -31.5 93t-85.5 32q-43 0 -74.5 -21t-47 -56t-15.5 -81z" />
    <glyph glyph-name="Itilde" unicode="&#x128;" horiz-adv-x="300" 
d="M204 0h-108v714h108v-714zM137 796q-1 0 -5.5 5t-6 6t-5.5 4.5t-6.5 5t-6.5 3.5t-7.5 3t-7.5 1q-33 0 -37 -51h-65q0 46 24.5 80t71.5 34q42 0 82 -37l8 -8t9 -8.5l7.5 -6t9.5 -5t10 -1.5q18 0 27 17.5t11 39.5h65q0 -45 -27 -80.5t-70 -35.5q-29 0 -46.5 8.5t-34.5 25.5
z" />
    <glyph glyph-name="itilde" unicode="&#x129;" horiz-adv-x="310" 
d="M103 0v552h105v-552h-105zM143 648q-7 10 -11.5 15t-14 10.5t-19.5 5.5q-33 0 -37 -62h-66q0 58 26.5 97.5t72.5 39.5q26 0 44.5 -9.5t35.5 -32.5q2 -2 7 -10t7.5 -10.5l7.5 -7.5t10.5 -6.5t12.5 -1.5q16 0 25.5 21t11.5 48h66q0 -54 -29 -96t-70 -42q-52 0 -80 41z" />
    <glyph glyph-name="Imacron" unicode="&#x12a;" horiz-adv-x="300" 
d="M204 0h-108v714h108v-714zM305 787h-309v65h309v-65z" />
    <glyph glyph-name="imacron" unicode="&#x12b;" horiz-adv-x="310" 
d="M103 0v552h105v-552h-105zM310 644h-304v66h304v-66z" />
    <glyph glyph-name="Ibreve" unicode="&#x12c;" horiz-adv-x="300" 
d="M204 0h-108v714h108v-714zM-20 918h70q0 -38 25.5 -60t75.5 -22q20 0 36.5 4t28.5 11t20 17t12 22.5t4 27.5h69q0 -64 -44 -104t-126.5 -40t-126.5 40t-44 104z" />
    <glyph glyph-name="ibreve" unicode="&#x12d;" horiz-adv-x="310" 
d="M103 0v552h105v-552h-105zM16 775h69q0 -36 22 -61t65 -25t65 25t22 61h68q0 -60 -39.5 -105.5t-115 -45.5t-116 45.5t-40.5 105.5z" />
    <glyph glyph-name="Iogonek" unicode="&#x12e;" horiz-adv-x="300" 
d="M217 -191q-21 -11 -66 -11q-55 0 -87.5 27t-32.5 76q0 73 73 111v2h-8v700h108v-704q-89 -32 -89 -87q0 -25 16.5 -38.5t44.5 -13.5q21 0 41 5v-67z" />
    <glyph glyph-name="iogonek" unicode="&#x12f;" horiz-adv-x="310" 
d="M219 -124v-68q-22 -10 -65 -10q-58 0 -92 26.5t-34 77.5q0 72 75 112v538h105v-538q-23 -8 -42 -18.5t-34.5 -30t-15.5 -41.5q0 -25 16.5 -38.5t44.5 -13.5q24 0 42 4zM83 719q0 15 5.5 28t15 22.5t22.5 14.5t29 5q32 0 52.5 -19.5t20.5 -50.5q0 -30 -20.5 -49.5
t-52.5 -19.5q-31 0 -51.5 19.5t-20.5 49.5z" />
    <glyph glyph-name="Idotaccent" unicode="&#x130;" horiz-adv-x="300" 
d="M204 0h-108v714h108v-714zM94 838q0 26 16 43t41 17t41.5 -17t16.5 -43t-16.5 -42.5t-41.5 -16.5q-17 0 -30 7.5t-20 21t-7 30.5z" />
    <glyph glyph-name="dotlessi" unicode="&#x131;" horiz-adv-x="310" 
d="M103 0v552h105v-552h-105z" />
    <glyph glyph-name="Jcircumflex" unicode="&#x134;" horiz-adv-x="549" 
d="M27 184h104q2 -44 32 -69.5t72 -25.5q53 0 83 30t30 92v503h108v-497q0 -114 -59.5 -173t-160.5 -59q-96 0 -152.5 56t-56.5 143zM227 783l145 129h71l139 -129h-97l-77 71h-4l-82 -71h-95z" />
    <glyph glyph-name="jcircumflex" unicode="&#x135;" horiz-adv-x="310" 
d="M208 552v-564q0 -93 -42 -137.5t-118 -44.5q-30 0 -54 5v85q14 -3 34 -3q40 0 57.5 23t17.5 73v563h105zM-8 634l131 192h72l126 -192h-88l-73 124h-3l-79 -124h-86z" />
    <glyph glyph-name="Kcommaaccent" unicode="&#x136;" horiz-adv-x="660" 
d="M629 714l-262 -305l275 -409h-133l-222 330l-83 -89v-241h-108v714h108v-333h5l297 333h123zM325 -247h-75l43 165h88z" />
    <glyph glyph-name="kcommaaccent" unicode="&#x137;" horiz-adv-x="572" 
d="M197 198v-198h-105v752h105v-440h4l213 240h121l-212 -239l226 -313h-125l-180 246zM293 -247h-75l43 165h88z" />
    <glyph glyph-name="Lacute" unicode="&#x139;" horiz-adv-x="550" 
d="M75 789l136 111h119l-146 -111h-109zM525 101v-101h-429v714h108v-613h321z" />
    <glyph glyph-name="lacute" unicode="&#x13a;" horiz-adv-x="292" 
d="M120 842l125 185h100l-146 -185h-79zM94 0v752h105v-752h-105z" />
    <glyph glyph-name="Lcommaaccent" unicode="&#x13b;" horiz-adv-x="550" 
d="M274 -247h-75l43 165h88zM525 101v-101h-429v714h108v-613h321z" />
    <glyph glyph-name="lcommaaccent" unicode="&#x13c;" horiz-adv-x="292" 
d="M142 -247h-75l43 165h88zM94 0v752h105v-752h-105z" />
    <glyph glyph-name="Lcaron" unicode="&#x13d;" horiz-adv-x="550" 
d="M321 752h96l-26 -256h-70v256zM525 101v-101h-429v714h108v-613h321z" />
    <glyph glyph-name="lcaron" unicode="&#x13e;" horiz-adv-x="379" 
d="M289 751h92l-24 -255h-68v255zM94 0v752h105v-752h-105z" />
    <glyph glyph-name="Lslash" unicode="&#x141;" horiz-adv-x="558" 
d="M532 0h-427v276l-67 -39v105l67 38v334h107v-268l188 106v-105l-188 -106v-240h320v-101z" />
    <glyph glyph-name="lslash" unicode="&#x142;" horiz-adv-x="332" 
d="M219 0h-105v310l-79 -52v102l79 52v340h105v-268l78 52v-105l-78 -51v-380z" />
    <glyph glyph-name="Nacute" unicode="&#x143;" horiz-adv-x="743" 
d="M296 789l136 111h119l-146 -111h-109zM201 0h-105v714h98l343 -517h5v517h105v-714h-98l-343 518h-5v-518z" />
    <glyph glyph-name="nacute" unicode="&#x144;" horiz-adv-x="640" 
d="M293 642l125 186h100l-146 -186h-79zM90 0v552h105v-98h5q35 107 166 107q86 0 136.5 -47.5t50.5 -139.5v-374h-106v342q0 62 -30 93t-84 31q-66 0 -101.5 -43.5t-35.5 -114.5v-308h-106z" />
    <glyph glyph-name="Ncommaaccent" unicode="&#x145;" horiz-adv-x="743" 
d="M366 -247h-75l43 165h88zM201 0h-105v714h98l343 -517h5v517h105v-714h-98l-343 518h-5v-518z" />
    <glyph glyph-name="ncommaaccent" unicode="&#x146;" horiz-adv-x="640" 
d="M315 -247h-75l43 165h88zM90 0v552h105v-98h5q35 107 166 107q86 0 136.5 -47.5t50.5 -139.5v-374h-106v342q0 62 -30 93t-84 31q-66 0 -101.5 -43.5t-35.5 -114.5v-308h-106z" />
    <glyph glyph-name="Ncaron" unicode="&#x147;" horiz-adv-x="743" 
d="M192 898h99l79 -63h5l73 63h101l-124 -112h-101zM201 0h-105v714h98l343 -517h5v517h105v-714h-98l-343 518h-5v-518z" />
    <glyph glyph-name="ncaron" unicode="&#x148;" horiz-adv-x="640" 
d="M154 815h87l78 -128h3l74 128h87l-125 -192h-72zM90 0v552h105v-98h5q35 107 166 107q86 0 136.5 -47.5t50.5 -139.5v-374h-106v342q0 62 -30 93t-84 31q-66 0 -101.5 -43.5t-35.5 -114.5v-308h-106z" />
    <glyph glyph-name="Omacron" unicode="&#x14c;" horiz-adv-x="720" 
d="M177 404v-100q0 -107 50.5 -163t132.5 -56q83 0 133.5 56t50.5 163v100q0 108 -51 166.5t-133 58.5t-132.5 -58.5t-50.5 -166.5zM68 305v98q0 152 79 238.5t214 86.5t213.5 -86.5t78.5 -238.5v-98q0 -150 -79 -235t-215 -85q-135 0 -213 84.5t-78 235.5zM515 787h-309v65
h309v-65z" />
    <glyph glyph-name="omacron" unicode="&#x14d;" horiz-adv-x="611" 
d="M459 644h-304v66h304v-66zM306 562q107 0 174.5 -67t67.5 -182v-72q0 -118 -67 -184t-175 -66q-109 0 -175.5 66t-66.5 184v72q0 112 67.5 180.5t174.5 68.5zM306 470q-63 0 -100 -45.5t-37 -116.5v-63q0 -72 36 -117t101 -45q64 0 99.5 45t35.5 117v63q0 71 -36 116.5
t-99 45.5z" />
    <glyph glyph-name="Obreve" unicode="&#x14e;" horiz-adv-x="720" 
d="M177 404v-100q0 -107 50.5 -163t132.5 -56q83 0 133.5 56t50.5 163v100q0 108 -51 166.5t-133 58.5t-132.5 -58.5t-50.5 -166.5zM68 305v98q0 152 79 238.5t214 86.5t213.5 -86.5t78.5 -238.5v-98q0 -150 -79 -235t-215 -85q-135 0 -213 84.5t-78 235.5zM189 918h70
q0 -38 26 -60t75 -22q21 0 37.5 4t28 11t20 17t12 22.5t3.5 27.5h70q0 -64 -44 -104t-126.5 -40t-127 40t-44.5 104z" />
    <glyph glyph-name="obreve" unicode="&#x14f;" horiz-adv-x="611" 
d="M165 775h69q0 -17 5.5 -32t15.5 -27t27 -19.5t39 -7.5q43 0 65.5 25t22.5 61h68q-1 -60 -40.5 -105.5t-115 -45.5t-116 45.5t-40.5 105.5zM306 562q107 0 174.5 -67t67.5 -182v-72q0 -118 -67 -184t-175 -66q-109 0 -175.5 66t-66.5 184v72q0 112 67.5 180.5t174.5 68.5z
M306 470q-63 0 -100 -45.5t-37 -116.5v-63q0 -72 36 -117t101 -45q64 0 99.5 45t35.5 117v63q0 71 -36 116.5t-99 45.5z" />
    <glyph glyph-name="Ohungarumlaut" unicode="&#x150;" horiz-adv-x="720" 
d="M190 789l163 131h110l-175 -131h-98zM383 789l163 131h110l-174 -131h-99zM177 404v-100q0 -107 50.5 -163t132.5 -56q83 0 133.5 56t50.5 163v100q0 108 -51 166.5t-133 58.5t-132.5 -58.5t-50.5 -166.5zM68 305v98q0 152 79 238.5t214 86.5t213.5 -86.5t78.5 -238.5
v-98q0 -150 -79 -235t-215 -85q-135 0 -213 84.5t-78 235.5z" />
    <glyph glyph-name="ohungarumlaut" unicode="&#x151;" horiz-adv-x="611" 
d="M243 642h-75l128 189h99zM417 642h-74l128 189h99zM306 562q107 0 174.5 -67t67.5 -182v-72q0 -118 -67 -184t-175 -66q-109 0 -175.5 66t-66.5 184v72q0 112 67.5 180.5t174.5 68.5zM306 470q-63 0 -100 -45.5t-37 -116.5v-63q0 -72 36 -117t101 -45q64 0 99.5 45
t35.5 117v63q0 71 -36 116.5t-99 45.5z" />
    <glyph glyph-name="OE" unicode="&#x152;" horiz-adv-x="1051" 
d="M178 404v-100q0 -108 51 -163.5t133 -55.5q83 0 134 53.5t51 160.5v114q0 107 -51 161.5t-134 54.5q-82 0 -133 -58.5t-51 -166.5zM351 -15q-131 0 -207 85t-76 235v98q0 153 77.5 239t207.5 86q62 0 113.5 -22t79.5 -65h7v73h427v-98h-327v-206h308v-94h-308v-218h327
v-98h-427v75h-7q-29 -42 -81 -66t-114 -24z" />
    <glyph glyph-name="oe" unicode="&#x153;" horiz-adv-x="970" 
d="M683 -9q-41 0 -77.5 10.5t-64 30t-43.5 45.5h-7q-27 -39 -77 -62.5t-108 -23.5q-109 0 -175.5 66t-66.5 184v72q0 112 67.5 180.5t174.5 68.5q60 0 108.5 -22.5t76.5 -65.5h6q27 40 74.5 64t104.5 24q103 0 167.5 -67.5t64.5 -180.5v-65h-360v-27q0 -61 35.5 -100
t98.5 -39q45 0 76 18t38 44h105q-3 -25 -17.5 -51t-40 -49.5t-67.5 -38.5t-93 -15zM306 470q-63 0 -100 -45.5t-37 -116.5v-63q0 -72 36 -117t101 -45q64 0 99.5 45t35.5 117v63q0 71 -36 116.5t-99 45.5zM548 324h256v8q0 63 -35 101.5t-93 38.5t-93 -38.5t-35 -101.5v-8z
" />
    <glyph glyph-name="Racute" unicode="&#x154;" horiz-adv-x="670" 
d="M243 789l136 111h119l-146 -111h-109zM364 714q115 0 175 -62t60 -157q0 -81 -39 -130.5t-92 -69.5l145 -295h-122l-130 275h-158v-275h-107v714h268zM203 368h142q70 0 107 31.5t37 91.5q0 41 -18 70t-49 43.5t-73 14.5h-146v-251z" />
    <glyph glyph-name="racute" unicode="&#x155;" horiz-adv-x="425" 
d="M207 642l125 186h101l-146 -186h-80zM98 0v552h105v-85h6q13 36 48.5 65t99.5 29q15 0 36 -3v-101q-13 4 -47 4q-68 0 -104.5 -36t-36.5 -94v-331h-107z" />
    <glyph glyph-name="Rcommaaccent" unicode="&#x156;" horiz-adv-x="670" 
d="M364 714q115 0 175 -62t60 -157q0 -81 -39 -130.5t-92 -69.5l145 -295h-122l-130 275h-158v-275h-107v714h268zM203 368h142q70 0 107 31.5t37 91.5q0 41 -18 70t-49 43.5t-73 14.5h-146v-251zM313 -247h-75l43 165h88z" />
    <glyph glyph-name="rcommaaccent" unicode="&#x157;" horiz-adv-x="425" 
d="M98 0v552h105v-85h6q13 36 48.5 65t99.5 29q15 0 36 -3v-101q-13 4 -47 4q-68 0 -104.5 -36t-36.5 -94v-331h-107zM161 -247h-75l43 165h88z" />
    <glyph glyph-name="Rcaron" unicode="&#x158;" horiz-adv-x="670" 
d="M364 714q115 0 175 -62t60 -157q0 -81 -39 -130.5t-92 -69.5l145 -295h-122l-130 275h-158v-275h-107v714h268zM203 368h142q70 0 107 31.5t37 91.5q0 41 -18 70t-49 43.5t-73 14.5h-146v-251zM139 898h99l79 -63h5l72 63h102l-124 -112h-102z" />
    <glyph glyph-name="rcaron" unicode="&#x159;" horiz-adv-x="425" 
d="M69 815h86l78 -128h3l74 128h87l-125 -192h-72zM98 0v552h105v-85h6q13 36 48.5 65t99.5 29q15 0 36 -3v-101q-13 4 -47 4q-68 0 -104.5 -36t-36.5 -94v-331h-107z" />
    <glyph glyph-name="Sacute" unicode="&#x15a;" horiz-adv-x="640" 
d="M244 789l136 111h119l-146 -111h-109zM46 198h106q3 -33 22 -58.5t56.5 -41.5t88.5 -16q71 0 112 30.5t41 81.5q0 41 -27.5 65t-86.5 39l-121 29q-35 9 -64.5 23.5t-54.5 37t-39 56t-14 75.5q0 66 36 114.5t93 72.5t125 24t124 -23.5t92 -71.5t37 -113h-104
q-5 49 -43.5 80.5t-106.5 31.5q-43 0 -75 -12.5t-50.5 -36.5t-18.5 -57q0 -73 100 -96l119 -30q43 -10 75.5 -25t58.5 -38t40 -56.5t14 -77.5q0 -103 -75.5 -161.5t-196.5 -58.5q-70 0 -122.5 19.5t-82 51.5t-43.5 67.5t-15 74.5z" />
    <glyph glyph-name="sacute" unicode="&#x15b;" horiz-adv-x="549" 
d="M65 392q0 57 30.5 96.5t76.5 56.5t103 17q91 0 146 -43t55 -115h-96q-2 19 -14 35.5t-36.5 28t-57.5 11.5q-47 0 -76 -20.5t-29 -56.5q0 -16 8 -29t18 -20.5t29.5 -13.5t32 -8.5t36.5 -6.5q3 -1 5 -1t4.5 -0.5t4.5 -1.5q43 -7 73.5 -17t57.5 -27.5t41 -45t14 -65.5
q0 -82 -61 -128.5t-164 -46.5q-96 0 -153.5 42t-57.5 115h103q11 -74 113 -74q59 0 88 22t29 57q0 16 -7.5 28.5t-17 20t-29.5 14t-33.5 9.5l-41.5 9q-6 1 -9 1q-35 7 -59 14t-49.5 19t-41 28t-25.5 40.5t-10 55.5zM248 642l125 186h100l-146 -186h-79z" />
    <glyph glyph-name="Scircumflex" unicode="&#x15c;" horiz-adv-x="640" 
d="M46 198h106q3 -33 22 -58.5t56.5 -41.5t88.5 -16q71 0 112 30.5t41 81.5q0 41 -27.5 65t-86.5 39l-121 29q-35 9 -64.5 23.5t-54.5 37t-39 56t-14 75.5q0 66 36 114.5t93 72.5t125 24t124 -23.5t92 -71.5t37 -113h-104q-5 49 -43.5 80.5t-106.5 31.5q-43 0 -75 -12.5
t-50.5 -36.5t-18.5 -57q0 -73 100 -96l119 -30q43 -10 75.5 -25t58.5 -38t40 -56.5t14 -77.5q0 -103 -75.5 -161.5t-196.5 -58.5q-70 0 -122.5 19.5t-82 51.5t-43.5 67.5t-15 74.5zM144 783l146 129h70l140 -129h-97l-78 71h-4l-81 -71h-96z" />
    <glyph glyph-name="scircumflex" unicode="&#x15d;" horiz-adv-x="549" 
d="M107 641l132 192h72l125 -192h-87l-74 124h-2l-79 -124h-87zM65 392q0 57 30.5 96.5t76.5 56.5t103 17q91 0 146 -43t55 -115h-96q-2 19 -14 35.5t-36.5 28t-57.5 11.5q-47 0 -76 -20.5t-29 -56.5q0 -16 8 -29t18 -20.5t29.5 -13.5t32 -8.5t36.5 -6.5q3 -1 5 -1t4.5 -0.5
t4.5 -1.5q43 -7 73.5 -17t57.5 -27.5t41 -45t14 -65.5q0 -82 -61 -128.5t-164 -46.5q-96 0 -153.5 42t-57.5 115h103q11 -74 113 -74q59 0 88 22t29 57q0 16 -7.5 28.5t-17 20t-29.5 14t-33.5 9.5l-41.5 9q-6 1 -9 1q-35 7 -59 14t-49.5 19t-41 28t-25.5 40.5t-10 55.5z" />
    <glyph glyph-name="Scedilla" unicode="&#x15e;" horiz-adv-x="640" 
d="M326 -254q-44 -1 -78 9v59q25 -8 60 -8q61 0 61 38q0 21 -19 27t-56 6h-28v47l24 62q-64 3 -113 23t-76.5 51.5t-40.5 66t-14 71.5h106q3 -33 22 -58.5t56.5 -41.5t88.5 -16q71 0 112 30.5t41 81.5q0 41 -27.5 65t-86.5 39l-121 29q-35 9 -64.5 23.5t-54.5 37t-39 56
t-14 75.5q0 66 36 114.5t93 72.5t125 24t124 -23.5t92 -71.5t37 -113h-104q-5 49 -43.5 80.5t-106.5 31.5q-43 0 -75 -12.5t-50.5 -36.5t-18.5 -57q0 -73 100 -96l119 -30q43 -10 75.5 -25t58.5 -38t40 -56.5t14 -77.5q0 -92 -60.5 -148.5t-161.5 -68.5l-21 -55
q50 0 79 -22.5t29 -63.5q0 -33 -16.5 -56t-42.5 -33t-61 -12z" />
    <glyph glyph-name="scedilla" unicode="&#x15f;" horiz-adv-x="549" 
d="M276 -254q-44 -1 -78 9v59q24 -8 60 -8q61 0 61 38q0 21 -19 27t-56 6h-28v47l26 67q-86 6 -136.5 47.5t-50.5 109.5h103q11 -74 113 -74q59 0 88 22t29 57q0 16 -7.5 28.5t-17 20t-29.5 14t-33.5 9.5l-41.5 9q-6 1 -9 1q-35 7 -59 14t-49.5 19t-41 28t-25.5 40.5
t-10 55.5q0 57 30.5 96.5t76.5 56.5t103 17q91 0 146 -43t55 -115h-96q-2 19 -14 35.5t-36.5 28t-57.5 11.5q-47 0 -76 -20.5t-29 -56.5q0 -16 8 -29t18 -20.5t29.5 -13.5t32 -8.5t36.5 -6.5q3 -1 5 -1t4.5 -0.5t4.5 -1.5q43 -7 73.5 -17t57.5 -27.5t41 -45t14 -65.5
q0 -48 -22 -85t-62.5 -59t-95.5 -29l-23 -60q50 0 79 -22.5t29 -63.5q0 -49 -33 -74t-87 -27z" />
    <glyph glyph-name="Scaron" unicode="&#x160;" horiz-adv-x="640" 
d="M46 198h106q3 -33 22 -58.5t56.5 -41.5t88.5 -16q71 0 112 30.5t41 81.5q0 41 -27.5 65t-86.5 39l-121 29q-35 9 -64.5 23.5t-54.5 37t-39 56t-14 75.5q0 66 36 114.5t93 72.5t125 24t124 -23.5t92 -71.5t37 -113h-104q-5 49 -43.5 80.5t-106.5 31.5q-43 0 -75 -12.5
t-50.5 -36.5t-18.5 -57q0 -73 100 -96l119 -30q43 -10 75.5 -25t58.5 -38t40 -56.5t14 -77.5q0 -103 -75.5 -161.5t-196.5 -58.5q-70 0 -122.5 19.5t-82 51.5t-43.5 67.5t-15 74.5zM140 898h99l79 -63h5l72 63h102l-124 -112h-102z" />
    <glyph glyph-name="scaron" unicode="&#x161;" horiz-adv-x="549" 
d="M109 815h87l78 -128h3l74 128h87l-125 -192h-72zM65 392q0 57 30.5 96.5t76.5 56.5t103 17q91 0 146 -43t55 -115h-96q-2 19 -14 35.5t-36.5 28t-57.5 11.5q-47 0 -76 -20.5t-29 -56.5q0 -16 8 -29t18 -20.5t29.5 -13.5t32 -8.5t36.5 -6.5q3 -1 5 -1t4.5 -0.5t4.5 -1.5
q43 -7 73.5 -17t57.5 -27.5t41 -45t14 -65.5q0 -82 -61 -128.5t-164 -46.5q-96 0 -153.5 42t-57.5 115h103q11 -74 113 -74q59 0 88 22t29 57q0 16 -7.5 28.5t-17 20t-29.5 14t-33.5 9.5l-41.5 9q-6 1 -9 1q-35 7 -59 14t-49.5 19t-41 28t-25.5 40.5t-10 55.5z" />
    <glyph glyph-name="Tcedilla" unicode="&#x162;" horiz-adv-x="579" 
d="M265 0h-29v615h-212v99h532v-99h-213v-615h-10l-34 -67q50 0 79 -22.5t29 -63.5q0 -49 -33 -74t-87 -27q-45 -1 -78 9v59q25 -8 60 -8q61 0 61 38q0 21 -19 27t-56 6h-28v47z" />
    <glyph glyph-name="tcedilla" unicode="&#x163;" horiz-adv-x="411" 
d="M245 -251q-47 -1 -78 8v59q23 -6 60 -6q60 0 60 37q0 11 -5.5 18t-17.5 10t-23 4t-29 1h-27v47l29 77q-35 8 -55.5 28t-28 49t-7.5 74v304h-84v90h85v138h104v-138h124v-90h-124v-295q0 -45 18.5 -61.5t67.5 -16.5q27 0 45 2v-87q-21 -5 -71 -5h-8l-23 -60q50 0 79 -22.5
t29 -64.5q0 -32 -16.5 -55t-42.5 -33t-61 -12z" />
    <glyph glyph-name="Tcaron" unicode="&#x164;" horiz-adv-x="579" 
d="M110 898h100l79 -63h4l73 63h102l-124 -112h-102zM343 0h-108v615h-211v99h532v-99h-213v-615z" />
    <glyph glyph-name="tcaron" unicode="&#x165;" horiz-adv-x="422" 
d="M322 886h92l-24 -255h-68v255zM124 549v138h104v-138h124v-90h-124v-295q0 -45 18.5 -61.5t67.5 -16.5q27 0 45 2v-87q-21 -5 -71 -5q-96 0 -130.5 36.5t-34.5 122.5v304h-84v90h85z" />
    <glyph glyph-name="Tbar" unicode="&#x166;" horiz-adv-x="579" 
d="M464 326h-121v-326h-107v326h-121v78h121v211h-212v99h532v-99h-213v-211h121v-78z" />
    <glyph glyph-name="tbar" unicode="&#x167;" horiz-adv-x="411" 
d="M359 1q-21 -5 -71 -5q-96 0 -130.5 36.5t-34.5 122.5v116h-81v75h81v113h-84v90h85v138h104v-138h124v-90h-124v-113h120v-75h-120v-107q0 -45 18.5 -61.5t67.5 -16.5q27 0 45 2v-87z" />
    <glyph glyph-name="Utilde" unicode="&#x168;" horiz-adv-x="729" 
d="M196 714v-459q0 -39 12 -70.5t33.5 -53t53 -33.5t70.5 -12q77 0 123 45.5t46 123.5v459h107v-466q0 -118 -76 -190.5t-200.5 -72.5t-200.5 73t-76 192v464h108zM350 796l-4.5 5t-6 6t-5.5 4.5t-6.5 5t-6.5 3.5t-8 3t-8 1q-32 0 -36 -51h-66q0 46 25 80t72 34q42 0 82 -37
l8 -8l8.5 -8.5t7.5 -6t10 -5t10 -1.5q9 0 16.5 5.5t11.5 14.5t6.5 18.5t3.5 18.5h65q0 -45 -27 -80.5t-70 -35.5q-29 0 -46.5 8.5t-35.5 25.5z" />
    <glyph glyph-name="utilde" unicode="&#x169;" horiz-adv-x="637" 
d="M547 552v-552h-104v92h-6q-8 -25 -27 -46.5t-55 -38t-81 -16.5q-87 0 -137.5 44.5t-50.5 137.5v379h106v-350q0 -115 115 -115q57 0 95.5 35.5t38.5 87.5v342h106zM305 648l-8 11t-9 9.5t-13 8t-15 2.5q-33 0 -37 -62h-66q0 58 26.5 97.5t72.5 39.5q13 0 24 -2t20.5 -7
t18.5 -13t17 -20q2 -2 7.5 -10t7.5 -10.5t7 -7.5t10.5 -6.5t12.5 -1.5q17 0 26.5 21t10.5 48h66q0 -54 -28.5 -96t-69.5 -42q-53 0 -81 41z" />
    <glyph glyph-name="Umacron" unicode="&#x16a;" horiz-adv-x="729" 
d="M196 714v-459q0 -39 12 -70.5t33.5 -53t53 -33.5t70.5 -12q77 0 123 45.5t46 123.5v459h107v-466q0 -118 -76 -190.5t-200.5 -72.5t-200.5 73t-76 192v464h108zM519 787h-309v65h309v-65z" />
    <glyph glyph-name="umacron" unicode="&#x16b;" horiz-adv-x="637" 
d="M547 552v-552h-104v92h-6q-8 -25 -27 -46.5t-55 -38t-81 -16.5q-87 0 -137.5 44.5t-50.5 137.5v379h106v-350q0 -115 115 -115q57 0 95.5 35.5t38.5 87.5v342h106zM472 644h-304v66h304v-66z" />
    <glyph glyph-name="Ubreve" unicode="&#x16c;" horiz-adv-x="729" 
d="M196 714v-459q0 -39 12 -70.5t33.5 -53t53 -33.5t70.5 -12q77 0 123 45.5t46 123.5v459h107v-466q0 -118 -76 -190.5t-200.5 -72.5t-200.5 73t-76 192v464h108zM194 918h70q0 -38 25.5 -60t75.5 -22q20 0 36.5 4t28.5 11t20 17t12 22.5t4 27.5h69q0 -64 -44 -104
t-126.5 -40t-126.5 40t-44 104z" />
    <glyph glyph-name="ubreve" unicode="&#x16d;" horiz-adv-x="637" 
d="M547 552v-552h-104v92h-6q-8 -25 -27 -46.5t-55 -38t-81 -16.5q-87 0 -137.5 44.5t-50.5 137.5v379h106v-350q0 -115 115 -115q57 0 95.5 35.5t38.5 87.5v342h106zM178 775h69q0 -36 22 -61t65 -25t65.5 25t22.5 61h68q-1 -38 -16.5 -71t-51.5 -56.5t-88 -23.5
q-75 0 -115.5 45.5t-40.5 105.5z" />
    <glyph glyph-name="Uring" unicode="&#x16e;" horiz-adv-x="729" 
d="M196 714v-459q0 -39 12 -70.5t33.5 -53t53 -33.5t70.5 -12q77 0 123 45.5t46 123.5v459h107v-466q0 -118 -76 -190.5t-200.5 -72.5t-200.5 73t-76 192v464h108zM365 784q-44 0 -74 29.5t-30 73.5q0 29 14 52.5t37.5 36.5t52.5 13q43 0 73 -29t30 -73q0 -29 -13.5 -52.5
t-37.5 -37t-52 -13.5zM313 887q0 -22 15 -37t37 -15q10 0 20 4t16.5 11t10.5 16.5t4 20.5q0 14 -6.5 26t-18.5 18.5t-26 6.5q-22 0 -37 -14.5t-15 -36.5z" />
    <glyph glyph-name="uring" unicode="&#x16f;" horiz-adv-x="637" 
d="M547 552v-552h-104v92h-6q-8 -25 -27 -46.5t-55 -38t-81 -16.5q-87 0 -137.5 44.5t-50.5 137.5v379h106v-350q0 -115 115 -115q57 0 95.5 35.5t38.5 87.5v342h106zM319 622q-44 0 -74 29.5t-30 73.5t30 73.5t74 29.5q43 0 73 -29t30 -73q0 -30 -13.5 -53.5t-37.5 -37
t-52 -13.5zM267 725q0 -22 15 -37t37 -15q8 0 16 2.5t14.5 7.5t11 11.5t7 14t2.5 16.5q0 14 -6.5 26t-18.5 19t-26 7q-22 0 -37 -15t-15 -37z" />
    <glyph glyph-name="Uhungarumlaut" unicode="&#x170;" horiz-adv-x="729" 
d="M196 714v-459q0 -39 12 -70.5t33.5 -53t53 -33.5t70.5 -12q77 0 123 45.5t46 123.5v459h107v-466q0 -118 -76 -190.5t-200.5 -72.5t-200.5 73t-76 192v464h108zM194 789l163 131h111l-176 -131h-98zM387 789l163 131h111l-175 -131h-99z" />
    <glyph glyph-name="uhungarumlaut" unicode="&#x171;" horiz-adv-x="637" 
d="M256 642h-74l127 189h99zM430 642h-74l128 189h99zM547 552v-552h-104v92h-6q-8 -25 -27 -46.5t-55 -38t-81 -16.5q-87 0 -137.5 44.5t-50.5 137.5v379h106v-350q0 -115 115 -115q57 0 95.5 35.5t38.5 87.5v342h106z" />
    <glyph glyph-name="Uogonek" unicode="&#x172;" horiz-adv-x="729" 
d="M520 -202q-51 0 -85.5 27t-34.5 76q0 62 50 102l-2 3q-42 -20 -90 -20q-118 0 -194 73t-76 191v464h108v-459q0 -79 45.5 -124t123.5 -45q77 0 123 45.5t46 123.5v459h107v-466q0 -118 -79 -203l-27.5 -28t-28 -30.5t-16 -26.5t-8.5 -33q0 -27 17 -40t45 -13q20 0 39 5
v-71q-25 -10 -63 -10z" />
    <glyph glyph-name="uogonek" unicode="&#x173;" horiz-adv-x="637" 
d="M554 -192q-26 -10 -68 -10q-31 0 -57 10t-43.5 34t-17.5 58q0 22 6.5 40.5t21 34t23.5 23t26 20.5v74h-6q-14 -40 -56 -70.5t-108 -30.5q-87 0 -138 44.5t-51 137.5v379h106v-350q0 -62 31.5 -88.5t83.5 -26.5q57 0 95.5 35.5t38.5 87.5v342h106v-538q-38 -15 -66.5 -39
t-28.5 -53q0 -24 16.5 -36t43.5 -12q25 0 42 5v-71z" />
    <glyph glyph-name="Wcircumflex" unicode="&#x174;" horiz-adv-x="915" 
d="M284 783l145 129h71l139 -129h-97l-78 71h-4l-81 -71h-95zM311 0h-98l-193 714h121l124 -547h5l136 547h104l135 -547h6l124 547h121l-194 -714h-98l-144 532h-5z" />
    <glyph glyph-name="wcircumflex" unicode="&#x175;" horiz-adv-x="808" 
d="M236 641l132 192h72l125 -192h-87l-74 124h-2l-79 -124h-87zM780 552l-146 -552h-106l-119 410h-4l-116 -410h-107l-153 552h115l93 -422h4l116 422h100l118 -422h5l95 422h105z" />
    <glyph glyph-name="Ycircumflex" unicode="&#x176;" horiz-adv-x="607" 
d="M357 0h-107v290l-238 424h121l168 -310h6l170 310h119l-239 -423v-291zM129 783l146 129h70l139 -129h-96l-78 71h-4l-82 -71h-95z" />
    <glyph glyph-name="ycircumflex" unicode="&#x177;" horiz-adv-x="578" 
d="M541 552l-191 -546l-14 -38q-14 -39 -28 -65t-36.5 -51.5t-56 -38t-78.5 -12.5q-34 0 -63 5v86q14 -3 43 -3q47 0 70.5 20t34.5 62l8 24l-200 557h117l139 -448h4l139 448h112zM121 641l132 192h72l125 -192h-87l-74 124h-2l-79 -124h-87z" />
    <glyph glyph-name="Ydieresis" unicode="&#x178;" horiz-adv-x="607" 
d="M357 0h-107v290l-238 424h121l168 -310h6l170 310h119l-239 -423v-291zM150 826q0 10 3 19t8 16t12 12t16 7.5t19 2.5q26 0 42 -15.5t16 -41.5q0 -24 -16.5 -40t-41.5 -16t-41.5 16t-16.5 40zM340 826q0 13 4.5 23.5t12 18t18 11.5t23.5 4q26 0 42.5 -16t16.5 -41
q0 -24 -16.5 -40t-42.5 -16q-25 0 -41.5 16t-16.5 40z" />
    <glyph glyph-name="Zacute" unicode="&#x179;" horiz-adv-x="632" 
d="M241 789l136 111h119l-146 -111h-109zM58 0v78l369 531v7h-357v98h490v-77l-368 -532v-7h377v-98h-511z" />
    <glyph glyph-name="zacute" unicode="&#x17a;" horiz-adv-x="538" 
d="M242 642l125 186h101l-146 -186h-80zM62 0v70l285 384v5h-285v93h415v-73l-282 -380v-5h285v-94h-418z" />
    <glyph glyph-name="Zdotaccent" unicode="&#x17b;" horiz-adv-x="632" 
d="M58 0v78l369 531v7h-357v98h490v-77l-368 -532v-7h377v-98h-511zM260 838q0 17 7 30.5t20 21.5t29 8q26 0 42.5 -17t16.5 -43t-16.5 -42.5t-42.5 -16.5q-16 0 -29 7.5t-20 21t-7 30.5z" />
    <glyph glyph-name="zdotaccent" unicode="&#x17c;" horiz-adv-x="538" 
d="M213 676q0 26 15.5 43t40.5 17q26 0 42.5 -17t16.5 -43q0 -17 -7.5 -30.5t-21 -20.5t-30.5 -7q-12 0 -22.5 4t-18 11.5t-11.5 18.5t-4 24zM62 0v70l285 384v5h-285v93h415v-73l-282 -380v-5h285v-94h-418z" />
    <glyph glyph-name="Zcaron" unicode="&#x17d;" horiz-adv-x="632" 
d="M58 0v78l369 531v7h-357v98h490v-77l-368 -532v-7h377v-98h-511zM137 898h99l79 -63h5l73 63h101l-124 -112h-101z" />
    <glyph glyph-name="zcaron" unicode="&#x17e;" horiz-adv-x="538" 
d="M104 815h86l78 -128h3l74 128h87l-125 -192h-72zM62 0v70l285 384v5h-285v93h415v-73l-282 -380v-5h285v-94h-418z" />
    <glyph glyph-name="florin" unicode="&#x192;" 
d="M88 -97l88 474h-109l15 92h109l16 91q28 168 198 168q45 0 78 -14t49.5 -37t23.5 -48t5 -50h-98q2 27 -17 43.5t-47 16.5q-68 0 -83 -86l-15 -84h154l-15 -92h-154l-88 -474h-110z" />
    <glyph glyph-name="Ohorn" unicode="&#x1a0;" horiz-adv-x="726" 
d="M653 305q0 -150 -79 -235t-215 -85q-135 0 -213 84.5t-78 235.5v98q0 152 79 238.5t214 86.5q55 0 119.5 -21.5t91.5 -21.5q41 0 56 20t15 58v54h90v-62q0 -70 -34.5 -108.5t-99.5 -38.5l-2 -3q23 -34 39.5 -89t16.5 -113v-98zM176 404v-100q0 -108 51 -163.5t133 -55.5
q54 0 94.5 23t65 73.5t24.5 122.5v100q0 108 -51 166.5t-133 58.5t-133 -58.5t-51 -166.5z" />
    <glyph glyph-name="ohorn" unicode="&#x1a1;" horiz-adv-x="616" 
d="M306 -9q-109 0 -175.5 66t-66.5 184v72q0 112 67.5 180.5t174.5 68.5q31 0 73.5 -11t70.5 -11q37 0 51.5 18.5t14.5 56.5v82h90v-85q0 -135 -108 -144v-5q21 -27 35.5 -67t14.5 -83v-72q0 -118 -67 -184t-175 -66zM306 470q-63 0 -100 -45.5t-37 -116.5v-63
q0 -72 36 -117t101 -45q64 0 99.5 45t35.5 117v63q0 71 -36 116.5t-99 45.5z" />
    <glyph glyph-name="Uhorn" unicode="&#x1af;" horiz-adv-x="765" 
d="M365 -14q-125 0 -201 72.5t-76 191.5v464h108v-459q0 -78 45.5 -123t123.5 -45q77 0 123 45t46 123v459h108q25 0 40 9.5t20.5 25.5t5.5 40v58h89v-66q0 -25 -5 -47t-15.5 -40.5t-25.5 -32t-37 -21t-49 -7.5h-24v-385q0 -118 -76 -190t-200 -72z" />
    <glyph glyph-name="uhorn" unicode="&#x1b0;" horiz-adv-x="689" 
d="M437 92q-8 -25 -27 -46.5t-55 -38t-81 -16.5q-87 0 -137.5 44.5t-50.5 137.5v379h106v-350q0 -115 115 -115q57 0 95.5 35.5t38.5 87.5v342h96q36 0 50 19t14 56v70h90v-78q0 -65 -33.5 -106t-99.5 -41h-11v-472h-104v92h-6z" />
    <glyph glyph-name="Acaron" unicode="&#x1cd;" horiz-adv-x="665" 
d="M134 0h-108l249 714h116l249 -714h-115l-67 199h-257zM332 592h-4l-100 -304h205zM153 898h100l79 -63h4l73 63h102l-124 -112h-102z" />
    <glyph glyph-name="acaron" unicode="&#x1ce;" horiz-adv-x="588" 
d="M240 -9q-53 0 -94 21t-63.5 59.5t-22.5 89.5q0 74 50.5 118.5t143.5 44.5h142v52q0 32 -13.5 53t-37.5 30.5t-58 9.5q-89 0 -105 -62h-101q5 71 59 112.5t150 41.5q45 0 82 -10t67 -31.5t46.5 -58.5t16.5 -86v-375h-101v72h-5q-49 -81 -156 -81zM271 79q53 0 89 30.5
t36 76.5v61h-129q-50 0 -75.5 -22t-25.5 -59q0 -41 30.5 -64t74.5 -23zM129 815h87l77 -128h4l73 128h87l-125 -192h-72z" />
    <glyph glyph-name="Icaron" unicode="&#x1cf;" horiz-adv-x="300" 
d="M204 0h-108v714h108v-714zM-29 898h100l79 -63h4l73 63h101l-123 -112h-102z" />
    <glyph glyph-name="icaron" unicode="&#x1d0;" horiz-adv-x="310" 
d="M-9 815h86l78 -128h3l74 128h87l-125 -192h-72zM103 0v552h105v-552h-105z" />
    <glyph glyph-name="Ocaron" unicode="&#x1d1;" horiz-adv-x="720" 
d="M181 898h99l79 -63h5l73 63h101l-124 -112h-101zM177 404v-100q0 -107 50.5 -163t132.5 -56q83 0 133.5 56t50.5 163v100q0 108 -51 166.5t-133 58.5t-132.5 -58.5t-50.5 -166.5zM68 305v98q0 152 79 238.5t214 86.5t213.5 -86.5t78.5 -238.5v-98q0 -150 -79 -235
t-215 -85q-135 0 -213 84.5t-78 235.5z" />
    <glyph glyph-name="ocaron" unicode="&#x1d2;" horiz-adv-x="611" 
d="M140 815h86l78 -128h4l73 128h87l-125 -192h-72zM306 562q107 0 174.5 -67t67.5 -182v-72q0 -118 -67 -184t-175 -66q-109 0 -175.5 66t-66.5 184v72q0 112 67.5 180.5t174.5 68.5zM306 470q-63 0 -100 -45.5t-37 -116.5v-63q0 -72 36 -117t101 -45q64 0 99.5 45
t35.5 117v63q0 71 -36 116.5t-99 45.5z" />
    <glyph glyph-name="Ucaron" unicode="&#x1d3;" horiz-adv-x="729" 
d="M185 898h100l79 -63h4l73 63h101l-124 -112h-101zM196 714v-459q0 -39 12 -70.5t33.5 -53t53 -33.5t70.5 -12q77 0 123 45.5t46 123.5v459h107v-466q0 -118 -76 -190.5t-200.5 -72.5t-200.5 73t-76 192v464h108z" />
    <glyph glyph-name="ucaron" unicode="&#x1d4;" horiz-adv-x="637" 
d="M153 815h87l78 -128h3l73 128h87l-125 -192h-72zM547 552v-552h-104v92h-6q-8 -25 -27 -46.5t-55 -38t-81 -16.5q-87 0 -137.5 44.5t-50.5 137.5v379h106v-350q0 -115 115 -115q57 0 95.5 35.5t38.5 87.5v342h106z" />
    <glyph glyph-name="Udieresismacron" unicode="&#x1d5;" horiz-adv-x="729" 
d="M211 826q0 25 16 41t41 16q17 0 30.5 -7t21 -20t7.5 -30q0 -24 -16.5 -40t-42.5 -16q-12 0 -22.5 4.5t-18 12t-12 17.5t-4.5 22zM401 826q0 17 7.5 30t20.5 20t29 7q26 0 42.5 -16t16.5 -41q0 -16 -7 -28.5t-21 -20t-31 -7.5q-25 0 -41 16t-16 40zM196 714v-459
q0 -39 12 -70.5t33.5 -53t53 -33.5t70.5 -12q77 0 123 45.5t46 123.5v459h107v-466q0 -118 -76 -190.5t-200.5 -72.5t-200.5 73t-76 192v464h108zM519 930h-309v65h309v-65z" />
    <glyph glyph-name="udieresismacron" unicode="&#x1d6;" horiz-adv-x="637" 
d="M547 552v-552h-104v92h-6q-8 -25 -27 -46.5t-55 -38t-81 -16.5q-87 0 -137.5 44.5t-50.5 137.5v379h106v-350q0 -115 115 -115q57 0 95.5 35.5t38.5 87.5v342h106zM162 685q0 25 17 42t43 17q13 0 24 -4.5t19 -12t12.5 -19t4.5 -23.5q0 -25 -17 -42t-43 -17
q-17 0 -31 7.5t-21.5 21t-7.5 30.5zM358 685q0 25 17 42t42 17q27 0 44.5 -16.5t17.5 -42.5q0 -25 -17.5 -42t-44.5 -17q-16 0 -29.5 7.5t-21.5 21t-8 30.5zM472 807h-304v66h304v-66z" />
    <glyph glyph-name="Udieresisacute" unicode="&#x1d7;" horiz-adv-x="729" 
d="M289 910l136 111h120l-146 -111h-110zM211 826q0 25 16 41t41 16q17 0 30.5 -7t21 -20t7.5 -30q0 -24 -16.5 -40t-42.5 -16q-12 0 -22.5 4.5t-18 12t-12 17.5t-4.5 22zM401 826q0 17 7.5 30t20.5 20t29 7q26 0 42.5 -16t16.5 -41q0 -16 -7 -28.5t-21 -20t-31 -7.5
q-25 0 -41 16t-16 40zM196 714v-459q0 -39 12 -70.5t33.5 -53t53 -33.5t70.5 -12q77 0 123 45.5t46 123.5v459h107v-466q0 -118 -76 -190.5t-200.5 -72.5t-200.5 73t-76 192v464h108z" />
    <glyph glyph-name="udieresisacute" unicode="&#x1d8;" horiz-adv-x="637" 
d="M291 784l125 185h101l-146 -185h-80zM547 552v-552h-104v92h-6q-8 -25 -27 -46.5t-55 -38t-81 -16.5q-87 0 -137.5 44.5t-50.5 137.5v379h106v-350q0 -115 115 -115q57 0 95.5 35.5t38.5 87.5v342h106zM162 685q0 25 17 42t43 17q13 0 24 -4.5t19 -12t12.5 -19t4.5 -23.5
q0 -25 -17 -42t-43 -17q-17 0 -31 7.5t-21.5 21t-7.5 30.5zM358 685q0 25 17 42t42 17q27 0 44.5 -16.5t17.5 -42.5q0 -25 -17.5 -42t-44.5 -17q-16 0 -29.5 7.5t-21.5 21t-8 30.5z" />
    <glyph glyph-name="Udieresiscaron" unicode="&#x1d9;" horiz-adv-x="729" 
d="M211 826q0 25 16 41t41 16q17 0 30.5 -7t21 -20t7.5 -30q0 -24 -16.5 -40t-42.5 -16q-12 0 -22.5 4.5t-18 12t-12 17.5t-4.5 22zM401 826q0 17 7.5 30t20.5 20t29 7q26 0 42.5 -16t16.5 -41q0 -16 -7 -28.5t-21 -20t-31 -7.5q-25 0 -41 16t-16 40zM185 1035h100l79 -63h4
l73 63h101l-124 -112h-101zM196 714v-459q0 -39 12 -70.5t33.5 -53t53 -33.5t70.5 -12q77 0 123 45.5t46 123.5v459h107v-466q0 -118 -76 -190.5t-200.5 -72.5t-200.5 73t-76 192v464h108z" />
    <glyph glyph-name="udieresiscaron" unicode="&#x1da;" horiz-adv-x="637" 
d="M153 973h87l78 -128h3l73 128h87l-125 -192h-72zM547 552v-552h-104v92h-6q-8 -25 -27 -46.5t-55 -38t-81 -16.5q-87 0 -137.5 44.5t-50.5 137.5v379h106v-350q0 -115 115 -115q57 0 95.5 35.5t38.5 87.5v342h106zM162 685q0 25 17 42t43 17q13 0 24 -4.5t19 -12
t12.5 -19t4.5 -23.5q0 -25 -17 -42t-43 -17q-17 0 -31 7.5t-21.5 21t-7.5 30.5zM358 685q0 25 17 42t42 17q27 0 44.5 -16.5t17.5 -42.5q0 -25 -17.5 -42t-44.5 -17q-16 0 -29.5 7.5t-21.5 21t-8 30.5z" />
    <glyph glyph-name="Udieresisgrave" unicode="&#x1db;" horiz-adv-x="729" 
d="M435 910h-105l-147 109h117zM211 826q0 25 16 41t41 16q17 0 30.5 -7t21 -20t7.5 -30q0 -24 -16.5 -40t-42.5 -16q-12 0 -22.5 4.5t-18 12t-12 17.5t-4.5 22zM401 826q0 17 7.5 30t20.5 20t29 7q26 0 42.5 -16t16.5 -41q0 -16 -7 -28.5t-21 -20t-31 -7.5q-25 0 -41 16
t-16 40zM196 714v-459q0 -39 12 -70.5t33.5 -53t53 -33.5t70.5 -12q77 0 123 45.5t46 123.5v459h107v-466q0 -118 -76 -190.5t-200.5 -72.5t-200.5 73t-76 192v464h108z" />
    <glyph glyph-name="udieresisgrave" unicode="&#x1dc;" horiz-adv-x="637" 
d="M371 783h-79l-146 185h101zM547 552v-552h-104v92h-6q-8 -25 -27 -46.5t-55 -38t-81 -16.5q-87 0 -137.5 44.5t-50.5 137.5v379h106v-350q0 -115 115 -115q57 0 95.5 35.5t38.5 87.5v342h106zM162 685q0 25 17 42t43 17q13 0 24 -4.5t19 -12t12.5 -19t4.5 -23.5
q0 -25 -17 -42t-43 -17q-17 0 -31 7.5t-21.5 21t-7.5 30.5zM358 685q0 25 17 42t42 17q27 0 44.5 -16.5t17.5 -42.5q0 -25 -17.5 -42t-44.5 -17q-16 0 -29.5 7.5t-21.5 21t-8 30.5z" />
    <glyph glyph-name="Adieresismacron" unicode="&#x1de;" horiz-adv-x="665" 
d="M134 0h-108l249 714h116l249 -714h-115l-67 199h-257zM332 592h-4l-100 -304h205zM179 826q0 25 16.5 41t41.5 16q17 0 30.5 -7t21 -20t7.5 -30q0 -24 -16.5 -40t-42.5 -16q-25 0 -41.5 16t-16.5 40zM369 826q0 17 7.5 30t20.5 20t30 7q26 0 42.5 -16t16.5 -41
q0 -16 -7.5 -28.5t-21 -20t-30.5 -7.5q-16 0 -29.5 7.5t-21 20t-7.5 28.5zM487 930h-309v65h309v-65z" />
    <glyph glyph-name="adieresismacron" unicode="&#x1df;" horiz-adv-x="588" 
d="M240 -9q-53 0 -94 21t-63.5 59.5t-22.5 89.5q0 74 50.5 118.5t143.5 44.5h142v52q0 32 -13.5 53t-37.5 30.5t-58 9.5q-89 0 -105 -62h-101q5 71 59 112.5t150 41.5q45 0 82 -10t67 -31.5t46.5 -58.5t16.5 -86v-375h-101v72h-5q-49 -81 -156 -81zM271 79q53 0 89 30.5
t36 76.5v61h-129q-50 0 -75.5 -22t-25.5 -59q0 -41 30.5 -64t74.5 -23zM138 685q0 25 17 42t43 17q8 0 16 -2t14.5 -5.5t12.5 -9t9.5 -12t5.5 -14.5t2 -16q0 -25 -17 -42t-43 -17q-17 0 -31 7.5t-21.5 21t-7.5 30.5zM334 685q0 25 17 42t42 17q27 0 44.5 -16.5t17.5 -42.5
q0 -25 -17.5 -42t-44.5 -17q-25 0 -42 17t-17 42zM448 807h-304v66h304v-66z" />
    <glyph glyph-name="Adotmacron" unicode="&#x1e0;" horiz-adv-x="665" 
d="M134 0h-108l249 714h116l249 -714h-115l-67 199h-257zM332 592h-4l-100 -304h205zM276 838q0 26 16 43t41 17t41.5 -17t16.5 -43t-16.5 -42.5t-41.5 -16.5q-17 0 -30 7.5t-20 21t-7 30.5zM487 930h-309v65h309v-65z" />
    <glyph glyph-name="adotmacron" unicode="&#x1e1;" horiz-adv-x="588" 
d="M240 -9q-53 0 -94 21t-63.5 59.5t-22.5 89.5q0 74 50.5 118.5t143.5 44.5h142v52q0 32 -13.5 53t-37.5 30.5t-58 9.5q-89 0 -105 -62h-101q5 71 59 112.5t150 41.5q45 0 82 -10t67 -31.5t46.5 -58.5t16.5 -86v-375h-101v72h-5q-49 -81 -156 -81zM271 79q53 0 89 30.5
t36 76.5v61h-129q-50 0 -75.5 -22t-25.5 -59q0 -41 30.5 -64t74.5 -23zM238 676q0 26 16 43t40 17q26 0 42.5 -17t16.5 -43q0 -17 -7.5 -30.5t-21 -20.5t-30.5 -7q-25 0 -40.5 16t-15.5 42zM448 807h-304v66h304v-66z" />
    <glyph glyph-name="AEmacron" unicode="&#x1e2;" horiz-adv-x="1002" 
d="M459 616l-166 -319l203 1v318h-37zM496 205h-245l-110 -205h-121l376 714h535v-98h-328v-206h309v-94h-309v-218h328v-98h-435v205zM870 787h-309v65h309v-65z" />
    <glyph glyph-name="aemacron" unicode="&#x1e3;" horiz-adv-x="924" 
d="M640 -9q-78 0 -129.5 29.5t-70.5 75.5h-7q-23 -45 -70 -75t-117 -30q-55 0 -97.5 20t-66 58t-23.5 90q0 76 51.5 120.5t146.5 44.5h140v52q0 47 -28.5 70t-80.5 23q-91 0 -108 -62h-101q6 71 61 112.5t151 41.5q56 0 101 -18t68 -52h7q24 33 68.5 51.5t97.5 18.5
q103 0 166 -67t63 -180v-65h-356v-39q0 -56 36.5 -91.5t97.5 -35.5q45 0 74 18t36 44h105q-3 -25 -17 -51t-38.5 -49.5t-66 -38.5t-93.5 -15zM634 472q-27 0 -51 -10t-41 -27t-26.5 -42t-9.5 -54v-15h252v11q0 63 -33.5 100t-90.5 37zM272 79q53 0 89 31t36 76v61h-127
q-52 0 -79 -22t-27 -59q0 -28 16 -48.5t39.5 -29.5t52.5 -9zM616 644h-304v66h304v-66z" />
    <glyph glyph-name="Gcaron" unicode="&#x1e6;" horiz-adv-x="699" 
d="M179 898h99l79 -63h5l73 63h101l-124 -112h-101zM629 491h-105q-9 67 -55 102t-111 35q-81 0 -131.5 -55.5t-50.5 -167.5v-93q0 -106 46 -166t135 -60q75 0 122.5 40.5t47.5 102.5v57h-172v92h276v-145q0 -32 -8.5 -65t-29 -66.5t-51 -59t-78.5 -41.5t-107 -16
q-142 0 -215.5 88t-73.5 239v94q0 150 79 236t213 86q63 0 113.5 -19.5t83 -53t51 -75.5t21.5 -89z" />
    <glyph glyph-name="gcaron" unicode="&#x1e7;" horiz-adv-x="620" 
d="M145 815h87l78 -128h3l74 128h86l-125 -192h-72zM296 -117q68 0 103 34.5t35 97.5v82h-6q-16 -38 -57.5 -62.5t-96.5 -24.5q-94 0 -155 64t-61 173v75q0 110 60.5 174t154.5 64q58 0 101.5 -27t58.5 -64h4v83h102v-542q0 -110 -67 -163t-181 -53q-104 0 -159.5 44
t-61.5 111h106q6 -29 37.5 -47.5t82.5 -18.5zM303 467q-63 0 -100.5 -43.5t-37.5 -116.5v-48q0 -72 39 -115.5t100 -43.5t95.5 42t34.5 103v75q0 62 -35.5 104.5t-95.5 42.5z" />
    <glyph glyph-name="Kcaron" unicode="&#x1e8;" horiz-adv-x="660" 
d="M629 714l-262 -305l275 -409h-133l-222 330l-83 -89v-241h-108v714h108v-333h5l297 333h123zM140 898h100l79 -63h4l73 63h101l-124 -112h-101z" />
    <glyph glyph-name="kcaron" unicode="&#x1e9;" horiz-adv-x="572" 
d="M-23 1015h87l78 -128h3l74 128h86l-125 -193h-72zM197 198v-198h-105v752h105v-440h4l213 240h121l-212 -239l226 -313h-125l-180 246z" />
    <glyph glyph-name="Oogonek" unicode="&#x1ea;" horiz-adv-x="720" 
d="M176 404v-100q0 -107 50.5 -163t133.5 -56t133.5 56t50.5 163v100q0 108 -51 166.5t-133 58.5q-54 0 -94.5 -25t-65 -76.5t-24.5 -123.5zM348 -14q-125 0 -202.5 86t-77.5 233v98q0 152 79 238.5t214 86.5t213.5 -87t78.5 -238v-98q0 -91 -25 -149.5t-67 -106.5
q-10 -11 -30.5 -31.5t-29 -30.5t-16.5 -26.5t-8 -33.5q0 -52 61 -52q21 0 39 5v-72q-29 -10 -63 -10q-52 0 -86.5 27t-34.5 76q0 60 53 102l-2 6q-41 -23 -96 -23z" />
    <glyph glyph-name="oogonek" unicode="&#x1eb;" horiz-adv-x="611" 
d="M306 470q-63 0 -100 -45.5t-37 -116.5v-63q0 -72 36 -117t101 -45q64 0 99.5 45t35.5 117v63q0 72 -36 117t-99 45zM364 9q-36 -17 -77 -17q-96 0 -159.5 66.5t-63.5 177.5v77q0 112 68 180.5t176 68.5q105 0 172.5 -67t67.5 -182v-72q0 -71 -21.5 -116.5t-59.5 -86.5
q-5 -6 -21 -22t-21 -22t-14 -18.5t-12.5 -23t-3.5 -22.5q0 -27 17.5 -41.5t45.5 -14.5q22 0 38 5v-71q-23 -10 -63 -10q-50 0 -85.5 25.5t-35.5 76.5q0 62 55 104z" />
    <glyph glyph-name="Oogonekmacron" unicode="&#x1ec;" horiz-adv-x="720" 
d="M176 404v-100q0 -107 50.5 -163t133.5 -56t133.5 56t50.5 163v100q0 108 -51 166.5t-133 58.5q-54 0 -94.5 -25t-65 -76.5t-24.5 -123.5zM348 -14q-125 0 -202.5 86t-77.5 233v98q0 152 79 238.5t214 86.5t213.5 -87t78.5 -238v-98q0 -91 -25 -149.5t-67 -106.5
q-10 -11 -30.5 -31.5t-29 -30.5t-16.5 -26.5t-8 -33.5q0 -52 61 -52q21 0 39 5v-72q-29 -10 -63 -10q-52 0 -86.5 27t-34.5 76q0 60 53 102l-2 6q-41 -23 -96 -23zM515 787h-309v65h309v-65z" />
    <glyph glyph-name="oogonekmacron" unicode="&#x1ed;" horiz-adv-x="611" 
d="M306 470q-63 0 -100 -45.5t-37 -116.5v-63q0 -72 36 -117t101 -45q64 0 99.5 45t35.5 117v63q0 72 -36 117t-99 45zM364 9q-36 -17 -77 -17q-96 0 -159.5 66.5t-63.5 177.5v77q0 112 68 180.5t176 68.5q105 0 172.5 -67t67.5 -182v-72q0 -71 -21.5 -116.5t-59.5 -86.5
q-5 -6 -21 -22t-21 -22t-14 -18.5t-12.5 -23t-3.5 -22.5q0 -27 17.5 -41.5t45.5 -14.5q22 0 38 5v-71q-23 -10 -63 -10q-50 0 -85.5 25.5t-35.5 76.5q0 62 55 104zM459 644h-304v66h304v-66z" />
    <glyph glyph-name="Gacute" unicode="&#x1f4;" horiz-adv-x="699" 
d="M283 789l136 111h119l-146 -111h-109zM629 491h-105q-9 67 -55 102t-111 35q-81 0 -131.5 -55.5t-50.5 -167.5v-93q0 -106 46 -166t135 -60q75 0 122.5 40.5t47.5 102.5v57h-172v92h276v-145q0 -32 -8.5 -65t-29 -66.5t-51 -59t-78.5 -41.5t-107 -16q-142 0 -215.5 88
t-73.5 239v94q0 150 79 236t213 86q63 0 113.5 -19.5t83 -53t51 -75.5t21.5 -89z" />
    <glyph glyph-name="gacute" unicode="&#x1f5;" horiz-adv-x="620" 
d="M284 642l125 186h100l-146 -186h-79zM296 -117q68 0 103 34.5t35 97.5v82h-6q-16 -38 -57.5 -62.5t-96.5 -24.5q-94 0 -155 64t-61 173v75q0 110 60.5 174t154.5 64q58 0 101.5 -27t58.5 -64h4v83h102v-542q0 -110 -67 -163t-181 -53q-104 0 -159.5 44t-61.5 111h106
q6 -29 37.5 -47.5t82.5 -18.5zM303 467q-63 0 -100.5 -43.5t-37.5 -116.5v-48q0 -72 39 -115.5t100 -43.5t95.5 42t34.5 103v75q0 62 -35.5 104.5t-95.5 42.5z" />
    <glyph glyph-name="Ngrave" unicode="&#x1f8;" horiz-adv-x="743" 
d="M441 789h-105l-146 110h117zM201 0h-105v714h98l343 -517h5v517h105v-714h-98l-343 518h-5v-518z" />
    <glyph glyph-name="ngrave" unicode="&#x1f9;" horiz-adv-x="640" 
d="M373 642h-79l-146 186h100zM90 0v552h105v-98h5q35 107 166 107q86 0 136.5 -47.5t50.5 -139.5v-374h-106v342q0 62 -30 93t-84 31q-66 0 -101.5 -43.5t-35.5 -114.5v-308h-106z" />
    <glyph glyph-name="Aringacute" unicode="&#x1fa;" horiz-adv-x="665" 
d="M276 875l163 130h119l-172 -130h-110zM275 783q0 -24 16.5 -40.5t39.5 -16.5q24 0 40.5 16.5t16.5 40.5q0 23 -16.5 39t-40.5 16q-23 0 -39.5 -16t-16.5 -39zM433 288l-101 304h-4l-100 -304h205zM134 0h-108l242 692q-23 14 -36.5 38.5t-13.5 52.5q0 49 33 83t80 34
t80 -34t33 -83q0 -57 -48 -88l244 -695h-115l-67 199h-257z" />
    <glyph glyph-name="aringacute" unicode="&#x1fb;" horiz-adv-x="588" 
d="M370 800h-88l129 181h115zM240 -9q-53 0 -94 21t-63.5 59.5t-22.5 89.5q0 74 50.5 118.5t143.5 44.5h142v52q0 32 -13.5 53t-37.5 30.5t-58 9.5q-89 0 -105 -62h-101q5 71 59 112.5t150 41.5q45 0 82 -10t67 -31.5t46.5 -58.5t16.5 -86v-375h-101v72h-5q-49 -81 -156 -81
zM271 79q53 0 89 30.5t36 76.5v61h-129q-50 0 -75.5 -22t-25.5 -59q0 -41 30.5 -64t74.5 -23zM298 622q-43 0 -73 29.5t-30 74.5q0 21 8 40t22 32.5t33 21.5t40 8q44 0 74 -29t30 -73.5t-30 -74t-74 -29.5zM246 725q0 -22 15 -37t37 -15q15 0 26.5 7t18.5 19t7 26
q0 22 -15 37t-37 15t-37 -15t-15 -37z" />
    <glyph glyph-name="AEacute" unicode="&#x1fc;" horiz-adv-x="1002" 
d="M640 789l136 111h120l-146 -111h-110zM459 616l-166 -319l203 1v318h-37zM496 205h-245l-110 -205h-121l376 714h535v-98h-328v-206h309v-94h-309v-218h328v-98h-435v205z" />
    <glyph glyph-name="aeacute" unicode="&#x1fd;" horiz-adv-x="924" 
d="M435 642l125 186h101l-146 -186h-80zM640 -9q-78 0 -129.5 29.5t-70.5 75.5h-7q-23 -45 -70 -75t-117 -30q-55 0 -97.5 20t-66 58t-23.5 90q0 76 51.5 120.5t146.5 44.5h140v52q0 47 -28.5 70t-80.5 23q-91 0 -108 -62h-101q6 71 61 112.5t151 41.5q56 0 101 -18t68 -52
h7q24 33 68.5 51.5t97.5 18.5q103 0 166 -67t63 -180v-65h-356v-39q0 -56 36.5 -91.5t97.5 -35.5q45 0 74 18t36 44h105q-3 -25 -17 -51t-38.5 -49.5t-66 -38.5t-93.5 -15zM634 472q-27 0 -51 -10t-41 -27t-26.5 -42t-9.5 -54v-15h252v11q0 63 -33.5 100t-90.5 37zM272 79
q53 0 89 31t36 76v61h-127q-52 0 -79 -22t-27 -59q0 -28 16 -48.5t39.5 -29.5t52.5 -9z" />
    <glyph glyph-name="Oslashacute" unicode="&#x1fe;" horiz-adv-x="720" 
d="M359 -15q-123 0 -198 70l-53 -65l-55 47l61 75q-46 78 -46 193v98q0 152 79 238.5t214 86.5q119 0 195 -67l49 60l58 -43l-61 -73q51 -82 51 -202v-98q0 -150 -79 -235t-215 -85zM175 304q0 -52 14 -92l302 364q-50 54 -131 54q-54 0 -95 -24.5t-65.5 -76.5t-24.5 -125
v-100zM360 83q83 0 134 56.5t51 164.5v100q0 58 -18 101l-302 -366q49 -56 135 -56zM285 789l136 111h119l-146 -111h-109z" />
    <glyph glyph-name="oslashacute" unicode="&#x1ff;" horiz-adv-x="611" 
d="M218 111q35 -30 88 -30q65 0 101.5 45.5t36.5 118.5v75q0 39 -16 68zM167 233q0 -39 15 -69l211 279q-34 30 -87 30q-63 0 -101 -46.5t-38 -117.5v-76zM306 -9q-81 0 -142 41l-54 -70l-51 41l57 75q-52 66 -52 163v72q0 112 67.5 180.5t174.5 68.5q80 0 141 -43l52 70
l52 -41l-56 -75q53 -66 53 -160v-72q0 -118 -67 -184t-175 -66zM278 642l125 186h101l-146 -186h-80z" />
    <glyph glyph-name="Adblgrave" unicode="&#x200;" horiz-adv-x="665" 
d="M134 0h-108l249 714h116l249 -714h-115l-67 199h-257zM332 592h-4l-100 -304h205zM494 789h-98l-175 131h111zM301 789h-99l-175 131h111z" />
    <glyph glyph-name="adblgrave" unicode="&#x201;" horiz-adv-x="588" 
d="M240 -9q-53 0 -94 21t-63.5 59.5t-22.5 89.5q0 74 50.5 118.5t143.5 44.5h142v52q0 32 -13.5 53t-37.5 30.5t-58 9.5q-89 0 -105 -62h-101q5 71 59 112.5t150 41.5q45 0 82 -10t67 -31.5t46.5 -58.5t16.5 -86v-375h-101v72h-5q-49 -81 -156 -81zM271 79q53 0 89 30.5
t36 76.5v61h-129q-50 0 -75.5 -22t-25.5 -59q0 -41 30.5 -64t74.5 -23zM183 641l-152 190h99l127 -190h-74zM356 641l-152 190h99l127 -190h-74z" />
    <glyph glyph-name="Ainvertedbreve" unicode="&#x202;" horiz-adv-x="665" 
d="M134 0h-108l249 714h116l249 -714h-115l-67 199h-257zM332 592h-4l-100 -304h205zM332.5 858q-46.5 0 -73 -22.5t-26.5 -55.5h-69q0 59 45 100.5t124 41.5q53 0 92 -20.5t57.5 -52t18.5 -69.5h-69q0 33 -26.5 55.5t-73 22.5z" />
    <glyph glyph-name="ainvertedbreve" unicode="&#x203;" horiz-adv-x="588" 
d="M240 -9q-53 0 -94 21t-63.5 59.5t-22.5 89.5q0 74 50.5 118.5t143.5 44.5h142v52q0 32 -13.5 53t-37.5 30.5t-58 9.5q-89 0 -105 -62h-101q5 71 59 112.5t150 41.5q45 0 82 -10t67 -31.5t46.5 -58.5t16.5 -86v-375h-101v72h-5q-49 -81 -156 -81zM271 79q53 0 89 30.5
t36 76.5v61h-129q-50 0 -75.5 -22t-25.5 -59q0 -41 30.5 -64t74.5 -23zM139 641q0 61 40 106t115.5 45t115.5 -45.5t40 -105.5h-69q0 36 -22 61t-65 25q-28 0 -48.5 -13t-29 -31.5t-8.5 -41.5h-69z" />
    <glyph glyph-name="Edblgrave" unicode="&#x204;" horiz-adv-x="607" 
d="M475 789h-98l-176 131h111zM281 789h-98l-175 131h111zM535 98v-98h-439v714h439v-98h-332v-206h313v-94h-313v-218h332z" />
    <glyph glyph-name="edblgrave" unicode="&#x205;" horiz-adv-x="590" 
d="M304 -9q-112 0 -176 65.5t-64 182.5v75q0 115 65 181.5t168 66.5t167.5 -67.5t64.5 -180.5v-65h-361v-27q0 -61 36 -100t99 -39q45 0 76 18t38 44h106q-4 -25 -18.5 -51t-40 -49.5t-67.5 -38.5t-93 -15zM168 324h257v8q0 41 -15.5 73t-45 49.5t-67.5 17.5
q-58 0 -93.5 -38.5t-35.5 -101.5v-8zM184 641l-152 190h98l128 -190h-74zM356 641l-151 190h98l128 -190h-75z" />
    <glyph glyph-name="Einvertedbreve" unicode="&#x206;" horiz-adv-x="607" 
d="M535 98v-98h-439v714h439v-98h-332v-206h313v-94h-313v-218h332zM313.5 858q-46.5 0 -73 -22.5t-26.5 -55.5h-69q0 59 44.5 100.5t123.5 41.5q53 0 92.5 -20.5t58 -52t18.5 -69.5h-69q0 33 -26.5 55.5t-73 22.5z" />
    <glyph glyph-name="einvertedbreve" unicode="&#x207;" horiz-adv-x="590" 
d="M304 -9q-112 0 -176 65.5t-64 182.5v75q0 115 65 181.5t168 66.5t167.5 -67.5t64.5 -180.5v-65h-361v-27q0 -61 36 -100t99 -39q45 0 76 18t38 44h106q-4 -25 -18.5 -51t-40 -49.5t-67.5 -38.5t-93 -15zM168 324h257v8q0 41 -15.5 73t-45 49.5t-67.5 17.5
q-58 0 -93.5 -38.5t-35.5 -101.5v-8zM139 641q0 38 16 71.5t52.5 56.5t87.5 23q76 0 116 -45.5t39 -105.5h-68q0 23 -9 41.5t-29 31.5t-49 13t-49 -13t-29 -31.5t-9 -41.5h-69z" />
    <glyph glyph-name="Idblgrave" unicode="&#x208;" horiz-adv-x="300" 
d="M204 0h-108v714h108v-714zM312 789h-98l-175 131h111zM119 789h-99l-175 131h111z" />
    <glyph glyph-name="idblgrave" unicode="&#x209;" horiz-adv-x="310" 
d="M103 0v552h105v-552h-105zM45 641l-152 190h99l127 -190h-74zM218 641l-152 190h99l127 -190h-74z" />
    <glyph glyph-name="Iinvertedbreve" unicode="&#x20a;" horiz-adv-x="300" 
d="M204 0h-108v714h108v-714zM150.5 858q-46.5 0 -73 -22.5t-26.5 -55.5h-69q0 59 45 100.5t124 41.5q53 0 92 -20.5t57.5 -52t18.5 -69.5h-69q0 33 -26.5 55.5t-73 22.5z" />
    <glyph glyph-name="iinvertedbreve" unicode="&#x20b;" horiz-adv-x="310" 
d="M103 0v552h105v-552h-105zM1 641q0 38 15.5 71.5t52 56.5t87.5 23q76 0 116 -45.5t40 -105.5h-69q0 23 -8.5 41.5t-29 31.5t-49.5 13q-42 0 -64 -25t-22 -61h-69z" />
    <glyph glyph-name="Odblgrave" unicode="&#x20c;" horiz-adv-x="720" 
d="M522 789h-98l-176 131h111zM328 789h-98l-175 131h111zM177 404v-100q0 -107 50.5 -163t132.5 -56q83 0 133.5 56t50.5 163v100q0 108 -51 166.5t-133 58.5t-132.5 -58.5t-50.5 -166.5zM68 305v98q0 152 79 238.5t214 86.5t213.5 -86.5t78.5 -238.5v-98q0 -150 -79 -235
t-215 -85q-135 0 -213 84.5t-78 235.5z" />
    <glyph glyph-name="odblgrave" unicode="&#x20d;" horiz-adv-x="611" 
d="M306 562q107 0 174.5 -67t67.5 -182v-72q0 -118 -67 -184t-175 -66q-109 0 -175.5 66t-66.5 184v72q0 112 67.5 180.5t174.5 68.5zM306 470q-63 0 -100 -45.5t-37 -116.5v-63q0 -72 36 -117t101 -45q64 0 99.5 45t35.5 117v63q0 71 -36 116.5t-99 45.5zM194 641l-152 190
h99l127 -190h-74zM367 641l-152 190h99l127 -190h-74z" />
    <glyph glyph-name="Oinvertedbreve" unicode="&#x20e;" horiz-adv-x="720" 
d="M360.5 858q-46.5 0 -73 -22.5t-26.5 -55.5h-69q0 59 45 100.5t123 41.5q53 0 92.5 -20.5t58 -52t18.5 -69.5h-69q0 33 -26.5 55.5t-73 22.5zM177 404v-100q0 -107 50.5 -163t132.5 -56q83 0 133.5 56t50.5 163v100q0 108 -51 166.5t-133 58.5t-132.5 -58.5t-50.5 -166.5z
M68 305v98q0 152 79 238.5t214 86.5t213.5 -86.5t78.5 -238.5v-98q0 -150 -79 -235t-215 -85q-135 0 -213 84.5t-78 235.5z" />
    <glyph glyph-name="oinvertedbreve" unicode="&#x20f;" horiz-adv-x="611" 
d="M306 562q107 0 174.5 -67t67.5 -182v-72q0 -118 -67 -184t-175 -66q-109 0 -175.5 66t-66.5 184v72q0 112 67.5 180.5t174.5 68.5zM306 470q-63 0 -100 -45.5t-37 -116.5v-63q0 -72 36 -117t101 -45q64 0 99.5 45t35.5 117v63q0 71 -36 116.5t-99 45.5zM150 641
q0 61 40 106t115.5 45t115.5 -45.5t40 -105.5h-69q0 36 -22 61t-64.5 25t-64.5 -25t-22 -61h-69z" />
    <glyph glyph-name="Rdblgrave" unicode="&#x210;" horiz-adv-x="670" 
d="M480 789h-99l-175 131h111zM286 789h-98l-175 131h110zM364 714q115 0 175 -62t60 -157q0 -81 -39 -130.5t-92 -69.5l145 -295h-122l-130 275h-158v-275h-107v714h268zM203 368h142q70 0 107 31.5t37 91.5q0 41 -18 70t-49 43.5t-73 14.5h-146v-251z" />
    <glyph glyph-name="rdblgrave" unicode="&#x211;" horiz-adv-x="425" 
d="M98 0v552h105v-85h6q13 36 48.5 65t99.5 29q15 0 36 -3v-101q-13 4 -47 4q-68 0 -104.5 -36t-36.5 -94v-331h-107zM123 641l-152 190h99l127 -190h-74zM296 641l-152 190h99l127 -190h-74z" />
    <glyph glyph-name="Rinvertedbreve" unicode="&#x212;" horiz-adv-x="670" 
d="M364 714q115 0 175 -62t60 -157q0 -81 -39 -130.5t-92 -69.5l145 -295h-122l-130 275h-158v-275h-107v714h268zM203 368h142q70 0 107 31.5t37 91.5q0 41 -18 70t-49 43.5t-73 14.5h-146v-251zM318 858q-46 0 -72.5 -22.5t-26.5 -55.5h-69q0 59 44.5 100.5t123.5 41.5
q53 0 92 -20.5t57.5 -52t18.5 -69.5h-69q0 33 -26.5 55.5t-72.5 22.5z" />
    <glyph glyph-name="rinvertedbreve" unicode="&#x213;" horiz-adv-x="425" 
d="M98 0v552h105v-85h6q13 36 48.5 65t99.5 29q15 0 36 -3v-101q-13 4 -47 4q-68 0 -104.5 -36t-36.5 -94v-331h-107zM78 641q1 38 16.5 71.5t52 56.5t87.5 23q76 0 116 -45.5t40 -105.5h-69q0 23 -8.5 41.5t-29 31.5t-49.5 13q-42 0 -64 -25t-22 -61h-70z" />
    <glyph glyph-name="Udblgrave" unicode="&#x214;" horiz-adv-x="729" 
d="M526 789h-98l-175 131h111zM333 789h-99l-175 131h111zM196 714v-459q0 -39 12 -70.5t33.5 -53t53 -33.5t70.5 -12q77 0 123 45.5t46 123.5v459h107v-466q0 -118 -76 -190.5t-200.5 -72.5t-200.5 73t-76 192v464h108z" />
    <glyph glyph-name="udblgrave" unicode="&#x215;" horiz-adv-x="637" 
d="M547 552v-552h-104v92h-6q-8 -25 -27 -46.5t-55 -38t-81 -16.5q-87 0 -137.5 44.5t-50.5 137.5v379h106v-350q0 -115 115 -115q57 0 95.5 35.5t38.5 87.5v342h106zM207 641l-152 190h99l127 -190h-74zM380 641l-152 190h99l128 -190h-75z" />
    <glyph glyph-name="Uinvertedbreve" unicode="&#x216;" horiz-adv-x="729" 
d="M196 714v-459q0 -39 12 -70.5t33.5 -53t53 -33.5t70.5 -12q77 0 123 45.5t46 123.5v459h107v-466q0 -118 -76 -190.5t-200.5 -72.5t-200.5 73t-76 192v464h108zM364.5 858q-46.5 0 -73 -22.5t-26.5 -55.5h-69q0 59 45 100.5t124 41.5q23 0 43.5 -4t37.5 -11.5t31 -17.5
t24.5 -22.5t17.5 -26.5t10.5 -29t3.5 -31h-69q0 33 -26.5 55.5t-73 22.5z" />
    <glyph glyph-name="uinvertedbreve" unicode="&#x217;" horiz-adv-x="637" 
d="M547 552v-552h-104v92h-6q-8 -25 -27 -46.5t-55 -38t-81 -16.5q-87 0 -137.5 44.5t-50.5 137.5v379h106v-350q0 -115 115 -115q57 0 95.5 35.5t38.5 87.5v342h106zM163 641q0 61 40 106t115.5 45t115.5 -45.5t40 -105.5h-69q0 36 -22 61t-64 25q-29 0 -49.5 -13
t-29 -31.5t-8.5 -41.5h-69z" />
    <glyph glyph-name="Scommaaccent" unicode="&#x218;" horiz-adv-x="640" 
d="M46 198h106q3 -33 22 -58.5t56.5 -41.5t88.5 -16q71 0 112 30.5t41 81.5q0 41 -27.5 65t-86.5 39l-121 29q-35 9 -64.5 23.5t-54.5 37t-39 56t-14 75.5q0 66 36 114.5t93 72.5t125 24t124 -23.5t92 -71.5t37 -113h-104q-5 49 -43.5 80.5t-106.5 31.5q-43 0 -75 -12.5
t-50.5 -36.5t-18.5 -57q0 -73 100 -96l119 -30q43 -10 75.5 -25t58.5 -38t40 -56.5t14 -77.5q0 -103 -75.5 -161.5t-196.5 -58.5q-70 0 -122.5 19.5t-82 51.5t-43.5 67.5t-15 74.5zM304 -247h-75l43 165h88z" />
    <glyph glyph-name="scommaaccent" unicode="&#x219;" horiz-adv-x="549" 
d="M65 392q0 57 30.5 96.5t76.5 56.5t103 17q91 0 146 -43t55 -115h-96q-2 19 -14 35.5t-36.5 28t-57.5 11.5q-47 0 -76 -20.5t-29 -56.5q0 -16 8 -29t18 -20.5t29.5 -13.5t32 -8.5t36.5 -6.5q3 -1 5 -1t4.5 -0.5t4.5 -1.5q43 -7 73.5 -17t57.5 -27.5t41 -45t14 -65.5
q0 -82 -61 -128.5t-164 -46.5q-96 0 -153.5 42t-57.5 115h103q11 -74 113 -74q59 0 88 22t29 57q0 16 -7.5 28.5t-17 20t-29.5 14t-33.5 9.5l-41.5 9q-6 1 -9 1q-35 7 -59 14t-49.5 19t-41 28t-25.5 40.5t-10 55.5zM270 -247h-75l43 165h88z" />
    <glyph glyph-name="Tcommaaccent" unicode="&#x21a;" horiz-adv-x="579" 
d="M285 -247h-75l43 165h88zM343 0h-108v615h-211v99h532v-99h-213v-615z" />
    <glyph glyph-name="tcommaaccent" unicode="&#x21b;" horiz-adv-x="411" 
d="M226 -247h-74l43 165h87zM124 549v138h104v-138h124v-90h-124v-295q0 -45 18.5 -61.5t67.5 -16.5q27 0 45 2v-87q-21 -5 -71 -5q-96 0 -130.5 36.5t-34.5 122.5v304h-84v90h85z" />
    <glyph glyph-name="Hcaron" unicode="&#x21e;" horiz-adv-x="748" 
d="M652 0h-108v318h-340v-318h-108v714h108v-297h340v297h108v-714zM195 898h99l79 -63h5l72 63h102l-124 -112h-102z" />
    <glyph glyph-name="hcaron" unicode="&#x21f;" horiz-adv-x="643" 
d="M92 0v752h105v-298h6q5 16 16 33t30 34.5t51 28.5t72 11q83 0 134 -48.5t51 -139.5v-373h-106v341q0 61 -31.5 93t-85.5 32q-43 0 -74.5 -21t-47 -56t-15.5 -81v-308h-105zM-22 1015h86l78 -128h3l74 128h87l-125 -193h-72z" />
    <glyph glyph-name="Adotaccent" unicode="&#x226;" horiz-adv-x="665" 
d="M134 0h-108l249 714h116l249 -714h-115l-67 199h-257zM332 592h-4l-100 -304h205zM276 838q0 26 16 43t41 17t41.5 -17t16.5 -43t-16.5 -42.5t-41.5 -16.5q-17 0 -30 7.5t-20 21t-7 30.5z" />
    <glyph glyph-name="adotaccent" unicode="&#x227;" horiz-adv-x="588" 
d="M240 -9q-53 0 -94 21t-63.5 59.5t-22.5 89.5q0 74 50.5 118.5t143.5 44.5h142v52q0 32 -13.5 53t-37.5 30.5t-58 9.5q-89 0 -105 -62h-101q5 71 59 112.5t150 41.5q45 0 82 -10t67 -31.5t46.5 -58.5t16.5 -86v-375h-101v72h-5q-49 -81 -156 -81zM271 79q53 0 89 30.5
t36 76.5v61h-129q-50 0 -75.5 -22t-25.5 -59q0 -41 30.5 -64t74.5 -23zM238 676q0 26 16 43t40 17q26 0 42.5 -17t16.5 -43q0 -17 -7.5 -30.5t-21 -20.5t-30.5 -7q-25 0 -40.5 16t-15.5 42z" />
    <glyph glyph-name="Ecedilla" unicode="&#x228;" horiz-adv-x="607" 
d="M276 0h-180v714h439v-98h-332v-206h313v-94h-313v-218h332v-98h-191l-25 -67q49 0 78.5 -22.5t29.5 -63.5q0 -49 -33 -74t-87 -27q-44 -1 -78 9v59q24 -8 60 -8q60 0 60 38q0 21 -18.5 27t-55.5 6h-28v47z" />
    <glyph glyph-name="ecedilla" unicode="&#x229;" horiz-adv-x="590" 
d="M168 324h257v8q0 41 -15.5 73t-45 49.5t-67.5 17.5q-58 0 -93.5 -38.5t-35.5 -101.5v-8zM301 -254q-45 -1 -78 9v59q25 -8 60 -8q60 0 60 38q0 21 -18.5 27t-56.5 6h-27v47l26 69q-96 10 -149.5 74.5t-53.5 171.5v75q0 115 65 181.5t168 66.5t167.5 -67.5t64.5 -180.5
v-65h-361v-27q0 -61 36 -100t99 -39q45 0 76 18t38 44h106q-7 -51 -55.5 -97.5t-131.5 -54.5l-23 -60q50 0 79 -22.5t29 -63.5q0 -49 -33 -74t-87 -27z" />
    <glyph glyph-name="Odieresismacron" unicode="&#x22a;" horiz-adv-x="720" 
d="M207 826q0 25 16 41t41 16q17 0 30.5 -7t21 -20t7.5 -30q0 -24 -16.5 -40t-42.5 -16q-12 0 -22.5 4.5t-18.5 12t-12 17.5t-4 22zM396 826q0 25 16.5 41t41.5 16q26 0 42.5 -16t16.5 -41q0 -16 -7.5 -28.5t-21 -20t-30.5 -7.5q-25 0 -41.5 16t-16.5 40zM177 404v-100
q0 -107 50.5 -163t132.5 -56q83 0 133.5 56t50.5 163v100q0 108 -51 166.5t-133 58.5t-132.5 -58.5t-50.5 -166.5zM68 305v98q0 152 79 238.5t214 86.5t213.5 -86.5t78.5 -238.5v-98q0 -150 -79 -235t-215 -85q-135 0 -213 84.5t-78 235.5zM515 930h-309v65h309v-65z" />
    <glyph glyph-name="odieresismacron" unicode="&#x22b;" horiz-adv-x="611" 
d="M149 685q0 25 17 42t43 17t43 -17t17 -42t-17 -42t-43 -17t-43 17t-17 42zM345 685q0 25 17 42t42 17q27 0 44.5 -16.5t17.5 -42.5q0 -25 -17.5 -42t-44.5 -17q-16 0 -29.5 7.5t-21.5 21t-8 30.5zM306 562q107 0 174.5 -67t67.5 -182v-72q0 -118 -67 -184t-175 -66
q-109 0 -175.5 66t-66.5 184v72q0 112 67.5 180.5t174.5 68.5zM306 470q-63 0 -100 -45.5t-37 -116.5v-63q0 -72 36 -117t101 -45q64 0 99.5 45t35.5 117v63q0 71 -36 116.5t-99 45.5zM459 807h-304v66h304v-66z" />
    <glyph glyph-name="Otildemacron" unicode="&#x22c;" horiz-adv-x="720" 
d="M177 404v-100q0 -107 50.5 -163t132.5 -56q83 0 133.5 56t50.5 163v100q0 108 -51 166.5t-133 58.5t-132.5 -58.5t-50.5 -166.5zM68 305v98q0 152 79 238.5t214 86.5t213.5 -86.5t78.5 -238.5v-98q0 -150 -79 -235t-215 -85q-135 0 -213 84.5t-78 235.5zM346 796
q-1 0 -5 5t-5.5 6t-5.5 4.5t-7 5t-6.5 3.5t-7.5 3t-8 1q-32 0 -36 -51h-66q0 46 25 80t72 34q42 0 82 -37l8 -8l8.5 -8.5t7.5 -6t10 -5t10 -1.5q12 0 20.5 10t12.5 22t5 25h65q0 -45 -27 -80.5t-70 -35.5q-29 0 -47 8.5t-35 25.5zM515 930h-309v65h309v-65z" />
    <glyph glyph-name="otildemacron" unicode="&#x22d;" horiz-adv-x="611" 
d="M292 648q-5 7 -8.5 11t-9 9.5t-12.5 8t-15 2.5q-33 0 -37 -62h-66q0 58 26.5 97.5t72.5 39.5q13 0 23.5 -2t20.5 -7t19 -13t17 -20q2 -2 7 -10t7.5 -10.5l7.5 -7.5t10.5 -6.5t12.5 -1.5q17 0 26 21t11 48h66q0 -54 -28.5 -96t-70.5 -42q-52 0 -80 41zM459 807h-304v66
h304v-66zM306 562q107 0 174.5 -67t67.5 -182v-72q0 -118 -67 -184t-175 -66q-109 0 -175.5 66t-66.5 184v72q0 112 67.5 180.5t174.5 68.5zM306 470q-63 0 -100 -45.5t-37 -116.5v-63q0 -72 36 -117t101 -45q64 0 99.5 45t35.5 117v63q0 71 -36 116.5t-99 45.5z" />
    <glyph glyph-name="Odotaccent" unicode="&#x22e;" horiz-adv-x="720" 
d="M304 838q0 17 7 30.5t20 21.5t29 8q26 0 42.5 -17t16.5 -43t-16.5 -42.5t-42.5 -16.5q-16 0 -29 7.5t-20 21t-7 30.5zM177 404v-100q0 -107 50.5 -163t132.5 -56q83 0 133.5 56t50.5 163v100q0 108 -51 166.5t-133 58.5t-132.5 -58.5t-50.5 -166.5zM68 305v98
q0 152 79 238.5t214 86.5t213.5 -86.5t78.5 -238.5v-98q0 -150 -79 -235t-215 -85q-135 0 -213 84.5t-78 235.5z" />
    <glyph glyph-name="odotaccent" unicode="&#x22f;" horiz-adv-x="611" 
d="M249 676q0 26 16 43t40 17q26 0 42.5 -17t16.5 -43t-16.5 -42t-42.5 -16q-25 0 -40.5 16t-15.5 42zM306 562q107 0 174.5 -67t67.5 -182v-72q0 -118 -67 -184t-175 -66q-109 0 -175.5 66t-66.5 184v72q0 112 67.5 180.5t174.5 68.5zM306 470q-63 0 -100 -45.5t-37 -116.5
v-63q0 -72 36 -117t101 -45q64 0 99.5 45t35.5 117v63q0 71 -36 116.5t-99 45.5z" />
    <glyph glyph-name="Odotaccentmacron" unicode="&#x230;" horiz-adv-x="720" 
d="M304 838q0 17 7 30.5t20 21.5t29 8q26 0 42.5 -17t16.5 -43t-16.5 -42.5t-42.5 -16.5q-16 0 -29 7.5t-20 21t-7 30.5zM177 404v-100q0 -107 50.5 -163t132.5 -56q83 0 133.5 56t50.5 163v100q0 108 -51 166.5t-133 58.5t-132.5 -58.5t-50.5 -166.5zM68 305v98
q0 152 79 238.5t214 86.5t213.5 -86.5t78.5 -238.5v-98q0 -150 -79 -235t-215 -85q-135 0 -213 84.5t-78 235.5zM515 930h-309v65h309v-65z" />
    <glyph glyph-name="odotaccentmacron" unicode="&#x231;" horiz-adv-x="611" 
d="M249 676q0 26 16 43t40 17q26 0 42.5 -17t16.5 -43t-16.5 -42t-42.5 -16q-25 0 -40.5 16t-15.5 42zM459 807h-304v66h304v-66zM306 562q107 0 174.5 -67t67.5 -182v-72q0 -118 -67 -184t-175 -66q-109 0 -175.5 66t-66.5 184v72q0 112 67.5 180.5t174.5 68.5zM306 470
q-63 0 -100 -45.5t-37 -116.5v-63q0 -72 36 -117t101 -45q64 0 99.5 45t35.5 117v63q0 71 -36 116.5t-99 45.5z" />
    <glyph glyph-name="Ymacron" unicode="&#x232;" horiz-adv-x="607" 
d="M357 0h-107v290l-238 424h121l168 -310h6l170 310h119l-239 -423v-291zM458 787h-308v65h308v-65z" />
    <glyph glyph-name="ymacron" unicode="&#x233;" horiz-adv-x="578" 
d="M541 552l-191 -546l-14 -38q-14 -39 -28 -65t-36.5 -51.5t-56 -38t-78.5 -12.5q-34 0 -63 5v86q14 -3 43 -3q47 0 70.5 20t34.5 62l8 24l-200 557h117l139 -448h4l139 448h112zM443 644h-304v66h304v-66z" />
    <glyph glyph-name="circumflex" unicode="&#x2c6;" horiz-adv-x="523" 
d="M104 634l131 192h72l126 -192h-88l-74 124h-2l-79 -124h-86z" />
    <glyph glyph-name="caron" unicode="&#x2c7;" horiz-adv-x="523" 
d="M93 830h87l78 -128h3l74 128h87l-125 -192h-73z" />
    <glyph glyph-name="breve" unicode="&#x2d8;" horiz-adv-x="523" 
d="M107 788h69q0 -23 9 -42t29 -31.5t49 -12.5q43 0 65 25t22 61h68q0 -39 -15.5 -72t-52 -56t-87.5 -23q-75 0 -115.5 45t-40.5 106z" />
    <glyph glyph-name="dotaccent" unicode="&#x2d9;" horiz-adv-x="523" 
d="M197 732q0 29 18.5 47.5t44.5 18.5q28 0 46.5 -18.5t18.5 -47.5q0 -19 -8.5 -33.5t-23.5 -23t-33 -8.5q-26 0 -44.5 18.5t-18.5 46.5z" />
    <glyph glyph-name="ring" unicode="&#x2da;" horiz-adv-x="523" 
d="M255 640q-44 0 -74 29.5t-30 73.5t30 73t74 29q28 0 52 -13t37.5 -36.5t13.5 -52.5t-13.5 -52.5t-37.5 -37t-52 -13.5zM203 743q0 -22 15 -37t37 -15t37 15t15 37t-15 37t-37 15t-37 -15t-15 -37z" />
    <glyph glyph-name="ogonek" unicode="&#x2db;" horiz-adv-x="523" 
d="M355 -121v-70q-23 -11 -70 -11q-49 0 -80.5 25.5t-31.5 72.5q0 31 14.5 59t45 61.5t31.5 35.5h67q-22 -23 -34 -37t-27 -42t-15 -49q0 -25 16 -37.5t40 -12.5q21 0 44 5z" />
    <glyph glyph-name="tilde" unicode="&#x2dc;" horiz-adv-x="523" 
d="M242 682q-7 10 -11 15t-13.5 10.5t-20.5 5.5q-33 0 -36 -62h-67q0 58 27 97.5t73 39.5q17 0 30.5 -4t25.5 -13t24 -25q1 -2 6.5 -10t8 -10.5t7 -7.5t10 -6.5t12.5 -1.5q17 0 26.5 21t10.5 48h67q0 -54 -29 -96t-70 -42q-53 0 -81 41z" />
    <glyph glyph-name="hungarumlaut" unicode="&#x2dd;" horiz-adv-x="523" 
d="M145 642h-74l127 190h99zM320 642h-75l128 190h99z" />
    <glyph glyph-name="gravecmb" unicode="&#x300;" horiz-adv-x="0" 
d="M53 642h-79l-146 186h100z" />
    <glyph glyph-name="acutecmb" unicode="&#x301;" horiz-adv-x="0" 
d="M-27 642l125 186h100l-146 -186h-79z" />
    <glyph glyph-name="circumflexcmb" unicode="&#x302;" horiz-adv-x="0" 
d="M-168 641l131 192h73l125 -192h-87l-74 124h-3l-78 -124h-87z" />
    <glyph glyph-name="tildecmb" unicode="&#x303;" horiz-adv-x="0" 
d="M-14 648q-7 10 -11 15t-13.5 10.5t-20.5 5.5q-33 0 -36 -62h-67q0 58 27 97.5t73 39.5q26 0 44.5 -9.5t35.5 -32.5q1 -2 6.5 -10t8 -10.5l7.5 -7.5t10 -6.5t12 -1.5q12 0 20.5 11.5t12.5 26t4 31.5h67q0 -54 -29 -96t-70 -42q-53 0 -81 41z" />
    <glyph glyph-name="macroncmb" unicode="&#x304;" horiz-adv-x="0" 
d="M153 644h-304v66h304v-66z" />
    <glyph glyph-name="brevecmb" unicode="&#x306;" horiz-adv-x="0" 
d="M-140 775h69q0 -36 22 -61t65 -25t65 25t22 61h68q0 -60 -40 -105.5t-115.5 -45.5t-115.5 45.5t-40 105.5z" />
    <glyph glyph-name="dotaccentcmb" unicode="&#x307;" horiz-adv-x="0" 
d="M-56 676q0 26 15.5 43t40.5 17t42 -17t17 -43q0 -17 -8 -30.5t-21 -20.5t-30 -7q-25 0 -40.5 16t-15.5 42z" />
    <glyph glyph-name="dieresiscmb" unicode="&#x308;" horiz-adv-x="0" 
d="M-157 685q0 25 17 42t43 17t43.5 -17t17.5 -42q0 -17 -8 -30.5t-22 -21t-31 -7.5t-30.5 7.5t-21.5 21t-8 30.5zM40 685q0 12 4.5 23.5t12.5 19t18.5 12t22.5 4.5q27 0 45 -16.5t18 -42.5q0 -25 -18 -42t-45 -17q-24 0 -41 17t-17 42z" />
    <glyph glyph-name="hookabovecmb" unicode="&#x309;" horiz-adv-x="0" 
d="M-74 756v59q23 9 57 9q52 0 83.5 -25.5t31.5 -70.5q0 -39 -22 -63.5t-62 -45.5l-36 47q19 10 30 19t16 18t5 20q0 18 -15 29.5t-39 11.5q-26 0 -49 -8z" />
    <glyph glyph-name="ringcmb" unicode="&#x30a;" horiz-adv-x="0" 
d="M0 622q-43 0 -73.5 29.5t-30.5 73.5t30 73.5t74 29.5t74 -29t30 -73.5t-30 -74t-74 -29.5zM-52 725q0 -22 15 -37t37 -15q14 0 26 7t19 19t7 26q0 22 -15 37t-37 15t-37 -15t-15 -37z" />
    <glyph glyph-name="hungarumlautcmb" unicode="&#x30b;" horiz-adv-x="0" 
d="M-62 642h-75l128 189h98zM112 642h-74l128 189h98z" />
    <glyph glyph-name="caroncmb" unicode="&#x30c;" horiz-adv-x="0" 
d="M-166 815h87l78 -128h3l74 128h87l-125 -192h-73z" />
    <glyph glyph-name="dblgravecmb" unicode="&#x30f;" horiz-adv-x="0" 
d="M-111 641l-152 190h98l128 -190h-74zM61 641l-151 190h98l128 -190h-75z" />
    <glyph glyph-name="invertedbrevecmb" unicode="&#x311;" horiz-adv-x="0" 
d="M-156 641q1 61 40.5 106t115.5 45t116 -45.5t39 -105.5h-68q0 36 -22 61t-65 25q-29 0 -49 -13t-29 -31.5t-9 -41.5h-69z" />
    <glyph glyph-name="horncmb" unicode="&#x31b;" horiz-adv-x="0" 
d="M0 486v91q19 -17 48 -16q35 0 49 19.5t14 54.5v82h90v-89q0 -68 -32 -113t-98 -45q-48 0 -71 16z" />
    <glyph glyph-name="dotbelowcmb" unicode="&#x323;" horiz-adv-x="0" 
d="M-60 -130q0 27 17 44t43 17t43.5 -17t17.5 -44t-17 -43.5t-43.5 -16.5t-43.5 16.5t-17 43.5z" />
    <glyph glyph-name="dieresisbelowcmb" unicode="&#x324;" horiz-adv-x="0" 
d="M-158 -142q0 26 17 42.5t43 16.5t43.5 -17t17.5 -42t-17.5 -42t-43.5 -17q-25 0 -42.5 17t-17.5 42zM39 -142q0 25 17 42t41 17q27 0 45 -16.5t18 -42.5q0 -10 -3 -19t-9 -16.5t-13.5 -12.5t-17 -8t-20.5 -3q-24 0 -41 17t-17 42z" />
    <glyph glyph-name="ringbelowcmb" unicode="&#x325;" horiz-adv-x="0" 
d="M-1 -253q-44 0 -74 29.5t-30 73.5t30 73t74 29t74 -29t30 -73t-30 -73.5t-74 -29.5zM-53 -150q0 -22 15 -37t37 -15q14 0 26 7t19 19t7 26q0 22 -15 37t-37 15t-37 -15t-15 -37z" />
    <glyph glyph-name="commabelowcmb" unicode="&#x326;" horiz-adv-x="0" 
d="M-5 -247h-75l43 165h88z" />
    <glyph glyph-name="cedillacmb" unicode="&#x327;" horiz-adv-x="0" 
d="M-45 -123v47l31 80h68l-27 -71q50 0 79 -22.5t29 -63.5q0 -49 -33 -74t-87 -27q-45 -1 -78 9v59q25 -8 60 -8q61 0 61 38q0 21 -19 27t-56 6h-28z" />
    <glyph glyph-name="ogonekcmb" unicode="&#x328;" horiz-adv-x="0" 
d="M104 -121v-70q-23 -11 -71 -11t-79.5 25.5t-31.5 72.5q0 24 11 49.5t24 41.5t32 37t24 28h67q-22 -23 -34 -37t-27 -42t-15 -49q0 -25 16 -37.5t40 -12.5q21 0 44 5z" />
    <glyph glyph-name="circumflexbelowcmb" unicode="&#x32d;" horiz-adv-x="0" 
d="M-179 -195l144 132h72l139 -132h-98l-76 73h-4l-82 -73h-95z" />
    <glyph glyph-name="brevebelowcmb" unicode="&#x32e;" horiz-adv-x="0" 
d="M-164 -71q0 -62 42 -106.5t122 -44.5q79 0 119.5 45t40.5 106h-69q0 -35 -23.5 -60t-67.5 -25q-30 0 -51 12.5t-30.5 31.5t-9.5 41h-73z" />
    <glyph glyph-name="tildebelowcmb" unicode="&#x330;" horiz-adv-x="0" 
d="M-14 -165l-4.5 4.5t-5 5.5t-5 5t-5.5 4.5t-5.5 3.5t-6.5 3t-6.5 1.5t-6.5 0.5q-33 0 -36 -51h-66q0 47 24.5 80.5t72.5 33.5q41 0 81 -36l9 -9t8.5 -8l7.5 -6t9.5 -5t10.5 -1q17 0 26 17.5t11 39.5h66q0 -46 -27 -81t-71 -35q-28 0 -46 8.5t-35 24.5z" />
    <glyph glyph-name="macronbelowcmb" unicode="&#x331;" horiz-adv-x="0" 
d="M156 -167h-304v66h304v-66z" />
    <glyph glyph-name="Delta" unicode="&#x394;" horiz-adv-x="665" 
d="M26 0l249 714h116l249 -714h-614zM328 592l-164 -489h331l-163 489h-4z" />
    <glyph glyph-name="Omega" unicode="&#x3a9;" horiz-adv-x="723" 
d="M414 0v116q56 17 94 79.5t38 149.5v79q0 105 -50 155t-135 50q-83 0 -133 -50t-50 -155v-79q0 -56 17 -104.5t45.5 -79.5t63.5 -43v-117h-245v97h124v10q-50 23 -81.5 89t-31.5 149v79q0 149 77.5 226t214.5 77q138 0 215 -77t77 -226v-79q0 -54 -15.5 -104t-42.5 -84.5
t-59 -49.5v-11h129v-97h-252z" />
    <glyph glyph-name="mu" unicode="&#x3bc;" horiz-adv-x="646" 
d="M182 28h-6l9 -204h-99v728h106v-350q0 -62 31.5 -88.5t83.5 -26.5q57 0 95.5 35.5t38.5 87.5v342h106v-419q0 -51 49 -51q19 0 29 2v-85q-30 -7 -68 -7q-44 0 -74.5 23.5t-32.5 66.5l-1 11h-5q-12 -40 -53 -70.5t-105 -30.5q-32 0 -61.5 9.5t-42.5 26.5z" />
    <glyph glyph-name="pi" unicode="&#x3c0;" horiz-adv-x="704" 
d="M634 0q-31 -7 -65 -7q-54 0 -86.5 30t-32.5 80v359h-188v-462h-106v462h-117v90h627v-90h-109v-330q0 -15 5 -25.5t15.5 -16t25.5 -5.5q18 0 31 3v-88z" />
    <glyph glyph-name="Aringbelow" unicode="&#x1e00;" horiz-adv-x="665" 
d="M134 0h-108l249 714h116l249 -714h-115l-67 199h-257zM332 592h-4l-100 -304h205zM328 -242q-43 0 -73 29.5t-30 73.5t30 73t73 29q44 0 74 -29t30 -73q0 -29 -13.5 -52.5t-37.5 -37t-53 -13.5zM277 -139q0 -22 15 -37t36.5 -15t36.5 15t15 37t-15 37t-36.5 15t-36.5 -15
t-15 -37z" />
    <glyph glyph-name="aringbelow" unicode="&#x1e01;" horiz-adv-x="588" 
d="M240 -9q-53 0 -94 21t-63.5 59.5t-22.5 89.5q0 74 50.5 118.5t143.5 44.5h142v52q0 32 -13.5 53t-37.5 30.5t-58 9.5q-89 0 -105 -62h-101q5 71 59 112.5t150 41.5q45 0 82 -10t67 -31.5t46.5 -58.5t16.5 -86v-375h-101v72h-5q-49 -81 -156 -81zM271 79q53 0 89 30.5
t36 76.5v61h-129q-50 0 -75.5 -22t-25.5 -59q0 -41 30.5 -64t74.5 -23zM293 -253q-43 0 -73 29.5t-30 73.5q0 22 8 41t22 32.5t33 21t40 7.5q44 0 74 -29t30 -73t-30 -73.5t-74 -29.5zM242 -150q0 -22 15 -37t36.5 -15t36.5 15t15 37t-15 37t-37 15q-8 0 -16 -2.5
t-14.5 -7.5t-11 -11.5t-7 -14t-2.5 -16.5z" />
    <glyph glyph-name="Bdotaccent" unicode="&#x1e02;" horiz-adv-x="673" 
d="M96 0v714h278q92 0 147 -47t55 -129q0 -63 -31.5 -102.5t-84.5 -54.5v-5q72 -8 114 -54.5t42 -120.5q0 -96 -69 -148.5t-180 -52.5h-271zM203 621v-209h105q81 0 121 26t40 80q0 51 -32 77t-83 26h-151zM203 323v-230h118q89 0 137 24.5t48 87.5q0 57 -38.5 87.5
t-104.5 30.5h-160zM261 838q0 26 16 43t41 17t41.5 -17t16.5 -43q0 -17 -7.5 -30.5t-21 -21t-30 -7.5t-29.5 7.5t-20 21t-7 30.5z" />
    <glyph glyph-name="bdotaccent" unicode="&#x1e03;" horiz-adv-x="637" 
d="M86 876q0 26 16 42.5t41 16.5t41.5 -17t16.5 -42.5t-16.5 -42t-41.5 -16.5q-17 0 -29.5 7.5t-20 20.5t-7.5 31zM361 -8q-63 0 -104.5 26t-57.5 65h-5v-83h-103v752h106v-287h5q8 25 27.5 46t54.5 35t80 14q96 0 152.5 -63.5t56.5 -176.5v-87q0 -113 -57.5 -177
t-154.5 -64zM335 86q60 0 95.5 41t35.5 121v54q0 40 -9 71t-26.5 52t-42 31.5t-55.5 10.5q-63 0 -99.5 -41.5t-36.5 -112.5v-82q0 -64 38.5 -104.5t99.5 -40.5z" />
    <glyph glyph-name="Bdotbelow" unicode="&#x1e04;" horiz-adv-x="673" 
d="M257 -130q0 27 17 44t43.5 17t43.5 -17t17 -44t-17 -43.5t-43.5 -16.5t-43.5 16.5t-17 43.5zM96 0v714h278q92 0 147 -47t55 -129q0 -63 -31.5 -102.5t-84.5 -54.5v-5q72 -8 114 -54.5t42 -120.5q0 -96 -69 -148.5t-180 -52.5h-271zM203 621v-209h105q81 0 121 26t40 80
q0 51 -32 77t-83 26h-151zM203 323v-230h118q89 0 137 24.5t48 87.5q0 57 -38.5 87.5t-104.5 30.5h-160z" />
    <glyph glyph-name="bdotbelow" unicode="&#x1e05;" horiz-adv-x="637" 
d="M259 -130q0 27 17 44t43 17t43.5 -17t17.5 -44t-17 -43.5t-43.5 -16.5t-43.5 16.5t-17 43.5zM361 -8q-63 0 -104.5 26t-57.5 65h-5v-83h-103v752h106v-287h5q8 25 27.5 46t54.5 35t80 14q96 0 152.5 -63.5t56.5 -176.5v-87q0 -113 -57.5 -177t-154.5 -64zM335 86
q60 0 95.5 41t35.5 121v54q0 40 -9 71t-26.5 52t-42 31.5t-55.5 10.5q-63 0 -99.5 -41.5t-36.5 -112.5v-82q0 -64 38.5 -104.5t99.5 -40.5z" />
    <glyph glyph-name="Blinebelow" unicode="&#x1e06;" horiz-adv-x="673" 
d="M96 0v714h278q92 0 147 -47t55 -129q0 -63 -31.5 -102.5t-84.5 -54.5v-5q72 -8 114 -54.5t42 -120.5q0 -96 -69 -148.5t-180 -52.5h-271zM203 621v-209h105q81 0 121 26t40 80q0 51 -32 77t-83 26h-151zM203 323v-230h118q89 0 137 24.5t48 87.5q0 57 -38.5 87.5
t-104.5 30.5h-160zM473 -167h-304v66h304v-66z" />
    <glyph glyph-name="blinebelow" unicode="&#x1e07;" horiz-adv-x="637" 
d="M475 -167h-304v66h304v-66zM361 -8q-63 0 -104.5 26t-57.5 65h-5v-83h-103v752h106v-287h5q8 25 27.5 46t54.5 35t80 14q96 0 152.5 -63.5t56.5 -176.5v-87q0 -113 -57.5 -177t-154.5 -64zM335 86q60 0 95.5 41t35.5 121v54q0 40 -9 71t-26.5 52t-42 31.5t-55.5 10.5
q-63 0 -99.5 -41.5t-36.5 -112.5v-82q0 -64 38.5 -104.5t99.5 -40.5z" />
    <glyph glyph-name="Ccedillaacute" unicode="&#x1e08;" horiz-adv-x="686" 
d="M277 789l136 111h119l-146 -111h-109zM348 -254q-44 -1 -78 9v59q25 -8 60 -8q61 0 61 38q0 21 -19 27t-56 6h-28v47l25 64q-116 12 -180.5 94.5t-64.5 224.5v97q0 152 77 238t209 86q64 0 116 -20.5t85 -55t50.5 -78.5t17.5 -91v-8h-105q0 62 -44 107.5t-119 45.5
q-54 0 -93.5 -25t-62.5 -76t-23 -124v-95q0 -111 48 -166.5t133 -55.5q76 0 118.5 41t42.5 102h105v-8q0 -27 -6.5 -53t-19.5 -51.5t-33.5 -47.5t-46.5 -39.5t-61 -28.5t-75 -14l-21 -54q50 0 79 -22.5t29 -63.5q0 -33 -16.5 -56t-42.5 -33t-61 -12z" />
    <glyph glyph-name="ccedillaacute" unicode="&#x1e09;" horiz-adv-x="571" 
d="M259 642l125 186h100l-146 -186h-79zM302 -254q-44 -1 -78 9v59q25 -8 60 -8q60 0 60 38q0 11 -5.5 18t-17.5 10t-22.5 4t-28.5 1h-28v47l26 68q-63 6 -109 37t-70.5 84.5t-24.5 123.5v81q0 111 63 177.5t171 66.5q100 0 157 -52.5t59 -126.5h-101q-5 33 -31.5 59.5
t-81.5 26.5q-42 0 -72 -19t-44.5 -53.5t-14.5 -81.5v-78q0 -70 35 -110t96 -40q100 0 116 77h101q-2 -68 -48.5 -115t-131.5 -56l-23 -60q50 0 79 -22.5t29 -63.5q0 -49 -33 -74t-87 -27z" />
    <glyph glyph-name="Ddotaccent" unicode="&#x1e0a;" horiz-adv-x="709" 
d="M271 838q0 26 15.5 43t40.5 17q26 0 42.5 -17t16.5 -43q0 -17 -7.5 -30.5t-21 -21t-30 -7.5t-29.5 7.5t-20 21t-7 30.5zM96 714h240q84 0 146 -26t98.5 -74t53.5 -111.5t17 -144.5q0 -80 -16.5 -143.5t-53 -112.5t-98.5 -75.5t-147 -26.5h-240v714zM204 616v-518h122
q109 0 161.5 63t52.5 195q0 260 -214 260h-122z" />
    <glyph glyph-name="ddotaccent" unicode="&#x1e0b;" horiz-adv-x="638" 
d="M438 876q0 26 16 42.5t41 16.5t41.5 -17t16.5 -42.5t-16.5 -42t-41.5 -16.5q-13 0 -23.5 4.5t-17.5 12t-11.5 18.5t-4.5 24zM277 561q62 0 103 -26t56 -65h5v282h106v-752h-102v88h-6q-11 -39 -55 -67t-109 -28q-96 0 -153.5 63t-57.5 172v97q0 108 57.5 172t155.5 64z
M302 467q-40 0 -69.5 -18.5t-45.5 -54.5t-16 -86v-63q0 -76 36 -117.5t98 -41.5t99 40.5t37 111.5v85q0 64 -39 104t-100 40z" />
    <glyph glyph-name="Ddotbelow" unicode="&#x1e0c;" horiz-adv-x="709" 
d="M267 -130q0 27 17 44t43.5 17t43.5 -17t17 -44t-17 -43.5t-43.5 -16.5t-43.5 16.5t-17 43.5zM96 714h240q84 0 146 -26t98.5 -74t53.5 -111.5t17 -144.5q0 -80 -16.5 -143.5t-53 -112.5t-98.5 -75.5t-147 -26.5h-240v714zM204 616v-518h122q109 0 161.5 63t52.5 195
q0 260 -214 260h-122z" />
    <glyph glyph-name="ddotbelow" unicode="&#x1e0d;" horiz-adv-x="638" 
d="M259 -130q0 27 17 44t43 17t43.5 -17t17.5 -44t-17 -43.5t-43.5 -16.5t-43.5 16.5t-17 43.5zM277 561q62 0 103 -26t56 -65h5v282h106v-752h-102v88h-6q-11 -39 -55 -67t-109 -28q-96 0 -153.5 63t-57.5 172v97q0 108 57.5 172t155.5 64zM302 467q-40 0 -69.5 -18.5
t-45.5 -54.5t-16 -86v-63q0 -76 36 -117.5t98 -41.5t99 40.5t37 111.5v85q0 64 -39 104t-100 40z" />
    <glyph glyph-name="Dlinebelow" unicode="&#x1e0e;" horiz-adv-x="709" 
d="M483 -167h-304v66h304v-66zM96 714h240q84 0 146 -26t98.5 -74t53.5 -111.5t17 -144.5q0 -80 -16.5 -143.5t-53 -112.5t-98.5 -75.5t-147 -26.5h-240v714zM204 616v-518h122q109 0 161.5 63t52.5 195q0 260 -214 260h-122z" />
    <glyph glyph-name="dlinebelow" unicode="&#x1e0f;" horiz-adv-x="638" 
d="M475 -167h-304v66h304v-66zM277 561q62 0 103 -26t56 -65h5v282h106v-752h-102v88h-6q-11 -39 -55 -67t-109 -28q-96 0 -153.5 63t-57.5 172v97q0 108 57.5 172t155.5 64zM302 467q-40 0 -69.5 -18.5t-45.5 -54.5t-16 -86v-63q0 -76 36 -117.5t98 -41.5t99 40.5t37 111.5
v85q0 64 -39 104t-100 40z" />
    <glyph glyph-name="Dcommaaccent" unicode="&#x1e10;" horiz-adv-x="709" 
d="M322 -247h-75l43 165h88zM96 714h240q84 0 146 -26t98.5 -74t53.5 -111.5t17 -144.5q0 -80 -16.5 -143.5t-53 -112.5t-98.5 -75.5t-147 -26.5h-240v714zM204 616v-518h122q109 0 161.5 63t52.5 195q0 260 -214 260h-122z" />
    <glyph glyph-name="dcommaaccent" unicode="&#x1e11;" horiz-adv-x="638" 
d="M314 -247h-75l43 165h88zM277 561q62 0 103 -26t56 -65h5v282h106v-752h-102v88h-6q-11 -39 -55 -67t-109 -28q-96 0 -153.5 63t-57.5 172v97q0 108 57.5 172t155.5 64zM302 467q-40 0 -69.5 -18.5t-45.5 -54.5t-16 -86v-63q0 -76 36 -117.5t98 -41.5t99 40.5t37 111.5
v85q0 64 -39 104t-100 40z" />
    <glyph glyph-name="Dcircumflexbelow" unicode="&#x1e12;" horiz-adv-x="709" 
d="M96 714h240q84 0 146 -26t98.5 -74t53.5 -111.5t17 -144.5q0 -80 -16.5 -143.5t-53 -112.5t-98.5 -75.5t-147 -26.5h-240v714zM204 616v-518h122q109 0 161.5 63t52.5 195q0 260 -214 260h-122zM148 -195l145 132h72l139 -132h-99l-76 73h-4l-82 -73h-95z" />
    <glyph glyph-name="dcircumflexbelow" unicode="&#x1e13;" horiz-adv-x="638" 
d="M277 561q62 0 103 -26t56 -65h5v282h106v-752h-102v88h-6q-11 -39 -55 -67t-109 -28q-96 0 -153.5 63t-57.5 172v97q0 108 57.5 172t155.5 64zM302 467q-40 0 -69.5 -18.5t-45.5 -54.5t-16 -86v-63q0 -76 36 -117.5t98 -41.5t99 40.5t37 111.5v85q0 64 -39 104t-100 40z
M140 -195l145 132h71l139 -132h-98l-76 73h-4l-82 -73h-95z" />
    <glyph glyph-name="Emacrongrave" unicode="&#x1e14;" horiz-adv-x="607" 
d="M383 910h-105l-146 109h117zM535 98v-98h-439v714h439v-98h-332v-206h313v-94h-313v-218h332zM468 787h-309v65h309v-65z" />
    <glyph glyph-name="emacrongrave" unicode="&#x1e15;" horiz-adv-x="590" 
d="M348 783h-79l-146 185h100zM304 -9q-112 0 -176 65.5t-64 182.5v75q0 115 65 181.5t168 66.5t167.5 -67.5t64.5 -180.5v-65h-361v-27q0 -61 36 -100t99 -39q45 0 76 18t38 44h106q-4 -25 -18.5 -51t-40 -49.5t-67.5 -38.5t-93 -15zM168 324h257v8q0 41 -15.5 73t-45 49.5
t-67.5 17.5q-58 0 -93.5 -38.5t-35.5 -101.5v-8zM448 644h-304v66h304v-66z" />
    <glyph glyph-name="Emacronacute" unicode="&#x1e16;" horiz-adv-x="607" 
d="M238 910l136 111h119l-146 -111h-109zM535 98v-98h-439v714h439v-98h-332v-206h313v-94h-313v-218h332zM468 787h-309v65h309v-65z" />
    <glyph glyph-name="emacronacute" unicode="&#x1e17;" horiz-adv-x="590" 
d="M268 784l125 185h100l-146 -185h-79zM304 -9q-112 0 -176 65.5t-64 182.5v75q0 115 65 181.5t168 66.5t167.5 -67.5t64.5 -180.5v-65h-361v-27q0 -61 36 -100t99 -39q45 0 76 18t38 44h106q-4 -25 -18.5 -51t-40 -49.5t-67.5 -38.5t-93 -15zM168 324h257v8q0 41 -15.5 73
t-45 49.5t-67.5 17.5q-58 0 -93.5 -38.5t-35.5 -101.5v-8zM448 644h-304v66h304v-66z" />
    <glyph glyph-name="Ecircumflexbelow" unicode="&#x1e18;" horiz-adv-x="607" 
d="M535 98v-98h-439v714h439v-98h-332v-206h313v-94h-313v-218h332zM134 -195l145 132h71l140 -132h-99l-76 73h-4l-82 -73h-95z" />
    <glyph glyph-name="ecircumflexbelow" unicode="&#x1e19;" horiz-adv-x="590" 
d="M304 -9q-112 0 -176 65.5t-64 182.5v75q0 115 65 181.5t168 66.5t167.5 -67.5t64.5 -180.5v-65h-361v-27q0 -61 36 -100t99 -39q45 0 76 18t38 44h106q-4 -25 -18.5 -51t-40 -49.5t-67.5 -38.5t-93 -15zM168 324h257v8q0 41 -15.5 73t-45 49.5t-67.5 17.5
q-58 0 -93.5 -38.5t-35.5 -101.5v-8zM116 -195l144 132h72l139 -132h-98l-76 73h-4l-82 -73h-95z" />
    <glyph glyph-name="Etildebelow" unicode="&#x1e1a;" horiz-adv-x="607" 
d="M299 -165l-5.5 5.5t-5.5 6t-5.5 5t-7 5l-6 3.5t-7.5 2.5t-8 0.5q-32 0 -36 -51h-66q0 47 25 80.5t72 33.5q42 0 82 -36q2 -3 6.5 -7.5l7 -7t6.5 -5.5t7.5 -5t7.5 -3t9 -1q17 0 26.5 17.5t11.5 39.5h65q0 -46 -27 -81t-70 -35q-29 0 -46.5 8.5t-35.5 24.5zM535 98v-98
h-439v714h439v-98h-332v-206h313v-94h-313v-218h332z" />
    <glyph glyph-name="etildebelow" unicode="&#x1e1b;" horiz-adv-x="590" 
d="M281 -165l-5.5 5.5l-6 6t-5.5 5t-6.5 5t-6.5 3.5t-7.5 2.5t-7.5 0.5q-33 0 -36 -51h-66q0 47 24.5 80.5t72.5 33.5q41 0 81 -36l9 -9t8.5 -8l7.5 -6t9.5 -5t10.5 -1q17 0 26 17.5t11 39.5h66q0 -29 -11.5 -55.5t-34.5 -43.5t-51.5 -17t-46.5 8.5t-35 24.5zM304 -9
q-112 0 -176 65.5t-64 182.5v75q0 115 65 181.5t168 66.5t167.5 -67.5t64.5 -180.5v-65h-361v-27q0 -61 36 -100t99 -39q45 0 76 18t38 44h106q-4 -25 -18.5 -51t-40 -49.5t-67.5 -38.5t-93 -15zM168 324h257v8q0 41 -15.5 73t-45 49.5t-67.5 17.5q-58 0 -93.5 -38.5
t-35.5 -101.5v-8z" />
    <glyph glyph-name="Ecedillabreve" unicode="&#x1e1c;" horiz-adv-x="607" 
d="M276 0h-180v714h439v-98h-332v-206h313v-94h-313v-218h332v-98h-191l-25 -67q49 0 78.5 -22.5t29.5 -63.5q0 -49 -33 -74t-87 -27q-44 -1 -78 9v59q24 -8 60 -8q60 0 60 38q0 21 -18.5 27t-55.5 6h-28v47zM142 918h70q0 -38 25.5 -60t75.5 -22t75.5 22t25.5 60h70
q0 -64 -44 -104t-126.5 -40t-127 40t-44.5 104z" />
    <glyph glyph-name="ecedillabreve" unicode="&#x1e1d;" horiz-adv-x="590" 
d="M155 775h69q0 -36 22 -61t65 -25t65 25t22 61h68q0 -60 -40 -105.5t-115.5 -45.5t-115.5 45.5t-40 105.5zM168 324h257v8q0 41 -15.5 73t-45 49.5t-67.5 17.5q-58 0 -93.5 -38.5t-35.5 -101.5v-8zM301 -254q-45 -1 -78 9v59q25 -8 60 -8q60 0 60 38q0 21 -18.5 27
t-56.5 6h-27v47l26 69q-96 10 -149.5 74.5t-53.5 171.5v75q0 115 65 181.5t168 66.5t167.5 -67.5t64.5 -180.5v-65h-361v-27q0 -61 36 -100t99 -39q45 0 76 18t38 44h106q-7 -51 -55.5 -97.5t-131.5 -54.5l-23 -60q50 0 79 -22.5t29 -63.5q0 -49 -33 -74t-87 -27z" />
    <glyph glyph-name="Fdotaccent" unicode="&#x1e1e;" horiz-adv-x="573" 
d="M255 838q0 26 15.5 43t40.5 17t42 -17t17 -43t-16.5 -42.5t-42.5 -16.5q-16 0 -29 7.5t-20 21t-7 30.5zM204 0h-108v714h433v-99h-325v-221h298v-97h-298v-297z" />
    <glyph glyph-name="fdotaccent" unicode="&#x1e1f;" horiz-adv-x="424" 
d="M156 883q0 27 15.5 43.5t40.5 16.5q26 0 42.5 -17t16.5 -43t-16.5 -42t-42.5 -16q-12 0 -22.5 4t-18 12t-11.5 19t-4 23zM138 0v459h-92v90h92v55q0 82 41.5 119t135.5 37q33 0 66 -4v-86q-19 3 -49 3q-49 0 -69.5 -17t-20.5 -61v-46h127v-90h-126v-459h-105z" />
    <glyph glyph-name="Gmacron" unicode="&#x1e20;" horiz-adv-x="699" 
d="M629 491h-105q-9 67 -55 102t-111 35q-81 0 -131.5 -55.5t-50.5 -167.5v-93q0 -106 46 -166t135 -60q75 0 122.5 40.5t47.5 102.5v57h-172v92h276v-145q0 -32 -8.5 -65t-29 -66.5t-51 -59t-78.5 -41.5t-107 -16q-142 0 -215.5 88t-73.5 239v94q0 150 79 236t213 86
q63 0 113.5 -19.5t83 -53t51 -75.5t21.5 -89zM513 787h-309v65h309v-65z" />
    <glyph glyph-name="gmacron" unicode="&#x1e21;" horiz-adv-x="620" 
d="M464 644h-304v66h304v-66zM296 -117q68 0 103 34.5t35 97.5v82h-6q-16 -38 -57.5 -62.5t-96.5 -24.5q-94 0 -155 64t-61 173v75q0 110 60.5 174t154.5 64q58 0 101.5 -27t58.5 -64h4v83h102v-542q0 -110 -67 -163t-181 -53q-104 0 -159.5 44t-61.5 111h106
q6 -29 37.5 -47.5t82.5 -18.5zM303 467q-63 0 -100.5 -43.5t-37.5 -116.5v-48q0 -72 39 -115.5t100 -43.5t95.5 42t34.5 103v75q0 62 -35.5 104.5t-95.5 42.5z" />
    <glyph glyph-name="Hdotaccent" unicode="&#x1e22;" horiz-adv-x="748" 
d="M652 0h-108v318h-340v-318h-108v714h108v-297h340v297h108v-714zM318 838q0 26 15.5 43t40.5 17t42 -17t17 -43q0 -17 -8 -30.5t-21 -21t-30 -7.5t-29.5 7.5t-19.5 21t-7 30.5z" />
    <glyph glyph-name="hdotaccent" unicode="&#x1e23;" horiz-adv-x="643" 
d="M92 0v752h105v-298h6q5 16 16 33t30 34.5t51 28.5t72 11q83 0 134 -48.5t51 -139.5v-373h-106v341q0 61 -31.5 93t-85.5 32q-43 0 -74.5 -21t-47 -56t-15.5 -81v-308h-105zM87 876q0 26 15.5 42.5t40.5 16.5q26 0 42.5 -17t16.5 -42.5t-16.5 -42t-42.5 -16.5
q-16 0 -29 7.5t-20 20.5t-7 31z" />
    <glyph glyph-name="Hdotbelow" unicode="&#x1e24;" horiz-adv-x="748" 
d="M652 0h-108v318h-340v-318h-108v714h108v-297h340v297h108v-714zM314 -130q0 27 17 44t43 17t43.5 -17t17.5 -44t-17 -43.5t-43.5 -16.5t-43.5 16.5t-17 43.5z" />
    <glyph glyph-name="hdotbelow" unicode="&#x1e25;" horiz-adv-x="643" 
d="M92 0v752h105v-298h6q5 16 16 33t30 34.5t51 28.5t72 11q83 0 134 -48.5t51 -139.5v-373h-106v341q0 61 -31.5 93t-85.5 32q-43 0 -74.5 -21t-47 -56t-15.5 -81v-308h-105zM258 -130q0 18 8 32t21.5 21.5t31.5 7.5q26 0 43 -17t17 -44t-17 -43.5t-43.5 -16.5t-43.5 16.5
t-17 43.5z" />
    <glyph glyph-name="Hdieresis" unicode="&#x1e26;" horiz-adv-x="748" 
d="M652 0h-108v318h-340v-318h-108v714h108v-297h340v297h108v-714zM220 826q0 25 16.5 41t41.5 16q26 0 42 -15.5t16 -41.5q0 -16 -7 -28.5t-20.5 -20t-30.5 -7.5t-30 7.5t-20.5 20t-7.5 28.5zM410 826q0 25 16.5 41t41.5 16q17 0 30.5 -7t21 -20t7.5 -30q0 -12 -4.5 -22
t-12 -17.5t-18.5 -12t-24 -4.5q-25 0 -41.5 16t-16.5 40z" />
    <glyph glyph-name="hdieresis" unicode="&#x1e27;" horiz-adv-x="643" 
d="M92 0v752h105v-298h6q5 16 16 33t30 34.5t51 28.5t72 11q83 0 134 -48.5t51 -139.5v-373h-106v341q0 61 -31.5 93t-85.5 32q-43 0 -74.5 -21t-47 -56t-15.5 -81v-308h-105zM-14 884q0 26 17.5 42.5t43.5 16.5t43 -16.5t17 -42.5q0 -12 -4.5 -23t-12.5 -19t-19.5 -12.5
t-23.5 -4.5q-26 0 -43.5 17t-17.5 42zM183 884q0 13 4.5 24t12.5 18.5t19 12t23 4.5q10 0 20 -3t17.5 -8t13 -12t8.5 -16.5t3 -19.5q0 -25 -17.5 -42t-44.5 -17q-16 0 -29.5 8t-21.5 21.5t-8 29.5z" />
    <glyph glyph-name="Hcedilla" unicode="&#x1e28;" horiz-adv-x="748" 
d="M135 0h-39v714h108v-297h340v297h108v-714h-108v318h-340v-318l-26 -67q50 0 79.5 -22.5t29.5 -63.5q0 -49 -33 -74t-87 -27q-44 -1 -79 9v59q25 -8 61 -8q60 0 60 38q0 21 -18.5 27t-56.5 6h-27v47z" />
    <glyph glyph-name="hcedilla" unicode="&#x1e29;" horiz-adv-x="643" 
d="M129 0h-37v752h105v-298h6q5 16 16 33t30 34.5t51 28.5t72 11q83 0 134 -48.5t51 -139.5v-373h-106v341q0 61 -31.5 93t-85.5 32q-43 0 -74.5 -21t-47 -56t-15.5 -81v-308l-27 -72q50 0 79 -22t29 -63q0 -49 -33 -74t-87 -26q-45 -2 -78 7v60q23 -7 60 -7q61 0 61 36
q0 22 -19 28t-56 6h-28v47z" />
    <glyph glyph-name="Hbrevebelow" unicode="&#x1e2a;" horiz-adv-x="748" 
d="M210 -71q0 -62 42 -106.5t122 -44.5q79 0 119.5 45t40.5 106h-69q0 -35 -23.5 -60t-67.5 -25t-67.5 25t-23.5 60h-73zM652 0h-108v318h-340v-318h-108v714h108v-297h340v297h108v-714z" />
    <glyph glyph-name="hbrevebelow" unicode="&#x1e2b;" horiz-adv-x="643" 
d="M155 -71q0 -62 42 -106.5t122 -44.5q79 0 119 45t40 106h-68q0 -35 -23.5 -60t-68 -25t-67.5 25t-23 60h-73zM92 0v752h105v-298h6q5 16 16 33t30 34.5t51 28.5t72 11q83 0 134 -48.5t51 -139.5v-373h-106v341q0 61 -31.5 93t-85.5 32q-43 0 -74.5 -21t-47 -56t-15.5 -81
v-308h-105z" />
    <glyph glyph-name="Itildebelow" unicode="&#x1e2c;" horiz-adv-x="300" 
d="M204 0h-108v714h108v-714zM136 -165l-5.5 5.5l-6 6t-5.5 5t-6.5 5l-6 3.5t-7.5 2.5t-8 0.5q-33 0 -36 -51h-66q0 47 24.5 80.5t72.5 33.5q41 0 81 -36l9 -9t8.5 -8l7.5 -6t9.5 -5t10.5 -1q17 0 26.5 17.5t11.5 39.5h65q0 -46 -27 -81t-70 -35q-16 0 -28 2.5t-22 7.5
t-17 10t-15 13z" />
    <glyph glyph-name="itildebelow" unicode="&#x1e2d;" horiz-adv-x="310" 
d="M103 0v552h105v-552h-105zM83 719q0 15 5.5 28t15 22.5t22.5 14.5t29 5q32 0 52.5 -19.5t20.5 -50.5q0 -30 -20.5 -49.5t-52.5 -19.5q-31 0 -51.5 19.5t-20.5 49.5zM141 -165q-1 1 -5 5.5t-5.5 6t-6 5t-7 5l-6 3.5t-7.5 2.5t-8 0.5q-32 0 -36 -51h-66q0 47 25 80.5
t72 33.5q42 0 82 -36q2 -3 8 -9t8.5 -8l7.5 -6t10 -5t10 -1q17 0 26.5 17.5t11.5 39.5h65q0 -46 -27 -81t-70 -35q-20 0 -36 5t-25 11t-21 17z" />
    <glyph glyph-name="Idieresisacute" unicode="&#x1e2e;" horiz-adv-x="300" 
d="M204 0h-108v714h108v-714zM75 910l136 111h120l-146 -111h-110zM-3 826q0 25 16 41t41 16q17 0 30.5 -7t21 -20t7.5 -30q0 -24 -16.5 -40t-42.5 -16q-24 0 -40.5 16t-16.5 40zM187 826q0 25 16 41t41 16q26 0 42.5 -16t16.5 -41q0 -16 -7 -28.5t-20.5 -20t-31.5 -7.5
q-12 0 -22.5 4.5t-18 12t-12 17.5t-4.5 22z" />
    <glyph glyph-name="idieresisacute" unicode="&#x1e2f;" horiz-adv-x="310" 
d="M129 784l125 185h101l-146 -185h-80zM103 0v552h105v-552h-105zM-1 685q0 25 17.5 42t43.5 17t43 -17t17 -42q0 -17 -8 -30.5t-21.5 -21t-30.5 -7.5q-26 0 -43.5 17t-17.5 42zM196 685q0 25 17 42t42 17q27 0 44.5 -16.5t17.5 -42.5q0 -17 -8 -30.5t-22 -21t-32 -7.5
q-25 0 -42 17t-17 42z" />
    <glyph glyph-name="Kacute" unicode="&#x1e30;" horiz-adv-x="660" 
d="M244 789l136 111h120l-146 -111h-110zM629 714l-262 -305l275 -409h-133l-222 330l-83 -89v-241h-108v714h108v-333h5l297 333h123z" />
    <glyph glyph-name="kacute" unicode="&#x1e31;" horiz-adv-x="572" 
d="M197 198v-198h-105v752h105v-440h4l213 240h121l-212 -239l226 -313h-125l-180 246zM116 842l125 185h100l-146 -185h-79z" />
    <glyph glyph-name="Kdotbelow" unicode="&#x1e32;" horiz-adv-x="660" 
d="M270 -130q0 27 17 44t43 17t43.5 -17t17.5 -44t-17 -43.5t-43.5 -16.5t-43.5 16.5t-17 43.5zM629 714l-262 -305l275 -409h-133l-222 330l-83 -89v-241h-108v714h108v-333h5l297 333h123z" />
    <glyph glyph-name="kdotbelow" unicode="&#x1e33;" horiz-adv-x="572" 
d="M238 -130q0 27 17 44t43.5 17t43.5 -17t17 -44t-17 -43.5t-43.5 -16.5t-43.5 16.5t-17 43.5zM197 198v-198h-105v752h105v-440h4l213 240h121l-212 -239l226 -313h-125l-180 246z" />
    <glyph glyph-name="Klinebelow" unicode="&#x1e34;" horiz-adv-x="660" 
d="M629 714l-262 -305l275 -409h-133l-222 330l-83 -89v-241h-108v714h108v-333h5l297 333h123zM486 -167h-304v66h304v-66z" />
    <glyph glyph-name="klinebelow" unicode="&#x1e35;" horiz-adv-x="572" 
d="M197 198v-198h-105v752h105v-440h4l213 240h121l-212 -239l226 -313h-125l-180 246zM454 -167h-304v66h304v-66z" />
    <glyph glyph-name="Ldotbelow" unicode="&#x1e36;" horiz-adv-x="550" 
d="M219 -130q0 27 17 44t43.5 17t43.5 -17t17 -44t-17 -43.5t-43.5 -16.5t-43.5 16.5t-17 43.5zM525 101v-101h-429v714h108v-613h321z" />
    <glyph glyph-name="ldotbelow" unicode="&#x1e37;" horiz-adv-x="292" 
d="M87 -130q0 27 17 44t43 17t43.5 -17t17.5 -44t-17 -43.5t-43.5 -16.5t-43.5 16.5t-17 43.5zM94 0v752h105v-752h-105z" />
    <glyph glyph-name="Ldotbelowmacron" unicode="&#x1e38;" horiz-adv-x="550" 
d="M219 -130q0 27 17 44t43.5 17t43.5 -17t17 -44t-17 -43.5t-43.5 -16.5t-43.5 16.5t-17 43.5zM525 101v-101h-429v714h108v-613h321zM304 787h-308v65h308v-65z" />
    <glyph glyph-name="ldotbelowmacron" unicode="&#x1e39;" horiz-adv-x="292" 
d="M87 -130q0 27 17 44t43 17t43.5 -17t17.5 -44t-17 -43.5t-43.5 -16.5t-43.5 16.5t-17 43.5zM94 0v752h105v-752h-105zM300 843h-304v66h304v-66z" />
    <glyph glyph-name="Llinebelow" unicode="&#x1e3a;" horiz-adv-x="550" 
d="M435 -167h-304v66h304v-66zM525 101v-101h-429v714h108v-613h321z" />
    <glyph glyph-name="llinebelow" unicode="&#x1e3b;" horiz-adv-x="292" 
d="M303 -167h-304v66h304v-66zM94 0v752h105v-752h-105z" />
    <glyph glyph-name="Lcircumflexbelow" unicode="&#x1e3c;" horiz-adv-x="550" 
d="M525 101v-101h-429v714h108v-613h321zM100 -195l145 132h71l140 -132h-99l-76 73h-4l-82 -73h-95z" />
    <glyph glyph-name="lcircumflexbelow" unicode="&#x1e3d;" horiz-adv-x="292" 
d="M94 0v752h105v-752h-105zM-32 -195l144 132h72l139 -132h-98l-76 73h-4l-82 -73h-95z" />
    <glyph glyph-name="Macute" unicode="&#x1e3e;" horiz-adv-x="864" 
d="M357 789l136 111h120l-146 -111h-110zM196 0h-98v714h108l224 -511h5l224 511h107v-714h-98v500h-5l-190 -426h-82l-190 426h-5v-500z" />
    <glyph glyph-name="macute" unicode="&#x1e3f;" horiz-adv-x="943" 
d="M444 642l125 186h101l-146 -186h-80zM90 0v552h105v-89h5q5 17 14.5 32.5t26.5 31t45 25t63 9.5q41 0 73 -14t51.5 -37t28.5 -53h5q18 45 60 74.5t108 29.5q84 0 132 -46t48 -128v-387h-105v355q0 53 -28.5 82.5t-81.5 29.5q-50 0 -82.5 -34t-32.5 -88v-345h-104v352
q0 53 -30 84t-81 31t-82.5 -33t-31.5 -88v-346h-106z" />
    <glyph glyph-name="Mdotaccent" unicode="&#x1e40;" horiz-adv-x="864" 
d="M376 838q0 26 16 43t41 17t41.5 -17t16.5 -43t-16.5 -42.5t-41.5 -16.5q-17 0 -30 7.5t-20 21t-7 30.5zM196 0h-98v714h108l224 -511h5l224 511h107v-714h-98v500h-5l-190 -426h-82l-190 426h-5v-500z" />
    <glyph glyph-name="mdotaccent" unicode="&#x1e41;" horiz-adv-x="943" 
d="M415 676q0 26 15.5 43t40.5 17t42 -17t17 -43t-16.5 -42t-42.5 -16q-25 0 -40.5 16t-15.5 42zM90 0v552h105v-89h5q5 17 14.5 32.5t26.5 31t45 25t63 9.5q41 0 73 -14t51.5 -37t28.5 -53h5q18 45 60 74.5t108 29.5q84 0 132 -46t48 -128v-387h-105v355q0 53 -28.5 82.5
t-81.5 29.5q-50 0 -82.5 -34t-32.5 -88v-345h-104v352q0 53 -30 84t-81 31t-82.5 -33t-31.5 -88v-346h-106z" />
    <glyph glyph-name="Mdotbelow" unicode="&#x1e42;" horiz-adv-x="864" 
d="M372 -130q0 27 17 44t43 17t43.5 -17t17.5 -44t-17 -43.5t-43.5 -16.5t-43.5 16.5t-17 43.5zM196 0h-98v714h108l224 -511h5l224 511h107v-714h-98v500h-5l-190 -426h-82l-190 426h-5v-500z" />
    <glyph glyph-name="mdotbelow" unicode="&#x1e43;" horiz-adv-x="943" 
d="M411 -130q0 27 17 44t43.5 17t43.5 -17t17 -44t-17 -43.5t-43.5 -16.5t-43.5 16.5t-17 43.5zM90 0v552h105v-89h5q5 17 14.5 32.5t26.5 31t45 25t63 9.5q41 0 73 -14t51.5 -37t28.5 -53h5q18 45 60 74.5t108 29.5q84 0 132 -46t48 -128v-387h-105v355q0 53 -28.5 82.5
t-81.5 29.5q-50 0 -82.5 -34t-32.5 -88v-345h-104v352q0 53 -30 84t-81 31t-82.5 -33t-31.5 -88v-346h-106z" />
    <glyph glyph-name="Ndotaccent" unicode="&#x1e44;" horiz-adv-x="743" 
d="M315 838q0 26 15.5 43t40.5 17q26 0 42.5 -17t16.5 -43t-16.5 -42.5t-42.5 -16.5q-16 0 -29 7.5t-20 21t-7 30.5zM201 0h-105v714h98l343 -517h5v517h105v-714h-98l-343 518h-5v-518z" />
    <glyph glyph-name="ndotaccent" unicode="&#x1e45;" horiz-adv-x="640" 
d="M264 676q0 26 15.5 43t40.5 17t42 -17t17 -43q0 -17 -8 -30.5t-21 -20.5t-30 -7q-25 0 -40.5 16t-15.5 42zM90 0v552h105v-98h5q35 107 166 107q86 0 136.5 -47.5t50.5 -139.5v-374h-106v342q0 62 -30 93t-84 31q-66 0 -101.5 -43.5t-35.5 -114.5v-308h-106z" />
    <glyph glyph-name="Ndotbelow" unicode="&#x1e46;" horiz-adv-x="743" 
d="M311 -130q0 27 17 44t43.5 17t43.5 -17t17 -44t-17 -43.5t-43.5 -16.5t-43.5 16.5t-17 43.5zM201 0h-105v714h98l343 -517h5v517h105v-714h-98l-343 518h-5v-518z" />
    <glyph glyph-name="ndotbelow" unicode="&#x1e47;" horiz-adv-x="640" 
d="M260 -130q0 27 17 44t43 17t43.5 -17t17.5 -44t-17 -43.5t-43.5 -16.5t-43.5 16.5t-17 43.5zM90 0v552h105v-98h5q35 107 166 107q86 0 136.5 -47.5t50.5 -139.5v-374h-106v342q0 62 -30 93t-84 31q-66 0 -101.5 -43.5t-35.5 -114.5v-308h-106z" />
    <glyph glyph-name="Nlinebelow" unicode="&#x1e48;" horiz-adv-x="743" 
d="M527 -167h-304v66h304v-66zM201 0h-105v714h98l343 -517h5v517h105v-714h-98l-343 518h-5v-518z" />
    <glyph glyph-name="nlinebelow" unicode="&#x1e49;" horiz-adv-x="640" 
d="M476 -167h-304v66h304v-66zM90 0v552h105v-98h5q35 107 166 107q86 0 136.5 -47.5t50.5 -139.5v-374h-106v342q0 62 -30 93t-84 31q-66 0 -101.5 -43.5t-35.5 -114.5v-308h-106z" />
    <glyph glyph-name="Ncircumflexbelow" unicode="&#x1e4a;" horiz-adv-x="743" 
d="M201 0h-105v714h98l343 -517h5v517h105v-714h-98l-343 518h-5v-518zM192 -195l145 132h72l139 -132h-99l-76 73h-4l-82 -73h-95z" />
    <glyph glyph-name="ncircumflexbelow" unicode="&#x1e4b;" horiz-adv-x="640" 
d="M90 0v552h105v-98h5q35 107 166 107q86 0 136.5 -47.5t50.5 -139.5v-374h-106v342q0 62 -30 93t-84 31q-66 0 -101.5 -43.5t-35.5 -114.5v-308h-106zM141 -195l145 132h71l139 -132h-98l-76 73h-4l-82 -73h-95z" />
    <glyph glyph-name="Otildeacute" unicode="&#x1e4c;" horiz-adv-x="720" 
d="M285 910l136 111h119l-146 -111h-109zM177 404v-100q0 -107 50.5 -163t132.5 -56q83 0 133.5 56t50.5 163v100q0 108 -51 166.5t-133 58.5t-132.5 -58.5t-50.5 -166.5zM68 305v98q0 152 79 238.5t214 86.5t213.5 -86.5t78.5 -238.5v-98q0 -150 -79 -235t-215 -85
q-135 0 -213 84.5t-78 235.5zM346 796q-1 0 -5 5t-5.5 6t-5.5 4.5t-7 5t-6.5 3.5t-7.5 3t-8 1q-32 0 -36 -51h-66q0 46 25 80t72 34q42 0 82 -37l8 -8l8.5 -8.5t7.5 -6t10 -5t10 -1.5q12 0 20.5 10t12.5 22t5 25h65q0 -45 -27 -80.5t-70 -35.5q-29 0 -47 8.5t-35 25.5z" />
    <glyph glyph-name="otildeacute" unicode="&#x1e4d;" horiz-adv-x="611" 
d="M278 784l125 185h101l-146 -185h-80zM292 648q-5 7 -8.5 11t-9 9.5t-12.5 8t-15 2.5q-33 0 -37 -62h-66q0 58 26.5 97.5t72.5 39.5q13 0 23.5 -2t20.5 -7t19 -13t17 -20q2 -2 7 -10t7.5 -10.5l7.5 -7.5t10.5 -6.5t12.5 -1.5q17 0 26 21t11 48h66q0 -54 -28.5 -96
t-70.5 -42q-52 0 -80 41zM306 562q107 0 174.5 -67t67.5 -182v-72q0 -118 -67 -184t-175 -66q-109 0 -175.5 66t-66.5 184v72q0 112 67.5 180.5t174.5 68.5zM306 470q-63 0 -100 -45.5t-37 -116.5v-63q0 -72 36 -117t101 -45q64 0 99.5 45t35.5 117v63q0 71 -36 116.5
t-99 45.5z" />
    <glyph glyph-name="Otildedieresis" unicode="&#x1e4e;" horiz-adv-x="720" 
d="M207 965q0 25 16.5 41t41.5 16q26 0 42 -16t16 -41q0 -24 -16.5 -40t-41.5 -16q-17 0 -30 7t-20.5 20t-7.5 29zM397 965q0 25 16.5 41t41.5 16q26 0 42.5 -16t16.5 -41q0 -8 -2 -15.5t-5.5 -13.5t-9 -11t-12 -8.5t-14.5 -5.5t-16 -2q-25 0 -41.5 16t-16.5 40zM177 404
v-100q0 -107 50.5 -163t132.5 -56q83 0 133.5 56t50.5 163v100q0 108 -51 166.5t-133 58.5t-132.5 -58.5t-50.5 -166.5zM68 305v98q0 152 79 238.5t214 86.5t213.5 -86.5t78.5 -238.5v-98q0 -150 -79 -235t-215 -85q-135 0 -213 84.5t-78 235.5zM346 796q-1 0 -5 5t-5.5 6
t-5.5 4.5t-7 5t-6.5 3.5t-7.5 3t-8 1q-32 0 -36 -51h-66q0 46 25 80t72 34q42 0 82 -37l8 -8l8.5 -8.5t7.5 -6t10 -5t10 -1.5q12 0 20.5 10t12.5 22t5 25h65q0 -45 -27 -80.5t-70 -35.5q-29 0 -47 8.5t-35 25.5z" />
    <glyph glyph-name="otildedieresis" unicode="&#x1e4f;" horiz-adv-x="611" 
d="M292 648q-5 7 -8.5 11t-9 9.5t-12.5 8t-15 2.5q-33 0 -37 -62h-66q0 58 26.5 97.5t72.5 39.5q13 0 23.5 -2t20.5 -7t19 -13t17 -20q2 -2 7 -10t7.5 -10.5l7.5 -7.5t10.5 -6.5t12.5 -1.5q17 0 26 21t11 48h66q0 -54 -28.5 -96t-70.5 -42q-52 0 -80 41zM149 836
q0 17 7.5 30.5t21.5 21t31 7.5t31 -7.5t21.5 -21t7.5 -30.5q0 -25 -17 -42t-43 -17t-43 17t-17 42zM345 836q0 17 8 30.5t21.5 21t29.5 7.5q27 0 44.5 -16.5t17.5 -42.5q0 -25 -17.5 -42t-44.5 -17q-16 0 -29.5 7.5t-21.5 21t-8 30.5zM306 562q107 0 174.5 -67t67.5 -182
v-72q0 -118 -67 -184t-175 -66q-109 0 -175.5 66t-66.5 184v72q0 112 67.5 180.5t174.5 68.5zM306 470q-63 0 -100 -45.5t-37 -116.5v-63q0 -72 36 -117t101 -45q64 0 99.5 45t35.5 117v63q0 71 -36 116.5t-99 45.5z" />
    <glyph glyph-name="Omacrongrave" unicode="&#x1e50;" horiz-adv-x="720" 
d="M430 910h-105l-146 109h117zM177 404v-100q0 -107 50.5 -163t132.5 -56q83 0 133.5 56t50.5 163v100q0 108 -51 166.5t-133 58.5t-132.5 -58.5t-50.5 -166.5zM68 305v98q0 152 79 238.5t214 86.5t213.5 -86.5t78.5 -238.5v-98q0 -150 -79 -235t-215 -85q-135 0 -213 84.5
t-78 235.5zM515 787h-309v65h309v-65z" />
    <glyph glyph-name="omacrongrave" unicode="&#x1e51;" horiz-adv-x="611" 
d="M358 783h-79l-146 185h101zM459 644h-304v66h304v-66zM306 562q107 0 174.5 -67t67.5 -182v-72q0 -118 -67 -184t-175 -66q-109 0 -175.5 66t-66.5 184v72q0 112 67.5 180.5t174.5 68.5zM306 470q-63 0 -100 -45.5t-37 -116.5v-63q0 -72 36 -117t101 -45q64 0 99.5 45
t35.5 117v63q0 71 -36 116.5t-99 45.5z" />
    <glyph glyph-name="Omacronacute" unicode="&#x1e52;" horiz-adv-x="720" 
d="M285 910l136 111h119l-146 -111h-109zM177 404v-100q0 -107 50.5 -163t132.5 -56q83 0 133.5 56t50.5 163v100q0 108 -51 166.5t-133 58.5t-132.5 -58.5t-50.5 -166.5zM68 305v98q0 152 79 238.5t214 86.5t213.5 -86.5t78.5 -238.5v-98q0 -150 -79 -235t-215 -85
q-135 0 -213 84.5t-78 235.5zM515 787h-309v65h309v-65z" />
    <glyph glyph-name="omacronacute" unicode="&#x1e53;" horiz-adv-x="611" 
d="M278 784l125 185h101l-146 -185h-80zM459 644h-304v66h304v-66zM306 562q107 0 174.5 -67t67.5 -182v-72q0 -118 -67 -184t-175 -66q-109 0 -175.5 66t-66.5 184v72q0 112 67.5 180.5t174.5 68.5zM306 470q-63 0 -100 -45.5t-37 -116.5v-63q0 -72 36 -117t101 -45
q64 0 99.5 45t35.5 117v63q0 71 -36 116.5t-99 45.5z" />
    <glyph glyph-name="Pacute" unicode="&#x1e54;" horiz-adv-x="637" 
d="M231 789l136 111h119l-146 -111h-109zM96 714h269q69 0 122.5 -29.5t81.5 -82t28 -118.5q0 -102 -63.5 -165.5t-169.5 -63.5h-160v-255h-108v714zM204 618v-268h100q93 0 137.5 29t44.5 105q0 64 -35 99t-99 35h-148z" />
    <glyph glyph-name="pacute" unicode="&#x1e55;" horiz-adv-x="636" 
d="M359 -8q-62 0 -101 25.5t-57 65.5h-5v-271h-106v741h103v-88h5q8 20 22 36.5t34 30t48 21t60 7.5q96 0 153 -64t57 -176v-87q0 -113 -57.5 -177t-155.5 -64zM333 86q61 0 96.5 41t35.5 122v54q0 80 -35.5 122t-98.5 42t-99 -40.5t-36 -112.5v-85q0 -64 38 -103.5
t99 -39.5zM291 642l125 186h101l-146 -186h-80z" />
    <glyph glyph-name="Pdotaccent" unicode="&#x1e56;" horiz-adv-x="637" 
d="M96 714h269q69 0 122.5 -29.5t81.5 -82t28 -118.5q0 -102 -63.5 -165.5t-169.5 -63.5h-160v-255h-108v714zM204 618v-268h100q93 0 137.5 29t44.5 105q0 64 -35 99t-99 35h-148zM250 838q0 26 15.5 43t40.5 17t42 -17t17 -43q0 -17 -8 -30.5t-21 -21t-30 -7.5t-29.5 7.5
t-19.5 21t-7 30.5z" />
    <glyph glyph-name="pdotaccent" unicode="&#x1e57;" horiz-adv-x="636" 
d="M359 -8q-62 0 -101 25.5t-57 65.5h-5v-271h-106v741h103v-88h5q8 20 22 36.5t34 30t48 21t60 7.5q96 0 153 -64t57 -176v-87q0 -113 -57.5 -177t-155.5 -64zM333 86q61 0 96.5 41t35.5 122v54q0 80 -35.5 122t-98.5 42t-99 -40.5t-36 -112.5v-85q0 -64 38 -103.5
t99 -39.5zM262 676q0 26 16 43t41 17t41.5 -17t16.5 -43q0 -13 -4.5 -24t-12 -18.5t-18.5 -11.5t-23 -4q-26 0 -41.5 16t-15.5 42z" />
    <glyph glyph-name="Rdotaccent" unicode="&#x1e58;" horiz-adv-x="670" 
d="M364 714q115 0 175 -62t60 -157q0 -81 -39 -130.5t-92 -69.5l145 -295h-122l-130 275h-158v-275h-107v714h268zM203 368h142q70 0 107 31.5t37 91.5q0 41 -18 70t-49 43.5t-73 14.5h-146v-251zM262 838q0 17 7 30.5t20 21.5t29 8q25 0 42 -17t17 -43t-17 -42.5t-42 -16.5
q-17 0 -29.5 7.5t-19.5 21t-7 30.5z" />
    <glyph glyph-name="rdotaccent" unicode="&#x1e59;" horiz-adv-x="425" 
d="M98 0v552h105v-85h6q13 36 48.5 65t99.5 29q15 0 36 -3v-101q-13 4 -47 4q-68 0 -104.5 -36t-36.5 -94v-331h-107zM178 676q0 26 15.5 43t40.5 17q26 0 42.5 -17t16.5 -43q0 -17 -7.5 -30.5t-21 -20.5t-30.5 -7q-25 0 -40.5 16t-15.5 42z" />
    <glyph glyph-name="Rdotbelow" unicode="&#x1e5a;" horiz-adv-x="670" 
d="M258 -130q0 27 17 44t43 17t43.5 -17t17.5 -44t-17 -43.5t-43.5 -16.5t-43.5 16.5t-17 43.5zM364 714q115 0 175 -62t60 -157q0 -81 -39 -130.5t-92 -69.5l145 -295h-122l-130 275h-158v-275h-107v714h268zM203 368h142q70 0 107 31.5t37 91.5q0 41 -18 70t-49 43.5
t-73 14.5h-146v-251z" />
    <glyph glyph-name="rdotbelow" unicode="&#x1e5b;" horiz-adv-x="425" 
d="M106 -130q0 27 17 44t43 17t43 -17t17 -44t-17 -43.5t-43.5 -16.5t-43 16.5t-16.5 43.5zM98 0v552h105v-85h6q13 36 48.5 65t99.5 29q15 0 36 -3v-101q-13 4 -47 4q-68 0 -104.5 -36t-36.5 -94v-331h-107z" />
    <glyph glyph-name="Rdotbelowmacron" unicode="&#x1e5c;" horiz-adv-x="670" 
d="M258 -130q0 27 17 44t43 17t43.5 -17t17.5 -44t-17 -43.5t-43.5 -16.5t-43.5 16.5t-17 43.5zM364 714q115 0 175 -62t60 -157q0 -81 -39 -130.5t-92 -69.5l145 -295h-122l-130 275h-158v-275h-107v714h268zM203 368h142q70 0 107 31.5t37 91.5q0 41 -18 70t-49 43.5
t-73 14.5h-146v-251zM472 787h-308v65h308v-65z" />
    <glyph glyph-name="rdotbelowmacron" unicode="&#x1e5d;" horiz-adv-x="425" 
d="M106 -130q0 27 17 44t43 17t43 -17t17 -44t-17 -43.5t-43.5 -16.5t-43 16.5t-16.5 43.5zM98 0v552h105v-85h6q13 36 48.5 65t99.5 29q15 0 36 -3v-101q-13 4 -47 4q-68 0 -104.5 -36t-36.5 -94v-331h-107zM388 644h-304v66h304v-66z" />
    <glyph glyph-name="Rlinebelow" unicode="&#x1e5e;" horiz-adv-x="670" 
d="M364 714q115 0 175 -62t60 -157q0 -81 -39 -130.5t-92 -69.5l145 -295h-122l-130 275h-158v-275h-107v714h268zM203 368h142q70 0 107 31.5t37 91.5q0 41 -18 70t-49 43.5t-73 14.5h-146v-251zM474 -167h-304v66h304v-66z" />
    <glyph glyph-name="rlinebelow" unicode="&#x1e5f;" horiz-adv-x="425" 
d="M98 0v552h105v-85h6q13 36 48.5 65t99.5 29q15 0 36 -3v-101q-13 4 -47 4q-68 0 -104.5 -36t-36.5 -94v-331h-107zM322 -167h-304v66h304v-66z" />
    <glyph glyph-name="Sdotaccent" unicode="&#x1e60;" horiz-adv-x="640" 
d="M46 198h106q3 -33 22 -58.5t56.5 -41.5t88.5 -16q71 0 112 30.5t41 81.5q0 41 -27.5 65t-86.5 39l-121 29q-35 9 -64.5 23.5t-54.5 37t-39 56t-14 75.5q0 66 36 114.5t93 72.5t125 24t124 -23.5t92 -71.5t37 -113h-104q-5 49 -43.5 80.5t-106.5 31.5q-43 0 -75 -12.5
t-50.5 -36.5t-18.5 -57q0 -73 100 -96l119 -30q43 -10 75.5 -25t58.5 -38t40 -56.5t14 -77.5q0 -103 -75.5 -161.5t-196.5 -58.5q-70 0 -122.5 19.5t-82 51.5t-43.5 67.5t-15 74.5zM263 838q0 26 15.5 43t40.5 17t42 -17t17 -43t-17 -42.5t-42 -16.5q-17 0 -29.5 7.5
t-19.5 21t-7 30.5z" />
    <glyph glyph-name="sdotaccent" unicode="&#x1e61;" horiz-adv-x="549" 
d="M65 392q0 57 30.5 96.5t76.5 56.5t103 17q91 0 146 -43t55 -115h-96q-2 19 -14 35.5t-36.5 28t-57.5 11.5q-47 0 -76 -20.5t-29 -56.5q0 -16 8 -29t18 -20.5t29.5 -13.5t32 -8.5t36.5 -6.5q3 -1 5 -1t4.5 -0.5t4.5 -1.5q43 -7 73.5 -17t57.5 -27.5t41 -45t14 -65.5
q0 -82 -61 -128.5t-164 -46.5q-96 0 -153.5 42t-57.5 115h103q11 -74 113 -74q59 0 88 22t29 57q0 16 -7.5 28.5t-17 20t-29.5 14t-33.5 9.5l-41.5 9q-6 1 -9 1q-35 7 -59 14t-49.5 19t-41 28t-25.5 40.5t-10 55.5zM219 676q0 26 15.5 43t40.5 17t42 -17t17 -43
q0 -17 -8 -30.5t-21 -20.5t-30 -7q-25 0 -40.5 16t-15.5 42z" />
    <glyph glyph-name="Sdotbelow" unicode="&#x1e62;" horiz-adv-x="640" 
d="M249 -130q0 27 17 44t43 17t43.5 -17t17.5 -44t-17 -43.5t-43.5 -16.5t-43.5 16.5t-17 43.5zM46 198h106q3 -33 22 -58.5t56.5 -41.5t88.5 -16q71 0 112 30.5t41 81.5q0 41 -27.5 65t-86.5 39l-121 29q-35 9 -64.5 23.5t-54.5 37t-39 56t-14 75.5q0 66 36 114.5t93 72.5
t125 24t124 -23.5t92 -71.5t37 -113h-104q-5 49 -43.5 80.5t-106.5 31.5q-43 0 -75 -12.5t-50.5 -36.5t-18.5 -57q0 -73 100 -96l119 -30q43 -10 75.5 -25t58.5 -38t40 -56.5t14 -77.5q0 -103 -75.5 -161.5t-196.5 -58.5q-70 0 -122.5 19.5t-82 51.5t-43.5 67.5t-15 74.5z
" />
    <glyph glyph-name="sdotbelow" unicode="&#x1e63;" horiz-adv-x="549" 
d="M215 -130q0 27 17 44t43 17t43.5 -17t17.5 -44t-17 -43.5t-43.5 -16.5t-43.5 16.5t-17 43.5zM65 392q0 57 30.5 96.5t76.5 56.5t103 17q91 0 146 -43t55 -115h-96q-2 19 -14 35.5t-36.5 28t-57.5 11.5q-47 0 -76 -20.5t-29 -56.5q0 -16 8 -29t18 -20.5t29.5 -13.5
t32 -8.5t36.5 -6.5q3 -1 5 -1t4.5 -0.5t4.5 -1.5q43 -7 73.5 -17t57.5 -27.5t41 -45t14 -65.5q0 -82 -61 -128.5t-164 -46.5q-96 0 -153.5 42t-57.5 115h103q11 -74 113 -74q59 0 88 22t29 57q0 16 -7.5 28.5t-17 20t-29.5 14t-33.5 9.5l-41.5 9q-6 1 -9 1q-35 7 -59 14
t-49.5 19t-41 28t-25.5 40.5t-10 55.5z" />
    <glyph glyph-name="Sacutedotaccent" unicode="&#x1e64;" horiz-adv-x="640" 
d="M129 866q0 17 8 31t21 21.5t28 7.5q17 0 30.5 -7.5t21 -21.5t7.5 -31q0 -25 -17 -41.5t-42 -16.5q-24 0 -40.5 16.5t-16.5 41.5zM297 790l136 111h119l-146 -111h-109zM46 198h106q3 -33 22 -58.5t56.5 -41.5t88.5 -16q71 0 112 30.5t41 81.5q0 41 -27.5 65t-86.5 39
l-121 29q-35 9 -64.5 23.5t-54.5 37t-39 56t-14 75.5q0 66 36 114.5t93 72.5t125 24t124 -23.5t92 -71.5t37 -113h-104q-5 49 -43.5 80.5t-106.5 31.5q-43 0 -75 -12.5t-50.5 -36.5t-18.5 -57q0 -73 100 -96l119 -30q43 -10 75.5 -25t58.5 -38t40 -56.5t14 -77.5
q0 -103 -75.5 -161.5t-196.5 -58.5q-70 0 -122.5 19.5t-82 51.5t-43.5 67.5t-15 74.5z" />
    <glyph glyph-name="sacutedotaccent" unicode="&#x1e65;" horiz-adv-x="549" 
d="M111 764q0 26 17 44t42 18q26 0 43.5 -18t17.5 -44t-17.5 -43.5t-43.5 -17.5q-24 0 -41.5 17.5t-17.5 43.5zM65 392q0 57 30.5 96.5t76.5 56.5t103 17q91 0 146 -43t55 -115h-96q-2 19 -14 35.5t-36.5 28t-57.5 11.5q-47 0 -76 -20.5t-29 -56.5q0 -16 8 -29t18 -20.5
t29.5 -13.5t32 -8.5t36.5 -6.5q3 -1 5 -1t4.5 -0.5t4.5 -1.5q43 -7 73.5 -17t57.5 -27.5t41 -45t14 -65.5q0 -82 -61 -128.5t-164 -46.5q-96 0 -153.5 42t-57.5 115h103q11 -74 113 -74q59 0 88 22t29 57q0 16 -7.5 28.5t-17 20t-29.5 14t-33.5 9.5l-41.5 9q-6 1 -9 1
q-35 7 -59 14t-49.5 19t-41 28t-25.5 40.5t-10 55.5zM306 642l125 186h100l-145 -186h-80z" />
    <glyph glyph-name="Scarondotaccent" unicode="&#x1e66;" horiz-adv-x="640" 
d="M263 971q0 26 15.5 42.5t40.5 16.5t42 -16.5t17 -42.5t-17 -42.5t-42 -16.5q-12 0 -22.5 4.5t-18 12t-11.5 18.5t-4 24zM46 198h106q3 -33 22 -58.5t56.5 -41.5t88.5 -16q71 0 112 30.5t41 81.5q0 41 -27.5 65t-86.5 39l-121 29q-35 9 -64.5 23.5t-54.5 37t-39 56
t-14 75.5q0 66 36 114.5t93 72.5t125 24t124 -23.5t92 -71.5t37 -113h-104q-5 49 -43.5 80.5t-106.5 31.5q-43 0 -75 -12.5t-50.5 -36.5t-18.5 -57q0 -73 100 -96l119 -30q43 -10 75.5 -25t58.5 -38t40 -56.5t14 -77.5q0 -103 -75.5 -161.5t-196.5 -58.5q-70 0 -122.5 19.5
t-82 51.5t-43.5 67.5t-15 74.5zM140 898h99l79 -63h5l72 63h102l-124 -112h-102z" />
    <glyph glyph-name="scarondotaccent" unicode="&#x1e67;" horiz-adv-x="549" 
d="M214 899q0 27 17 44.5t42 17.5q12 0 23.5 -4.5t19.5 -13t12.5 -20t4.5 -24.5q0 -26 -17.5 -43.5t-42.5 -17.5q-17 0 -30 8t-21 22t-8 31zM107 815h87l78 -128h3l74 128h87l-125 -192h-72zM65 392q0 57 30.5 96.5t76.5 56.5t103 17q91 0 146 -43t55 -115h-96
q-2 19 -14 35.5t-36.5 28t-57.5 11.5q-47 0 -76 -20.5t-29 -56.5q0 -16 8 -29t18 -20.5t29.5 -13.5t32 -8.5t36.5 -6.5q3 -1 5 -1t4.5 -0.5t4.5 -1.5q43 -7 73.5 -17t57.5 -27.5t41 -45t14 -65.5q0 -82 -61 -128.5t-164 -46.5q-96 0 -153.5 42t-57.5 115h103q11 -74 113 -74
q59 0 88 22t29 57q0 16 -7.5 28.5t-17 20t-29.5 14t-33.5 9.5l-41.5 9q-6 1 -9 1q-35 7 -59 14t-49.5 19t-41 28t-25.5 40.5t-10 55.5z" />
    <glyph glyph-name="Sdotbelowdotaccent" unicode="&#x1e68;" horiz-adv-x="640" 
d="M249 -130q0 27 17 44t43 17t43.5 -17t17.5 -44t-17 -43.5t-43.5 -16.5t-43.5 16.5t-17 43.5zM46 198h106q3 -33 22 -58.5t56.5 -41.5t88.5 -16q71 0 112 30.5t41 81.5q0 41 -27.5 65t-86.5 39l-121 29q-35 9 -64.5 23.5t-54.5 37t-39 56t-14 75.5q0 66 36 114.5t93 72.5
t125 24t124 -23.5t92 -71.5t37 -113h-104q-5 49 -43.5 80.5t-106.5 31.5q-43 0 -75 -12.5t-50.5 -36.5t-18.5 -57q0 -73 100 -96l119 -30q43 -10 75.5 -25t58.5 -38t40 -56.5t14 -77.5q0 -103 -75.5 -161.5t-196.5 -58.5q-70 0 -122.5 19.5t-82 51.5t-43.5 67.5t-15 74.5z
M263 838q0 26 15.5 43t40.5 17t42 -17t17 -43t-17 -42.5t-42 -16.5q-17 0 -29.5 7.5t-19.5 21t-7 30.5z" />
    <glyph glyph-name="sdotbelowdotaccent" unicode="&#x1e69;" horiz-adv-x="549" 
d="M215 -130q0 27 17 44t43 17t43.5 -17t17.5 -44t-17 -43.5t-43.5 -16.5t-43.5 16.5t-17 43.5zM65 392q0 57 30.5 96.5t76.5 56.5t103 17q91 0 146 -43t55 -115h-96q-2 19 -14 35.5t-36.5 28t-57.5 11.5q-47 0 -76 -20.5t-29 -56.5q0 -16 8 -29t18 -20.5t29.5 -13.5
t32 -8.5t36.5 -6.5q3 -1 5 -1t4.5 -0.5t4.5 -1.5q43 -7 73.5 -17t57.5 -27.5t41 -45t14 -65.5q0 -82 -61 -128.5t-164 -46.5q-96 0 -153.5 42t-57.5 115h103q11 -74 113 -74q59 0 88 22t29 57q0 16 -7.5 28.5t-17 20t-29.5 14t-33.5 9.5l-41.5 9q-6 1 -9 1q-35 7 -59 14
t-49.5 19t-41 28t-25.5 40.5t-10 55.5zM219 676q0 26 15.5 43t40.5 17t42 -17t17 -43q0 -17 -8 -30.5t-21 -20.5t-30 -7q-25 0 -40.5 16t-15.5 42z" />
    <glyph glyph-name="Tdotaccent" unicode="&#x1e6a;" horiz-adv-x="579" 
d="M233 838q0 26 16 43t41 17t41.5 -17t16.5 -43t-16.5 -42.5t-41.5 -16.5q-17 0 -29.5 7.5t-20 21t-7.5 30.5zM343 0h-108v615h-211v99h532v-99h-213v-615z" />
    <glyph glyph-name="tdotaccent" unicode="&#x1e6b;" horiz-adv-x="411" 
d="M120 806.5q0 26.5 15.5 43t40.5 16.5t42 -17t17 -42.5t-16.5 -42t-42.5 -16.5q-25 0 -40.5 16t-15.5 42.5zM124 549v138h104v-138h124v-90h-124v-295q0 -45 18.5 -61.5t67.5 -16.5q27 0 45 2v-87q-21 -5 -71 -5q-96 0 -130.5 36.5t-34.5 122.5v304h-84v90h85z" />
    <glyph glyph-name="Tdotbelow" unicode="&#x1e6c;" horiz-adv-x="579" 
d="M230 -130q0 27 16.5 44t43 17t43.5 -17t17 -44t-17 -43.5t-43.5 -16.5t-43 16.5t-16.5 43.5zM343 0h-108v615h-211v99h532v-99h-213v-615z" />
    <glyph glyph-name="tdotbelow" unicode="&#x1e6d;" horiz-adv-x="411" 
d="M172 -130q0 27 16.5 44t43 17t43.5 -17t17 -44t-17 -43.5t-43.5 -16.5t-43 16.5t-16.5 43.5zM124 549v138h104v-138h124v-90h-124v-295q0 -45 18.5 -61.5t67.5 -16.5q27 0 45 2v-87q-21 -5 -71 -5q-96 0 -130.5 36.5t-34.5 122.5v304h-84v90h85z" />
    <glyph glyph-name="Tlinebelow" unicode="&#x1e6e;" horiz-adv-x="579" 
d="M446 -167h-304v66h304v-66zM343 0h-108v615h-211v99h532v-99h-213v-615z" />
    <glyph glyph-name="tlinebelow" unicode="&#x1e6f;" horiz-adv-x="411" 
d="M388 -167h-304v66h304v-66zM124 549v138h104v-138h124v-90h-124v-295q0 -45 18.5 -61.5t67.5 -16.5q27 0 45 2v-87q-21 -5 -71 -5q-96 0 -130.5 36.5t-34.5 122.5v304h-84v90h85z" />
    <glyph glyph-name="Tcircumflexbelow" unicode="&#x1e70;" horiz-adv-x="579" 
d="M343 0h-108v615h-211v99h532v-99h-213v-615zM110 -195l145 132h72l139 -132h-98l-77 73h-3l-82 -73h-96z" />
    <glyph glyph-name="tcircumflexbelow" unicode="&#x1e71;" horiz-adv-x="411" 
d="M124 549v138h104v-138h124v-90h-124v-295q0 -45 18.5 -61.5t67.5 -16.5q27 0 45 2v-87q-21 -5 -71 -5q-96 0 -130.5 36.5t-34.5 122.5v304h-84v90h85zM52 -195l145 132h72l139 -132h-98l-77 73h-3l-82 -73h-96z" />
    <glyph glyph-name="Udieresisbelow" unicode="&#x1e72;" horiz-adv-x="729" 
d="M196 714v-459q0 -39 12 -70.5t33.5 -53t53 -33.5t70.5 -12q77 0 123 45.5t46 123.5v459h107v-466q0 -118 -76 -190.5t-200.5 -72.5t-200.5 73t-76 192v464h108zM207 -142q0 26 17 42.5t43 16.5t43 -17t17 -42t-17 -42t-43 -17t-43 17t-17 42zM403 -142q0 25 17 42t42 17
q27 0 44.5 -16.5t17.5 -42.5q0 -25 -17.5 -42t-44.5 -17q-25 0 -42 17t-17 42z" />
    <glyph glyph-name="udieresisbelow" unicode="&#x1e73;" horiz-adv-x="637" 
d="M547 552v-552h-104v92h-6q-8 -25 -27 -46.5t-55 -38t-81 -16.5q-87 0 -137.5 44.5t-50.5 137.5v379h106v-350q0 -115 115 -115q57 0 95.5 35.5t38.5 87.5v342h106zM161 -142q0 26 17 42.5t43 16.5t43 -17t17 -42t-17 -42t-43 -17t-43 17t-17 42zM357 -142q0 25 17 42
t42 17q27 0 44.5 -16.5t17.5 -42.5q0 -7 -1.5 -14t-4.5 -12.5t-7 -10.5t-9.5 -9t-11.5 -7t-13.5 -4.5t-14.5 -1.5q-25 0 -42 17t-17 42z" />
    <glyph glyph-name="Utildebelow" unicode="&#x1e74;" horiz-adv-x="729" 
d="M350 -165q0 1 -4.5 5.5l-6 6t-5.5 5t-6.5 5t-6.5 3.5t-8 2.5t-8 0.5q-32 0 -36 -51h-66q0 47 25 80.5t72 33.5q42 0 82 -36q2 -3 8 -9t8.5 -8l7.5 -6t10 -5t10 -1q18 0 27 17.5t11 39.5h65q0 -29 -11.5 -55.5t-34 -43.5t-51.5 -17t-46.5 8.5t-35.5 24.5zM196 714v-459
q0 -39 12 -70.5t33.5 -53t53 -33.5t70.5 -12q77 0 123 45.5t46 123.5v459h107v-466q0 -118 -76 -190.5t-200.5 -72.5t-200.5 73t-76 192v464h108z" />
    <glyph glyph-name="utildebelow" unicode="&#x1e75;" horiz-adv-x="637" 
d="M304 -165l-4.5 4.5t-5 5.5t-4.5 5t-5.5 4.5t-5.5 3.5t-6 3t-6.5 1.5t-7.5 0.5q-32 0 -36 -51h-66q0 47 25 80.5t72 33.5q42 0 82 -36q2 -3 8 -9t8.5 -8l7.5 -6t10 -5t10 -1q18 0 27 17.5t11 39.5h65q0 -46 -27 -81t-70 -35q-29 0 -46.5 8.5t-35.5 24.5zM547 552v-552
h-104v92h-6q-8 -25 -27 -46.5t-55 -38t-81 -16.5q-87 0 -137.5 44.5t-50.5 137.5v379h106v-350q0 -115 115 -115q57 0 95.5 35.5t38.5 87.5v342h106z" />
    <glyph glyph-name="Ucircumflexbelow" unicode="&#x1e76;" horiz-adv-x="729" 
d="M196 714v-459q0 -39 12 -70.5t33.5 -53t53 -33.5t70.5 -12q77 0 123 45.5t46 123.5v459h107v-466q0 -118 -76 -190.5t-200.5 -72.5t-200.5 73t-76 192v464h108zM185 -195l145 132h72l139 -132h-98l-77 73h-4l-82 -73h-95z" />
    <glyph glyph-name="ucircumflexbelow" unicode="&#x1e77;" horiz-adv-x="637" 
d="M547 552v-552h-104v92h-6q-8 -25 -27 -46.5t-55 -38t-81 -16.5q-87 0 -137.5 44.5t-50.5 137.5v379h106v-350q0 -115 115 -115q57 0 95.5 35.5t38.5 87.5v342h106zM139 -195l145 132h72l139 -132h-99l-76 73h-4l-82 -73h-95z" />
    <glyph glyph-name="Utildeacute" unicode="&#x1e78;" horiz-adv-x="729" 
d="M289 910l136 111h120l-146 -111h-110zM196 714v-459q0 -39 12 -70.5t33.5 -53t53 -33.5t70.5 -12q77 0 123 45.5t46 123.5v459h107v-466q0 -118 -76 -190.5t-200.5 -72.5t-200.5 73t-76 192v464h108zM350 796l-4.5 5t-6 6t-5.5 4.5t-6.5 5t-6.5 3.5t-8 3t-8 1
q-32 0 -36 -51h-66q0 46 25 80t72 34q42 0 82 -37l8 -8l8.5 -8.5t7.5 -6t10 -5t10 -1.5q9 0 16.5 5.5t11.5 14.5t6.5 18.5t3.5 18.5h65q0 -45 -27 -80.5t-70 -35.5q-29 0 -46.5 8.5t-35.5 25.5z" />
    <glyph glyph-name="utildeacute" unicode="&#x1e79;" horiz-adv-x="637" 
d="M547 552v-552h-104v92h-6q-8 -25 -27 -46.5t-55 -38t-81 -16.5q-87 0 -137.5 44.5t-50.5 137.5v379h106v-350q0 -115 115 -115q57 0 95.5 35.5t38.5 87.5v342h106zM291 784l125 185h101l-146 -185h-80zM305 648l-8 11t-9 9.5t-13 8t-15 2.5q-33 0 -37 -62h-66
q0 58 26.5 97.5t72.5 39.5q13 0 24 -2t20.5 -7t18.5 -13t17 -20q2 -2 7.5 -10t7.5 -10.5t7 -7.5t10.5 -6.5t12.5 -1.5q17 0 26.5 21t10.5 48h66q0 -54 -28.5 -96t-69.5 -42q-53 0 -81 41z" />
    <glyph glyph-name="Umacrondieresis" unicode="&#x1e7a;" horiz-adv-x="729" 
d="M211 965q0 25 16.5 41t41.5 16q26 0 42 -16t16 -41q0 -10 -2.5 -18.5t-7.5 -15.5t-12.5 -12t-16.5 -7.5t-19 -2.5q-16 0 -29.5 7t-21 20t-7.5 29zM401 965q0 25 16.5 41t41.5 16q26 0 42.5 -16t16.5 -41q0 -8 -2 -15.5t-5.5 -13.5t-9 -11t-12 -8.5t-14.5 -5.5t-16 -2
q-25 0 -41.5 16t-16.5 40zM196 714v-459q0 -39 12 -70.5t33.5 -53t53 -33.5t70.5 -12q77 0 123 45.5t46 123.5v459h107v-466q0 -118 -76 -190.5t-200.5 -72.5t-200.5 73t-76 192v464h108zM519 787h-309v65h309v-65z" />
    <glyph glyph-name="umacrondieresis" unicode="&#x1e7b;" horiz-adv-x="637" 
d="M547 552v-552h-104v92h-6q-8 -25 -27 -46.5t-55 -38t-81 -16.5q-87 0 -137.5 44.5t-50.5 137.5v379h106v-350q0 -115 115 -115q57 0 95.5 35.5t38.5 87.5v342h106zM472 644h-304v66h304v-66zM162 836q0 26 17 42.5t43 16.5t43 -16.5t17 -42.5q0 -25 -17 -42t-43 -17
q-17 0 -31 8t-21.5 21t-7.5 30zM358 836q0 17 8 30.5t21.5 21t29.5 7.5q27 0 44.5 -16.5t17.5 -42.5q0 -25 -17.5 -42t-44.5 -17q-16 0 -29.5 7.5t-21.5 21t-8 30.5z" />
    <glyph glyph-name="Vtilde" unicode="&#x1e7c;" horiz-adv-x="663" 
d="M318 796q-1 0 -5.5 5t-6 6t-5.5 4.5t-6.5 5t-6.5 3.5t-7.5 3t-7.5 1q-33 0 -37 -51h-65q0 29 9.5 54t32 42.5t54.5 17.5q42 0 82 -37l8 -8l8.5 -8.5t7.5 -6t10 -5t10 -1.5q18 0 27 17.5t11 39.5h65q0 -29 -11.5 -55.5t-34 -43.5t-51.5 -17t-46.5 8.5t-34.5 25.5zM391 0
h-119l-251 714h124l186 -583h5l184 583h122z" />
    <glyph glyph-name="vtilde" unicode="&#x1e7d;" horiz-adv-x="552" 
d="M263 648q-7 10 -11.5 15t-14 10.5t-19.5 5.5q-34 0 -37 -62h-66q0 58 26.5 97.5t72.5 39.5q26 0 44.5 -9.5t35.5 -32.5q2 -2 7 -10t7.5 -10.5l7.5 -7.5t10.5 -6.5t11.5 -1.5q17 0 26.5 21t11.5 48h66q0 -54 -29 -96t-70 -42q-52 0 -80 41zM217 0l-191 552h116l128 -441h5
l140 441h112l-198 -552h-112z" />
    <glyph glyph-name="Vdotbelow" unicode="&#x1e7e;" horiz-adv-x="663" 
d="M271 -130q0 27 17 44t43.5 17t43.5 -17t17 -44t-17 -43.5t-43.5 -16.5t-43.5 16.5t-17 43.5zM391 0h-119l-251 714h124l186 -583h5l184 583h122z" />
    <glyph glyph-name="vdotbelow" unicode="&#x1e7f;" horiz-adv-x="552" 
d="M216 -130q0 27 17 44t43.5 17t43.5 -17t17 -44t-17 -43.5t-43.5 -16.5t-43.5 16.5t-17 43.5zM217 0l-191 552h116l128 -441h5l140 441h112l-198 -552h-112z" />
    <glyph glyph-name="Wgrave" unicode="&#x1e80;" horiz-adv-x="915" 
d="M528 789h-105l-146 110h117zM311 0h-98l-193 714h121l124 -547h5l136 547h104l135 -547h6l124 547h121l-194 -714h-98l-144 532h-5z" />
    <glyph glyph-name="wgrave" unicode="&#x1e81;" horiz-adv-x="808" 
d="M457 642h-79l-146 186h101zM780 552l-146 -552h-106l-119 410h-4l-116 -410h-107l-153 552h115l93 -422h4l116 422h100l118 -422h5l95 422h105z" />
    <glyph glyph-name="Wacute" unicode="&#x1e82;" horiz-adv-x="915" 
d="M383 789l136 111h119l-146 -111h-109zM311 0h-98l-193 714h121l124 -547h5l136 547h104l135 -547h6l124 547h121l-194 -714h-98l-144 532h-5z" />
    <glyph glyph-name="wacute" unicode="&#x1e83;" horiz-adv-x="808" 
d="M377 642l125 186h101l-146 -186h-80zM780 552l-146 -552h-106l-119 410h-4l-116 -410h-107l-153 552h115l93 -422h4l116 422h100l118 -422h5l95 422h105z" />
    <glyph glyph-name="Wdieresis" unicode="&#x1e84;" horiz-adv-x="915" 
d="M304 826q0 13 4.5 23.5t12 18t18.5 11.5t23 4q26 0 42.5 -15.5t16.5 -41.5q0 -16 -7.5 -28.5t-21 -20t-30.5 -7.5q-25 0 -41.5 16t-16.5 40zM494 826q0 13 4.5 23.5t12 18t18.5 11.5t23 4q26 0 42.5 -16t16.5 -41q0 -24 -16.5 -40t-42.5 -16q-25 0 -41.5 16t-16.5 40z
M311 0h-98l-193 714h121l124 -547h5l136 547h104l135 -547h6l124 547h121l-194 -714h-98l-144 532h-5z" />
    <glyph glyph-name="wdieresis" unicode="&#x1e85;" horiz-adv-x="808" 
d="M247 685q0 25 17.5 42t43.5 17t43 -17t17 -42q0 -17 -8 -30.5t-21.5 -21t-30.5 -7.5q-26 0 -43.5 17t-17.5 42zM444 685q0 25 17 42t42 17q27 0 44.5 -16.5t17.5 -42.5q0 -25 -17.5 -42t-44.5 -17q-25 0 -42 17t-17 42zM780 552l-146 -552h-106l-119 410h-4l-116 -410
h-107l-153 552h115l93 -422h4l116 422h100l118 -422h5l95 422h105z" />
    <glyph glyph-name="Wdotaccent" unicode="&#x1e86;" horiz-adv-x="915" 
d="M402 838q0 17 7 30.5t20 21.5t29 8q25 0 42 -17t17 -43t-16.5 -42.5t-42.5 -16.5q-16 0 -29 7.5t-20 21t-7 30.5zM311 0h-98l-193 714h121l124 -547h5l136 547h104l135 -547h6l124 547h121l-194 -714h-98l-144 532h-5z" />
    <glyph glyph-name="wdotaccent" unicode="&#x1e87;" horiz-adv-x="808" 
d="M348 676q0 26 15.5 43t40.5 17q26 0 42.5 -17t16.5 -43q0 -17 -7.5 -30.5t-21 -20.5t-30 -7t-29.5 7t-20 20.5t-7 30.5zM780 552l-146 -552h-106l-119 410h-4l-116 -410h-107l-153 552h115l93 -422h4l116 422h100l118 -422h5l95 422h105z" />
    <glyph glyph-name="Wdotbelow" unicode="&#x1e88;" horiz-adv-x="915" 
d="M398 -130q0 27 17 44t43.5 17t43.5 -17t17 -44t-17 -43.5t-43.5 -16.5t-43.5 16.5t-17 43.5zM311 0h-98l-193 714h121l124 -547h5l136 547h104l135 -547h6l124 547h121l-194 -714h-98l-144 532h-5z" />
    <glyph glyph-name="wdotbelow" unicode="&#x1e89;" horiz-adv-x="808" 
d="M344 -130q0 27 17 44t43.5 17t43.5 -17t17 -44t-17 -43.5t-43.5 -16.5t-43.5 16.5t-17 43.5zM780 552l-146 -552h-106l-119 410h-4l-116 -410h-107l-153 552h115l93 -422h4l116 422h100l118 -422h5l95 422h105z" />
    <glyph glyph-name="Xdotaccent" unicode="&#x1e8a;" horiz-adv-x="626" 
d="M613 714l-234 -359l229 -355h-127l-170 268h-5l-171 -268h-119l229 360l-227 354h129l169 -270h6l168 270h123zM257 838q0 26 15.5 43t40.5 17q26 0 42.5 -17t16.5 -43t-16.5 -42.5t-42.5 -16.5q-16 0 -29 7.5t-20 21t-7 30.5z" />
    <glyph glyph-name="xdotaccent" unicode="&#x1e8b;" horiz-adv-x="568" 
d="M407 0l-123 197h-4l-124 -197h-116l180 274l-183 278h125l120 -196h5l124 196h118l-185 -271l186 -281h-123zM228 676q0 26 16 43t41 17t41.5 -17t16.5 -43q0 -13 -4.5 -24t-12 -18.5t-18.5 -11.5t-23 -4q-10 0 -19 2.5t-16 7.5t-12 12.5t-7.5 16.5t-2.5 19z" />
    <glyph glyph-name="Xdieresis" unicode="&#x1e8c;" horiz-adv-x="626" 
d="M613 714l-234 -359l229 -355h-127l-170 268h-5l-171 -268h-119l229 360l-227 354h129l169 -270h6l168 270h123zM160 826q0 25 16 41t41 16q17 0 30.5 -7t21 -20t7.5 -30q0 -24 -16.5 -40t-42.5 -16q-25 0 -41 16t-16 40zM349 826q0 25 16.5 41t41.5 16q26 0 42.5 -16
t16.5 -41q0 -16 -7.5 -28.5t-21 -20t-30.5 -7.5q-25 0 -41.5 16t-16.5 40z" />
    <glyph glyph-name="xdieresis" unicode="&#x1e8d;" horiz-adv-x="568" 
d="M407 0l-123 197h-4l-124 -197h-116l180 274l-183 278h125l120 -196h5l124 196h118l-185 -271l186 -281h-123zM128 685q0 25 17 42t43 17q13 0 24 -4.5t19 -12t12.5 -19t4.5 -23.5q0 -25 -17 -42t-43 -17q-17 0 -31 7.5t-21.5 21t-7.5 30.5zM324 685q0 25 17 42t42 17
q27 0 44.5 -16.5t17.5 -42.5q0 -25 -17.5 -42t-44.5 -17q-16 0 -29.5 7.5t-21.5 21t-8 30.5z" />
    <glyph glyph-name="Ydotaccent" unicode="&#x1e8e;" horiz-adv-x="607" 
d="M357 0h-107v290l-238 424h121l168 -310h6l170 310h119l-239 -423v-291zM247 838q0 26 16 43t41 17t41.5 -17t16.5 -43t-16.5 -42.5t-41.5 -16.5q-17 0 -29.5 7.5t-20 21t-7.5 30.5z" />
    <glyph glyph-name="ydotaccent" unicode="&#x1e8f;" horiz-adv-x="578" 
d="M541 552l-191 -546l-14 -38q-14 -39 -28 -65t-36.5 -51.5t-56 -38t-78.5 -12.5q-34 0 -63 5v86q14 -3 43 -3q47 0 70.5 20t34.5 62l8 24l-200 557h117l139 -448h4l139 448h112zM233 676q0 26 15.5 43t40.5 17t42 -17t17 -43q0 -17 -7.5 -30.5t-21 -20.5t-30.5 -7
q-12 0 -22.5 4t-18 11.5t-11.5 18.5t-4 24z" />
    <glyph glyph-name="Zcircumflex" unicode="&#x1e90;" horiz-adv-x="632" 
d="M58 0v78l369 531v7h-357v98h490v-77l-368 -532v-7h377v-98h-511zM142 783l145 129h71l139 -129h-97l-77 71h-4l-82 -71h-95z" />
    <glyph glyph-name="zcircumflex" unicode="&#x1e91;" horiz-adv-x="538" 
d="M101 641l132 192h72l125 -192h-87l-74 124h-2l-79 -124h-87zM62 0v70l285 384v5h-285v93h415v-73l-282 -380v-5h285v-94h-418z" />
    <glyph glyph-name="Zdotbelow" unicode="&#x1e92;" horiz-adv-x="632" 
d="M256 -130q0 27 17 44t43.5 17t43.5 -17t17 -44t-17 -43.5t-43.5 -16.5t-43.5 16.5t-17 43.5zM58 0v78l369 531v7h-357v98h490v-77l-368 -532v-7h377v-98h-511z" />
    <glyph glyph-name="zdotbelow" unicode="&#x1e93;" horiz-adv-x="538" 
d="M209 -130q0 27 17 44t43.5 17t43.5 -17t17 -44t-17 -43.5t-43.5 -16.5t-43.5 16.5t-17 43.5zM62 0v70l285 384v5h-285v93h415v-73l-282 -380v-5h285v-94h-418z" />
    <glyph glyph-name="Zlinebelow" unicode="&#x1e94;" horiz-adv-x="632" 
d="M58 0v78l369 531v7h-357v98h490v-77l-368 -532v-7h377v-98h-511zM472 -167h-304v66h304v-66z" />
    <glyph glyph-name="zlinebelow" unicode="&#x1e95;" horiz-adv-x="538" 
d="M425 -167h-304v66h304v-66zM62 0v70l285 384v5h-285v93h415v-73l-282 -380v-5h285v-94h-418z" />
    <glyph glyph-name="hlinebelow" unicode="&#x1e96;" horiz-adv-x="643" 
d="M92 0v752h105v-298h6q5 16 16 33t30 34.5t51 28.5t72 11q83 0 134 -48.5t51 -139.5v-373h-106v341q0 61 -31.5 93t-85.5 32q-43 0 -74.5 -21t-47 -56t-15.5 -81v-308h-105zM474 -167h-303v66h303v-66z" />
    <glyph glyph-name="tdieresis" unicode="&#x1e97;" horiz-adv-x="411" 
d="M124 549v138h104v-138h124v-90h-124v-295q0 -45 18.5 -61.5t67.5 -16.5q27 0 45 2v-87q-21 -5 -71 -5q-96 0 -130.5 36.5t-34.5 122.5v304h-84v90h85zM19 815q0 26 17.5 42.5t43.5 16.5t43 -16.5t17 -42.5q0 -25 -17.5 -42t-42.5 -17q-26 0 -43.5 17t-17.5 42zM216 815
q0 26 17 42.5t42 16.5q27 0 44.5 -16.5t17.5 -42.5q0 -25 -17.5 -42t-44.5 -17q-25 0 -42 17t-17 42z" />
    <glyph glyph-name="wring" unicode="&#x1e98;" horiz-adv-x="808" 
d="M780 552l-146 -552h-106l-119 410h-4l-116 -410h-107l-153 552h115l93 -422h4l116 422h100l118 -422h5l95 422h105zM404 622q-43 0 -73 29.5t-30 74.5q0 28 13.5 51.5t37.5 37t52 13.5q29 0 52.5 -13.5t37.5 -36.5t14 -52q0 -45 -30 -74.5t-74 -29.5zM353 725
q0 -22 14.5 -37t36.5 -15q15 0 27 7t18.5 19t6.5 26q0 22 -15 37t-37 15t-36.5 -15t-14.5 -37z" />
    <glyph glyph-name="yring" unicode="&#x1e99;" horiz-adv-x="578" 
d="M541 552l-191 -546l-14 -38q-14 -39 -28 -65t-36.5 -51.5t-56 -38t-78.5 -12.5q-34 0 -63 5v86q14 -3 43 -3q47 0 70.5 20t34.5 62l8 24l-200 557h117l139 -448h4l139 448h112zM289 622q-43 0 -73 29.5t-30 73.5t30 73.5t73 29.5q44 0 74 -29t30 -73q0 -30 -14 -53.5
t-37.5 -37t-52.5 -13.5zM237 725q0 -22 15 -37t37 -15q15 0 26.5 7t18.5 19t7 26q0 22 -15 37t-37 15t-37 -15t-15 -37z" />
    <glyph glyph-name="Adotbelow" unicode="&#x1ea0;" horiz-adv-x="665" 
d="M134 0h-108l249 714h116l249 -714h-115l-67 199h-257zM332 592h-4l-100 -304h205zM273 -130q0 18 7.5 32t21 21.5t31.5 7.5q26 0 43 -17t17 -44t-17 -43.5t-43.5 -16.5t-43 16.5t-16.5 43.5z" />
    <glyph glyph-name="adotbelow" unicode="&#x1ea1;" horiz-adv-x="588" 
d="M240 -9q-53 0 -94 21t-63.5 59.5t-22.5 89.5q0 74 50.5 118.5t143.5 44.5h142v52q0 32 -13.5 53t-37.5 30.5t-58 9.5q-89 0 -105 -62h-101q5 71 59 112.5t150 41.5q45 0 82 -10t67 -31.5t46.5 -58.5t16.5 -86v-375h-101v72h-5q-49 -81 -156 -81zM271 79q53 0 89 30.5
t36 76.5v61h-129q-50 0 -75.5 -22t-25.5 -59q0 -41 30.5 -64t74.5 -23zM234 -130q0 18 8 32t21.5 21.5t30.5 7.5q27 0 44 -17t17 -44t-17 -43.5t-43.5 -16.5t-43.5 16.5t-17 43.5z" />
    <glyph glyph-name="Ahookabove" unicode="&#x1ea2;" horiz-adv-x="665" 
d="M134 0h-108l249 714h116l249 -714h-115l-67 199h-257zM332 592h-4l-100 -304h205zM263 879v51q20 8 52 8q30 0 53 -9t36.5 -27t13.5 -43q0 -13 -3.5 -23.5t-10 -19t-13.5 -15t-16.5 -12t-15.5 -8.5l-14 -7l-35 44q17 5 30.5 14.5t13.5 21.5q0 30 -45 30q-22 0 -46 -5z
" />
    <glyph glyph-name="ahookabove" unicode="&#x1ea3;" horiz-adv-x="588" 
d="M240 -9q-53 0 -94 21t-63.5 59.5t-22.5 89.5q0 74 50.5 118.5t143.5 44.5h142v52q0 32 -13.5 53t-37.5 30.5t-58 9.5q-89 0 -105 -62h-101q5 71 59 112.5t150 41.5q45 0 82 -10t67 -31.5t46.5 -58.5t16.5 -86v-375h-101v72h-5q-49 -81 -156 -81zM271 79q53 0 89 30.5
t36 76.5v61h-129q-50 0 -75.5 -22t-25.5 -59q0 -41 30.5 -64t74.5 -23zM220 756v59q24 9 58 9q52 0 83 -25.5t31 -70.5q0 -39 -21.5 -63.5t-61.5 -45.5l-36 47q18 10 29 19t16 18t5 20q0 18 -15 29.5t-38 11.5q-27 0 -50 -8z" />
    <glyph glyph-name="Acircumflexacute" unicode="&#x1ea4;" horiz-adv-x="665" 
d="M134 0h-108l249 714h116l249 -714h-115l-67 199h-257zM332 592h-4l-100 -304h205zM146 787l142 117h94l136 -117h-101l-81 66h-4l-82 -66h-104zM439 906l100 113h102l-160 -146z" />
    <glyph glyph-name="acircumflexacute" unicode="&#x1ea5;" horiz-adv-x="588" 
d="M240 -9q-53 0 -94 21t-63.5 59.5t-22.5 89.5q0 74 50.5 118.5t143.5 44.5h142v52q0 32 -13.5 53t-37.5 30.5t-58 9.5q-89 0 -105 -62h-101q5 71 59 112.5t150 41.5q45 0 82 -10t67 -31.5t46.5 -58.5t16.5 -86v-375h-101v72h-5q-49 -81 -156 -81zM271 79q53 0 89 30.5
t36 76.5v61h-129q-50 0 -75.5 -22t-25.5 -59q0 -41 30.5 -64t74.5 -23zM108 625l142 117h94l136 -117h-101l-81 67h-5l-82 -67h-103zM401 745l100 112h102l-160 -146z" />
    <glyph glyph-name="Acircumflexgrave" unicode="&#x1ea6;" horiz-adv-x="665" 
d="M134 0h-108l249 714h116l249 -714h-115l-67 199h-257zM332 592h-4l-100 -304h205zM572 889h-75l-137 130h100zM146 787l142 117h94l136 -117h-101l-81 66h-4l-82 -66h-104z" />
    <glyph glyph-name="acircumflexgrave" unicode="&#x1ea7;" horiz-adv-x="588" 
d="M240 -9q-53 0 -94 21t-63.5 59.5t-22.5 89.5q0 74 50.5 118.5t143.5 44.5h142v52q0 32 -13.5 53t-37.5 30.5t-58 9.5q-89 0 -105 -62h-101q5 71 59 112.5t150 41.5q45 0 82 -10t67 -31.5t46.5 -58.5t16.5 -86v-375h-101v72h-5q-49 -81 -156 -81zM271 79q53 0 89 30.5
t36 76.5v61h-129q-50 0 -75.5 -22t-25.5 -59q0 -41 30.5 -64t74.5 -23zM534 728h-75l-137 129h100zM108 625l142 117h94l136 -117h-101l-81 67h-5l-82 -67h-103z" />
    <glyph glyph-name="Acircumflexhookabove" unicode="&#x1ea8;" horiz-adv-x="665" 
d="M134 0h-108l249 714h116l249 -714h-115l-67 199h-257zM332 592h-4l-100 -304h205zM146 787l142 117h94l136 -117h-101l-81 66h-4l-82 -66h-104zM422 977v53q17 5 47 5q46 0 72.5 -20.5t26.5 -57.5q0 -52 -60 -87l-35 39q28 19 28 38q0 16 -13 24.5t-33 8.5t-33 -3z" />
    <glyph glyph-name="acircumflexhookabove" unicode="&#x1ea9;" horiz-adv-x="588" 
d="M240 -9q-53 0 -94 21t-63.5 59.5t-22.5 89.5q0 74 50.5 118.5t143.5 44.5h142v52q0 32 -13.5 53t-37.5 30.5t-58 9.5q-89 0 -105 -62h-101q5 71 59 112.5t150 41.5q45 0 82 -10t67 -31.5t46.5 -58.5t16.5 -86v-375h-101v72h-5q-49 -81 -156 -81zM271 79q53 0 89 30.5
t36 76.5v61h-129q-50 0 -75.5 -22t-25.5 -59q0 -41 30.5 -64t74.5 -23zM108 625l142 117h94l136 -117h-101l-81 67h-5l-82 -67h-103zM383 815v53q18 5 48 5t52 -9t34 -26.5t12 -42.5q0 -52 -59 -86l-35 38q27 19 27 39q0 10 -6 17.5t-16 11t-23 3.5q-20 0 -34 -3z" />
    <glyph glyph-name="Acircumflextilde" unicode="&#x1eaa;" horiz-adv-x="665" 
d="M134 0h-108l249 714h116l249 -714h-115l-67 199h-257zM332 592h-4l-100 -304h205zM328 955q0 1 -3.5 4t-4.5 3.5t-4 3.5l-4 4t-4 3t-5 3l-5 2.5t-5.5 2t-5.5 1t-6 0.5q-33 0 -37 -50h-67q0 28 10.5 52t33.5 40.5t56 16.5q42 0 82 -35q2 -1 7 -5.5t6 -6t5.5 -5t7 -4.5
t6 -3t7 -2.5t7.5 -0.5q18 0 27.5 16.5t11.5 38.5h67q0 -46 -27.5 -78.5t-71.5 -32.5q-30 0 -48 8t-36 24zM146 784l142 114h94l136 -114h-101l-81 65h-4l-82 -65h-104z" />
    <glyph glyph-name="acircumflextilde" unicode="&#x1eab;" horiz-adv-x="588" 
d="M240 -9q-53 0 -94 21t-63.5 59.5t-22.5 89.5q0 74 50.5 118.5t143.5 44.5h142v52q0 32 -13.5 53t-37.5 30.5t-58 9.5q-89 0 -105 -62h-101q5 71 59 112.5t150 41.5q45 0 82 -10t67 -31.5t46.5 -58.5t16.5 -86v-375h-101v72h-5q-49 -81 -156 -81zM271 79q53 0 89 30.5
t36 76.5v61h-129q-50 0 -75.5 -22t-25.5 -59q0 -41 30.5 -64t74.5 -23zM290 794q-1 0 -3 2q-6 6 -9.5 9t-9.5 7t-12 6t-13 2q-33 0 -37 -50h-67q0 44 26 76.5t74 32.5q42 0 82 -35q1 -1 6 -5.5t6.5 -5.5t6 -4.5l6.5 -5t6 -3t7.5 -2t7.5 -0.5q13 0 21.5 9t12.5 20.5t5 24.5
h67q0 -46 -27.5 -78t-72.5 -32q-30 0 -47.5 8t-35.5 24zM108 622l142 114h94l136 -114h-101l-81 66h-5l-82 -66h-103z" />
    <glyph glyph-name="Acircumflexdotbelow" unicode="&#x1eac;" horiz-adv-x="665" 
d="M134 0h-108l249 714h116l249 -714h-115l-67 199h-257zM332 592h-4l-100 -304h205zM273 -130q0 18 7.5 32t21 21.5t31.5 7.5q26 0 43 -17t17 -44t-17 -43.5t-43.5 -16.5t-43 16.5t-16.5 43.5zM158 783l145 129h71l139 -129h-97l-77 71h-4l-82 -71h-95z" />
    <glyph glyph-name="acircumflexdotbelow" unicode="&#x1ead;" horiz-adv-x="588" 
d="M240 -9q-53 0 -94 21t-63.5 59.5t-22.5 89.5q0 74 50.5 118.5t143.5 44.5h142v52q0 32 -13.5 53t-37.5 30.5t-58 9.5q-89 0 -105 -62h-101q5 71 59 112.5t150 41.5q45 0 82 -10t67 -31.5t46.5 -58.5t16.5 -86v-375h-101v72h-5q-49 -81 -156 -81zM271 79q53 0 89 30.5
t36 76.5v61h-129q-50 0 -75.5 -22t-25.5 -59q0 -41 30.5 -64t74.5 -23zM127 641l131 192h72l126 -192h-88l-74 124h-2l-79 -124h-86zM234 -130q0 18 8 32t21.5 21.5t30.5 7.5q27 0 44 -17t17 -44t-17 -43.5t-43.5 -16.5t-43.5 16.5t-17 43.5z" />
    <glyph glyph-name="Abreveacute" unicode="&#x1eae;" horiz-adv-x="665" 
d="M134 0h-108l249 714h116l249 -714h-115l-67 199h-257zM332 592h-4l-100 -304h205zM482 900q0 -25 -9 -47.5t-26.5 -40.5t-47 -28.5t-66.5 -10.5q-74 0 -113.5 37t-39.5 90h67q1 -13 6.5 -25t16 -21t26.5 -14t37 -5q27 0 46.5 8.5t29.5 23t10 33.5h63zM279 903l131 125h94
l-142 -125h-83z" />
    <glyph glyph-name="abreveacute" unicode="&#x1eaf;" horiz-adv-x="588" 
d="M240 -9q-53 0 -94 21t-63.5 59.5t-22.5 89.5q0 74 50.5 118.5t143.5 44.5h142v52q0 32 -13.5 53t-37.5 30.5t-58 9.5q-89 0 -105 -62h-101q5 71 59 112.5t150 41.5q45 0 82 -10t67 -31.5t46.5 -58.5t16.5 -86v-375h-101v72h-5q-49 -81 -156 -81zM271 79q53 0 89 30.5
t36 76.5v61h-129q-50 0 -75.5 -22t-25.5 -59q0 -41 30.5 -64t74.5 -23zM444 739q0 -54 -38 -91t-112 -37q-49 0 -84.5 18.5t-51.5 46.5t-16 63h67q0 -11 3.5 -21t11 -18t17.5 -14t23.5 -9.5t29.5 -3.5q21 0 37.5 5t27 14t16.5 21t6 26h63zM241 742l130 125h95l-142 -125h-83
z" />
    <glyph glyph-name="Abrevegrave" unicode="&#x1eb0;" horiz-adv-x="665" 
d="M134 0h-108l249 714h116l249 -714h-115l-67 199h-257zM332 592h-4l-100 -304h205zM482 900q0 -53 -38 -90t-111 -37q-74 0 -113.5 36.5t-39.5 90.5h67q0 -18 10 -33t29.5 -23.5t46.5 -8.5q40 0 63 18.5t23 46.5h63zM394 903h-84l-143 125h96z" />
    <glyph glyph-name="abrevegrave" unicode="&#x1eb1;" horiz-adv-x="588" 
d="M240 -9q-53 0 -94 21t-63.5 59.5t-22.5 89.5q0 74 50.5 118.5t143.5 44.5h142v52q0 32 -13.5 53t-37.5 30.5t-58 9.5q-89 0 -105 -62h-101q5 71 59 112.5t150 41.5q45 0 82 -10t67 -31.5t46.5 -58.5t16.5 -86v-375h-101v72h-5q-49 -81 -156 -81zM271 79q53 0 89 30.5
t36 76.5v61h-129q-50 0 -75.5 -22t-25.5 -59q0 -41 30.5 -64t74.5 -23zM444 739q0 -54 -38 -91t-112 -37q-73 0 -112.5 37t-39.5 91h67q0 -19 9.5 -33.5t29.5 -23.5t46 -9q41 0 63.5 18.5t23.5 47.5h63zM356 742h-84l-143 125h96z" />
    <glyph glyph-name="Abrevehookabove" unicode="&#x1eb2;" horiz-adv-x="665" 
d="M134 0h-108l249 714h116l249 -714h-115l-67 199h-257zM332 592h-4l-100 -304h205zM482 893q0 -51 -38 -86t-111 -35t-113 35t-40 87h67q0 -13 6 -24t16.5 -19.5t27 -13.5t36.5 -5q40 0 63 18t23 43h63zM242 977v53q25 8 55 8q45 0 75 -21t30 -58q0 -32 -23.5 -53
t-52.5 -30l-35 44q17 3 30 12t13 22q0 28 -45 28q-24 0 -47 -5z" />
    <glyph glyph-name="abrevehookabove" unicode="&#x1eb3;" horiz-adv-x="588" 
d="M240 -9q-53 0 -94 21t-63.5 59.5t-22.5 89.5q0 74 50.5 118.5t143.5 44.5h142v52q0 32 -13.5 53t-37.5 30.5t-58 9.5q-89 0 -105 -62h-101q5 71 59 112.5t150 41.5q45 0 82 -10t67 -31.5t46.5 -58.5t16.5 -86v-375h-101v72h-5q-49 -81 -156 -81zM271 79q53 0 89 30.5
t36 76.5v61h-129q-50 0 -75.5 -22t-25.5 -59q0 -41 30.5 -64t74.5 -23zM444 732q0 -52 -38 -87t-112 -35q-72 0 -112 35t-40 87h67q0 -10 3.5 -19t10.5 -17t17.5 -13.5t24 -9t29.5 -3.5q40 0 63.5 18t23.5 44h63zM204 815v53q25 9 54 9q46 0 76 -21t30 -58q0 -33 -24 -53.5
t-52 -30.5l-35 44q17 4 30 12.5t13 21.5q0 28 -45 28q-24 0 -47 -5z" />
    <glyph glyph-name="Abrevetilde" unicode="&#x1eb4;" horiz-adv-x="665" 
d="M134 0h-108l249 714h116l249 -714h-115l-67 199h-257zM332 592h-4l-100 -304h205zM482 889q0 -24 -9.5 -45.5t-27.5 -38t-47 -26.5t-65 -10q-72 0 -112.5 34.5t-40.5 85.5h67q0 -27 23.5 -44t62.5 -17t62.5 17t23.5 44h63zM319 953q-1 1 -3 2q-22 24 -40 24
q-30 0 -34 -46h-65q0 42 26 73.5t68 31.5q23 0 39 -7.5t35 -25.5q1 -1 6.5 -6t6.5 -6.5t5.5 -5t7.5 -4.5t7.5 -2t8.5 -1q16 0 25 15.5t10 35.5h64q0 -45 -26 -76t-67 -31q-45 0 -74 29z" />
    <glyph glyph-name="abrevetilde" unicode="&#x1eb5;" horiz-adv-x="588" 
d="M240 -9q-53 0 -94 21t-63.5 59.5t-22.5 89.5q0 74 50.5 118.5t143.5 44.5h142v52q0 32 -13.5 53t-37.5 30.5t-58 9.5q-89 0 -105 -62h-101q5 71 59 112.5t150 41.5q45 0 82 -10t67 -31.5t46.5 -58.5t16.5 -86v-375h-101v72h-5q-49 -81 -156 -81zM271 79q53 0 89 30.5
t36 76.5v61h-129q-50 0 -75.5 -22t-25.5 -59q0 -41 30.5 -64t74.5 -23zM444 728q0 -51 -39 -86t-111 -35q-71 0 -111.5 35t-40.5 86h67q0 -27 23 -44.5t62 -17.5q40 0 63.5 17t23.5 45h63zM280 791q0 1 -2 3q-22 23 -40 23q-31 0 -34 -46h-65q0 42 26 73.5t68 31.5
q23 0 39 -7.5t35 -24.5q1 -2 5 -6t6 -5.5t5.5 -4.5t5.5 -4t5.5 -3t7 -2.5t7.5 -0.5q16 0 25 15.5t10 35.5h64q0 -45 -26 -76t-67 -31q-45 0 -75 29z" />
    <glyph glyph-name="Abrevedotbelow" unicode="&#x1eb6;" horiz-adv-x="665" 
d="M134 0h-108l249 714h116l249 -714h-115l-67 199h-257zM332 592h-4l-100 -304h205zM273 -130q0 18 7.5 32t21 21.5t31.5 7.5q26 0 43 -17t17 -44t-17 -43.5t-43.5 -16.5t-43 16.5t-16.5 43.5zM162 918h70q0 -38 25.5 -60t75.5 -22t75.5 22t25.5 60h69q0 -41 -18.5 -73.5
t-57.5 -51.5t-94 -19q-83 0 -127 40t-44 104z" />
    <glyph glyph-name="abrevedotbelow" unicode="&#x1eb7;" horiz-adv-x="588" 
d="M240 -9q-53 0 -94 21t-63.5 59.5t-22.5 89.5q0 74 50.5 118.5t143.5 44.5h142v52q0 32 -13.5 53t-37.5 30.5t-58 9.5q-89 0 -105 -62h-101q5 71 59 112.5t150 41.5q45 0 82 -10t67 -31.5t46.5 -58.5t16.5 -86v-375h-101v72h-5q-49 -81 -156 -81zM271 79q53 0 89 30.5
t36 76.5v61h-129q-50 0 -75.5 -22t-25.5 -59q0 -41 30.5 -64t74.5 -23zM234 -130q0 18 8 32t21.5 21.5t30.5 7.5q27 0 44 -17t17 -44t-17 -43.5t-43.5 -16.5t-43.5 16.5t-17 43.5zM154 775h69q0 -17 5.5 -32t15.5 -27t27 -19.5t39 -7.5q43 0 65.5 25t22.5 61h68
q-1 -60 -40.5 -105.5t-115 -45.5t-116 45.5t-40.5 105.5z" />
    <glyph glyph-name="Edotbelow" unicode="&#x1eb8;" horiz-adv-x="607" 
d="M253 -130q0 27 17 44t43.5 17t43.5 -17t17 -44t-17 -43.5t-43.5 -16.5t-43.5 16.5t-17 43.5zM535 98v-98h-439v714h439v-98h-332v-206h313v-94h-313v-218h332z" />
    </font>
</defs>
</svg>
