<?xml version="1.0" standalone="no"?>
<!DOCTYPE svg PUBLIC "-//W3C//DTD SVG 1.1//EN" "http://www.w3.org/Graphics/SVG/1.1/DTD/svg11.dtd" >
<svg>
<metadata>
Created by FontForge 20090622 at Mon Aug  8 10:43:30 2016
 By deploy user
&#194;&#169; 2014 Apple Inc. All rights reserved.
</metadata>
<defs>
<font id=".HelveticaNeueDeskInterface-Bold" horiz-adv-x="605" >
  <font-face 
    font-family=".System San Francisco Text"
    font-weight="700"
    font-stretch="normal"
    units-per-em="984"
    panose-1="0 0 0 0 0 0 0 0 0 0"
    ascent="787"
    descent="-197"
    x-height="557"
    cap-height="714"
    bbox="-324 -267 1098 1050"
    underline-thickness="102"
    underline-position="-59"
    unicode-range="U+0020-U+FB02"
  />
<missing-glyph horiz-adv-x="676" 
d="M63 0v714h551v-714h-551zM262 164q0 -17 8 -29.5t22 -19.5t33 -7q29 0 46.5 15.5t17.5 40.5q0 12 -4.5 22.5t-13 18t-20.5 11.5t-26 4q-28 0 -45.5 -15.5t-17.5 -40.5zM177 464h89q0 32 17.5 50t47.5 18q19 0 33 -7t22 -20t8 -30q0 -20 -10.5 -34.5t-43.5 -37.5
q-36 -26 -50 -53t-12 -63l1 -9h87v8q0 25 10 39.5t46 40.5q38 27 53.5 53t15.5 61q0 59 -42 94.5t-113 35.5q-49 0 -85.5 -17.5t-55.5 -50.5t-18 -78z" />
    <glyph glyph-name=".notdef" horiz-adv-x="676" 
d="M63 0v714h551v-714h-551zM262 164q0 -17 8 -29.5t22 -19.5t33 -7q29 0 46.5 15.5t17.5 40.5q0 12 -4.5 22.5t-13 18t-20.5 11.5t-26 4q-28 0 -45.5 -15.5t-17.5 -40.5zM177 464h89q0 32 17.5 50t47.5 18q19 0 33 -7t22 -20t8 -30q0 -20 -10.5 -34.5t-43.5 -37.5
q-36 -26 -50 -53t-12 -63l1 -9h87v8q0 25 10 39.5t46 40.5q38 27 53.5 53t15.5 61q0 59 -42 94.5t-113 35.5q-49 0 -85.5 -17.5t-55.5 -50.5t-18 -78z" />
    <glyph glyph-name=".null" horiz-adv-x="0" 
 />
    <glyph glyph-name="nonmarkingreturn" horiz-adv-x="0" 
 />
    <glyph glyph-name="space" unicode=" " horiz-adv-x="237" 
 />
    <glyph glyph-name="exclam" unicode="!" horiz-adv-x="322" 
d="M65 73q0 38 26.5 61t69.5 23t69.5 -23t26.5 -61t-26 -60.5t-70 -22.5q-43 0 -69.5 22.5t-26.5 60.5zM81 714h162l-18 -475h-127z" />
    <glyph glyph-name="quotedbl" unicode="&#x22;" horiz-adv-x="546" 
d="M63 714h160l-19 -299h-122zM324 714h160l-19 -299h-122z" />
    <glyph glyph-name="numbersign" unicode="#" horiz-adv-x="674" 
d="M628 423h-109l-25 -123h103l-20 -111h-105l-37 -189h-111l37 189h-114l-38 -189h-111l38 189h-101l20 111h102l26 123h-98l20 110h100l36 181h112l-38 -181h115l36 181h111l-36 -181h107zM286 435l-30 -148h135l30 148h-135z" />
    <glyph glyph-name="dollar" unicode="$" horiz-adv-x="647" 
d="M194 529q0 -60 75 -84q11 -4 19 -6v179q-42 -5 -68 -28t-26 -61zM470 201q0 17 -5 31t-16 25.5t-29 20.5t-42 16q-7 2 -12 3v-192q47 4 75.5 29.5t28.5 66.5zM367 -67h-81v65q-60 4 -106 23.5t-73 49.5t-41 64t-14 72h124q3 -40 32 -68t80 -34v207l-43 10
q-78 18 -128 66.5t-50 130.5q0 90 61 142.5t159 62.5v67h80v-68q48 -5 87.5 -22t68 -43t44.5 -61.5t17 -76.5h-122q-1 36 -26.5 63.5t-69.5 34.5v-195l44 -10q87 -19 137 -66t50 -134q0 -92 -62.5 -148t-168.5 -66z" />
    <glyph glyph-name="percent" unicode="%" horiz-adv-x="751" 
d="M105 545v-6q0 -31 8 -53t21.5 -33t32.5 -11q29 0 46 25t17 71v6q0 46 -16.5 71t-45.5 25q-30 0 -46.5 -25t-16.5 -70zM13 534v16q0 75 42 124t113 49t113 -49t42 -125v-17q0 -73 -42 -123.5t-115 -50.5q-71 0 -112 49.5t-41 126.5zM524 177v-5q0 -47 17 -72t45 -25
q29 0 46 25t17 71v6q0 31 -8 52.5t-21.5 32.5t-32.5 11q-30 0 -46.5 -25t-16.5 -71zM432 166v17q0 75 42 124t113 49t113 -49t42 -125v-16q0 -74 -42 -124.5t-115 -50.5q-47 0 -82 23t-53 62.5t-18 89.5zM155 -1h-109l291 377l259 338h109l-287 -369z" />
    <glyph glyph-name="ampersand" unicode="&#x26;" horiz-adv-x="739" 
d="M571 0l-55 58q-86 -73 -219 -73q-113 0 -181 54.5t-68 146.5q0 64 34 108.5t97 80.5l33 17q-29 30 -46.5 52t-30 51t-12.5 59q0 73 58 119.5t144 46.5q52 0 96.5 -18t73 -56t28.5 -89q0 -63 -39 -106t-105 -79l136 -143q25 44 25 133v39h119v-47q0 -134 -60 -215
l132 -139h-160zM258 304q-76 -41 -76 -107q0 -49 37 -76.5t92 -27.5q36 0 72 12t58 36l-163 173q-11 -5 -20 -10zM312 440q30 15 48.5 29t31 34t12.5 43t-10.5 40.5t-28 26.5t-40.5 9q-34 0 -56.5 -21.5t-22.5 -54.5q0 -24 14.5 -47t51.5 -59z" />
    <glyph glyph-name="quotesingle" unicode="'" horiz-adv-x="286" 
d="M63 714h160l-19 -299h-122z" />
    <glyph glyph-name="parenleft" unicode="(" horiz-adv-x="379" 
d="M208 713h135q-18 -21 -37 -54.5t-39.5 -84.5t-33.5 -124t-13 -153q0 -65 9 -126t20 -101t31.5 -87t30.5 -65.5t31 -54.5h-139q-133 165 -133 433q0 82 11.5 149t34.5 118t42.5 81.5t49.5 68.5z" />
    <glyph glyph-name="parenright" unicode=")" horiz-adv-x="379" 
d="M37 713h134q30 -38 49.5 -68.5t43 -81.5t35 -118t11.5 -149q0 -268 -134 -433h-138q25 43 39 72t36.5 86t34 126.5t11.5 149.5t-13 153t-33.5 124t-39 84.5t-36.5 54.5z" />
    <glyph glyph-name="asterisk" unicode="*" horiz-adv-x="514" 
d="M308 303h-103l20 159l-129 -98l-51 92l151 61l-151 61l51 92l130 -100l-21 161h103l-22 -161l130 100l51 -92l-151 -61l151 -61l-51 -92l-129 98z" />
    <glyph glyph-name="plus" unicode="+" horiz-adv-x="647" 
d="M388 224v-217h-127v217h-205v131h205v210h127v-210h205v-131h-205z" />
    <glyph glyph-name="comma" unicode="," horiz-adv-x="272" 
d="M130 -178h-115l57 328h147z" />
    <glyph glyph-name="hyphen" unicode="-" horiz-adv-x="439" 
d="M384 225h-329v136h329v-136z" />
    <glyph glyph-name="period" unicode="." horiz-adv-x="328" 
d="M69 83q0 42 27 68t68 26t68 -26t27 -68.5t-27 -67.5t-68 -25t-68 25.5t-27 67.5z" />
    <glyph glyph-name="slash" unicode="/" horiz-adv-x="385" 
d="M140 -150h-132l240 902h132z" />
    <glyph glyph-name="zero" unicode="0" horiz-adv-x="676" 
d="M215 373v-32q0 -55 9 -98.5t25 -71.5t38.5 -42.5t50.5 -14.5q57 0 90.5 59t33.5 168v32q0 110 -33 168t-90.5 58t-90.5 -58t-33 -168zM63 341v33q0 160 74 256.5t203 96.5q87 0 149 -44.5t93.5 -123.5t31.5 -185v-33q0 -101 -30.5 -180t-94 -127t-152.5 -48
q-129 0 -201.5 97t-72.5 258z" />
    <glyph glyph-name="one" unicode="1" horiz-adv-x="514" 
d="M388 0h-151v566h-7l-161 -114v142l168 120h151v-714z" />
    <glyph glyph-name="two" unicode="2" horiz-adv-x="630" 
d="M209 495h-143v9q0 27 7 54t20 52t34 46.5t47.5 37t62.5 24.5t77 9q112 0 180 -57t68 -144q0 -34 -8.5 -63.5t-27.5 -57.5t-33.5 -45t-42.5 -47q-9 -10 -13 -14l-157 -165v-7h294v-127h-500v98l260 272q18 19 28.5 31.5t24 31.5t20 38t6.5 40q0 39 -29 65.5t-73 26.5
q-31 0 -54.5 -14t-35.5 -36t-12 -48v-10z" />
    <glyph glyph-name="three" unicode="3" horiz-adv-x="644" 
d="M235 308v119h76q47 0 76.5 26t29.5 65q0 40 -30 65t-76 25t-75.5 -25.5t-32.5 -60.5h-140q4 91 70.5 148t182.5 57q75 0 131.5 -24t86.5 -66.5t30 -96.5q1 -36 -12 -66.5t-33.5 -49.5t-43 -30.5t-42.5 -14.5v-9q26 -2 51.5 -13.5t48.5 -31t37.5 -52t15.5 -72.5
q0 -68 -38 -117.5t-99.5 -73.5t-136.5 -24q-120 0 -189.5 60t-71.5 148h138q2 -24 18 -43.5t43.5 -31t61.5 -11.5q56 0 90 28t34 73q-1 43 -33.5 71t-87.5 28h-80z" />
    <glyph glyph-name="four" unicode="4" horiz-adv-x="665" 
d="M320 714h217v-462h85v-125h-85v-127h-142v127h-345v127l67 121.5l60.5 104l76 125.5zM185 252h210v346h-7q-131 -205 -203 -342v-4z" />
    <glyph glyph-name="five" unicode="5" horiz-adv-x="656" 
d="M72 189h138q7 -37 41.5 -58.5t79.5 -21.5q52 0 88.5 35t36.5 92q0 27 -10 50t-26.5 38t-39.5 24t-48 9q-42 0 -70.5 -18.5t-42.5 -42.5h-132l29 419h445v-126h-325l-15 -176h8q13 22 51 41.5t92 19.5q97 0 163.5 -62t66.5 -170q0 -77 -34.5 -135t-96 -89.5t-142.5 -31.5
q-112 0 -183 58t-74 145z" />
    <glyph glyph-name="six" unicode="6" horiz-adv-x="673" 
d="M598 542h-143q-9 26 -35.5 44t-67.5 18q-68 0 -107 -66.5t-36 -167.5h9q11 26 32 47t57 35.5t81 14.5q59 0 109 -25t83 -78t33 -125q0 -118 -74.5 -185t-192.5 -67q-157 0 -229 120q-54 88 -54 235q0 189 77 287t214 98q57 0 104 -17t76 -44t45.5 -59t18.5 -65zM225 232
q0 -37 16.5 -65t43.5 -43t61 -15q35 0 62 14t43 42t16 67q0 37 -16.5 65t-43.5 41.5t-60 13.5q-54 0 -88 -33.5t-34 -86.5z" />
    <glyph glyph-name="seven" unicode="7" horiz-adv-x="604" 
d="M55 714h499v-129l-289 -585h-159l297 581v6h-348v127z" />
    <glyph glyph-name="eight" unicode="8" horiz-adv-x="680" 
d="M341 97q56 0 93 31t37 80t-37 80.5t-93 31.5q-57 0 -94 -31.5t-37 -80.5t37 -80t94 -31zM340.5 423q46.5 0 77.5 27t31 69.5t-30.5 69.5t-78 27t-78 -27t-30.5 -69.5t31 -69.5t77.5 -27zM339 -14q-127 0 -203.5 58.5t-76.5 152.5q0 40 14 73t37 53.5t48 32.5t52 17v7
q-53 17 -88 56t-35 103q0 82 70 135t184 53q75 0 132.5 -24.5t88.5 -67t31 -96.5q0 -64 -35 -103.5t-87 -55.5v-7q26 -5 51 -17t48.5 -32.5t37 -53t13.5 -73.5q0 -94 -77 -152.5t-205 -58.5z" />
    <glyph glyph-name="nine" unicode="9" horiz-adv-x="672" 
d="M78 166h143q3 -11 11 -21t20.5 -18t30.5 -13t38 -5q76 0 112.5 65t33.5 168h-9q-15 -41 -58.5 -68.5t-108.5 -27.5q-96 0 -163 61.5t-67 172.5q0 114 75 181t192 67q60 0 108.5 -19t88.5 -60t62 -113t22 -170q0 -186 -73.5 -282.5t-216.5 -96.5q-57 0 -103 16t-74.5 42
t-44.5 57t-19 64zM446 483q0 38 -15.5 66.5t-43 43t-62.5 14.5q-52 0 -85.5 -33.5t-33.5 -90.5q0 -38 16.5 -66t43 -42t60.5 -14q52 0 86 32.5t34 89.5z" />
    <glyph glyph-name="colon" unicode=":" horiz-adv-x="338" 
d="M74 424q0 42 27 68t67 26q14 0 26.5 -3t23 -8.5t19.5 -14t15 -19t9.5 -23t3.5 -26.5q0 -43 -27.5 -68t-69.5 -25q-40 0 -67 25.5t-27 67.5zM74 83q0 42 27 68t67 26q42 0 69.5 -26t27.5 -68q0 -43 -27.5 -68t-69.5 -25q-40 0 -67 25.5t-27 67.5z" />
    <glyph glyph-name="semicolon" unicode=";" horiz-adv-x="336" 
d="M76 425q0 43 27 68.5t68 25.5t68.5 -26t27.5 -68q0 -17 -5 -32t-13.5 -26t-20.5 -19t-26.5 -12t-30.5 -4q-41 0 -68 25.5t-27 67.5zM155 -214h-119l58 338h153z" />
    <glyph glyph-name="less" unicode="&#x3c;" horiz-adv-x="647" 
d="M78 230v96l488 268v-153l-317 -157v-7l317 -154v-150z" />
    <glyph glyph-name="equal" unicode="=" horiz-adv-x="647" 
d="M572 113h-496v121h496v-121zM572 344h-496v120h496v-120z" />
    <glyph glyph-name="greater" unicode="&#x3e;" horiz-adv-x="647" 
d="M566 326v-96l-488 -257v150l318 154v7l-318 157v153z" />
    <glyph glyph-name="question" unicode="?" horiz-adv-x="540" 
d="M161 73q0 38 26 61t69 23q44 0 70.5 -23t26.5 -61t-26.5 -60.5t-70.5 -22.5q-42 0 -68.5 22.5t-26.5 60.5zM34 513q-2 56 18 98.5t55 67t77 37t90 12.5q99 0 166 -50.5t67 -143.5q0 -27 -6.5 -50t-15 -38.5t-24.5 -31.5t-27.5 -25.5t-30.5 -22.5q-29 -20 -40.5 -29
t-24.5 -23t-16.5 -28.5t-3.5 -35.5v-26h-132l-1 28q-7 104 92 171q44 30 62.5 50.5t18.5 52.5q0 40 -27 60.5t-66 20.5q-30 0 -52 -12.5t-32.5 -33.5t-11.5 -48h-135z" />
    <glyph glyph-name="at" unicode="@" horiz-adv-x="925" 
d="M683 70q-49 0 -85 20.5t-46 55.5h-4q-10 -35 -43.5 -55.5t-77.5 -20.5q-68 0 -107.5 46t-39.5 126v60q0 76 40 122t109 46q46 0 74.5 -22t36.5 -52h4v66h99v-261q0 -24 15 -38t39 -14q34 0 58 43t24 126v15q0 118 -82 199t-218 81h-5q-142 0 -230.5 -89.5t-88.5 -238.5
v-20q0 -65 17 -118.5t46 -90.5t69 -62.5t85 -37t95 -11.5h5q96 0 148 23v-85q-47 -21 -153 -21h-5q-86 0 -158.5 26t-126.5 75.5t-84.5 126t-30.5 172.5v26q0 184 114.5 296.5t297.5 112.5h4q92 0 167.5 -29.5t124 -79.5t74.5 -115t26 -137v-25q0 -107 -50.5 -174
t-136.5 -67zM388 258q0 -99 73 -99t73 93v43q0 45 -21 67t-53 22q-33 0 -52.5 -24.5t-19.5 -73.5v-28z" />
    <glyph glyph-name="A" unicode="A" horiz-adv-x="692" 
d="M172 0h-152l237 714h180l235 -714h-162l-52 173h-233zM346 568h-8l-83 -279h173z" />
    <glyph glyph-name="B" unicode="B" horiz-adv-x="689" 
d="M87 0v714h304q97 0 155.5 -46.5t58.5 -128.5q0 -65 -34.5 -105t-89.5 -52v-6q45 -4 80 -24t57.5 -59t22.5 -91q0 -95 -70 -148.5t-179 -53.5h-305zM237 599v-178h90q130 0 130 91q0 42 -28 64.5t-74 22.5h-118zM237 315v-200h101q149 0 149 98q0 49 -32.5 75.5
t-90.5 26.5h-127z" />
    <glyph glyph-name="C" unicode="C" horiz-adv-x="699" 
d="M212 398v-84q0 -96 40 -145.5t111 -49.5q65 0 101 37.5t36 95.5h145v-17q0 -104 -76.5 -176.5t-208.5 -72.5q-142 0 -221.5 87t-79.5 241v84q0 154 80 241.5t222 87.5q129 0 206.5 -72.5t77.5 -181.5v-17h-145q0 58 -37 98.5t-101 40.5q-69 0 -109.5 -51t-40.5 -146z" />
    <glyph glyph-name="D" unicode="D" horiz-adv-x="726" 
d="M87 714h268q84 0 146.5 -25.5t100 -73.5t55.5 -111.5t18 -144.5t-18 -145t-55.5 -113t-100 -75t-146.5 -26h-268v714zM239 587v-460h94q92 0 139 52t47 177q0 231 -186 231h-94z" />
    <glyph glyph-name="E" unicode="E" horiz-adv-x="619" 
d="M553 127v-127h-466v714h466v-127h-316v-168h298v-118h-298v-174h316z" />
    <glyph glyph-name="F" unicode="F" horiz-adv-x="590" 
d="M239 0h-152v714h462v-129h-310v-184h283v-125h-283v-276z" />
    <glyph glyph-name="G" unicode="G" horiz-adv-x="712" 
d="M653 482h-147q-7 53 -45 83.5t-95 30.5q-71 0 -113 -49t-42 -145v-86q0 -91 38 -144.5t118 -53.5q65 0 104.5 34.5t39.5 84.5v38h-140v114h283v-141q0 -37 -9 -72.5t-31 -70t-54.5 -61t-82.5 -42.5t-112 -16q-78 0 -137.5 25t-96 70t-54.5 104t-18 130v88q0 148 82 236
t227 88q68 0 123 -20.5t89 -55.5t53 -78.5t20 -90.5z" />
    <glyph glyph-name="H" unicode="H" horiz-adv-x="765" 
d="M678 0h-151v299h-288v-299h-152v714h152v-286h288v286h151v-714z" />
    <glyph glyph-name="I" unicode="I" horiz-adv-x="326" 
d="M239 0h-152v714h152v-714z" />
    <glyph glyph-name="J" unicode="J" horiz-adv-x="593" 
d="M27 217h146q1 -42 26.5 -66t64.5 -24q96 0 96 105v482h152v-480q0 -122 -66 -185t-180 -63q-115 0 -177 66.5t-62 164.5z" />
    <glyph glyph-name="K" unicode="K" horiz-adv-x="693" 
d="M673 714l-253 -309l263 -405h-181l-193 300l-70 -78v-222h-152v714h152v-311h7l262 311h165z" />
    <glyph glyph-name="L" unicode="L" horiz-adv-x="563" 
d="M537 133v-133h-450v714h152v-581h298z" />
    <glyph glyph-name="M" unicode="M" horiz-adv-x="885" 
d="M224 0h-135v714h155l196 -433h6l196 433h155v-714h-137v458h-7l-163 -359h-95l-164 359h-7v-458z" />
    <glyph glyph-name="N" unicode="N" horiz-adv-x="751" 
d="M230 0h-143v714h124l305 -447h6v447h142v-714h-123l-305 450h-6v-450z" />
    <glyph glyph-name="O" unicode="O" horiz-adv-x="737" 
d="M213 400v-89q0 -95 42 -144.5t113 -49.5t113.5 49.5t42.5 144.5v89q0 95 -42.5 146t-113.5 51q-70 0 -112.5 -51t-42.5 -146zM59 311v87q0 153 82.5 241t227.5 88t227 -88.5t82 -240.5v-87q0 -151 -82.5 -238t-227.5 -87t-227 87t-82 238z" />
    <glyph glyph-name="P" unicode="P" horiz-adv-x="658" 
d="M87 714h291q114 0 179 -69t65 -174q0 -106 -65 -173.5t-180 -67.5h-138v-230h-152v714zM238 591v-241h80q74 0 112.5 28t38.5 93q0 38 -15 65t-42 41t-65 14h-109z" />
    <glyph glyph-name="Q" unicode="Q" horiz-adv-x="739" 
d="M60 314v85q0 151 84 239.5t226 88.5t226 -89t84 -239v-85q0 -162 -97 -251l89 -131h-148l-50 71q-50 -17 -104 -17q-142 0 -226 89t-84 239zM209 400v-89q0 -98 43 -150.5t114 -54.5q21 0 39 6l-67 99h136l23 -28q34 50 34 128v89q0 95 -44.5 146.5t-116.5 51.5
t-116.5 -51.5t-44.5 -146.5z" />
    <glyph glyph-name="R" unicode="R" horiz-adv-x="691" 
d="M378 714q63 0 112 -17.5t80 -48.5t46.5 -72.5t15.5 -91.5q0 -34 -8.5 -64t-21.5 -52t-30.5 -39.5t-34.5 -28t-34 -17.5l144 -283h-169l-124 260h-118v-260h-149v714h291zM236 375h118q58 0 90.5 27.5t32.5 79.5q0 54 -33.5 83t-87.5 29h-120v-219z" />
    <glyph glyph-name="S" unicode="S" horiz-adv-x="663" 
d="M44 206h146q3 -41 40.5 -69t101.5 -28q41 0 70.5 11.5t44 31.5t14.5 47q0 34 -26 53.5t-82 32.5l-108 23q-39 9 -71 24t-58 38.5t-40.5 58.5t-14.5 79q0 69 36.5 119.5t97 75.5t137.5 25q118 0 192.5 -60.5t75.5 -154.5h-141q-3 39 -36 66.5t-92 27.5q-55 0 -87 -23.5
t-32 -62.5q0 -60 98 -80l108 -23q42 -9 74.5 -23t60.5 -37t43 -59.5t15 -84.5q0 -105 -77 -166.5t-209 -61.5q-51 0 -93.5 9.5t-72.5 25.5t-52.5 37t-35.5 46t-19.5 50.5t-7.5 51.5z" />
    <glyph glyph-name="T" unicode="T" horiz-adv-x="593" 
d="M372 0h-151v583h-200v131h552v-131h-201v-583z" />
    <glyph glyph-name="U" unicode="U" horiz-adv-x="742" 
d="M231 714v-450q0 -69 38 -106.5t102 -37.5t102.5 37.5t38.5 106.5v450h151v-467q0 -118 -79.5 -189.5t-212 -71.5t-212 72t-79.5 190v466h151z" />
    <glyph glyph-name="V" unicode="V" horiz-adv-x="686" 
d="M437 0h-185l-235 714h175l153 -545h7l150 545h168z" />
    <glyph glyph-name="W" unicode="W" horiz-adv-x="949" 
d="M343 0h-140l-187 714h163l102 -500h7l123 500h129l122 -500h8l101 500h162l-187 -714h-140l-128 475h-6z" />
    <glyph glyph-name="X" unicode="X" horiz-adv-x="653" 
d="M649 714l-225 -357l222 -357h-173l-146 243h-7l-146 -243h-164l219 359l-217 355h177l142 -248h7l141 248h170z" />
    <glyph glyph-name="Y" unicode="Y" horiz-adv-x="636" 
d="M394 0h-151v259l-239 455h167l146 -298h6l147 298h163l-239 -451v-263z" />
    <glyph glyph-name="Z" unicode="Z" horiz-adv-x="646" 
d="M58 0v102l337 477v7h-329v128h513v-101l-337 -477v-8h347v-128h-531z" />
    <glyph glyph-name="bracketleft" unicode="[" horiz-adv-x="402" 
d="M70 714h285v-112h-145v-609h152v-112h-292v833z" />
    <glyph glyph-name="backslash" unicode="\" horiz-adv-x="385" 
d="M380 -150h-132l-240 902h132z" />
    <glyph glyph-name="bracketright" unicode="]" horiz-adv-x="402" 
d="M47 714h286v-833h-292v112h151v609h-145v112z" />
    <glyph glyph-name="asciicircum" unicode="^" horiz-adv-x="495" 
d="M464 416h-128l-85 177h-6l-88 -177h-125l154 298h126z" />
    <glyph glyph-name="underscore" unicode="_" horiz-adv-x="474" 
d="M475 -171h-476v117h476v-117z" />
    <glyph glyph-name="grave" unicode="`" horiz-adv-x="523" 
d="M367 645h-107l-146 184h129z" />
    <glyph glyph-name="a" unicode="a" 
d="M235 -8q-82 0 -132.5 45.5t-50.5 124.5q0 76 51.5 121t146.5 45h134v49q0 24 -11 41t-30 25t-46 8q-76 0 -86 -57h-139q5 75 60.5 123t166.5 48q40 0 73.5 -6t62.5 -20.5t50 -36.5t32.5 -55t11.5 -75v-372h-138v70h-7q-18 -34 -55 -56t-94 -22zM284 101q20 0 38.5 6
t32 17t21.5 26.5t8 33.5v57h-100q-42 0 -64 -18.5t-22 -49.5q0 -34 25 -53t61 -19z" />
    <glyph glyph-name="b" unicode="b" horiz-adv-x="657" 
d="M394 -7q-61 0 -102.5 26t-57.5 67h-8v-86h-145v752h148v-283h7q8 26 28.5 47t55 34.5t76.5 13.5q63 0 109 -28.5t71.5 -85.5t25.5 -137v-68q0 -120 -56 -186t-152 -66zM342 114q50 0 79 36t29 106v44q0 70 -29 106.5t-80.5 36.5t-81.5 -36t-30 -100v-62q0 -60 31 -95.5
t82 -35.5z" />
    <glyph glyph-name="c" unicode="c" horiz-adv-x="588" 
d="M54 250v62q0 115 68 185t183 70q108 0 170 -57.5t63 -145.5h-135q-2 21 -11 39t-30.5 31.5t-51.5 13.5q-51 0 -79.5 -37.5t-28.5 -100.5v-59q0 -44 13 -75.5t37 -48t58 -16.5q84 0 95 78h135q-2 -94 -65 -146.5t-170 -52.5q-76 0 -132 30t-87.5 89t-31.5 141z" />
    <glyph glyph-name="d" unicode="d" horiz-adv-x="658" 
d="M264 564q61 0 102 -25.5t56 -66.5h7v280h147v-752h-145v89h-7q-13 -41 -56 -68t-106 -27q-94 0 -150.5 65.5t-56.5 182.5v74q0 77 25.5 133t72.5 85.5t111 29.5zM315 443q-32 0 -56.5 -16t-38 -47.5t-13.5 -76.5v-49q0 -68 29.5 -104t80.5 -36t81.5 35.5t30.5 100.5v63
q0 60 -31.5 95t-82.5 35z" />
    <glyph glyph-name="e" unicode="e" 
d="M312 -10q-119 0 -188.5 67.5t-69.5 192.5v59q0 123 70.5 190.5t179.5 67.5q112 0 180.5 -70t68.5 -188v-63h-354v-26q0 -51 30.5 -82.5t81.5 -31.5q40 0 67.5 17t32.5 43h137q-2 -29 -16.5 -58.5t-41.5 -56.5t-73.5 -44t-104.5 -17zM199 335h212v4q0 52 -29 84t-76.5 32
t-77 -32t-29.5 -84v-4z" />
    <glyph glyph-name="f" unicode="f" horiz-adv-x="444" 
d="M129 0v433h-90v117h90v55q0 85 45.5 121.5t148.5 36.5q34 0 81 -5v-106q-22 3 -51 3q-43 0 -62 -14.5t-19 -48.5v-42h124v-117h-121v-433h-146z" />
    <glyph glyph-name="g" unicode="g" horiz-adv-x="645" 
d="M309 -95q58 0 87 29t29 84v80h-8q-16 -39 -57 -63.5t-98 -24.5q-94 0 -151.5 66.5t-57.5 185.5v50q0 80 26.5 137t73.5 86t109 29q39 0 72 -13t54.5 -33.5t31.5 -46.5h6v86h145v-550q0 -58 -22 -100.5t-60.5 -66.5t-84 -35t-99.5 -11q-116 0 -176.5 47t-64.5 119h142
q6 -26 33.5 -40.5t69.5 -14.5zM316 443q-51 0 -82 -37t-31 -103v-40q0 -66 31.5 -103.5t82.5 -37.5q33 0 57.5 17t37 46.5t12.5 68.5v56q0 60 -29 96.5t-79 36.5z" />
    <glyph glyph-name="h" unicode="h" horiz-adv-x="660" 
d="M82 0v752h147v-292h7q5 17 16 33.5t30 33.5t50 27.5t69 10.5q55 0 95.5 -21t64.5 -65.5t24 -108.5v-370h-148v329q0 38 -13.5 63.5t-34.5 35.5t-50 10q-50 0 -80 -35t-30 -94v-309h-147z" />
    <glyph glyph-name="i" unicode="i" horiz-adv-x="325" 
d="M89 0v557h147v-557h-147zM72 719q0 35 24.5 57.5t65.5 22.5q42 0 67 -22.5t25 -57.5q0 -36 -25 -58t-67 -22q-41 0 -65.5 22t-24.5 58z" />
    <glyph glyph-name="j" unicode="j" horiz-adv-x="325" 
d="M72 719q0 35 24.5 57.5t65.5 22.5q42 0 67 -22.5t25 -57.5q0 -36 -25 -58t-67 -22q-41 0 -65.5 22t-24.5 58zM236 557v-562q0 -93 -50.5 -138.5t-138.5 -45.5q-36 0 -59 3v109q15 -3 30 -3q36 0 53.5 18t17.5 58v561h147z" />
    <glyph glyph-name="k" unicode="k" horiz-adv-x="613" 
d="M228 190v-190h-147v752h147v-421h6l178 226h165l-199 -240l213 -317h-171l-155 231z" />
    <glyph glyph-name="l" unicode="l" horiz-adv-x="314" 
d="M84 0v752h147v-752h-147z" />
    <glyph glyph-name="m" unicode="m" horiz-adv-x="964" 
d="M80 0v557h143v-93h7q12 40 48.5 70.5t103.5 30.5q61 0 100 -28.5t53 -75.5h5q5 13 12.5 25t18 24t25 22t31 17.5t38 11.5t44.5 4q84 0 131 -47.5t47 -129.5v-388h-147v340q0 51 -24.5 76t-66.5 25q-27 0 -48.5 -12t-34 -36.5t-12.5 -58.5v-334h-141v338q0 52 -25.5 77.5
t-67 25.5t-68 -27.5t-26.5 -78.5v-335h-146z" />
    <glyph glyph-name="n" unicode="n" horiz-adv-x="656" 
d="M80 0v557h143v-97h7q6 18 17 34.5t30 33.5t49.5 27t68.5 10q86 0 135.5 -49.5t49.5 -145.5v-370h-147v330q0 56 -26.5 82t-69.5 26q-51 0 -81 -34.5t-30 -94.5v-309h-146z" />
    <glyph glyph-name="o" unicode="o" horiz-adv-x="624" 
d="M313 567q116 0 186.5 -70.5t70.5 -188.5v-55q0 -124 -69.5 -193.5t-187.5 -69.5q-120 0 -189.5 69t-69.5 194v54q0 117 71 188.5t188 71.5zM312 450q-53 0 -81 -41t-28 -103v-54q0 -62 27.5 -103.5t81.5 -41.5t81.5 41.5t27.5 103.5v54q0 41 -11.5 72.5t-36.5 51.5
t-61 20z" />
    <glyph glyph-name="p" unicode="p" horiz-adv-x="655" 
d="M392 -7q-60 0 -100 25.5t-57 67.5h-7v-270h-148v741h145v-88h8q10 27 31.5 48t55 34t74.5 13q95 0 150.5 -65.5t55.5 -185.5v-68q0 -120 -56 -186t-152 -66zM339 114q51 0 80.5 36t29.5 106v45q0 69 -29.5 105.5t-81.5 36.5q-33 0 -58 -15.5t-38.5 -46.5t-13.5 -73v-64
q0 -60 30.5 -95t80.5 -35z" />
    <glyph glyph-name="q" unicode="q" horiz-adv-x="655" 
d="M262 564q30 0 57 -7t47.5 -19.5t35 -30t21.5 -38.5h7v88h146v-741h-148v271h-7q-15 -42 -57 -68t-103 -26q-95 0 -150.5 66t-55.5 185v69q0 118 56 184.5t151 66.5zM316 443q-51 0 -80 -37t-29 -103v-49q0 -68 29.5 -104t80.5 -36q34 0 59 15.5t38.5 46.5t13.5 74v62
q0 30 -8 55t-23 41.5t-35.5 25.5t-45.5 9z" />
    <glyph glyph-name="r" unicode="r" horiz-adv-x="451" 
d="M84 0v557h148v-88h7q4 16 14 31.5t26 30.5t41.5 24.5t55.5 9.5q29 0 46 -4v-132q-16 6 -56 6q-65 0 -98 -33.5t-33 -91.5v-310h-151z" />
    <glyph glyph-name="s" unicode="s" horiz-adv-x="569" 
d="M59 391q0 46 18.5 80.5t50.5 55t71.5 30.5t86.5 10q97 0 156.5 -43.5t59.5 -121.5h-130q-2 16 -12 30t-30 23.5t-46 9.5q-20 0 -36 -4.5t-26.5 -12.5t-16.5 -19.5t-6 -25.5q0 -9 3 -16.5t9 -13.5t12 -10.5t17 -8.5t19 -6.5t21.5 -5l21 -4t22.5 -3.5t20 -3
q84 -14 129.5 -50.5t45.5 -107.5q0 -86 -64 -135t-178 -49q-107 0 -168 45.5t-61 120.5h143q4 -29 27.5 -46t65.5 -17q46 0 69 17.5t23 45.5q0 8 -2 15t-7 12.5t-10 10t-15 8t-16.5 6t-19.5 5.5t-20.5 4.5l-23.5 4.5t-23 4q-41 8 -71 19t-56 29.5t-39.5 48t-13.5 68.5z" />
    <glyph glyph-name="t" unicode="t" horiz-adv-x="440" 
d="M124 550v138h143v-138h123v-117h-123v-251q0 -38 18 -53t61 -15q28 0 48 2v-112q-33 -7 -84 -7q-104 0 -146.5 37t-42.5 124v275h-85v117h88z" />
    <glyph glyph-name="u" unicode="u" horiz-adv-x="655" 
d="M576 557v-557h-144v93h-7q-13 -39 -55 -70t-108 -31q-87 0 -136.5 47.5t-49.5 143.5v374h147v-335q0 -30 8 -51t22.5 -32t30.5 -16t36 -5q46 0 77 30.5t31 79.5v329h148z" />
    <glyph glyph-name="v" unicode="v" horiz-adv-x="580" 
d="M202 0l-182 557h160l104 -417h6l116 417h155l-193 -557h-166z" />
    <glyph glyph-name="w" unicode="w" horiz-adv-x="855" 
d="M832 557l-144 -557h-153l-103 386h-5l-101 -386h-155l-147 557h154l77 -402h6l100 402h138l102 -402h6l79 402h146z" />
    <glyph glyph-name="x" unicode="x" horiz-adv-x="599" 
d="M402 0l-103 182h-6l-103 -182h-156l171 277l-177 280h170l101 -180h6l104 180h161l-181 -276l177 -281h-164z" />
    <glyph glyph-name="y" unicode="y" horiz-adv-x="602" 
d="M575 557q-177 -529 -180 -536l-14 -37q-16 -43 -33.5 -73t-45 -56t-67.5 -39t-93 -13q-44 0 -79 7v108q16 -4 46 -4q49 0 71 17.5t29 53.5l4 16l-189 556h162l112 -429h6l114 429h157z" />
    <glyph glyph-name="z" unicode="z" horiz-adv-x="553" 
d="M58 0v84l260 347v7h-257v119h434v-94l-250 -336v-7h257v-120h-444z" />
    <glyph glyph-name="braceleft" unicode="{" horiz-adv-x="441" 
d="M176 313v-15q103 -9 103 -124v-126q0 -39 9.5 -60t32 -31t64.5 -10h21v-110h-52q-111 0 -163 44t-52 147v105q0 56 -17 79.5t-66 23.5v139q49 0 66 23.5t17 78.5v90q0 102 52 144.5t163 42.5h52v-111h-21q-42 0 -64.5 -9.5t-32 -31t-9.5 -60.5v-115q0 -55 -25.5 -82
t-77.5 -32z" />
    <glyph glyph-name="bar" unicode="|" horiz-adv-x="399" 
d="M266 -155h-133v907h133v-907z" />
    <glyph glyph-name="braceright" unicode="}" horiz-adv-x="442" 
d="M266 298v15q-52 5 -77.5 32t-25.5 82v115q0 58 -22.5 79.5t-82.5 21.5h-22v111h52q111 0 162.5 -42.5t51.5 -144.5v-90q0 -55 17.5 -78.5t66.5 -23.5v-139q-49 0 -66.5 -23.5t-17.5 -79.5v-105q0 -103 -51.5 -147t-162.5 -44h-52v110h22q31 0 50.5 5t32 17.5t17.5 31
t5 47.5v126q0 114 103 124z" />
    <glyph glyph-name="asciitilde" unicode="~" horiz-adv-x="610" 
d="M408 248q-57 0 -118 52q-3 2 -11.5 9l-12 10t-10.5 8.5t-11.5 8t-11 5.5t-12 4t-11.5 1q-54 0 -59 -81h-108q0 61 15.5 106.5t51.5 73.5t91 28q58 0 117 -50l27 -23t23.5 -14.5t29.5 -7.5q55 0 60 80h107q0 -93 -39.5 -151.5t-117.5 -58.5z" />
    <glyph glyph-name="nonbreakingspace" unicode="&#xa0;" horiz-adv-x="237" 
 />
    <glyph glyph-name="exclamdown" unicode="&#xa1;" horiz-adv-x="322" 
d="M241 -146h-162l18 475h127zM256 495q0 -37 -26 -60.5t-69 -23.5q-44 0 -70 23.5t-26 60.5q0 38 26 61t70 23q43 0 69 -23t26 -61z" />
    <glyph glyph-name="cent" unicode="&#xa2;" horiz-adv-x="647" 
d="M565 266q-2 -78 -54 -131t-132 -61v-116h-111v115q-86 9 -142.5 74t-56.5 176v72q0 105 57.5 169.5t141.5 74.5v117h111v-118q81 -9 131.5 -65t52.5 -129h-133q-3 32 -31 59t-76 27q-55 0 -86.5 -37t-31.5 -97v-74q0 -25 5 -46.5t15.5 -38t25 -28.5t33 -18t40.5 -6
q48 0 76 23.5t33 57.5h132z" />
    <glyph glyph-name="sterling" unicode="&#xa3;" horiz-adv-x="647" 
d="M599 123v-123h-538v128q41 5 62.5 28.5t21.5 82.5v63h-90v103h90v126q0 90 60.5 143t163.5 53q106 0 165.5 -52.5t60.5 -151.5h-138q-1 35 -23.5 57.5t-62.5 22.5q-43 0 -64.5 -25t-21.5 -66v-107h152v-103h-152l-1 -69q-2 -81 -44 -101v-9h359z" />
    <glyph glyph-name="currency" unicode="&#xa4;" horiz-adv-x="647" 
d="M520 62l-84 84q-52 -31 -113 -31q-62 0 -114 31l-86 -84l-74 77l85 84q-33 54 -33 116.5t32 115.5l-84 82l74 77l84 -83q52 34 116 34q62 0 115 -33l82 82l75 -77l-82 -81q32 -54 32 -117t-34 -117l84 -83zM210 339q0 -45 33 -78t80 -33t80 33t33 78q0 47 -33 79.5
t-80 32.5q-31 0 -57 -15t-41 -40.5t-15 -56.5z" />
    <glyph glyph-name="yen" unicode="&#xa5;" horiz-adv-x="647" 
d="M551 96h-152v-96h-151v96h-149v94h149v60h-149v94h108l-198 370h167l146 -298h6l147 298h163l-199 -370h112v-94h-152v-60h152v-94z" />
    <glyph glyph-name="brokenbar" unicode="&#xa6;" horiz-adv-x="331" 
d="M232 408h-133v344h133v-344zM232 -155h-133v354h133v-354z" />
    <glyph glyph-name="section" unicode="&#xa7;" horiz-adv-x="514" 
d="M342 38q0 11 -3.5 19.5t-12.5 16l-15.5 12.5t-23 10.5t-24.5 8.5t-30 9t-30 8q-35 10 -61 21.5t-49.5 29.5t-36 44.5t-12.5 61.5q0 84 87 134v3q-82 48 -82 136q0 83 61 129.5t152 46.5q94 0 149.5 -48t55.5 -124h-121q-1 27 -25 47.5t-63 20.5q-23 0 -40.5 -8.5
t-27.5 -23t-10 -32.5q0 -14 7 -25.5t16 -18.5t27 -14.5t30 -11t36 -9.5q14 -4 20 -6q36 -10 60.5 -19.5t50 -27t38.5 -44.5t13 -64q0 -86 -82 -141v-3q37 -22 57.5 -50.5t20.5 -74.5q0 -81 -59.5 -131.5t-158.5 -50.5q-94 0 -154 46t-61 125h123q5 -30 28 -48t63 -18
q44 0 65.5 18.5t21.5 45.5zM299 213q14 7 26 19t18.5 27.5t6.5 32.5q0 59 -90 79q-5 1 -16.5 3.5t-16.5 3.5q-22 -9 -38.5 -31t-16.5 -47q0 -32 22.5 -49t66.5 -29q7 -2 20.5 -5t17.5 -4z" />
    <glyph glyph-name="dieresis" unicode="&#xa8;" horiz-adv-x="523" 
d="M84 708q0 30 19 48.5t49 18.5q31 0 50 -18.5t19 -48.5q0 -29 -19 -47t-50 -18q-30 0 -49 18t-19 47zM298 708q0 30 18.5 48.5t48.5 18.5q21 0 36.5 -8.5t24.5 -23.5t9 -35q0 -29 -19 -47t-51 -18q-30 0 -48.5 18t-18.5 47z" />
    <glyph glyph-name="copyright" unicode="&#xa9;" horiz-adv-x="885" 
d="M267 331v51q0 81 51 127.5t131 46.5q73 0 120 -42t48 -101h-91q-3 24 -22 41.5t-55 17.5q-87 0 -87 -93v-49q0 -45 23.5 -67t63.5 -22q71 0 78 51h91q-1 -57 -46.5 -97t-122.5 -40q-81 0 -131.5 46.5t-50.5 129.5zM139 336q0 -132 85 -216t221.5 -84t222 84.5t85.5 215.5
v54q0 123 -86.5 206t-220.5 83q-90 0 -160.5 -38.5t-108.5 -104.5t-38 -146v-54zM446 -33q-166 0 -271.5 104.5t-105.5 265.5v54q0 99 48 181t134.5 129.5t194.5 47.5q81 0 151.5 -28.5t119.5 -76.5t77 -114t28 -139v-54q0 -161 -105 -265.5t-271 -104.5z" />
    <glyph glyph-name="ordfeminine" unicode="&#xaa;" horiz-adv-x="372" 
d="M148 392q-53 0 -83 25t-30 69q0 45 30.5 70t91.5 25h76v25q0 35 -47 35q-41 0 -45 -27h-92q2 43 34.5 70.5t104.5 27.5q144 0 144 -109v-207h-95v39h-4q-22 -43 -85 -43zM180 460q14 0 26 4.5t19.5 14t7.5 21.5v26h-51q-49 1 -49 -32q0 -17 13.5 -25.5t33.5 -8.5z" />
    <glyph glyph-name="guillemotleft" unicode="&#xab;" horiz-adv-x="709" 
d="M326 296l180 211h136l-178 -211v-3l178 -212h-141l-175 210v5zM61 296l180 211h136l-177 -211v-3l177 -212h-141l-175 210v5z" />
    <glyph glyph-name="logicalnot" unicode="&#xac;" horiz-adv-x="647" 
d="M588 44h-127v179h-405v122h532v-301z" />
    <glyph glyph-name="registered" unicode="&#xae;" horiz-adv-x="633" 
d="M316 217q-75 0 -135.5 32.5t-94.5 91t-34 130.5v37q0 103 76 174.5t188 71.5q73 0 134 -33t95 -89.5t34 -123.5v-37q0 -110 -74.5 -182t-188.5 -72zM316 274q89 0 146.5 56.5t57.5 140.5v36q0 79 -58 134.5t-146 55.5q-58 0 -105 -25.5t-73 -69t-26 -95.5v-36
q0 -84 57.5 -140.5t146.5 -56.5zM277 569v-68h41q46 0 46 35q0 10 -5 17.5t-14.5 11.5t-22.5 4h-45zM277 365h-63v253h127q40 0 64.5 -23.5t24.5 -58.5q0 -28 -14 -48.5t-36 -26.5l58 -96h-70l-49 89h-42v-89z" />
    <glyph glyph-name="macron" unicode="&#xaf;" horiz-adv-x="523" 
d="M418 650h-316v83h316v-83z" />
    <glyph glyph-name="degree" unicode="&#xb0;" horiz-adv-x="372" 
d="M187 412q-66 0 -111.5 45.5t-45.5 111.5t45 111.5t112 45.5q43 0 79 -20.5t56.5 -56.5t20.5 -80q0 -66 -45.5 -111.5t-110.5 -45.5zM187 500q29 0 49 20.5t20 48.5q0 29 -20 49t-49 20q-28 0 -49 -20t-21 -49q0 -28 21 -48.5t49 -20.5z" />
    <glyph glyph-name="plusminus" unicode="&#xb1;" horiz-adv-x="647" 
d="M386 335v-126h-128v126h-188v115h188v118h128v-118h190v-115h-190zM577 30h-506v120h506v-120z" />
    <glyph glyph-name="twosuperior" unicode="&#xb2;" horiz-adv-x="365" 
d="M138 600h-95v7q0 46 35 81t102 35q31 0 56.5 -8t42.5 -22t26.5 -33.5t9.5 -41.5q0 -20 -6 -38t-19 -33.5t-20 -22.5t-19 -18l-69 -58v-3h139v-80h-269v63l127 119q39 37 39 61q0 16 -11.5 26t-28.5 10q-12 0 -21.5 -5t-14 -13.5t-4.5 -18.5v-7z" />
    <glyph glyph-name="threesuperior" unicode="&#xb3;" horiz-adv-x="372" 
d="M141 507v73h39q14 0 24 5t15 12.5t5 17.5q0 15 -12 24.5t-32 9.5q-21 0 -32 -11t-12 -27h-92q2 52 38 82t101 30q41 0 71.5 -12t46.5 -33t16 -49q0 -32 -20 -53t-47 -26v-4q34 -4 55.5 -24t21.5 -56q0 -52 -41.5 -80t-102.5 -28q-47 0 -80 17t-47.5 41.5t-14.5 54.5h91
q1 -16 13 -26.5t34 -10.5q23 0 37 10.5t14 26.5q0 10 -5.5 18t-16.5 13t-26 5h-41z" />
    <glyph glyph-name="acute" unicode="&#xb4;" horiz-adv-x="523" 
d="M143 645l124 184h129l-146 -184h-107z" />
    <glyph glyph-name="paragraph" unicode="&#xb6;" horiz-adv-x="771" 
d="M457 -110h-139v335h-11q-43 0 -85 15.5t-78.5 44.5t-59.5 77.5t-23 107.5q0 52 15 94.5t40 69.5t57.5 45.5t66 26.5t68.5 8h149v-824zM542 -110v824h139v-824h-139z" />
    <glyph glyph-name="periodcentered" unicode="&#xb7;" horiz-adv-x="345" 
d="M78 407q0 43 27 69t68 26t68 -26t27 -68.5t-27 -68t-68 -25.5t-68 25.5t-27 67.5z" />
    <glyph glyph-name="cedilla" unicode="&#xb8;" horiz-adv-x="523" 
d="M199 -123v56l26 70h85l-25 -63q31 0 53.5 -10.5t35 -30.5t12.5 -48q0 -51 -35 -76.5t-95 -26.5q-44 -1 -77 8v67q25 -7 58 -7q57 0 57 30q0 18 -15.5 24.5t-50.5 6.5h-29z" />
    <glyph glyph-name="onesuperior" unicode="&#xb9;" horiz-adv-x="321" 
d="M241 365h-101v259h-5l-81 -56v87l86 59h101v-349z" />
    <glyph glyph-name="ordmasculine" unicode="&#xba;" horiz-adv-x="379" 
d="M190 639q-30 0 -44.5 -21t-14.5 -53v-29q0 -32 14 -53t45 -21q30 0 43.5 21t13.5 53v29q0 32 -14 53t-43 21zM190 712q35 0 64 -10.5t49 -29.5t31 -46.5t11 -61.5v-26q0 -72 -41.5 -111t-113.5 -39q-73 0 -114.5 39t-41.5 111v26q0 67 42.5 107.5t113.5 40.5z" />
    <glyph glyph-name="guillemotright" unicode="&#xbb;" horiz-adv-x="709" 
d="M642 296v-5l-175 -210h-141l177 212v3l-177 211h136zM377 296v-5l-175 -210h-141l178 212v3l-178 211h136z" />
    <glyph glyph-name="onequarter" unicode="&#xbc;" horiz-adv-x="769" 
d="M523 127h88v149h-5q-38 -61 -83 -148v-1zM565 347h135v-220h42v-73h-42v-54h-89v54h-174v73q47 88 128 220zM212 365h-101v259h-4l-81 -56v87l85 59h101v-349zM154 -1h-109l292 377l258 338h110l-288 -369z" />
    <glyph glyph-name="onehalf" unicode="&#xbd;" horiz-adv-x="775" 
d="M573 231h-96v7q0 47 35.5 82t103.5 35q62 0 99 -29.5t37 -76.5q0 -20 -6 -37.5t-20 -34.5t-19.5 -22.5t-19.5 -18.5l-70 -59v-2h140v-81h-271v64l128 120q40 36 40 62q0 15 -12 25.5t-29 10.5q-18 0 -29 -11t-11 -26v-8zM210 365h-100v259h-5l-81 -56v87l86 59h100v-349z
M153 -1h-110l292 377l259 338h109l-287 -369z" />
    <glyph glyph-name="threequarters" unicode="&#xbe;" horiz-adv-x="782" 
d="M542 128h89v148h-5q-40 -63 -84 -147v-1zM585 347h135v-219h42v-74h-42v-54h-89v54h-174v73q47 88 128 220zM119 501v74h39q14 0 24 4.5t15 12.5t5 18q0 16 -12 25t-32 9q-21 0 -32.5 -10.5t-11.5 -27.5h-93q2 35 18 60t47 39t75 14q62 0 98.5 -26t36.5 -69
q0 -32 -20 -53t-47 -26v-4q33 -4 55.5 -24.5t22.5 -56.5q0 -53 -42.5 -80.5t-103.5 -27.5q-70 0 -106.5 33t-36.5 81h92q0 -17 12.5 -27.5t35 -10.5t36.5 10.5t14 27.5q0 15 -13 25t-35 10h-41zM174 -1h-109l292 377l258 338h109l-287 -369z" />
    <glyph glyph-name="questiondown" unicode="&#xbf;" horiz-adv-x="540" 
d="M380 491q0 -25 -12 -44t-33.5 -30t-49.5 -11q-44 0 -70.5 23.5t-26.5 61.5q0 37 26.5 60t70.5 23q42 0 68.5 -23t26.5 -60zM507 51q1 -38 -7.5 -70t-25.5 -55t-39.5 -40.5t-50 -28.5t-57 -16t-60.5 -5q-99 0 -166.5 50.5t-67.5 143.5q0 32 8.5 58.5t26 47t32 33
t38.5 29.5q28 19 40 28.5t24.5 23.5t16.5 28.5t4 35.5v26h132l1 -28q7 -105 -92 -171q-31 -21 -44.5 -32t-25 -30t-11.5 -41q0 -41 27 -61.5t66 -20.5q30 0 52 12.5t32.5 34t10.5 48.5h136z" />
    <glyph glyph-name="Agrave" unicode="&#xc0;" horiz-adv-x="692" 
d="M172 0h-152l237 714h180l235 -714h-162l-52 173h-233zM346 568h-8l-83 -279h173zM426 786h-130l-156 114h148z" />
    <glyph glyph-name="Aacute" unicode="&#xc1;" horiz-adv-x="692" 
d="M172 0h-152l237 714h180l235 -714h-162l-52 173h-233zM346 568h-8l-83 -279h173zM253 786l143 118h154l-159 -118h-138z" />
    <glyph glyph-name="Acircumflex" unicode="&#xc2;" horiz-adv-x="692" 
d="M172 0h-152l237 714h180l235 -714h-162l-52 173h-233zM346 568h-8l-83 -279h173zM158 778l141 131h104l135 -131h-117l-68 66h-7l-72 -66h-116z" />
    <glyph glyph-name="Atilde" unicode="&#xc3;" horiz-adv-x="692" 
d="M172 0h-152l237 714h180l235 -714h-162l-52 173h-233zM346 568h-8l-83 -279h173zM337 790l-5.5 5.5t-6 5.5l-6 5t-6.5 5t-6.5 3.5t-7.5 2.5t-8 1q-33 0 -36 -46h-78q0 47 26.5 83.5t76.5 36.5q18 0 33.5 -4.5t26 -11.5t24.5 -19q2 -2 8.5 -8t9 -8.5t7.5 -5.5t9.5 -4.5
t10.5 -1.5q17 0 26 16.5t10 37.5h78q0 -51 -30 -87t-76 -36q-30 0 -47 7.5t-33 22.5z" />
    <glyph glyph-name="Adieresis" unicode="&#xc4;" horiz-adv-x="692" 
d="M172 0h-152l237 714h180l235 -714h-162l-52 173h-233zM346 568h-8l-83 -279h173zM178 826q0 28 18 45.5t47 17.5q30 0 48 -17.5t18 -45.5t-18 -45.5t-48 -17.5q-19 0 -33.5 8t-23 22.5t-8.5 32.5zM383 826q0 14 4.5 25.5t13 20t20.5 13t26 4.5q30 0 48.5 -17.5
t18.5 -45.5t-18 -45.5t-49 -17.5q-29 0 -46.5 17.5t-17.5 45.5z" />
    <glyph glyph-name="Aring" unicode="&#xc5;" horiz-adv-x="692" 
d="M285 765q0 -24 17 -41t42 -17q16 0 29.5 7.5t21.5 21t8 29.5q0 25 -17.5 41.5t-41.5 16.5q-25 0 -42 -16.5t-17 -41.5zM428 289l-82 279h-8l-83 -279h173zM172 0h-152l225 671q-43 37 -43 95q0 61 41 102t101 41q39 0 71.5 -18.5t51 -51.5t18.5 -73q0 -53 -38 -89
l225 -677h-162l-52 173h-233z" />
    <glyph glyph-name="AE" unicode="&#xc6;" horiz-adv-x="1021" 
d="M456 587l-137 -295h172v295h-35zM491 172h-222l-85 -172h-167l344 714h594v-127h-315v-168h296v-118h-296v-174h315v-127h-464v172z" />
    <glyph glyph-name="Ccedilla" unicode="&#xc7;" horiz-adv-x="699" 
d="M350 -252q-44 -1 -76 8v67q25 -7 58 -7q57 0 57 30q0 18 -15.5 24.5t-51.5 6.5h-29v56l22 56q-122 14 -189 99t-67 226v84q0 154 80 241.5t222 87.5q129 0 206.5 -72.5t77.5 -181.5v-17h-145q0 58 -37 98.5t-101 40.5q-69 0 -109.5 -51t-40.5 -146v-84q0 -96 40 -145.5
t111 -49.5q65 0 101 37.5t36 95.5h145v-17q0 -95 -65.5 -165t-180.5 -81l-19 -49q30 0 53 -10.5t35 -30.5t12 -48q0 -34 -16.5 -57.5t-45 -34t-68.5 -11.5z" />
    <glyph glyph-name="Egrave" unicode="&#xc8;" horiz-adv-x="619" 
d="M396 786h-131l-156 114h149zM553 127v-127h-466v714h466v-127h-316v-168h298v-118h-298v-174h316z" />
    <glyph glyph-name="Eacute" unicode="&#xc9;" horiz-adv-x="619" 
d="M222 786l144 118h154l-160 -118h-138zM553 127v-127h-466v714h466v-127h-316v-168h298v-118h-298v-174h316z" />
    <glyph glyph-name="Ecircumflex" unicode="&#xca;" horiz-adv-x="619" 
d="M128 778l141 131h104l134 -131h-117l-67 66h-8l-72 -66h-115zM553 127v-127h-466v714h466v-127h-316v-168h298v-118h-298v-174h316z" />
    <glyph glyph-name="Edieresis" unicode="&#xcb;" horiz-adv-x="619" 
d="M148 826q0 28 17.5 45.5t46.5 17.5q30 0 48 -17.5t18 -45.5t-18 -45.5t-48 -17.5q-29 0 -46.5 17.5t-17.5 45.5zM352 826q0 14 4.5 25.5t13 20t20.5 13t26 4.5q31 0 49 -17.5t18 -45.5t-18 -45.5t-49 -17.5q-29 0 -46.5 17.5t-17.5 45.5zM553 127v-127h-466v714h466v-127
h-316v-168h298v-118h-298v-174h316z" />
    <glyph glyph-name="Igrave" unicode="&#xcc;" horiz-adv-x="326" 
d="M239 0h-152v714h152v-714zM243 786h-131l-155 114h148z" />
    <glyph glyph-name="Iacute" unicode="&#xcd;" horiz-adv-x="326" 
d="M239 0h-152v714h152v-714zM70 786l143 118h154l-159 -118h-138z" />
    <glyph glyph-name="Icircumflex" unicode="&#xce;" horiz-adv-x="326" 
d="M239 0h-152v714h152v-714zM-25 778l141 131h104l135 -131h-118l-67 66h-7l-73 -66h-115z" />
    <glyph glyph-name="Idieresis" unicode="&#xcf;" horiz-adv-x="326" 
d="M239 0h-152v714h152v-714zM-5 826q0 28 18 45.5t47 17.5q30 0 48 -17.5t18 -45.5t-18 -45.5t-48 -17.5q-29 0 -47 17.5t-18 45.5zM200 826q0 28 17.5 45.5t46.5 17.5q30 0 48.5 -17.5t18.5 -45.5t-18.5 -45.5t-48.5 -17.5q-29 0 -46.5 17.5t-17.5 45.5z" />
    <glyph glyph-name="Eth" unicode="&#xd0;" horiz-adv-x="773" 
d="M402 0h-268v293h-86v137h86v284h268q84 0 146.5 -25.5t100 -73.5t55.5 -111.5t18 -144.5t-18 -145t-55.5 -113t-100 -75t-146.5 -26zM286 130h93q46 0 79 11.5t58 37.5t37 71t12 109q0 232 -186 232h-93v-161h123v-137h-123v-163z" />
    <glyph glyph-name="Ntilde" unicode="&#xd1;" horiz-adv-x="751" 
d="M366 790l-7.5 7.5t-8.5 8t-8 6t-10.5 5t-10.5 1.5q-33 0 -36 -46h-79q0 47 27 83.5t76 36.5q27 0 45 -8.5t39 -26.5q2 -2 8.5 -8t9.5 -8.5t7.5 -5.5t9.5 -4.5t10 -1.5q17 0 26 16.5t10 37.5h78q0 -51 -29.5 -87t-75.5 -36q-31 0 -47.5 7.5t-33.5 22.5zM230 0h-143v714
h124l305 -447h6v447h142v-714h-123l-305 450h-6v-450z" />
    <glyph glyph-name="Ograve" unicode="&#xd2;" horiz-adv-x="737" 
d="M448 786h-130l-156 114h148zM213 400v-89q0 -95 42 -144.5t113 -49.5t113.5 49.5t42.5 144.5v89q0 95 -42.5 146t-113.5 51q-70 0 -112.5 -51t-42.5 -146zM59 311v87q0 153 82.5 241t227.5 88t227 -88.5t82 -240.5v-87q0 -151 -82.5 -238t-227.5 -87t-227 87t-82 238z
" />
    <glyph glyph-name="Oacute" unicode="&#xd3;" horiz-adv-x="737" 
d="M275 786l143 118h154l-159 -118h-138zM213 400v-89q0 -95 42 -144.5t113 -49.5t113.5 49.5t42.5 144.5v89q0 95 -42.5 146t-113.5 51q-70 0 -112.5 -51t-42.5 -146zM59 311v87q0 153 82.5 241t227.5 88t227 -88.5t82 -240.5v-87q0 -151 -82.5 -238t-227.5 -87t-227 87
t-82 238z" />
    <glyph glyph-name="Ocircumflex" unicode="&#xd4;" horiz-adv-x="737" 
d="M180 778l141 131h104l135 -131h-117l-68 66h-7l-72 -66h-116zM213 400v-89q0 -95 42 -144.5t113 -49.5t113.5 49.5t42.5 144.5v89q0 95 -42.5 146t-113.5 51q-70 0 -112.5 -51t-42.5 -146zM59 311v87q0 153 82.5 241t227.5 88t227 -88.5t82 -240.5v-87q0 -151 -82.5 -238
t-227.5 -87t-227 87t-82 238z" />
    <glyph glyph-name="Otilde" unicode="&#xd5;" horiz-adv-x="737" 
d="M213 400v-89q0 -95 42 -144.5t113 -49.5t113.5 49.5t42.5 144.5v89q0 95 -42.5 146t-113.5 51q-70 0 -112.5 -51t-42.5 -146zM59 311v87q0 153 82.5 241t227.5 88t227 -88.5t82 -240.5v-87q0 -151 -82.5 -238t-227.5 -87t-227 87t-82 238zM359 790l-7.5 7.5t-8.5 8
t-8.5 6t-10.5 5t-11 1.5q-33 0 -36 -46h-78q0 47 26.5 83.5t76.5 36.5q27 0 45 -8.5t39 -26.5q2 -2 8.5 -8t9 -8.5t7.5 -5.5t9.5 -4.5t9.5 -1.5q10 0 17 5t11 13t6 17.5t3 18.5h78q0 -51 -30 -87t-76 -36q-30 0 -47 7.5t-33 22.5z" />
    <glyph glyph-name="Odieresis" unicode="&#xd6;" horiz-adv-x="737" 
d="M200 826q0 28 18 45.5t47 17.5q30 0 48 -17.5t18 -45.5t-18 -45.5t-48 -17.5q-29 0 -47 17.5t-18 45.5zM405 826q0 28 17.5 45.5t46.5 17.5q20 0 35 -8t23.5 -22t8.5 -33q0 -28 -18 -45.5t-49 -17.5q-29 0 -46.5 17.5t-17.5 45.5zM213 400v-89q0 -95 42 -144.5t113 -49.5
t113.5 49.5t42.5 144.5v89q0 95 -42.5 146t-113.5 51q-70 0 -112.5 -51t-42.5 -146zM59 311v87q0 153 82.5 241t227.5 88t227 -88.5t82 -240.5v-87q0 -151 -82.5 -238t-227.5 -87t-227 87t-82 238z" />
    <glyph glyph-name="multiply" unicode="&#xd7;" horiz-adv-x="647" 
d="M482 30l-158 158l-159 -158l-90 95l158 158l-158 157l90 95l159 -158l158 158l90 -95l-158 -157l158 -158z" />
    <glyph glyph-name="Oslash" unicode="&#xd8;" horiz-adv-x="737" 
d="M368 -14q-120 0 -197 61l-52 -63l-66 55l58 71q-52 80 -52 201v87q0 153 82.5 241t227.5 88q118 0 194 -60l46 56l68 -51l-55 -66q56 -83 56 -208v-87q0 -151 -82.5 -238t-227.5 -87zM209 309q0 -38 9 -63l259 311q-42 43 -109 43q-72 0 -115.5 -52t-43.5 -148v-91z
M368 112q72 0 115.5 50.5t43.5 146.5v91q0 41 -11 69l-260 -313q42 -44 112 -44z" />
    <glyph glyph-name="Ugrave" unicode="&#xd9;" horiz-adv-x="742" 
d="M451 786h-130l-156 114h148zM231 714v-450q0 -69 38 -106.5t102 -37.5t102.5 37.5t38.5 106.5v450h151v-467q0 -118 -79.5 -189.5t-212 -71.5t-212 72t-79.5 190v466h151z" />
    <glyph glyph-name="Uacute" unicode="&#xda;" horiz-adv-x="742" 
d="M278 786l143 118h154l-159 -118h-138zM231 714v-450q0 -69 38 -106.5t102 -37.5t102.5 37.5t38.5 106.5v450h151v-467q0 -118 -79.5 -189.5t-212 -71.5t-212 72t-79.5 190v466h151z" />
    <glyph glyph-name="Ucircumflex" unicode="&#xdb;" horiz-adv-x="742" 
d="M183 778l141 131h104l135 -131h-117l-68 66h-7l-72 -66h-116zM231 714v-450q0 -69 38 -106.5t102 -37.5t102.5 37.5t38.5 106.5v450h151v-467q0 -118 -79.5 -189.5t-212 -71.5t-212 72t-79.5 190v466h151z" />
    <glyph glyph-name="Udieresis" unicode="&#xdc;" horiz-adv-x="742" 
d="M203 826q0 28 17.5 45.5t47.5 17.5t47.5 -17.5t17.5 -45.5t-17.5 -45.5t-47.5 -17.5q-29 0 -47 17.5t-18 45.5zM407 826q0 28 18 45.5t47 17.5q20 0 35 -8t23 -22t8 -33q0 -28 -18 -45.5t-48 -17.5q-20 0 -34.5 8t-22.5 22t-8 33zM231 714v-450q0 -69 38 -106.5
t102 -37.5t102.5 37.5t38.5 106.5v450h151v-467q0 -118 -79.5 -189.5t-212 -71.5t-212 72t-79.5 190v466h151z" />
    <glyph glyph-name="Yacute" unicode="&#xdd;" horiz-adv-x="636" 
d="M394 0h-151v259l-239 455h167l146 -298h6l147 298h163l-239 -451v-263zM224 786l144 118h154l-160 -118h-138z" />
    <glyph glyph-name="Thorn" unicode="&#xde;" horiz-adv-x="657" 
d="M87 714h151v-115h135q115 0 179.5 -65t64.5 -169t-65 -167.5t-181 -63.5h-132v-134h-152v714zM238 476v-222h92q63 0 98 25t35 86q0 55 -31.5 83t-89.5 28h-104z" />
    <glyph glyph-name="germandbls" unicode="&#xdf;" horiz-adv-x="719" 
d="M233 0h-148v548q0 102 72.5 155.5t185.5 53.5q116 0 186.5 -53t69.5 -137q0 -36 -11.5 -66.5t-29.5 -50.5t-39 -32.5t-42 -16.5v-9q75 -1 132 -51t57 -138q0 -69 -36.5 -118t-93 -71t-127.5 -22q-58 0 -95 9v120q28 -10 70 -10q58 0 94.5 25.5t36.5 75.5t-41 76.5
t-106 26.5h-41v126h25q41 0 72.5 27.5t31.5 70.5q0 42 -29 68.5t-81 26.5q-113 0 -113 -118v-516z" />
    <glyph glyph-name="agrave" unicode="&#xe0;" 
d="M235 -8q-82 0 -132.5 45.5t-50.5 124.5q0 76 51.5 121t146.5 45h134v49q0 24 -11 41t-30 25t-46 8q-76 0 -86 -57h-139q5 75 60.5 123t166.5 48q40 0 73.5 -6t62.5 -20.5t50 -36.5t32.5 -55t11.5 -75v-372h-138v70h-7q-18 -34 -55 -56t-94 -22zM284 101q20 0 38.5 6
t32 17t21.5 26.5t8 33.5v57h-100q-42 0 -64 -18.5t-22 -49.5q0 -34 25 -53t61 -19zM370 645h-107l-147 185h130z" />
    <glyph glyph-name="aacute" unicode="&#xe1;" 
d="M235 -8q-82 0 -132.5 45.5t-50.5 124.5q0 76 51.5 121t146.5 45h134v49q0 24 -11 41t-30 25t-46 8q-76 0 -86 -57h-139q5 75 60.5 123t166.5 48q40 0 73.5 -6t62.5 -20.5t50 -36.5t32.5 -55t11.5 -75v-372h-138v70h-7q-18 -34 -55 -56t-94 -22zM284 101q20 0 38.5 6
t32 17t21.5 26.5t8 33.5v57h-100q-42 0 -64 -18.5t-22 -49.5q0 -34 25 -53t61 -19zM254 645l124 185h130l-147 -185h-107z" />
    <glyph glyph-name="acircumflex" unicode="&#xe2;" 
d="M235 -8q-82 0 -132.5 45.5t-50.5 124.5q0 76 51.5 121t146.5 45h134v49q0 24 -11 41t-30 25t-46 8q-76 0 -86 -57h-139q5 75 60.5 123t166.5 48q40 0 73.5 -6t62.5 -20.5t50 -36.5t32.5 -55t11.5 -75v-372h-138v70h-7q-18 -34 -55 -56t-94 -22zM284 101q20 0 38.5 6
t32 17t21.5 26.5t8 33.5v57h-100q-42 0 -64 -18.5t-22 -49.5q0 -34 25 -53t61 -19zM117 644l132 183h107l126 -183h-115l-63 108h-5l-70 -108h-112z" />
    <glyph glyph-name="atilde" unicode="&#xe3;" 
d="M235 -8q-82 0 -132.5 45.5t-50.5 124.5q0 76 51.5 121t146.5 45h134v49q0 24 -11 41t-30 25t-46 8q-76 0 -86 -57h-139q5 75 60.5 123t166.5 48q40 0 73.5 -6t62.5 -20.5t50 -36.5t32.5 -55t11.5 -75v-372h-138v70h-7q-18 -34 -55 -56t-94 -22zM284 101q20 0 38.5 6
t32 17t21.5 26.5t8 33.5v57h-100q-42 0 -64 -18.5t-22 -49.5q0 -34 25 -53t61 -19zM291 651q-21 27 -44 27q-33 0 -36 -54h-80q0 62 29 104.5t81 42.5q25 0 43 -9.5t37 -30.5q2 -2 9 -10.5t10 -11.5t10 -6.5t15 -3.5q17 0 25.5 19t9.5 44h80q0 -60 -32 -104t-79 -44
q-49 0 -78 37z" />
    <glyph glyph-name="adieresis" unicode="&#xe4;" 
d="M235 -8q-82 0 -132.5 45.5t-50.5 124.5q0 76 51.5 121t146.5 45h134v49q0 24 -11 41t-30 25t-46 8q-76 0 -86 -57h-139q5 75 60.5 123t166.5 48q40 0 73.5 -6t62.5 -20.5t50 -36.5t32.5 -55t11.5 -75v-372h-138v70h-7q-18 -34 -55 -56t-94 -22zM284 101q20 0 38.5 6
t32 17t21.5 26.5t8 33.5v57h-100q-42 0 -64 -18.5t-22 -49.5q0 -34 25 -53t61 -19zM129 691q0 20 8.5 35t24 23t35.5 8q16 0 28.5 -4.5t21.5 -13.5t14 -21t5 -27q0 -29 -19 -47t-50 -18q-30 0 -49 18t-19 47zM343 691q0 30 18.5 48t48.5 18q31 0 50.5 -18t19.5 -48
q0 -29 -19 -47t-51 -18q-30 0 -48.5 18t-18.5 47z" />
    <glyph glyph-name="aring" unicode="&#xe5;" 
d="M235 -8q-82 0 -132.5 45.5t-50.5 124.5q0 76 51.5 121t146.5 45h134v49q0 24 -11 41t-30 25t-46 8q-76 0 -86 -57h-139q5 75 60.5 123t166.5 48q40 0 73.5 -6t62.5 -20.5t50 -36.5t32.5 -55t11.5 -75v-372h-138v70h-7q-18 -34 -55 -56t-94 -22zM284 101q20 0 38.5 6
t32 17t21.5 26.5t8 33.5v57h-100q-42 0 -64 -18.5t-22 -49.5q0 -34 25 -53t61 -19zM302 618q-49 0 -81.5 32t-32.5 81q0 48 32.5 79.5t81.5 31.5t81.5 -31.5t32.5 -79.5q0 -49 -32.5 -81t-81.5 -32zM254 730q0 -21 13.5 -34.5t34.5 -13.5t34.5 13.5t13.5 34.5q0 14 -6 24.5
t-17.5 17t-24.5 6.5q-21 0 -34.5 -13.5t-13.5 -34.5z" />
    <glyph glyph-name="ae" unicode="&#xe6;" horiz-adv-x="943" 
d="M651 -10q-79 0 -130.5 27.5t-74.5 73.5h-9q-25 -43 -73.5 -72t-117.5 -29q-89 0 -142 45.5t-53 125.5q0 78 52.5 122.5t148.5 44.5h132v49q0 36 -23 55t-64 19q-38 0 -60 -15.5t-27 -41.5h-139q4 74 61 123t168 49q55 0 101.5 -17.5t70.5 -47.5h8q24 30 67.5 47.5
t95.5 17.5q111 0 179 -69.5t68 -187.5v-63h-352v-33q0 -24 8.5 -44t23.5 -34t35.5 -21.5t44.5 -7.5q40 0 66.5 16.5t30.5 43.5h138q-2 -23 -10.5 -46.5t-27.5 -47t-45 -41.5t-65 -29.5t-86 -11.5zM644 455q-46 0 -76 -31t-30 -80v-9h209v7q0 52 -27.5 82.5t-75.5 30.5z
M285 101q41 0 70 23.5t29 59.5v57h-98q-43 0 -66.5 -19t-23.5 -49q0 -34 26 -53t63 -19z" />
    <glyph glyph-name="ccedilla" unicode="&#xe7;" horiz-adv-x="588" 
d="M301 -252q-46 -1 -77 8v67q25 -7 58 -7q57 0 57 30q0 18 -15.5 24.5t-51.5 6.5h-29v56l23 60q-99 11 -155.5 78t-56.5 179v62q0 115 68 185t183 70q108 0 170 -57.5t63 -145.5h-135q-2 21 -11 39t-30.5 31.5t-51.5 13.5q-51 0 -79.5 -37.5t-28.5 -100.5v-59
q0 -44 13 -75.5t37 -48t58 -16.5q84 0 95 78h135q-1 -83 -51 -134t-138 -62l-21 -53q31 0 53.5 -10.5t34.5 -30.5t12 -48q0 -51 -34.5 -76.5t-94.5 -26.5z" />
    <glyph glyph-name="egrave" unicode="&#xe8;" 
d="M370 645h-107l-146 185h129zM312 -10q-119 0 -188.5 67.5t-69.5 192.5v59q0 123 70.5 190.5t179.5 67.5q112 0 180.5 -70t68.5 -188v-63h-354v-26q0 -51 30.5 -82.5t81.5 -31.5q40 0 67.5 17t32.5 43h137q-2 -29 -16.5 -58.5t-41.5 -56.5t-73.5 -44t-104.5 -17zM199 335
h212v4q0 52 -29 84t-76.5 32t-77 -32t-29.5 -84v-4z" />
    <glyph glyph-name="eacute" unicode="&#xe9;" 
d="M255 645l124 185h129l-146 -185h-107zM312 -10q-119 0 -188.5 67.5t-69.5 192.5v59q0 123 70.5 190.5t179.5 67.5q112 0 180.5 -70t68.5 -188v-63h-354v-26q0 -51 30.5 -82.5t81.5 -31.5q40 0 67.5 17t32.5 43h137q-2 -29 -16.5 -58.5t-41.5 -56.5t-73.5 -44t-104.5 -17z
M199 335h212v4q0 52 -29 84t-76.5 32t-77 -32t-29.5 -84v-4z" />
    <glyph glyph-name="ecircumflex" unicode="&#xea;" 
d="M117 644l133 183h106l126 -183h-114l-64 108h-5l-70 -108h-112zM312 -10q-119 0 -188.5 67.5t-69.5 192.5v59q0 123 70.5 190.5t179.5 67.5q112 0 180.5 -70t68.5 -188v-63h-354v-26q0 -51 30.5 -82.5t81.5 -31.5q40 0 67.5 17t32.5 43h137q-2 -29 -16.5 -58.5
t-41.5 -56.5t-73.5 -44t-104.5 -17zM199 335h212v4q0 52 -29 84t-76.5 32t-77 -32t-29.5 -84v-4z" />
    <glyph glyph-name="edieresis" unicode="&#xeb;" 
d="M312 -10q-119 0 -188.5 67.5t-69.5 192.5v59q0 123 70.5 190.5t179.5 67.5q112 0 180.5 -70t68.5 -188v-63h-354v-26q0 -51 30.5 -82.5t81.5 -31.5q40 0 67.5 17t32.5 43h137q-2 -29 -16.5 -58.5t-41.5 -56.5t-73.5 -44t-104.5 -17zM199 335h212v4q0 52 -29 84t-76.5 32
t-77 -32t-29.5 -84v-4zM129 691q0 30 19 48t50 18q20 0 36 -8t24.5 -23t8.5 -35q0 -29 -19 -47t-50 -18t-50 18t-19 47zM343 691q0 30 18.5 48t49.5 18t50 -18t19 -48q0 -19 -8.5 -34t-24 -23t-36.5 -8q-31 0 -49.5 18t-18.5 47z" />
    <glyph glyph-name="igrave" unicode="&#xec;" horiz-adv-x="325" 
d="M233 645h-107l-146 185h129zM89 0v557h147v-557h-147z" />
    <glyph glyph-name="iacute" unicode="&#xed;" horiz-adv-x="325" 
d="M118 645l124 185h129l-146 -185h-107zM89 0v557h147v-557h-147z" />
    <glyph glyph-name="icircumflex" unicode="&#xee;" horiz-adv-x="325" 
d="M-20 644l132 183h107l126 -183h-114l-64 108h-5l-70 -108h-112zM89 0v557h147v-557h-147z" />
    <glyph glyph-name="idieresis" unicode="&#xef;" horiz-adv-x="325" 
d="M89 0v557h147v-557h-147zM-8 691q0 30 19 48t50 18t50 -18t19 -48q0 -29 -19 -47t-50 -18t-50 18t-19 47zM206 691q0 30 18.5 48t49.5 18t50 -18t19 -48q0 -19 -8.5 -34t-24.5 -23t-36 -8q-31 0 -49.5 18t-18.5 47z" />
    <glyph glyph-name="eth" unicode="&#xf0;" horiz-adv-x="624" 
d="M312 -10q-118 0 -188 69t-70 194v28q0 118 61 189t164 71q80 0 121 -47h7q0 1 -1.5 8t-3 13t-2.5 8q-15 54 -67 114l-145 -56l-27 70l115 45q-44 40 -112 89l145 23q47 -22 90 -61l124 49l29 -70l-94 -36q112 -132 112 -323v-109q0 -125 -69.5 -196.5t-188.5 -71.5z
M313 426q-51 0 -82 -37.5t-31 -103.5v-34q0 -67 30 -104t83 -37q52 0 82 37t30 104v37q0 67 -30.5 102.5t-81.5 35.5z" />
    <glyph glyph-name="ntilde" unicode="&#xf1;" horiz-adv-x="656" 
d="M317 651q-21 27 -43 27q-34 0 -37 -54h-80q0 62 29 104.5t81 42.5q10 0 19 -1.5t16.5 -4.5t15 -8t14.5 -11.5l15 -14.5q2 -2 9 -10.5t10.5 -11.5t10.5 -6.5t14 -3.5q17 0 25.5 19t9.5 44h80q0 -60 -32 -104t-79 -44q-49 0 -78 37zM80 0v557h143v-97h7q6 18 17 34.5
t30 33.5t49.5 27t68.5 10q86 0 135.5 -49.5t49.5 -145.5v-370h-147v330q0 56 -26.5 82t-69.5 26q-51 0 -81 -34.5t-30 -94.5v-309h-146z" />
    <glyph glyph-name="ograve" unicode="&#xf2;" horiz-adv-x="624" 
d="M380 645h-107l-147 185h130zM313 567q116 0 186.5 -70.5t70.5 -188.5v-55q0 -124 -69.5 -193.5t-187.5 -69.5q-120 0 -189.5 69t-69.5 194v54q0 117 71 188.5t188 71.5zM312 450q-53 0 -81 -41t-28 -103v-54q0 -62 27.5 -103.5t81.5 -41.5t81.5 41.5t27.5 103.5v54
q0 41 -11.5 72.5t-36.5 51.5t-61 20z" />
    <glyph glyph-name="oacute" unicode="&#xf3;" horiz-adv-x="624" 
d="M264 645l124 185h130l-147 -185h-107zM313 567q116 0 186.5 -70.5t70.5 -188.5v-55q0 -124 -69.5 -193.5t-187.5 -69.5q-120 0 -189.5 69t-69.5 194v54q0 117 71 188.5t188 71.5zM312 450q-53 0 -81 -41t-28 -103v-54q0 -62 27.5 -103.5t81.5 -41.5t81.5 41.5t27.5 103.5
v54q0 41 -11.5 72.5t-36.5 51.5t-61 20z" />
    <glyph glyph-name="ocircumflex" unicode="&#xf4;" horiz-adv-x="624" 
d="M127 644l132 183h107l126 -183h-115l-63 108h-5l-70 -108h-112zM313 567q116 0 186.5 -70.5t70.5 -188.5v-55q0 -124 -69.5 -193.5t-187.5 -69.5q-120 0 -189.5 69t-69.5 194v54q0 117 71 188.5t188 71.5zM312 450q-53 0 -81 -41t-28 -103v-54q0 -62 27.5 -103.5
t81.5 -41.5t81.5 41.5t27.5 103.5v54q0 41 -11.5 72.5t-36.5 51.5t-61 20z" />
    <glyph glyph-name="otilde" unicode="&#xf5;" horiz-adv-x="624" 
d="M301 651q-21 27 -44 27q-33 0 -36 -54h-80q0 62 29 104.5t81 42.5q25 0 43 -9.5t37 -30.5q2 -2 9 -10.5t10 -11.5t10 -6.5t15 -3.5q17 0 25.5 19t9.5 44h80q0 -60 -32 -104t-79 -44q-49 0 -78 37zM313 567q116 0 186.5 -70.5t70.5 -188.5v-55q0 -124 -69.5 -193.5
t-187.5 -69.5q-120 0 -189.5 69t-69.5 194v54q0 117 71 188.5t188 71.5zM312 450q-53 0 -81 -41t-28 -103v-54q0 -62 27.5 -103.5t81.5 -41.5t81.5 41.5t27.5 103.5v54q0 41 -11.5 72.5t-36.5 51.5t-61 20z" />
    <glyph glyph-name="odieresis" unicode="&#xf6;" horiz-adv-x="624" 
d="M139 691q0 20 8.5 35t24 23t35.5 8q15 0 28 -4.5t22 -13.5t14 -21t5 -27q0 -29 -19 -47t-50 -18q-30 0 -49 18t-19 47zM353 691q0 30 18.5 48t48.5 18q31 0 50.5 -18t19.5 -48q0 -29 -19 -47t-51 -18q-30 0 -48.5 18t-18.5 47zM313 567q116 0 186.5 -70.5t70.5 -188.5
v-55q0 -124 -69.5 -193.5t-187.5 -69.5q-120 0 -189.5 69t-69.5 194v54q0 117 71 188.5t188 71.5zM312 450q-53 0 -81 -41t-28 -103v-54q0 -62 27.5 -103.5t81.5 -41.5t81.5 41.5t27.5 103.5v54q0 41 -11.5 72.5t-36.5 51.5t-61 20z" />
    <glyph glyph-name="divide" unicode="&#xf7;" horiz-adv-x="647" 
d="M577 247h-506v112h506v-112zM236 520q0 37 24 60t60 23q37 0 61 -23.5t24 -60t-24.5 -59.5t-60.5 -23t-60 23t-24 60zM239 86q0 25 11.5 44t30.5 29.5t42 10.5q36 0 61 -23.5t25 -60.5q0 -36 -24.5 -59t-61.5 -23q-35 0 -59.5 23t-24.5 59z" />
    <glyph glyph-name="oslash" unicode="&#xf8;" horiz-adv-x="624" 
d="M236 138q29 -34 76 -34q38 0 64 21.5t37.5 54t11.5 72.5v62q0 24 -10 43zM199 245q0 -27 10 -46l179 222q-28 35 -76 35q-54 0 -83.5 -42.5t-29.5 -105.5v-63zM313 -10q-92 0 -156 43l-54 -65l-56 47l58 70q-51 67 -51 168v54q0 117 71 188.5t188 71.5q88 0 152 -44
l53 64l58 -49l-56 -69q50 -66 50 -161v-55q0 -124 -69.5 -193.5t-187.5 -69.5z" />
    <glyph glyph-name="ugrave" unicode="&#xf9;" horiz-adv-x="655" 
d="M395 645h-107l-147 185h130zM576 557v-557h-144v93h-7q-13 -39 -55 -70t-108 -31q-87 0 -136.5 47.5t-49.5 143.5v374h147v-335q0 -30 8 -51t22.5 -32t30.5 -16t36 -5q46 0 77 30.5t31 79.5v329h148z" />
    <glyph glyph-name="uacute" unicode="&#xfa;" horiz-adv-x="655" 
d="M279 645l124 185h130l-146 -185h-108zM576 557v-557h-144v93h-7q-13 -39 -55 -70t-108 -31q-87 0 -136.5 47.5t-49.5 143.5v374h147v-335q0 -30 8 -51t22.5 -32t30.5 -16t36 -5q46 0 77 30.5t31 79.5v329h148z" />
    <glyph glyph-name="ucircumflex" unicode="&#xfb;" horiz-adv-x="655" 
d="M142 644l132 183h107l126 -183h-115l-63 108h-5l-70 -108h-112zM576 557v-557h-144v93h-7q-13 -39 -55 -70t-108 -31q-87 0 -136.5 47.5t-49.5 143.5v374h147v-335q0 -30 8 -51t22.5 -32t30.5 -16t36 -5q46 0 77 30.5t31 79.5v329h148z" />
    <glyph glyph-name="udieresis" unicode="&#xfc;" horiz-adv-x="655" 
d="M576 557v-557h-144v93h-7q-13 -39 -55 -70t-108 -31q-87 0 -136.5 47.5t-49.5 143.5v374h147v-335q0 -30 8 -51t22.5 -32t30.5 -16t36 -5q46 0 77 30.5t31 79.5v329h148zM154 691q0 20 8.5 35t24 23t35.5 8q16 0 28.5 -4.5t21.5 -13.5t14 -21t5 -27q0 -29 -19 -47
t-50 -18q-30 0 -49 18t-19 47zM368 691q0 30 18.5 48t48.5 18q32 0 51 -18t19 -48q0 -29 -19 -47t-51 -18q-30 0 -48.5 18t-18.5 47z" />
    <glyph glyph-name="yacute" unicode="&#xfd;" horiz-adv-x="602" 
d="M575 557q-177 -529 -180 -536l-14 -37q-16 -43 -33.5 -73t-45 -56t-67.5 -39t-93 -13q-44 0 -79 7v108q16 -4 46 -4q49 0 71 17.5t29 53.5l4 16l-189 556h162l112 -429h6l114 429h157zM253 645l124 185h129l-146 -185h-107z" />
    <glyph glyph-name="thorn" unicode="&#xfe;" horiz-adv-x="655" 
d="M392 -7q-60 0 -100 25.5t-57 67.5h-7v-270h-148v936h145v-283h8q10 27 31.5 48t55 34t74.5 13q95 0 150.5 -65.5t55.5 -185.5v-68q0 -120 -56 -186t-152 -66zM339 114q51 0 80.5 36t29.5 106v45q0 69 -29.5 105.5t-81.5 36.5q-33 0 -58 -15.5t-38.5 -46.5t-13.5 -73v-64
q0 -60 30.5 -95t80.5 -35z" />
    <glyph glyph-name="ydieresis" unicode="&#xff;" horiz-adv-x="602" 
d="M575 557q-177 -529 -180 -536l-14 -37q-16 -43 -33.5 -73t-45 -56t-67.5 -39t-93 -13q-44 0 -79 7v108q16 -4 46 -4q49 0 71 17.5t29 53.5l4 16l-189 556h162l112 -429h6l114 429h157zM127 691q0 20 8.5 35t24 23t36.5 8q31 0 50 -18t19 -48q0 -29 -19 -47t-50 -18
t-50 18t-19 47zM341 691q0 30 18.5 48t49.5 18t50 -18t19 -48q0 -19 -8.5 -34t-24.5 -23t-36 -8q-31 0 -49.5 18t-18.5 47z" />
    <glyph glyph-name="Amacron" unicode="&#x100;" horiz-adv-x="692" 
d="M172 0h-152l237 714h180l235 -714h-162l-52 173h-233zM346 568h-8l-83 -279h173zM506 780h-319v79h319v-79z" />
    <glyph glyph-name="amacron" unicode="&#x101;" 
d="M235 -8q-82 0 -132.5 45.5t-50.5 124.5q0 76 51.5 121t146.5 45h134v49q0 24 -11 41t-30 25t-46 8q-76 0 -86 -57h-139q5 75 60.5 123t166.5 48q40 0 73.5 -6t62.5 -20.5t50 -36.5t32.5 -55t11.5 -75v-372h-138v70h-7q-18 -34 -55 -56t-94 -22zM284 101q20 0 38.5 6
t32 17t21.5 26.5t8 33.5v57h-100q-42 0 -64 -18.5t-22 -49.5q0 -34 25 -53t61 -19zM463 641h-316v83h316v-83z" />
    <glyph glyph-name="Abreve" unicode="&#x102;" horiz-adv-x="692" 
d="M172 0h-152l237 714h180l235 -714h-162l-52 173h-233zM346 568h-8l-83 -279h173zM168 924h86q0 -36 23.5 -57t69 -21t68.5 21t23 57h85q0 -71 -46.5 -113.5t-130.5 -42.5t-131 42.5t-47 113.5z" />
    <glyph glyph-name="abreve" unicode="&#x103;" 
d="M235 -8q-82 0 -132.5 45.5t-50.5 124.5q0 76 51.5 121t146.5 45h134v49q0 24 -11 41t-30 25t-46 8q-76 0 -86 -57h-139q5 75 60.5 123t166.5 48q40 0 73.5 -6t62.5 -20.5t50 -36.5t32.5 -55t11.5 -75v-372h-138v70h-7q-18 -34 -55 -56t-94 -22zM284 101q20 0 38.5 6
t32 17t21.5 26.5t8 33.5v57h-100q-42 0 -64 -18.5t-22 -49.5q0 -34 25 -53t61 -19zM143 787h86q0 -23 8 -41.5t27.5 -31.5t47.5 -13q21 0 37.5 7.5t26 19.5t14.5 27t5 32h84q0 -69 -44 -117.5t-123 -48.5t-124 48.5t-45 117.5z" />
    <glyph glyph-name="Aogonek" unicode="&#x104;" horiz-adv-x="692" 
d="M172 0h-152l237 714h180l228 -692q-37 -15 -60 -37.5t-23 -49.5q0 -22 17 -35.5t45 -13.5q25 0 40 4v-83q-26 -11 -75 -11q-56 0 -94 27t-38 78q0 61 60 104v5h-31l-48 163h-233zM345 568h-6l-84 -279h174z" />
    <glyph glyph-name="aogonek" unicode="&#x105;" 
d="M536 -192q-35 -12 -75 -12q-54 0 -91.5 27t-37.5 80q0 63 66 106v61h-9q-18 -35 -55.5 -56.5t-96.5 -21.5q-81 0 -133 46t-52 124q0 77 51.5 121.5t146.5 44.5h134v49q0 36 -23.5 55t-64.5 19q-74 0 -85 -57h-139q4 76 60.5 123.5t167.5 47.5q49 0 89 -10t72.5 -32
t50 -60.5t17.5 -90.5v-350q-36 -13 -64 -35t-28 -52q0 -23 17 -35.5t43 -12.5q22 0 39 4v-83zM284 101q41 0 70.5 24t29.5 60v56h-99q-43 0 -65 -18.5t-22 -49.5q0 -18 7 -31.5t19 -22.5t27.5 -13.5t32.5 -4.5z" />
    <glyph glyph-name="Cacute" unicode="&#x106;" horiz-adv-x="699" 
d="M262 786l143 118h155l-160 -118h-138zM212 398v-84q0 -96 40 -145.5t111 -49.5q65 0 101 37.5t36 95.5h145v-17q0 -104 -76.5 -176.5t-208.5 -72.5q-142 0 -221.5 87t-79.5 241v84q0 154 80 241.5t222 87.5q129 0 206.5 -72.5t77.5 -181.5v-17h-145q0 58 -37 98.5
t-101 40.5q-69 0 -109.5 -51t-40.5 -146z" />
    <glyph glyph-name="cacute" unicode="&#x107;" horiz-adv-x="588" 
d="M54 250v62q0 115 68 185t183 70q108 0 170 -57.5t63 -145.5h-135q-2 21 -11 39t-30.5 31.5t-51.5 13.5q-51 0 -79.5 -37.5t-28.5 -100.5v-59q0 -44 13 -75.5t37 -48t58 -16.5q84 0 95 78h135q-2 -94 -65 -146.5t-170 -52.5q-76 0 -132 30t-87.5 89t-31.5 141zM246 645
l124 185h130l-147 -185h-107z" />
    <glyph glyph-name="Ccircumflex" unicode="&#x108;" horiz-adv-x="699" 
d="M212 398v-84q0 -96 40 -145.5t111 -49.5q65 0 101 37.5t36 95.5h145v-17q0 -104 -76.5 -176.5t-208.5 -72.5q-142 0 -221.5 87t-79.5 241v84q0 154 80 241.5t222 87.5q129 0 206.5 -72.5t77.5 -181.5v-17h-145q0 58 -37 98.5t-101 40.5q-69 0 -109.5 -51t-40.5 -146z
M167 778l142 131h104l134 -131h-117l-68 66h-7l-72 -66h-116z" />
    <glyph glyph-name="ccircumflex" unicode="&#x109;" horiz-adv-x="588" 
d="M108 644l133 183h106l126 -183h-114l-63 108h-6l-70 -108h-112zM54 250v62q0 115 68 185t183 70q108 0 170 -57.5t63 -145.5h-135q-2 21 -11 39t-30.5 31.5t-51.5 13.5q-51 0 -79.5 -37.5t-28.5 -100.5v-59q0 -44 13 -75.5t37 -48t58 -16.5q84 0 95 78h135
q-2 -94 -65 -146.5t-170 -52.5q-76 0 -132 30t-87.5 89t-31.5 141z" />
    <glyph glyph-name="Cdotaccent" unicode="&#x10a;" horiz-adv-x="699" 
d="M212 398v-84q0 -96 40 -145.5t111 -49.5q65 0 101 37.5t36 95.5h145v-17q0 -104 -76.5 -176.5t-208.5 -72.5q-142 0 -221.5 87t-79.5 241v84q0 154 80 241.5t222 87.5q129 0 206.5 -72.5t77.5 -181.5v-17h-145q0 58 -37 98.5t-101 40.5q-69 0 -109.5 -51t-40.5 -146z
M289 840q0 30 18.5 50t48.5 20q29 0 49 -20t20 -50q0 -20 -9 -35.5t-25 -24t-35 -8.5q-30 0 -48.5 19t-18.5 49z" />
    <glyph glyph-name="cdotaccent" unicode="&#x10b;" horiz-adv-x="588" 
d="M54 250v62q0 115 68 185t183 70q108 0 170 -57.5t63 -145.5h-135q-2 21 -11 39t-30.5 31.5t-51.5 13.5q-51 0 -79.5 -37.5t-28.5 -100.5v-59q0 -44 13 -75.5t37 -48t58 -16.5q84 0 95 78h135q-2 -94 -65 -146.5t-170 -52.5q-76 0 -132 30t-87.5 89t-31.5 141zM228 683
q0 20 8 36t23.5 25t34.5 9q30 0 49.5 -20t19.5 -50q0 -20 -9 -35.5t-25 -24t-35 -8.5q-29 0 -47.5 19t-18.5 49z" />
    <glyph glyph-name="Ccaron" unicode="&#x10c;" horiz-adv-x="699" 
d="M212 398v-84q0 -96 40 -145.5t111 -49.5q65 0 101 37.5t36 95.5h145v-17q0 -104 -76.5 -176.5t-208.5 -72.5q-142 0 -221.5 87t-79.5 241v84q0 154 80 241.5t222 87.5q129 0 206.5 -72.5t77.5 -181.5v-17h-145q0 58 -37 98.5t-101 40.5q-69 0 -109.5 -51t-40.5 -146z
M164 902h119l70 -60h8l65 60h120l-126 -120h-123z" />
    <glyph glyph-name="ccaron" unicode="&#x10d;" horiz-adv-x="588" 
d="M110 808h112l70 -110h5l63 110h115l-126 -183h-106zM54 250v62q0 115 68 185t183 70q108 0 170 -57.5t63 -145.5h-135q-2 21 -11 39t-30.5 31.5t-51.5 13.5q-51 0 -79.5 -37.5t-28.5 -100.5v-59q0 -44 13 -75.5t37 -48t58 -16.5q84 0 95 78h135q-2 -94 -65 -146.5
t-170 -52.5q-76 0 -132 30t-87.5 89t-31.5 141z" />
    <glyph glyph-name="Dcaron" unicode="&#x10e;" horiz-adv-x="726" 
d="M142 902h118l71 -60h7l65 60h120l-125 -120h-123zM87 714h268q84 0 146.5 -25.5t100 -73.5t55.5 -111.5t18 -144.5t-18 -145t-55.5 -113t-100 -75t-146.5 -26h-268v714zM239 587v-460h94q92 0 139 52t47 177q0 231 -186 231h-94z" />
    <glyph glyph-name="dcaron" unicode="&#x10f;" horiz-adv-x="784" 
d="M669 751h118l-25 -256h-93v256zM264 564q61 0 102 -25.5t56 -66.5h7v280h147v-752h-145v89h-7q-13 -41 -56 -68t-106 -27q-94 0 -150.5 65.5t-56.5 182.5v74q0 77 25.5 133t72.5 85.5t111 29.5zM315 443q-32 0 -56.5 -16t-38 -47.5t-13.5 -76.5v-49q0 -68 29.5 -104
t80.5 -36t81.5 35.5t30.5 100.5v63q0 60 -31.5 95t-82.5 35z" />
    <glyph glyph-name="Dcroat" unicode="&#x110;" horiz-adv-x="773" 
d="M402 0h-268v293h-86v137h86v284h268q84 0 146.5 -25.5t100 -73.5t55.5 -111.5t18 -144.5t-18 -145t-55.5 -113t-100 -75t-146.5 -26zM286 130h93q46 0 79 11.5t58 37.5t37 71t12 109q0 232 -186 232h-93v-161h123v-137h-123v-163z" />
    <glyph glyph-name="dcroat" unicode="&#x111;" horiz-adv-x="658" 
d="M316 443q-33 0 -57.5 -16t-38 -47.5t-13.5 -76.5v-49q0 -68 30 -104t80.5 -36t81 35.5t30.5 100.5v63q0 60 -31.5 95t-81.5 35zM424 89q-13 -41 -56 -68t-105 -27q-95 0 -151 65.5t-56 182.5v74q0 116 56 182t152 66q61 0 102 -25.5t56 -66.5h7v126h-117v86h123v80h137
v-80h67v-86h-62v-598h-145v89h-8z" />
    <glyph glyph-name="Emacron" unicode="&#x112;" horiz-adv-x="619" 
d="M553 127v-127h-466v714h466v-127h-316v-168h298v-118h-298v-174h316zM475 780h-319v79h319v-79z" />
    <glyph glyph-name="emacron" unicode="&#x113;" 
d="M312 -10q-119 0 -188.5 67.5t-69.5 192.5v59q0 123 70.5 190.5t179.5 67.5q112 0 180.5 -70t68.5 -188v-63h-354v-26q0 -51 30.5 -82.5t81.5 -31.5q40 0 67.5 17t32.5 43h137q-2 -29 -16.5 -58.5t-41.5 -56.5t-73.5 -44t-104.5 -17zM199 335h212v4q0 52 -29 84t-76.5 32
t-77 -32t-29.5 -84v-4zM463 641h-315v83h315v-83z" />
    <glyph glyph-name="Ebreve" unicode="&#x114;" horiz-adv-x="619" 
d="M553 127v-127h-466v714h466v-127h-316v-168h298v-118h-298v-174h316zM138 924h86q0 -36 23 -57t69 -21t69 21t23 57h85q0 -71 -46.5 -113.5t-130.5 -42.5t-131 42.5t-47 113.5z" />
    <glyph glyph-name="ebreve" unicode="&#x115;" 
d="M312 -10q-119 0 -188.5 67.5t-69.5 192.5v59q0 123 70.5 190.5t179.5 67.5q112 0 180.5 -70t68.5 -188v-63h-354v-26q0 -51 30.5 -82.5t81.5 -31.5q40 0 67.5 17t32.5 43h137q-2 -29 -16.5 -58.5t-41.5 -56.5t-73.5 -44t-104.5 -17zM199 335h212v4q0 52 -29 84t-76.5 32
t-77 -32t-29.5 -84v-4zM144 787h85q0 -36 21 -61t62 -25t62.5 25t21.5 61h84q0 -69 -44.5 -117.5t-123.5 -48.5q-53 0 -92 23.5t-57.5 60.5t-18.5 82z" />
    <glyph glyph-name="Edotaccent" unicode="&#x116;" horiz-adv-x="619" 
d="M250 840q0 30 18.5 50t47.5 20t49 -20t20 -50q0 -15 -5.5 -27.5t-14.5 -21.5t-21.5 -14t-27.5 -5q-30 0 -48 19t-18 49zM553 127v-127h-466v714h466v-127h-316v-168h298v-118h-298v-174h316z" />
    <glyph glyph-name="edotaccent" unicode="&#x117;" 
d="M236 683q0 20 8.5 36t24 25t34.5 9q29 0 49 -20t20 -50q0 -15 -5.5 -27.5t-14.5 -21.5t-22 -14t-27 -5q-30 0 -48.5 19t-18.5 49zM312 -10q-119 0 -188.5 67.5t-69.5 192.5v59q0 123 70.5 190.5t179.5 67.5q112 0 180.5 -70t68.5 -188v-63h-354v-26q0 -51 30.5 -82.5
t81.5 -31.5q40 0 67.5 17t32.5 43h137q-2 -29 -16.5 -58.5t-41.5 -56.5t-73.5 -44t-104.5 -17zM199 335h212v4q0 52 -29 84t-76.5 32t-77 -32t-29.5 -84v-4z" />
    <glyph glyph-name="Eogonek" unicode="&#x118;" horiz-adv-x="619" 
d="M554 -193q-34 -11 -74 -11q-36 0 -64.5 11t-47 35t-18.5 59q0 56 49 94v5h-312v714h466v-127h-316v-168h298v-118h-298v-174h316v-102q-38 -8 -68.5 -31.5t-30.5 -57.5q0 -24 17 -37t45 -13q22 0 38 4v-83z" />
    <glyph glyph-name="eogonek" unicode="&#x119;" 
d="M518 -109v-84q-31 -11 -73 -11q-59 0 -95.5 28t-36.5 76q0 57 52 100l-4 7q-28 -14 -74 -14q-101 0 -167 67t-66 190v58q0 83 34 142.5t89.5 88.5t126.5 29q112 0 180.5 -70.5t68.5 -189.5v-62h-354v-26q0 -52 30.5 -83t83.5 -31q39 0 66 17t32 43h136q-4 -28 -16 -53
t-23.5 -39.5t-30.5 -34.5l-6 -6q-19 -20 -28 -30.5t-17.5 -27.5t-8.5 -34q0 -26 18 -39.5t45 -13.5q21 0 38 3zM199 335h212v4q0 52 -29 84t-77 32q-31 0 -55.5 -14.5t-37.5 -40.5t-13 -61v-4z" />
    <glyph glyph-name="Ecaron" unicode="&#x11a;" horiz-adv-x="619" 
d="M124 902h119l70 -60h8l65 60h120l-126 -120h-123zM553 127v-127h-466v714h466v-127h-316v-168h298v-118h-298v-174h316z" />
    <glyph glyph-name="ecaron" unicode="&#x11b;" 
d="M119 808h112l70 -110h5l63 110h115l-126 -183h-106zM312 -10q-119 0 -188.5 67.5t-69.5 192.5v59q0 123 70.5 190.5t179.5 67.5q112 0 180.5 -70t68.5 -188v-63h-354v-26q0 -51 30.5 -82.5t81.5 -31.5q40 0 67.5 17t32.5 43h137q-2 -29 -16.5 -58.5t-41.5 -56.5
t-73.5 -44t-104.5 -17zM199 335h212v4q0 52 -29 84t-76.5 32t-77 -32t-29.5 -84v-4z" />
    <glyph glyph-name="Gcircumflex" unicode="&#x11c;" horiz-adv-x="712" 
d="M173 778l141 131h104l135 -131h-117l-68 66h-7l-72 -66h-116zM653 482h-147q-7 53 -45 83.5t-95 30.5q-71 0 -113 -49t-42 -145v-86q0 -91 38 -144.5t118 -53.5q65 0 104.5 34.5t39.5 84.5v38h-140v114h283v-141q0 -37 -9 -72.5t-31 -70t-54.5 -61t-82.5 -42.5t-112 -16
q-78 0 -137.5 25t-96 70t-54.5 104t-18 130v88q0 148 82 236t227 88q68 0 123 -20.5t89 -55.5t53 -78.5t20 -90.5z" />
    <glyph glyph-name="gcircumflex" unicode="&#x11d;" horiz-adv-x="645" 
d="M137 644l132 183h107l126 -183h-114l-64 108h-5l-70 -108h-112zM309 -95q58 0 87 29t29 84v80h-8q-16 -39 -57 -63.5t-98 -24.5q-94 0 -151.5 66.5t-57.5 185.5v50q0 80 26.5 137t73.5 86t109 29q39 0 72 -13t54.5 -33.5t31.5 -46.5h6v86h145v-550q0 -58 -22 -100.5
t-60.5 -66.5t-84 -35t-99.5 -11q-116 0 -176.5 47t-64.5 119h142q6 -26 33.5 -40.5t69.5 -14.5zM316 443q-51 0 -82 -37t-31 -103v-40q0 -66 31.5 -103.5t82.5 -37.5q33 0 57.5 17t37 46.5t12.5 68.5v56q0 60 -29 96.5t-79 36.5z" />
    <glyph glyph-name="Gbreve" unicode="&#x11e;" horiz-adv-x="712" 
d="M653 482h-147q-7 53 -45 83.5t-95 30.5q-71 0 -113 -49t-42 -145v-86q0 -91 38 -144.5t118 -53.5q65 0 104.5 34.5t39.5 84.5v38h-140v114h283v-141q0 -37 -9 -72.5t-31 -70t-54.5 -61t-82.5 -42.5t-112 -16q-78 0 -137.5 25t-96 70t-54.5 104t-18 130v88q0 148 82 236
t227 88q68 0 123 -20.5t89 -55.5t53 -78.5t20 -90.5zM183 924h86q0 -36 23.5 -57t69 -21t69 21t23.5 57h84q0 -71 -46.5 -113.5t-130.5 -42.5q-56 0 -96.5 19.5t-61 54.5t-20.5 82z" />
    <glyph glyph-name="gbreve" unicode="&#x11f;" horiz-adv-x="645" 
d="M164 787h85q0 -36 21 -61t62 -25t62.5 25t21.5 61h84q0 -69 -44.5 -117.5t-123.5 -48.5q-53 0 -92 23.5t-58 60.5t-18 82zM309 -95q58 0 87 29t29 84v80h-8q-16 -39 -57 -63.5t-98 -24.5q-94 0 -151.5 66.5t-57.5 185.5v50q0 80 26.5 137t73.5 86t109 29q39 0 72 -13
t54.5 -33.5t31.5 -46.5h6v86h145v-550q0 -58 -22 -100.5t-60.5 -66.5t-84 -35t-99.5 -11q-116 0 -176.5 47t-64.5 119h142q6 -26 33.5 -40.5t69.5 -14.5zM316 443q-51 0 -82 -37t-31 -103v-40q0 -66 31.5 -103.5t82.5 -37.5q33 0 57.5 17t37 46.5t12.5 68.5v56
q0 60 -29 96.5t-79 36.5z" />
    <glyph glyph-name="Gdotaccent" unicode="&#x120;" horiz-adv-x="712" 
d="M295 840q0 12 3 22.5t9 19t14 15t18.5 10t21.5 3.5q30 0 49.5 -20t19.5 -50q0 -15 -5 -27.5t-14 -21.5t-22 -14t-28 -5q-29 0 -47.5 19t-18.5 49zM653 482h-147q-7 53 -45 83.5t-95 30.5q-71 0 -113 -49t-42 -145v-86q0 -91 38 -144.5t118 -53.5q65 0 104.5 34.5
t39.5 84.5v38h-140v114h283v-141q0 -37 -9 -72.5t-31 -70t-54.5 -61t-82.5 -42.5t-112 -16q-78 0 -137.5 25t-96 70t-54.5 104t-18 130v88q0 148 82 236t227 88q68 0 123 -20.5t89 -55.5t53 -78.5t20 -90.5z" />
    <glyph glyph-name="gdotaccent" unicode="&#x121;" horiz-adv-x="645" 
d="M256 683q0 20 8.5 36t23.5 25t34.5 9t35.5 -9t25 -25t9 -36q0 -15 -5.5 -27.5t-14.5 -21.5t-22 -14t-27 -5q-30 0 -48.5 19t-18.5 49zM309 -95q58 0 87 29t29 84v80h-8q-16 -39 -57 -63.5t-98 -24.5q-94 0 -151.5 66.5t-57.5 185.5v50q0 80 26.5 137t73.5 86t109 29
q39 0 72 -13t54.5 -33.5t31.5 -46.5h6v86h145v-550q0 -58 -22 -100.5t-60.5 -66.5t-84 -35t-99.5 -11q-116 0 -176.5 47t-64.5 119h142q6 -26 33.5 -40.5t69.5 -14.5zM316 443q-51 0 -82 -37t-31 -103v-40q0 -66 31.5 -103.5t82.5 -37.5q33 0 57.5 17t37 46.5t12.5 68.5v56
q0 60 -29 96.5t-79 36.5z" />
    <glyph glyph-name="Gcommaaccent" unicode="&#x122;" horiz-adv-x="712" 
d="M365 -251h-97l44 170h110zM653 482h-147q-7 53 -45 83.5t-95 30.5q-71 0 -113 -49t-42 -145v-86q0 -91 38 -144.5t118 -53.5q65 0 104.5 34.5t39.5 84.5v38h-140v114h283v-141q0 -37 -9 -72.5t-31 -70t-54.5 -61t-82.5 -42.5t-112 -16q-78 0 -137.5 25t-96 70t-54.5 104
t-18 130v88q0 148 82 236t227 88q68 0 123 -20.5t89 -55.5t53 -78.5t20 -90.5z" />
    <glyph glyph-name="gcommaaccent" unicode="&#x123;" horiz-adv-x="645" 
d="M308 834h98l-44 -175h-114zM309 -95q58 0 87 29t29 84v80h-8q-16 -39 -57 -63.5t-98 -24.5q-94 0 -151.5 66.5t-57.5 185.5v50q0 80 26.5 137t73.5 86t109 29q39 0 72 -13t54.5 -33.5t31.5 -46.5h6v86h145v-550q0 -58 -22 -100.5t-60.5 -66.5t-84 -35t-99.5 -11
q-116 0 -176.5 47t-64.5 119h142q6 -26 33.5 -40.5t69.5 -14.5zM316 443q-51 0 -82 -37t-31 -103v-40q0 -66 31.5 -103.5t82.5 -37.5q33 0 57.5 17t37 46.5t12.5 68.5v56q0 60 -29 96.5t-79 36.5z" />
    <glyph glyph-name="Hcircumflex" unicode="&#x124;" horiz-adv-x="765" 
d="M678 0h-151v299h-288v-299h-152v714h152v-286h288v286h151v-714zM195 778l141 131h104l134 -131h-117l-67 66h-8l-72 -66h-115z" />
    <glyph glyph-name="hcircumflex" unicode="&#x125;" horiz-adv-x="660" 
d="M82 0v752h147v-292h7q5 17 16 33.5t30 33.5t50 27.5t69 10.5q55 0 95.5 -21t64.5 -65.5t24 -108.5v-370h-148v329q0 38 -13.5 63.5t-34.5 35.5t-50 10q-50 0 -80 -35t-30 -94v-309h-147zM-31 838l132 184h107l126 -184h-114l-64 108h-5l-70 -108h-112z" />
    <glyph glyph-name="Hbar" unicode="&#x126;" horiz-adv-x="765" 
d="M239 421h288v99h-288v-99zM239 291v-291h-152v520h-47v95h47v99h152v-99h288v99h151v-99h47v-95h-47v-520h-151v291h-288z" />
    <glyph glyph-name="hbar" unicode="&#x127;" horiz-adv-x="660" 
d="M229 309v-309h-147v604h-59v86h64v62h137v-62h123v-86h-118v-144h7q12 39 53 72t112 33q55 0 95.5 -21t64.5 -65.5t24 -108.5v-370h-148v329q0 38 -13.5 63.5t-34.5 35.5t-50 10q-50 0 -80 -35t-30 -94z" />
    <glyph glyph-name="Itilde" unicode="&#x128;" horiz-adv-x="326" 
d="M239 0h-152v714h152v-714zM154 790l-7.5 7.5t-8.5 8t-8.5 6t-10.5 5t-11 1.5q-33 0 -36 -46h-78q0 47 26.5 83.5t76.5 36.5q27 0 45 -8.5t38 -26.5q3 -2 8 -6.5t7.5 -7t6.5 -5.5t7.5 -5t7.5 -3t8 -1q18 0 27 16.5t10 37.5h77q0 -51 -29.5 -87t-75.5 -36q-30 0 -47 7.5
t-33 22.5z" />
    <glyph glyph-name="itilde" unicode="&#x129;" horiz-adv-x="325" 
d="M89 0v557h147v-557h-147zM154 651q-21 27 -43 27q-34 0 -37 -54h-79q0 62 28.5 104.5t80.5 42.5q25 0 43 -9.5t37 -30.5q2 -2 9 -10.5t10.5 -11.5t10.5 -6.5t15 -3.5q16 0 25 19t10 44h79q0 -60 -31.5 -104t-79.5 -44t-78 37z" />
    <glyph glyph-name="Imacron" unicode="&#x12a;" horiz-adv-x="326" 
d="M239 0h-152v714h152v-714zM323 780h-319v79h319v-79z" />
    <glyph glyph-name="imacron" unicode="&#x12b;" horiz-adv-x="325" 
d="M89 0v557h147v-557h-147zM326 641h-316v83h316v-83z" />
    <glyph glyph-name="Ibreve" unicode="&#x12c;" horiz-adv-x="326" 
d="M239 0h-152v714h152v-714zM-15 924h86q0 -36 23 -57t69 -21t69 21t23 57h85q0 -71 -46.5 -113.5t-130.5 -42.5t-131 42.5t-47 113.5z" />
    <glyph glyph-name="ibreve" unicode="&#x12d;" horiz-adv-x="325" 
d="M89 0v557h147v-557h-147zM7 787h85q0 -36 21 -61t62 -25q28 0 47.5 13t28 31.5t8.5 41.5h84q0 -69 -44.5 -117.5t-123.5 -48.5t-124 48.5t-44 117.5z" />
    <glyph glyph-name="Iogonek" unicode="&#x12e;" horiz-adv-x="325" 
d="M251 -191q-26 -13 -77 -13q-61 0 -94.5 29.5t-33.5 77.5q0 63 62 101v4h-21v706h152v-690q-88 -36 -88 -89q0 -24 16.5 -37t43.5 -13q24 0 40 5v-81z" />
    <glyph glyph-name="iogonek" unicode="&#x12f;" horiz-adv-x="325" 
d="M243 -110v-85q-27 -9 -74 -9q-67 0 -105.5 28t-38.5 81q0 65 64 103v549h147v-526q-38 -14 -68 -38.5t-30 -56.5q0 -24 17.5 -37t45.5 -13q26 0 42 4zM72 719q0 35 24.5 57.5t65.5 22.5q42 0 67 -22.5t25 -57.5q0 -36 -25 -58t-67 -22q-41 0 -65.5 22t-24.5 58z" />
    <glyph glyph-name="Idotaccent" unicode="&#x130;" horiz-adv-x="326" 
d="M239 0h-152v714h152v-714zM97 840q0 30 18.5 50t47.5 20q30 0 49.5 -20t19.5 -50t-19.5 -49t-49.5 -19q-29 0 -47.5 19t-18.5 49z" />
    <glyph glyph-name="dotlessi" unicode="&#x131;" horiz-adv-x="325" 
d="M89 0v557h147v-557h-147z" />
    <glyph glyph-name="Jcircumflex" unicode="&#x134;" horiz-adv-x="593" 
d="M27 217h146q1 -42 26.5 -66t64.5 -24q96 0 96 105v482h152v-480q0 -122 -66 -185t-180 -63q-115 0 -177 66.5t-62 164.5zM247 778l142 131h104l134 -131h-117l-67 66h-8l-72 -66h-116z" />
    <glyph glyph-name="jcircumflex" unicode="&#x135;" horiz-adv-x="325" 
d="M236 557v-562q0 -93 -50.5 -138.5t-138.5 -45.5q-36 0 -59 3v109q15 -3 30 -3q36 0 53.5 18t17.5 58v561h147zM-18 637l133 183h106l126 -183h-114l-64 108h-5l-70 -108h-112z" />
    <glyph glyph-name="Kcommaaccent" unicode="&#x136;" horiz-adv-x="693" 
d="M673 714l-253 -309l263 -405h-181l-193 300l-70 -78v-222h-152v714h152v-311h7l262 311h165zM349 -251h-96l44 170h110z" />
    <glyph glyph-name="kcommaaccent" unicode="&#x137;" horiz-adv-x="613" 
d="M228 190v-190h-147v752h147v-421h6l178 226h165l-199 -240l213 -317h-171l-155 231zM317 -251h-96l43 170h111z" />
    <glyph glyph-name="Lacute" unicode="&#x139;" horiz-adv-x="563" 
d="M70 786l143 118h154l-159 -118h-138zM537 133v-133h-450v714h152v-581h298z" />
    <glyph glyph-name="lacute" unicode="&#x13a;" horiz-adv-x="314" 
d="M109 840l124 184h130l-146 -184h-108zM84 0v752h147v-752h-147z" />
    <glyph glyph-name="Lcommaaccent" unicode="&#x13b;" horiz-adv-x="563" 
d="M289 -251h-97l44 170h110zM537 133v-133h-450v714h152v-581h298z" />
    <glyph glyph-name="lcommaaccent" unicode="&#x13c;" horiz-adv-x="314" 
d="M161 -251h-97l44 170h110zM84 0v752h147v-752h-147z" />
    <glyph glyph-name="Lcaron" unicode="&#x13d;" horiz-adv-x="563" 
d="M345 751h120l-26 -255h-94v255zM537 133v-133h-450v714h152v-581h298z" />
    <glyph glyph-name="lcaron" unicode="&#x13e;" horiz-adv-x="424" 
d="M312 751h117l-25 -256h-92v256zM84 0v752h147v-752h-147z" />
    <glyph glyph-name="Lslash" unicode="&#x141;" horiz-adv-x="577" 
d="M551 0h-450v265l-62 -35v131l62 35v318h152v-230l161 91v-132l-161 -90v-220h298v-133z" />
    <glyph glyph-name="lslash" unicode="&#x142;" horiz-adv-x="366" 
d="M257 0h-147v287l-73 -44v124l73 45v340h147v-250l72 45v-132l-72 -43v-372z" />
    <glyph glyph-name="Nacute" unicode="&#x143;" horiz-adv-x="751" 
d="M282 786l143 118h155l-160 -118h-138zM230 0h-143v714h124l305 -447h6v447h142v-714h-123l-305 450h-6v-450z" />
    <glyph glyph-name="nacute" unicode="&#x144;" horiz-adv-x="656" 
d="M280 645l124 185h130l-146 -185h-108zM80 0v557h143v-97h7q6 18 17 34.5t30 33.5t49.5 27t68.5 10q86 0 135.5 -49.5t49.5 -145.5v-370h-147v330q0 56 -26.5 82t-69.5 26q-51 0 -81 -34.5t-30 -94.5v-309h-146z" />
    <glyph glyph-name="Ncommaaccent" unicode="&#x145;" horiz-adv-x="751" 
d="M379 -251h-97l44 170h110zM230 0h-143v714h124l305 -447h6v447h142v-714h-123l-305 450h-6v-450z" />
    <glyph glyph-name="ncommaaccent" unicode="&#x146;" horiz-adv-x="656" 
d="M332 -251h-97l44 170h110zM80 0v557h143v-97h7q6 18 17 34.5t30 33.5t49.5 27t68.5 10q86 0 135.5 -49.5t49.5 -145.5v-370h-147v330q0 56 -26.5 82t-69.5 26q-51 0 -81 -34.5t-30 -94.5v-309h-146z" />
    <glyph glyph-name="Ncaron" unicode="&#x147;" horiz-adv-x="751" 
d="M184 902h119l70 -60h8l65 60h119l-125 -120h-123zM230 0h-143v714h124l305 -447h6v447h142v-714h-123l-305 450h-6v-450z" />
    <glyph glyph-name="ncaron" unicode="&#x148;" horiz-adv-x="656" 
d="M145 808h112l69 -110h6l63 110h114l-126 -183h-106zM80 0v557h143v-97h7q6 18 17 34.5t30 33.5t49.5 27t68.5 10q86 0 135.5 -49.5t49.5 -145.5v-370h-147v330q0 56 -26.5 82t-69.5 26q-51 0 -81 -34.5t-30 -94.5v-309h-146z" />
    <glyph glyph-name="Omacron" unicode="&#x14c;" horiz-adv-x="737" 
d="M213 400v-89q0 -95 42 -144.5t113 -49.5t113.5 49.5t42.5 144.5v89q0 95 -42.5 146t-113.5 51q-70 0 -112.5 -51t-42.5 -146zM59 311v87q0 153 82.5 241t227.5 88t227 -88.5t82 -240.5v-87q0 -151 -82.5 -238t-227.5 -87t-227 87t-82 238zM528 780h-319v79h319v-79z" />
    <glyph glyph-name="omacron" unicode="&#x14d;" horiz-adv-x="624" 
d="M473 641h-316v83h316v-83zM313 567q116 0 186.5 -70.5t70.5 -188.5v-55q0 -124 -69.5 -193.5t-187.5 -69.5q-120 0 -189.5 69t-69.5 194v54q0 117 71 188.5t188 71.5zM312 450q-53 0 -81 -41t-28 -103v-54q0 -62 27.5 -103.5t81.5 -41.5t81.5 41.5t27.5 103.5v54
q0 41 -11.5 72.5t-36.5 51.5t-61 20z" />
    <glyph glyph-name="Obreve" unicode="&#x14e;" horiz-adv-x="737" 
d="M213 400v-89q0 -95 42 -144.5t113 -49.5t113.5 49.5t42.5 144.5v89q0 95 -42.5 146t-113.5 51q-70 0 -112.5 -51t-42.5 -146zM59 311v87q0 153 82.5 241t227.5 88t227 -88.5t82 -240.5v-87q0 -151 -82.5 -238t-227.5 -87t-227 87t-82 238zM190 924h86q0 -36 23 -57
t69 -21t69 21t23 57h85q0 -71 -46.5 -113.5t-130.5 -42.5q-56 0 -96.5 19.5t-61 54.5t-20.5 82z" />
    <glyph glyph-name="obreve" unicode="&#x14f;" horiz-adv-x="624" 
d="M153 787h86q0 -36 21 -61t62 -25q21 0 37.5 7.5t26 19.5t14.5 27t5 32h84q0 -69 -44 -117.5t-123 -48.5q-80 0 -124.5 48.5t-44.5 117.5zM313 567q116 0 186.5 -70.5t70.5 -188.5v-55q0 -124 -69.5 -193.5t-187.5 -69.5q-120 0 -189.5 69t-69.5 194v54q0 117 71 188.5
t188 71.5zM312 450q-53 0 -81 -41t-28 -103v-54q0 -62 27.5 -103.5t81.5 -41.5t81.5 41.5t27.5 103.5v54q0 41 -11.5 72.5t-36.5 51.5t-61 20z" />
    <glyph glyph-name="Ohungarumlaut" unicode="&#x150;" horiz-adv-x="737" 
d="M185 786l159 130h131l-177 -130h-113zM397 786l159 130h131l-177 -130h-113zM213 400v-89q0 -95 42 -144.5t113 -49.5t113.5 49.5t42.5 144.5v89q0 95 -42.5 146t-113.5 51q-70 0 -112.5 -51t-42.5 -146zM59 311v87q0 153 82.5 241t227.5 88t227 -88.5t82 -240.5v-87
q0 -151 -82.5 -238t-227.5 -87t-227 87t-82 238z" />
    <glyph glyph-name="ohungarumlaut" unicode="&#x151;" horiz-adv-x="624" 
d="M246 645h-92l129 188h117zM439 645h-92l129 188h117zM313 567q116 0 186.5 -70.5t70.5 -188.5v-55q0 -124 -69.5 -193.5t-187.5 -69.5q-120 0 -189.5 69t-69.5 194v54q0 117 71 188.5t188 71.5zM312 450q-53 0 -81 -41t-28 -103v-54q0 -62 27.5 -103.5t81.5 -41.5
t81.5 41.5t27.5 103.5v54q0 41 -11.5 72.5t-36.5 51.5t-61 20z" />
    <glyph glyph-name="OE" unicode="&#x152;" horiz-adv-x="1055" 
d="M218 400v-90q0 -95 42.5 -144.5t113.5 -49.5q72 0 114.5 48t42.5 143v98q0 94 -43 143t-114 49t-113.5 -51t-42.5 -146zM346 -14q-133 0 -210 88.5t-77 237.5v86q0 156 79 242.5t209 86.5q64 0 114 -22.5t77 -64.5h9v74h442v-127h-313v-168h294v-118h-294v-174h313v-127
h-442v76h-9q-28 -42 -77.5 -66t-114.5 -24z" />
    <glyph glyph-name="oe" unicode="&#x153;" horiz-adv-x="977" 
d="M683 -10q-58 0 -107 20.5t-74 53.5h-9q-27 -33 -76 -53.5t-104 -20.5q-120 0 -189.5 69t-69.5 194v54q0 117 71 188.5t188 71.5q56 0 104.5 -20.5t74.5 -56.5h9q17 23 43.5 40t60.5 27t71 10q111 0 179.5 -70t68.5 -188v-63h-354v-26q0 -51 31 -82.5t81 -31.5q40 0 68 17
t31 43h139q-3 -29 -17.5 -58.5t-41.5 -56.5t-73.5 -44t-104.5 -17zM312 450q-53 0 -81 -41t-28 -103v-54q0 -62 27.5 -103.5t81.5 -41.5t81.5 41.5t27.5 103.5v54q0 41 -11.5 72.5t-36.5 51.5t-61 20zM570 335h212v4q0 35 -13 61t-37 40.5t-55 14.5q-48 0 -77.5 -32
t-29.5 -84v-4z" />
    <glyph glyph-name="Racute" unicode="&#x154;" horiz-adv-x="691" 
d="M242 786l143 118h154l-159 -118h-138zM378 714q63 0 112 -17.5t80 -48.5t46.5 -72.5t15.5 -91.5q0 -34 -8.5 -64t-21.5 -52t-30.5 -39.5t-34.5 -28t-34 -17.5l144 -283h-169l-124 260h-118v-260h-149v714h291zM236 375h118q58 0 90.5 27.5t32.5 79.5q0 54 -33.5 83
t-87.5 29h-120v-219z" />
    <glyph glyph-name="racute" unicode="&#x155;" horiz-adv-x="451" 
d="M190 645l124 185h130l-146 -185h-108zM84 0v557h148v-88h7q4 16 14 31.5t26 30.5t41.5 24.5t55.5 9.5q29 0 46 -4v-132q-16 6 -56 6q-65 0 -98 -33.5t-33 -91.5v-310h-151z" />
    <glyph glyph-name="Rcommaaccent" unicode="&#x156;" horiz-adv-x="691" 
d="M378 714q63 0 112 -17.5t80 -48.5t46.5 -72.5t15.5 -91.5q0 -34 -8.5 -64t-21.5 -52t-30.5 -39.5t-34.5 -28t-34 -17.5l144 -283h-169l-124 260h-118v-260h-149v714h291zM236 375h118q58 0 90.5 27.5t32.5 79.5q0 54 -33.5 83t-87.5 29h-120v-219zM338 -251h-96l44 170
h110z" />
    <glyph glyph-name="rcommaaccent" unicode="&#x157;" horiz-adv-x="451" 
d="M84 0v557h148v-88h7q4 16 14 31.5t26 30.5t41.5 24.5t55.5 9.5q29 0 46 -4v-132q-16 6 -56 6q-65 0 -98 -33.5t-33 -91.5v-310h-151zM200 -251h-96l43 170h110z" />
    <glyph glyph-name="Rcaron" unicode="&#x158;" horiz-adv-x="691" 
d="M378 714q63 0 112 -17.5t80 -48.5t46.5 -72.5t15.5 -91.5q0 -34 -8.5 -64t-21.5 -52t-30.5 -39.5t-34.5 -28t-34 -17.5l144 -283h-169l-124 260h-118v-260h-149v714h291zM236 375h118q58 0 90.5 27.5t32.5 79.5q0 54 -33.5 83t-87.5 29h-120v-219zM144 902h119l70 -60h8
l64 60h120l-125 -120h-123z" />
    <glyph glyph-name="rcaron" unicode="&#x159;" horiz-adv-x="451" 
d="M55 808h112l69 -110h6l63 110h115l-127 -183h-106zM84 0v557h148v-88h7q4 16 14 31.5t26 30.5t41.5 24.5t55.5 9.5q29 0 46 -4v-132q-16 6 -56 6q-65 0 -98 -33.5t-33 -91.5v-310h-151z" />
    <glyph glyph-name="Sacute" unicode="&#x15a;" horiz-adv-x="663" 
d="M237 786l144 118h154l-159 -118h-139zM44 206h146q3 -41 40.5 -69t101.5 -28q41 0 70.5 11.5t44 31.5t14.5 47q0 34 -26 53.5t-82 32.5l-108 23q-39 9 -71 24t-58 38.5t-40.5 58.5t-14.5 79q0 69 36.5 119.5t97 75.5t137.5 25q118 0 192.5 -60.5t75.5 -154.5h-141
q-3 39 -36 66.5t-92 27.5q-55 0 -87 -23.5t-32 -62.5q0 -60 98 -80l108 -23q42 -9 74.5 -23t60.5 -37t43 -59.5t15 -84.5q0 -105 -77 -166.5t-209 -61.5q-51 0 -93.5 9.5t-72.5 25.5t-52.5 37t-35.5 46t-19.5 50.5t-7.5 51.5z" />
    <glyph glyph-name="sacute" unicode="&#x15b;" horiz-adv-x="569" 
d="M59 391q0 46 18.5 80.5t50.5 55t71.5 30.5t86.5 10q97 0 156.5 -43.5t59.5 -121.5h-130q-2 16 -12 30t-30 23.5t-46 9.5q-20 0 -36 -4.5t-26.5 -12.5t-16.5 -19.5t-6 -25.5q0 -9 3 -16.5t9 -13.5t12 -10.5t17 -8.5t19 -6.5t21.5 -5l21 -4t22.5 -3.5t20 -3
q84 -14 129.5 -50.5t45.5 -107.5q0 -86 -64 -135t-178 -49q-107 0 -168 45.5t-61 120.5h143q4 -29 27.5 -46t65.5 -17q46 0 69 17.5t23 45.5q0 8 -2 15t-7 12.5t-10 10t-15 8t-16.5 6t-19.5 5.5t-20.5 4.5l-23.5 4.5t-23 4q-41 8 -71 19t-56 29.5t-39.5 48t-13.5 68.5z
M236 645l124 185h130l-146 -185h-108z" />
    <glyph glyph-name="Scircumflex" unicode="&#x15c;" horiz-adv-x="663" 
d="M44 206h146q3 -41 40.5 -69t101.5 -28q41 0 70.5 11.5t44 31.5t14.5 47q0 34 -26 53.5t-82 32.5l-108 23q-39 9 -71 24t-58 38.5t-40.5 58.5t-14.5 79q0 69 36.5 119.5t97 75.5t137.5 25q118 0 192.5 -60.5t75.5 -154.5h-141q-3 39 -36 66.5t-92 27.5q-55 0 -87 -23.5
t-32 -62.5q0 -60 98 -80l108 -23q42 -9 74.5 -23t60.5 -37t43 -59.5t15 -84.5q0 -105 -77 -166.5t-209 -61.5q-51 0 -93.5 9.5t-72.5 25.5t-52.5 37t-35.5 46t-19.5 50.5t-7.5 51.5zM143 778l141 131h104l135 -131h-118l-67 66h-7l-73 -66h-115z" />
    <glyph glyph-name="scircumflex" unicode="&#x15d;" horiz-adv-x="569" 
d="M99 644l132 183h107l126 -183h-115l-63 108h-5l-70 -108h-112zM59 391q0 46 18.5 80.5t50.5 55t71.5 30.5t86.5 10q97 0 156.5 -43.5t59.5 -121.5h-130q-2 16 -12 30t-30 23.5t-46 9.5q-20 0 -36 -4.5t-26.5 -12.5t-16.5 -19.5t-6 -25.5q0 -9 3 -16.5t9 -13.5t12 -10.5
t17 -8.5t19 -6.5t21.5 -5l21 -4t22.5 -3.5t20 -3q84 -14 129.5 -50.5t45.5 -107.5q0 -86 -64 -135t-178 -49q-107 0 -168 45.5t-61 120.5h143q4 -29 27.5 -46t65.5 -17q46 0 69 17.5t23 45.5q0 8 -2 15t-7 12.5t-10 10t-15 8t-16.5 6t-19.5 5.5t-20.5 4.5l-23.5 4.5t-23 4
q-41 8 -71 19t-56 29.5t-39.5 48t-13.5 68.5z" />
    <glyph glyph-name="Scedilla" unicode="&#x15e;" horiz-adv-x="663" 
d="M335 -252q-45 -1 -76 8v67q25 -7 58 -7q57 0 57 30q0 18 -16 24.5t-51 6.5h-29v56l21 54q-68 4 -119 24.5t-79 52.5t-42 67.5t-15 74.5h146q3 -41 40.5 -69t101.5 -28q41 0 70.5 11.5t44 31.5t14.5 47q0 34 -26 53.5t-82 32.5l-108 23q-39 9 -71 24t-58 38.5t-40.5 58.5
t-14.5 79q0 69 36.5 119.5t97 75.5t137.5 25q118 0 192.5 -60.5t75.5 -154.5h-141q-3 39 -36 66.5t-92 27.5q-55 0 -87 -23.5t-32 -62.5q0 -60 98 -80l108 -23q42 -9 74.5 -23t60.5 -37t43 -59.5t15 -84.5q0 -92 -60 -151.5t-167 -72.5l-19 -50q46 0 73 -23.5t27 -65.5
q0 -51 -35 -76.5t-95 -26.5z" />
    <glyph glyph-name="scedilla" unicode="&#x15f;" horiz-adv-x="569" 
d="M283 -252q-44 -1 -76 8v67q24 -7 58 -7q57 0 57 30q0 18 -16 24.5t-51 6.5h-29v56l22 58q-94 6 -147 50.5t-53 114.5h143q4 -29 27.5 -46t65.5 -17q46 0 69 17.5t23 45.5q0 8 -2 15t-7 12.5t-10 10t-15 8t-16.5 6t-19.5 5.5t-20.5 4.5l-23.5 4.5t-23 4q-41 8 -71 19
t-56 29.5t-39.5 48t-13.5 68.5q0 46 18.5 80.5t50.5 55t71.5 30.5t86.5 10q97 0 156.5 -43.5t59.5 -121.5h-130q-2 16 -12 30t-30 23.5t-46 9.5q-20 0 -36 -4.5t-26.5 -12.5t-16.5 -19.5t-6 -25.5q0 -9 3 -16.5t9 -13.5t12 -10.5t17 -8.5t19 -6.5t21.5 -5l21 -4t22.5 -3.5
t20 -3q84 -14 129.5 -50.5t45.5 -107.5q0 -74 -48.5 -121t-136.5 -59l-22 -54q47 0 74 -23.5t27 -65.5q0 -51 -35 -76.5t-95 -26.5z" />
    <glyph glyph-name="Scaron" unicode="&#x160;" horiz-adv-x="663" 
d="M44 206h146q3 -41 40.5 -69t101.5 -28q41 0 70.5 11.5t44 31.5t14.5 47q0 34 -26 53.5t-82 32.5l-108 23q-39 9 -71 24t-58 38.5t-40.5 58.5t-14.5 79q0 69 36.5 119.5t97 75.5t137.5 25q118 0 192.5 -60.5t75.5 -154.5h-141q-3 39 -36 66.5t-92 27.5q-55 0 -87 -23.5
t-32 -62.5q0 -60 98 -80l108 -23q42 -9 74.5 -23t60.5 -37t43 -59.5t15 -84.5q0 -105 -77 -166.5t-209 -61.5q-51 0 -93.5 9.5t-72.5 25.5t-52.5 37t-35.5 46t-19.5 50.5t-7.5 51.5zM140 902h118l70 -60h8l65 60h120l-126 -120h-122z" />
    <glyph glyph-name="scaron" unicode="&#x161;" horiz-adv-x="569" 
d="M101 808h112l69 -110h6l63 110h115l-127 -183h-106zM59 391q0 46 18.5 80.5t50.5 55t71.5 30.5t86.5 10q97 0 156.5 -43.5t59.5 -121.5h-130q-2 16 -12 30t-30 23.5t-46 9.5q-20 0 -36 -4.5t-26.5 -12.5t-16.5 -19.5t-6 -25.5q0 -9 3 -16.5t9 -13.5t12 -10.5t17 -8.5
t19 -6.5t21.5 -5l21 -4t22.5 -3.5t20 -3q84 -14 129.5 -50.5t45.5 -107.5q0 -86 -64 -135t-178 -49q-107 0 -168 45.5t-61 120.5h143q4 -29 27.5 -46t65.5 -17q46 0 69 17.5t23 45.5q0 8 -2 15t-7 12.5t-10 10t-15 8t-16.5 6t-19.5 5.5t-20.5 4.5l-23.5 4.5t-23 4
q-41 8 -71 19t-56 29.5t-39.5 48t-13.5 68.5z" />
    <glyph glyph-name="Tcedilla" unicode="&#x162;" horiz-adv-x="593" 
d="M261 0h-40v583h-200v131h552v-131h-201v-583h-27l-29 -60q47 0 74 -23.5t27 -65.5q0 -51 -35 -76.5t-95 -26.5q-45 -1 -76 8v67q25 -7 58 -7q57 0 57 30q0 18 -16 24.5t-52 6.5h-28v56z" />
    <glyph glyph-name="tcedilla" unicode="&#x163;" horiz-adv-x="440" 
d="M251 -245q-49 -1 -76 8v67q24 -7 58 -7q57 0 57 30q0 12 -8 19t-22 9t-38 2h-28v56l26 68q-36 9 -58 28.5t-31.5 49t-9.5 73.5v275h-85v117h88v138h143v-138h123v-117h-123v-251q0 -38 18 -53t61 -15q28 0 48 2v-112q-33 -7 -84 -7h-9l-21 -50q46 0 73.5 -24t27.5 -65
q0 -35 -17 -58t-45.5 -34t-67.5 -11z" />
    <glyph glyph-name="Tcaron" unicode="&#x164;" horiz-adv-x="593" 
d="M106 902h118l70 -60h8l65 60h120l-126 -120h-122zM372 0h-151v583h-200v131h552v-131h-201v-583z" />
    <glyph glyph-name="tcaron" unicode="&#x165;" horiz-adv-x="471" 
d="M347 876h117l-25 -255h-92v255zM124 550v138h143v-138h123v-117h-123v-251q0 -38 18 -53t61 -15q28 0 48 2v-112q-33 -7 -84 -7q-104 0 -146.5 37t-42.5 124v275h-85v117h88z" />
    <glyph glyph-name="Tbar" unicode="&#x166;" horiz-adv-x="593" 
d="M492 305h-120v-305h-151v305h-119v95h119v183h-200v131h552v-131h-201v-183h120v-95z" />
    <glyph glyph-name="tbar" unicode="&#x167;" horiz-adv-x="440" 
d="M394 4q-33 -7 -84 -7q-104 0 -146.5 37t-42.5 124v97h-77v86h77v92h-85v117h88v138h143v-138h123v-117h-123v-92h111v-86h-111v-73q0 -38 18 -53t61 -15q28 0 48 2v-112z" />
    <glyph glyph-name="Utilde" unicode="&#x168;" horiz-adv-x="742" 
d="M231 714v-450q0 -69 38 -106.5t102 -37.5t102.5 37.5t38.5 106.5v450h151v-467q0 -118 -79.5 -189.5t-212 -71.5t-212 72t-79.5 190v466h151zM362 790l-7.5 7.5t-8.5 8t-8.5 6t-10.5 5t-11 1.5q-32 0 -36 -46h-78q0 47 26.5 83.5t76.5 36.5q27 0 45 -8.5t39 -26.5
q2 -2 8.5 -8t9 -8.5t7.5 -5.5t9.5 -4.5t10.5 -1.5q17 0 26 16.5t10 37.5h78q0 -51 -29.5 -87t-75.5 -36q-22 0 -38 4.5t-24 10t-19 15.5z" />
    <glyph glyph-name="utilde" unicode="&#x169;" horiz-adv-x="655" 
d="M576 557v-557h-144v93h-7q-13 -39 -55 -70t-108 -31q-87 0 -136.5 47.5t-49.5 143.5v374h147v-335q0 -30 8 -51t22.5 -32t30.5 -16t36 -5q46 0 77 30.5t31 79.5v329h148zM316 651q-21 27 -43 27q-34 0 -37 -54h-80q0 62 29 104.5t81 42.5q12 0 23 -2.5t20.5 -7.5t18 -12
t18.5 -18q2 -2 9 -10.5t10 -11.5t10 -6.5t15 -3.5q17 0 25.5 19t9.5 44h80q0 -60 -32 -104t-79 -44q-49 0 -78 37z" />
    <glyph glyph-name="Umacron" unicode="&#x16a;" horiz-adv-x="742" 
d="M231 714v-450q0 -69 38 -106.5t102 -37.5t102.5 37.5t38.5 106.5v450h151v-467q0 -118 -79.5 -189.5t-212 -71.5t-212 72t-79.5 190v466h151zM531 780h-319v79h319v-79z" />
    <glyph glyph-name="umacron" unicode="&#x16b;" horiz-adv-x="655" 
d="M576 557v-557h-144v93h-7q-13 -39 -55 -70t-108 -31q-87 0 -136.5 47.5t-49.5 143.5v374h147v-335q0 -30 8 -51t22.5 -32t30.5 -16t36 -5q46 0 77 30.5t31 79.5v329h148zM488 641h-316v83h316v-83z" />
    <glyph glyph-name="Ubreve" unicode="&#x16c;" horiz-adv-x="742" 
d="M231 714v-450q0 -69 38 -106.5t102 -37.5t102.5 37.5t38.5 106.5v450h151v-467q0 -118 -79.5 -189.5t-212 -71.5t-212 72t-79.5 190v466h151zM193 924h86q0 -36 23.5 -57t69 -21t68.5 21t23 57h85q0 -71 -46.5 -113.5t-130.5 -42.5t-131 42.5t-47 113.5z" />
    <glyph glyph-name="ubreve" unicode="&#x16d;" horiz-adv-x="655" 
d="M576 557v-557h-144v93h-7q-13 -39 -55 -70t-108 -31q-87 0 -136.5 47.5t-49.5 143.5v374h147v-335q0 -30 8 -51t22.5 -32t30.5 -16t36 -5q46 0 77 30.5t31 79.5v329h148zM168 787h86q0 -23 8 -41.5t27.5 -31.5t47.5 -13q21 0 37.5 7.5t26 19.5t15 27t5.5 32h83
q0 -69 -44 -117.5t-123 -48.5t-124 48.5t-45 117.5z" />
    <glyph glyph-name="Uring" unicode="&#x16e;" horiz-adv-x="742" 
d="M231 714v-450q0 -69 38 -106.5t102 -37.5t102.5 37.5t38.5 106.5v450h151v-467q0 -118 -79.5 -189.5t-212 -71.5t-212 72t-79.5 190v466h151zM371 775q-49 0 -81.5 32t-32.5 81q0 48 32.5 79.5t81.5 31.5q24 0 45.5 -8t36.5 -23t23.5 -35.5t8.5 -44.5q0 -49 -32.5 -81
t-81.5 -32zM323 887q0 -21 13.5 -34.5t34.5 -13.5t35 13.5t14 34.5t-14 34.5t-35 13.5t-34.5 -13.5t-13.5 -34.5z" />
    <glyph glyph-name="uring" unicode="&#x16f;" horiz-adv-x="655" 
d="M576 557v-557h-144v93h-7q-13 -39 -55 -70t-108 -31q-87 0 -136.5 47.5t-49.5 143.5v374h147v-335q0 -30 8 -51t22.5 -32t30.5 -16t36 -5q46 0 77 30.5t31 79.5v329h148zM327 618q-49 0 -81.5 32t-32.5 81q0 48 32.5 79.5t81.5 31.5t81.5 -31.5t32.5 -79.5
q0 -49 -32.5 -81t-81.5 -32zM279 730q0 -21 13.5 -34.5t34.5 -13.5t35 13.5t14 34.5t-14 34.5t-35 13.5t-34.5 -13.5t-13.5 -34.5z" />
    <glyph glyph-name="Uhungarumlaut" unicode="&#x170;" horiz-adv-x="742" 
d="M231 714v-450q0 -69 38 -106.5t102 -37.5t102.5 37.5t38.5 106.5v450h151v-467q0 -118 -79.5 -189.5t-212 -71.5t-212 72t-79.5 190v466h151zM188 786l159 130h132l-178 -130h-113zM400 786l159 130h131l-177 -130h-113z" />
    <glyph glyph-name="uhungarumlaut" unicode="&#x171;" horiz-adv-x="655" 
d="M261 645h-92l129 188h117zM454 645h-92l129 188h117zM576 557v-557h-144v93h-7q-13 -39 -55 -70t-108 -31q-87 0 -136.5 47.5t-49.5 143.5v374h147v-335q0 -30 8 -51t22.5 -32t30.5 -16t36 -5q46 0 77 30.5t31 79.5v329h148z" />
    <glyph glyph-name="Uogonek" unicode="&#x172;" horiz-adv-x="742" 
d="M530 -204q-58 0 -93 29t-35 78q0 56 40 94l-1 2q-38 -13 -74 -13q-129 0 -208 72t-79 190v466h151v-450q0 -46 17.5 -79t48.5 -49t74 -16q64 0 102.5 37.5t38.5 106.5v450h151v-467q0 -116 -78 -194q-8 -9 -27.5 -27t-28.5 -27.5t-17.5 -26t-8.5 -33.5q0 -26 17.5 -39.5
t44.5 -13.5q18 0 40 6v-84q-32 -12 -75 -12z" />
    <glyph glyph-name="uogonek" unicode="&#x173;" horiz-adv-x="655" 
d="M582 -194q-30 -10 -76 -10q-56 0 -94 27t-38 81q0 60 64 106v83h-8q-13 -39 -55.5 -70t-110.5 -31q-86 0 -137 47.5t-51 143.5v374h147v-335q0 -57 27.5 -80.5t68.5 -23.5q46 0 77.5 30t31.5 80v329h148v-530q-38 -14 -66.5 -38.5t-28.5 -54.5q0 -16 8 -26.5t22 -15
t32 -4.5q23 0 39 3v-85z" />
    <glyph glyph-name="Wcircumflex" unicode="&#x174;" horiz-adv-x="949" 
d="M287 778l141 131h104l134 -131h-117l-67 66h-8l-72 -66h-115zM343 0h-140l-187 714h163l102 -500h7l123 500h129l122 -500h8l101 500h162l-187 -714h-140l-128 475h-6z" />
    <glyph glyph-name="wcircumflex" unicode="&#x175;" horiz-adv-x="855" 
d="M242 644l133 183h106l126 -183h-114l-64 108h-5l-70 -108h-112zM832 557l-144 -557h-153l-103 386h-5l-101 -386h-155l-147 557h154l77 -402h6l100 402h138l102 -402h6l79 402h146z" />
    <glyph glyph-name="Ycircumflex" unicode="&#x176;" horiz-adv-x="636" 
d="M394 0h-151v259l-239 455h167l146 -298h6l147 298h163l-239 -451v-263zM130 778l141 131h104l134 -131h-117l-67 66h-7l-73 -66h-115z" />
    <glyph glyph-name="ycircumflex" unicode="&#x177;" horiz-adv-x="602" 
d="M575 557q-177 -529 -180 -536l-14 -37q-16 -43 -33.5 -73t-45 -56t-67.5 -39t-93 -13q-44 0 -79 7v108q16 -4 46 -4q49 0 71 17.5t29 53.5l4 16l-189 556h162l112 -429h6l114 429h157zM115 644l132 183h107l126 -183h-114l-64 108h-5l-70 -108h-112z" />
    <glyph glyph-name="Ydieresis" unicode="&#x178;" horiz-adv-x="636" 
d="M394 0h-151v259l-239 455h167l146 -298h6l147 298h163l-239 -451v-263zM150 826q0 28 18 45.5t47 17.5q30 0 47.5 -17.5t17.5 -45.5t-17.5 -45.5t-47.5 -17.5q-19 0 -34 8t-23 22.5t-8 32.5zM355 826q0 19 7.5 33t22.5 22t34 8q30 0 48 -17.5t18 -45.5t-18 -45.5
t-48 -17.5q-29 0 -46.5 17.5t-17.5 45.5z" />
    <glyph glyph-name="Zacute" unicode="&#x179;" horiz-adv-x="646" 
d="M230 786l143 118h154l-159 -118h-138zM58 0v102l337 477v7h-329v128h513v-101l-337 -477v-8h347v-128h-531z" />
    <glyph glyph-name="zacute" unicode="&#x17a;" horiz-adv-x="553" 
d="M229 645l124 185h129l-146 -185h-107zM58 0v84l260 347v7h-257v119h434v-94l-250 -336v-7h257v-120h-444z" />
    <glyph glyph-name="Zdotaccent" unicode="&#x17b;" horiz-adv-x="646" 
d="M58 0v102l337 477v7h-329v128h513v-101l-337 -477v-8h347v-128h-531zM257 840q0 20 8.5 36t23.5 25t34 9q30 0 49.5 -20t19.5 -50t-19.5 -49t-49.5 -19q-29 0 -47.5 19t-18.5 49z" />
    <glyph glyph-name="zdotaccent" unicode="&#x17c;" horiz-adv-x="553" 
d="M210 683q0 30 18.5 50t48.5 20q29 0 49 -20t20 -50q0 -15 -5.5 -27.5t-14.5 -21.5t-22 -14t-27 -5q-30 0 -48.5 19t-18.5 49zM58 0v84l260 347v7h-257v119h434v-94l-250 -336v-7h257v-120h-444z" />
    <glyph glyph-name="Zcaron" unicode="&#x17d;" horiz-adv-x="646" 
d="M58 0v102l337 477v7h-329v128h513v-101l-337 -477v-8h347v-128h-531zM132 902h119l70 -60h7l65 60h120l-125 -120h-123z" />
    <glyph glyph-name="zcaron" unicode="&#x17e;" horiz-adv-x="553" 
d="M93 808h112l70 -110h5l63 110h115l-126 -183h-107zM58 0v84l260 347v7h-257v119h434v-94l-250 -336v-7h257v-120h-444z" />
    <glyph glyph-name="florin" unicode="&#x192;" horiz-adv-x="647" 
d="M73 -97l81 434h-99l20 124h99l14 79q17 98 74 142.5t160 44.5q54 0 93 -15.5t59 -41.5t28 -56t5 -64h-135q2 25 -12.5 42.5t-41.5 17.5q-59 0 -72 -72l-13 -77h154l-20 -124h-154l-81 -434h-159z" />
    <glyph glyph-name="Ohorn" unicode="&#x1a0;" horiz-adv-x="752" 
d="M678 311q0 -151 -82.5 -238t-227.5 -87t-227 87t-82 238v87q0 153 82.5 241t227.5 88q52 0 119 -18t96 -18q18 0 30.5 3.5t20.5 9.5t12 15.5t5.5 19.5t1.5 23v66h117v-85q0 -69 -37 -110t-103 -41l-2 -2q22 -35 35.5 -86t13.5 -106v-87zM212 400v-90q0 -95 42.5 -144.5
t113.5 -49.5t114 49.5t43 144.5v90q0 95 -43 146t-114 51q-70 0 -113 -51t-43 -146z" />
    <glyph glyph-name="ohorn" unicode="&#x1a1;" horiz-adv-x="640" 
d="M313 -10q-120 0 -189.5 69t-69.5 194v54q0 117 71 188.5t188 71.5q34 0 74 -8.5t64 -8.5q33 0 45 14.5t12 47.5v83h117v-99q0 -56 -24.5 -94t-73.5 -48v-5q43 -69 43 -141v-55q0 -124 -69.5 -193.5t-187.5 -69.5zM312 450q-53 0 -81 -41t-28 -103v-54q0 -62 27.5 -103.5
t81.5 -41.5t81.5 41.5t27.5 103.5v54q0 41 -11.5 72.5t-36.5 51.5t-61 20z" />
    <glyph glyph-name="Uhorn" unicode="&#x1af;" horiz-adv-x="796" 
d="M371.5 -13q-132.5 0 -212 72t-79.5 190v465h151v-449q0 -46 17.5 -79t49 -49.5t73.5 -16.5q64 0 102.5 38t38.5 107v449h152q31 0 44 15.5t13 46.5v68h116v-86q0 -43 -15 -77t-47 -54.5t-77 -20.5h-35v-358q0 -118 -79.5 -189.5t-212 -71.5z" />
    <glyph glyph-name="uhorn" unicode="&#x1b0;" horiz-adv-x="735" 
d="M425 93q-13 -39 -55 -70t-108 -31q-87 0 -136.5 47.5t-49.5 143.5v374h147v-335q0 -30 8 -51t22.5 -32t30.5 -16t36 -5q46 0 77 30.5t31 79.5v329h131q16 0 26.5 4t16 12.5t7.5 19t2 26.5v76h117v-94q0 -66 -36.5 -109t-103.5 -43h-12v-449h-144v93h-7z" />
    <glyph glyph-name="Acaron" unicode="&#x1cd;" horiz-adv-x="692" 
d="M172 0h-152l237 714h180l235 -714h-162l-52 173h-233zM346 568h-8l-83 -279h173zM155 902h119l70 -60h8l64 60h120l-125 -120h-123z" />
    <glyph glyph-name="acaron" unicode="&#x1ce;" 
d="M235 -8q-82 0 -132.5 45.5t-50.5 124.5q0 76 51.5 121t146.5 45h134v49q0 24 -11 41t-30 25t-46 8q-76 0 -86 -57h-139q5 75 60.5 123t166.5 48q40 0 73.5 -6t62.5 -20.5t50 -36.5t32.5 -55t11.5 -75v-372h-138v70h-7q-18 -34 -55 -56t-94 -22zM284 101q20 0 38.5 6
t32 17t21.5 26.5t8 33.5v57h-100q-42 0 -64 -18.5t-22 -49.5q0 -34 25 -53t61 -19zM119 808h112l69 -110h5l64 110h114l-126 -183h-106z" />
    <glyph glyph-name="Icaron" unicode="&#x1cf;" horiz-adv-x="326" 
d="M239 0h-152v714h152v-714zM-28 902h118l71 -60h7l65 60h120l-125 -120h-123z" />
    <glyph glyph-name="icaron" unicode="&#x1d0;" horiz-adv-x="325" 
d="M-18 808h112l70 -110h5l63 110h115l-126 -183h-106zM89 0v557h147v-557h-147z" />
    <glyph glyph-name="Ocaron" unicode="&#x1d1;" horiz-adv-x="737" 
d="M177 902h119l70 -60h7l65 60h120l-125 -120h-123zM213 400v-89q0 -95 42 -144.5t113 -49.5t113.5 49.5t42.5 144.5v89q0 95 -42.5 146t-113.5 51q-70 0 -112.5 -51t-42.5 -146zM59 311v87q0 153 82.5 241t227.5 88t227 -88.5t82 -240.5v-87q0 -151 -82.5 -238t-227.5 -87
t-227 87t-82 238z" />
    <glyph glyph-name="ocaron" unicode="&#x1d2;" horiz-adv-x="624" 
d="M129 808h112l69 -110h5l64 110h114l-126 -183h-106zM313 567q116 0 186.5 -70.5t70.5 -188.5v-55q0 -124 -69.5 -193.5t-187.5 -69.5q-120 0 -189.5 69t-69.5 194v54q0 117 71 188.5t188 71.5zM312 450q-53 0 -81 -41t-28 -103v-54q0 -62 27.5 -103.5t81.5 -41.5
t81.5 41.5t27.5 103.5v54q0 41 -11.5 72.5t-36.5 51.5t-61 20z" />
    <glyph glyph-name="Ucaron" unicode="&#x1d3;" horiz-adv-x="742" 
d="M180 902h119l70 -60h8l64 60h120l-125 -120h-123zM231 714v-450q0 -69 38 -106.5t102 -37.5t102.5 37.5t38.5 106.5v450h151v-467q0 -118 -79.5 -189.5t-212 -71.5t-212 72t-79.5 190v466h151z" />
    <glyph glyph-name="ucaron" unicode="&#x1d4;" horiz-adv-x="655" 
d="M144 808h112l69 -110h6l63 110h114l-126 -183h-106zM576 557v-557h-144v93h-7q-13 -39 -55 -70t-108 -31q-87 0 -136.5 47.5t-49.5 143.5v374h147v-335q0 -30 8 -51t22.5 -32t30.5 -16t36 -5q46 0 77 30.5t31 79.5v329h148z" />
    <glyph glyph-name="Udieresismacron" unicode="&#x1d5;" horiz-adv-x="742" 
d="M203 826q0 28 17.5 45.5t47.5 17.5t47.5 -17.5t17.5 -45.5t-17.5 -45.5t-47.5 -17.5q-29 0 -47 17.5t-18 45.5zM407 826q0 28 18 45.5t47 17.5q20 0 35 -8t23 -22t8 -33q0 -28 -18 -45.5t-48 -17.5q-20 0 -34.5 8t-22.5 22t-8 33zM231 714v-450q0 -69 38 -106.5
t102 -37.5t102.5 37.5t38.5 106.5v450h151v-467q0 -118 -79.5 -189.5t-212 -71.5t-212 72t-79.5 190v466h151zM531 932h-319v78h319v-78z" />
    <glyph glyph-name="udieresismacron" unicode="&#x1d6;" horiz-adv-x="655" 
d="M576 557v-557h-144v93h-7q-13 -39 -55 -70t-108 -31q-87 0 -136.5 47.5t-49.5 143.5v374h147v-335q0 -30 8 -51t22.5 -32t30.5 -16t36 -5q46 0 77 30.5t31 79.5v329h148zM154 691q0 20 8.5 35t24 23t35.5 8q16 0 28.5 -4.5t21.5 -13.5t14 -21t5 -27q0 -29 -19 -47
t-50 -18q-30 0 -49 18t-19 47zM368 691q0 30 18.5 48t48.5 18q32 0 51 -18t19 -48q0 -29 -19 -47t-51 -18q-30 0 -48.5 18t-18.5 47zM488 820h-316v83h316v-83z" />
    <glyph glyph-name="Udieresisacute" unicode="&#x1d7;" horiz-adv-x="742" 
d="M278 913l143 119h154l-159 -119h-138zM203 826q0 28 17.5 45.5t47.5 17.5t47.5 -17.5t17.5 -45.5t-17.5 -45.5t-47.5 -17.5q-29 0 -47 17.5t-18 45.5zM407 826q0 28 18 45.5t47 17.5q20 0 35 -8t23 -22t8 -33q0 -28 -18 -45.5t-48 -17.5q-20 0 -34.5 8t-22.5 22t-8 33z
M231 714v-450q0 -69 38 -106.5t102 -37.5t102.5 37.5t38.5 106.5v450h151v-467q0 -118 -79.5 -189.5t-212 -71.5t-212 72t-79.5 190v466h151z" />
    <glyph glyph-name="udieresisacute" unicode="&#x1d8;" horiz-adv-x="655" 
d="M279 798l124 184h130l-146 -184h-108zM576 557v-557h-144v93h-7q-13 -39 -55 -70t-108 -31q-87 0 -136.5 47.5t-49.5 143.5v374h147v-335q0 -30 8 -51t22.5 -32t30.5 -16t36 -5q46 0 77 30.5t31 79.5v329h148zM154 691q0 20 8.5 35t24 23t35.5 8q16 0 28.5 -4.5
t21.5 -13.5t14 -21t5 -27q0 -29 -19 -47t-50 -18q-30 0 -49 18t-19 47zM368 691q0 30 18.5 48t48.5 18q32 0 51 -18t19 -48q0 -29 -19 -47t-51 -18q-30 0 -48.5 18t-18.5 47z" />
    <glyph glyph-name="Udieresiscaron" unicode="&#x1d9;" horiz-adv-x="742" 
d="M203 826q0 28 17.5 45.5t47.5 17.5t47.5 -17.5t17.5 -45.5t-17.5 -45.5t-47.5 -17.5q-29 0 -47 17.5t-18 45.5zM407 826q0 28 18 45.5t47 17.5q20 0 35 -8t23 -22t8 -33q0 -28 -18 -45.5t-48 -17.5q-20 0 -34.5 8t-22.5 22t-8 33zM180 1039h119l70 -60h8l64 60h120
l-125 -120h-123zM231 714v-450q0 -69 38 -106.5t102 -37.5t102.5 37.5t38.5 106.5v450h151v-467q0 -118 -79.5 -189.5t-212 -71.5t-212 72t-79.5 190v466h151z" />
    <glyph glyph-name="udieresiscaron" unicode="&#x1da;" horiz-adv-x="655" 
d="M144 974h112l69 -109h6l63 109h114l-126 -182h-106zM576 557v-557h-144v93h-7q-13 -39 -55 -70t-108 -31q-87 0 -136.5 47.5t-49.5 143.5v374h147v-335q0 -30 8 -51t22.5 -32t30.5 -16t36 -5q46 0 77 30.5t31 79.5v329h148zM154 691q0 20 8.5 35t24 23t35.5 8
q16 0 28.5 -4.5t21.5 -13.5t14 -21t5 -27q0 -29 -19 -47t-50 -18q-30 0 -49 18t-19 47zM368 691q0 30 18.5 48t48.5 18q32 0 51 -18t19 -48q0 -29 -19 -47t-51 -18q-30 0 -48.5 18t-18.5 47z" />
    <glyph glyph-name="Udieresisgrave" unicode="&#x1db;" horiz-adv-x="742" 
d="M451 913h-130l-156 115h148zM203 826q0 28 17.5 45.5t47.5 17.5t47.5 -17.5t17.5 -45.5t-17.5 -45.5t-47.5 -17.5q-29 0 -47 17.5t-18 45.5zM407 826q0 28 18 45.5t47 17.5q20 0 35 -8t23 -22t8 -33q0 -28 -18 -45.5t-48 -17.5q-20 0 -34.5 8t-22.5 22t-8 33zM231 714
v-450q0 -69 38 -106.5t102 -37.5t102.5 37.5t38.5 106.5v450h151v-467q0 -118 -79.5 -189.5t-212 -71.5t-212 72t-79.5 190v466h151z" />
    <glyph glyph-name="udieresisgrave" unicode="&#x1dc;" horiz-adv-x="655" 
d="M395 795h-107l-147 184h130zM576 557v-557h-144v93h-7q-13 -39 -55 -70t-108 -31q-87 0 -136.5 47.5t-49.5 143.5v374h147v-335q0 -30 8 -51t22.5 -32t30.5 -16t36 -5q46 0 77 30.5t31 79.5v329h148zM154 691q0 20 8.5 35t24 23t35.5 8q16 0 28.5 -4.5t21.5 -13.5t14 -21
t5 -27q0 -29 -19 -47t-50 -18q-30 0 -49 18t-19 47zM368 691q0 30 18.5 48t48.5 18q32 0 51 -18t19 -48q0 -29 -19 -47t-51 -18q-30 0 -48.5 18t-18.5 47z" />
    <glyph glyph-name="Adieresismacron" unicode="&#x1de;" horiz-adv-x="692" 
d="M172 0h-152l237 714h180l235 -714h-162l-52 173h-233zM346 568h-8l-83 -279h173zM178 826q0 28 18 45.5t47 17.5q30 0 48 -17.5t18 -45.5t-18 -45.5t-48 -17.5q-19 0 -33.5 8t-23 22.5t-8.5 32.5zM383 826q0 14 4.5 25.5t13 20t20.5 13t26 4.5q30 0 48.5 -17.5
t18.5 -45.5t-18 -45.5t-49 -17.5q-29 0 -46.5 17.5t-17.5 45.5zM506 932h-319v78h319v-78z" />
    <glyph glyph-name="adieresismacron" unicode="&#x1df;" 
d="M235 -8q-82 0 -132.5 45.5t-50.5 124.5q0 76 51.5 121t146.5 45h134v49q0 24 -11 41t-30 25t-46 8q-76 0 -86 -57h-139q5 75 60.5 123t166.5 48q40 0 73.5 -6t62.5 -20.5t50 -36.5t32.5 -55t11.5 -75v-372h-138v70h-7q-18 -34 -55 -56t-94 -22zM284 101q20 0 38.5 6
t32 17t21.5 26.5t8 33.5v57h-100q-42 0 -64 -18.5t-22 -49.5q0 -34 25 -53t61 -19zM129 691q0 20 8.5 35t24 23t35.5 8q16 0 28.5 -4.5t21.5 -13.5t14 -21t5 -27q0 -29 -19 -47t-50 -18q-30 0 -49 18t-19 47zM343 691q0 30 18.5 48t48.5 18q31 0 50.5 -18t19.5 -48
q0 -29 -19 -47t-51 -18q-30 0 -48.5 18t-18.5 47zM463 820h-316v83h316v-83z" />
    <glyph glyph-name="Adotmacron" unicode="&#x1e0;" horiz-adv-x="692" 
d="M172 0h-152l237 714h180l235 -714h-162l-52 173h-233zM346 568h-8l-83 -279h173zM280 840q0 20 8.5 36t23.5 25t34 9q30 0 49.5 -20t19.5 -50q0 -15 -5 -27.5t-14.5 -21.5t-22 -14t-27.5 -5q-29 0 -47.5 19t-18.5 49zM506 932h-319v78h319v-78z" />
    <glyph glyph-name="adotmacron" unicode="&#x1e1;" 
d="M235 -8q-82 0 -132.5 45.5t-50.5 124.5q0 76 51.5 121t146.5 45h134v49q0 24 -11 41t-30 25t-46 8q-76 0 -86 -57h-139q5 75 60.5 123t166.5 48q40 0 73.5 -6t62.5 -20.5t50 -36.5t32.5 -55t11.5 -75v-372h-138v70h-7q-18 -34 -55 -56t-94 -22zM284 101q20 0 38.5 6
t32 17t21.5 26.5t8 33.5v57h-100q-42 0 -64 -18.5t-22 -49.5q0 -34 25 -53t61 -19zM236 683q0 30 18.5 50t47.5 20q20 0 35.5 -9t24.5 -25t9 -36q0 -15 -5 -27.5t-14.5 -21.5t-22 -14t-27.5 -5q-29 0 -47.5 19t-18.5 49zM463 820h-316v83h316v-83z" />
    <glyph glyph-name="AEmacron" unicode="&#x1e2;" horiz-adv-x="1021" 
d="M456 587l-137 -295h172v295h-35zM491 172h-222l-85 -172h-167l344 714h594v-127h-315v-168h296v-118h-296v-174h315v-127h-464v172zM879 780h-319v79h319v-79z" />
    <glyph glyph-name="aemacron" unicode="&#x1e3;" horiz-adv-x="943" 
d="M651 -10q-79 0 -130.5 27.5t-74.5 73.5h-9q-25 -43 -73.5 -72t-117.5 -29q-89 0 -142 45.5t-53 125.5q0 78 52.5 122.5t148.5 44.5h132v49q0 36 -23 55t-64 19q-38 0 -60 -15.5t-27 -41.5h-139q4 74 61 123t168 49q55 0 101.5 -17.5t70.5 -47.5h8q24 30 67.5 47.5
t95.5 17.5q111 0 179 -69.5t68 -187.5v-63h-352v-33q0 -24 8.5 -44t23.5 -34t35.5 -21.5t44.5 -7.5q40 0 66.5 16.5t30.5 43.5h138q-2 -23 -10.5 -46.5t-27.5 -47t-45 -41.5t-65 -29.5t-86 -11.5zM644 455q-46 0 -76 -31t-30 -80v-9h209v7q0 52 -27.5 82.5t-75.5 30.5z
M285 101q41 0 70 23.5t29 59.5v57h-98q-43 0 -66.5 -19t-23.5 -49q0 -34 26 -53t63 -19zM632 641h-316v83h316v-83z" />
    <glyph glyph-name="Gcaron" unicode="&#x1e6;" horiz-adv-x="712" 
d="M170 902h119l70 -60h8l65 60h119l-125 -120h-123zM653 482h-147q-7 53 -45 83.5t-95 30.5q-71 0 -113 -49t-42 -145v-86q0 -91 38 -144.5t118 -53.5q65 0 104.5 34.5t39.5 84.5v38h-140v114h283v-141q0 -37 -9 -72.5t-31 -70t-54.5 -61t-82.5 -42.5t-112 -16
q-78 0 -137.5 25t-96 70t-54.5 104t-18 130v88q0 148 82 236t227 88q68 0 123 -20.5t89 -55.5t53 -78.5t20 -90.5z" />
    <glyph glyph-name="gcaron" unicode="&#x1e7;" horiz-adv-x="645" 
d="M139 808h112l70 -110h5l63 110h115l-126 -183h-107zM309 -95q58 0 87 29t29 84v80h-8q-16 -39 -57 -63.5t-98 -24.5q-94 0 -151.5 66.5t-57.5 185.5v50q0 80 26.5 137t73.5 86t109 29q39 0 72 -13t54.5 -33.5t31.5 -46.5h6v86h145v-550q0 -58 -22 -100.5t-60.5 -66.5
t-84 -35t-99.5 -11q-116 0 -176.5 47t-64.5 119h142q6 -26 33.5 -40.5t69.5 -14.5zM316 443q-51 0 -82 -37t-31 -103v-40q0 -66 31.5 -103.5t82.5 -37.5q33 0 57.5 17t37 46.5t12.5 68.5v56q0 60 -29 96.5t-79 36.5z" />
    <glyph glyph-name="Kcaron" unicode="&#x1e8;" horiz-adv-x="693" 
d="M673 714l-253 -309l263 -405h-181l-193 300l-70 -78v-222h-152v714h152v-311h7l262 311h165zM149 902h118l70 -60h8l65 60h120l-126 -120h-123z" />
    <glyph glyph-name="kcaron" unicode="&#x1e9;" horiz-adv-x="613" 
d="M-30 1002h112l70 -110h5l63 110h115l-126 -182h-106zM228 190v-190h-147v752h147v-421h6l178 226h165l-199 -240l213 -317h-171l-155 231z" />
    <glyph glyph-name="Oogonek" unicode="&#x1ea;" horiz-adv-x="737" 
d="M212 400v-89q0 -95 42.5 -144.5t113.5 -49.5t113.5 49.5t42.5 144.5v89q0 95 -42.5 146t-113.5 51q-34 0 -62.5 -12.5t-49.5 -37t-32.5 -62t-11.5 -85.5zM350 -12q-129 0 -210 89t-81 234v87q0 153 82.5 241t227.5 88t227 -88.5t82 -240.5v-87q0 -49 -8.5 -90t-25 -72.5
t-31 -51.5t-36.5 -43l-28 -28.5t-27.5 -29t-15.5 -24.5t-8 -32q0 -26 17 -38.5t45 -12.5q24 0 39 5v-87q-38 -12 -75 -11q-39 1 -68 13.5t-45.5 36t-16.5 55.5q0 55 48 98l-1 9q-37 -20 -91 -20z" />
    <glyph glyph-name="oogonek" unicode="&#x1eb;" horiz-adv-x="624" 
d="M312 451q-35 0 -60.5 -20.5t-37 -52.5t-11.5 -72v-54q0 -62 27.5 -103.5t81.5 -41.5t81.5 41.5t27.5 103.5v54q0 63 -28 104t-81 41zM361 7q-42 -14 -76 -14q-101 0 -166 70t-65 187v57q0 117 71 188.5t189 71.5q76 0 134 -31.5t90 -90.5t32 -137v-55q0 -43 -7.5 -77.5
t-22.5 -60t-27.5 -41.5t-32.5 -36l-14 -14l-14 -14t-11 -12t-10.5 -14l-6.5 -12.5t-5.5 -14.5t-1.5 -15q0 -18 8.5 -30.5t22.5 -18t33 -5.5t37 3v-84q-30 -11 -72 -11q-55 0 -94 25.5t-39 78.5q0 60 52 100z" />
    <glyph glyph-name="Oogonekmacron" unicode="&#x1ec;" horiz-adv-x="737" 
d="M212 400v-89q0 -95 42.5 -144.5t113.5 -49.5t113.5 49.5t42.5 144.5v89q0 95 -42.5 146t-113.5 51q-34 0 -62.5 -12.5t-49.5 -37t-32.5 -62t-11.5 -85.5zM350 -12q-129 0 -210 89t-81 234v87q0 153 82.5 241t227.5 88t227 -88.5t82 -240.5v-87q0 -49 -8.5 -90t-25 -72.5
t-31 -51.5t-36.5 -43l-28 -28.5t-27.5 -29t-15.5 -24.5t-8 -32q0 -26 17 -38.5t45 -12.5q24 0 39 5v-87q-38 -12 -75 -11q-39 1 -68 13.5t-45.5 36t-16.5 55.5q0 55 48 98l-1 9q-37 -20 -91 -20zM528 780h-319v79h319v-79z" />
    <glyph glyph-name="oogonekmacron" unicode="&#x1ed;" horiz-adv-x="624" 
d="M312 451q-35 0 -60.5 -20.5t-37 -52.5t-11.5 -72v-54q0 -62 27.5 -103.5t81.5 -41.5t81.5 41.5t27.5 103.5v54q0 63 -28 104t-81 41zM361 7q-42 -14 -76 -14q-101 0 -166 70t-65 187v57q0 117 71 188.5t189 71.5q76 0 134 -31.5t90 -90.5t32 -137v-55q0 -43 -7.5 -77.5
t-22.5 -60t-27.5 -41.5t-32.5 -36l-14 -14l-14 -14t-11 -12t-10.5 -14l-6.5 -12.5t-5.5 -14.5t-1.5 -15q0 -18 8.5 -30.5t22.5 -18t33 -5.5t37 3v-84q-30 -11 -72 -11q-55 0 -94 25.5t-39 78.5q0 60 52 100zM473 641h-316v83h316v-83z" />
    <glyph glyph-name="Gacute" unicode="&#x1f4;" horiz-adv-x="712" 
d="M268 786l143 118h154l-159 -118h-138zM653 482h-147q-7 53 -45 83.5t-95 30.5q-71 0 -113 -49t-42 -145v-86q0 -91 38 -144.5t118 -53.5q65 0 104.5 34.5t39.5 84.5v38h-140v114h283v-141q0 -37 -9 -72.5t-31 -70t-54.5 -61t-82.5 -42.5t-112 -16q-78 0 -137.5 25t-96 70
t-54.5 104t-18 130v88q0 148 82 236t227 88q68 0 123 -20.5t89 -55.5t53 -78.5t20 -90.5z" />
    <glyph glyph-name="gacute" unicode="&#x1f5;" horiz-adv-x="645" 
d="M275 645l124 185h129l-146 -185h-107zM309 -95q58 0 87 29t29 84v80h-8q-16 -39 -57 -63.5t-98 -24.5q-94 0 -151.5 66.5t-57.5 185.5v50q0 80 26.5 137t73.5 86t109 29q39 0 72 -13t54.5 -33.5t31.5 -46.5h6v86h145v-550q0 -58 -22 -100.5t-60.5 -66.5t-84 -35
t-99.5 -11q-116 0 -176.5 47t-64.5 119h142q6 -26 33.5 -40.5t69.5 -14.5zM316 443q-51 0 -82 -37t-31 -103v-40q0 -66 31.5 -103.5t82.5 -37.5q33 0 57.5 17t37 46.5t12.5 68.5v56q0 60 -29 96.5t-79 36.5z" />
    <glyph glyph-name="Ngrave" unicode="&#x1f8;" horiz-adv-x="751" 
d="M456 786h-131l-156 114h149zM230 0h-143v714h124l305 -447h6v447h142v-714h-123l-305 450h-6v-450z" />
    <glyph glyph-name="ngrave" unicode="&#x1f9;" horiz-adv-x="656" 
d="M396 645h-107l-147 185h130zM80 0v557h143v-97h7q6 18 17 34.5t30 33.5t49.5 27t68.5 10q86 0 135.5 -49.5t49.5 -145.5v-370h-147v330q0 56 -26.5 82t-69.5 26q-51 0 -81 -34.5t-30 -94.5v-309h-146z" />
    <glyph glyph-name="Aringacute" unicode="&#x1fa;" horiz-adv-x="692" 
d="M275 879l159 131h154l-175 -131h-138zM285 765q0 -24 17 -41t42 -17q16 0 29.5 7.5t21.5 21t8 29.5q0 25 -17.5 41.5t-41.5 16.5q-25 0 -42 -16.5t-17 -41.5zM428 289l-82 279h-8l-83 -279h173zM172 0h-152l225 671q-43 37 -43 95q0 61 41 102t101 41q39 0 71.5 -18.5
t51 -51.5t18.5 -73q0 -53 -38 -89l225 -677h-162l-52 173h-233z" />
    <glyph glyph-name="aringacute" unicode="&#x1fb;" 
d="M390 808h-125l126 174h152zM235 -8q-82 0 -132.5 45.5t-50.5 124.5q0 76 51.5 121t146.5 45h134v49q0 24 -11 41t-30 25t-46 8q-76 0 -86 -57h-139q5 75 60.5 123t166.5 48q40 0 73.5 -6t62.5 -20.5t50 -36.5t32.5 -55t11.5 -75v-372h-138v70h-7q-18 -34 -55 -56t-94 -22
zM284 101q20 0 38.5 6t32 17t21.5 26.5t8 33.5v57h-100q-42 0 -64 -18.5t-22 -49.5q0 -34 25 -53t61 -19zM307 618q-50 0 -82.5 32t-32.5 81q0 48 32.5 79.5t82 31.5t82 -31.5t32.5 -79.5q0 -49 -33 -81t-81 -32zM258 730q0 -21 13.5 -34.5t34.5 -13.5q8 0 15.5 2.5
t13.5 6.5t10.5 10t7 13.5t2.5 15.5q0 14 -6.5 24.5t-17.5 17t-25 6.5q-21 0 -34.5 -13.5t-13.5 -34.5z" />
    <glyph glyph-name="AEacute" unicode="&#x1fc;" horiz-adv-x="1021" 
d="M626 786l143 118h154l-159 -118h-138zM456 587l-137 -295h172v295h-35zM491 172h-222l-85 -172h-167l344 714h594v-127h-315v-168h296v-118h-296v-174h315v-127h-464v172z" />
    <glyph glyph-name="aeacute" unicode="&#x1fd;" horiz-adv-x="943" 
d="M424 645l124 185h129l-146 -185h-107zM651 -10q-79 0 -130.5 27.5t-74.5 73.5h-9q-25 -43 -73.5 -72t-117.5 -29q-89 0 -142 45.5t-53 125.5q0 78 52.5 122.5t148.5 44.5h132v49q0 36 -23 55t-64 19q-38 0 -60 -15.5t-27 -41.5h-139q4 74 61 123t168 49q55 0 101.5 -17.5
t70.5 -47.5h8q24 30 67.5 47.5t95.5 17.5q111 0 179 -69.5t68 -187.5v-63h-352v-33q0 -24 8.5 -44t23.5 -34t35.5 -21.5t44.5 -7.5q40 0 66.5 16.5t30.5 43.5h138q-2 -23 -10.5 -46.5t-27.5 -47t-45 -41.5t-65 -29.5t-86 -11.5zM644 455q-46 0 -76 -31t-30 -80v-9h209v7
q0 52 -27.5 82.5t-75.5 30.5zM285 101q41 0 70 23.5t29 59.5v57h-98q-43 0 -66.5 -19t-23.5 -49q0 -34 26 -53t63 -19z" />
    <glyph glyph-name="Oslashacute" unicode="&#x1fe;" horiz-adv-x="737" 
d="M368 -14q-120 0 -197 61l-52 -63l-66 55l58 71q-52 80 -52 201v87q0 153 82.5 241t227.5 88q118 0 194 -60l46 56l68 -51l-55 -66q56 -83 56 -208v-87q0 -151 -82.5 -238t-227.5 -87zM209 309q0 -38 9 -63l259 311q-42 43 -109 43q-72 0 -115.5 -52t-43.5 -148v-91z
M368 112q72 0 115.5 50.5t43.5 146.5v91q0 41 -11 69l-260 -313q42 -44 112 -44zM275 786l143 118h154l-159 -118h-138z" />
    <glyph glyph-name="oslashacute" unicode="&#x1ff;" horiz-adv-x="624" 
d="M236 138q29 -34 76 -34q38 0 64 21.5t37.5 54t11.5 72.5v62q0 24 -10 43zM199 245q0 -27 10 -46l179 222q-28 35 -76 35q-54 0 -83.5 -42.5t-29.5 -105.5v-63zM313 -10q-92 0 -156 43l-54 -65l-56 47l58 70q-51 67 -51 168v54q0 117 71 188.5t188 71.5q88 0 152 -44
l53 64l58 -49l-56 -69q50 -66 50 -161v-55q0 -124 -69.5 -193.5t-187.5 -69.5zM264 645l124 185h130l-147 -185h-107z" />
    <glyph glyph-name="Adblgrave" unicode="&#x200;" horiz-adv-x="692" 
d="M172 0h-152l237 714h180l235 -714h-162l-52 173h-233zM346 568h-8l-83 -279h173zM524 786h-113l-177 130h131zM312 786h-113l-177 130h131z" />
    <glyph glyph-name="adblgrave" unicode="&#x201;" 
d="M235 -8q-82 0 -132.5 45.5t-50.5 124.5q0 76 51.5 121t146.5 45h134v49q0 24 -11 41t-30 25t-46 8q-76 0 -86 -57h-139q5 75 60.5 123t166.5 48q40 0 73.5 -6t62.5 -20.5t50 -36.5t32.5 -55t11.5 -75v-372h-138v70h-7q-18 -34 -55 -56t-94 -22zM284 101q20 0 38.5 6
t32 17t21.5 26.5t8 33.5v57h-100q-42 0 -64 -18.5t-22 -49.5q0 -34 25 -53t61 -19zM173 643l-155 188h118l129 -188h-92zM365 643l-155 188h118l129 -188h-92z" />
    <glyph glyph-name="Ainvertedbreve" unicode="&#x202;" horiz-adv-x="692" 
d="M172 0h-152l237 714h180l235 -714h-162l-52 173h-233zM346 568h-8l-83 -279h173zM346 847q-43 0 -67 -20.5t-24 -52.5h-86q0 67 48 110t129 43t128.5 -43t47.5 -110h-85q0 21 -10 37.5t-31 26t-50 9.5z" />
    <glyph glyph-name="ainvertedbreve" unicode="&#x203;" 
d="M235 -8q-82 0 -132.5 45.5t-50.5 124.5q0 76 51.5 121t146.5 45h134v49q0 24 -11 41t-30 25t-46 8q-76 0 -86 -57h-139q5 75 60.5 123t166.5 48q40 0 73.5 -6t62.5 -20.5t50 -36.5t32.5 -55t11.5 -75v-372h-138v70h-7q-18 -34 -55 -56t-94 -22zM284 101q20 0 38.5 6
t32 17t21.5 26.5t8 33.5v57h-100q-42 0 -64 -18.5t-22 -49.5q0 -34 25 -53t61 -19zM133 640q1 69 45.5 117.5t123.5 48.5q53 0 92 -23.5t57.5 -60.5t18.5 -82h-84q0 36 -21.5 61t-62.5 25q-27 0 -46.5 -13t-28 -31.5t-8.5 -41.5h-86z" />
    <glyph glyph-name="Edblgrave" unicode="&#x204;" horiz-adv-x="619" 
d="M494 786h-113l-178 130h132zM281 786h-112l-177 130h130zM553 127v-127h-466v714h466v-127h-316v-168h298v-118h-298v-174h316z" />
    <glyph glyph-name="edblgrave" unicode="&#x205;" 
d="M312 -10q-119 0 -188.5 67.5t-69.5 192.5v59q0 123 70.5 190.5t179.5 67.5q112 0 180.5 -70t68.5 -188v-63h-354v-26q0 -51 30.5 -82.5t81.5 -31.5q40 0 67.5 17t32.5 43h137q-2 -29 -16.5 -58.5t-41.5 -56.5t-73.5 -44t-104.5 -17zM199 335h212v4q0 52 -29 84t-76.5 32
t-77 -32t-29.5 -84v-4zM173 643l-154 188h118l129 -188h-93zM365 643l-154 188h117l129 -188h-92z" />
    <glyph glyph-name="Einvertedbreve" unicode="&#x206;" horiz-adv-x="619" 
d="M553 127v-127h-466v714h466v-127h-316v-168h298v-118h-298v-174h316zM316 847q-29 0 -49.5 -9.5t-31 -26t-10.5 -37.5h-86q0 67 48 110t129 43t128 -43t47 -110h-84q0 32 -24 52.5t-67 20.5z" />
    <glyph glyph-name="einvertedbreve" unicode="&#x207;" 
d="M312 -10q-119 0 -188.5 67.5t-69.5 192.5v59q0 123 70.5 190.5t179.5 67.5q112 0 180.5 -70t68.5 -188v-63h-354v-26q0 -51 30.5 -82.5t81.5 -31.5q40 0 67.5 17t32.5 43h137q-2 -29 -16.5 -58.5t-41.5 -56.5t-73.5 -44t-104.5 -17zM199 335h212v4q0 52 -29 84t-76.5 32
t-77 -32t-29.5 -84v-4zM134 640q0 69 45 117.5t124 48.5t123.5 -48.5t43.5 -117.5h-83q0 36 -21.5 61t-62.5 25t-62.5 -25t-21.5 -61h-85z" />
    <glyph glyph-name="Idblgrave" unicode="&#x208;" horiz-adv-x="326" 
d="M239 0h-152v714h152v-714zM341 786h-113l-177 130h131zM129 786h-113l-177 130h131z" />
    <glyph glyph-name="idblgrave" unicode="&#x209;" horiz-adv-x="325" 
d="M89 0v557h147v-557h-147zM36 643l-154 188h117l130 -188h-93zM228 643l-154 188h117l129 -188h-92z" />
    <glyph glyph-name="Iinvertedbreve" unicode="&#x20a;" horiz-adv-x="326" 
d="M239 0h-152v714h152v-714zM163 847q-21 0 -38.5 -5.5t-29 -15t-17.5 -23t-6 -29.5h-86q0 67 48 110t129 43t128 -43t47 -110h-84q0 32 -24 52.5t-67 20.5z" />
    <glyph glyph-name="iinvertedbreve" unicode="&#x20b;" horiz-adv-x="325" 
d="M89 0v557h147v-557h-147zM-3 640q0 69 45 117.5t124 48.5t123.5 -48.5t43.5 -117.5h-83q0 36 -21.5 61t-62.5 25q-28 0 -47.5 -13t-28 -31.5t-8.5 -41.5h-85z" />
    <glyph glyph-name="Odblgrave" unicode="&#x20c;" horiz-adv-x="737" 
d="M546 786h-113l-177 130h131zM334 786h-113l-177 130h131zM213 400v-89q0 -95 42 -144.5t113 -49.5t113.5 49.5t42.5 144.5v89q0 95 -42.5 146t-113.5 51q-70 0 -112.5 -51t-42.5 -146zM59 311v87q0 153 82.5 241t227.5 88t227 -88.5t82 -240.5v-87q0 -151 -82.5 -238
t-227.5 -87t-227 87t-82 238z" />
    <glyph glyph-name="odblgrave" unicode="&#x20d;" horiz-adv-x="624" 
d="M313 567q116 0 186.5 -70.5t70.5 -188.5v-55q0 -124 -69.5 -193.5t-187.5 -69.5q-120 0 -189.5 69t-69.5 194v54q0 117 71 188.5t188 71.5zM312 450q-53 0 -81 -41t-28 -103v-54q0 -62 27.5 -103.5t81.5 -41.5t81.5 41.5t27.5 103.5v54q0 41 -11.5 72.5t-36.5 51.5
t-61 20zM183 643l-155 188h118l129 -188h-92zM375 643l-155 188h118l129 -188h-92z" />
    <glyph glyph-name="Oinvertedbreve" unicode="&#x20e;" horiz-adv-x="737" 
d="M368 847q-43 0 -67 -20.5t-24 -52.5h-86q0 67 48 110t129 43q54 0 94 -20t60.5 -54.5t20.5 -78.5h-84q0 32 -24 52.5t-67 20.5zM213 400v-89q0 -95 42 -144.5t113 -49.5t113.5 49.5t42.5 144.5v89q0 95 -42.5 146t-113.5 51q-70 0 -112.5 -51t-42.5 -146zM59 311v87
q0 153 82.5 241t227.5 88t227 -88.5t82 -240.5v-87q0 -151 -82.5 -238t-227.5 -87t-227 87t-82 238z" />
    <glyph glyph-name="oinvertedbreve" unicode="&#x20f;" horiz-adv-x="624" 
d="M313 567q116 0 186.5 -70.5t70.5 -188.5v-55q0 -124 -69.5 -193.5t-187.5 -69.5q-120 0 -189.5 69t-69.5 194v54q0 117 71 188.5t188 71.5zM312 450q-53 0 -81 -41t-28 -103v-54q0 -62 27.5 -103.5t81.5 -41.5t81.5 41.5t27.5 103.5v54q0 41 -11.5 72.5t-36.5 51.5
t-61 20zM143 640q1 69 45.5 117.5t123.5 48.5q53 0 92 -23.5t57.5 -60.5t18.5 -82h-84q0 23 -8.5 41.5t-28 31.5t-47 13t-47 -13t-28 -31.5t-8.5 -41.5h-86z" />
    <glyph glyph-name="Rdblgrave" unicode="&#x210;" horiz-adv-x="691" 
d="M513 786h-113l-177 130h131zM301 786h-113l-177 130h131zM378 714q63 0 112 -17.5t80 -48.5t46.5 -72.5t15.5 -91.5q0 -34 -8.5 -64t-21.5 -52t-30.5 -39.5t-34.5 -28t-34 -17.5l144 -283h-169l-124 260h-118v-260h-149v714h291zM236 375h118q58 0 90.5 27.5t32.5 79.5
q0 54 -33.5 83t-87.5 29h-120v-219z" />
    <glyph glyph-name="rdblgrave" unicode="&#x211;" horiz-adv-x="451" 
d="M84 0v557h148v-88h7q4 16 14 31.5t26 30.5t41.5 24.5t55.5 9.5q29 0 46 -4v-132q-16 6 -56 6q-65 0 -98 -33.5t-33 -91.5v-310h-151zM109 643l-155 188h118l129 -188h-92zM301 643l-155 188h118l129 -188h-92z" />
    <glyph glyph-name="Rinvertedbreve" unicode="&#x212;" horiz-adv-x="691" 
d="M378 714q63 0 112 -17.5t80 -48.5t46.5 -72.5t15.5 -91.5q0 -34 -8.5 -64t-21.5 -52t-30.5 -39.5t-34.5 -28t-34 -17.5l144 -283h-169l-124 260h-118v-260h-149v714h291zM236 375h118q58 0 90.5 27.5t32.5 79.5q0 54 -33.5 83t-87.5 29h-120v-219zM335 847
q-43 0 -67 -20.5t-24 -52.5h-86q0 67 48 110t129 43t128.5 -43t47.5 -110h-85q0 32 -24 52.5t-67 20.5z" />
    <glyph glyph-name="rinvertedbreve" unicode="&#x213;" horiz-adv-x="451" 
d="M84 0v557h148v-88h7q4 16 14 31.5t26 30.5t41.5 24.5t55.5 9.5q29 0 46 -4v-132q-16 6 -56 6q-65 0 -98 -33.5t-33 -91.5v-310h-151zM70 640q0 69 45 117.5t124 48.5q53 0 91.5 -23.5t57 -60.5t18.5 -82h-84q0 36 -21 61t-62 25t-62.5 -25t-21.5 -61h-85z" />
    <glyph glyph-name="Udblgrave" unicode="&#x214;" horiz-adv-x="742" 
d="M549 786h-113l-177 130h131zM337 786h-113l-177 130h131zM231 714v-450q0 -69 38 -106.5t102 -37.5t102.5 37.5t38.5 106.5v450h151v-467q0 -118 -79.5 -189.5t-212 -71.5t-212 72t-79.5 190v466h151z" />
    <glyph glyph-name="udblgrave" unicode="&#x215;" horiz-adv-x="655" 
d="M576 557v-557h-144v93h-7q-13 -39 -55 -70t-108 -31q-87 0 -136.5 47.5t-49.5 143.5v374h147v-335q0 -30 8 -51t22.5 -32t30.5 -16t36 -5q46 0 77 30.5t31 79.5v329h148zM198 643l-155 188h118l129 -188h-92zM390 643l-155 188h118l129 -188h-92z" />
    <glyph glyph-name="Uinvertedbreve" unicode="&#x216;" horiz-adv-x="742" 
d="M231 714v-450q0 -69 38 -106.5t102 -37.5t102.5 37.5t38.5 106.5v450h151v-467q0 -118 -79.5 -189.5t-212 -71.5t-212 72t-79.5 190v466h151zM371.5 847q-42.5 0 -67 -20.5t-24.5 -52.5h-85q0 67 47.5 110t128.5 43t128.5 -43t47.5 -110h-85q0 32 -24 52.5t-66.5 20.5z
" />
    <glyph glyph-name="uinvertedbreve" unicode="&#x217;" horiz-adv-x="655" 
d="M576 557v-557h-144v93h-7q-13 -39 -55 -70t-108 -31q-87 0 -136.5 47.5t-49.5 143.5v374h147v-335q0 -30 8 -51t22.5 -32t30.5 -16t36 -5q46 0 77 30.5t31 79.5v329h148zM158 640q1 45 19.5 82t57.5 60.5t92 23.5q80 0 124 -48.5t44 -117.5h-84q0 36 -21.5 61t-62.5 25
t-62 -25t-21 -61h-86z" />
    <glyph glyph-name="Scommaaccent" unicode="&#x218;" horiz-adv-x="663" 
d="M44 206h146q3 -41 40.5 -69t101.5 -28q41 0 70.5 11.5t44 31.5t14.5 47q0 34 -26 53.5t-82 32.5l-108 23q-39 9 -71 24t-58 38.5t-40.5 58.5t-14.5 79q0 69 36.5 119.5t97 75.5t137.5 25q118 0 192.5 -60.5t75.5 -154.5h-141q-3 39 -36 66.5t-92 27.5q-55 0 -87 -23.5
t-32 -62.5q0 -60 98 -80l108 -23q42 -9 74.5 -23t60.5 -37t43 -59.5t15 -84.5q0 -105 -77 -166.5t-209 -61.5q-51 0 -93.5 9.5t-72.5 25.5t-52.5 37t-35.5 46t-19.5 50.5t-7.5 51.5zM328 -251h-96l44 170h110z" />
    <glyph glyph-name="scommaaccent" unicode="&#x219;" horiz-adv-x="569" 
d="M59 391q0 46 18.5 80.5t50.5 55t71.5 30.5t86.5 10q97 0 156.5 -43.5t59.5 -121.5h-130q-2 16 -12 30t-30 23.5t-46 9.5q-20 0 -36 -4.5t-26.5 -12.5t-16.5 -19.5t-6 -25.5q0 -9 3 -16.5t9 -13.5t12 -10.5t17 -8.5t19 -6.5t21.5 -5l21 -4t22.5 -3.5t20 -3
q84 -14 129.5 -50.5t45.5 -107.5q0 -86 -64 -135t-178 -49q-107 0 -168 45.5t-61 120.5h143q4 -29 27.5 -46t65.5 -17q46 0 69 17.5t23 45.5q0 8 -2 15t-7 12.5t-10 10t-15 8t-16.5 6t-19.5 5.5t-20.5 4.5l-23.5 4.5t-23 4q-41 8 -71 19t-56 29.5t-39.5 48t-13.5 68.5z
M288 -251h-97l44 170h110z" />
    <glyph glyph-name="Tcommaaccent" unicode="&#x21a;" horiz-adv-x="593" 
d="M300 -251h-96l43 170h111zM372 0h-151v583h-200v131h552v-131h-201v-583z" />
    <glyph glyph-name="tcommaaccent" unicode="&#x21b;" horiz-adv-x="440" 
d="M250 -251h-96l43 170h111zM124 550v138h143v-138h123v-117h-123v-251q0 -38 18 -53t61 -15q28 0 48 2v-112q-33 -7 -84 -7q-104 0 -146.5 37t-42.5 124v275h-85v117h88z" />
    <glyph glyph-name="Hcaron" unicode="&#x21e;" horiz-adv-x="765" 
d="M678 0h-151v299h-288v-299h-152v714h152v-286h288v286h151v-714zM191 902h119l70 -60h8l65 60h120l-126 -120h-123z" />
    <glyph glyph-name="hcaron" unicode="&#x21f;" horiz-adv-x="660" 
d="M82 0v752h147v-292h7q5 17 16 33.5t30 33.5t50 27.5t69 10.5q55 0 95.5 -21t64.5 -65.5t24 -108.5v-370h-148v329q0 38 -13.5 63.5t-34.5 35.5t-50 10q-50 0 -80 -35t-30 -94v-309h-147zM-29 1002h112l70 -110h5l63 110h115l-126 -182h-106z" />
    <glyph glyph-name="Adotaccent" unicode="&#x226;" horiz-adv-x="692" 
d="M172 0h-152l237 714h180l235 -714h-162l-52 173h-233zM346 568h-8l-83 -279h173zM280 840q0 20 8.5 36t23.5 25t34 9q30 0 49.5 -20t19.5 -50q0 -15 -5 -27.5t-14.5 -21.5t-22 -14t-27.5 -5q-29 0 -47.5 19t-18.5 49z" />
    <glyph glyph-name="adotaccent" unicode="&#x227;" 
d="M235 -8q-82 0 -132.5 45.5t-50.5 124.5q0 76 51.5 121t146.5 45h134v49q0 24 -11 41t-30 25t-46 8q-76 0 -86 -57h-139q5 75 60.5 123t166.5 48q40 0 73.5 -6t62.5 -20.5t50 -36.5t32.5 -55t11.5 -75v-372h-138v70h-7q-18 -34 -55 -56t-94 -22zM284 101q20 0 38.5 6
t32 17t21.5 26.5t8 33.5v57h-100q-42 0 -64 -18.5t-22 -49.5q0 -34 25 -53t61 -19zM236 683q0 30 18.5 50t47.5 20q20 0 35.5 -9t24.5 -25t9 -36q0 -15 -5 -27.5t-14.5 -21.5t-22 -14t-27.5 -5q-29 0 -47.5 19t-18.5 49z" />
    <glyph glyph-name="Ecedilla" unicode="&#x228;" horiz-adv-x="619" 
d="M274 0h-187v714h466v-127h-316v-168h298v-118h-298v-174h316v-127h-194l-24 -60q46 0 73 -23.5t27 -65.5q0 -51 -34.5 -76.5t-95.5 -26.5q-44 -1 -76 8v67q25 -7 58 -7q57 0 57 30q0 18 -15.5 24.5t-51.5 6.5h-29v56z" />
    <glyph glyph-name="ecedilla" unicode="&#x229;" 
d="M199 335h212v4q0 52 -29 84t-76.5 32t-77 -32t-29.5 -84v-4zM306 -252q-45 -1 -76 8v67q24 -7 58 -7q57 0 57 30q0 18 -16 24.5t-52 6.5h-29v56l23 59q-66 7 -114.5 38.5t-75.5 87.5t-27 132v59q0 123 70.5 190.5t179.5 67.5q112 0 180.5 -70t68.5 -188v-63h-354v-26
q0 -51 30.5 -82.5t81.5 -31.5q40 0 67.5 17t32.5 43h137q-2 -26 -14 -52.5t-34.5 -51.5t-59.5 -44t-84 -25l-21 -53q31 0 53.5 -10.5t35 -30.5t12.5 -48q0 -51 -35 -76.5t-95 -26.5z" />
    <glyph glyph-name="Odieresismacron" unicode="&#x22a;" horiz-adv-x="737" 
d="M200 826q0 28 18 45.5t47 17.5q30 0 48 -17.5t18 -45.5t-18 -45.5t-48 -17.5q-29 0 -47 17.5t-18 45.5zM405 826q0 28 17.5 45.5t46.5 17.5q20 0 35 -8t23.5 -22t8.5 -33q0 -28 -18 -45.5t-49 -17.5q-29 0 -46.5 17.5t-17.5 45.5zM213 400v-89q0 -95 42 -144.5t113 -49.5
t113.5 49.5t42.5 144.5v89q0 95 -42.5 146t-113.5 51q-70 0 -112.5 -51t-42.5 -146zM59 311v87q0 153 82.5 241t227.5 88t227 -88.5t82 -240.5v-87q0 -151 -82.5 -238t-227.5 -87t-227 87t-82 238zM528 932h-319v78h319v-78z" />
    <glyph glyph-name="odieresismacron" unicode="&#x22b;" horiz-adv-x="624" 
d="M139 691q0 20 8.5 35t24 23t35.5 8q15 0 28 -4.5t22 -13.5t14 -21t5 -27q0 -29 -19 -47t-50 -18q-30 0 -49 18t-19 47zM353 691q0 30 18.5 48t48.5 18q31 0 50.5 -18t19.5 -48q0 -29 -19 -47t-51 -18q-30 0 -48.5 18t-18.5 47zM313 567q116 0 186.5 -70.5t70.5 -188.5
v-55q0 -124 -69.5 -193.5t-187.5 -69.5q-120 0 -189.5 69t-69.5 194v54q0 117 71 188.5t188 71.5zM312 450q-53 0 -81 -41t-28 -103v-54q0 -62 27.5 -103.5t81.5 -41.5t81.5 41.5t27.5 103.5v54q0 41 -11.5 72.5t-36.5 51.5t-61 20zM473 820h-316v83h316v-83z" />
    <glyph glyph-name="Otildemacron" unicode="&#x22c;" horiz-adv-x="737" 
d="M213 400v-89q0 -95 42 -144.5t113 -49.5t113.5 49.5t42.5 144.5v89q0 95 -42.5 146t-113.5 51q-70 0 -112.5 -51t-42.5 -146zM59 311v87q0 153 82.5 241t227.5 88t227 -88.5t82 -240.5v-87q0 -151 -82.5 -238t-227.5 -87t-227 87t-82 238zM359 790l-7.5 7.5t-8.5 8
t-8.5 6t-10.5 5t-11 1.5q-33 0 -36 -46h-78q0 47 26.5 83.5t76.5 36.5q27 0 45 -8.5t39 -26.5q2 -2 8.5 -8t9 -8.5t7.5 -5.5t9.5 -4.5t9.5 -1.5q10 0 17 5t11 13t6 17.5t3 18.5h78q0 -51 -30 -87t-76 -36q-30 0 -47 7.5t-33 22.5zM528 932h-319v78h319v-78z" />
    <glyph glyph-name="otildemacron" unicode="&#x22d;" horiz-adv-x="624" 
d="M301 651q-21 27 -44 27q-33 0 -36 -54h-80q0 62 29 104.5t81 42.5q25 0 43 -9.5t37 -30.5q2 -2 9 -10.5t10 -11.5t10 -6.5t15 -3.5q17 0 25.5 19t9.5 44h80q0 -60 -32 -104t-79 -44q-49 0 -78 37zM473 820h-316v83h316v-83zM313 567q116 0 186.5 -70.5t70.5 -188.5v-55
q0 -124 -69.5 -193.5t-187.5 -69.5q-120 0 -189.5 69t-69.5 194v54q0 117 71 188.5t188 71.5zM312 450q-53 0 -81 -41t-28 -103v-54q0 -62 27.5 -103.5t81.5 -41.5t81.5 41.5t27.5 103.5v54q0 41 -11.5 72.5t-36.5 51.5t-61 20z" />
    <glyph glyph-name="Odotaccent" unicode="&#x22e;" horiz-adv-x="737" 
d="M302 840q0 30 18.5 50t47.5 20q30 0 49.5 -20t19.5 -50q0 -15 -5 -27.5t-14.5 -21.5t-22 -14t-27.5 -5q-29 0 -47.5 19t-18.5 49zM213 400v-89q0 -95 42 -144.5t113 -49.5t113.5 49.5t42.5 144.5v89q0 95 -42.5 146t-113.5 51q-70 0 -112.5 -51t-42.5 -146zM59 311v87
q0 153 82.5 241t227.5 88t227 -88.5t82 -240.5v-87q0 -151 -82.5 -238t-227.5 -87t-227 87t-82 238z" />
    <glyph glyph-name="odotaccent" unicode="&#x22f;" horiz-adv-x="624" 
d="M246 683q0 30 18.5 50t47.5 20q30 0 49.5 -20t19.5 -50q0 -15 -5 -27.5t-14.5 -21.5t-22 -14t-27.5 -5q-29 0 -47.5 19t-18.5 49zM313 567q116 0 186.5 -70.5t70.5 -188.5v-55q0 -124 -69.5 -193.5t-187.5 -69.5q-120 0 -189.5 69t-69.5 194v54q0 117 71 188.5t188 71.5z
M312 450q-53 0 -81 -41t-28 -103v-54q0 -62 27.5 -103.5t81.5 -41.5t81.5 41.5t27.5 103.5v54q0 41 -11.5 72.5t-36.5 51.5t-61 20z" />
    <glyph glyph-name="Odotaccentmacron" unicode="&#x230;" horiz-adv-x="737" 
d="M302 840q0 30 18.5 50t47.5 20q30 0 49.5 -20t19.5 -50q0 -15 -5 -27.5t-14.5 -21.5t-22 -14t-27.5 -5q-29 0 -47.5 19t-18.5 49zM213 400v-89q0 -95 42 -144.5t113 -49.5t113.5 49.5t42.5 144.5v89q0 95 -42.5 146t-113.5 51q-70 0 -112.5 -51t-42.5 -146zM59 311v87
q0 153 82.5 241t227.5 88t227 -88.5t82 -240.5v-87q0 -151 -82.5 -238t-227.5 -87t-227 87t-82 238zM528 932h-319v78h319v-78z" />
    <glyph glyph-name="odotaccentmacron" unicode="&#x231;" horiz-adv-x="624" 
d="M246 683q0 30 18.5 50t47.5 20q30 0 49.5 -20t19.5 -50q0 -15 -5 -27.5t-14.5 -21.5t-22 -14t-27.5 -5q-29 0 -47.5 19t-18.5 49zM473 820h-316v83h316v-83zM313 567q116 0 186.5 -70.5t70.5 -188.5v-55q0 -124 -69.5 -193.5t-187.5 -69.5q-120 0 -189.5 69t-69.5 194v54
q0 117 71 188.5t188 71.5zM312 450q-53 0 -81 -41t-28 -103v-54q0 -62 27.5 -103.5t81.5 -41.5t81.5 41.5t27.5 103.5v54q0 41 -11.5 72.5t-36.5 51.5t-61 20z" />
    <glyph glyph-name="Ymacron" unicode="&#x232;" horiz-adv-x="636" 
d="M394 0h-151v259l-239 455h167l146 -298h6l147 298h163l-239 -451v-263zM478 780h-320v79h320v-79z" />
    <glyph glyph-name="ymacron" unicode="&#x233;" horiz-adv-x="602" 
d="M575 557q-177 -529 -180 -536l-14 -37q-16 -43 -33.5 -73t-45 -56t-67.5 -39t-93 -13q-44 0 -79 7v108q16 -4 46 -4q49 0 71 17.5t29 53.5l4 16l-189 556h162l112 -429h6l114 429h157zM461 641h-316v83h316v-83z" />
    <glyph glyph-name="circumflex" unicode="&#x2c6;" horiz-adv-x="523" 
d="M85 637l132 183h107l126 -183h-115l-63 108h-5l-70 -108h-112z" />
    <glyph glyph-name="caron" unicode="&#x2c7;" horiz-adv-x="523" 
d="M77 822h112l69 -110h6l63 110h114l-126 -182h-106z" />
    <glyph glyph-name="breve" unicode="&#x2d8;" horiz-adv-x="523" 
d="M94 803h85q0 -36 21.5 -61t62.5 -25t62 25t21 61h84q0 -70 -44 -118t-123 -48q-80 0 -124.5 48t-44.5 118z" />
    <glyph glyph-name="dotaccent" unicode="&#x2d9;" horiz-adv-x="523" 
d="M178 723q0 25 11 44t29.5 29t41.5 10t42 -10.5t30 -29t11 -43t-11 -43t-30 -28t-42 -9.5q-35 0 -58.5 22t-23.5 58z" />
    <glyph glyph-name="ring" unicode="&#x2da;" horiz-adv-x="523" 
d="M255 636q-49 0 -81.5 31.5t-32.5 81.5q0 48 32.5 79.5t81.5 31.5t81.5 -31.5t32.5 -79.5q0 -49 -32.5 -81t-81.5 -32zM207 748q0 -21 13.5 -34.5t34.5 -13.5t34.5 13.5t13.5 34.5q0 13 -6 24t-17.5 17.5t-24.5 6.5q-21 0 -34.5 -14t-13.5 -34z" />
    <glyph glyph-name="ogonek" unicode="&#x2db;" horiz-adv-x="523" 
d="M366 -108v-83q-34 -14 -79 -14q-58 0 -91 28.5t-33 76.5q0 31 17 63t34.5 50.5t45.5 44.5h84q-79 -70 -79 -121q0 -25 16.5 -38t42.5 -13q21 0 42 6z" />
    <glyph glyph-name="tilde" unicode="&#x2dc;" horiz-adv-x="523" 
d="M244 677q-21 27 -44 27q-33 0 -36 -54h-80q0 62 29 104.5t81 42.5q16 0 30 -4t25.5 -13t24.5 -23q1 -2 8.5 -10.5t10.5 -11.5t10 -6t15 -3q17 0 25.5 18.5t9.5 43.5h80q0 -60 -32 -104t-79 -44q-49 0 -78 37z" />
    <glyph glyph-name="hungarumlaut" unicode="&#x2dd;" horiz-adv-x="523" 
d="M142 647h-92l129 187h118zM335 647h-92l129 187h118z" />
    <glyph glyph-name="gravecmb" unicode="&#x300;" horiz-adv-x="0" 
d="M67 645h-107l-146 185h130z" />
    <glyph glyph-name="acutecmb" unicode="&#x301;" horiz-adv-x="0" 
d="M-48 645l124 185h130l-147 -185h-107z" />
    <glyph glyph-name="circumflexcmb" unicode="&#x302;" horiz-adv-x="0" 
d="M-186 644l133 183h106l126 -183h-114l-63 108h-6l-70 -108h-112z" />
    <glyph glyph-name="tildecmb" unicode="&#x303;" horiz-adv-x="0" 
d="M-12 651q-21 27 -43 27q-33 0 -37 -54h-79q0 62 28.5 104.5t80.5 42.5q25 0 43 -9.5t37 -30.5q2 -2 9.5 -10.5t10.5 -11.5t10 -6.5t15 -3.5q17 0 25.5 19t9.5 44h79q0 -60 -31.5 -104t-79.5 -44t-78 37z" />
    <glyph glyph-name="macroncmb" unicode="&#x304;" horiz-adv-x="0" 
d="M161 641h-316v83h316v-83z" />
    <glyph glyph-name="brevecmb" unicode="&#x306;" horiz-adv-x="0" 
d="M-159 787h85q0 -36 21 -61t62 -25q28 0 47.5 13t28 31.5t8.5 41.5h84q0 -69 -44.5 -117.5t-123.5 -48.5t-123.5 48.5t-44.5 117.5z" />
    <glyph glyph-name="dotaccentcmb" unicode="&#x307;" horiz-adv-x="0" 
d="M-66 683q0 30 18.5 50t47.5 20q30 0 49.5 -20t19.5 -50t-19.5 -49t-49.5 -19q-29 0 -47.5 19t-18.5 49z" />
    <glyph glyph-name="dieresiscmb" unicode="&#x308;" horiz-adv-x="0" 
d="M-174 691q0 30 19 48t50 18t50 -18t19 -48q0 -29 -19 -47t-50 -18t-50 18t-19 47zM40 691q0 30 19 48t49 18q31 0 50 -18t19 -48q0 -29 -19 -47t-50 -18q-30 0 -49 18t-19 47z" />
    <glyph glyph-name="hookabovecmb" unicode="&#x309;" horiz-adv-x="0" 
d="M-77 757v69q26 10 61 10q37 0 64.5 -12t43 -35t15.5 -55q0 -42 -23 -67.5t-66 -48.5l-43 53q26 15 37.5 27t11.5 27q0 18 -14.5 29t-38.5 11t-48 -8z" />
    <glyph glyph-name="ringcmb" unicode="&#x30a;" horiz-adv-x="0" 
d="M0 618q-49 0 -82 32t-33 81q0 48 33 79.5t82 31.5t81.5 -31.5t32.5 -79.5q0 -33 -15 -58.5t-41 -40t-58 -14.5zM-49 730q0 -21 14 -34.5t34.5 -13.5t34.5 13.5t14 34.5t-14 34.5t-34.5 13.5t-34.5 -13.5t-14 -34.5z" />
    <glyph glyph-name="hungarumlautcmb" unicode="&#x30b;" horiz-adv-x="0" 
d="M-66 645h-92l129 188h117zM127 645h-92l129 188h117z" />
    <glyph glyph-name="caroncmb" unicode="&#x30c;" horiz-adv-x="0" 
d="M-184 808h112l70 -110h5l63 110h115l-126 -183h-106z" />
    <glyph glyph-name="dblgravecmb" unicode="&#x30f;" horiz-adv-x="0" 
d="M-130 643l-154 188h118l129 -188h-93zM62 643l-154 188h118l128 -188h-92z" />
    <glyph glyph-name="invertedbrevecmb" unicode="&#x311;" horiz-adv-x="0" 
d="M-169 640q0 69 45 117.5t124 48.5t123.5 -48.5t43.5 -117.5h-83q0 36 -21.5 61t-62.5 25q-28 0 -47.5 -13t-28 -31.5t-8.5 -41.5h-85z" />
    <glyph glyph-name="horncmb" unicode="&#x31b;" horiz-adv-x="0" 
d="M0 460v112q17 -11 38 -10q18 1 28.5 9.5t14.5 21t4 31.5v83h117v-101q0 -68 -32.5 -113t-99.5 -45q-49 0 -70 12z" />
    <glyph glyph-name="dotbelowcmb" unicode="&#x323;" horiz-adv-x="0" 
d="M-71 -130q0 32 20 52.5t51 20.5t51.5 -20.5t20.5 -52.5q0 -15 -5.5 -28.5t-15 -22.5t-23 -14t-28.5 -5q-31 0 -51 19.5t-20 50.5z" />
    <glyph glyph-name="dieresisbelowcmb" unicode="&#x324;" horiz-adv-x="0" 
d="M-175 -151q0 30 19 48.5t49 18.5q31 0 50 -18.5t19 -48.5q0 -29 -19 -47t-50 -18q-30 0 -49 18t-19 47zM39 -151q0 30 18.5 48.5t48.5 18.5q32 0 51 -18.5t19 -48.5q0 -29 -19 -47t-51 -18q-30 0 -48.5 18t-18.5 47z" />
    <glyph glyph-name="ringbelowcmb" unicode="&#x325;" horiz-adv-x="0" 
d="M-1 -267q-49 0 -82 31.5t-33 80.5t33 80.5t82 31.5q32 0 58 -14.5t41 -40t15 -57.5q0 -49 -32.5 -80.5t-81.5 -31.5zM-50 -155q0 -21 14 -34.5t34.5 -13.5t34.5 13.5t14 34.5q0 20 -14 33.5t-35 13.5q-13 0 -24 -6t-17.5 -17t-6.5 -24z" />
    <glyph glyph-name="commabelowcmb" unicode="&#x326;" horiz-adv-x="0" 
d="M3 -251h-96l43 170h111z" />
    <glyph glyph-name="cedillacmb" unicode="&#x327;" horiz-adv-x="0" 
d="M-23 -123v56l27 70h84l-25 -63q47 0 74 -23.5t27 -65.5q0 -51 -35 -76.5t-95 -26.5q-44 -1 -76 8v67q24 -7 58 -7q57 0 57 30q0 18 -16 24.5t-51 6.5h-29z" />
    <glyph glyph-name="ogonekcmb" unicode="&#x328;" horiz-adv-x="0" 
d="M156 -108v-83q-34 -14 -80 -14q-57 0 -90 28.5t-33 76.5q0 31 17 63t34.5 50.5t45.5 44.5h83q-79 -70 -79 -121q0 -25 17 -38t43 -13q21 0 42 6z" />
    <glyph glyph-name="circumflexbelowcmb" unicode="&#x32d;" horiz-adv-x="0" 
d="M-193 -200l141 139h106l135 -139h-122l-64 71h-7l-71 -71h-118z" />
    <glyph glyph-name="brevebelowcmb" unicode="&#x32e;" horiz-adv-x="0" 
d="M-174 -65q0 -71 46 -119t128 -48q55 0 94.5 24t57.5 60.5t18 82.5h-84q0 -23 -9 -42t-29 -31.5t-48 -12.5q-42 0 -64 25t-22 61h-88z" />
    <glyph glyph-name="tildebelowcmb" unicode="&#x330;" horiz-adv-x="0" 
d="M-9 -168q-3 2 -7 6l-6.5 6.5t-7 5.5t-8 5t-8 3.5t-9.5 1.5q-33 0 -36 -47h-78q0 48 26.5 84.5t76.5 36.5q26 0 44.5 -8.5t38.5 -26.5q3 -2 9 -8t9 -8.5t8 -6t9.5 -4.5t9.5 -1q18 0 26.5 16t9.5 38h78q0 -51 -29.5 -87.5t-75.5 -36.5q-30 0 -47 8t-33 23z" />
    <glyph glyph-name="macronbelowcmb" unicode="&#x331;" horiz-adv-x="0" 
d="M161 -179h-316v83h316v-83z" />
    <glyph glyph-name="Delta" unicode="&#x394;" horiz-adv-x="692" 
d="M20 0l237 714h180l235 -714h-652zM338 568l-131 -430h268l-129 430h-8z" />
    <glyph glyph-name="Omega" unicode="&#x3a9;" horiz-adv-x="746" 
d="M421 0v160q47 15 77.5 67.5t30.5 127.5v63q0 31 -5 57t-15 46t-23.5 34.5t-31 23.5t-37.5 13.5t-44 4.5q-72 0 -113.5 -44t-41.5 -135v-63q0 -37 7.5 -69.5t21.5 -57t33 -42t41 -24.5v-162h-273v132h124v10q-48 24 -78 85.5t-30 131.5v63q0 149 81 227t228 78
q99 0 167.5 -34t105.5 -102.5t37 -168.5v-63q0 -70 -31.5 -132t-79.5 -85v-11h127v-131h-278z" />
    <glyph glyph-name="mu" unicode="&#x3bc;" horiz-adv-x="680" 
d="M206 21h-7l6 -197h-129v733h147v-335q0 -57 27.5 -80.5t68.5 -23.5q46 0 77.5 30t31.5 80v329h148v-394q0 -20 5 -32.5t17 -19t31 -6.5q12 0 26 2v-108q-34 -8 -78 -8q-53 0 -88.5 23.5t-38.5 74.5v7h-7q-9 -40 -49 -71.5t-101 -31.5q-28 0 -52.5 8t-34.5 20z" />
    <glyph glyph-name="pi" unicode="&#x3c0;" horiz-adv-x="742" 
d="M680 0q-39 -8 -87 -8q-68 0 -103.5 34t-35.5 91v323h-157v-440h-147v440h-114v117h669v-117h-104v-278q0 -23 11.5 -36t33.5 -13q20 0 34 3v-116z" />
    <glyph glyph-name="Aringbelow" unicode="&#x1e00;" horiz-adv-x="692" 
d="M172 0h-152l237 714h180l235 -714h-162l-52 173h-233zM346 568h-8l-83 -279h173zM341 -261q-50 0 -82.5 31.5t-32.5 80.5q0 20 5.5 37t16 30.5t24.5 23.5t31.5 15.5t37.5 5.5q49 0 81.5 -31.5t32.5 -80.5t-33 -80.5t-81 -31.5zM292 -149q0 -21 13.5 -34.5t34.5 -13.5
q14 0 25 6t17.5 17t6.5 25q0 13 -6.5 24t-17.5 17.5t-25 6.5q-21 0 -34.5 -14t-13.5 -34z" />
    <glyph glyph-name="aringbelow" unicode="&#x1e01;" 
d="M235 -8q-82 0 -132.5 45.5t-50.5 124.5q0 76 51.5 121t146.5 45h134v49q0 24 -11 41t-30 25t-46 8q-76 0 -86 -57h-139q5 75 60.5 123t166.5 48q40 0 73.5 -6t62.5 -20.5t50 -36.5t32.5 -55t11.5 -75v-372h-138v70h-7q-18 -34 -55 -56t-94 -22zM284 101q20 0 38.5 6
t32 17t21.5 26.5t8 33.5v57h-100q-42 0 -64 -18.5t-22 -49.5q0 -34 25 -53t61 -19zM301 -267q-49 0 -81.5 31.5t-32.5 80.5t32.5 80.5t81.5 31.5t81.5 -31.5t32.5 -80.5t-32.5 -80.5t-81.5 -31.5zM253 -155q0 -21 13.5 -34.5t34.5 -13.5t34.5 13.5t13.5 34.5
q0 20 -13.5 33.5t-34.5 13.5q-14 0 -25 -6t-17 -17t-6 -24z" />
    <glyph glyph-name="Bdotaccent" unicode="&#x1e02;" horiz-adv-x="689" 
d="M87 0v714h304q97 0 155.5 -46.5t58.5 -128.5q0 -65 -34.5 -105t-89.5 -52v-6q45 -4 80 -24t57.5 -59t22.5 -91q0 -95 -70 -148.5t-179 -53.5h-305zM237 599v-178h90q130 0 130 91q0 42 -28 64.5t-74 22.5h-118zM237 315v-200h101q149 0 149 98q0 49 -32.5 75.5
t-90.5 26.5h-127zM267 840q0 30 18.5 50t47.5 20q30 0 49.5 -20t19.5 -50q0 -20 -9 -35.5t-24.5 -24t-35.5 -8.5q-29 0 -47.5 19t-18.5 49z" />
    <glyph glyph-name="bdotaccent" unicode="&#x1e03;" horiz-adv-x="657" 
d="M87 878q0 20 8.5 36t23.5 25t35 9q29 0 49 -20t20 -50t-19.5 -49t-49.5 -19q-20 0 -35 8.5t-23.5 24t-8.5 35.5zM394 -7q-61 0 -102.5 26t-57.5 67h-8v-86h-145v752h148v-283h7q8 26 28.5 47t55 34.5t76.5 13.5q63 0 109 -28.5t71.5 -85.5t25.5 -137v-68q0 -120 -56 -186
t-152 -66zM342 114q50 0 79 36t29 106v44q0 70 -29 106.5t-80.5 36.5t-81.5 -36t-30 -100v-62q0 -60 31 -95.5t82 -35.5z" />
    <glyph glyph-name="Bdotbelow" unicode="&#x1e04;" horiz-adv-x="689" 
d="M263 -130q0 32 20 52.5t50.5 20.5t51 -20.5t20.5 -52.5q0 -15 -5.5 -28.5t-15 -22.5t-23 -14t-28.5 -5q-31 0 -50.5 19.5t-19.5 50.5zM87 0v714h304q97 0 155.5 -46.5t58.5 -128.5q0 -65 -34.5 -105t-89.5 -52v-6q45 -4 80 -24t57.5 -59t22.5 -91q0 -95 -70 -148.5
t-179 -53.5h-305zM237 599v-178h90q130 0 130 91q0 42 -28 64.5t-74 22.5h-118zM237 315v-200h101q149 0 149 98q0 49 -32.5 75.5t-90.5 26.5h-127z" />
    <glyph glyph-name="bdotbelow" unicode="&#x1e05;" horiz-adv-x="657" 
d="M258 -130q0 32 20 52.5t50.5 20.5t51.5 -20.5t21 -52.5q0 -15 -5.5 -28.5t-15.5 -22.5t-23 -14t-29 -5q-30 0 -50 19.5t-20 50.5zM394 -7q-61 0 -102.5 26t-57.5 67h-8v-86h-145v752h148v-283h7q8 26 28.5 47t55 34.5t76.5 13.5q63 0 109 -28.5t71.5 -85.5t25.5 -137v-68
q0 -120 -56 -186t-152 -66zM342 114q50 0 79 36t29 106v44q0 70 -29 106.5t-80.5 36.5t-81.5 -36t-30 -100v-62q0 -60 31 -95.5t82 -35.5z" />
    <glyph glyph-name="Blinebelow" unicode="&#x1e06;" horiz-adv-x="689" 
d="M87 0v714h304q97 0 155.5 -46.5t58.5 -128.5q0 -65 -34.5 -105t-89.5 -52v-6q45 -4 80 -24t57.5 -59t22.5 -91q0 -95 -70 -148.5t-179 -53.5h-305zM237 599v-178h90q130 0 130 91q0 42 -28 64.5t-74 22.5h-118zM237 315v-200h101q149 0 149 98q0 49 -32.5 75.5
t-90.5 26.5h-127zM494 -179h-316v83h316v-83z" />
    <glyph glyph-name="blinebelow" unicode="&#x1e07;" horiz-adv-x="657" 
d="M490 -179h-316v83h316v-83zM394 -7q-61 0 -102.5 26t-57.5 67h-8v-86h-145v752h148v-283h7q8 26 28.5 47t55 34.5t76.5 13.5q63 0 109 -28.5t71.5 -85.5t25.5 -137v-68q0 -120 -56 -186t-152 -66zM342 114q50 0 79 36t29 106v44q0 70 -29 106.5t-80.5 36.5t-81.5 -36
t-30 -100v-62q0 -60 31 -95.5t82 -35.5z" />
    <glyph glyph-name="Ccedillaacute" unicode="&#x1e08;" horiz-adv-x="699" 
d="M262 786l143 118h155l-160 -118h-138zM350 -252q-44 -1 -76 8v67q25 -7 58 -7q57 0 57 30q0 18 -15.5 24.5t-51.5 6.5h-29v56l22 56q-122 14 -189 99t-67 226v84q0 154 80 241.5t222 87.5q129 0 206.5 -72.5t77.5 -181.5v-17h-145q0 58 -37 98.5t-101 40.5
q-69 0 -109.5 -51t-40.5 -146v-84q0 -96 40 -145.5t111 -49.5q65 0 101 37.5t36 95.5h145v-17q0 -95 -65.5 -165t-180.5 -81l-19 -49q30 0 53 -10.5t35 -30.5t12 -48q0 -34 -16.5 -57.5t-45 -34t-68.5 -11.5z" />
    <glyph glyph-name="ccedillaacute" unicode="&#x1e09;" horiz-adv-x="588" 
d="M246 645l124 185h130l-147 -185h-107zM301 -252q-46 -1 -77 8v67q25 -7 58 -7q57 0 57 30q0 18 -15.5 24.5t-51.5 6.5h-29v56l23 60q-99 11 -155.5 78t-56.5 179v62q0 115 68 185t183 70q108 0 170 -57.5t63 -145.5h-135q-2 21 -11 39t-30.5 31.5t-51.5 13.5
q-51 0 -79.5 -37.5t-28.5 -100.5v-59q0 -44 13 -75.5t37 -48t58 -16.5q84 0 95 78h135q-1 -83 -51 -134t-138 -62l-21 -53q31 0 53.5 -10.5t34.5 -30.5t12 -48q0 -51 -34.5 -76.5t-94.5 -26.5z" />
    <glyph glyph-name="Ddotaccent" unicode="&#x1e0a;" horiz-adv-x="726" 
d="M267 840q0 30 18.5 50t47.5 20q30 0 49.5 -20t19.5 -50q0 -20 -9 -35.5t-24.5 -24t-35.5 -8.5q-29 0 -47.5 19t-18.5 49zM87 714h268q84 0 146.5 -25.5t100 -73.5t55.5 -111.5t18 -144.5t-18 -145t-55.5 -113t-100 -75t-146.5 -26h-268v714zM239 587v-460h94q92 0 139 52
t47 177q0 231 -186 231h-94z" />
    <glyph glyph-name="ddotaccent" unicode="&#x1e0b;" horiz-adv-x="658" 
d="M438 878q0 30 18.5 49.5t47.5 19.5q30 0 49.5 -19.5t19.5 -49.5t-19.5 -49t-49.5 -19q-14 0 -26.5 5t-21 13.5t-13.5 21.5t-5 28zM264 564q61 0 102 -25.5t56 -66.5h7v280h147v-752h-145v89h-7q-13 -41 -56 -68t-106 -27q-94 0 -150.5 65.5t-56.5 182.5v74q0 77 25.5 133
t72.5 85.5t111 29.5zM315 443q-32 0 -56.5 -16t-38 -47.5t-13.5 -76.5v-49q0 -68 29.5 -104t80.5 -36t81.5 35.5t30.5 100.5v63q0 60 -31.5 95t-82.5 35z" />
    <glyph glyph-name="Ddotbelow" unicode="&#x1e0c;" horiz-adv-x="726" 
d="M263 -130q0 32 20 52.5t50.5 20.5t51 -20.5t20.5 -52.5q0 -15 -5.5 -28.5t-15 -22.5t-23 -14t-28.5 -5q-31 0 -50.5 19.5t-19.5 50.5zM87 714h268q84 0 146.5 -25.5t100 -73.5t55.5 -111.5t18 -144.5t-18 -145t-55.5 -113t-100 -75t-146.5 -26h-268v714zM239 587v-460h94
q92 0 139 52t47 177q0 231 -186 231h-94z" />
    <glyph glyph-name="ddotbelow" unicode="&#x1e0d;" horiz-adv-x="658" 
d="M258 -130q0 32 20 52.5t51 20.5t51.5 -20.5t20.5 -52.5q0 -15 -5.5 -28.5t-15 -22.5t-23 -14t-28.5 -5q-31 0 -51 19.5t-20 50.5zM264 564q61 0 102 -25.5t56 -66.5h7v280h147v-752h-145v89h-7q-13 -41 -56 -68t-106 -27q-94 0 -150.5 65.5t-56.5 182.5v74q0 77 25.5 133
t72.5 85.5t111 29.5zM315 443q-32 0 -56.5 -16t-38 -47.5t-13.5 -76.5v-49q0 -68 29.5 -104t80.5 -36t81.5 35.5t30.5 100.5v63q0 60 -31.5 95t-82.5 35z" />
    <glyph glyph-name="Dlinebelow" unicode="&#x1e0e;" horiz-adv-x="726" 
d="M494 -179h-316v83h316v-83zM87 714h268q84 0 146.5 -25.5t100 -73.5t55.5 -111.5t18 -144.5t-18 -145t-55.5 -113t-100 -75t-146.5 -26h-268v714zM239 587v-460h94q92 0 139 52t47 177q0 231 -186 231h-94z" />
    <glyph glyph-name="dlinebelow" unicode="&#x1e0f;" horiz-adv-x="658" 
d="M490 -179h-316v83h316v-83zM264 564q61 0 102 -25.5t56 -66.5h7v280h147v-752h-145v89h-7q-13 -41 -56 -68t-106 -27q-94 0 -150.5 65.5t-56.5 182.5v74q0 77 25.5 133t72.5 85.5t111 29.5zM315 443q-32 0 -56.5 -16t-38 -47.5t-13.5 -76.5v-49q0 -68 29.5 -104t80.5 -36
t81.5 35.5t30.5 100.5v63q0 60 -31.5 95t-82.5 35z" />
    <glyph glyph-name="Dcommaaccent" unicode="&#x1e10;" horiz-adv-x="726" 
d="M336 -251h-96l44 170h110zM87 714h268q84 0 146.5 -25.5t100 -73.5t55.5 -111.5t18 -144.5t-18 -145t-55.5 -113t-100 -75t-146.5 -26h-268v714zM239 587v-460h94q92 0 139 52t47 177q0 231 -186 231h-94z" />
    <glyph glyph-name="dcommaaccent" unicode="&#x1e11;" horiz-adv-x="658" 
d="M332 -251h-96l43 170h111zM264 564q61 0 102 -25.5t56 -66.5h7v280h147v-752h-145v89h-7q-13 -41 -56 -68t-106 -27q-94 0 -150.5 65.5t-56.5 182.5v74q0 77 25.5 133t72.5 85.5t111 29.5zM315 443q-32 0 -56.5 -16t-38 -47.5t-13.5 -76.5v-49q0 -68 29.5 -104t80.5 -36
t81.5 35.5t30.5 100.5v63q0 60 -31.5 95t-82.5 35z" />
    <glyph glyph-name="Dcircumflexbelow" unicode="&#x1e12;" horiz-adv-x="726" 
d="M87 714h268q84 0 146.5 -25.5t100 -73.5t55.5 -111.5t18 -144.5t-18 -145t-55.5 -113t-100 -75t-146.5 -26h-268v714zM239 587v-460h94q92 0 139 52t47 177q0 231 -186 231h-94zM140 -200l141 139h107l134 -139h-121l-65 71h-6l-72 -71h-118z" />
    <glyph glyph-name="dcircumflexbelow" unicode="&#x1e13;" horiz-adv-x="658" 
d="M264 564q61 0 102 -25.5t56 -66.5h7v280h147v-752h-145v89h-7q-13 -41 -56 -68t-106 -27q-94 0 -150.5 65.5t-56.5 182.5v74q0 77 25.5 133t72.5 85.5t111 29.5zM315 443q-32 0 -56.5 -16t-38 -47.5t-13.5 -76.5v-49q0 -68 29.5 -104t80.5 -36t81.5 35.5t30.5 100.5v63
q0 60 -31.5 95t-82.5 35zM136 -200l141 139h106l135 -139h-122l-64 71h-7l-71 -71h-118z" />
    <glyph glyph-name="Emacrongrave" unicode="&#x1e14;" horiz-adv-x="619" 
d="M396 913h-131l-156 115h149zM553 127v-127h-466v714h466v-127h-316v-168h298v-118h-298v-174h316zM475 780h-319v79h319v-79z" />
    <glyph glyph-name="emacrongrave" unicode="&#x1e15;" 
d="M370 795h-107l-146 184h129zM312 -10q-119 0 -188.5 67.5t-69.5 192.5v59q0 123 70.5 190.5t179.5 67.5q112 0 180.5 -70t68.5 -188v-63h-354v-26q0 -51 30.5 -82.5t81.5 -31.5q40 0 67.5 17t32.5 43h137q-2 -29 -16.5 -58.5t-41.5 -56.5t-73.5 -44t-104.5 -17zM199 335
h212v4q0 52 -29 84t-76.5 32t-77 -32t-29.5 -84v-4zM463 641h-315v83h315v-83z" />
    <glyph glyph-name="Emacronacute" unicode="&#x1e16;" horiz-adv-x="619" 
d="M222 913l144 119h154l-160 -119h-138zM553 127v-127h-466v714h466v-127h-316v-168h298v-118h-298v-174h316zM475 780h-319v79h319v-79z" />
    <glyph glyph-name="emacronacute" unicode="&#x1e17;" 
d="M255 798l124 184h129l-146 -184h-107zM312 -10q-119 0 -188.5 67.5t-69.5 192.5v59q0 123 70.5 190.5t179.5 67.5q112 0 180.5 -70t68.5 -188v-63h-354v-26q0 -51 30.5 -82.5t81.5 -31.5q40 0 67.5 17t32.5 43h137q-2 -29 -16.5 -58.5t-41.5 -56.5t-73.5 -44t-104.5 -17z
M199 335h212v4q0 52 -29 84t-76.5 32t-77 -32t-29.5 -84v-4zM463 641h-315v83h315v-83z" />
    <glyph glyph-name="Ecircumflexbelow" unicode="&#x1e18;" horiz-adv-x="619" 
d="M553 127v-127h-466v714h466v-127h-316v-168h298v-118h-298v-174h316zM123 -200l141 139h106l135 -139h-122l-64 71h-7l-71 -71h-118z" />
    <glyph glyph-name="ecircumflexbelow" unicode="&#x1e19;" 
d="M312 -10q-119 0 -188.5 67.5t-69.5 192.5v59q0 123 70.5 190.5t179.5 67.5q112 0 180.5 -70t68.5 -188v-63h-354v-26q0 -51 30.5 -82.5t81.5 -31.5q40 0 67.5 17t32.5 43h137q-2 -29 -16.5 -58.5t-41.5 -56.5t-73.5 -44t-104.5 -17zM199 335h212v4q0 52 -29 84t-76.5 32
t-77 -32t-29.5 -84v-4zM110 -200l141 139h106l135 -139h-122l-65 71h-6l-71 -71h-118z" />
    <glyph glyph-name="Etildebelow" unicode="&#x1e1a;" horiz-adv-x="619" 
d="M307 -168q-3 2 -7 6l-6.5 6.5t-7 5.5t-8 5t-8 3.5t-9.5 1.5q-33 0 -36 -47h-79q0 48 27 84.5t77 36.5q26 0 44.5 -8.5t38.5 -26.5q3 -2 8 -7t7.5 -7t6.5 -5.5t7 -5t7.5 -2.5t8.5 -1q18 0 26.5 16t9.5 38h78q0 -51 -29.5 -87.5t-75.5 -36.5q-30 0 -47 8t-33 23zM553 127
v-127h-466v714h466v-127h-316v-168h298v-118h-298v-174h316z" />
    <glyph glyph-name="etildebelow" unicode="&#x1e1b;" 
d="M293 -168l-6 6l-6.5 6.5t-7 5.5t-8 5t-8 3.5t-9.5 1.5q-33 0 -36 -47h-79q0 48 27 84.5t76 36.5q27 0 45.5 -8.5t38.5 -26.5q3 -2 9 -8t9 -8.5t8 -6t9.5 -4.5t9.5 -1q18 0 26.5 16t9.5 38h78q0 -51 -29.5 -87.5t-75.5 -36.5q-21 0 -37.5 5t-24.5 10.5t-19 15.5zM312 -10
q-119 0 -188.5 67.5t-69.5 192.5v59q0 123 70.5 190.5t179.5 67.5q112 0 180.5 -70t68.5 -188v-63h-354v-26q0 -51 30.5 -82.5t81.5 -31.5q40 0 67.5 17t32.5 43h137q-2 -29 -16.5 -58.5t-41.5 -56.5t-73.5 -44t-104.5 -17zM199 335h212v4q0 52 -29 84t-76.5 32t-77 -32
t-29.5 -84v-4z" />
    <glyph glyph-name="Ecedillabreve" unicode="&#x1e1c;" horiz-adv-x="619" 
d="M274 0h-187v714h466v-127h-316v-168h298v-118h-298v-174h316v-127h-194l-24 -60q46 0 73 -23.5t27 -65.5q0 -51 -34.5 -76.5t-95.5 -26.5q-44 -1 -76 8v67q25 -7 58 -7q57 0 57 30q0 18 -15.5 24.5t-51.5 6.5h-29v56zM138 924h86q0 -36 23 -57t69 -21t69 21t23 57h85
q0 -71 -46.5 -113.5t-130.5 -42.5t-131 42.5t-47 113.5z" />
    <glyph glyph-name="ecedillabreve" unicode="&#x1e1d;" 
d="M144 787h85q0 -36 21 -61t62 -25t62.5 25t21.5 61h84q0 -69 -44.5 -117.5t-123.5 -48.5q-53 0 -92 23.5t-57.5 60.5t-18.5 82zM199 335h212v4q0 52 -29 84t-76.5 32t-77 -32t-29.5 -84v-4zM306 -252q-45 -1 -76 8v67q24 -7 58 -7q57 0 57 30q0 18 -16 24.5t-52 6.5h-29
v56l23 59q-66 7 -114.5 38.5t-75.5 87.5t-27 132v59q0 123 70.5 190.5t179.5 67.5q112 0 180.5 -70t68.5 -188v-63h-354v-26q0 -51 30.5 -82.5t81.5 -31.5q40 0 67.5 17t32.5 43h137q-2 -26 -14 -52.5t-34.5 -51.5t-59.5 -44t-84 -25l-21 -53q31 0 53.5 -10.5t35 -30.5
t12.5 -48q0 -51 -35 -76.5t-95 -26.5z" />
    <glyph glyph-name="Fdotaccent" unicode="&#x1e1e;" horiz-adv-x="590" 
d="M244 840q0 30 18.5 50t47.5 20q30 0 49.5 -20t19.5 -50q0 -15 -5 -27.5t-14.5 -21.5t-22 -14t-27.5 -5q-29 0 -47.5 19t-18.5 49zM239 0h-152v714h462v-129h-310v-184h283v-125h-283v-276z" />
    <glyph glyph-name="fdotaccent" unicode="&#x1e1f;" horiz-adv-x="444" 
d="M156 888q0 15 5 27.5t13.5 22t21 14.5t26.5 5q30 0 49.5 -19.5t19.5 -49.5t-19.5 -49t-49.5 -19q-19 0 -34 8.5t-23.5 24t-8.5 35.5zM129 0v433h-90v117h90v55q0 85 45.5 121.5t148.5 36.5q34 0 81 -5v-106q-22 3 -51 3q-43 0 -62 -14.5t-19 -48.5v-42h124v-117h-121
v-433h-146z" />
    <glyph glyph-name="Gmacron" unicode="&#x1e20;" horiz-adv-x="712" 
d="M653 482h-147q-7 53 -45 83.5t-95 30.5q-71 0 -113 -49t-42 -145v-86q0 -91 38 -144.5t118 -53.5q65 0 104.5 34.5t39.5 84.5v38h-140v114h283v-141q0 -37 -9 -72.5t-31 -70t-54.5 -61t-82.5 -42.5t-112 -16q-78 0 -137.5 25t-96 70t-54.5 104t-18 130v88q0 148 82 236
t227 88q68 0 123 -20.5t89 -55.5t53 -78.5t20 -90.5zM521 780h-319v79h319v-79z" />
    <glyph glyph-name="gmacron" unicode="&#x1e21;" horiz-adv-x="645" 
d="M483 641h-316v83h316v-83zM309 -95q58 0 87 29t29 84v80h-8q-16 -39 -57 -63.5t-98 -24.5q-94 0 -151.5 66.5t-57.5 185.5v50q0 80 26.5 137t73.5 86t109 29q39 0 72 -13t54.5 -33.5t31.5 -46.5h6v86h145v-550q0 -58 -22 -100.5t-60.5 -66.5t-84 -35t-99.5 -11
q-116 0 -176.5 47t-64.5 119h142q6 -26 33.5 -40.5t69.5 -14.5zM316 443q-51 0 -82 -37t-31 -103v-40q0 -66 31.5 -103.5t82.5 -37.5q33 0 57.5 17t37 46.5t12.5 68.5v56q0 60 -29 96.5t-79 36.5z" />
    <glyph glyph-name="Hdotaccent" unicode="&#x1e22;" horiz-adv-x="765" 
d="M678 0h-151v299h-288v-299h-152v714h152v-286h288v286h151v-714zM316 840q0 30 19 50t48 20t49 -20t20 -50q0 -20 -9 -35.5t-25 -24t-35 -8.5q-30 0 -48.5 19t-18.5 49z" />
    <glyph glyph-name="hdotaccent" unicode="&#x1e23;" horiz-adv-x="660" 
d="M82 0v752h147v-292h7q5 17 16 33.5t30 33.5t50 27.5t69 10.5q55 0 95.5 -21t64.5 -65.5t24 -108.5v-370h-148v329q0 38 -13.5 63.5t-34.5 35.5t-50 10q-50 0 -80 -35t-30 -94v-309h-147zM88 878q0 30 19 49.5t48 19.5t49 -19.5t20 -49.5t-19.5 -49t-49.5 -19t-48.5 19
t-18.5 49z" />
    <glyph glyph-name="Hdotbelow" unicode="&#x1e24;" horiz-adv-x="765" 
d="M678 0h-151v299h-288v-299h-152v714h152v-286h288v286h151v-714zM312 -130q0 32 20 52.5t51 20.5t51.5 -20.5t20.5 -52.5q0 -15 -5.5 -28.5t-15 -22.5t-23 -14t-28.5 -5q-31 0 -51 19.5t-20 50.5z" />
    <glyph glyph-name="hdotbelow" unicode="&#x1e25;" horiz-adv-x="660" 
d="M82 0v752h147v-292h7q5 17 16 33.5t30 33.5t50 27.5t69 10.5q55 0 95.5 -21t64.5 -65.5t24 -108.5v-370h-148v329q0 38 -13.5 63.5t-34.5 35.5t-50 10q-50 0 -80 -35t-30 -94v-309h-147zM257 -130q0 32 20 52.5t51 20.5q20 0 36.5 -9.5t26 -26t9.5 -37.5
q0 -31 -20.5 -50.5t-51.5 -19.5t-51 19.5t-20 50.5z" />
    <glyph glyph-name="Hdieresis" unicode="&#x1e26;" horiz-adv-x="765" 
d="M678 0h-151v299h-288v-299h-152v714h152v-286h288v286h151v-714zM214 826q0 28 18 45.5t47 17.5q30 0 48 -17.5t18 -45.5t-18 -45.5t-48 -17.5q-29 0 -47 17.5t-18 45.5zM419 826q0 28 17.5 45.5t46.5 17.5q20 0 35 -8t23.5 -22t8.5 -33q0 -28 -18 -45.5t-49 -17.5
q-19 0 -33.5 8t-22.5 22t-8 33z" />
    <glyph glyph-name="hdieresis" unicode="&#x1e27;" horiz-adv-x="660" 
d="M82 0v752h147v-292h7q5 17 16 33.5t30 33.5t50 27.5t69 10.5q55 0 95.5 -21t64.5 -65.5t24 -108.5v-370h-148v329q0 38 -13.5 63.5t-34.5 35.5t-50 10q-50 0 -80 -35t-30 -94v-309h-147zM-19 886q0 29 19 47.5t50 18.5t50 -18.5t19 -47.5q0 -30 -19 -48t-50 -18t-50 18
t-19 48zM195 886q0 29 18.5 47.5t49.5 18.5t50 -18.5t19 -47.5q0 -30 -19 -48t-50 -18t-49.5 18t-18.5 48z" />
    <glyph glyph-name="Hcedilla" unicode="&#x1e28;" horiz-adv-x="765" 
d="M154 0h-67v714h152v-286h288v286h151v-714h-151v299h-288v-299l-24 -60q30 0 53 -10.5t35 -30.5t12 -48q0 -51 -34.5 -76.5t-94.5 -26.5q-44 -1 -77 8v67q25 -7 58 -7q57 0 57 30q0 18 -15.5 24.5t-51.5 6.5h-28v56z" />
    <glyph glyph-name="hcedilla" unicode="&#x1e29;" horiz-adv-x="660" 
d="M144 0h-62v752h147v-292h7q5 17 16 33.5t30 33.5t50 27.5t69 10.5q55 0 95.5 -21t64.5 -65.5t24 -108.5v-370h-148v329q0 38 -13.5 63.5t-34.5 35.5t-50 10q-50 0 -80 -35t-30 -94v-309l-25 -62q46 0 73 -24t27 -65q0 -51 -34.5 -76.5t-94.5 -26.5q-49 -1 -77 8v67
q23 -7 58 -7q57 0 57 30q0 12 -7.5 19t-21.5 9t-38 2h-29v56z" />
    <glyph glyph-name="Hbrevebelow" unicode="&#x1e2a;" horiz-adv-x="765" 
d="M209 -65q0 -71 46 -119t128 -48q55 0 94.5 24t57.5 60.5t18 82.5h-84q0 -23 -9 -42t-29 -31.5t-48 -12.5q-42 0 -64 25t-22 61h-88zM678 0h-151v299h-288v-299h-152v714h152v-286h288v286h151v-714z" />
    <glyph glyph-name="hbrevebelow" unicode="&#x1e2b;" horiz-adv-x="660" 
d="M154 -65q0 -46 19.5 -83t59.5 -60.5t95 -23.5q81 0 125.5 48t44.5 119h-84q0 -36 -22 -61t-64 -25t-64 25t-22 61h-88zM82 0v752h147v-292h7q5 17 16 33.5t30 33.5t50 27.5t69 10.5q55 0 95.5 -21t64.5 -65.5t24 -108.5v-370h-148v329q0 38 -13.5 63.5t-34.5 35.5t-50 10
q-50 0 -80 -35t-30 -94v-309h-147z" />
    <glyph glyph-name="Itildebelow" unicode="&#x1e2c;" horiz-adv-x="326" 
d="M239 0h-152v714h152v-714zM154 -168q-2 1 -7.5 6.5t-8.5 8t-8.5 6.5t-10.5 5.5t-11 1.5q-33 0 -36 -47h-78q0 31 10.5 57.5t34.5 45t58 18.5q27 0 45 -8.5t38 -26.5q3 -2 9.5 -8t9 -8.5t7.5 -6t9.5 -4.5t9.5 -1q18 0 27 16t10 38h77q0 -51 -29.5 -87.5t-75.5 -36.5
q-30 0 -47 8t-33 23z" />
    <glyph glyph-name="itildebelow" unicode="&#x1e2d;" horiz-adv-x="325" 
d="M89 0v557h147v-557h-147zM72 719q0 35 24.5 57.5t65.5 22.5q42 0 67 -22.5t25 -57.5q0 -36 -25 -58t-67 -22q-41 0 -65.5 22t-24.5 58zM153 -168l-6 6t-7 6.5t-7 5.5t-7.5 5t-8 3.5t-9.5 1.5q-33 0 -36 -47h-79q0 48 27 84.5t76 36.5q27 0 45 -8.5t39 -26.5q3 -2 9 -8
t9 -8.5l7.5 -6t9.5 -4.5t10 -1q17 0 26 16t10 38h78q0 -51 -29.5 -87.5t-75.5 -36.5q-21 0 -37.5 5t-24.5 10.5t-19 15.5z" />
    <glyph glyph-name="Idieresisacute" unicode="&#x1e2e;" horiz-adv-x="326" 
d="M239 0h-152v714h152v-714zM70 913l143 119h154l-159 -119h-138zM-5 826q0 28 18 45.5t47 17.5q30 0 48 -17.5t18 -45.5t-18 -45.5t-48 -17.5q-29 0 -47 17.5t-18 45.5zM200 826q0 28 17.5 45.5t46.5 17.5q30 0 48.5 -17.5t18.5 -45.5t-18.5 -45.5t-48.5 -17.5
q-29 0 -46.5 17.5t-17.5 45.5z" />
    <glyph glyph-name="idieresisacute" unicode="&#x1e2f;" horiz-adv-x="325" 
d="M118 798l124 184h129l-146 -184h-107zM89 0v557h147v-557h-147zM-8 691q0 30 19 48t50 18t50 -18t19 -48q0 -29 -19 -47t-50 -18t-50 18t-19 47zM206 691q0 30 18.5 48t49.5 18t50 -18t19 -48q0 -19 -8.5 -34t-24.5 -23t-36 -8q-31 0 -49.5 18t-18.5 47z" />
    <glyph glyph-name="Kacute" unicode="&#x1e30;" horiz-adv-x="693" 
d="M246 786l144 118h154l-160 -118h-138zM673 714l-253 -309l263 -405h-181l-193 300l-70 -78v-222h-152v714h152v-311h7l262 311h165z" />
    <glyph glyph-name="kacute" unicode="&#x1e31;" horiz-adv-x="613" 
d="M228 190v-190h-147v752h147v-421h6l178 226h165l-199 -240l213 -317h-171l-155 231zM106 840l124 184h129l-146 -184h-107z" />
    <glyph glyph-name="Kdotbelow" unicode="&#x1e32;" horiz-adv-x="693" 
d="M276 -130q0 16 5 29.5t14.5 23t22.5 15t28 5.5q31 0 51.5 -20.5t20.5 -52.5q0 -15 -5.5 -28.5t-15 -22.5t-23 -14t-28.5 -5q-31 0 -50.5 19.5t-19.5 50.5zM673 714l-253 -309l263 -405h-181l-193 300l-70 -78v-222h-152v714h152v-311h7l262 311h165z" />
    <glyph glyph-name="kdotbelow" unicode="&#x1e33;" horiz-adv-x="613" 
d="M243 -130q0 32 20 52.5t51 20.5q20 0 36.5 -9.5t26 -26t9.5 -37.5q0 -15 -5.5 -28.5t-15 -22.5t-23 -14t-28.5 -5q-31 0 -51 19.5t-20 50.5zM228 190v-190h-147v752h147v-421h6l178 226h165l-199 -240l213 -317h-171l-155 231z" />
    <glyph glyph-name="Klinebelow" unicode="&#x1e34;" horiz-adv-x="693" 
d="M673 714l-253 -309l263 -405h-181l-193 300l-70 -78v-222h-152v714h152v-311h7l262 311h165zM507 -179h-316v83h316v-83z" />
    <glyph glyph-name="klinebelow" unicode="&#x1e35;" horiz-adv-x="613" 
d="M228 190v-190h-147v752h147v-421h6l178 226h165l-199 -240l213 -317h-171l-155 231zM475 -179h-316v83h316v-83z" />
    <glyph glyph-name="Ldotbelow" unicode="&#x1e36;" horiz-adv-x="563" 
d="M215 -130q0 32 20 52.5t51 20.5q20 0 36.5 -9.5t26 -26t9.5 -37t-9.5 -37t-26 -25t-37 -8.5t-36.5 8.5t-25 24.5t-9 37zM537 133v-133h-450v714h152v-581h298z" />
    <glyph glyph-name="ldotbelow" unicode="&#x1e37;" horiz-adv-x="314" 
d="M87 -130q0 32 20 52.5t50.5 20.5t51.5 -20.5t21 -52.5q0 -12 -4 -23t-10.5 -19.5t-15 -15t-19.5 -9.5t-24 -3q-30 0 -50 19.5t-20 50.5zM84 0v752h147v-752h-147z" />
    <glyph glyph-name="Ldotbelowmacron" unicode="&#x1e38;" horiz-adv-x="563" 
d="M215 -130q0 32 20 52.5t51 20.5q20 0 36.5 -9.5t26 -26t9.5 -37t-9.5 -37t-26 -25t-37 -8.5t-36.5 8.5t-25 24.5t-9 37zM537 133v-133h-450v714h152v-581h298zM323 780h-319v79h319v-79z" />
    <glyph glyph-name="ldotbelowmacron" unicode="&#x1e39;" horiz-adv-x="314" 
d="M87 -130q0 32 20 52.5t50.5 20.5t51.5 -20.5t21 -52.5q0 -12 -4 -23t-10.5 -19.5t-15 -15t-19.5 -9.5t-24 -3q-30 0 -50 19.5t-20 50.5zM84 0v752h147v-752h-147zM318 836h-316v83h316v-83z" />
    <glyph glyph-name="Llinebelow" unicode="&#x1e3a;" horiz-adv-x="563" 
d="M447 -179h-316v83h316v-83zM537 133v-133h-450v714h152v-581h298z" />
    <glyph glyph-name="llinebelow" unicode="&#x1e3b;" horiz-adv-x="314" 
d="M319 -179h-316v83h316v-83zM84 0v752h147v-752h-147z" />
    <glyph glyph-name="Lcircumflexbelow" unicode="&#x1e3c;" horiz-adv-x="563" 
d="M537 133v-133h-450v714h152v-581h298zM93 -200l141 139h106l134 -139h-121l-65 71h-6l-72 -71h-117z" />
    <glyph glyph-name="lcircumflexbelow" unicode="&#x1e3d;" horiz-adv-x="314" 
d="M84 0v752h147v-752h-147zM-36 -200l142 139h106l134 -139h-121l-65 71h-6l-72 -71h-118z" />
    <glyph glyph-name="Macute" unicode="&#x1e3e;" horiz-adv-x="885" 
d="M349 786l143 118h155l-160 -118h-138zM224 0h-135v714h155l196 -433h6l196 433h155v-714h-137v458h-7l-163 -359h-95l-164 359h-7v-458z" />
    <glyph glyph-name="macute" unicode="&#x1e3f;" horiz-adv-x="964" 
d="M434 645l124 185h129l-146 -185h-107zM80 0v557h143v-93h7q12 40 48.5 70.5t103.5 30.5q61 0 100 -28.5t53 -75.5h5q5 13 12.5 25t18 24t25 22t31 17.5t38 11.5t44.5 4q84 0 131 -47.5t47 -129.5v-388h-147v340q0 51 -24.5 76t-66.5 25q-27 0 -48.5 -12t-34 -36.5
t-12.5 -58.5v-334h-141v338q0 52 -25.5 77.5t-67 25.5t-68 -27.5t-26.5 -78.5v-335h-146z" />
    <glyph glyph-name="Mdotaccent" unicode="&#x1e40;" horiz-adv-x="885" 
d="M376 840q0 30 18.5 50t48.5 20q29 0 49 -20t20 -50q0 -15 -5.5 -27.5t-14.5 -21.5t-22 -14t-27 -5q-30 0 -48.5 19t-18.5 49zM224 0h-135v714h155l196 -433h6l196 433h155v-714h-137v458h-7l-163 -359h-95l-164 359h-7v-458z" />
    <glyph glyph-name="mdotaccent" unicode="&#x1e41;" horiz-adv-x="964" 
d="M415 683q0 20 8.5 36t23.5 25t35 9q29 0 49 -20t20 -50t-20 -49t-49 -19q-30 0 -48.5 19t-18.5 49zM80 0v557h143v-93h7q12 40 48.5 70.5t103.5 30.5q61 0 100 -28.5t53 -75.5h5q5 13 12.5 25t18 24t25 22t31 17.5t38 11.5t44.5 4q84 0 131 -47.5t47 -129.5v-388h-147
v340q0 51 -24.5 76t-66.5 25q-27 0 -48.5 -12t-34 -36.5t-12.5 -58.5v-334h-141v338q0 52 -25.5 77.5t-67 25.5t-68 -27.5t-26.5 -78.5v-335h-146z" />
    <glyph glyph-name="Mdotbelow" unicode="&#x1e42;" horiz-adv-x="885" 
d="M372 -130q0 21 9 37.5t25 26t37 9.5q30 0 51 -20.5t21 -52.5q0 -15 -5.5 -28.5t-15.5 -22.5t-23 -14t-28 -5q-31 0 -51 19.5t-20 50.5zM224 0h-135v714h155l196 -433h6l196 433h155v-714h-137v458h-7l-163 -359h-95l-164 359h-7v-458z" />
    <glyph glyph-name="mdotbelow" unicode="&#x1e43;" horiz-adv-x="964" 
d="M411 -130q0 32 20 52.5t51 20.5t51.5 -20.5t20.5 -52.5q0 -20 -9.5 -36.5t-26 -25t-36.5 -8.5q-31 0 -51 19.5t-20 50.5zM80 0v557h143v-93h7q12 40 48.5 70.5t103.5 30.5q61 0 100 -28.5t53 -75.5h5q5 13 12.5 25t18 24t25 22t31 17.5t38 11.5t44.5 4q84 0 131 -47.5
t47 -129.5v-388h-147v340q0 51 -24.5 76t-66.5 25q-27 0 -48.5 -12t-34 -36.5t-12.5 -58.5v-334h-141v338q0 52 -25.5 77.5t-67 25.5t-68 -27.5t-26.5 -78.5v-335h-146z" />
    <glyph glyph-name="Ndotaccent" unicode="&#x1e44;" horiz-adv-x="751" 
d="M309 840q0 30 18.5 50t48.5 20q29 0 49 -20t20 -50q0 -15 -5.5 -27.5t-14.5 -21.5t-22 -14t-27 -5q-30 0 -48.5 19t-18.5 49zM230 0h-143v714h124l305 -447h6v447h142v-714h-123l-305 450h-6v-450z" />
    <glyph glyph-name="ndotaccent" unicode="&#x1e45;" horiz-adv-x="656" 
d="M262 683q0 20 8.5 36t23.5 25t34.5 9t35 -9t25 -25t9.5 -36t-9.5 -35.5t-25 -24t-35.5 -8.5q-29 0 -47.5 19t-18.5 49zM80 0v557h143v-97h7q6 18 17 34.5t30 33.5t49.5 27t68.5 10q86 0 135.5 -49.5t49.5 -145.5v-370h-147v330q0 56 -26.5 82t-69.5 26q-51 0 -81 -34.5
t-30 -94.5v-309h-146z" />
    <glyph glyph-name="Ndotbelow" unicode="&#x1e46;" horiz-adv-x="751" 
d="M305 -130q0 32 20 52.5t50.5 20.5t51.5 -20.5t21 -52.5q0 -15 -5.5 -28.5t-15.5 -22.5t-23 -14t-28 -5q-31 0 -51 19.5t-20 50.5zM230 0h-143v714h124l305 -447h6v447h142v-714h-123l-305 450h-6v-450z" />
    <glyph glyph-name="ndotbelow" unicode="&#x1e47;" horiz-adv-x="656" 
d="M258 -130q0 32 20 52.5t50.5 20.5t51.5 -20.5t21 -52.5q0 -15 -5.5 -28.5t-15.5 -22.5t-23 -14t-29 -5q-30 0 -50 19.5t-20 50.5zM80 0v557h143v-97h7q6 18 17 34.5t30 33.5t49.5 27t68.5 10q86 0 135.5 -49.5t49.5 -145.5v-370h-147v330q0 56 -26.5 82t-69.5 26
q-51 0 -81 -34.5t-30 -94.5v-309h-146z" />
    <glyph glyph-name="Nlinebelow" unicode="&#x1e48;" horiz-adv-x="751" 
d="M537 -179h-316v83h316v-83zM230 0h-143v714h124l305 -447h6v447h142v-714h-123l-305 450h-6v-450z" />
    <glyph glyph-name="nlinebelow" unicode="&#x1e49;" horiz-adv-x="656" 
d="M490 -179h-316v83h316v-83zM80 0v557h143v-97h7q6 18 17 34.5t30 33.5t49.5 27t68.5 10q86 0 135.5 -49.5t49.5 -145.5v-370h-147v330q0 56 -26.5 82t-69.5 26q-51 0 -81 -34.5t-30 -94.5v-309h-146z" />
    <glyph glyph-name="Ncircumflexbelow" unicode="&#x1e4a;" horiz-adv-x="751" 
d="M230 0h-143v714h124l305 -447h6v447h142v-714h-123l-305 450h-6v-450zM183 -200l141 139h106l134 -139h-121l-65 71h-6l-72 -71h-117z" />
    <glyph glyph-name="ncircumflexbelow" unicode="&#x1e4b;" horiz-adv-x="656" 
d="M80 0v557h143v-97h7q6 18 17 34.5t30 33.5t49.5 27t68.5 10q86 0 135.5 -49.5t49.5 -145.5v-370h-147v330q0 56 -26.5 82t-69.5 26q-51 0 -81 -34.5t-30 -94.5v-309h-146zM135 -200l142 139h106l134 -139h-121l-65 71h-6l-72 -71h-118z" />
    <glyph glyph-name="Otildeacute" unicode="&#x1e4c;" horiz-adv-x="737" 
d="M275 913l143 119h154l-159 -119h-138zM213 400v-89q0 -95 42 -144.5t113 -49.5t113.5 49.5t42.5 144.5v89q0 95 -42.5 146t-113.5 51q-70 0 -112.5 -51t-42.5 -146zM59 311v87q0 153 82.5 241t227.5 88t227 -88.5t82 -240.5v-87q0 -151 -82.5 -238t-227.5 -87t-227 87
t-82 238zM359 790l-7.5 7.5t-8.5 8t-8.5 6t-10.5 5t-11 1.5q-33 0 -36 -46h-78q0 47 26.5 83.5t76.5 36.5q27 0 45 -8.5t39 -26.5q2 -2 8.5 -8t9 -8.5t7.5 -5.5t9.5 -4.5t9.5 -1.5q10 0 17 5t11 13t6 17.5t3 18.5h78q0 -51 -30 -87t-76 -36q-30 0 -47 7.5t-33 22.5z" />
    <glyph glyph-name="otildeacute" unicode="&#x1e4d;" horiz-adv-x="624" 
d="M264 798l124 184h130l-147 -184h-107zM301 651q-21 27 -44 27q-33 0 -36 -54h-80q0 62 29 104.5t81 42.5q25 0 43 -9.5t37 -30.5q2 -2 9 -10.5t10 -11.5t10 -6.5t15 -3.5q17 0 25.5 19t9.5 44h80q0 -60 -32 -104t-79 -44q-49 0 -78 37zM313 567q116 0 186.5 -70.5
t70.5 -188.5v-55q0 -124 -69.5 -193.5t-187.5 -69.5q-120 0 -189.5 69t-69.5 194v54q0 117 71 188.5t188 71.5zM312 450q-53 0 -81 -41t-28 -103v-54q0 -62 27.5 -103.5t81.5 -41.5t81.5 41.5t27.5 103.5v54q0 41 -11.5 72.5t-36.5 51.5t-61 20z" />
    <glyph glyph-name="Otildedieresis" unicode="&#x1e4e;" horiz-adv-x="737" 
d="M200 975q0 28 18 45.5t47 17.5q30 0 48 -17.5t18 -45.5t-18 -45.5t-48 -17.5q-29 0 -47 17.5t-18 45.5zM405 975q0 19 8 33t22.5 22t33.5 8q30 0 48.5 -17.5t18.5 -45.5t-18 -45.5t-49 -17.5q-29 0 -46.5 17.5t-17.5 45.5zM213 400v-89q0 -95 42 -144.5t113 -49.5
t113.5 49.5t42.5 144.5v89q0 95 -42.5 146t-113.5 51q-70 0 -112.5 -51t-42.5 -146zM59 311v87q0 153 82.5 241t227.5 88t227 -88.5t82 -240.5v-87q0 -151 -82.5 -238t-227.5 -87t-227 87t-82 238zM359 790l-7.5 7.5t-8.5 8t-8.5 6t-10.5 5t-11 1.5q-33 0 -36 -46h-78
q0 47 26.5 83.5t76.5 36.5q27 0 45 -8.5t39 -26.5q2 -2 8.5 -8t9 -8.5t7.5 -5.5t9.5 -4.5t9.5 -1.5q10 0 17 5t11 13t6 17.5t3 18.5h78q0 -51 -30 -87t-76 -36q-30 0 -47 7.5t-33 22.5z" />
    <glyph glyph-name="otildedieresis" unicode="&#x1e4f;" horiz-adv-x="624" 
d="M301 651q-21 27 -44 27q-33 0 -36 -54h-80q0 62 29 104.5t81 42.5q25 0 43 -9.5t37 -30.5q2 -2 9 -10.5t10 -11.5t10 -6.5t15 -3.5q17 0 25.5 19t9.5 44h80q0 -60 -32 -104t-79 -44q-49 0 -78 37zM139 856q0 19 8.5 34.5t24 23.5t35.5 8q15 0 28 -4.5t22 -13.5t14 -21.5
t5 -26.5q0 -29 -19 -47.5t-50 -18.5q-20 0 -35.5 8.5t-24 23.5t-8.5 34zM353 856q0 30 18.5 48t48.5 18q31 0 50.5 -18t19.5 -48q0 -29 -19 -47.5t-51 -18.5q-30 0 -48.5 18.5t-18.5 47.5zM313 567q116 0 186.5 -70.5t70.5 -188.5v-55q0 -124 -69.5 -193.5t-187.5 -69.5
q-120 0 -189.5 69t-69.5 194v54q0 117 71 188.5t188 71.5zM312 450q-53 0 -81 -41t-28 -103v-54q0 -62 27.5 -103.5t81.5 -41.5t81.5 41.5t27.5 103.5v54q0 41 -11.5 72.5t-36.5 51.5t-61 20z" />
    <glyph glyph-name="Omacrongrave" unicode="&#x1e50;" horiz-adv-x="737" 
d="M448 913h-130l-156 115h148zM213 400v-89q0 -95 42 -144.5t113 -49.5t113.5 49.5t42.5 144.5v89q0 95 -42.5 146t-113.5 51q-70 0 -112.5 -51t-42.5 -146zM59 311v87q0 153 82.5 241t227.5 88t227 -88.5t82 -240.5v-87q0 -151 -82.5 -238t-227.5 -87t-227 87t-82 238z
M528 780h-319v79h319v-79z" />
    <glyph glyph-name="omacrongrave" unicode="&#x1e51;" horiz-adv-x="624" 
d="M380 795h-107l-147 184h130zM473 641h-316v83h316v-83zM313 567q116 0 186.5 -70.5t70.5 -188.5v-55q0 -124 -69.5 -193.5t-187.5 -69.5q-120 0 -189.5 69t-69.5 194v54q0 117 71 188.5t188 71.5zM312 450q-53 0 -81 -41t-28 -103v-54q0 -62 27.5 -103.5t81.5 -41.5
t81.5 41.5t27.5 103.5v54q0 41 -11.5 72.5t-36.5 51.5t-61 20z" />
    <glyph glyph-name="Omacronacute" unicode="&#x1e52;" horiz-adv-x="737" 
d="M275 913l143 119h154l-159 -119h-138zM213 400v-89q0 -95 42 -144.5t113 -49.5t113.5 49.5t42.5 144.5v89q0 95 -42.5 146t-113.5 51q-70 0 -112.5 -51t-42.5 -146zM59 311v87q0 153 82.5 241t227.5 88t227 -88.5t82 -240.5v-87q0 -151 -82.5 -238t-227.5 -87t-227 87
t-82 238zM528 780h-319v79h319v-79z" />
    <glyph glyph-name="omacronacute" unicode="&#x1e53;" horiz-adv-x="624" 
d="M264 798l124 184h130l-147 -184h-107zM473 641h-316v83h316v-83zM313 567q116 0 186.5 -70.5t70.5 -188.5v-55q0 -124 -69.5 -193.5t-187.5 -69.5q-120 0 -189.5 69t-69.5 194v54q0 117 71 188.5t188 71.5zM312 450q-53 0 -81 -41t-28 -103v-54q0 -62 27.5 -103.5
t81.5 -41.5t81.5 41.5t27.5 103.5v54q0 41 -11.5 72.5t-36.5 51.5t-61 20z" />
    <glyph glyph-name="Pacute" unicode="&#x1e54;" horiz-adv-x="658" 
d="M228 786l143 118h155l-160 -118h-138zM87 714h291q114 0 179 -69t65 -174q0 -106 -65 -173.5t-180 -67.5h-138v-230h-152v714zM238 591v-241h80q74 0 112.5 28t38.5 93q0 38 -15 65t-42 41t-65 14h-109z" />
    <glyph glyph-name="pacute" unicode="&#x1e55;" horiz-adv-x="655" 
d="M392 -7q-60 0 -100 25.5t-57 67.5h-7v-270h-148v741h145v-88h8q10 27 31.5 48t55 34t74.5 13q95 0 150.5 -65.5t55.5 -185.5v-68q0 -120 -56 -186t-152 -66zM339 114q51 0 80.5 36t29.5 106v45q0 69 -29.5 105.5t-81.5 36.5q-33 0 -58 -15.5t-38.5 -46.5t-13.5 -73v-64
q0 -60 30.5 -95t80.5 -35zM280 645l124 185h130l-147 -185h-107z" />
    <glyph glyph-name="Pdotaccent" unicode="&#x1e56;" horiz-adv-x="658" 
d="M87 714h291q114 0 179 -69t65 -174q0 -106 -65 -173.5t-180 -67.5h-138v-230h-152v714zM238 591v-241h80q74 0 112.5 28t38.5 93q0 38 -15 65t-42 41t-65 14h-109zM255 840q0 30 18.5 50t48.5 20q29 0 49 -20t20 -50q0 -15 -5.5 -27.5t-14.5 -21.5t-22 -14t-27 -5
q-30 0 -48.5 19t-18.5 49z" />
    <glyph glyph-name="pdotaccent" unicode="&#x1e57;" horiz-adv-x="655" 
d="M392 -7q-60 0 -100 25.5t-57 67.5h-7v-270h-148v741h145v-88h8q10 27 31.5 48t55 34t74.5 13q95 0 150.5 -65.5t55.5 -185.5v-68q0 -120 -56 -186t-152 -66zM339 114q51 0 80.5 36t29.5 106v45q0 69 -29.5 105.5t-81.5 36.5q-33 0 -58 -15.5t-38.5 -46.5t-13.5 -73v-64
q0 -60 30.5 -95t80.5 -35zM262 683q0 20 8 36t23.5 25t34.5 9q30 0 49.5 -20t19.5 -50q0 -20 -9 -35.5t-25 -24t-35 -8.5q-29 0 -47.5 19t-18.5 49z" />
    <glyph glyph-name="Rdotaccent" unicode="&#x1e58;" horiz-adv-x="691" 
d="M378 714q63 0 112 -17.5t80 -48.5t46.5 -72.5t15.5 -91.5q0 -34 -8.5 -64t-21.5 -52t-30.5 -39.5t-34.5 -28t-34 -17.5l144 -283h-169l-124 260h-118v-260h-149v714h291zM236 375h118q58 0 90.5 27.5t32.5 79.5q0 54 -33.5 83t-87.5 29h-120v-219zM269 840q0 30 18.5 50
t47.5 20q30 0 49.5 -20t19.5 -50t-19.5 -49t-49.5 -19q-29 0 -47.5 19t-18.5 49z" />
    <glyph glyph-name="rdotaccent" unicode="&#x1e59;" horiz-adv-x="451" 
d="M84 0v557h148v-88h7q4 16 14 31.5t26 30.5t41.5 24.5t55.5 9.5q29 0 46 -4v-132q-16 6 -56 6q-65 0 -98 -33.5t-33 -91.5v-310h-151zM172 683q0 30 18.5 50t48.5 20q29 0 49 -20t20 -50q0 -15 -5.5 -27.5t-14.5 -21.5t-22 -14t-27 -5q-30 0 -48.5 19t-18.5 49z" />
    <glyph glyph-name="Rdotbelow" unicode="&#x1e5a;" horiz-adv-x="691" 
d="M265 -130q0 32 20 52.5t50 20.5q21 0 37 -9.5t25.5 -26t9.5 -37t-9.5 -37t-25.5 -25t-37 -8.5q-31 0 -50.5 19.5t-19.5 50.5zM378 714q63 0 112 -17.5t80 -48.5t46.5 -72.5t15.5 -91.5q0 -34 -8.5 -64t-21.5 -52t-30.5 -39.5t-34.5 -28t-34 -17.5l144 -283h-169l-124 260
h-118v-260h-149v714h291zM236 375h118q58 0 90.5 27.5t32.5 79.5q0 54 -33.5 83t-87.5 29h-120v-219z" />
    <glyph glyph-name="rdotbelow" unicode="&#x1e5b;" horiz-adv-x="451" 
d="M126 -130q0 32 20 52.5t50.5 20.5t51.5 -20.5t21 -52.5q0 -15 -5.5 -28.5t-15.5 -22.5t-23 -14t-28 -5q-21 0 -37 8.5t-25 24.5t-9 37zM84 0v557h148v-88h7q4 16 14 31.5t26 30.5t41.5 24.5t55.5 9.5q29 0 46 -4v-132q-16 6 -56 6q-65 0 -98 -33.5t-33 -91.5v-310h-151z
" />
    <glyph glyph-name="Rdotbelowmacron" unicode="&#x1e5c;" horiz-adv-x="691" 
d="M265 -130q0 32 20 52.5t50 20.5q21 0 37 -9.5t25.5 -26t9.5 -37t-9.5 -37t-25.5 -25t-37 -8.5q-31 0 -50.5 19.5t-19.5 50.5zM378 714q63 0 112 -17.5t80 -48.5t46.5 -72.5t15.5 -91.5q0 -34 -8.5 -64t-21.5 -52t-30.5 -39.5t-34.5 -28t-34 -17.5l144 -283h-169l-124 260
h-118v-260h-149v714h291zM236 375h118q58 0 90.5 27.5t32.5 79.5q0 54 -33.5 83t-87.5 29h-120v-219zM495 780h-319v79h319v-79z" />
    <glyph glyph-name="rdotbelowmacron" unicode="&#x1e5d;" horiz-adv-x="451" 
d="M126 -130q0 32 20 52.5t50.5 20.5t51.5 -20.5t21 -52.5q0 -15 -5.5 -28.5t-15.5 -22.5t-23 -14t-28 -5q-21 0 -37 8.5t-25 24.5t-9 37zM84 0v557h148v-88h7q4 16 14 31.5t26 30.5t41.5 24.5t55.5 9.5q29 0 46 -4v-132q-16 6 -56 6q-65 0 -98 -33.5t-33 -91.5v-310h-151z
M399 641h-316v83h316v-83z" />
    <glyph glyph-name="Rlinebelow" unicode="&#x1e5e;" horiz-adv-x="691" 
d="M378 714q63 0 112 -17.5t80 -48.5t46.5 -72.5t15.5 -91.5q0 -34 -8.5 -64t-21.5 -52t-30.5 -39.5t-34.5 -28t-34 -17.5l144 -283h-169l-124 260h-118v-260h-149v714h291zM236 375h118q58 0 90.5 27.5t32.5 79.5q0 54 -33.5 83t-87.5 29h-120v-219zM496 -179h-316v83h316
v-83z" />
    <glyph glyph-name="rlinebelow" unicode="&#x1e5f;" horiz-adv-x="451" 
d="M84 0v557h148v-88h7q4 16 14 31.5t26 30.5t41.5 24.5t55.5 9.5q29 0 46 -4v-132q-16 6 -56 6q-65 0 -98 -33.5t-33 -91.5v-310h-151zM358 -179h-316v83h316v-83z" />
    <glyph glyph-name="Sdotaccent" unicode="&#x1e60;" horiz-adv-x="663" 
d="M44 206h146q3 -41 40.5 -69t101.5 -28q41 0 70.5 11.5t44 31.5t14.5 47q0 34 -26 53.5t-82 32.5l-108 23q-39 9 -71 24t-58 38.5t-40.5 58.5t-14.5 79q0 69 36.5 119.5t97 75.5t137.5 25q118 0 192.5 -60.5t75.5 -154.5h-141q-3 39 -36 66.5t-92 27.5q-55 0 -87 -23.5
t-32 -62.5q0 -60 98 -80l108 -23q42 -9 74.5 -23t60.5 -37t43 -59.5t15 -84.5q0 -105 -77 -166.5t-209 -61.5q-51 0 -93.5 9.5t-72.5 25.5t-52.5 37t-35.5 46t-19.5 50.5t-7.5 51.5zM265 840q0 15 4.5 28t13.5 22t21.5 14.5t26.5 5.5q30 0 49.5 -20t19.5 -50q0 -20 -9 -35.5
t-24.5 -24t-35.5 -8.5q-29 0 -47.5 19t-18.5 49z" />
    <glyph glyph-name="sdotaccent" unicode="&#x1e61;" horiz-adv-x="569" 
d="M59 391q0 46 18.5 80.5t50.5 55t71.5 30.5t86.5 10q97 0 156.5 -43.5t59.5 -121.5h-130q-2 16 -12 30t-30 23.5t-46 9.5q-20 0 -36 -4.5t-26.5 -12.5t-16.5 -19.5t-6 -25.5q0 -9 3 -16.5t9 -13.5t12 -10.5t17 -8.5t19 -6.5t21.5 -5l21 -4t22.5 -3.5t20 -3
q84 -14 129.5 -50.5t45.5 -107.5q0 -86 -64 -135t-178 -49q-107 0 -168 45.5t-61 120.5h143q4 -29 27.5 -46t65.5 -17q46 0 69 17.5t23 45.5q0 8 -2 15t-7 12.5t-10 10t-15 8t-16.5 6t-19.5 5.5t-20.5 4.5l-23.5 4.5t-23 4q-41 8 -71 19t-56 29.5t-39.5 48t-13.5 68.5z
M218 683q0 20 8.5 36t23.5 25t35 9q29 0 49 -20t20 -50q0 -15 -5.5 -27.5t-14.5 -21.5t-22 -14t-27 -5q-30 0 -48.5 19t-18.5 49z" />
    <glyph glyph-name="Sdotbelow" unicode="&#x1e62;" horiz-adv-x="663" 
d="M255 -130q0 32 20 52.5t50 20.5q21 0 37.5 -9.5t26 -26t9.5 -37t-10 -37t-26 -25t-37 -8.5q-31 0 -50.5 19.5t-19.5 50.5zM44 206h146q3 -41 40.5 -69t101.5 -28q41 0 70.5 11.5t44 31.5t14.5 47q0 34 -26 53.5t-82 32.5l-108 23q-39 9 -71 24t-58 38.5t-40.5 58.5
t-14.5 79q0 69 36.5 119.5t97 75.5t137.5 25q118 0 192.5 -60.5t75.5 -154.5h-141q-3 39 -36 66.5t-92 27.5q-55 0 -87 -23.5t-32 -62.5q0 -60 98 -80l108 -23q42 -9 74.5 -23t60.5 -37t43 -59.5t15 -84.5q0 -105 -77 -166.5t-209 -61.5q-51 0 -93.5 9.5t-72.5 25.5
t-52.5 37t-35.5 46t-19.5 50.5t-7.5 51.5z" />
    <glyph glyph-name="sdotbelow" unicode="&#x1e63;" horiz-adv-x="569" 
d="M214 -130q0 32 20 52.5t50.5 20.5t51.5 -20.5t21 -52.5q0 -15 -5.5 -28.5t-15.5 -22.5t-23 -14t-28 -5q-31 0 -51 19.5t-20 50.5zM59 391q0 46 18.5 80.5t50.5 55t71.5 30.5t86.5 10q97 0 156.5 -43.5t59.5 -121.5h-130q-2 16 -12 30t-30 23.5t-46 9.5q-20 0 -36 -4.5
t-26.5 -12.5t-16.5 -19.5t-6 -25.5q0 -9 3 -16.5t9 -13.5t12 -10.5t17 -8.5t19 -6.5t21.5 -5l21 -4t22.5 -3.5t20 -3q84 -14 129.5 -50.5t45.5 -107.5q0 -86 -64 -135t-178 -49q-107 0 -168 45.5t-61 120.5h143q4 -29 27.5 -46t65.5 -17q46 0 69 17.5t23 45.5q0 8 -2 15
t-7 12.5t-10 10t-15 8t-16.5 6t-19.5 5.5t-20.5 4.5l-23.5 4.5t-23 4q-41 8 -71 19t-56 29.5t-39.5 48t-13.5 68.5z" />
    <glyph glyph-name="Sacutedotaccent" unicode="&#x1e64;" horiz-adv-x="663" 
d="M118 862q0 29 19 48.5t46 19.5q29 0 48.5 -19.5t19.5 -48.5t-19.5 -47.5t-48.5 -18.5q-27 0 -46 19t-19 47zM297 787l143 118h154l-159 -118h-138zM44 206h146q3 -41 40.5 -69t101.5 -28q41 0 70.5 11.5t44 31.5t14.5 47q0 34 -26 53.5t-82 32.5l-108 23q-39 9 -71 24
t-58 38.5t-40.5 58.5t-14.5 79q0 69 36.5 119.5t97 75.5t137.5 25q118 0 192.5 -60.5t75.5 -154.5h-141q-3 39 -36 66.5t-92 27.5q-55 0 -87 -23.5t-32 -62.5q0 -60 98 -80l108 -23q42 -9 74.5 -23t60.5 -37t43 -59.5t15 -84.5q0 -105 -77 -166.5t-209 -61.5
q-51 0 -93.5 9.5t-72.5 25.5t-52.5 37t-35.5 46t-19.5 50.5t-7.5 51.5z" />
    <glyph glyph-name="sacutedotaccent" unicode="&#x1e65;" horiz-adv-x="569" 
d="M95 755q0 12 3.5 23.5t10 20.5t15 15.5t19 10t21.5 3.5q31 0 51.5 -21t20.5 -52t-20.5 -51t-51.5 -20q-29 0 -49 20t-20 51zM59 391q0 46 18.5 80.5t50.5 55t71.5 30.5t86.5 10q97 0 156.5 -43.5t59.5 -121.5h-130q-2 16 -12 30t-30 23.5t-46 9.5q-20 0 -36 -4.5
t-26.5 -12.5t-16.5 -19.5t-6 -25.5q0 -9 3 -16.5t9 -13.5t12 -10.5t17 -8.5t19 -6.5t21.5 -5l21 -4t22.5 -3.5t20 -3q84 -14 129.5 -50.5t45.5 -107.5q0 -86 -64 -135t-178 -49q-107 0 -168 45.5t-61 120.5h143q4 -29 27.5 -46t65.5 -17q46 0 69 17.5t23 45.5q0 8 -2 15
t-7 12.5t-10 10t-15 8t-16.5 6t-19.5 5.5t-20.5 4.5l-23.5 4.5t-23 4q-41 8 -71 19t-56 29.5t-39.5 48t-13.5 68.5zM297 645l124 185h130l-147 -185h-107z" />
    <glyph glyph-name="Scarondotaccent" unicode="&#x1e66;" horiz-adv-x="663" 
d="M265 979q0 20 8 36t23.5 25t34.5 9q30 0 49.5 -20t19.5 -50q0 -20 -9 -35.5t-24.5 -24t-35.5 -8.5q-29 0 -47.5 19t-18.5 49zM44 206h146q3 -41 40.5 -69t101.5 -28q41 0 70.5 11.5t44 31.5t14.5 47q0 34 -26 53.5t-82 32.5l-108 23q-39 9 -71 24t-58 38.5t-40.5 58.5
t-14.5 79q0 69 36.5 119.5t97 75.5t137.5 25q118 0 192.5 -60.5t75.5 -154.5h-141q-3 39 -36 66.5t-92 27.5q-55 0 -87 -23.5t-32 -62.5q0 -60 98 -80l108 -23q42 -9 74.5 -23t60.5 -37t43 -59.5t15 -84.5q0 -105 -77 -166.5t-209 -61.5q-51 0 -93.5 9.5t-72.5 25.5
t-52.5 37t-35.5 46t-19.5 50.5t-7.5 51.5zM140 902h118l70 -60h8l65 60h120l-126 -120h-122z" />
    <glyph glyph-name="scarondotaccent" unicode="&#x1e67;" horiz-adv-x="569" 
d="M213 905q0 31 20.5 52t48.5 21q31 0 52 -21t21 -52t-21 -51t-52 -20q-28 0 -48.5 20.5t-20.5 50.5zM101 808h112l69 -110h6l63 110h115l-127 -183h-106zM59 391q0 46 18.5 80.5t50.5 55t71.5 30.5t86.5 10q97 0 156.5 -43.5t59.5 -121.5h-130q-2 16 -12 30t-30 23.5
t-46 9.5q-20 0 -36 -4.5t-26.5 -12.5t-16.5 -19.5t-6 -25.5q0 -9 3 -16.5t9 -13.5t12 -10.5t17 -8.5t19 -6.5t21.5 -5l21 -4t22.5 -3.5t20 -3q84 -14 129.5 -50.5t45.5 -107.5q0 -86 -64 -135t-178 -49q-107 0 -168 45.5t-61 120.5h143q4 -29 27.5 -46t65.5 -17
q46 0 69 17.5t23 45.5q0 8 -2 15t-7 12.5t-10 10t-15 8t-16.5 6t-19.5 5.5t-20.5 4.5l-23.5 4.5t-23 4q-41 8 -71 19t-56 29.5t-39.5 48t-13.5 68.5z" />
    <glyph glyph-name="Sdotbelowdotaccent" unicode="&#x1e68;" horiz-adv-x="663" 
d="M255 -130q0 32 20 52.5t50 20.5q21 0 37.5 -9.5t26 -26t9.5 -37t-10 -37t-26 -25t-37 -8.5q-31 0 -50.5 19.5t-19.5 50.5zM44 206h146q3 -41 40.5 -69t101.5 -28q41 0 70.5 11.5t44 31.5t14.5 47q0 34 -26 53.5t-82 32.5l-108 23q-39 9 -71 24t-58 38.5t-40.5 58.5
t-14.5 79q0 69 36.5 119.5t97 75.5t137.5 25q118 0 192.5 -60.5t75.5 -154.5h-141q-3 39 -36 66.5t-92 27.5q-55 0 -87 -23.5t-32 -62.5q0 -60 98 -80l108 -23q42 -9 74.5 -23t60.5 -37t43 -59.5t15 -84.5q0 -105 -77 -166.5t-209 -61.5q-51 0 -93.5 9.5t-72.5 25.5
t-52.5 37t-35.5 46t-19.5 50.5t-7.5 51.5zM265 840q0 15 4.5 28t13.5 22t21.5 14.5t26.5 5.5q30 0 49.5 -20t19.5 -50q0 -20 -9 -35.5t-24.5 -24t-35.5 -8.5q-29 0 -47.5 19t-18.5 49z" />
    <glyph glyph-name="sdotbelowdotaccent" unicode="&#x1e69;" horiz-adv-x="569" 
d="M214 -130q0 32 20 52.5t50.5 20.5t51.5 -20.5t21 -52.5q0 -15 -5.5 -28.5t-15.5 -22.5t-23 -14t-28 -5q-31 0 -51 19.5t-20 50.5zM59 391q0 46 18.5 80.5t50.5 55t71.5 30.5t86.5 10q97 0 156.5 -43.5t59.5 -121.5h-130q-2 16 -12 30t-30 23.5t-46 9.5q-20 0 -36 -4.5
t-26.5 -12.5t-16.5 -19.5t-6 -25.5q0 -9 3 -16.5t9 -13.5t12 -10.5t17 -8.5t19 -6.5t21.5 -5l21 -4t22.5 -3.5t20 -3q84 -14 129.5 -50.5t45.5 -107.5q0 -86 -64 -135t-178 -49q-107 0 -168 45.5t-61 120.5h143q4 -29 27.5 -46t65.5 -17q46 0 69 17.5t23 45.5q0 8 -2 15
t-7 12.5t-10 10t-15 8t-16.5 6t-19.5 5.5t-20.5 4.5l-23.5 4.5t-23 4q-41 8 -71 19t-56 29.5t-39.5 48t-13.5 68.5zM218 683q0 20 8.5 36t23.5 25t35 9q29 0 49 -20t20 -50q0 -15 -5.5 -27.5t-14.5 -21.5t-22 -14t-27 -5q-30 0 -48.5 19t-18.5 49z" />
    <glyph glyph-name="Tdotaccent" unicode="&#x1e6a;" horiz-adv-x="593" 
d="M231 840q0 30 18.5 50t47.5 20q30 0 49.5 -20t19.5 -50q0 -20 -9 -35.5t-24.5 -24t-35.5 -8.5q-29 0 -47.5 19t-18.5 49zM372 0h-151v583h-200v131h552v-131h-201v-583z" />
    <glyph glyph-name="tdotaccent" unicode="&#x1e6b;" horiz-adv-x="440" 
d="M129 811q0 20 8.5 36t23.5 25t35 9q29 0 49 -20t20 -50t-20 -49t-49 -19q-30 0 -48.5 19t-18.5 49zM124 550v138h143v-138h123v-117h-123v-251q0 -38 18 -53t61 -15q28 0 48 2v-112q-33 -7 -84 -7q-104 0 -146.5 37t-42.5 124v275h-85v117h88z" />
    <glyph glyph-name="Tdotbelow" unicode="&#x1e6c;" horiz-adv-x="593" 
d="M226 -130q0 32 20 52.5t51 20.5t51.5 -20.5t20.5 -52.5q0 -15 -5.5 -28.5t-15 -22.5t-23 -14t-28.5 -5q-31 0 -51 19.5t-20 50.5zM372 0h-151v583h-200v131h552v-131h-201v-583z" />
    <glyph glyph-name="tdotbelow" unicode="&#x1e6d;" horiz-adv-x="440" 
d="M176 -130q0 32 20 52.5t51 20.5t51.5 -20.5t20.5 -52.5q0 -15 -5.5 -28.5t-15 -22.5t-23 -14t-28.5 -5q-31 0 -51 19.5t-20 50.5zM124 550v138h143v-138h123v-117h-123v-251q0 -38 18 -53t61 -15q28 0 48 2v-112q-33 -7 -84 -7q-104 0 -146.5 37t-42.5 124v275h-85v117
h88z" />
    <glyph glyph-name="Tlinebelow" unicode="&#x1e6e;" horiz-adv-x="593" 
d="M458 -179h-316v83h316v-83zM372 0h-151v583h-200v131h552v-131h-201v-583z" />
    <glyph glyph-name="tlinebelow" unicode="&#x1e6f;" horiz-adv-x="440" 
d="M408 -179h-316v83h316v-83zM124 550v138h143v-138h123v-117h-123v-251q0 -38 18 -53t61 -15q28 0 48 2v-112q-33 -7 -84 -7q-104 0 -146.5 37t-42.5 124v275h-85v117h88z" />
    <glyph glyph-name="Tcircumflexbelow" unicode="&#x1e70;" horiz-adv-x="593" 
d="M372 0h-151v583h-200v131h552v-131h-201v-583zM104 -200l141 139h107l134 -139h-121l-65 71h-7l-71 -71h-118z" />
    <glyph glyph-name="tcircumflexbelow" unicode="&#x1e71;" horiz-adv-x="440" 
d="M124 550v138h143v-138h123v-117h-123v-251q0 -38 18 -53t61 -15q28 0 48 2v-112q-33 -7 -84 -7q-104 0 -146.5 37t-42.5 124v275h-85v117h88zM54 -200l141 139h106l135 -139h-122l-64 71h-7l-71 -71h-118z" />
    <glyph glyph-name="Udieresisbelow" unicode="&#x1e72;" horiz-adv-x="742" 
d="M231 714v-450q0 -69 38 -106.5t102 -37.5t102.5 37.5t38.5 106.5v450h151v-467q0 -118 -79.5 -189.5t-212 -71.5t-212 72t-79.5 190v466h151zM196 -151q0 30 19 48.5t50 18.5q15 0 28 -5t22 -13.5t14 -21t5 -27.5q0 -29 -19 -47t-50 -18t-50 18t-19 47zM410 -151
q0 30 18.5 48.5t49.5 18.5t50 -18.5t19 -48.5q0 -29 -19 -47t-50 -18t-49.5 18t-18.5 47z" />
    <glyph glyph-name="udieresisbelow" unicode="&#x1e73;" horiz-adv-x="655" 
d="M576 557v-557h-144v93h-7q-13 -39 -55 -70t-108 -31q-87 0 -136.5 47.5t-49.5 143.5v374h147v-335q0 -30 8 -51t22.5 -32t30.5 -16t36 -5q46 0 77 30.5t31 79.5v329h148zM152 -151q0 30 19 48.5t50 18.5q15 0 28 -5t22 -13.5t14 -21t5 -27.5q0 -29 -19 -47t-50 -18
t-50 18t-19 47zM366 -151q0 30 18.5 48.5t49.5 18.5t50 -18.5t19 -48.5q0 -19 -8.5 -34t-24 -23t-36.5 -8q-31 0 -49.5 18t-18.5 47z" />
    <glyph glyph-name="Utildebelow" unicode="&#x1e74;" horiz-adv-x="742" 
d="M362 -168q-2 1 -7.5 6.5t-8.5 8t-8.5 6.5t-10.5 5.5t-11 1.5q-32 0 -36 -47h-78q0 31 10.5 57.5t34.5 45t58 18.5q27 0 45 -8.5t39 -26.5l6 -6t6.5 -6l6 -5t6 -4.5l6 -3.5t7 -2.5t7.5 -0.5q17 0 26 16t10 38h78q0 -51 -29.5 -87.5t-75.5 -36.5q-31 0 -48 8t-33 23z
M231 714v-450q0 -69 38 -106.5t102 -37.5t102.5 37.5t38.5 106.5v450h151v-467q0 -118 -79.5 -189.5t-212 -71.5t-212 72t-79.5 190v466h151z" />
    <glyph glyph-name="utildebelow" unicode="&#x1e75;" horiz-adv-x="655" 
d="M318 -168q-2 2 -5.5 5t-6 5.5l-5.5 5.5t-6 4.5l-7 3.5t-7.5 3t-7.5 1q-33 0 -37 -47h-78q0 31 10.5 57.5t34.5 45t58 18.5q27 0 45 -8.5t39 -26.5q2 -2 8.5 -8t9 -8.5t7.5 -6t9.5 -4.5t10.5 -1q17 0 26 16t10 38h78q0 -51 -29.5 -87.5t-75.5 -36.5q-31 0 -48 8t-33 23z
M576 557v-557h-144v93h-7q-13 -39 -55 -70t-108 -31q-87 0 -136.5 47.5t-49.5 143.5v374h147v-335q0 -30 8 -51t22.5 -32t30.5 -16t36 -5q46 0 77 30.5t31 79.5v329h148z" />
    <glyph glyph-name="Ucircumflexbelow" unicode="&#x1e76;" horiz-adv-x="742" 
d="M231 714v-450q0 -69 38 -106.5t102 -37.5t102.5 37.5t38.5 106.5v450h151v-467q0 -118 -79.5 -189.5t-212 -71.5t-212 72t-79.5 190v466h151zM178 -200l142 139h106l134 -139h-121l-65 71h-6l-72 -71h-118z" />
    <glyph glyph-name="ucircumflexbelow" unicode="&#x1e77;" horiz-adv-x="655" 
d="M576 557v-557h-144v93h-7q-13 -39 -55 -70t-108 -31q-87 0 -136.5 47.5t-49.5 143.5v374h147v-335q0 -30 8 -51t22.5 -32t30.5 -16t36 -5q46 0 77 30.5t31 79.5v329h148zM134 -200l142 139h106l134 -139h-121l-65 71h-6l-72 -71h-118z" />
    <glyph glyph-name="Utildeacute" unicode="&#x1e78;" horiz-adv-x="742" 
d="M278 913l143 119h154l-159 -119h-138zM231 714v-450q0 -69 38 -106.5t102 -37.5t102.5 37.5t38.5 106.5v450h151v-467q0 -118 -79.5 -189.5t-212 -71.5t-212 72t-79.5 190v466h151zM362 790l-7.5 7.5t-8.5 8t-8.5 6t-10.5 5t-11 1.5q-32 0 -36 -46h-78q0 47 26.5 83.5
t76.5 36.5q27 0 45 -8.5t39 -26.5q2 -2 8.5 -8t9 -8.5t7.5 -5.5t9.5 -4.5t10.5 -1.5q17 0 26 16.5t10 37.5h78q0 -51 -29.5 -87t-75.5 -36q-22 0 -38 4.5t-24 10t-19 15.5z" />
    <glyph glyph-name="utildeacute" unicode="&#x1e79;" horiz-adv-x="655" 
d="M576 557v-557h-144v93h-7q-13 -39 -55 -70t-108 -31q-87 0 -136.5 47.5t-49.5 143.5v374h147v-335q0 -30 8 -51t22.5 -32t30.5 -16t36 -5q46 0 77 30.5t31 79.5v329h148zM279 798l124 184h130l-146 -184h-108zM316 651q-21 27 -43 27q-34 0 -37 -54h-80q0 62 29 104.5
t81 42.5q12 0 23 -2.5t20.5 -7.5t18 -12t18.5 -18q2 -2 9 -10.5t10 -11.5t10 -6.5t15 -3.5q17 0 25.5 19t9.5 44h80q0 -60 -32 -104t-79 -44q-49 0 -78 37z" />
    <glyph glyph-name="Umacrondieresis" unicode="&#x1e7a;" horiz-adv-x="742" 
d="M203 975q0 28 18 45.5t47 17.5q30 0 48 -17.5t18 -45.5t-18 -45.5t-48 -17.5q-29 0 -47 17.5t-18 45.5zM408 975q0 19 8 33t22.5 22t33.5 8q30 0 48.5 -17.5t18.5 -45.5t-18 -45.5t-49 -17.5q-29 0 -46.5 17.5t-17.5 45.5zM231 714v-450q0 -69 38 -106.5t102 -37.5
t102.5 37.5t38.5 106.5v450h151v-467q0 -118 -79.5 -189.5t-212 -71.5t-212 72t-79.5 190v466h151zM531 780h-319v79h319v-79z" />
    <glyph glyph-name="umacrondieresis" unicode="&#x1e7b;" horiz-adv-x="655" 
d="M576 557v-557h-144v93h-7q-13 -39 -55 -70t-108 -31q-87 0 -136.5 47.5t-49.5 143.5v374h147v-335q0 -30 8 -51t22.5 -32t30.5 -16t36 -5q46 0 77 30.5t31 79.5v329h148zM488 641h-316v83h316v-83zM154 856q0 19 8.5 34.5t24 23.5t35.5 8q16 0 28.5 -4.5t21.5 -13.5
t14 -21.5t5 -26.5q0 -29 -19 -47.5t-50 -18.5q-20 0 -35.5 8.5t-24 23.5t-8.5 34zM368 856q0 30 18.5 48t48.5 18q32 0 51 -18t19 -48q0 -29 -19 -47.5t-51 -18.5q-30 0 -48.5 18.5t-18.5 47.5z" />
    <glyph glyph-name="Vtilde" unicode="&#x1e7c;" horiz-adv-x="686" 
d="M334 790l-7.5 7.5t-8.5 8t-8 6t-10.5 5t-10.5 1.5q-33 0 -36 -46h-79q0 47 27 83.5t76 36.5q27 0 45 -8.5t39 -26.5q3 -2 7.5 -6.5l7 -7t7 -5.5l7.5 -5t7 -3t9 -1q17 0 26 16.5t10 37.5h78q0 -51 -29.5 -87t-75.5 -36q-30 0 -47 7.5t-34 22.5zM437 0h-185l-235 714h175
l153 -545h7l150 545h168z" />
    <glyph glyph-name="vtilde" unicode="&#x1e7d;" horiz-adv-x="580" 
d="M279 651q-21 27 -44 27q-33 0 -36 -54h-80q0 62 29 104.5t81 42.5q25 0 43 -9.5t37 -30.5q2 -2 9 -10.5t10 -11.5t10 -6.5t15 -3.5q17 0 25.5 19t9.5 44h80q0 -60 -32 -104t-79 -44q-49 0 -78 37zM202 0l-182 557h160l104 -417h6l116 417h155l-193 -557h-166z" />
    <glyph glyph-name="Vdotbelow" unicode="&#x1e7e;" horiz-adv-x="686" 
d="M273 -130q0 32 20 52.5t50.5 20.5t51.5 -20.5t21 -52.5q0 -20 -9.5 -36.5t-26 -25t-36.5 -8.5q-31 0 -51 19.5t-20 50.5zM437 0h-185l-235 714h175l153 -545h7l150 545h168z" />
    <glyph glyph-name="vdotbelow" unicode="&#x1e7f;" horiz-adv-x="580" 
d="M220 -130q0 32 20 52.5t50.5 20.5t51 -20.5t20.5 -52.5q0 -15 -5.5 -28.5t-15 -22.5t-23 -14t-28.5 -5q-20 0 -36 8.5t-25 24.5t-9 37zM202 0l-182 557h160l104 -417h6l116 417h155l-193 -557h-166z" />
    <glyph glyph-name="Wgrave" unicode="&#x1e80;" horiz-adv-x="949" 
d="M555 786h-131l-156 114h149zM343 0h-140l-187 714h163l102 -500h7l123 500h129l122 -500h8l101 500h162l-187 -714h-140l-128 475h-6z" />
    <glyph glyph-name="wgrave" unicode="&#x1e81;" horiz-adv-x="855" 
d="M495 645h-107l-146 185h129zM832 557l-144 -557h-153l-103 386h-5l-101 -386h-155l-147 557h154l77 -402h6l100 402h138l102 -402h6l79 402h146z" />
    <glyph glyph-name="Wacute" unicode="&#x1e82;" horiz-adv-x="949" 
d="M381 786l144 118h154l-160 -118h-138zM343 0h-140l-187 714h163l102 -500h7l123 500h129l122 -500h8l101 500h162l-187 -714h-140l-128 475h-6z" />
    <glyph glyph-name="wacute" unicode="&#x1e83;" horiz-adv-x="855" 
d="M380 645l124 185h129l-146 -185h-107zM832 557l-144 -557h-153l-103 386h-5l-101 -386h-155l-147 557h154l77 -402h6l100 402h138l102 -402h6l79 402h146z" />
    <glyph glyph-name="Wdieresis" unicode="&#x1e84;" horiz-adv-x="949" 
d="M307 826q0 28 17.5 45.5t46.5 17.5q30 0 48 -17.5t18 -45.5t-18 -45.5t-48 -17.5q-29 0 -46.5 17.5t-17.5 45.5zM511 826q0 28 17.5 45.5t46.5 17.5q20 0 35 -8t23.5 -22t8.5 -33q0 -28 -18 -45.5t-49 -17.5q-14 0 -26 4.5t-20.5 13t-13 20t-4.5 25.5zM343 0h-140
l-187 714h163l102 -500h7l123 500h129l122 -500h8l101 500h162l-187 -714h-140l-128 475h-6z" />
    <glyph glyph-name="wdieresis" unicode="&#x1e85;" horiz-adv-x="855" 
d="M254 691q0 30 19 48t50 18t50 -18t19 -48q0 -29 -19 -47t-50 -18t-50 18t-19 47zM468 691q0 30 18.5 48t49.5 18t50 -18t19 -48q0 -29 -19 -47t-50 -18t-49.5 18t-18.5 47zM832 557l-144 -557h-153l-103 386h-5l-101 -386h-155l-147 557h154l77 -402h6l100 402h138
l102 -402h6l79 402h146z" />
    <glyph glyph-name="Wdotaccent" unicode="&#x1e86;" horiz-adv-x="949" 
d="M409 840q0 30 18.5 50t47.5 20q30 0 49.5 -20t19.5 -50t-19.5 -49t-49.5 -19q-29 0 -47.5 19t-18.5 49zM343 0h-140l-187 714h163l102 -500h7l123 500h129l122 -500h8l101 500h162l-187 -714h-140l-128 475h-6z" />
    <glyph glyph-name="wdotaccent" unicode="&#x1e87;" horiz-adv-x="855" 
d="M361 683q0 20 8.5 36t24 25t34.5 9t35 -9t25 -25t9 -36t-9 -35.5t-25 -24t-35 -8.5q-30 0 -48.5 19t-18.5 49zM832 557l-144 -557h-153l-103 386h-5l-101 -386h-155l-147 557h154l77 -402h6l100 402h138l102 -402h6l79 402h146z" />
    <glyph glyph-name="Wdotbelow" unicode="&#x1e88;" horiz-adv-x="949" 
d="M404 -130q0 32 20 52.5t51 20.5t51.5 -20.5t20.5 -52.5q0 -15 -5.5 -28.5t-15 -22.5t-23 -14t-28.5 -5q-31 0 -51 19.5t-20 50.5zM343 0h-140l-187 714h163l102 -500h7l123 500h129l122 -500h8l101 500h162l-187 -714h-140l-128 475h-6z" />
    <glyph glyph-name="wdotbelow" unicode="&#x1e89;" horiz-adv-x="855" 
d="M357 -130q0 32 20 52.5t51 20.5t51.5 -20.5t20.5 -52.5q0 -15 -5.5 -28.5t-15 -22.5t-23 -14t-28.5 -5q-31 0 -51 19.5t-20 50.5zM832 557l-144 -557h-153l-103 386h-5l-101 -386h-155l-147 557h154l77 -402h6l100 402h138l102 -402h6l79 402h146z" />
    <glyph glyph-name="Xdotaccent" unicode="&#x1e8a;" horiz-adv-x="653" 
d="M649 714l-225 -357l222 -357h-173l-146 243h-7l-146 -243h-164l219 359l-217 355h177l142 -248h7l141 248h170zM260 840q0 30 19 50t48 20t49 -20t20 -50q0 -15 -5.5 -27.5t-14.5 -21.5t-22 -14t-27 -5q-30 0 -48.5 19t-18.5 49z" />
    <glyph glyph-name="xdotaccent" unicode="&#x1e8b;" horiz-adv-x="599" 
d="M402 0l-103 182h-6l-103 -182h-156l171 277l-177 280h170l101 -180h6l104 180h161l-181 -276l177 -281h-164zM233 683q0 20 8.5 36t23.5 25t35 9q29 0 49 -20t20 -50q0 -20 -9 -35.5t-25 -24t-35 -8.5q-30 0 -48.5 19t-18.5 49z" />
    <glyph glyph-name="Xdieresis" unicode="&#x1e8c;" horiz-adv-x="653" 
d="M649 714l-225 -357l222 -357h-173l-146 243h-7l-146 -243h-164l219 359l-217 355h177l142 -248h7l141 248h170zM158 826q0 28 18 45.5t47 17.5q30 0 48 -17.5t18 -45.5t-18 -45.5t-48 -17.5q-14 0 -26 4.5t-20.5 13t-13.5 20t-5 25.5zM363 826q0 19 8 33t22.5 22t33.5 8
q30 0 48.5 -17.5t18.5 -45.5t-18 -45.5t-49 -17.5q-29 0 -46.5 17.5t-17.5 45.5z" />
    <glyph glyph-name="xdieresis" unicode="&#x1e8d;" horiz-adv-x="599" 
d="M402 0l-103 182h-6l-103 -182h-156l171 277l-177 280h170l101 -180h6l104 180h161l-181 -276l177 -281h-164zM126 691q0 20 8.5 35t24 23t36.5 8q31 0 50 -18t19 -48q0 -29 -19.5 -47t-49.5 -18q-31 0 -50 18t-19 47zM340 691q0 30 18.5 48t48.5 18q21 0 37 -8t24.5 -23
t8.5 -35q0 -19 -8.5 -34t-24.5 -23t-37 -8q-30 0 -48.5 18t-18.5 47z" />
    <glyph glyph-name="Ydotaccent" unicode="&#x1e8e;" horiz-adv-x="636" 
d="M394 0h-151v259l-239 455h167l146 -298h6l147 298h163l-239 -451v-263zM252 840q0 20 8 36t23.5 25t34.5 9q30 0 49.5 -20t19.5 -50q0 -15 -5.5 -27.5t-14.5 -21.5t-21.5 -14t-27.5 -5q-29 0 -47.5 19t-18.5 49z" />
    <glyph glyph-name="ydotaccent" unicode="&#x1e8f;" horiz-adv-x="602" 
d="M575 557q-177 -529 -180 -536l-14 -37q-16 -43 -33.5 -73t-45 -56t-67.5 -39t-93 -13q-44 0 -79 7v108q16 -4 46 -4q49 0 71 17.5t29 53.5l4 16l-189 556h162l112 -429h6l114 429h157zM234 683q0 30 18.5 50t48.5 20q29 0 49 -20t20 -50q0 -15 -5.5 -27.5t-14.5 -21.5
t-22 -14t-27 -5q-30 0 -48.5 19t-18.5 49z" />
    <glyph glyph-name="Zcircumflex" unicode="&#x1e90;" horiz-adv-x="646" 
d="M58 0v102l337 477v7h-329v128h513v-101l-337 -477v-8h347v-128h-531zM135 778l141 131h104l135 -131h-117l-68 66h-7l-72 -66h-116z" />
    <glyph glyph-name="zcircumflex" unicode="&#x1e91;" horiz-adv-x="553" 
d="M91 644l132 183h107l126 -183h-114l-64 108h-5l-70 -108h-112zM58 0v84l260 347v7h-257v119h434v-94l-250 -336v-7h257v-120h-444z" />
    <glyph glyph-name="Zdotbelow" unicode="&#x1e92;" horiz-adv-x="646" 
d="M252 -130q0 32 20 52.5t51 20.5t51.5 -20.5t20.5 -52.5q0 -15 -5.5 -28.5t-15.5 -22.5t-23 -14t-28 -5q-31 0 -51 19.5t-20 50.5zM58 0v102l337 477v7h-329v128h513v-101l-337 -477v-8h347v-128h-531z" />
    <glyph glyph-name="zdotbelow" unicode="&#x1e93;" horiz-adv-x="553" 
d="M206 -130q0 32 20 52.5t51 20.5t51.5 -20.5t20.5 -52.5q0 -15 -5.5 -28.5t-15.5 -22.5t-23 -14t-28 -5q-31 0 -51 19.5t-20 50.5zM58 0v84l260 347v7h-257v119h434v-94l-250 -336v-7h257v-120h-444z" />
    <glyph glyph-name="Zlinebelow" unicode="&#x1e94;" horiz-adv-x="646" 
d="M58 0v102l337 477v7h-329v128h513v-101l-337 -477v-8h347v-128h-531zM484 -179h-316v83h316v-83z" />
    <glyph glyph-name="zlinebelow" unicode="&#x1e95;" horiz-adv-x="553" 
d="M438 -179h-316v83h316v-83zM58 0v84l260 347v7h-257v119h434v-94l-250 -336v-7h257v-120h-444z" />
    <glyph glyph-name="hlinebelow" unicode="&#x1e96;" horiz-adv-x="660" 
d="M82 0v752h147v-292h7q5 17 16 33.5t30 33.5t50 27.5t69 10.5q55 0 95.5 -21t64.5 -65.5t24 -108.5v-370h-148v329q0 38 -13.5 63.5t-34.5 35.5t-50 10q-50 0 -80 -35t-30 -94v-309h-147zM489 -179h-316v83h316v-83z" />
    <glyph glyph-name="tdieresis" unicode="&#x1e97;" horiz-adv-x="440" 
d="M124 550v138h143v-138h123v-117h-123v-251q0 -38 18 -53t61 -15q28 0 48 2v-112q-33 -7 -84 -7q-104 0 -146.5 37t-42.5 124v275h-85v117h88zM22 819q0 30 19 48.5t49 18.5q31 0 50.5 -18.5t19.5 -48.5q0 -29 -19.5 -47t-50.5 -18q-30 0 -49 18t-19 47zM236 819
q0 30 18.5 48.5t48.5 18.5q32 0 51 -18.5t19 -48.5q0 -29 -19 -47t-51 -18q-30 0 -48.5 18t-18.5 47z" />
    <glyph glyph-name="wring" unicode="&#x1e98;" horiz-adv-x="855" 
d="M832 557l-144 -557h-153l-103 386h-5l-101 -386h-155l-147 557h154l77 -402h6l100 402h138l102 -402h6l79 402h146zM428 618q-49 0 -82 32t-33 81q0 48 33 79.5t82 31.5t81.5 -31.5t32.5 -79.5q0 -49 -32.5 -81t-81.5 -32zM379 730q0 -21 14 -34.5t34.5 -13.5t34.5 13.5
t14 34.5q0 10 -3.5 19t-10 15.5t-15.5 10t-20 3.5q-20 0 -34 -13.5t-14 -34.5z" />
    <glyph glyph-name="yring" unicode="&#x1e99;" horiz-adv-x="602" 
d="M575 557q-177 -529 -180 -536l-14 -37q-16 -43 -33.5 -73t-45 -56t-67.5 -39t-93 -13q-44 0 -79 7v108q16 -4 46 -4q49 0 71 17.5t29 53.5l4 16l-189 556h162l112 -429h6l114 429h157zM301 618q-49 0 -82 32t-33 81q0 48 33 79.5t82 31.5t81.5 -31.5t32.5 -79.5
q0 -49 -33 -81t-81 -32zM252 730q0 -21 13.5 -34.5t34.5 -13.5t35 13.5t14 34.5q0 14 -6.5 24.5t-17.5 17t-25 6.5q-21 0 -34.5 -13.5t-13.5 -34.5z" />
    <glyph glyph-name="Adotbelow" unicode="&#x1ea0;" horiz-adv-x="692" 
d="M172 0h-152l237 714h180l235 -714h-162l-52 173h-233zM346 568h-8l-83 -279h173zM276 -130q0 16 5 29.5t14.5 23t22.5 15t28 5.5q31 0 51.5 -20.5t20.5 -52.5q0 -15 -5.5 -28.5t-15 -22.5t-23 -14t-28.5 -5q-31 0 -50.5 19.5t-19.5 50.5z" />
    <glyph glyph-name="adotbelow" unicode="&#x1ea1;" 
d="M235 -8q-82 0 -132.5 45.5t-50.5 124.5q0 76 51.5 121t146.5 45h134v49q0 24 -11 41t-30 25t-46 8q-76 0 -86 -57h-139q5 75 60.5 123t166.5 48q40 0 73.5 -6t62.5 -20.5t50 -36.5t32.5 -55t11.5 -75v-372h-138v70h-7q-18 -34 -55 -56t-94 -22zM284 101q20 0 38.5 6
t32 17t21.5 26.5t8 33.5v57h-100q-42 0 -64 -18.5t-22 -49.5q0 -34 25 -53t61 -19zM232 -130q0 16 5 29.5t14.5 23t22.5 15t28 5.5q31 0 52 -20.5t21 -52.5q0 -15 -6 -28.5t-15.5 -22.5t-22.5 -14t-29 -5q-31 0 -50.5 19.5t-19.5 50.5z" />
    <glyph glyph-name="Ahookabove" unicode="&#x1ea2;" horiz-adv-x="692" 
d="M172 0h-152l237 714h180l235 -714h-162l-52 173h-233zM346 568h-8l-83 -279h173zM266 881v61q24 10 57 10q52 0 83 -24t31 -68q0 -25 -14 -45t-27.5 -29t-33.5 -19l-43 50q40 13 40 38q0 31 -48 31q-23 0 -45 -5z" />
    <glyph glyph-name="ahookabove" unicode="&#x1ea3;" 
d="M235 -8q-82 0 -132.5 45.5t-50.5 124.5q0 76 51.5 121t146.5 45h134v49q0 24 -11 41t-30 25t-46 8q-76 0 -86 -57h-139q5 75 60.5 123t166.5 48q40 0 73.5 -6t62.5 -20.5t50 -36.5t32.5 -55t11.5 -75v-372h-138v70h-7q-18 -34 -55 -56t-94 -22zM284 101q20 0 38.5 6
t32 17t21.5 26.5t8 33.5v57h-100q-42 0 -64 -18.5t-22 -49.5q0 -34 25 -53t61 -19zM225 757v69q26 10 62 10t63.5 -12t43.5 -35t16 -55q0 -29 -13.5 -52t-31 -36t-45.5 -28l-43 53q27 15 38 27t11 27q0 12 -6.5 21t-18.5 14t-28 5q-23 0 -48 -8z" />
    <glyph glyph-name="Acircumflexacute" unicode="&#x1ea4;" horiz-adv-x="692" 
d="M172 0h-152l237 714h180l235 -714h-162l-52 173h-233zM346 568h-8l-83 -279h173zM151 783l137 122h118l135 -122h-119l-72 62h-7l-70 -62h-122zM458 911l93 99h114l-158 -142z" />
    <glyph glyph-name="acircumflexacute" unicode="&#x1ea5;" 
d="M235 -8q-82 0 -132.5 45.5t-50.5 124.5q0 76 51.5 121t146.5 45h134v49q0 24 -11 41t-30 25t-46 8q-76 0 -86 -57h-139q5 75 60.5 123t166.5 48q40 0 73.5 -6t62.5 -20.5t50 -36.5t32.5 -55t11.5 -75v-372h-138v70h-7q-18 -34 -55 -56t-94 -22zM284 101q20 0 38.5 6
t32 17t21.5 26.5t8 33.5v57h-100q-42 0 -64 -18.5t-22 -49.5q0 -34 25 -53t61 -19zM107 626l137 123h118l135 -123h-119l-71 62h-8l-70 -62h-122zM414 754l93 99h114l-158 -142z" />
    <glyph glyph-name="Acircumflexgrave" unicode="&#x1ea6;" horiz-adv-x="692" 
d="M172 0h-152l237 714h180l235 -714h-162l-52 173h-233zM346 568h-8l-83 -279h173zM615 878h-94l-133 132h112zM151 783l137 122h118l135 -122h-119l-72 62h-7l-70 -62h-122z" />
    <glyph glyph-name="acircumflexgrave" unicode="&#x1ea7;" 
d="M235 -8q-82 0 -132.5 45.5t-50.5 124.5q0 76 51.5 121t146.5 45h134v49q0 24 -11 41t-30 25t-46 8q-76 0 -86 -57h-139q5 75 60.5 123t166.5 48q40 0 73.5 -6t62.5 -20.5t50 -36.5t32.5 -55t11.5 -75v-372h-138v70h-7q-18 -34 -55 -56t-94 -22zM284 101q20 0 38.5 6
t32 17t21.5 26.5t8 33.5v57h-100q-42 0 -64 -18.5t-22 -49.5q0 -34 25 -53t61 -19zM571 721h-94l-133 132h112zM107 626l137 123h118l135 -123h-119l-71 62h-8l-70 -62h-122z" />
    <glyph glyph-name="Acircumflexhookabove" unicode="&#x1ea8;" horiz-adv-x="692" 
d="M172 0h-152l237 714h180l235 -714h-162l-52 173h-233zM346 568h-8l-83 -279h173zM151 783l137 122h118l135 -122h-119l-72 62h-7l-70 -62h-122zM434 980v64q26 5 53 5q53 0 84 -22.5t31 -65.5q0 -58 -70 -98l-43 46q29 19 29 40q0 16 -12 25t-35 9q-22 0 -37 -3z" />
    <glyph glyph-name="acircumflexhookabove" unicode="&#x1ea9;" 
d="M235 -8q-82 0 -132.5 45.5t-50.5 124.5q0 76 51.5 121t146.5 45h134v49q0 24 -11 41t-30 25t-46 8q-76 0 -86 -57h-139q5 75 60.5 123t166.5 48q40 0 73.5 -6t62.5 -20.5t50 -36.5t32.5 -55t11.5 -75v-372h-138v70h-7q-18 -34 -55 -56t-94 -22zM284 101q20 0 38.5 6
t32 17t21.5 26.5t8 33.5v57h-100q-42 0 -64 -18.5t-22 -49.5q0 -34 25 -53t61 -19zM107 626l137 123h118l135 -123h-119l-71 62h-8l-70 -62h-122zM390 823v64q26 5 53 5q53 0 84 -22.5t31 -65.5q0 -58 -69 -98l-44 46q29 19 29 40q0 16 -12 25t-35 9q-22 0 -37 -3z" />
    <glyph glyph-name="Acircumflextilde" unicode="&#x1eaa;" horiz-adv-x="692" 
d="M172 0h-152l237 714h180l235 -714h-162l-52 173h-233zM346 568h-8l-83 -279h173zM343 943q-1 1 -6.5 6t-7.5 6.5l-7 5.5t-8 5.5t-8 2.5t-10 1q-34 0 -37 -45h-79q0 46 27.5 81.5t77.5 35.5q27 0 45 -8t39 -26q2 -2 7.5 -6.5l8 -6.5t7 -5t7.5 -4.5t7.5 -3t8.5 -1.5
q18 0 26.5 16t9.5 38h80q0 -52 -30 -86.5t-77 -34.5q-16 0 -29 2.5t-22.5 7t-16 8.5t-13.5 11zM151 777l137 114h118l135 -114h-119l-72 59h-7l-70 -59h-122z" />
    <glyph glyph-name="acircumflextilde" unicode="&#x1eab;" 
d="M235 -8q-82 0 -132.5 45.5t-50.5 124.5q0 76 51.5 121t146.5 45h134v49q0 24 -11 41t-30 25t-46 8q-76 0 -86 -57h-139q5 75 60.5 123t166.5 48q40 0 73.5 -6t62.5 -20.5t50 -36.5t32.5 -55t11.5 -75v-372h-138v70h-7q-18 -34 -55 -56t-94 -22zM284 101q20 0 38.5 6
t32 17t21.5 26.5t8 33.5v57h-100q-42 0 -64 -18.5t-22 -49.5q0 -34 25 -53t61 -19zM299 786q-1 1 -6.5 6t-7.5 6.5l-7 5.5t-8 5.5t-8 2.5t-10 1q-34 0 -36 -45h-80q0 46 27.5 81.5t77.5 35.5q27 0 45 -8t39 -25q2 -2 9 -8.5t9.5 -8l8 -5t10 -5t9.5 -1.5q18 0 27 16t9 38h80
q0 -51 -30 -86t-77 -35q-31 0 -48 7.5t-33 21.5zM107 620l137 114h118l135 -114h-119l-71 59h-8l-70 -59h-122z" />
    <glyph glyph-name="Acircumflexdotbelow" unicode="&#x1eac;" horiz-adv-x="692" 
d="M172 0h-152l237 714h180l235 -714h-162l-52 173h-233zM346 568h-8l-83 -279h173zM276 -130q0 16 5 29.5t14.5 23t22.5 15t28 5.5q31 0 51.5 -20.5t20.5 -52.5q0 -15 -5.5 -28.5t-15 -22.5t-23 -14t-28.5 -5q-31 0 -50.5 19.5t-19.5 50.5zM158 778l141 131h104l135 -131
h-117l-68 66h-7l-72 -66h-116z" />
    <glyph glyph-name="acircumflexdotbelow" unicode="&#x1ead;" 
d="M235 -8q-82 0 -132.5 45.5t-50.5 124.5q0 76 51.5 121t146.5 45h134v49q0 24 -11 41t-30 25t-46 8q-76 0 -86 -57h-139q5 75 60.5 123t166.5 48q40 0 73.5 -6t62.5 -20.5t50 -36.5t32.5 -55t11.5 -75v-372h-138v70h-7q-18 -34 -55 -56t-94 -22zM284 101q20 0 38.5 6
t32 17t21.5 26.5t8 33.5v57h-100q-42 0 -64 -18.5t-22 -49.5q0 -34 25 -53t61 -19zM117 644l132 183h107l126 -183h-115l-63 108h-5l-70 -108h-112zM232 -130q0 16 5 29.5t14.5 23t22.5 15t28 5.5q31 0 52 -20.5t21 -52.5q0 -15 -6 -28.5t-15.5 -22.5t-22.5 -14t-29 -5
q-31 0 -50.5 19.5t-19.5 50.5z" />
    <glyph glyph-name="Abreveacute" unicode="&#x1eae;" horiz-adv-x="692" 
d="M172 0h-152l237 714h180l235 -714h-162l-52 173h-233zM346 568h-8l-83 -279h173zM511 914q0 -64 -43 -104.5t-122 -40.5q-52 0 -90 19t-57 51.5t-19 74.5h84q0 -19 9.5 -34t28 -24t44.5 -9q40 0 61.5 18.5t21.5 48.5h82zM286 914l116 119h120l-135 -119h-101z" />
    <glyph glyph-name="abreveacute" unicode="&#x1eaf;" 
d="M235 -8q-82 0 -132.5 45.5t-50.5 124.5q0 76 51.5 121t146.5 45h134v49q0 24 -11 41t-30 25t-46 8q-76 0 -86 -57h-139q5 75 60.5 123t166.5 48q40 0 73.5 -6t62.5 -20.5t50 -36.5t32.5 -55t11.5 -75v-372h-138v70h-7q-18 -34 -55 -56t-94 -22zM284 101q20 0 38.5 6
t32 17t21.5 26.5t8 33.5v57h-100q-42 0 -64 -18.5t-22 -49.5q0 -34 25 -53t61 -19zM467 757q0 -64 -43 -104.5t-122 -40.5q-78 0 -121.5 40.5t-43.5 104.5h83q1 -29 22 -48t60 -19q40 0 62 18.5t22 48.5h81zM242 757l116 119h120l-135 -119h-101z" />
    <glyph glyph-name="Abrevegrave" unicode="&#x1eb0;" horiz-adv-x="692" 
d="M172 0h-152l237 714h180l235 -714h-162l-52 173h-233zM346 568h-8l-83 -279h173zM510 914q0 -31 -10.5 -57.5t-30.5 -46t-51.5 -30.5t-71.5 -11q-52 0 -90.5 19t-57.5 51.5t-19 74.5h85q0 -20 9 -34.5t27.5 -23.5t45.5 -9q39 0 61 19t22 48h81zM411 914h-101l-141 119
h126z" />
    <glyph glyph-name="abrevegrave" unicode="&#x1eb1;" 
d="M235 -8q-82 0 -132.5 45.5t-50.5 124.5q0 76 51.5 121t146.5 45h134v49q0 24 -11 41t-30 25t-46 8q-76 0 -86 -57h-139q5 75 60.5 123t166.5 48q40 0 73.5 -6t62.5 -20.5t50 -36.5t32.5 -55t11.5 -75v-372h-138v70h-7q-18 -34 -55 -56t-94 -22zM284 101q20 0 38.5 6
t32 17t21.5 26.5t8 33.5v57h-100q-42 0 -64 -18.5t-22 -49.5q0 -34 25 -53t61 -19zM466 757q0 -64 -42.5 -104.5t-121.5 -40.5q-52 0 -90.5 19t-57.5 51.5t-19 74.5h85q0 -30 21 -48.5t61 -18.5q27 0 45.5 9t28 24t10.5 34h80zM367 757h-101l-140 119h125z" />
    <glyph glyph-name="Abrevehookabove" unicode="&#x1eb2;" horiz-adv-x="692" 
d="M172 0h-152l237 714h180l235 -714h-162l-52 173h-233zM346 568h-8l-83 -279h173zM510 899q0 -61 -42.5 -96.5t-121.5 -35.5q-51 0 -88.5 16.5t-57.5 46.5t-20 71h84q0 -16 8.5 -29.5t28 -22.5t45.5 -9q39 0 61 17.5t22 41.5h81zM243 978v62q24 10 59 10q50 0 81 -22.5
t31 -61.5q0 -22 -12.5 -41t-28.5 -30t-34 -17l-42 49q34 9 34 30q0 26 -43 26q-22 0 -45 -5z" />
    <glyph glyph-name="abrevehookabove" unicode="&#x1eb3;" 
d="M235 -8q-82 0 -132.5 45.5t-50.5 124.5q0 76 51.5 121t146.5 45h134v49q0 24 -11 41t-30 25t-46 8q-76 0 -86 -57h-139q5 75 60.5 123t166.5 48q40 0 73.5 -6t62.5 -20.5t50 -36.5t32.5 -55t11.5 -75v-372h-138v70h-7q-18 -34 -55 -56t-94 -22zM284 101q20 0 38.5 6
t32 17t21.5 26.5t8 33.5v57h-100q-42 0 -64 -18.5t-22 -49.5q0 -34 25 -53t61 -19zM466 742q0 -61 -42.5 -96.5t-121.5 -35.5q-77 0 -121 36t-44 98h83q0 -12 5 -22.5t15 -19.5t26 -14t36 -5q39 0 61.5 17.5t22.5 41.5h80zM199 821v62q24 10 59 10q50 0 81 -22.5t31 -61.5
q0 -32 -23 -55t-51 -33l-43 49q34 10 34 30q0 26 -43 26q-22 0 -45 -5z" />
    </font>
</defs>
</svg>
